<?xml version="1.0" encoding="utf-8"?>
<!-- Generator: Adobe Illustrator 15.0.0, SVG Export Plug-In . SVG Version: 6.00 Build 0)  -->
<!DOCTYPE svg PUBLIC "-//W3C//DTD SVG 1.1//EN" "http://www.w3.org/Graphics/SVG/1.1/DTD/svg11.dtd">
<svg version="1.1"  xmlns="http://www.w3.org/2000/svg" xmlns:xlink="http://www.w3.org/1999/xlink" x="0px" y="0px"
	 width="48px" height="48px" viewBox="0 0 48 48" enable-background="new 0 0 48 48" xml:space="preserve">
<path fill="#FFFFFF" stroke="#795548" stroke-width="2" stroke-miterlimit="10" d="M27,5c0,0-3,3.07-3,9.035"/>
<path fill="#4CAF50" d="M24,14.035c0,0-1.25-12.535-14-8.035C11.375,19.042,24,14.035,24,14.035z"/>
<path fill="#D32F2F" d="M6.285,25.934C4.42,15.866,11.879,5.797,24,14.035c12.121-8.238,19.58,1.831,17.715,11.898
	C39.851,36.002,29.594,45.454,24,38.748C18.406,45.454,8.149,36.002,6.285,25.934z"/>
<path fill="#FFF3E0" d="M32.382,13c-2.19,0-4.632,0.905-7.258,2.689L24,16.453v19.173h0l1.536,1.841
	c0.86,1.032,1.837,1.534,2.985,1.534c3.959,0,9.85-5.991,11.227-13.432c0.704-3.798-0.109-7.66-2.121-10.08
	C36.272,13.861,34.458,13,32.382,13z"/>
<path fill="#5D4037" d="M31.5,26.207c0,1.104-0.895,2-2,2c-1.104,0-2-0.896-2-2c0-1.105,2-3.414,2-3.414S31.5,25.103,31.5,26.207z"
	/>
<path fill="#F44336" d="M24,14.035C11.879,5.797,4.42,15.866,6.285,25.934C8.149,36.002,18.406,45.454,24,38.748V14.035z"/>
</svg>
