<?xml version="1.0" encoding="UTF-8" standalone="no"?>
<!-- Created with Inkscape (http://www.inkscape.org/) -->

<svg
   xmlns:dc="http://purl.org/dc/elements/1.1/"
   xmlns:cc="http://creativecommons.org/ns#"
   xmlns:rdf="http://www.w3.org/1999/02/22-rdf-syntax-ns#"
   xmlns:svg="http://www.w3.org/2000/svg"
   xmlns="http://www.w3.org/2000/svg"
   xmlns:sodipodi="http://sodipodi.sourceforge.net/DTD/sodipodi-0.dtd"
   xmlns:inkscape="http://www.inkscape.org/namespaces/inkscape"
   width="48"
   height="48"
   viewBox="0 0 48.000001 48.000001"
   id="svg5912"
   version="1.1"
   inkscape:version="0.91 r13725"
   sodipodi:docname="arugula.svg">
  <defs
     id="defs5914" />
  <sodipodi:namedview
     id="base"
     pagecolor="#ffffff"
     bordercolor="#666666"
     borderopacity="1.0"
     inkscape:pageopacity="0.0"
     inkscape:pageshadow="2"
     inkscape:zoom="4"
     inkscape:cx="10.5"
     inkscape:cy="50"
     inkscape:document-units="px"
     inkscape:current-layer="layer1"
     showgrid="false"
     units="px"
     inkscape:window-width="1199"
     inkscape:window-height="711"
     inkscape:window-x="0"
     inkscape:window-y="1"
     inkscape:window-maximized="0" />
  <metadata
     id="metadata5917">
    <rdf:RDF>
      <cc:Work
         rdf:about="">
        <dc:format>image/svg+xml</dc:format>
        <dc:type
           rdf:resource="http://purl.org/dc/dcmitype/StillImage" />
        <dc:title></dc:title>
      </cc:Work>
    </rdf:RDF>
  </metadata>
  <g
     inkscape:label="Layer 1"
     inkscape:groupmode="layer"
     id="layer1"
     transform="translate(0,-1004.3623)">
    <g
       id="g480"
       transform="matrix(0.16436096,0,0,-0.16436096,15.977291,1050.3656)">
      <path
         inkscape:connector-curvature="0"
         d="m 0,0 c 0.563,2.996 2.862,10.908 9.26,15.904 6.397,4.997 10.795,9.331 10.305,14.955 -0.491,5.623 -13.356,-5.321 -11.083,11.279 2.273,16.6 18.496,29.703 25.568,34.487 7.072,4.784 15.893,22.289 -0.893,27.992 -16.787,5.703 -14.904,26.195 -4.466,33.512 10.437,7.318 22.374,12.166 20.938,19.842 -1.436,7.675 -10.792,6.672 -14.526,6.767 -3.733,0.095 -11.868,0.372 -13.012,6.152 -1.145,5.78 12.353,16.52 14.543,24.67 2.19,8.15 0.36,67.427 -46.35,75.123 -12.808,1.456 -31.494,-16.431 -22.983,-47.422 8.511,-30.991 22.03,-43.329 21.406,-51.408 -0.624,-8.079 -7.935,-14.431 -13.119,-15.518 -5.184,-1.088 -0.56,-9.737 4.002,-12.878 4.562,-3.141 16.189,-17.121 16.813,-22.737 0.624,-5.616 -6.648,-2.925 -9.31,0.027 -2.663,2.952 -6.471,7.875 -9.812,5.276 -3.341,-2.599 -2.185,-15.287 3.268,-19.863 5.454,-4.576 16.486,-16.34 12.77,-33.903 -3.716,-17.562 -3.76,-22.879 -8.658,-24.127 -4.897,-1.248 -4.405,-9.53 0.236,-16.101 4.642,-6.57 10.727,-18.426 2.797,-15.93 C -20.236,18.595 -2.973,3.036 -2.557,0 -2.141,-3.036 0,0 0,0"
         style="fill:#8cc63f;fill-opacity:1;fill-rule:nonzero;stroke:none"
         id="path482" />
    </g>
    <g
       id="g484"
       transform="matrix(0.16436096,0,0,-0.16436096,15.284461,1051.4172)">
      <path
         inkscape:connector-curvature="0"
         d="m 0,0 c 0,0 0.074,0.978 0.212,2.811 0.138,1.833 0.335,4.519 0.624,7.955 0.557,6.865 1.434,16.638 2.557,28.356 1.112,11.717 2.471,25.373 3.76,40.01 0.656,7.318 1.267,14.883 1.84,22.574 0.57,7.69 1.049,15.507 1.459,23.329 0.373,7.821 0.665,15.648 0.803,23.355 0.043,1.926 0.043,3.845 0.067,5.755 0.02,1.91 0.039,3.81 0.019,5.698 -0.009,1.889 -0.018,3.766 -0.027,5.63 -0.038,1.864 -0.075,3.714 -0.113,5.548 -0.019,0.918 -0.039,1.832 -0.059,2.741 -0.034,0.909 -0.068,1.814 -0.101,2.715 -0.069,1.801 -0.138,3.586 -0.205,5.351 -0.099,1.763 -0.196,3.508 -0.292,5.232 -0.05,0.861 -0.098,1.718 -0.147,2.569 -0.064,0.85 -0.128,1.695 -0.192,2.533 -0.127,1.678 -0.252,3.333 -0.376,4.963 -0.157,1.627 -0.312,3.23 -0.464,4.806 -0.275,3.155 -0.682,6.188 -1.026,9.105 -0.162,1.461 -0.377,2.882 -0.582,4.273 -0.203,1.391 -0.402,2.75 -0.595,4.075 -0.409,2.647 -0.879,5.143 -1.276,7.498 -0.904,4.688 -1.733,8.771 -2.56,12.1 -0.748,3.349 -1.497,5.939 -1.971,7.715 -0.48,1.775 -0.737,2.721 -0.737,2.721 0,0 0.277,-0.941 0.795,-2.704 0.513,-1.766 1.318,-4.342 2.139,-7.676 0.899,-3.315 1.817,-7.383 2.823,-12.06 0.449,-2.349 0.974,-4.841 1.441,-7.484 0.223,-1.324 0.451,-2.681 0.685,-4.071 0.235,-1.39 0.481,-2.811 0.675,-4.271 0.408,-2.916 0.881,-5.95 1.225,-9.107 0.187,-1.577 0.377,-3.181 0.57,-4.809 0.159,-1.632 0.32,-3.289 0.484,-4.969 0.082,-0.84 0.164,-1.686 0.247,-2.538 0.067,-0.852 0.135,-1.71 0.203,-2.573 0.134,-1.728 0.269,-3.476 0.406,-5.243 0.106,-1.769 0.213,-3.558 0.321,-5.363 0.054,-0.903 0.107,-1.811 0.161,-2.722 0.039,-0.912 0.079,-1.828 0.119,-2.748 0.076,-1.84 0.154,-3.695 0.232,-5.564 0.05,-1.87 0.099,-3.753 0.15,-5.648 0.06,-1.895 0.083,-3.801 0.103,-5.717 0.017,-1.917 0.059,-3.843 0.057,-5.776 0.029,-7.735 -0.095,-15.592 -0.301,-23.446 C 12.912,117.077 12.6,109.226 12.195,101.505 11.787,93.785 11.338,86.19 10.839,78.847 9.864,64.158 8.798,50.468 7.94,38.738 7.07,27.01 6.405,17.235 5.999,10.408 5.786,6.999 5.647,4.303 5.548,2.467 5.449,0.631 5.397,-0.348 5.397,-0.348 Z"
         style="fill:#d5e7bf;fill-opacity:1;fill-rule:nonzero;stroke:none"
         id="path486" />
    </g>
    <g
       id="g488"
       transform="matrix(0.16436096,0,0,-0.16436096,17.213991,1021.052)">
      <path
         inkscape:connector-curvature="0"
         d="m 0,0 c 4.22,1.859 7.759,5.943 10.542,9.49 3.116,3.973 5.816,8.301 7.869,12.917 2.117,4.758 3.605,9.876 4.857,14.924 1.087,4.381 2.077,9.583 0.181,13.87 -0.083,0.19 -0.425,0.099 -0.399,-0.108 0.631,-5.109 0.394,-9.628 -0.93,-14.629 C 20.809,31.513 19.365,26.492 17.203,21.838 15.252,17.638 12.774,13.678 9.935,10.023 8.485,8.156 6.912,6.41 5.253,4.728 3.584,3.038 1.67,1.68 -0.047,0.061 -0.082,0.029 -0.038,-0.017 0,0"
         style="fill:#d5e7bf;fill-opacity:1;fill-rule:nonzero;stroke:none"
         id="path490" />
    </g>
    <g
       id="g492"
       transform="matrix(0.16436096,0,0,-0.16436096,17.015671,1020.8252)">
      <path
         inkscape:connector-curvature="0"
         d="m 0,0 c -7.845,4.412 -14.42,10.498 -20.143,17.395 -2.908,3.504 -5.581,7.19 -8.081,10.995 -2.465,3.752 -4.589,7.73 -7.244,11.351 -0.106,0.145 -0.403,0.065 -0.321,-0.135 1.727,-4.161 4.208,-7.979 6.663,-11.744 2.473,-3.793 5.115,-7.486 7.998,-10.98 C -15.332,9.858 -8.388,3.728 -0.374,-0.64 0.045,-0.868 0.417,-0.234 0,0"
         style="fill:#d5e7bf;fill-opacity:1;fill-rule:nonzero;stroke:none"
         id="path494" />
    </g>
    <g
       id="g496"
       transform="matrix(0.16436096,0,0,-0.16436096,17.295231,1026.657)">
      <path
         inkscape:connector-curvature="0"
         d="m 0,0 c 3.278,-0.208 7.173,1.197 10.299,2.094 3.033,0.87 6.007,1.961 8.915,3.182 3.094,1.299 6.121,2.765 9.045,4.412 2.776,1.564 6.24,3.288 8.438,5.621 0.206,0.219 -0.052,0.515 -0.307,0.398 C 33.41,14.345 30.693,12.068 27.806,10.464 24.801,8.793 21.706,7.288 18.527,5.978 15.532,4.745 12.468,3.703 9.367,2.769 6.354,1.862 2.743,1.592 -0.039,0.145 -0.112,0.107 -0.072,0.005 0,0"
         style="fill:#d5e7bf;fill-opacity:1;fill-rule:nonzero;stroke:none"
         id="path498" />
    </g>
    <g
       id="g500"
       transform="matrix(0.16436096,0,0,-0.16436096,17.267591,1026.8889)">
      <path
         inkscape:connector-curvature="0"
         d="m 0,0 c -5.687,0.79 -11.356,1.973 -16.832,3.708 -2.881,0.913 -5.719,1.97 -8.485,3.185 -1.081,0.475 -2.176,0.962 -3.168,1.608 -1.056,0.687 -1.66,1.717 -2.68,2.4 -0.167,0.112 -0.424,-0.034 -0.411,-0.236 0.125,-1.984 2.577,-3.3 4.17,-4.093 2.699,-1.344 5.6,-2.38 8.456,-3.331 C -12.816,1.199 -6.532,-0.13 -0.088,-0.651 0.28,-0.681 0.371,-0.052 0,0"
         style="fill:#d5e7bf;fill-opacity:1;fill-rule:nonzero;stroke:none"
         id="path502" />
    </g>
    <g
       id="g504"
       transform="matrix(0.16436096,0,0,-0.16436096,16.986511,1033.9899)">
      <path
         inkscape:connector-curvature="0"
         d="m 0,0 c -1.221,0.569 -2.607,0.743 -3.888,1.188 -1.379,0.48 -2.763,0.949 -4.132,1.456 -3.011,1.113 -5.983,2.399 -8.698,4.127 -2.506,1.596 -4.788,3.575 -6.535,5.992 -0.738,1.021 -1.388,2.118 -1.899,3.27 -0.575,1.296 -0.702,2.888 -1.477,4.066 -0.099,0.15 -0.342,0.133 -0.392,-0.052 -0.618,-2.285 1.29,-5.426 2.537,-7.271 1.614,-2.389 3.712,-4.406 6.064,-6.061 2.8,-1.971 5.933,-3.41 9.119,-4.634 2.603,-1 6.501,-3.073 9.287,-2.188 C 0.03,-0.093 0.048,-0.023 0,0"
         style="fill:#d5e7bf;fill-opacity:1;fill-rule:nonzero;stroke:none"
         id="path506" />
    </g>
    <g
       id="g508"
       transform="matrix(0.16436096,0,0,-0.16436096,16.930041,1035.1271)">
      <path
         inkscape:connector-curvature="0"
         d="m 0,0 c 1.806,1.318 3.379,2.629 5.431,3.582 2.294,1.065 4.699,1.797 7.11,2.541 1.54,0.475 9.093,2.126 8.506,4.491 -0.055,0.224 -0.341,0.182 -0.413,0 C 19.883,8.73 15.905,7.917 14.147,7.343 12.079,6.668 9.979,6.088 7.936,5.336 5.077,4.285 1.604,2.767 -0.107,0.107 -0.147,0.044 -0.064,-0.047 0,0"
         style="fill:#d5e7bf;fill-opacity:1;fill-rule:nonzero;stroke:none"
         id="path510" />
    </g>
    <g
       id="g512"
       transform="matrix(0.16436096,0,0,-0.16436096,16.717731,1038.7274)">
      <path
         inkscape:connector-curvature="0"
         d="m 0,0 c 1.343,1.297 2.454,2.457 4.127,3.375 1.529,0.84 3.116,1.584 4.674,2.368 3.673,1.847 7.341,3.702 10.995,5.586 5.402,2.786 10.845,6.813 12.559,12.983 0.11,0.398 -0.476,0.662 -0.677,0.286 C 30.05,21.559 28.449,18.719 25.83,16.395 22.898,13.793 19.21,12.199 15.753,10.432 12.201,8.616 8.667,6.763 5.132,4.913 3.196,3.9 0.192,2.512 -0.1,0.041 -0.106,-0.012 -0.033,-0.032 0,0"
         style="fill:#d5e7bf;fill-opacity:1;fill-rule:nonzero;stroke:none"
         id="path514" />
    </g>
    <g
       id="g516"
       transform="matrix(0.16436096,0,0,-0.16436096,16.587971,1038.6082)">
      <path
         inkscape:connector-curvature="0"
         d="M 0,0 C -1.664,0.513 -3.3,0.984 -4.784,1.934 -6.135,2.798 -7.128,4.055 -8.425,4.966 -8.642,5.119 -8.973,4.864 -8.883,4.614 -7.757,1.491 -3.217,-0.644 -0.083,-0.613 0.272,-0.609 0.336,-0.104 0,0"
         style="fill:#d5e7bf;fill-opacity:1;fill-rule:nonzero;stroke:none"
         id="path518" />
    </g>
    <g
       id="g520"
       transform="matrix(0.16436096,0,0,-0.16436096,16.028771,1045.5831)">
      <path
         inkscape:connector-curvature="0"
         d="m 0,0 c -1.387,2.697 -4.707,4.037 -6.885,6 -2.693,2.426 -5.483,5.492 -6.226,9.147 -0.038,0.187 -0.345,0.238 -0.427,0.056 -1.358,-3.014 1.59,-5.936 3.551,-7.966 1.221,-1.263 2.555,-2.412 3.972,-3.45 C -4.22,2.474 -1.81,1.586 -0.606,-0.354 -0.367,-0.74 0.206,-0.401 0,0"
         style="fill:#d5e7bf;fill-opacity:1;fill-rule:nonzero;stroke:none"
         id="path522" />
    </g>
    <g
       id="g524"
       transform="matrix(0.16436096,0,0,-0.16436096,15.883831,1047.308)">
      <path
         inkscape:connector-curvature="0"
         d="m 0,0 c 1.726,1.534 3.064,2.721 5.284,3.538 1.74,0.64 3.548,1.076 5.305,1.665 1.992,0.666 6.354,2.105 6.516,4.617 0.009,0.148 -0.158,0.272 -0.297,0.226 C 15.374,9.565 14.37,8.074 12.959,7.366 11.088,6.427 9.051,5.945 7.07,5.307 4.399,4.448 0.727,3.05 -0.391,0.228 -0.484,-0.007 -0.157,-0.14 0,0"
         style="fill:#d5e7bf;fill-opacity:1;fill-rule:nonzero;stroke:none"
         id="path526" />
    </g>
    <g
       id="g528"
       transform="matrix(0.16436096,0,0,-0.16436096,33.727941,1006.9569)">
      <path
         inkscape:connector-curvature="0"
         d="m 0,0 c 4.235,-0.658 25.58,-18.692 22.295,-43.379 -3.285,-24.687 2.861,-32.097 5.912,-35.939 3.052,-3.842 5.097,-22.873 -10.608,-31.984 -15.704,-9.112 -18.067,-12.109 -18.565,-19.611 -0.498,-7.502 11.766,-11.661 8.669,-24.366 -3.097,-12.706 -31.374,-15.477 -29.344,-28.884 2.029,-13.407 7.794,-14.071 10.053,-12.177 2.259,1.894 -1.253,-11.835 -11.978,-18.467 -10.726,-6.632 -10.917,-9.227 -10.757,-13.833 0.161,-4.606 6.63,-9.158 10.919,-9.033 2.494,-2.404 -0.224,-5.238 -7.487,-9.638 -7.263,-4.4 -16.355,-13.4 -18.081,-19.357 -1.347,1.693 -6.092,14.337 -9.729,21.719 -3.637,7.381 8.577,9.973 11.762,17.898 3.184,7.925 -4.377,18.869 -3.327,27.433 1.05,8.564 13.342,8.618 13.853,18.923 0.512,10.304 -12.635,30.509 -17.875,37.398 -5.24,6.888 0.428,18.342 9.408,18.789 8.98,0.448 17.984,-0.108 10.002,17.142 -7.981,17.249 -14.192,26.754 -3.961,51.001 C -28.609,-32.118 -16.832,2.616 0,0"
         style="fill:#8cc63f;fill-opacity:1;fill-rule:nonzero;stroke:none"
         id="path530" />
    </g>
    <g
       id="g532"
       transform="matrix(0.16436096,0,0,-0.16436096,24.961411,1051.669)">
      <path
         inkscape:connector-curvature="0"
         d="m 0,0 c 0,0 0.892,3.804 2.452,10.46 0.767,3.328 1.762,7.371 2.881,12.006 1.113,4.641 2.407,9.857 3.814,15.548 2.831,11.374 6.134,24.643 9.673,38.86 0.877,3.555 1.769,7.168 2.671,10.827 0.888,3.661 1.786,7.367 2.692,11.102 0.917,3.733 1.785,7.507 2.682,11.292 0.89,3.785 1.799,7.583 2.647,11.393 0.862,3.807 1.725,7.615 2.584,11.407 0.819,3.801 1.634,7.587 2.444,11.344 0.828,3.753 1.572,7.491 2.318,11.183 0.373,1.845 0.744,3.68 1.112,5.502 0.369,1.821 0.742,3.629 1.067,5.429 1.336,7.196 2.691,14.143 3.762,20.767 0.556,3.309 1.118,6.524 1.624,9.641 0.469,3.122 0.922,6.138 1.357,9.034 0.217,1.448 0.43,2.866 0.638,4.252 0.105,0.693 0.207,1.378 0.309,2.055 0.088,0.678 0.175,1.349 0.261,2.01 0.341,2.648 0.665,5.16 0.969,7.52 0.303,2.361 0.588,4.57 0.851,6.613 0.216,2.048 0.415,3.929 0.594,5.629 0.715,6.799 1.124,10.684 1.124,10.684 0,0 -0.324,-3.893 -0.892,-10.707 -0.143,-1.704 -0.301,-3.59 -0.473,-5.644 -0.219,-2.049 -0.456,-4.265 -0.709,-6.632 -0.253,-2.369 -0.522,-4.889 -0.806,-7.546 -0.071,-0.664 -0.144,-1.336 -0.218,-2.017 -0.087,-0.68 -0.175,-1.367 -0.264,-2.063 -0.178,-1.391 -0.361,-2.815 -0.547,-4.269 -0.373,-2.908 -0.761,-5.937 -1.163,-9.072 -0.438,-3.131 -0.931,-6.361 -1.416,-9.686 -0.93,-6.656 -2.135,-13.638 -3.317,-20.874 -0.287,-1.811 -0.621,-3.628 -0.951,-5.46 -0.329,-1.832 -0.661,-3.678 -0.995,-5.534 -0.666,-3.713 -1.331,-7.474 -2.079,-11.249 -0.729,-3.78 -1.464,-7.589 -2.202,-11.414 -0.778,-3.816 -1.559,-7.647 -2.34,-11.478 -0.767,-3.834 -1.594,-7.655 -2.403,-11.464 C 28.935,105.641 28.147,101.842 27.31,98.086 26.484,94.328 25.666,90.599 24.856,86.915 24.032,83.236 23.219,79.6 22.418,76.025 19.187,61.735 16.172,48.398 13.588,36.966 12.305,31.251 11.125,26.012 10.117,21.369 9.102,16.725 8.2,12.685 7.504,9.335 6.088,2.646 5.278,-1.176 5.278,-1.176 Z"
         style="fill:#d5e7bf;fill-opacity:1;fill-rule:nonzero;stroke:none"
         id="path534" />
    </g>
    <g
       id="g536"
       transform="matrix(0.16436096,0,0,-0.16436096,31.765621,1022.4869)">
      <path
         inkscape:connector-curvature="0"
         d="m 0,0 c 4.967,5.593 11.938,8.274 18.516,11.435 3.008,1.446 5.973,3.038 8.626,5.078 2.245,1.727 4.892,4.041 5.834,6.802 0.093,0.272 -0.299,0.504 -0.489,0.285 -1.094,-1.265 -1.93,-2.708 -3.09,-3.929 C 28.113,18.319 26.661,17.138 25.128,16.082 22.29,14.128 19.191,12.604 16.082,11.137 10.135,8.33 3.968,5.454 -0.061,0.047 -0.088,0.012 -0.029,-0.033 0,0"
         style="fill:#d5e7bf;fill-opacity:1;fill-rule:nonzero;stroke:none"
         id="path538" />
    </g>
    <g
       id="g540"
       transform="matrix(0.16436096,0,0,-0.16436096,31.929691,1021.4842)">
      <path
         inkscape:connector-curvature="0"
         d="m 0,0 c -2.309,2.787 -5.227,5.079 -7.57,7.876 -2.309,2.755 -4.32,5.77 -5.897,9.003 -3.7,7.591 -4.129,15.403 -2.594,23.599 0.047,0.251 -0.282,0.335 -0.376,0.104 -2.97,-7.302 -1.382,-16.238 1.795,-23.21 1.569,-3.445 3.639,-6.646 6.03,-9.577 C -6.28,4.937 -3.395,1.634 -0.118,-0.153 -0.017,-0.208 0.069,-0.083 0,0"
         style="fill:#d5e7bf;fill-opacity:1;fill-rule:nonzero;stroke:none"
         id="path542" />
    </g>
    <g
       id="g544"
       transform="matrix(0.16436096,0,0,-0.16436096,31.106991,1025.9303)">
      <path
         inkscape:connector-curvature="0"
         d="m 0,0 c 7.976,1.61 16.453,2.932 23.846,6.475 6.27,3.006 12.151,7.596 15.883,13.523 0.151,0.24 -0.209,0.528 -0.398,0.307 C 34.699,14.908 29.553,10.214 23.064,7.158 15.811,3.743 7.54,2.621 -0.166,0.602 -0.557,0.499 -0.391,-0.079 0,0"
         style="fill:#d5e7bf;fill-opacity:1;fill-rule:nonzero;stroke:none"
         id="path546" />
    </g>
    <g
       id="g548"
       transform="matrix(0.16436096,0,0,-0.16436096,29.682691,1033.0043)">
      <path
         inkscape:connector-curvature="0"
         d="m 0,0 c 2.537,-0.359 5.646,0.574 8.142,1.081 2.991,0.608 5.964,1.435 8.808,2.542 2.635,1.026 5.165,2.313 7.484,3.936 1.803,1.263 4.61,2.973 5.349,5.11 0.081,0.234 -0.189,0.364 -0.372,0.286 C 28.264,12.469 27.524,11.433 26.597,10.616 25.557,9.699 24.454,8.851 23.303,8.078 20.821,6.411 18.117,5.117 15.303,4.118 12.757,3.215 10.144,2.576 7.515,1.97 5.123,1.417 2.151,1.302 -0.023,0.178 -0.093,0.142 -0.084,0.012 0,0"
         style="fill:#d5e7bf;fill-opacity:1;fill-rule:nonzero;stroke:none"
         id="path550" />
    </g>
    <g
       id="g552"
       transform="matrix(0.16436096,0,0,-0.16436096,29.790591,1032.2338)">
      <path
         inkscape:connector-curvature="0"
         d="m 0,0 c -2.159,1.094 -4.281,1.915 -6.244,3.388 -2.199,1.65 -4.067,3.691 -5.726,5.875 -3.065,4.035 -6.846,8.93 -6.646,14.239 0.007,0.183 -0.285,0.281 -0.363,0.099 -1.041,-2.436 -0.315,-4.646 0.856,-6.917 1.44,-2.793 3.316,-5.472 5.215,-7.97 2.955,-3.889 7.54,-8.801 12.77,-9.223 C 0.131,-0.53 0.236,-0.12 0,0"
         style="fill:#d5e7bf;fill-opacity:1;fill-rule:nonzero;stroke:none"
         id="path554" />
    </g>
    <g
       id="g556"
       transform="matrix(0.16436096,0,0,-0.16436096,27.977221,1039.9916)">
      <path
         inkscape:connector-curvature="0"
         d="m 0,0 c 3.4,-0.321 6.924,-0.506 10.326,-0.074 1.808,0.23 4.181,0.747 5.092,2.505 C 15.54,2.668 15.289,2.948 15.044,2.805 12.844,1.515 11.183,0.78 8.56,0.634 5.716,0.477 2.846,0.517 0,0.585 -0.382,0.594 -0.368,0.035 0,0"
         style="fill:#d5e7bf;fill-opacity:1;fill-rule:nonzero;stroke:none"
         id="path558" />
    </g>
    <g
       id="g560"
       transform="matrix(0.16436096,0,0,-0.16436096,27.691921,1041.2371)">
      <path
         inkscape:connector-curvature="0"
         d="m 0,0 c -1.995,1.453 -4.294,2.263 -6.086,4.035 -2.079,2.056 -2.218,4.269 -2.892,6.905 -0.076,0.297 -0.471,0.258 -0.564,0 C -11.499,5.502 -4.617,0.609 -0.12,-0.285 0.058,-0.321 0.143,-0.104 0,0"
         style="fill:#d5e7bf;fill-opacity:1;fill-rule:nonzero;stroke:none"
         id="path562" />
    </g>
    <g
       id="g564"
       transform="matrix(0.16436096,0,0,-0.16436096,26.100231,1048.3621)">
      <path
         inkscape:connector-curvature="0"
         d="m 0,0 c -2.41,1.991 -5.038,2.798 -6.052,6.133 -0.809,2.657 0.06,5.378 -0.537,7.989 -0.039,0.174 -0.31,0.216 -0.392,0.051 C -8.246,11.624 -7.98,7.544 -6.904,4.964 -5.816,2.358 -3,0.174 -0.266,-0.456 -0.021,-0.513 0.224,-0.185 0,0"
         style="fill:#d5e7bf;fill-opacity:1;fill-rule:nonzero;stroke:none"
         id="path566" />
    </g>
    <g
       id="g568"
       transform="matrix(0.16436096,0,0,-0.16436096,26.327851,1048.0184)">
      <path
         inkscape:connector-curvature="0"
         d="m 0,0 c 3.16,0.598 6.041,1.844 8.593,3.813 1.82,1.404 4.934,3.985 5.2,6.43 0.016,0.156 -0.198,0.277 -0.323,0.186 C 12.467,9.698 11.931,8.45 11.137,7.498 10.216,6.396 9.181,5.4 8.05,4.516 5.634,2.626 2.82,1.295 -0.156,0.564 -0.525,0.473 -0.366,-0.069 0,0"
         style="fill:#d5e7bf;fill-opacity:1;fill-rule:nonzero;stroke:none"
         id="path570" />
    </g>
  </g>
</svg>
