<?xml version="1.0" encoding="utf-8"?>
<!-- Generator: Adobe Illustrator 15.0.0, SVG Export Plug-In . SVG Version: 6.00 Build 0)  -->
<!DOCTYPE svg PUBLIC "-//W3C//DTD SVG 1.1//EN" "http://www.w3.org/Graphics/SVG/1.1/DTD/svg11.dtd">
<svg version="1.1"  xmlns="http://www.w3.org/2000/svg" xmlns:xlink="http://www.w3.org/1999/xlink" x="0px" y="0px"
	 width="48px" height="48px" viewBox="0 0 48 48" enable-background="new 0 0 48 48" xml:space="preserve">
<path fill="#FF9800" d="M29.76,37.057c0.134-0.044,0.229-0.047,0.242-0.048c0.003,0,0.006-0.002,0.008-0.002
	c0,0.002,0.001,0.002,0.105,0.002l10.932-0.984c0,0-2.035-1.482-2.784-2.313c-0.004-0.002-0.007-0.006-0.011-0.01
	c-0.004-0.006-0.011-0.01-0.015-0.015l0.001-0.006c-0.167-0.181-0.271-0.419-0.267-0.684c0.003-0.342,0.186-0.626,0.449-0.804
	l0.002-0.024L43,27.999l-4.977-1c-0.554-0.005-0.996-0.457-0.99-1.01c0-0.199,1.012-2.99,1.012-2.99l-4.995,1
	c-0.552-0.006-0.997-0.5-0.99-1.053c0.001-0.213,0.084-0.398,0.198-0.56l-0.009-0.019L40,12.018c0,0-3-0.017-4.01-0.018
	C35.048,11.999,35,11,35,11V4l-5.705,4.84c0,0-0.698,0.477-1.34-0.213c-0.64-0.691-3-3.627-3-3.627l-4.034,12.81l-0.019,0.003
	c-0.058,0.189-0.152,0.37-0.32,0.501c-0.433,0.345-1.061,0.271-1.405-0.162L17,13c0,0-1.779,3.683-1.938,3.806
	c-0.433,0.344-1.156,0.146-1.404-0.162L10,13l-0.881,5.926l-0.018,0.016c0.021,0.316-0.09,0.637-0.358,0.85
	c-0.207,0.166-0.458,0.229-0.702,0.207l-0.005,0.006C8.029,20.004,8.022,20,8.016,20C8.011,20,5,20,5,20l5.799,8.597
	c0.001,0.001,0.002,0.001,0.003,0.001c0.002,0.002,0.001,0.006,0.003,0.008c0.007,0.01,0.064,0.086,0.113,0.22
	c0.177,0.406,0.085,0.89-0.278,1.179C9.855,30.625,8,32,8,32l11,3l10,6c0,0-0.009-2,0-3.001
	C29.004,37.536,29.331,37.165,29.76,37.057z"/>
<g>
	<g>
		<path fill="#EF6C00" d="M31,27c-0.396,1.6-0.837,2.816-1.044,4.025c-0.105,0.6-0.165,1.18-0.156,1.815
			C29.797,33.481,29.896,34.162,30,35c-0.776-0.336-1.366-0.985-1.725-1.773c-0.355-0.789-0.445-1.71-0.287-2.555
			c0.154-0.85,0.529-1.625,1.04-2.26C29.551,27.786,30.187,27.254,31,27z"/>
	</g>
	<g>
		<path fill="#EF6C00" d="M14,28c1.574-0.604,2.829-1.031,3.721-1.738c0.445-0.348,0.825-0.756,1.185-1.302
			C19.274,24.418,19.58,23.755,20,23c0.416,0.757,0.536,1.623,0.38,2.506c-0.158,0.876-0.675,1.762-1.437,2.338
			c-0.755,0.584-1.674,0.853-2.533,0.867C15.548,28.71,14.704,28.516,14,28z"/>
	</g>
	<g>
		<path fill="#EF6C00" d="M14,21c1.018,1.525,2.164,2.846,3.44,4.029c0.633,0.594,1.303,1.144,1.979,1.68
			c0.681,0.512,1.41,1.035,2.085,1.451l-0.066-0.036c0.673,0.322,1.347,0.642,2.004,0.993l-0.075-0.033
			c0.789,0.306,1.789,0.519,2.719,0.706c0.952,0.17,1.922,0.278,2.901,0.352c0.979,0.051,1.973,0.087,2.973,0.048
			C32.961,30.164,33.969,30.084,35,30c-0.921,0.472-1.9,0.822-2.905,1.099c-1.007,0.265-2.044,0.458-3.093,0.533
			c-1.05,0.093-2.111,0.079-3.17-0.029c-1.077-0.103-2.077-0.301-3.198-0.687l-0.01-0.004l-0.065-0.029
			c-0.676-0.315-1.335-0.662-1.996-1.007l-0.051-0.026l-0.016-0.01c-0.848-0.541-1.552-1.113-2.242-1.764
			c-0.691-0.633-1.322-1.33-1.893-2.073c-0.574-0.738-1.072-1.538-1.481-2.376C14.472,22.793,14.161,21.9,14,21z"/>
	</g>
</g>
<path fill="#E65100" d="M8.744,41.198C11.176,39.632,23,34,31,12c-6,23-17.946,29.669-20.584,31.69
	c-0.659,0.504-1.602,0.379-2.106-0.279s-0.38-1.602,0.279-2.106c0.031-0.024,0.063-0.047,0.097-0.068L8.744,41.198z"/>
</svg>
