<?xml version="1.0" encoding="utf-8"?>
<!-- Generator: Adobe Illustrator 15.0.0, SVG Export Plug-In . SVG Version: 6.00 Build 0)  -->
<!DOCTYPE svg PUBLIC "-//W3C//DTD SVG 1.1//EN" "http://www.w3.org/Graphics/SVG/1.1/DTD/svg11.dtd">
<svg version="1.1"  xmlns="http://www.w3.org/2000/svg" xmlns:xlink="http://www.w3.org/1999/xlink" x="0px" y="0px"
	 width="48px" height="48px" viewBox="0 0 48 48" enable-background="new 0 0 48 48" xml:space="preserve">
<path fill="none" stroke="#795548" stroke-width="2" stroke-linecap="round" d="M30,4c0,0-2,2-2,5"/>
<path fill="#558B2F" d="M25.055,7C17.477,7,10,20.389,10,32c0,8,6.422,13,14,13s14-5,14-13c0-9.5-5.555-11.277-5.555-20.777
	C32.445,8.744,30,8,28,8C27.195,8,27,7,25.055,7L25.055,7z"/>
<g>
	<path fill="#DCE775" d="M33.429,22.495c-1.398-2.839-2.983-6.057-2.983-11.272C30.445,10.088,28.573,10,28,10
		c-0.939,0-1.568-0.435-1.943-0.694C25.753,9.096,25.614,9,25.055,9C18.955,9,12,21.252,12,32c0,7.222,6.037,11,12,11
		c5.963,0,12-3.778,12-11C36,27.716,34.751,25.18,33.429,22.495z"/>
</g>
<path fill="#FFF59D" d="M15,33c0-4.971,4.029-16,9-16s9,11.029,9,16s-4.029,9-9,9S15,37.971,15,33z"/>
<path fill="#962005" d="M30,33c0,3.313-2.687,6-6,6s-6-2.687-6-6s2.687-10,6-10S30,29.687,30,33z"/>
<path fill="#BF360C" d="M24,23c-3.313,0-6,6.687-6,10c0,0.377,0.039,0.743,0.105,1.101C19.021,35.25,20.416,36,22,36
	c4,0,6-2.238,6-5c0-3.936-0.785-6.01-1.91-7.107C25.438,23.343,24.736,23,24,23z"/>
</svg>
