<?xml version="1.0" encoding="iso-8859-1"?>
<!-- Generator: Adobe Illustrator 19.1.1, SVG Export Plug-In . SVG Version: 6.00 Build 0)  -->
<svg version="1.1"  xmlns="http://www.w3.org/2000/svg" xmlns:xlink="http://www.w3.org/1999/xlink" x="0px" y="0px"
	 viewBox="0 0 48 48" style="enable-background:new 0 0 48 48;" xml:space="preserve">
<path style="fill:#2E7D32;" d="M14.579,36.39c-1.72-4.072-6.02-6.491-6.063-6.515L9,29c0.201,0.111,5.435,1.909,7.421,6.61
	L14.579,36.39z"/>
<path style="fill:#4CAF50;" d="M19,45H15c0.004-0.233,0.35-23.976-2.967-42h3.934C19.358,21.423,19.004,44.763,19,45z M25.994,3
	h-3.988C23.192,18.405,23.002,44.737,23,45l4,0.016C27.002,44.752,27.193,18.574,25.994,3z M35.013,45C33.438,25.296,36,15,36,15
	s-4.985,6.454-4.985,30H35.013z"/>
<path style="fill:#4CAF50;" d="M36,15.026c0,0-5.188-0.688-7,5C33.688,19.964,36,15.026,36,15.026z"/>
<path style="fill:#388E3C;" d="M33,4c0,0-1.409,5.047-7,6C28.507,4.988,33,4,33,4z M36,15c1.271,7.987,8,10,8,10
	S42.683,18.582,36,15z M13,12c0,0-5-2.75-9,1C9.5,15.813,13,12,13,12z M11,39c0.125-8.5-2-10-2-10S5.875,35.75,11,39z"/>
<path style="fill:#4CAF50;" d="M37,11c0,0-6.417,0.083-11-1C30.917,5,37,11,37,11z M36,15c0,5.625,1,12,1,12S42.683,18.582,36,15z
	 M13,12c0,0-6.729,2.013-8,10C11.683,18.418,13,12,13,12z M3,28c0,0,1.5,1.375,6,1C7,25.375,3,28,3,28z M9,29c0,0-5,2.625-5,11
	C9.125,36.625,9,29,9,29z"/>
<path style="fill:none;stroke:#388E3C;stroke-width:2;stroke-linecap:round;stroke-linejoin:round;stroke-miterlimit:10;" d="
	M15.162,28h3 M14,12h3 M14.563,20h3.219 M31.625,39H34 M32,32h2 M33.219,25h0.875 M18.5,36h-3 M23.5,41h3 M23.5,33h3 M23.5,25h3
	 M23.167,17h3 M22.688,9h3"/>
</svg>
