<?xml version="1.0" encoding="utf-8"?>
<!-- Generator: Adobe Illustrator 15.0.0, SVG Export Plug-In . SVG Version: 6.00 Build 0)  -->
<!DOCTYPE svg PUBLIC "-//W3C//DTD SVG 1.1//EN" "http://www.w3.org/Graphics/SVG/1.1/DTD/svg11.dtd">
<svg version="1.1"  xmlns="http://www.w3.org/2000/svg" xmlns:xlink="http://www.w3.org/1999/xlink" x="0px" y="0px"
	 width="48px" height="48px" viewBox="0 0 48 48" enable-background="new 0 0 48 48" xml:space="preserve">
<path fill="#FFE082" d="M35,11c1,0,7-1,7,8S29,44,11,44c-2,0-4-1-4-1l-1-3c0,0,1-4,7-7s10.263-5.514,12.813-8.063
	C27.813,22.938,31,19,31,16c0-1.958,2-4,2-4"/>
<path fill="#FFCA28" d="M8,41c0,0,7-2,13-5s19-12,15-25c0,0,6-1,6,8S29,44,11,44c-2,0-4-1-4-1L8,41z"/>
<g>
	<path fill="#C0CA33" d="M41.063,13.938C39.188,9.917,35,12,35,4c-3,0-5,2-5,2s3,3,3,6c2,0,3.612-0.157,3.791,4.75
		C38.143,11.021,41.063,13.938,41.063,13.938z"/>
	<path fill="#C0CA33" d="M31,16c0,0-0.063-1.813,2-4s4.031-0.406,4.031-0.406l-0.24,5.156c0,0-0.875-3.25-2.25-3.333
		C31.641,13.242,31,16,31,16z"/>
</g>
<polygon fill="#5D4037" points="6,41 7,43 8,43 8,41 6,40 "/>
<path fill="#827717" d="M35,4c-3,0-5,2-5,2h3L35,4z"/>
</svg>
