<?xml version="1.0" encoding="utf-8"?>
<!-- Generator: Adobe Illustrator 15.0.0, SVG Export Plug-In . SVG Version: 6.00 Build 0)  -->
<!DOCTYPE svg PUBLIC "-//W3C//DTD SVG 1.1//EN" "http://www.w3.org/Graphics/SVG/1.1/DTD/svg11.dtd">
<svg version="1.1"  xmlns="http://www.w3.org/2000/svg" xmlns:xlink="http://www.w3.org/1999/xlink" x="0px" y="0px"
	 width="48px" height="48px" viewBox="0 0 48 48" enable-background="new 0 0 48 48" xml:space="preserve">
<path fill="none" stroke="#D88A19" stroke-width="2" stroke-linecap="round" d="M3.999,42c0,0,35-2,32-23c0,0-1-6-3-9"/>
<g>
	<path fill="#F9A825" d="M36.888,11.764c0.407,1.319-0.333,2.719-1.652,3.125c-1.319,0.407-2.719-0.332-3.125-1.652
		C31.703,11.917,31.999,5,31.999,5S36.481,10.444,36.888,11.764z"/>
	<path fill="#F9A825" d="M31.868,20.395c1.046,0.9,2.624,0.783,3.525-0.264c0.901-1.046,0.783-2.624-0.264-3.525
		C34.084,15.705,27.999,14,27.999,14S30.821,19.493,31.868,20.395z"/>
	<path fill="#F9A825" d="M40.656,18.763c-0.697,1.192-2.229,1.593-3.42,0.895c-1.192-0.697-1.593-2.229-0.895-3.42
		C37.039,15.045,41.999,11,41.999,11S41.354,17.571,40.656,18.763z"/>
	<path fill="#F9A825" d="M31.868,26.395c1.046,0.9,2.624,0.783,3.525-0.264c0.901-1.046,0.783-2.624-0.263-3.525
		C34.084,21.705,27.999,20,27.999,20S30.821,25.493,31.868,26.395z"/>
	<path fill="#F9A825" d="M39.751,26.665c-1.196,0.69-2.725,0.281-3.416-0.914c-0.69-1.196-0.281-2.725,0.914-3.415
		C38.445,21.645,44,21,44,21S40.946,25.974,39.751,26.665z"/>
	<path fill="#F9A825" d="M36.602,33.743c-1.24,0.608-2.737,0.098-3.347-1.142c-0.608-1.239-0.098-2.737,1.142-3.347
		c1.239-0.608,7.603-0.256,7.603-0.256S37.841,33.134,36.602,33.743z"/>
	<path fill="#F9A825" d="M28.563,31.08c0.873,1.07,2.448,1.23,3.518,0.357c1.07-0.873,1.23-2.447,0.357-3.518S27,23,27,23
		S27.69,30.011,28.563,31.08z"/>
	<path fill="#F9A825" d="M36.999,37c0,0-5.119,2-6.5,2s-2.5-1.119-2.5-2.5s1.119-2.5,2.5-2.5C31.763,34,36.999,37,36.999,37z"/>
	<path fill="#F9A825" d="M24.265,34.378c0.485,1.293,1.926,1.947,3.219,1.463c1.293-0.485,1.948-1.926,1.463-3.219
		C28.462,31.329,24.105,27,24.105,27S23.78,33.085,24.265,34.378z"/>
	<path fill="#F9A825" d="M18.999,35.539c0,1.381,1.119,2.5,2.5,2.5s2.5-1.119,2.5-2.5s-3-6.5-3-6.5S18.999,34.158,18.999,35.539z"/>
	<path fill="#F9A825" d="M21.947,39.238c-0.204,1.366,0.738,2.638,2.104,2.842c1.366,0.203,6.577-0.03,6.577-0.03
		s-4.474-4.712-5.839-4.915C23.423,36.931,22.15,37.873,21.947,39.238z"/>
</g>
</svg>
