<?xml version="1.0" encoding="UTF-8" standalone="no"?>
<!-- Created with Inkscape (http://www.inkscape.org/) -->

<svg
   xmlns:dc="http://purl.org/dc/elements/1.1/"
   xmlns:cc="http://creativecommons.org/ns#"
   xmlns:rdf="http://www.w3.org/1999/02/22-rdf-syntax-ns#"
   xmlns:svg="http://www.w3.org/2000/svg"
   xmlns="http://www.w3.org/2000/svg"
   xmlns:sodipodi="http://sodipodi.sourceforge.net/DTD/sodipodi-0.dtd"
   xmlns:inkscape="http://www.inkscape.org/namespaces/inkscape"
   width="48"
   height="48"
   viewBox="0 0 48.000001 48.000001"
   id="svg5912"
   version="1.1"
   inkscape:version="0.91 r13725"
   sodipodi:docname="basil.svg">
  <defs
     id="defs5914" />
  <sodipodi:namedview
     id="base"
     pagecolor="#ffffff"
     bordercolor="#666666"
     borderopacity="1.0"
     inkscape:pageopacity="0.0"
     inkscape:pageshadow="2"
     inkscape:zoom="4"
     inkscape:cx="60.5"
     inkscape:cy="1.1368684e-13"
     inkscape:document-units="px"
     inkscape:current-layer="layer1"
     showgrid="false"
     units="px"
     inkscape:window-width="1199"
     inkscape:window-height="711"
     inkscape:window-x="0"
     inkscape:window-y="1"
     inkscape:window-maximized="0" />
  <metadata
     id="metadata5917">
    <rdf:RDF>
      <cc:Work
         rdf:about="">
        <dc:format>image/svg+xml</dc:format>
        <dc:type
           rdf:resource="http://purl.org/dc/dcmitype/StillImage" />
        <dc:title></dc:title>
      </cc:Work>
    </rdf:RDF>
  </metadata>
  <g
     inkscape:label="Layer 1"
     inkscape:groupmode="layer"
     id="layer1"
     transform="translate(0,-1004.3623)">
    <g
       transform="matrix(0.17251878,0,0,-0.17251878,32.736239,1087.409)"
       id="g5234">
      <g
         transform="translate(-1205.7324,-383.85679)"
         id="g5506">
        <g
           transform="translate(1216.5092,769.5354)"
           id="g356">
          <path
             inkscape:connector-curvature="0"
             id="path358"
             style="fill:#7dc15a;fill-opacity:1;fill-rule:nonzero;stroke:none"
             d="M 0,0 C -29.178,37.718 -62.553,61.289 -71.15,85.259 -71.982,64.339 -85.944,37.718 -115.123,0 c -34.111,-44.095 -22.047,-98.013 4.576,-113.902 29.332,-17.506 41.083,-19.828 48.937,-29.614 0.655,-7.735 0.955,-18.723 -2.462,-26.996 l 6.921,-2.858 c 3.837,9.29 3.742,20.804 3.108,29.175 7.86,10.367 19.469,12.389 49.467,30.293 C 22.047,-98.013 34.111,-44.095 0,0" />
        </g>
        <g
           transform="translate(1234.1652,703.0926)"
           id="g360">
          <path
             inkscape:connector-curvature="0"
             id="path362"
             style="fill:#c2dfa3;fill-opacity:1;fill-rule:nonzero;stroke:none"
             d="m 0,0 c -2.757,-5.038 -5.443,-10.132 -8.743,-14.845 -3.554,-5.075 -7.924,-9.312 -12.734,-13.187 -9.922,-7.992 -20.139,-15.89 -30.628,-23.125 -5.407,-3.729 -11.454,-6.642 -16.585,-10.745 -1.674,-1.339 -3.201,-2.868 -4.444,-4.569 -0.002,0.188 -0.003,0.372 -0.005,0.561 -0.101,8.609 -0.4,18.165 -0.918,28.34 4.251,7.537 13.751,10.741 20.56,15.577 4.148,2.945 7.931,6.399 11.685,9.82 3.811,3.474 7.533,7.06 10.925,10.948 11.461,13.137 18.74,29.869 20.44,47.227 0.301,3.077 0.426,6.171 0.357,9.258 -0.372,0.633 -0.752,1.264 -1.141,1.895 0.519,-11.814 -1.497,-23.633 -6.091,-34.772 -3.497,-8.483 -8.379,-16.39 -14.429,-23.289 -3.403,-3.88 -7.114,-7.474 -10.917,-10.958 -3.97,-3.636 -7.971,-7.324 -12.441,-10.345 -6.467,-4.372 -14.928,-7.567 -18.995,-14.419 -0.251,4.831 -0.552,9.798 -0.904,14.869 -0.558,8.061 -1.241,16.382 -2.061,24.826 -0.421,4.22 -0.858,8.473 -1.346,12.737 -0.24,2.133 -0.489,4.269 -0.754,6.405 -0.066,0.556 -0.133,1.113 -0.199,1.67 2.904,5.611 7.399,9.387 12.966,12.496 6.014,3.359 12.338,6.013 17.644,10.508 9.474,8.023 17.99,19.076 21.738,31.067 -0.316,0.371 -0.631,0.739 -0.948,1.107 -1.75,-6.057 -4.703,-11.828 -8.468,-17.083 -3.943,-5.501 -8.578,-10.84 -13.855,-15.105 -5.526,-4.466 -12.153,-7.001 -18.189,-10.64 -4.317,-2.602 -8.955,-6.302 -11.036,-11.101 -0.138,1.16 -0.276,2.321 -0.415,3.482 -0.251,2.136 -0.502,4.272 -0.752,6.407 -0.224,2.133 -0.447,4.264 -0.67,6.391 -0.215,2.128 -0.456,4.248 -0.649,6.37 -0.196,2.121 -0.392,4.236 -0.587,6.343 -0.671,7.288 -1.245,14.485 -1.771,21.499 3.762,0.312 6.878,3.494 9.604,5.85 3.558,3.074 6.91,6.471 9.341,10.526 2.493,4.159 3.879,8.828 5.143,13.474 0.57,2.094 1.147,4.185 1.712,6.28 -0.212,0.219 -0.423,0.437 -0.633,0.655 -0.428,-1.487 -0.852,-2.976 -1.279,-4.464 -1.313,-4.578 -2.558,-9.261 -4.705,-13.534 -2,-3.984 -4.885,-7.383 -8.118,-10.421 -1.624,-1.526 -3.327,-2.967 -5.055,-4.373 -1.806,-1.469 -3.747,-2.951 -6.061,-3.302 -0.064,0.863 -0.129,1.725 -0.192,2.583 -0.276,4.022 -0.548,7.977 -0.815,11.848 -0.242,3.873 -0.478,7.663 -0.708,11.351 -0.21,3.691 -0.415,7.28 -0.613,10.752 -0.182,3.474 -0.358,6.829 -0.527,10.051 -0.309,6.445 -0.592,12.353 -0.843,17.59 -0.178,3.945 -0.338,7.508 -0.479,10.634 -0.073,0.194 -0.149,0.388 -0.218,0.582 -0.007,-0.166 -0.022,-0.336 -0.03,-0.503 0.089,-3.149 0.192,-6.743 0.305,-10.729 0.164,-5.241 0.349,-11.154 0.55,-17.604 0.116,-3.225 0.236,-6.584 0.361,-10.061 0.14,-3.477 0.285,-7.071 0.434,-10.766 0.169,-3.694 0.342,-7.489 0.52,-11.368 0.122,-2.344 0.246,-4.723 0.371,-7.125 -0.85,0.627 -1.767,1.183 -2.581,1.856 -1.17,0.968 -2.272,2.044 -3.312,3.149 -2.222,2.359 -4.084,5.037 -5.652,7.869 -2.285,4.127 -3.978,8.578 -5.512,13.069 -0.229,-0.406 -0.464,-0.816 -0.698,-1.225 1.355,-4.525 3.023,-8.935 5.404,-13.078 1.557,-2.708 3.397,-5.275 5.545,-7.548 1.789,-1.892 4.297,-4.259 6.865,-5.21 0.062,-1.203 0.125,-2.411 0.189,-3.626 0.457,-8.057 0.967,-16.382 1.603,-24.835 0.161,-2.113 0.322,-4.234 0.483,-6.362 0.158,-2.128 0.364,-4.262 0.544,-6.401 0.188,-2.138 0.377,-4.28 0.566,-6.425 0.215,-2.138 0.43,-4.278 0.646,-6.418 0.04,-0.389 0.079,-0.777 0.119,-1.166 -10.06,9.453 -16.899,21.464 -22.033,34.21 -3.961,9.832 -7.167,19.963 -10.456,30.057 -0.254,-0.377 -0.507,-0.753 -0.764,-1.132 3.064,-10.4 6.392,-20.753 10.454,-30.754 5.115,-12.595 12.212,-24.933 22.921,-33.577 0.139,-1.354 0.277,-2.708 0.415,-4.06 0.229,-2.134 0.441,-4.266 0.645,-6.396 0.417,-4.258 0.782,-8.504 1.131,-12.717 0.677,-8.429 1.221,-16.734 1.643,-24.775 0.091,-1.726 0.175,-3.436 0.255,-5.137 -4.266,15.551 -19.965,26.098 -30.28,37.741 -13.803,15.58 -20.803,36.981 -21.883,57.541 -0.03,0.572 -0.052,1.145 -0.074,1.719 -0.629,-0.825 -1.274,-1.661 -1.918,-2.497 0.423,-8.222 1.857,-16.424 4.226,-24.284 2.918,-9.68 7.218,-19.072 13.106,-27.314 6.036,-8.448 13.984,-14.933 21.356,-22.134 7.427,-7.255 14.333,-16.086 15.72,-26.608 0.414,-10.367 0.614,-20.147 0.627,-29.016 -1.876,6.011 -6.081,11.444 -10.626,15.531 -8.498,7.64 -19.384,11.746 -29.25,17.226 -19.025,10.569 -32.545,29.763 -34.533,51.65 -0.12,1.327 -0.193,2.65 -0.239,3.969 -0.627,-2.923 -1.104,-5.829 -1.438,-8.706 1.073,-6.948 3.235,-13.744 6.465,-20.049 4.598,-8.976 11.226,-16.834 19.26,-22.925 9.421,-7.142 20.682,-10.917 30.824,-16.81 9.252,-5.376 17.284,-13.325 19.532,-23.723 0,-0.049 0,-0.099 0,-0.148 -0.059,-12.86 -0.55,-23.568 -1.344,-30.937 -0.372,-3.518 -0.818,-6.254 -1.226,-8.101 l 4.238,-1.75 c 0.039,0.163 0.079,0.33 0.121,0.505 0.444,2.094 0.886,5.109 1.225,8.918 0.653,7.193 0.965,17.236 0.868,29.235 1.901,2.83 4.597,5.199 7.412,7.1 5.045,3.407 10.442,6.243 15.453,9.719 10.13,7.024 20.022,14.627 29.631,22.347 4.516,3.627 8.673,7.582 12.111,12.259 3.404,4.63 6.147,9.699 8.943,14.707 0.847,1.516 1.755,3.01 2.68,4.5 C 3.169,3.614 3.206,4.657 3.227,5.707 2.116,3.825 1.049,1.918 0,0" />
        </g>
      </g>
    </g>
  </g>
</svg>
