<?xml version="1.0" encoding="utf-8"?>
<!-- Generator: Adobe Illustrator 15.0.0, SVG Export Plug-In . SVG Version: 6.00 Build 0)  -->
<!DOCTYPE svg PUBLIC "-//W3C//DTD SVG 1.1//EN" "http://www.w3.org/Graphics/SVG/1.1/DTD/svg11.dtd">
<svg version="1.1"  xmlns="http://www.w3.org/2000/svg" xmlns:xlink="http://www.w3.org/1999/xlink" x="0px" y="0px"
	 width="48px" height="48px" viewBox="0 0 48 48" enable-background="new 0 0 48 48" xml:space="preserve">
<path fill="#D81B60" d="M28.035,20c-1.723,0-3,0.568-4,0.568S21.546,20,20.035,20c-5.489,0-9,3.99-9,9.094
	c0,5.104,4,9.906,8.402,9.906c-0.154,0-0.286,0-0.402,0c4,0,5,4,5,4s1-4,5.54-4.021c-0.116,0.001-0.249,0.001-0.401,0
	C33.035,39,37,34.198,37,29.094C37,23.99,33.758,20.005,28.035,20z"/>
<g>
	<path fill="#AD1457" d="M20.833,21.917c0,1.749,1.418,3.167,3.167,3.167s3.167-1.418,3.167-3.167c0-0.67-0.222-1.28-0.579-1.791
		c-1.035,0.167-1.885,0.442-2.588,0.442c-0.686,0-1.607-0.261-2.602-0.429C21.049,20.646,20.833,21.254,20.833,21.917z"/>
	<line fill="#AD1457" stroke="#AD1457" stroke-width="2" stroke-linecap="round" x1="17" y1="27" x2="20.084" y2="27"/>
	<line fill="#AD1457" stroke="#AD1457" stroke-width="2" stroke-linecap="round" x1="28" y1="28" x2="32" y2="28"/>
	<line fill="#AD1457" stroke="#AD1457" stroke-width="2" stroke-linecap="round" x1="16.416" y1="32" x2="23" y2="32"/>
	<line fill="#AD1457" stroke="#AD1457" stroke-width="2" stroke-linecap="round" x1="24.688" y1="36" x2="29" y2="36"/>
</g>
<path fill="#4CAF50" d="M38.06,7.368c-0.399-0.399,0-0.2,0.101-0.5c0.2-0.399-0.601-0.5-1-0.5c-0.101,0-0.101,0-0.2,0
	c-1.1-0.1,0.1-0.3,0-0.8s-1.3-0.4-1.6-0.4C34.76,5.269,34.06,5.469,33.56,5.769c0.2-0.101,0.5-0.5,0.301-0.7
	c-0.2-0.2-1,0.1-1.301,0.1c-0.6,0.2-1.1,0.301-1.699,0.601c-0.4,0.2-0.7,0.6-1.101,0.899c0-0.199,0.101-0.399,0.101-0.6
	c-0.9-0.2-2.4,1.7-2.301,2.6c0-0.399,0-1.1-0.5-0.699c-0.199,0.399-3.1,3.5-3.1,10c0,1.8,0.001,2.349,0,3.073
	c0,0.153,0.017,0.287,0.04,0.411V23c0.499,0,0.925-0.382,1-0.859c0.01-0.005-0.01,0.005,0,0c0.203-1.406,0.56-2.872,1.16-4.572
	c0.399-1.4,1-3,2.6-3.3c0.4-0.101,1,0.1,1.4-0.3c-0.101-0.101-0.5-1.2-0.601-1.301c0.5,0.101,1,0.9,1.601,1
	c0.8,0.101,0.899-0.399,1-1c0.3,0.5,1,0.9,1.5,1c0.6,0.101,1.1-0.399,0.7-1c0.6,0.4,2.8,1.601,2.8,0c0-0.899-0.8-2.199-1.601-2.5
	c0.601,0,1.5,0.4,2.2,0.301c0.601,0,1-0.4,1.2-1C39.16,8.568,38.56,7.969,38.06,7.368z"/>
<path fill="#388E3C" d="M24,17.969c0-6.5-2.9-9.601-3.1-10c-0.5-0.4-0.5,0.3-0.5,0.699c0.1-0.899-1.4-2.8-2.301-2.6
	c0,0.2,0.101,0.4,0.101,0.6c-0.4-0.3-0.7-0.699-1.101-0.899c-0.6-0.3-1.1-0.4-1.699-0.601c-0.301,0-1.101-0.3-1.301-0.1
	c-0.199,0.2,0.101,0.6,0.301,0.7c-0.5-0.3-1.2-0.5-1.801-0.601c-0.3,0-1.5-0.1-1.6,0.4s1.1,0.7,0,0.8c-0.1,0-0.1,0-0.2,0
	c-0.399,0-1.2,0.101-1,0.5c0.101,0.3,0.5,0.101,0.101,0.5C9.4,7.969,8.8,8.568,9,9.469c0.2,0.6,0.6,1,1.2,1
	c0.7,0.1,1.6-0.301,2.2-0.301c-0.801,0.301-1.601,1.601-1.601,2.5c0,1.601,2.2,0.4,2.8,0c-0.399,0.601,0.101,1.101,0.7,1
	c0.5-0.1,1.2-0.5,1.5-1c0.101,0.601,0.2,1.101,1,1c0.601-0.1,1.101-0.899,1.601-1c-0.101,0.101-0.5,1.2-0.601,1.301
	c0.4,0.399,1,0.199,1.4,0.3c1.6,0.3,2.2,1.899,2.6,3.3c0.63,1.782,1.013,3.291,1.2,4.432c0,0.553,0.447,1,1,1v-2l0,0
	C23.999,20.296,24,19.733,24,17.969z"/>
</svg>
