<?xml version="1.0" encoding="iso-8859-1"?>
<!-- Generator: Adobe Illustrator 20.1.0, SVG Export Plug-In . SVG Version: 6.00 Build 0)  -->
<svg version="1.1"  xmlns="http://www.w3.org/2000/svg" xmlns:xlink="http://www.w3.org/1999/xlink" x="0px" y="0px"
	 viewBox="0 0 48 48" style="enable-background:new 0 0 48 48;" xml:space="preserve">
<rect x="20" y="5" style="fill:#CFD8DC;" width="4" height="38"/>
<rect x="24" y="5" transform="matrix(-1 -1.224647e-16 1.224647e-16 -1 52 48)" style="fill:#B0BEC5;" width="4" height="38"/>
<polygon style="fill:#455A64;" points="28,11 25,11 25,10 26,9 28,9 "/>
<polygon style="fill:#455A64;" points="20,16 23,16 23,15 22,14 20,14 "/>
<polygon style="fill:#455A64;" points="28,22 25,22 25,21 26,20 28,20 "/>
<polygon style="fill:#455A64;" points="20,27 23,27 23,26 22,25 20,25 "/>
<polygon style="fill:#455A64;" points="28,34 25,34 25,33 26,32 28,32 "/>
<polygon style="fill:#455A64;" points="20,39 23,39 23,38 22,37 20,37 "/>
<polygon style="fill:#CFD8DC;" points="38,5 32,5 35,43 41,43 "/>
<polygon style="fill:#B0BEC5;" points="38,5 35,5 38,43 41,43 "/>
<g>
	<polygon style="fill:#455A64;" points="38,34 40.175,34 40.025,32 39,32 38,33 	"/>
	<polygon style="fill:#455A64;" points="37,9 36,10 36,11 38.45,11 38.3,9 	"/>
	<polygon style="fill:#455A64;" points="37,39 37,38 36,37 34.4,37 34.55,39 	"/>
	<polygon style="fill:#455A64;" points="38,20 37,21 37,22 39.275,22 39.125,20 	"/>
	<polygon style="fill:#455A64;" points="36,27 36,26 35,25 33.5,25 33.65,27 	"/>
	<polygon style="fill:#455A64;" points="32.825,16 35,16 35,15 34,14 32.675,14 	"/>
</g>
<path style="fill:#CFD8DC;" d="M13,5H7c0,0,3,13.047,3,38h6C16,18.047,13,5,13,5z"/>
<path style="fill:#B0BEC5;" d="M13,5h-3c0,0,3,13.047,3,38h3C16,18.047,13,5,13,5z"/>
<g>
	<path style="fill:#455A64;" d="M8.538,16H11v-1l-1-1H8.314C8.388,14.636,8.463,15.302,8.538,16z"/>
	<path style="fill:#455A64;" d="M12,27v-1l-1-1H9.327c0.045,0.652,0.089,1.32,0.13,2H12z"/>
	<path style="fill:#455A64;" d="M11,10v1h2.939c-0.098-0.733-0.192-1.397-0.28-2H12L11,10z"/>
	<path style="fill:#455A64;" d="M13,20l-1,1v1h3.101c-0.056-0.684-0.112-1.354-0.17-2H13z"/>
	<path style="fill:#455A64;" d="M13,34h2.801c-0.025-0.677-0.052-1.344-0.08-2H14l-1,1V34z"/>
	<path style="fill:#455A64;" d="M13,38l-1-1H9.894c0.017,0.658,0.033,1.324,0.046,2H13V38z"/>
</g>
</svg>
