<?xml version="1.0" encoding="iso-8859-1"?>
<!-- Generator: Adobe Illustrator 20.1.0, SVG Export Plug-In . SVG Version: 6.00 Build 0)  -->
<svg version="1.1"  xmlns="http://www.w3.org/2000/svg" xmlns:xlink="http://www.w3.org/1999/xlink" x="0px" y="0px"
	 viewBox="0 0 48 48" style="enable-background:new 0 0 48 48;" xml:space="preserve">
<path style="fill:#FFE082;" d="M19.098,20.737c4.1-4.301,7.779-8.292,10.557-11.136c3.856-3.948,8.435-4.891,9.924-4.529
	c1.141,0.277,4.06,4.502,3.295,8.772c-0.505,2.819-3.582,12.371-9.914,18.914S14.723,42.951,10.875,42.992
	c-3.412,0.037-5.869-1.821-5.869-3.308S4.74,34,7.801,31.158C10.315,28.824,12.809,27.334,19.098,20.737z"/>
<path style="fill:#795548;" d="M11.367,38.783c2.596-2.386,5.388-4.56,8.336-6.496c2.215-1.454,5.682-4.306,8.396-4.206
	c1.838,0.067,3.686-0.019,5.478,0.018c0.75,0.015,1.729,0.369,2.412,0.986c1.466-2.054,2.682-4.204,3.667-6.246
	c-0.338,0.353-0.7,0.664-1.118,0.863c-0.334,0.158-0.696,0.245-1.009,0.453c-0.592,0.395-1.011,1.222-1.711,1.243
	c-0.723,0.021-1.341-0.873-1.567-1.751c-0.227-0.881-0.534-2.166-0.355-3.061c0.442-2.209,1.066-4.381,1.861-6.489
	c0.597-1.583,1.314-4.36,2.756-5.327c0.95-0.638,1.851-1.352,2.765-1.992c-0.627-0.97-1.284-1.606-1.702-1.707
	C38.09,4.71,33.51,5.652,29.655,9.6c-1.637,1.676-3.592,3.756-5.756,6.057c0.238,0.553,0.32,1.212,0.329,1.85
	c0.03,2.09-0.545,4.186-1.593,5.806c-0.65,1.005-1.465,1.818-2.291,2.59c-1.016,0.949-2.06,1.848-3.131,2.696
	c-0.635,0.503-1.297,0.996-2.035,1.158c-0.341,0.075-0.693,0.078-1.024,0.204c-0.628,0.238-1.19,0.91-1.838,0.781
	c-0.67-0.134-1.047-1.087-1.068-1.941c-0.005-0.201,0.005-0.401,0.02-0.601c-1.343,1.134-2.404,1.972-3.466,2.958
	C4.74,34,5.006,38.197,5.006,39.684c0,1.206,1.617,2.656,4.048,3.141C9.579,41.513,10.354,39.714,11.367,38.783z"/>
</svg>
