<?xml version="1.0" encoding="utf-8"?>
<!-- Generator: Adobe Illustrator 15.0.0, SVG Export Plug-In . SVG Version: 6.00 Build 0)  -->
<!DOCTYPE svg PUBLIC "-//W3C//DTD SVG 1.1//EN" "http://www.w3.org/Graphics/SVG/1.1/DTD/svg11.dtd">
<svg version="1.1"  xmlns="http://www.w3.org/2000/svg" xmlns:xlink="http://www.w3.org/1999/xlink" x="0px" y="0px"
	 width="48px" height="48px" viewBox="0 0 48 48" enable-background="new 0 0 48 48" xml:space="preserve">
<g>
	<line fill="none" stroke="#8BC34A" stroke-width="4" x1="24" y1="43" x2="24" y2="23"/>
	<path fill="none" stroke="#8BC34A" stroke-width="4" d="M27,43c0-12,6-19,6-19"/>
	<path fill="none" stroke="#8BC34A" stroke-width="4" d="M21,43c0-12-6-19-6-19"/>
</g>
<g>
	<circle fill="#558B2F" cx="30" cy="20" r="7"/>
	<circle fill="#558B2F" cx="36" cy="19" r="7"/>
	<circle fill="#558B2F" cx="12" cy="19" r="7"/>
	<circle fill="#558B2F" cx="20" cy="21" r="8"/>
	<circle fill="#558B2F" cx="18" cy="12" r="7"/>
	<circle fill="#558B2F" cx="29" cy="13" r="7"/>
</g>
<g>
	<path fill="#689F38" d="M22,34.466c-1.769-7.35-5.284-11.537-5.481-11.768L16,22c4.953,8.959,6,20,6,20V34.466z"/>
	<path fill="#689F38" d="M26,34.466c1.769-7.35,5.284-11.537,5.481-11.768L32,22c-4.953,8.959-6,20-6,20V34.466z"/>
	<circle fill="#689F38" cx="20" cy="21" r="8"/>
	<path fill="#689F38" d="M12.872,25.939C11.665,24.428,11,22.407,11,20c0-3.25,1.565-5.787,3.974-7.33C14.07,12.245,13.065,12,12,12
		c-3.866,0-7,3.134-7,7s3.134,7,7,7c0.34,0,0.672-0.032,1-0.079c0-0.002,0-0.003,0-0.005C12.957,25.923,12.916,25.934,12.872,25.939
		z"/>
	<path fill="#689F38" d="M36,12c-0.659,0-1.294,0.098-1.898,0.268C36.453,13.601,38,15.931,38,19c0,3.167-1.241,5.544-3.426,6.854
		c-0.181-0.036-0.358-0.085-0.533-0.137C34.663,25.898,35.319,26,36,26c3.866,0,7-3.134,7-7S39.866,12,36,12z"/>
	<path fill="#689F38" d="M30,13c-1.543,0-3.675,1.041-3.437,0.906C28.077,15.436,29,17.508,29,20c0,2.578-0.771,4.705-2.146,6.247
		C27.801,26.725,28.867,27,30,27c3.865,0,7-3.135,7-7S33.865,13,30,13z"/>
</g>
<g>
	<circle fill="#33691E" cx="15" cy="11" r="1"/>
	<circle fill="#33691E" cx="17" cy="8" r="1"/>
	<circle fill="#33691E" cx="19" cy="11" r="1"/>
	<circle fill="#33691E" cx="31" cy="9" r="1"/>
	<circle fill="#33691E" cx="33" cy="23" r="1"/>
	<circle fill="#33691E" cx="35" cy="20" r="1"/>
	<circle fill="#33691E" cx="31" cy="20" r="1"/>
	<circle fill="#33691E" cx="38" cy="15" r="1"/>
	<circle fill="#33691E" cx="40" cy="18" r="1"/>
	<circle fill="#33691E" cx="17" cy="18" r="1"/>
	<circle fill="#33691E" cx="15" cy="21" r="1"/>
	<circle fill="#33691E" cx="19" cy="21" r="1"/>
	<circle fill="#33691E" cx="17" cy="24" r="1"/>
	<path fill="#33691E" d="M24.557,14.429c0.22,0.153,0.431,0.317,0.634,0.491C25.714,13.807,26,12.495,26,11
		c0-1.477-0.274-2.777-0.783-3.884c-0.488,0.314-0.932,0.688-1.327,1.11C24.59,9.316,25,10.609,25,12
		C25,12.856,24.839,13.672,24.557,14.429z"/>
</g>
</svg>
