<?xml version="1.0" encoding="utf-8"?>
<!-- Generator: Adobe Illustrator 19.1.1, SVG Export Plug-In . SVG Version: 6.00 Build 0)  -->
<svg version="1.1"  xmlns="http://www.w3.org/2000/svg" xmlns:xlink="http://www.w3.org/1999/xlink" x="0px" y="0px"
	 viewBox="0 0 48 48" enable-background="new 0 0 48 48" xml:space="preserve">
<path fill="#558B2F" d="M22,44c-1.9,0-3.6-1-4.5-2.2c-2,0.3-4.5-0.2-5.6-1.8c-1.8-2.4-1.2-5-0.8-6.1c0-0.1,0.1-0.2,0.1-0.2l2.8-4.2
	c0.2-0.4,0.7-0.5,1.1-0.4l12.3,4.8c0.5,0.1,0.7,0.6,0.7,1.1l-1.2,6.5c0,0.2-0.1,0.3-0.2,0.4c-0.1,0.1-1.4,1.8-4.1,2
	C22.4,44,22.2,44,22,44z"/>
<path fill="#33691E" d="M24.5,41C24.5,41,24.5,41,24.5,41c-0.5-0.6-0.9-1.3-1.1-2c0,0,0,0,0,0c0,0,0,0,0,0c-0.1-0.2-0.1-0.4-0.2-0.6
	c-0.1-0.2-0.2-0.7-0.4-1.5c-0.7-0.1-1.4-0.3-2.1-0.6c0,0,0,0,0,0c-0.2-0.1-0.3-0.1-0.5-0.2c-0.2-0.1-0.4-0.2-0.6-0.3
	c-0.2-0.1-0.3-0.1-0.5-0.2c0,0,0,0,0,0c-0.7-0.3-1.3-0.7-1.9-1.1c0,0,0,0,0,0c0,0,0,0,0,0c0,0,0,0,0,0c0,0,0,0,0,0c0,0,0,0,0,0
	c-0.6,0.4-1.3,0.7-2,0.8c0,0-0.1,0-0.2,0l0,0c0,0,0,0,0,0c0,0,0,0,0,0l0,0c-0.3,0.1-1,0.2-1.8,0.2c-0.7,0-1.6-0.1-2.4-0.4
	c1.8,2.2,3.9,2.3,4.8,2.1c0.5-0.1,1-0.2,1.5-0.5c1.2,0.8,2.6,1.4,4.1,1.8c0.1,0.2,0.1,0.3,0.1,0.5c0.6,1.9,2.7,3.6,4.9,3.4
	C25.5,42.1,25,41.6,24.5,41z"/>
<path fill="#7CB342" d="M13.2,35.4c-1.6,0-3.9-0.4-5.4-2.5c-1-1.5-1.2-4.2-0.3-6c-1.7-1.5-3.3-4.7-2.2-8c1-3.1,3.8-4.5,5.7-5
	c0-1.5,0.4-3.3,1.9-4.8c2.6-2.7,6-2,6.2-2c0.5,0.1,0.8,0.6,0.7,1.1l0.4,23.5c-0.1,0.4-2.6,3.2-5,3.6C15.2,35.2,14.3,35.4,13.2,35.4z
	"/>
<path fill="#689F38" d="M41.6,28c-1.5,1.5-3.6,1.6-4.8,1.4h0c0.8-1.7,1.2-3.5,1.2-5.4c0-7.2-5.8-13-13-13c-2.9,0-5.5,0.9-7.6,2.5
	c0,0,0,0,0,0c-0.5-0.6-0.8-1.6-0.9-2.3c0,0,0-0.1,0-0.1c0-0.1,0-0.3,0-0.4c0-0.3,0-0.6,0.1-0.9c0,0,0-0.1,0-0.1
	c0.1-0.3,0.1-0.6,0.2-0.8c0,0,0-0.1,0.1-0.1c0.1-0.3,0.2-0.5,0.4-0.8c0,0,0,0,0-0.1c0.2-0.3,0.4-0.5,0.6-0.8c0,0,0,0,0,0
	c-1.1,0.5-3.2,1.8-3.5,3.7c0,1,0.1,1.8,0.3,2.4C11.8,15.8,10,19.7,10,24c0,4.5,2,8.5,5.1,11.2c0.1,0,0.2,0,0.2,0
	c0.7-0.1,1.3-0.4,2-0.8c0,0,0,0,0,0c1.6,1.2,3.5,2,5.6,2.4c0.2,0.8,0.4,1.4,0.4,1.5c0.6,2.2,2.1,3.9,4,4.5c0.5,0.1,1.1,0.2,1.7,0.2
	c1.1,0,2.4-0.3,3.3-0.9c1.4,0.5,3.8,0.6,5.5-0.4c1.7-1,2.7-3.5,2.4-5.4c1.5-0.8,2.4-2,2.8-3.5C43.3,31.2,42.8,29.2,41.6,28z"/>
<path fill="#558B2F" d="M36.8,29.4c-1.6,3.5-4.8,6.2-8.6,7.2c0,0-0.1,0-0.1,0c-0.5,0.1-0.9,0.2-1.4,0.3c0,0-0.1,0-0.1,0
	C26,37,25.5,37,25,37c0,0,0,0,0,0c0,0,0,0,0,0c-0.4,0-0.8,0-1.2-0.1c-0.2,0-0.5-0.1-0.7-0.1c-0.1,0-0.2,0-0.4,0
	c0.2,0.8,0.4,1.4,0.4,1.5c0.1,0.2,0.1,0.4,0.2,0.6C23.9,39,24.4,39,25,39c5.5,0,10.3-3,12.9-7.4c1.4-0.1,3.2-1.4,3.7-3.5
	c-0.2,0.2-0.4,0.3-0.6,0.5C39.6,29.5,37.9,29.5,36.8,29.4z"/>
<path fill="#9CCC65" d="M35,28c-1-0.4-3.5,0.1-4.6,2.4c-1.6-1.4-4.1-0.5-5.1,0.9c-0.4-1.3-1.5-5.6-6.3-4.4l-6.8-0.6
	C13.3,32.4,18.6,37,25,37c5.9,0,10.8-3.9,12.4-9.3L35,28z"/>
<path fill="#7CB342" d="M21.1,26.8c-0.2,0.9-0.5,1.7-1.1,2.2c-1,0.8-2.5,1.1-2.8,1c-0.5,0.6-1.2,1.1-1.9,1.3c-0.3,0.1-0.6,0.1-1,0.1
	c0,0,0,0,0,0c-0.5-0.7-0.9-1.4-1.2-2.2c0.4,0.1,0.8,0.2,1.2,0.2c0.2,0,0.3,0,0.4-0.1c0.7-0.2,1.3-1,1.6-1.8c0.5,0.3,1.1,0.6,1.9,0.6
	c0.4,0,0.8-0.1,1.3-0.3c0.4-0.2,0.8-0.6,1.1-1.1C20.7,26.8,20.9,26.8,21.1,26.8z M34,27.9c-0.3,0-0.6,0.1-0.9,0.2
	c0.4,1.4,1.5,2.7,2.7,3.1c0.4-0.6,0.7-1.2,1-1.8C35.7,29.2,34.7,28.7,34,27.9z"/>
<path fill="#AED581" d="M41.9,20.8c1.4-2.4,1.5-5.5,0-7.5c-1.2-1.7-3.2-2.6-5.4-2.5c0.1-2.6-1.4-5.4-5.8-6.6c-1.7-0.4-4.2,0-5.9,1.5
	c-1.9-1.1-5-0.5-6.5,0.8c-1.3,1.2-2,2.6-1.9,4.2c0,0.7,0.3,2.1,0.9,2.8C14.1,15.8,12,19.7,12,24c0,1.9,0.4,3.6,1.1,5.2
	c0.5,0.2,1.2,0.3,1.7,0.2c0.7-0.2,1.3-1,1.6-1.8c0.7,0.4,1.8,0.9,3.2,0.3c0.9-0.4,1.7-1.9,1.5-2.8c2.2,1.7,6.6-0.8,5-5l2-5l-1.5-3.9
	c-0.2,0-0.4,0-0.6-0.1c6.7,0.5,12,6.1,12,13c0,1.9-0.4,3.8-1.2,5.4c1.4,0.1,3.8,0.1,5.3-2c0.8-1.1,1-3.3,0.6-4.9
	C42.5,21.8,42.3,21.2,41.9,20.8z"/>
<path fill="#8BC34A" d="M25,9c-3.1,0-6,1-8.4,2.6c0.1,0.7,0.4,1.4,0.8,1.9c0.7-0.5,1.4-0.9,2.2-1.3c-0.3,1.5-0.1,3,0.6,4.3
	c0.7,1.2,1.8,2.1,3.1,2.6c0,0.5-0.2,2,1.2,3.3c0.5,0.4,1,0.7,1.6,0.9c0.1-0.3,0.3-0.7,0.3-1.1c-0.1-0.1-0.3-0.3-0.4-0.4
	c-0.9-1.2-0.9-2.9-0.3-4.3c-0.1,0-0.1,0-0.2,0c-3,0-5.3-3-3.5-6.2c0,0-0.1,0-0.1,0c1-0.2,2-0.4,3.1-0.4c7.2,0,13,5.8,13,13
	c0,1.9-0.4,3.8-1.2,5.4h0c0.6,0.1,1.4,0.1,2.2-0.1c0.6-1.7,1-3.5,1-5.4C40,15.7,33.2,9,25,9z"/>
<path fill="#DCEDC8" d="M38,24c0-7.2-5.8-13-13-13c-1,0-2,0.1-3,0.4c-1.8,3.2,0.6,6.3,3.7,6.2c-0.6,1.4-0.6,3.1,0.3,4.3
	c0.9,1.2,2.6,1.3,4.1,1.2c-0.2,0.8-0.1,2.2,0.5,2.7s1.9,0.5,2.5,0.3c0.5,2,2.1,3.1,3.7,3.4C37.5,27.8,38,25.9,38,24z"/>
<path fill="#AED581" d="M31,12.5l0.5,0.6l0.6,0.8c0,0,0.1,0.1,0.2,0.3c0.1,0.1,0.1,0.2,0.2,0.4c0.1,0.1,0.1,0.2,0.2,0.4
	c0.1,0.1,0.1,0.3,0.2,0.5c0.1,0.2,0.1,0.4,0.1,0.6c0,0.2,0,0.4,0,0.7c0,0.2,0,0.5-0.1,0.7c-0.2,1-0.7,1.9-1.2,2.5
	c-0.5,0.6-0.9,1-0.9,1s0.5-0.3,1.1-0.8c0.6-0.5,1.4-1.4,1.9-2.4c0.1-0.3,0.2-0.5,0.3-0.8c0.1-0.3,0.1-0.6,0.2-0.9c0-0.3,0-0.6,0-0.8
	c0,0,0-0.1,0-0.1l0,0C33.4,14.1,32.3,13.2,31,12.5z"/>
</svg>
