<?xml version="1.0" encoding="utf-8"?>
<!-- Generator: Adobe Illustrator 15.0.0, SVG Export Plug-In . SVG Version: 6.00 Build 0)  -->
<!DOCTYPE svg PUBLIC "-//W3C//DTD SVG 1.1//EN" "http://www.w3.org/Graphics/SVG/1.1/DTD/svg11.dtd">
<svg version="1.1"  xmlns="http://www.w3.org/2000/svg" xmlns:xlink="http://www.w3.org/1999/xlink" x="0px" y="0px"
	 width="48px" height="48px" viewBox="0 0 48 48" enable-background="new 0 0 48 48" xml:space="preserve">
<g>
	<g>
		<polygon fill="#795548" points="20.2,8.6 18,4 21.8,7.4 		"/>
	</g>
	<g>
		<polygon fill="#795548" points="6.553,17.895 3,15 7.447,16.105 		"/>
	</g>
	<g>
		<polygon fill="#795548" points="9,15 10,10 11,15 		"/>
	</g>
	<g>
		<polygon fill="#795548" points="23,7 24,2 25,7 		"/>
	</g>
	<g>
		<polygon fill="#795548" points="27.105,7.553 30,4 28.895,8.447 		"/>
	</g>
	<g>
		<polygon fill="#795548" points="30.445,10.168 34,9 31.555,11.832 		"/>
	</g>
	<g>
		<polygon fill="#795548" points="17.553,11.895 14,9 18.447,10.105 		"/>
	</g>
	<g>
		<polygon fill="#795548" points="7.447,21.895 3,23 6.553,20.105 		"/>
	</g>
	<g>
		<polygon fill="#795548" points="9.555,27.832 6,29 8.445,26.168 		"/>
	</g>
	<g>
		<polygon fill="#795548" points="13.832,31.555 11,34 12.168,30.445 		"/>
	</g>
	<g>
		<polygon fill="#795548" points="31,15 35,16 31,17 		"/>
	</g>
	<g>
		<polygon fill="#795548" points="12.293,15.293 15,14 13.707,16.707 		"/>
	</g>
	<g>
		<polygon fill="#795548" points="37.029,26.758 39,23 38.971,27.242 		"/>
	</g>
	<g>
		<polygon fill="#795548" points="39.758,28.029 44,28 40.242,29.971 		"/>
	</g>
	<g>
		<polygon fill="#795548" points="31,20 35,21 31,22 		"/>
	</g>
	<g>
		<polygon fill="#795548" points="39.242,33.029 43,35 38.758,34.971 		"/>
	</g>
	<g>
		<polygon fill="#795548" points="34.293,28.707 32,25 35.707,27.293 		"/>
	</g>
	<g>
		<polygon fill="#795548" points="36.832,36.445 38,40 35.168,37.555 		"/>
	</g>
</g>
<g>
	<path fill="#4DB6AC" d="M29.5,39.5c-1.934,0-3.5-0.066-3.5-2s1.566-3,3.5-3c3.866,0,4.502-5.232,4.527-5.436
		c0.238-1.918,1.998-3.278,3.906-3.037c1.918,0.238,3.278,1.988,3.039,3.906C40.494,33.762,37.48,39.5,29.5,39.5z"/>
	<path fill="#4DB6AC" d="M17.002,33.001c-0.364,0-0.733-0.05-1.101-0.155C8.085,30.613,6,22.464,6,18c0-2.209,1.791-4,4-4
		c2.202,0,3.988,1.779,4,3.979c0.003,0.152-0.945,8.894,3,10.021c2.124,0.605,4.453-0.025,3.846,2.1
		C20.344,31.855,18.742,33.001,17.002,33.001z"/>
	<path fill="#4DB6AC" d="M18,46c0,0-2-17.161-2-32c0-4.999,3.582-8,8-8s8,2.999,8,8s-2,32.001-2,32.001L18,46z"/>
</g>
<g>
	<path fill="#009688" d="M27.997,14.396C27.926,17.297,26.555,39.21,26.126,46h2.011c0.473-7.523,1.787-28.625,1.86-31.587
		C30.434,9.001,25.832,6.043,24,6C25.594,6.862,28.463,9.669,27.997,14.396z"/>
	<path fill="#009688" d="M19.817,46h2.009c-0.438-7.158-1.752-28.74-1.823-31.604C19.537,9.669,22.406,6.862,24,6
		c-1.832,0.043-6.433,3.001-5.997,8.413C18.076,17.338,19.338,38.163,19.817,46z"/>
	<path fill="#009688" d="M23,28v11.001V46h2v-6.999V28V17c0,0,0-7.999-1-11c-1,3.001-1,11-1,11V28z"/>
	<path fill="#009688" d="M16.541,29.245c-0.673-0.291-1.313-0.646-1.888-1.085c-1.284-0.979-2.253-2.34-2.882-3.877
		c-0.633-1.54-0.953-3.236-1.062-4.951C10.476,17.072,10.25,14.958,10,14c-0.572,0.818-1.645,3.072-1.286,5.458
		c0.12,1.881,0.469,3.782,1.209,5.587c0.731,1.799,1.919,3.489,3.515,4.703c0.655,0.5,2.124,1.521,3.239,1.527
		C16.63,30.609,16.585,29.936,16.541,29.245z"/>
	<path fill="#009688" d="M38.035,26c-0.289,0.699-0.898,3.055-1.002,3.617c-0.213,1.126-0.65,2.188-1.313,3.085
		c-0.658,0.899-1.543,1.629-2.558,2.171c-0.373,0.202-1.593,0.613-2.433,0.895c-0.051,0.744-0.103,1.465-0.15,2.164
		c1.158-0.231,3.007-1.015,3.529-1.297c1.233-0.656,2.371-1.586,3.222-2.748c0.854-1.158,1.405-2.517,1.666-3.895
		C39.035,28,38.566,26.555,38.035,26z"/>
</g>
</svg>
