<?xml version="1.0" encoding="utf-8"?>
<!-- Generator: Adobe Illustrator 15.0.0, SVG Export Plug-In . SVG Version: 6.00 Build 0)  -->
<!DOCTYPE svg PUBLIC "-//W3C//DTD SVG 1.1//EN" "http://www.w3.org/Graphics/SVG/1.1/DTD/svg11.dtd">
<svg version="1.1"  xmlns="http://www.w3.org/2000/svg" xmlns:xlink="http://www.w3.org/1999/xlink" x="0px" y="0px"
	 width="48px" height="48px" viewBox="0 0 48 48" enable-background="new 0 0 48 48" xml:space="preserve">
<g>
	<path fill="#388E3C" d="M42.588,18.875c-0.033-0.043-0.066-0.079-0.084-0.103c-0.522-0.646,0.229-0.135,0.425-0.402
		c0.233-0.318-0.492-0.91-0.688-1.076c-0.359-0.292-0.837-0.544-1.304-0.613c0.174,0.014,0.576,0.003,0.562-0.229
		c-0.015-0.239-0.589-0.523-0.764-0.62c-0.392-0.224-0.8-0.43-1.244-0.551c-0.371-0.102-0.729-0.059-1.086-0.096
		c0.121-0.078,0.28-0.127,0.388-0.258c-0.396-0.617-2.224-0.343-2.658,0.121c0.213-0.245,0.331-0.461-0.095-0.478
		c-0.296-0.011-0.578,0.121-0.854,0.209c-4.222,1.311-6.993,4.203-7.879,5.177c-0.914,1.011-1.252,1.9-1.252,1.9
		c1.23-1.158,2.683-2.295,4.29-3.141c0.964-0.508,2.813-1.219,3.851-0.506c0.251,0.172,0.467,0.369,0.774,0.434
		c0.03-0.1,0.098-0.174,0.085-0.297c0.248,0.34,0.006,0.826,0.283,1.203c0.358,0.491,0.717,0.268,1.088-0.023
		c-0.139,0.426,0.007,1.025,0.26,1.38c0.272,0.389,0.783,0.375,0.916-0.121c0.097,0.543,0.664,2.347,1.545,1.519
		c0.513-0.486,0.767-1.618,0.523-2.224c0.299,0.348,0.598,1.051,1.009,1.375c0.365,0.296,0.823,0.347,1.267,0.077
		c0.613-0.361,0.613-1.006,0.607-1.625c0-0.383,0.123-0.133,0.34-0.201C43.192,19.608,42.795,19.118,42.588,18.875z"/>
	<path fill="#388E3C" d="M29.135,5.415c0.04,0.032,0.079,0.064,0.101,0.085c0.647,0.519,0.134-0.231,0.406-0.425
		c0.315-0.234,0.907,0.488,1.071,0.688c0.29,0.357,0.543,0.838,0.612,1.303c-0.013-0.174,0-0.572,0.23-0.559
		c0.24,0.016,0.524,0.588,0.621,0.763c0.224,0.392,0.432,0.799,0.55,1.246c0.104,0.37,0.059,0.729,0.097,1.086
		c0.077-0.124,0.128-0.28,0.257-0.391c0.618,0.4,0.344,2.227-0.12,2.66c0.244-0.211,0.461-0.332,0.475,0.097
		c0.013,0.295-0.118,0.577-0.206,0.854c-1.314,4.221-4.204,6.995-5.178,7.879c-1.011,0.917-1.896,1.255-1.896,1.255
		c1.157-1.231,2.292-2.684,3.14-4.293C29.8,16.7,30.512,14.85,29.8,13.811c-0.172-0.248-0.371-0.466-0.435-0.776
		c0.1-0.029,0.174-0.094,0.296-0.082c-0.343-0.251-0.827-0.008-1.201-0.286c-0.489-0.357-0.267-0.715,0.023-1.088
		c-0.423,0.143-1.023-0.008-1.379-0.26c-0.391-0.274-0.375-0.786,0.121-0.92c-0.545-0.094-2.346-0.66-1.518-1.544
		c0.486-0.511,1.614-0.766,2.222-0.522c-0.348-0.299-1.05-0.597-1.373-1.008c-0.299-0.368-0.348-0.827-0.08-1.269
		c0.362-0.613,1.006-0.611,1.627-0.608c0.382,0,0.128-0.124,0.197-0.339C28.399,4.808,28.888,5.205,29.135,5.415z"/>
</g>
<path fill="#4CAF50" d="M41.614,6.387C40.791,5.563,40,6.091,39.352,6.749c0.193-0.268-0.042-0.641-0.373-0.736
	c-0.331-0.094-0.635,0.086-0.842,0.293c-0.423,0.426-0.418,1.048-0.413,1.628c-0.325-0.699-1.136-0.361-1.406,0.202
	c-0.237,0.496-0.245,1.078-0.155,1.619c-0.279-0.307-0.743-0.307-1.082,0.074c-0.973,1.1-1.092,4.063-6.074,8.923
	c-0.074,0.071,0.185,0.306,0.236,0.258c6.084-5.858,7.769-4.958,9.052-6.046c0.323-0.274-0.018-0.508-0.309-0.605
	c0.382-0.026,0.764-0.087,1.142-0.139c0.468-0.069,1.036-0.163,1.384-0.521c0.218-0.227,0.429-0.603,0.266-0.923
	c-0.17-0.342-0.501-0.284-0.82-0.339c0.582-0.072,1.317-0.224,1.777-0.646c0.225-0.207,0.403-0.461,0.358-0.782
	c-0.033-0.227-0.233-0.665-0.532-0.567C42.149,7.945,42.136,6.909,41.614,6.387z"/>
<path fill="#FF9800" d="M31.033,27.067c1.96-2.044,1.883-5.492-1.357-8.73c-3.237-3.244-6.689-3.325-8.691-1.323
	C16.719,21.712,5.924,39.766,7.088,40.931C8.061,41.903,24.669,32.417,31.033,27.067z"/>
<g>
	<path fill="#EF6C00" d="M19.932,28.39c0.195,0.195,0.452,0.293,0.708,0.293s0.512-0.098,0.707-0.293
		c0.392-0.391,0.392-1.025,0-1.416l-4.458-4.461c-0.37,0.55-0.748,1.121-1.127,1.705L19.932,28.39z"/>
	<path fill="#EF6C00" d="M19.529,18.794l1.929,1.931c0.196,0.195,0.452,0.293,0.708,0.293s0.512-0.098,0.707-0.293
		c0.392-0.391,0.392-1.024,0-1.416l-2.077-2.079C20.416,17.665,19.99,18.188,19.529,18.794z"/>
	<path fill="#EF6C00" d="M9.45,36.925c0.195,0.196,0.451,0.294,0.707,0.294s0.512-0.098,0.708-0.294
		c0.391-0.391,0.391-1.023,0-1.415l-1.157-1.158c-0.352,0.652-0.677,1.272-0.973,1.859L9.45,36.925z"/>
	<path fill="#EF6C00" d="M26.867,25.316c-0.391-0.391-1.023-0.391-1.415,0c-0.391,0.391-0.391,1.024,0,1.416l2.613,2.614
		c0.575-0.413,1.12-0.816,1.626-1.205L26.867,25.316z"/>
	<line fill="none" stroke="#EF6C00" stroke-width="2" stroke-linecap="round" x1="13.979" y1="30.981" x2="17.03" y2="34.033"/>
</g>
</svg>
