<?xml version="1.0" encoding="utf-8"?>
<!-- Generator: Adobe Illustrator 15.0.0, SVG Export Plug-In . SVG Version: 6.00 Build 0)  -->
<!DOCTYPE svg PUBLIC "-//W3C//DTD SVG 1.1//EN" "http://www.w3.org/Graphics/SVG/1.1/DTD/svg11.dtd">
<svg version="1.1"  xmlns="http://www.w3.org/2000/svg" xmlns:xlink="http://www.w3.org/1999/xlink" x="0px" y="0px"
	 width="48px" height="48px" viewBox="0 0 48 48" enable-background="new 0 0 48 48" xml:space="preserve">
<path fill="#8BC34A" d="M35.965,17.983c2.369-2.369,3.76-1.898,1.391-4.27l-3.123-3.121c-2.369-2.369-2.898-0.977-5.268,1.391
	L6.777,31.494c-2.369,2.369-2.369,6.211,0,8.582l1.104,1.146c2.37,2.369,6.213,2.369,8.582,0L35.965,17.983z"/>
<path fill="#689F38" d="M29.279,20.847c-2.797,2.808-6.426,6.458-9.855,9.928c-4.878,4.936-6.665,8.209-7.483,9.545
	c-1.512,0.154-2.894,0.205-3.977-0.338c-0.434-1.301-0.114-2.791,0.223-4.307c1.956-1.221,4.95-3.225,8.868-7.17
	c3.277-3.3,6.719-6.768,9.439-9.511c-0.549-0.09-1.086-0.481-1.23-1.064c-0.033-0.137-0.044-0.302-0.047-0.473L8.982,33.121
	c-1.366,1.367-5.752,4.033-1.601,7.537c3.771,4.512,6.39-0.672,7.758-2.037l15.334-16.553c-0.408-0.353-0.78-0.921-0.756-1.47
	C29.618,20.718,29.462,20.798,29.279,20.847z"/>
<path fill="#558B2F" d="M40.225,9.79c3.299,0.453,1.648,2.872,1.049,3.021c2.697,1.514,1.65,3.628,0.75,3.176
	c0.451,0.606,0.9,0.907,0.9,2.721c0,0.453-0.602,1.211-2.25,0.453c0.6,0.604,1.35,2.267,0.75,3.329
	c-0.301,0.453-1.051,0.453-1.352,0.149c0.152,0.907,0.152,3.627-1.199,4.083c-1.801,0.906-2.102-0.605-2.699-1.513
	c-0.301,2.571-2.699,1.208-2.551-0.152c-2.549,1.665-3.301-0.453-2.398-1.511c-1.951,1.814-3.451,0.606-2.852-0.907
	c-0.748,0.907-4.499,0.756-2.85-2.418c-0.449,0.453-3.75,0.453-2.1-1.813c-1.65,0.602-4.2-1.062-1.499-2.722
	c-1.801,0-3.303-1.36-1.652-2.417c-2.7-0.911-0.449-2.118,0.75-2.723c-0.597-0.302-2.248-0.907,0.3-1.814
	c-0.896-0.906,0.75-1.36,3.148-1.057c-0.747-0.909,0.302-3.176,4.503-0.756c-0.75-1.967,0.75-2.42,2.85-1.362
	c-0.301-0.907,2.248-0.605,2.848,0.605c1.053-1.362,3.602-0.756,3.303,1.209C39.174,6.616,41.572,8.125,40.225,9.79z"/>
<path fill="#7CB342" d="M33.785,9.671c-0.128-1.032-0.986-1.944-2.084-1.854c-0.57,0.047-1.194,1.214-0.502,1.51
	c-0.421-0.959-2.052-0.996-2.891-0.867c-0.568,0.086-1.045,0.442-0.933,1.09c0.128,0.74,0.815,0.805,1.401,0.94
	c-0.975-0.676-3.053-0.17-3.779,0.691c-0.253,0.298-0.679,0.965-0.407,1.362c0.258,0.376,1.086,0.449,1.47,0.319
	c-1.005,0.168-2.186,1.215-2.407,2.24c-0.093,0.434-0.045,0.97,0.436,1.099c0.445,0.125,1.424,0.018,1.607-0.51
	c-0.4,0.506-0.588,1.613-0.434,2.24c0.291,1.176,2.195,1.637,2.554,0.264c-0.312,0.5-0.48,1.626-0.204,2.165
	c0.379,0.744,2.438,0.793,2.223-0.219c-0.426,0.764,0.279,1.726,0.876,2.109c0.952,0.616,3.129,1.105,3.173-0.684
	c0.008,1.003,5.209-6.703,4.443-6.435c0.684-0.062,1.582-0.815,1.193-1.607c-0.422-0.863-2.1-1.06-2.74-0.451
	c0.484-0.352,1.798-1.494,0.952-2.133c-0.714-0.542-2.063-0.355-2.538,0.404c0.518-0.472,1.232-1.034,1.172-1.845
	c-0.033-0.455-0.565-0.811-0.975-0.924c-0.323-0.088-0.848-0.071-1.143,0.135c-0.214,0.15-0.336,0.532-0.465,0.652"/>
<path fill="#33691E" d="M32.68,12.936c-0.756,0.4-1.084,1.05-0.418,1.705c-0.764-0.464-3.613-0.022-2.93,1.439
	c0.225,0.479,1.186,0.349,1.552,0.159c-0.731,0.285-2.241,1.189-2.208,2.188c0.045,1.364,2.203,1.769,2.631,0.56
	c-0.324,1.046-1,2.358-0.008,3.294c1.188,1.12,3.188,0.329,3.686-1.015c-0.521,1.125,0.66,1.998,1.699,1.443
	c1.246-0.67,1.24-2.022,0.283-2.974c0.795,0.266,1.911,0.252,2.424-0.574c0.994-1.602-0.838-1.966-2.07-1.97
	c0.662-0.246,2.086-1.568,1.58-2.474c-0.609-1.094-2.645-0.476-3.457,0.375c0.369-0.438,0.941-1.096,0.566-1.517
	c-0.854-0.965-1.493,0.381-1.493,1.332C34.517,14.906,34.353,12.48,32.68,12.936z"/>
<g>
	<path fill="#DCEDC8" d="M8.072,33.937c-0.219-1.056-0.254-2.237-0.043-3.544l-1.252,1.102c-2.143,2.143-2.328,5.479-0.595,7.854
		C4.681,37.05,6.629,35.195,8.072,33.937z"/>
	<path fill="#DCEDC8" d="M14.221,39.725c-1.267,1.603-3.117,3.792-5.518,2.17c2.367,1.656,5.646,1.441,7.759-0.672l1.525-1.818
		C16.754,39.817,15.458,39.914,14.221,39.725z"/>
	<path fill="#DCEDC8" d="M7.323,40.688c-1.172-1.17-1.104-3.006,0-4.242c0.845-0.947,2.61-1.932,2.61-1.932
		s-0.755,2.766,0.021,3.543c0.801,0.801,3.473,0.066,3.447,0.02s-0.556,1.41-1.837,2.611C10.183,41.982,8.494,41.859,7.323,40.688z"
		/>
</g>
</svg>
