<?xml version="1.0" encoding="UTF-8" standalone="no"?>
<!-- Created with Inkscape (http://www.inkscape.org/) -->

<svg
   xmlns:dc="http://purl.org/dc/elements/1.1/"
   xmlns:cc="http://creativecommons.org/ns#"
   xmlns:rdf="http://www.w3.org/1999/02/22-rdf-syntax-ns#"
   xmlns:svg="http://www.w3.org/2000/svg"
   xmlns="http://www.w3.org/2000/svg"
   xmlns:sodipodi="http://sodipodi.sourceforge.net/DTD/sodipodi-0.dtd"
   xmlns:inkscape="http://www.inkscape.org/namespaces/inkscape"
   width="48"
   height="48"
   viewBox="0 0 48 48.000001"
   id="svg4390"
   version="1.1"
   inkscape:version="0.91 r13725"
   sodipodi:docname="celery-2.svg">
  <defs
     id="defs4392" />
  <sodipodi:namedview
     id="base"
     pagecolor="#ffffff"
     bordercolor="#666666"
     borderopacity="1.0"
     inkscape:pageopacity="0.0"
     inkscape:pageshadow="2"
     inkscape:zoom="7.9195959"
     inkscape:cx="8.6932288"
     inkscape:cy="31.747127"
     inkscape:document-units="px"
     inkscape:current-layer="layer1"
     showgrid="false"
     units="px"
     inkscape:window-width="1385"
     inkscape:window-height="855"
     inkscape:window-x="0"
     inkscape:window-y="1"
     inkscape:window-maximized="1" />
  <metadata
     id="metadata4395">
    <rdf:RDF>
      <cc:Work
         rdf:about="">
        <dc:format>image/svg+xml</dc:format>
        <dc:type
           rdf:resource="http://purl.org/dc/dcmitype/StillImage" />
        <dc:title></dc:title>
      </cc:Work>
    </rdf:RDF>
  </metadata>
  <g
     inkscape:label="Layer 1"
     inkscape:groupmode="layer"
     id="layer1"
     transform="translate(0,-1004.3622)">
    <g
       transform="matrix(0.12359937,0,0,0.12359937,-122.58422,943.95537)"
       id="g891">
      <g
         id="g893">
        <path
           style="fill:#92bc3e"
           inkscape:connector-curvature="0"
           d="m 1158,526.1 c -1,-1.3 -2.8,-2.1 -4.5,-1.9 -0.7,0.1 -1.6,0 -1.7,-0.7 -0.1,-0.4 0.2,-0.7 0.5,-0.9 1,-1 2.2,-1.8 3.2,-2.8 1,-1 1.7,-2.4 1.6,-3.8 -0.3,-2.3 -3.6,-3.8 -5.5,-2.5 1.3,-0.2 1.9,-1.5 1.1,-2.5 -0.8,-1 -2.7,-1.1 -3.5,-0.2 1,-0.6 1.2,-1.8 0.4,-2.7 -1,-0.8 -2.5,-0.2 -3.2,0.7 -0.7,0.8 -1.1,1.9 -2.3,2.2 0.7,-2.6 0.8,-5.4 0.4,-8.2 -0.4,-2.4 -1.6,-5.4 -4.9,-5.9 -1.2,-0.2 -2.3,0 -3.3,0.4 -2,1 -2.8,2.8 -3.2,4.6 -0.7,3.5 0,7.3 2.1,10.7 -1.8,-0.6 -3.1,-2.1 -4.8,-2.9 0,0 0,0 -0.1,0 -2.3,-1.1 -4.3,1.1 -2.6,2.7 0.8,0.7 1.6,1.4 2.4,2 -1.3,-0.7 -2.9,-1.3 -4.4,-1.2 -1.5,0.1 -3,0.8 -3.2,1.9 -0.2,1.1 1.3,2.6 2.8,2.4 -2.1,-1 -4.8,-0.1 -5.5,1.5 -0.6,1.3 -0.1,2.6 0.7,3.7 1.2,1.7 2.6,1 4,2.1 0.8,0.6 1.4,2.1 0.4,2.9 -0.8,0.6 -2.3,0.1 -3.2,0.2 -3.1,0.4 -4,3.6 -1.7,5.6 3.9,3.4 9.5,1.3 13.9,3.2 3.1,1.4 4.6,4.7 3.1,7 0.6,0.6 1.9,0.3 2.6,-0.2 3,-2.1 4.9,-5.1 7.7,-7.4 2.3,-1.9 4.9,-3.3 7.7,-4.2 2.6,-0.8 5.1,-3 3,-5.8 z"
           id="path895" />
      </g>
      <g
         id="g897">
        <path
           style="fill:#92bc3e"
           inkscape:connector-curvature="0"
           d="m 1119.1,564.9 c -1.8,0 -3.7,1.3 -4.6,2.9 -0.4,0.6 -1,1.4 -1.6,1.1 -0.4,-0.2 -0.5,-0.6 -0.6,-1 -0.3,-1.5 -0.2,-3.1 -0.5,-4.6 -0.3,-1.5 -1.1,-3.1 -2.5,-3.8 -2.3,-1.2 -5.7,0.9 -5.7,3.5 0.7,-1.3 -0.2,-2.7 -1.6,-2.6 -1.4,0.1 -2.7,1.8 -2.4,3 0.1,-1.2 -0.9,-2.2 -2.2,-2.1 -1.3,0.4 -1.7,2.2 -1.4,3.3 0.3,1.1 1,2.2 0.5,3.5 -2,-2.3 -4.4,-4.1 -7.2,-5.5 -2.4,-1.2 -5.9,-1.9 -8.5,0.7 -0.9,0.9 -1.5,2.1 -1.7,3.3 -0.4,2.4 0.8,4.3 2.2,5.8 2.7,2.8 6.6,4.5 11,4.8 -1.7,1.3 -3.8,1.5 -5.6,2.5 0,0 0,0 -0.1,0 -2.4,1.4 -1.7,4.6 0.8,4 1.1,-0.3 2.2,-0.6 3.3,-1 -1.5,0.8 -2.9,1.8 -3.9,3.2 -1,1.4 -1.1,3.2 -0.2,4.1 0.9,0.9 3.2,0.4 3.9,-1 -2.2,1.3 -3.1,4.3 -2.1,6 0.8,1.3 2.4,1.7 3.8,1.7 2.3,-0.1 2.5,-1.7 4.5,-2.3 1.1,-0.3 2.8,0.1 2.9,1.4 0.1,1.1 -1.4,2.2 -1.8,3.1 -1.6,3.1 0.8,5.9 4.1,5.1 5.5,-1.4 7.1,-7.8 11.6,-10.6 3.2,-2 7.2,-1.2 8.3,1.5 1,-0.2 1.4,-1.5 1.4,-2.5 0,-4 -1.6,-7.7 -1.9,-11.7 -0.3,-3.2 0.1,-6.5 1,-9.6 1.1,-2.7 0.6,-6.3 -3.2,-6.2 z"
           id="path899" />
      </g>
      <g
         id="g901">
        <polygon
           style="fill:#b7d76d"
           points="1156.8,596.3 1163.5,608.4 1122.9,593.8 1124,586.2 "
           id="polygon903" />
      </g>
      <g
         id="g905">
        <polygon
           style="fill:#b7d76d"
           points="1122.9,593.8 1124,586.2 1134.6,589.4 1141.8,600.6 "
           id="polygon907" />
      </g>
      <g
         id="g909">
        <polygon
           style="fill:#92bc3e"
           points="1122.9,593.8 1124,586.2 1134.6,589.4 1141.8,600.6 "
           id="polygon911" />
      </g>
      <g
         id="g913">
        <polygon
           style="fill:#b7d76d"
           points="1125.6,633.3 1093.3,637 1094.8,645.2 1139.1,643.3 1125.6,620.7 1068.2,596.3 1068.6,603.8 "
           id="polygon915" />
      </g>
      <g
         id="g917">
        <polygon
           style="fill:#92bc3e"
           points="1103.8,622 1095.3,607.8 1114,615.7 1125,633 "
           id="polygon919" />
      </g>
      <g
         id="g921">
        <polygon
           style="fill:#92bc3e"
           points="1116.9,644.3 1111.4,635 1125.2,633.4 1131.8,643.6 "
           id="polygon923" />
      </g>
      <g
         id="g925">
        <path
           style="fill:#92bc3e"
           inkscape:connector-curvature="0"
           d="m 1229.1,543 c -0.6,-2.7 -2.4,-4.4 -6.5,-3.2 -2.9,0.9 -5.4,3 -8.3,4.1 2.5,-2 5.1,-4.1 6.7,-6.8 1.6,-2.7 2.1,-6.2 0.3,-8.5 -1.8,-2.3 -6.2,-2.5 -8,0.1 1.8,-1 2.2,-3.6 0.8,-4.7 -1.4,-1.1 -4.1,-0.4 -4.9,1.4 1.2,-1.4 1.1,-3.6 -0.2,-4.7 -1.6,-0.8 -3.5,1 -4.2,2.7 -0.7,1.7 -1,3.7 -2.6,4.8 0.1,-4.7 -0.6,-9.4 -1.9,-13.8 -1.2,-3.9 -3.9,-8.1 -8.5,-7.4 -1.7,0.2 -3.2,1.2 -4.4,2.4 -2.5,2.7 -3.1,6.1 -3,9.3 0.1,6.1 2.2,12 6.1,16.6 -2.7,-0.1 -4.8,-1.9 -7.4,-2.4 0,0 -0.1,0 -0.1,0 -3.4,-0.6 -5.6,4 -2.7,5.7 1.3,0.8 2.6,1.4 4,2.1 -2.1,-0.5 -4.3,-0.6 -6.4,0.2 -2.1,0.8 -3.8,2.8 -3.8,4.9 0.1,2 2.6,3.6 4.5,2.5 -3.1,-0.5 -6.6,2.2 -7.1,5.3 -0.5,3.1 1.5,6 4.3,7.2 2,0.9 4.2,0.9 6.4,0.6 1.8,-0.2 3.5,-1.1 5.3,-1.2 0.9,0 1.9,0.2 2.6,0.9 1.4,1.5 0.1,3.1 -1.4,3.9 -3.5,1.9 -7.5,0.6 -11.1,2 -1.2,0.5 -2.3,1.2 -3,2.3 -2.2,2.9 -1.3,6.6 1.6,8.3 6.4,3.6 13.5,-2.7 20.1,-1.7 3.8,0.5 6.5,3.8 6.7,7.4 0.1,1.7 2.2,2.4 3.1,1 0,0 0,0 0,0 3.6,-5.1 5.5,-10.8 8.2,-16.3 2.7,-5.5 9.4,-9 12.6,-14.5 1.6,-2.5 2.8,-7.2 2.2,-10.5 z"
           id="path927" />
      </g>
      <g
         id="g929">
        <path
           style="fill:#92bc3e"
           inkscape:connector-curvature="0"
           d="m 1087.6,619 c -2.2,0.1 -4.1,1.3 -4.7,4.5 -0.4,2.3 0.2,4.3 0,6.6 -0.6,-2.1 -1.2,-4.2 -2.6,-5.7 -1.4,-1.5 -3.8,-2.2 -6.2,-1.1 -2.4,1.1 -4.1,4.3 -2.9,6 -0.1,-1.4 -1.8,-2 -3.2,-1.1 -1.4,0.9 -1.8,3 -0.7,3.7 -0.6,-1 -2.3,-1.2 -3.6,-0.3 -1.2,1.1 -0.5,2.7 0.5,3.4 1,0.7 2.4,1.1 2.6,2.4 -3.5,-0.6 -7.2,-0.6 -11,0 -3.3,0.5 -7.4,2 -8.6,5.5 -0.4,1.3 -0.3,2.5 0.2,3.5 1.1,2.1 3.4,2.9 5.8,3.2 4.6,0.6 9.8,-0.4 14.6,-2.8 -1,2 -3.1,3.4 -4.5,5.3 0,0 0,0 0,0.1 -1.7,2.5 0.9,4.6 3.3,2.6 1,-0.9 2,-1.8 3,-2.7 -1.1,1.5 -2,3.1 -2.2,4.8 -0.2,1.7 0.7,3.2 2.2,3.3 1.6,0.2 3.6,-1.5 3.5,-3.1 -1.5,2.3 -0.7,5.1 1.4,5.8 2.1,0.7 5,-0.4 6.9,-2.4 1.4,-1.4 2.2,-3 2.8,-4.6 0.5,-1.4 0.4,-2.7 1,-4.1 0.3,-0.7 0.9,-1.4 1.6,-1.8 1.6,-0.9 2.3,0.3 2.4,1.4 0.2,2.8 -2.2,5.6 -2.5,8.4 -0.1,0.9 0.1,1.8 0.6,2.5 1.4,1.9 4.5,1.7 6.8,-0.3 5,-4.3 2.9,-10.3 6,-15.1 1.8,-2.7 5.2,-4.4 7.9,-4.2 1.3,0.1 2.6,-1.4 1.9,-2.2 0,0 0,0 0,0 -2.5,-3.2 -6,-5.2 -9.1,-7.8 -3.1,-2.6 -3.3,-7.9 -6.2,-10.9 -1.3,-1.6 -4.3,-3 -7,-2.8 z"
           id="path931" />
      </g>
      <g
         id="g933">
        <path
           style="fill:#b7d76d"
           inkscape:connector-curvature="0"
           d="m 1114.7,539.2 c 0,0 100.5,158.7 118.9,214.7 18.4,56 23.7,83.7 23.7,83.7 l 36.2,-23.7 c 0,0 -124.2,-218.2 -168.3,-281.4 l -10.5,6.7 z"
           id="path935" />
      </g>
      <g
         id="g937">
        <path
           style="fill:#b7d76d"
           inkscape:connector-curvature="0"
           d="m 1264.2,833.2 c 1.4,-42.9 -12.7,-92.7 -12.7,-92.7 0,0 0,0 0,0 6.8,11.7 13,22.5 18.5,32.1 0,0 0,0 0,0 5.8,17.6 9.9,34.2 11.7,49.1 l -17.5,11.5 z"
           id="path939" />
      </g>
      <g
         id="g941">
        <path
           style="fill:#b7d76d"
           inkscape:connector-curvature="0"
           d="m 1100.7,578.1 14,-7.9 c 78.3,134.8 74.8,134.1 129.8,199.4 l 6.9,43.3 c 0,0 -18.3,-7.3 -150.7,-234.8 z"
           id="path943" />
      </g>
      <g
         id="g945">
        <path
           style="fill:#9db750"
           inkscape:connector-curvature="0"
           d="m 1291.9,815 -34.5,22.6 c 0,0 -1.6,-8.2 -6,-24.7 l 0,0 c -2.5,-9.3 -5.8,-21.2 -10.3,-35.7 1.8,1.7 3.6,3.4 5.5,5 15,13.3 29.6,23.6 43.2,29.2 l 2.1,3.6 z"
           id="path947" />
      </g>
      <g
         id="g949">
        <path
           style="fill:#9db750"
           inkscape:connector-curvature="0"
           d="m 1251.4,812.8 0,0 c 0,0 -11.1,-4.3 -78,-112.8 21.7,28.6 45,56 67.6,77.1 1.8,1.7 3.6,3.4 5.5,5 l 4.9,30.7 z"
           id="path951" />
      </g>
      <g
         id="g953">
        <path
           style="fill:#9db750"
           inkscape:connector-curvature="0"
           d="m 1264.2,833.2 c 1.4,-42.9 -12.7,-92.7 -12.7,-92.7 0,0 0,0 0,0 6.8,11.7 13,22.5 18.5,32.1 0,0 0,0 0,0 5.8,17.6 9.9,34.2 11.7,49.1 l -17.5,11.5 z"
           id="path955" />
      </g>
      <g
         id="g957">
        <path
           style="fill:#9db750"
           inkscape:connector-curvature="0"
           d="m 1291.9,815 -34.5,22.6 c 0,0 -1.6,-8.2 -6,-24.7 0,0 -11.1,-4.4 -78,-112.8 21.7,28.6 45,56 67.6,77.1 1.8,1.7 3.6,3.4 5.5,5 15,13.3 29.6,23.6 43.2,29.2 l 2.2,3.6 z"
           id="path959" />
      </g>
      <g
         id="g961">
        <path
           style="fill:#b7d76d"
           inkscape:connector-curvature="0"
           d="m 1307.3,853.7 c 0,0 -31.2,32.2 -76.3,-16.1 C 1186,789.3 1060.7,569 1060.7,569 l 13.1,-7.5 c 0,0 129.1,225.8 216,261.7 l 17.5,30.5 z"
           id="path963" />
      </g>
      <g
         id="g965">
        <path
           style="fill:#9db750"
           inkscape:connector-curvature="0"
           d="m 1275,815.5 c 0,0 3.3,17.5 1,29.6 -1.4,7.1 4.1,13.8 11.4,13.8 0.1,0 0.2,0 0.4,0 12.3,-0.1 4,-32.5 4,-32.5 l -10.3,-7.3 -6.5,-3.6 z"
           id="path967" />
      </g>
      <g
         id="g969">
        <path
           style="fill:#b7d76d"
           inkscape:connector-curvature="0"
           d="m 1148.6,539.4 c 0,0 146.2,218.9 133.2,309.8 l 0,0 c 0.4,9.1 10.4,14.5 18.2,9.7 0.7,-0.4 1.3,-0.8 2,-1.3 20.2,-12.8 26.9,-39.2 15.2,-60.1 -37.8,-67.8 -124.9,-215.6 -162.6,-261.9 l -6,3.8 z"
           id="path971" />
      </g>
      <g
         id="g973">
        <path
           style="fill:#9db750"
           inkscape:connector-curvature="0"
           d="m 1286.2,859.4 25.6,-17.6 c 1.8,-1.3 4.3,-0.8 5.6,1 l 0,0.1 c 1.4,1.9 0.9,4.5 -1,5.8 l -25.7,17.5 c -1.8,1.2 -4.3,0.8 -5.6,-0.9 l 0,0 c -1.3,-1.9 -0.8,-4.5 1.1,-5.9 z"
           id="path975" />
      </g>
      <g
         id="g977">
        <path
           style="fill:#faf0d6"
           inkscape:connector-curvature="0"
           d="m 1288.3,861.5 25.6,-17.6 c 1.8,-1.3 4.3,-0.8 5.6,1 l 0,0.1 c 1.4,1.9 0.9,4.5 -1,5.8 l -25.7,17.5 c -1.8,1.2 -4.3,0.8 -5.6,-0.9 l 0,0 c -1.3,-1.9 -0.9,-4.6 1.1,-5.9 z"
           id="path979" />
      </g>
      <g
         id="g981">
        <path
           style="fill:#b7d76d"
           inkscape:connector-curvature="0"
           d="m 1195.5,557.7 c 0,0 14.2,51.9 11.1,62 l 13.8,21.6 c 0,0 10.1,-38.7 12.2,-66.9 l -7.8,-4.1 -10.8,43.4 c 0,0 -6.1,-35.6 -10.8,-52.9 l -7.7,-3.1 z"
           id="path983" />
      </g>
      <g
         id="g985">
        <path
           style="fill:#b7d76d"
           inkscape:connector-curvature="0"
           d="m 1224.5,624 c -1,4.7 -2,8.7 -2.7,11.7 l -14.9,-23.9 c -0.4,-5.5 -1.7,-12.6 -3.2,-20 l 9,13.9 c 0.9,4.8 1.4,7.9 1.4,7.9 l 1,-4.1 9.4,14.5 z"
           id="path987" />
      </g>
      <g
         id="g989">
        <polygon
           style="fill:#b7d76d"
           points="1135.1,528.5 1142.6,528.7 1147.8,576.4 1138.3,566.4 "
           id="polygon991" />
      </g>
      <g
         id="g993">
        <path
           style="fill:#92bc3e"
           inkscape:connector-curvature="0"
           d="m 1224.5,624 c -1,4.7 -2,8.7 -2.7,11.7 l -14.9,-23.9 c -0.4,-5.5 -1.7,-12.6 -3.2,-20 l 9,13.9 c 0.9,4.8 1.4,7.9 1.4,7.9 l 1,-4.1 9.4,14.5 z"
           id="path995" />
      </g>
    </g>
  </g>
</svg>
