<?xml version="1.0" encoding="UTF-8" standalone="no"?>
<!-- Created with Inkscape (http://www.inkscape.org/) -->

<svg
   xmlns:dc="http://purl.org/dc/elements/1.1/"
   xmlns:cc="http://creativecommons.org/ns#"
   xmlns:rdf="http://www.w3.org/1999/02/22-rdf-syntax-ns#"
   xmlns:svg="http://www.w3.org/2000/svg"
   xmlns="http://www.w3.org/2000/svg"
   xmlns:sodipodi="http://sodipodi.sourceforge.net/DTD/sodipodi-0.dtd"
   xmlns:inkscape="http://www.inkscape.org/namespaces/inkscape"
   width="48"
   height="48"
   viewBox="0 0 48 48.000001"
   id="svg3820"
   version="1.1"
   inkscape:version="0.91 r13725"
   sodipodi:docname="chervil.svg">
  <defs
     id="defs3822" />
  <sodipodi:namedview
     id="base"
     pagecolor="#ffffff"
     bordercolor="#666666"
     borderopacity="1.0"
     inkscape:pageopacity="0.0"
     inkscape:pageshadow="2"
     inkscape:zoom="5"
     inkscape:cx="23"
     inkscape:cy="8"
     inkscape:document-units="px"
     inkscape:current-layer="layer1"
     showgrid="false"
     units="px"
     inkscape:window-width="1385"
     inkscape:window-height="855"
     inkscape:window-x="0"
     inkscape:window-y="1"
     inkscape:window-maximized="1" />
  <metadata
     id="metadata3825">
    <rdf:RDF>
      <cc:Work
         rdf:about="">
        <dc:format>image/svg+xml</dc:format>
        <dc:type
           rdf:resource="http://purl.org/dc/dcmitype/StillImage" />
        <dc:title></dc:title>
      </cc:Work>
    </rdf:RDF>
  </metadata>
  <g
     inkscape:label="Layer 1"
     inkscape:groupmode="layer"
     id="layer1"
     transform="translate(0,-1004.3622)">
    <g
       id="g122"
       transform="matrix(0.14646892,0,0,-0.14646892,43.783803,1032.825)">
      <path
         d="m 0,0 c 16.612,18.103 -15.973,13.418 -15.973,13.418 30.243,11.501 13.204,16.825 13.204,16.825 9.158,14.057 -12.991,7.88 -12.991,7.88 15.973,9.372 6.602,13.205 6.602,13.205 9.158,14.483 -5.112,8.093 -5.112,8.093 2.769,15.335 -11.926,-2.342 -11.926,-2.342 -1.704,17.89 -13.84,1.278 -13.84,1.278 -12.774,3.62 -11.718,-13.631 -11.718,-13.631 -9.158,11.288 -10.862,-9.371 -10.862,-9.371 1.065,-18.104 -4.26,-29.043 -4.26,-29.043 -5.963,-4.976 -5.963,20.061 -5.963,20.061 -3.621,21.474 -10.862,2.592 -10.862,2.592 -10.436,18.743 -9.797,-8.945 -9.797,-8.945 -10.223,10.436 -7.667,-5.75 -7.667,-5.75 -9.797,5.324 3.62,-22.363 3.62,-22.363 -9.584,11.501 -8.306,-4.047 -8.306,-4.047 -8.519,0.639 -2.42,-11.288 -2.42,-11.288 -6.888,4.327 -7.277,-1.254 -6.726,-5.616 0.304,-2.402 1.326,-4.629 2.7,-6.623 3.851,-5.591 4.383,-11.508 3.855,-16.229 -0.519,-4.638 -2.705,-8.891 -5.767,-12.413 -3.026,-3.482 -5.889,-7.942 -7.978,-11.497 3.753,43.355 1.782,87.378 1.782,87.378 4.26,36.632 42.667,35.071 42.667,35.071 33.864,1.065 13.844,13.417 13.844,13.417 30.456,2.343 16.613,9.158 16.613,9.158 17.464,8.733 -2.13,10.011 -2.13,10.011 5.111,8.519 -14.696,1.703 -14.696,1.703 -18.316,-1.278 3.621,9.584 3.621,9.584 33.651,10.436 11.501,12.353 11.501,12.353 21.724,20.446 -10.01,14.27 -10.01,14.27 14.482,13.205 4.046,15.121 4.046,15.121 4.26,16.826 -14.482,2.769 -14.482,2.769 -7.242,26.623 -18.53,-13.205 -18.53,-13.205 -3.194,32.16 -10.649,8.307 -10.649,8.307 -10.01,11.288 -6.389,-13.418 -6.389,-13.418 -10.436,12.14 -8.945,-5.538 -8.945,-5.538 2.13,-19.168 -7.029,-38.975 -7.029,-38.975 -4.898,-11.714 -7.028,1.491 -7.028,1.491 -3.833,25.345 11.927,51.754 11.927,51.754 15.973,20.02 3.834,18.529 3.834,18.529 8.945,18.743 -11.501,3.834 -11.501,3.834 10.649,25.558 -4.26,20.659 -4.26,20.659 -1.917,14.057 -13.844,3.408 -13.844,3.408 -6.602,-4.686 -4.046,-28.966 -4.046,-28.966 -4.047,4.686 -4.899,28.114 -4.899,28.114 -5.537,25.557 -19.381,3.62 -19.381,3.62 -28.113,21.724 -20.943,-9.867 -20.943,-9.867 -22.576,7.383 -11.43,-13.134 -11.43,-13.134 -22.576,5.75 3.408,-24.067 3.408,-24.067 -23.428,0.213 -2.982,-13.844 -2.982,-13.844 23.854,-6.602 49.908,-36.419 49.908,-36.419 7.242,-7.526 5.822,-11.217 5.822,-11.217 -0.142,-5.254 -5.893,-0.284 -5.893,-0.284 -10.862,12.14 -33.697,31.308 -33.697,31.308 -19.428,21.085 -18.483,2.13 -18.483,2.13 -30.882,21.511 -24.918,4.046 -24.918,4.046 -22.15,0.852 -10.566,-9.797 -10.566,-9.797 -16.955,-6.602 9.927,-13.205 9.927,-13.205 -26.41,-11.642 8.235,-15.618 8.235,-15.618 -29.817,-17.606 19.665,-12.282 19.665,-12.282 -34.929,-21.724 17.819,-13.56 17.819,-13.56 -16.896,-15.05 8.094,-6.247 8.094,-6.247 -9.513,-9.939 16.896,0.284 16.896,0.284 30.243,4.827 31.521,-21.724 31.521,-21.724 2.635,-44.62 1.152,-76.5 -1.444,-98.457 -1.043,1.444 -7.343,10.016 -13.688,15.379 -3.564,3.014 -6.374,6.882 -7.596,11.387 -1.243,4.584 -1.622,10.513 1.33,16.627 1.053,2.181 1.723,4.537 1.656,6.958 -0.123,4.395 -1.359,9.851 -7.506,4.522 0,0 4.206,12.719 -4.116,10.786 0,0 -1.113,15.56 -8.827,2.73 0,0 9.029,29.412 0.161,22.653 0,0 0.052,16.387 -8.456,4.511 0,0 -3.6,27.46 -11.049,7.343 0,0 -10.042,17.554 -10.338,-4.222 0,0 3.826,-24.742 -2.828,-20.736 0,0 -6.934,9.997 -8.648,28.051 0,0 -4.841,20.155 -12.167,7.601 0,0 -1.592,17.21 -13.663,11.679 0,0 -14.532,14.563 -13.482,-3.377 0,0 -17.224,15.224 -12.144,0.492 0,0 -15.079,4.134 -3.815,-8.779 0,0 -8.675,-5.221 8.543,-12.041 0,0 -22.834,2.719 -11.635,-9.773 0,0 -16.025,-7.865 15.621,-14.61 0,0 -32.92,-0.349 -13.736,-15.701 0,0 -16.558,-8.594 13.495,-7.826 0,0 -21.48,-10.218 8.898,-11.555 0,0 -13.301,-11.54 12.117,-5.885 0,0 15.07,7.072 37.521,-4.327 0,0 6.503,-3.161 -5.648,-6.046 0,0 -32.175,-4.4 -33.405,-19.676 0,0 -34.363,-17.957 -0.717,-15.34 0,0 -13.844,-15 12.451,-5.259 0,0 -4.984,-17.94 19.481,5.024 0,0 -7.694,-17.138 12.423,-3.682 0,0 -0.786,-10.251 9.599,3.424 0,0 5.774,-12.254 10.943,4.493 0,0 3.151,-12.012 10.685,3.377 0,0 8.421,21.549 27.64,-5.134 -2.472,-17.437 -5.548,-27.42 -7.175,-31.838 -0.686,-1.864 0.345,-3.955 2.268,-4.453 0.033,-0.009 0.067,-0.017 0.1,-0.026 1.724,-0.432 3.493,0.618 3.998,2.322 3.434,11.592 5.835,25.47 7.499,39.916 14.918,29.32 26.536,9.306 26.536,9.306 9.797,-14.056 11.075,-1.703 11.075,-1.703 7.667,-15.761 11.501,-2.769 11.501,-2.769 12.353,-11.927 10.01,-1.917 10.01,-1.917 21.937,-10.223 11.714,5.538 11.714,5.538 27.687,-18.956 20.02,-1.988 20.02,-1.988 27.475,-5.609 11.501,7.099 11.501,7.099 33.651,2.556 -3.053,15.051 -3.053,15.051 -3.549,14.908 -36.019,14.34 -36.019,14.34 -12.449,0.994 -6.506,5.112 -6.506,5.112 20.446,14.695 36.42,10.01 36.42,10.01 25.983,-1.704 11.075,7.667 11.075,7.667 29.817,5.964 7.028,12.779 7.028,12.779 C 17.677,-5.963 0,0 0,0"
         style="fill:#92c83e;fill-opacity:1;fill-rule:nonzero;stroke:none"
         id="path124"
         inkscape:connector-curvature="0" />
    </g>
    <g
       id="g126"
       transform="matrix(0.14646892,0,0,-0.14646892,27.304373,1042.8075)">
      <path
         d="m 0,0 c 0,0 1.737,1.274 4.671,3.668 1.486,1.171 3.227,2.675 5.253,4.363 1.986,1.736 4.252,3.669 6.646,5.863 2.391,2.198 4.999,4.562 7.644,7.183 2.703,2.561 5.434,5.38 8.255,8.303 2.861,2.886 5.587,6.081 8.484,9.212 2.752,3.256 5.594,6.531 8.29,9.922 1.324,1.716 2.648,3.431 3.966,5.14 l 1.973,2.558 c 0.616,0.88 1.229,1.757 1.84,2.631 2.416,3.515 4.931,6.887 6.983,10.398 2.121,3.466 4.29,6.75 5.956,10.087 0.879,1.643 1.735,3.24 2.562,4.786 0.414,0.773 0.821,1.533 1.22,2.279 0.347,0.771 0.687,1.528 1.02,2.27 1.326,2.97 2.542,5.693 3.62,8.106 0.991,2.449 1.674,4.655 2.33,6.436 1.261,3.582 1.981,5.629 1.981,5.629 0,0 -0.697,-2.055 -1.916,-5.652 -0.635,-1.789 -1.294,-4.005 -2.257,-6.467 C 77.469,94.286 76.283,91.546 74.99,88.557 74.664,87.81 74.332,87.048 73.994,86.271 73.603,85.519 73.204,84.754 72.799,83.975 71.988,82.417 71.149,80.807 70.287,79.151 68.656,75.786 66.522,72.472 64.435,68.973 62.417,65.428 59.937,62.021 57.554,58.468 56.952,57.584 56.346,56.697 55.739,55.807 L 53.79,53.22 C 52.488,51.491 51.18,49.755 49.872,48.019 47.207,44.586 44.394,41.268 41.67,37.969 38.801,34.795 36.1,31.556 33.264,28.628 30.468,25.662 27.758,22.8 25.075,20.199 22.45,17.537 19.859,15.134 17.483,12.898 15.104,10.666 12.85,8.699 10.874,6.931 8.857,5.21 7.124,3.679 5.641,2.482 2.718,0.039 0.968,-1.276 0.968,-1.276 L 0.955,-1.286 C 0.601,-1.551 0.099,-1.48 -0.167,-1.127 -0.432,-0.773 -0.361,-0.271 -0.008,-0.006 -0.006,-0.005 -0.001,-0.001 0,0"
         style="fill:#ffffff;fill-opacity:1;fill-rule:nonzero;stroke:none"
         id="path128"
         inkscape:connector-curvature="0" />
    </g>
    <g
       id="g130"
       transform="matrix(0.14646892,0,0,-0.14646892,34.505734,1035.7279)">
      <path
         d="m 0,0 c 0,0 2.495,1.518 6.34,3.581 1.928,1.022 4.187,2.199 6.649,3.375 2.453,1.193 5.11,2.383 7.798,3.494 1.333,0.582 2.71,1.061 4.04,1.588 1.34,0.504 2.684,0.934 3.97,1.385 1.306,0.39 2.569,0.767 3.767,1.124 1.215,0.292 2.364,0.569 3.424,0.824 1.068,0.221 2.059,0.363 2.93,0.521 0.869,0.177 1.643,0.212 2.275,0.273 1.266,0.112 1.99,0.176 1.99,0.176 0,0 -0.722,-0.077 -1.986,-0.21 -0.631,-0.072 -1.402,-0.12 -2.268,-0.312 -0.867,-0.173 -1.853,-0.332 -2.914,-0.57 -1.053,-0.273 -2.194,-0.569 -3.401,-0.881 -1.188,-0.377 -2.441,-0.774 -3.737,-1.185 -1.275,-0.473 -2.606,-0.924 -3.934,-1.45 -1.318,-0.548 -2.68,-1.048 -4,-1.652 C 18.282,8.927 15.655,7.696 13.231,6.465 10.798,5.251 8.567,4.04 6.664,2.989 2.865,0.865 0.421,-0.681 0.421,-0.681 0.234,-0.799 -0.013,-0.744 -0.132,-0.557 -0.25,-0.37 -0.194,-0.123 -0.007,-0.005 -0.006,-0.004 -0.001,-0.001 0,0"
         style="fill:#ffffff;fill-opacity:1;fill-rule:nonzero;stroke:none"
         id="path132"
         inkscape:connector-curvature="0" />
    </g>
    <g
       id="g134"
       transform="matrix(0.14646892,0,0,-0.14646892,29.076436,1041.3918)">
      <path
         d="m 0,0 c 0,0 3.632,0.909 9.146,1.498 2.759,0.303 5.991,0.531 9.458,0.564 1.732,0.046 3.524,-0.06 5.341,-0.088 1.813,-0.165 3.663,-0.225 5.494,-0.479 1.828,-0.27 3.671,-0.437 5.444,-0.856 1.784,-0.353 3.538,-0.7 5.192,-1.223 0.832,-0.236 1.65,-0.468 2.451,-0.696 0.798,-0.236 1.548,-0.564 2.294,-0.831 1.478,-0.572 2.908,-1.031 4.129,-1.693 1.242,-0.605 2.381,-1.16 3.391,-1.651 0.956,-0.59 1.789,-1.103 2.475,-1.527 1.368,-0.849 2.15,-1.334 2.15,-1.334 0,0 -0.792,0.469 -2.177,1.29 -0.693,0.409 -1.535,0.904 -2.5,1.473 -1.017,0.47 -2.164,1 -3.416,1.578 -1.227,0.634 -2.664,1.062 -4.146,1.602 -0.748,0.25 -1.498,0.561 -2.297,0.78 -0.801,0.21 -1.62,0.424 -2.452,0.642 -1.652,0.486 -3.404,0.795 -5.182,1.11 -1.767,0.38 -3.603,0.508 -5.42,0.739 -1.821,0.215 -3.66,0.237 -5.458,0.364 C 22.112,1.252 20.337,1.322 18.62,1.241 15.186,1.138 11.99,0.847 9.267,0.492 3.806,-0.206 0.292,-1.165 0.292,-1.165 c -0.32,-0.087 -0.65,0.101 -0.737,0.421 -0.087,0.32 0.101,0.651 0.421,0.738 0.003,0.001 0.006,0.002 0.009,0.002 L 0,0 Z"
         style="fill:#ffffff;fill-opacity:1;fill-rule:nonzero;stroke:none"
         id="path136"
         inkscape:connector-curvature="0" />
    </g>
    <g
       id="g138"
       transform="matrix(0.14646892,0,0,-0.14646892,31.402527,1039.2033)">
      <path
         d="m 0,0 c 0,0 0.555,3.289 1.112,8.286 0.261,2.497 0.551,5.414 0.744,8.549 0.225,3.132 0.334,6.481 0.363,9.831 0.033,3.351 -0.1,6.699 -0.3,9.834 -0.153,1.564 -0.301,3.075 -0.442,4.508 -0.216,1.423 -0.421,2.769 -0.61,4.012 -0.265,1.229 -0.507,2.355 -0.722,3.354 -0.187,1.007 -0.495,1.846 -0.699,2.55 -0.429,1.405 -0.674,2.207 -0.674,2.207 0,0 0.263,-0.797 0.724,-2.191 0.22,-0.701 0.547,-1.536 0.757,-2.539 0.237,-0.996 0.505,-2.12 0.798,-3.346 0.217,-1.242 0.453,-2.587 0.702,-4.01 C 1.926,39.61 2.109,38.098 2.298,36.533 2.569,33.392 2.777,30.033 2.82,26.669 2.865,23.306 2.831,19.94 2.676,16.79 2.553,13.638 2.327,10.702 2.12,8.186 1.675,3.162 1.187,-0.184 1.187,-0.184 1.14,-0.512 0.837,-0.741 0.508,-0.695 c -0.328,0.047 -0.557,0.351 -0.51,0.679 0,0.004 0.001,0.013 0.002,0.016"
         style="fill:#ffffff;fill-opacity:1;fill-rule:nonzero;stroke:none"
         id="path140"
         inkscape:connector-curvature="0" />
    </g>
    <g
       id="g142"
       transform="matrix(0.14646892,0,0,-0.14646892,22.579285,1044.1616)">
      <path
         d="m 0,0 c 0,0 -1.93,1.032 -5.192,2.999 -1.649,0.956 -3.595,2.205 -5.852,3.597 -2.222,1.445 -4.75,3.045 -7.443,4.887 -2.69,1.846 -5.617,3.825 -8.618,6.055 -3.05,2.161 -6.165,4.575 -9.381,7.079 -3.251,2.46 -6.415,5.248 -9.735,7.947 -3.196,2.844 -6.483,5.693 -9.642,8.678 -1.557,1.516 -3.115,3.031 -4.666,4.541 l -2.322,2.259 c -0.736,0.787 -1.47,1.571 -2.2,2.352 -2.898,3.148 -5.87,6.136 -8.406,9.331 -2.597,3.139 -5.212,6.088 -7.338,9.164 -1.105,1.504 -2.18,2.968 -3.22,4.383 -0.519,0.708 -1.03,1.404 -1.532,2.086 -0.453,0.717 -0.897,1.419 -1.333,2.108 -1.735,2.756 -3.326,5.282 -4.736,7.522 -1.328,2.286 -2.318,4.376 -3.219,6.047 -1.755,3.367 -2.758,5.292 -2.758,5.292 0,0 1.025,-1.913 2.819,-5.26 0.92,-1.66 1.932,-3.736 3.285,-6.004 1.434,-2.22 3.052,-4.725 4.817,-7.458 0.443,-0.682 0.894,-1.378 1.355,-2.088 0.508,-0.676 1.026,-1.365 1.554,-2.065 1.053,-1.401 2.143,-2.85 3.263,-4.339 2.156,-3.043 4.802,-5.957 7.427,-9.058 2.565,-3.156 5.565,-6.104 8.49,-9.208 0.738,-0.771 1.478,-1.544 2.221,-2.32 l 2.341,-2.226 c 1.564,-1.487 3.134,-2.98 4.704,-4.473 3.183,-2.939 6.493,-5.742 9.71,-8.539 3.341,-2.652 6.524,-5.393 9.792,-7.807 3.234,-2.458 6.364,-4.827 9.427,-6.944 3.013,-2.187 5.952,-4.124 8.651,-5.931 2.702,-1.803 5.236,-3.366 7.464,-4.779 C -8.013,6.47 -6.062,5.25 -4.415,4.32 -1.149,2.402 0.762,1.409 0.762,1.409 1.154,1.205 1.307,0.721 1.103,0.329 0.899,-0.064 0.416,-0.216 0.023,-0.012 c -0.001,0 -0.002,0.001 -0.004,0.002 L 0,0 Z"
         style="fill:#ffffff;fill-opacity:1;fill-rule:nonzero;stroke:none"
         id="path144"
         inkscape:connector-curvature="0" />
    </g>
    <g
       id="g146"
       transform="matrix(0.14646892,0,0,-0.14646892,14.446545,1038.1674)">
      <path
         d="m 0,0 c 0,0 -2.652,1.154 -6.731,2.673 -2.041,0.747 -4.431,1.604 -7.02,2.432 -2.584,0.846 -5.369,1.661 -8.175,2.394 -1.397,0.396 -2.819,0.681 -4.206,1.022 -1.392,0.317 -2.776,0.559 -4.109,0.831 -1.343,0.209 -2.642,0.41 -3.874,0.601 -1.241,0.124 -2.413,0.242 -3.496,0.35 -1.085,0.074 -2.083,0.08 -2.967,0.118 -0.885,0.058 -1.654,-0.012 -2.288,-0.038 -1.27,-0.061 -1.995,-0.096 -1.995,-0.096 0,0 0.725,0.048 1.993,0.131 0.634,0.036 1.405,0.12 2.29,0.077 0.885,-0.022 1.887,-0.012 2.975,-0.067 1.087,-0.09 2.265,-0.188 3.51,-0.291 1.238,-0.17 2.544,-0.349 3.895,-0.535 1.34,-0.249 2.733,-0.469 4.134,-0.762 1.396,-0.318 2.829,-0.58 4.235,-0.952 2.827,-0.687 5.635,-1.457 8.241,-2.261 2.613,-0.786 5.025,-1.604 7.087,-2.319 C -2.386,1.857 0.312,0.738 0.312,0.738 0.516,0.654 0.614,0.42 0.53,0.215 0.446,0.011 0.213,-0.087 0.008,-0.003 0.006,-0.003 0.001,-0.001 0,0"
         style="fill:#ffffff;fill-opacity:1;fill-rule:nonzero;stroke:none"
         id="path148"
         inkscape:connector-curvature="0" />
    </g>
    <g
       id="g150"
       transform="matrix(0.14646892,0,0,-0.14646892,20.707026,1043.0022)">
      <path
         d="M 0,0 C 0,0 -3.619,0.411 -9.123,0.266 -11.868,0.201 -15.071,0 -18.48,-0.423 c -1.709,-0.183 -3.453,-0.523 -5.238,-0.789 -1.758,-0.4 -3.572,-0.703 -5.338,-1.194 -1.761,-0.505 -3.555,-0.912 -5.243,-1.558 -1.709,-0.583 -3.393,-1.156 -4.952,-1.89 -0.789,-0.342 -1.565,-0.679 -2.325,-1.008 -0.756,-0.339 -1.45,-0.761 -2.151,-1.122 -1.382,-0.76 -2.737,-1.403 -3.852,-2.217 -1.149,-0.763 -2.202,-1.462 -3.135,-2.081 -0.867,-0.71 -1.623,-1.328 -2.246,-1.838 -1.243,-1.023 -1.954,-1.607 -1.954,-1.607 0,0 0.698,0.599 1.921,1.647 0.613,0.523 1.358,1.158 2.212,1.886 0.923,0.64 1.964,1.363 3.1,2.15 1.104,0.841 2.448,1.513 3.821,2.305 0.697,0.377 1.387,0.816 2.14,1.172 0.757,0.346 1.53,0.701 2.316,1.061 1.554,0.77 3.235,1.381 4.944,2.003 1.689,0.685 3.484,1.132 5.25,1.678 1.77,0.53 3.589,0.873 5.355,1.312 1.792,0.305 3.546,0.684 5.266,0.904 3.431,0.497 6.66,0.765 9.432,0.888 5.54,0.261 9.268,-0.083 9.268,-0.083 L 0.123,1.195 C 0.453,1.164 0.696,0.872 0.666,0.542 0.635,0.211 0.343,-0.032 0.013,-0.001 0.009,-0.001 0.003,0 0,0"
         style="fill:#ffffff;fill-opacity:1;fill-rule:nonzero;stroke:none"
         id="path152"
         inkscape:connector-curvature="0" />
    </g>
    <g
       id="g154"
       transform="matrix(0.14646892,0,0,-0.14646892,17.922405,1041.0729)">
      <path
         d="m 0,0 c 0,0 -0.993,3.232 -2.201,8.129 -0.589,2.455 -1.261,5.322 -1.865,8.418 -0.634,3.09 -1.182,6.411 -1.652,9.741 -0.472,3.331 -0.779,6.682 -0.991,9.828 -0.052,1.575 -0.103,3.098 -0.151,4.542 0.029,1.445 0.056,2.81 0.081,4.071 0.102,1.256 0.195,2.408 0.278,3.428 0.053,1.024 0.25,1.899 0.36,2.625 0.242,1.448 0.38,2.276 0.38,2.276 0,0 -0.12,-0.83 -0.329,-2.284 -0.094,-0.728 -0.27,-1.603 -0.301,-2.627 -0.06,-1.02 -0.127,-2.17 -0.2,-3.425 0.003,-1.257 0.006,-2.618 0.009,-4.059 0.08,-1.437 0.165,-2.953 0.252,-4.521 0.282,-3.13 0.662,-6.459 1.206,-9.765 0.542,-3.306 1.161,-6.599 1.862,-9.661 C -2.593,13.649 -1.86,10.81 -1.22,8.382 0.093,3.529 1.145,0.363 1.145,0.363 1.249,0.049 1.079,-0.291 0.764,-0.396 0.449,-0.5 0.109,-0.33 0.005,-0.015 0.004,-0.012 0.001,-0.003 0,0"
         style="fill:#ffffff;fill-opacity:1;fill-rule:nonzero;stroke:none"
         id="path156"
         inkscape:connector-curvature="0" />
    </g>
    <g
       id="g158"
       transform="matrix(0.14646892,0,0,-0.14646892,25.387036,1030.748)">
      <path
         d="m 0,0 c 0,0 -0.943,8.978 -3.352,22.326 -2.402,13.339 -6.319,31.031 -11.836,48.262 -1.361,4.312 -2.852,8.58 -4.373,12.764 -0.799,2.077 -1.591,4.137 -2.375,6.173 -0.839,2.013 -1.629,4.019 -2.477,5.961 -1.686,3.89 -3.414,7.607 -5.157,11.081 -1.741,3.476 -3.524,6.689 -5.208,9.634 -0.882,1.449 -1.727,2.838 -2.531,4.158 -0.807,1.319 -1.657,2.516 -2.41,3.671 -1.484,2.326 -3.004,4.195 -4.146,5.812 -1.198,1.575 -2.215,2.755 -2.873,3.588 -0.669,0.823 -1.026,1.262 -1.026,1.262 0,0 0.362,-0.435 1.04,-1.251 0.667,-0.825 1.697,-1.994 2.914,-3.556 1.159,-1.606 2.702,-3.46 4.213,-5.772 0.767,-1.147 1.631,-2.337 2.453,-3.648 0.82,-1.314 1.682,-2.695 2.582,-4.136 1.719,-2.931 3.54,-6.131 5.323,-9.594 1.785,-3.461 3.557,-7.166 5.291,-11.046 0.871,-1.937 1.685,-3.938 2.548,-5.947 0.808,-2.032 1.625,-4.088 2.449,-6.161 1.57,-4.176 3.112,-8.439 4.524,-12.746 C -8.705,53.623 -4.581,35.928 -2.024,22.573 0.541,9.213 1.591,0.178 1.591,0.178 1.644,-0.261 1.33,-0.659 0.891,-0.711 0.452,-0.764 0.054,-0.45 0.001,-0.011 0.001,-0.01 0,-0.001 0,0"
         style="fill:#ffffff;fill-opacity:1;fill-rule:nonzero;stroke:none"
         id="path160"
         inkscape:connector-curvature="0" />
    </g>
    <g
       id="g162"
       transform="matrix(0.14646892,0,0,-0.14646892,25.168411,1028.9409)">
      <path
         d="m 0,0 c 0,0 0.358,1.458 1.122,3.95 0.365,1.252 0.872,2.751 1.429,4.478 0.612,1.708 1.237,3.658 2.053,5.737 0.395,1.043 0.808,2.13 1.235,3.255 0.458,1.112 0.932,2.262 1.419,3.444 0.936,2.38 2.114,4.808 3.236,7.36 1.217,2.509 2.457,5.111 3.819,7.701 1.418,2.562 2.743,5.227 4.321,7.75 0.763,1.276 1.526,2.552 2.286,3.822 0.762,1.269 1.62,2.472 2.417,3.699 0.809,1.218 1.613,2.427 2.406,3.621 0.856,1.151 1.701,2.287 2.533,3.405 0.832,1.118 1.65,2.216 2.45,3.291 0.862,1.027 1.706,2.032 2.526,3.01 1.638,1.96 3.167,3.828 4.755,5.395 1.541,1.608 2.954,3.082 4.207,4.388 1.342,1.213 2.512,2.271 3.476,3.142 1.927,1.741 3.028,2.737 3.028,2.737 0,0 -1.088,-1.009 -2.993,-2.775 C 44.773,76.528 43.617,75.456 42.291,74.227 41.057,72.906 39.664,71.416 38.145,69.791 36.58,68.207 35.076,66.322 33.467,64.346 32.661,63.36 31.832,62.347 30.985,61.312 30.2,60.229 29.398,59.122 28.582,57.997 27.767,56.872 26.939,55.728 26.1,54.57 25.323,53.369 24.538,52.154 23.746,50.929 22.967,49.696 22.127,48.487 21.383,47.212 20.642,45.936 19.898,44.655 19.153,43.374 17.613,40.841 16.327,38.167 14.947,35.599 13.622,33.002 12.42,30.394 11.24,27.882 10.155,25.326 9.013,22.895 8.111,20.514 7.641,19.332 7.184,18.182 6.742,17.069 6.332,15.945 5.936,14.859 5.555,13.816 4.77,11.739 4.174,9.792 3.586,8.088 3.055,6.365 2.57,4.87 2.224,3.624 1.497,1.14 1.165,-0.291 1.165,-0.291 1.09,-0.614 0.768,-0.815 0.445,-0.741 c -0.323,0.075 -0.525,0.398 -0.45,0.721 0,0.001 0.001,0.003 0.001,0.004 L 0,0 Z"
         style="fill:#ffffff;fill-opacity:1;fill-rule:nonzero;stroke:none"
         id="path164"
         inkscape:connector-curvature="0" />
    </g>
    <g
       id="g166"
       transform="matrix(0.14646892,0,0,-0.14646892,25.001858,1027.906)">
      <path
         d="m 0,0 c 0,0 -4.436,4.454 -11.703,10.509 -1.839,1.482 -3.785,3.147 -5.946,4.779 -1.071,0.828 -2.171,1.679 -3.295,2.549 -1.149,0.837 -2.323,1.692 -3.517,2.561 -2.363,1.775 -4.924,3.437 -7.486,5.186 -2.573,1.733 -5.292,3.328 -7.955,5.014 -2.756,1.526 -5.467,3.142 -8.224,4.562 -1.389,0.691 -2.766,1.377 -4.128,2.054 -1.357,0.686 -2.701,1.358 -4.074,1.906 -1.36,0.579 -2.697,1.149 -4.005,1.706 -0.654,0.279 -1.302,0.555 -1.941,0.828 -0.648,0.249 -1.303,0.459 -1.94,0.686 -2.57,0.854 -4.956,1.811 -7.238,2.428 -2.289,0.596 -4.388,1.143 -6.248,1.628 -1.861,0.481 -3.54,0.629 -4.895,0.89 -2.726,0.447 -4.283,0.702 -4.283,0.702 0,0 1.56,-0.237 4.291,-0.651 1.358,-0.245 3.042,-0.374 4.911,-0.833 1.868,-0.463 3.976,-0.986 6.276,-1.556 2.294,-0.591 4.694,-1.52 7.28,-2.346 0.643,-0.22 1.301,-0.423 1.954,-0.665 0.644,-0.266 1.296,-0.534 1.955,-0.806 1.319,-0.543 2.666,-1.099 4.035,-1.663 1.385,-0.533 2.74,-1.192 4.109,-1.863 1.373,-0.663 2.764,-1.334 4.165,-2.01 2.782,-1.392 5.519,-2.98 8.303,-4.478 2.69,-1.659 5.439,-3.228 8.041,-4.936 2.591,-1.724 5.182,-3.362 7.574,-5.115 1.209,-0.858 2.397,-1.702 3.56,-2.529 1.139,-0.859 2.253,-1.7 3.338,-2.519 2.189,-1.612 4.162,-3.26 6.027,-4.727 C -3.698,5.307 0.842,0.857 0.842,0.857 1.081,0.627 1.088,0.247 0.859,0.008 0.629,-0.232 0.249,-0.239 0.009,-0.009 0.008,-0.008 0.001,-0.001 0,0"
         style="fill:#ffffff;fill-opacity:1;fill-rule:nonzero;stroke:none"
         id="path168"
         inkscape:connector-curvature="0" />
    </g>
    <g
       id="g170"
       transform="matrix(0.14646892,0,0,-0.14646892,22.71474,1019.0865)">
      <path
         d="m 0,0 c 0,0 -0.166,10.355 1.272,20.589 0.332,2.558 0.796,5.1 1.33,7.458 0.23,1.187 0.582,2.305 0.863,3.377 0.259,1.078 0.669,2.049 0.965,2.969 0.283,0.927 0.701,1.715 1.006,2.438 0.159,0.359 0.309,0.694 0.447,1.005 0.172,0.293 0.33,0.562 0.473,0.805 0.572,0.971 0.9,1.525 0.9,1.525 0,0 -0.317,-0.56 -0.87,-1.541 C 6.248,38.38 6.096,38.108 5.93,37.812 5.798,37.5 5.656,37.162 5.503,36.801 5.213,36.073 4.812,35.281 4.548,34.351 4.271,33.427 3.881,32.455 3.644,31.374 3.384,30.3 3.056,29.182 2.849,27.993 2.363,25.633 1.95,23.094 1.669,20.538 1.354,17.988 1.166,15.422 1.013,13.018 0.877,10.612 0.799,8.364 0.77,6.437 0.708,2.58 0.8,0.019 0.8,0.019 0.808,-0.202 0.636,-0.388 0.415,-0.396 0.194,-0.404 0.008,-0.231 0,-0.01 0,-0.008 0,-0.002 0,0"
         style="fill:#ffffff;fill-opacity:1;fill-rule:nonzero;stroke:none"
         id="path172"
         inkscape:connector-curvature="0" />
    </g>
    <g
       id="g174"
       transform="matrix(0.14646892,0,0,-0.14646892,21.638169,1016.4752)">
      <path
         d="m 0,0 c 0,0 -1.85,1.258 -4.761,2.963 -2.909,1.697 -6.878,3.822 -11.002,5.616 -1.039,0.428 -2.078,0.857 -3.101,1.278 -1.041,0.371 -2.06,0.76 -3.059,1.094 -1.008,0.304 -1.975,0.631 -2.908,0.882 -0.938,0.231 -1.825,0.451 -2.644,0.653 -0.831,0.148 -1.592,0.285 -2.267,0.405 -0.672,0.146 -1.274,0.147 -1.762,0.211 -0.981,0.095 -1.542,0.149 -1.542,0.149 0,0 0.562,-0.042 1.545,-0.114 0.489,-0.054 1.094,-0.042 1.769,-0.172 0.68,-0.106 1.446,-0.226 2.281,-0.357 0.826,-0.184 1.721,-0.384 2.667,-0.596 0.942,-0.231 1.918,-0.537 2.938,-0.819 1.011,-0.313 2.041,-0.681 3.096,-1.03 1.037,-0.401 2.09,-0.808 3.143,-1.215 C -11.426,7.238 -7.39,5.192 -4.426,3.55 -1.467,1.904 0.441,0.669 0.441,0.669 0.627,0.549 0.682,0.302 0.562,0.115 0.443,-0.071 0.196,-0.125 0.009,-0.006 0.007,-0.005 0.002,-0.001 0,0"
         style="fill:#ffffff;fill-opacity:1;fill-rule:nonzero;stroke:none"
         id="path176"
         inkscape:connector-curvature="0" />
    </g>
  </g>
</svg>
