<?xml version="1.0" encoding="utf-8"?>
<!-- Generator: Adobe Illustrator 15.0.0, SVG Export Plug-In . SVG Version: 6.00 Build 0)  -->
<!DOCTYPE svg PUBLIC "-//W3C//DTD SVG 1.1//EN" "http://www.w3.org/Graphics/SVG/1.1/DTD/svg11.dtd">
<svg version="1.1"  xmlns="http://www.w3.org/2000/svg" xmlns:xlink="http://www.w3.org/1999/xlink" x="0px" y="0px"
	 width="48px" height="48px" viewBox="0 0 48 48" enable-background="new 0 0 48 48" xml:space="preserve">
<path fill="#FFC107" d="M30,17c0,1-0.314,2.658-0.963,2c0,0-0.037,3-2.037,2c-1.586-0.793-3-4,0-7c-1,0-3.368,2.103-4,4
	c-1,3,0.339,4.192,1,6c0.725,1.982,1,3,1,5c0,1.205-0.55,3-2,3c-3,0-1.3-3.437-1.25-4.297C21.833,26.246,21,25,20,24
	c1,1,0.368,2.451-0.333,3.039C19.033,27.572,18.638,27.535,18,27c-1.414-1.188,0-4,1-5c-1.797,1.345-3,2.695-3,5c0,3,2,6-1,7
	c-2.562,0.854-2.99-4.557-2-7c-2.208,2.943-2.605,4.438-2.167,7.417c0.385,2.614-0.782,4.76-3.115,4.864
	c0,0,11.438,1.604,15.531-1.198s7.5-14.5,7.5-14.5L30,17z"/>
<path fill="#FF3D00" d="M29.037,19c0.123,4.117,0.296,7.536-4.037,13.5C17,41.5,6,38,6,40s7.882,2.362,11.955,1.823
	C22.004,41.291,33.125,39.75,39,29c2.07-3.79,2.793-7.504,3-10l-7-4L29.037,19z"/>
<g>
	<path fill="none" stroke="#7CB342" stroke-width="2" d="M30,6c0,0,6,0,6,7"/>
	<path fill="#7CB342" d="M42,19.5c0,0-2-3-4,0c-2-2-3-2-5,0c-2-3-4,0-4,0c0-3.59,2.063-7.5,6.875-7.5C40.625,12,42,15.91,42,19.5z"
		/>
</g>
</svg>
