<?xml version="1.0" encoding="iso-8859-1"?>
<!-- Generator: Adobe Illustrator 19.1.1, SVG Export Plug-In . SVG Version: 6.00 Build 0)  -->
<svg version="1.1"  xmlns="http://www.w3.org/2000/svg" xmlns:xlink="http://www.w3.org/1999/xlink" x="0px" y="0px"
	 viewBox="0 0 48 48" style="enable-background:new 0 0 48 48;" xml:space="preserve">
<path style="fill:#689F38;" d="M43.005,8.556c-0.318-0.619-0.605-1.149-0.908-1.641L43,3H7L6.672,3.656
	C6.501,3.766,6.354,3.875,6.258,3.97C5.337,4.87,4.911,5.563,4.33,6.689C3.943,7.44,3.708,8.302,3.495,9.112C3.367,9.601,3,11,3,11
	s0.75-0.782,1.539-1.089C4.852,9.789,5.184,9.457,5.404,9.22c0.409-0.442,0.869-1.102,1.275-1.842l0.29,1.013
	c-0.8,0.943-1.322,1.846-1.973,3.115c-0.581,1.131-0.934,2.43-1.253,3.65C3.55,15.893,3,18,3,18s1.126-1.178,2.309-1.641
	c0.469-0.184,0.968-0.683,1.298-1.041c0.57-0.618,1.206-1.522,1.782-2.541L11,18c0,0,2.75-5.75,3-6
	c0.116-0.116,1.203,0.307,2.333,0.794c0.573,1.012,1.206,1.91,1.772,2.524c0.33,0.358,0.829,0.857,1.298,1.041
	C20.586,16.822,21.712,18,21.712,18s-0.55-2.107-0.743-2.844c-0.118-0.452-0.246-0.915-0.384-1.376
	c0.233-0.142,0.476-0.274,0.723-0.371c0.469-0.184,0.968-0.683,1.298-1.041c0.38-0.412,0.789-0.958,1.19-1.571L25,12l1.819-1.819
	c0.519,0.871,1.072,1.642,1.574,2.187c0.237,0.257,0.562,0.584,0.9,0.818c-0.092,0.326-0.178,0.651-0.262,0.971
	C28.839,14.893,28.288,17,28.288,17s1.126-1.178,2.309-1.641c0.336-0.131,0.685-0.425,0.978-0.712
	C31.839,14.881,32,15.049,32,15.049s-0.072-0.277-0.173-0.661c0.021-0.023,0.047-0.048,0.067-0.07
	c0.081-0.088,0.166-0.195,0.249-0.293c0.083,0.099,0.168,0.206,0.249,0.293c0.33,0.358,0.829,0.857,1.298,1.041
	C34.874,15.822,36,17,36,17s-0.492-1.883-0.707-2.707L37,16h3l0.957-4.146c0.148,0.186,0.295,0.36,0.437,0.514
	c0.33,0.358,0.829,0.857,1.298,1.041C43.874,13.871,45,15.049,45,15.049s-0.55-2.107-0.743-2.844
	C43.939,10.987,43.585,9.687,43.005,8.556z"/>
<g>
	<path style="fill:#6D4C41;" d="M4.222,3c5.841,17.549,4.792,41.663,4.781,41.906l3.995,0.188C13.045,44.095,14.051,21.088,8.427,3
		H4.222z"/>
	<path style="fill:#6D4C41;" d="M15.321,3c-4.227,9.476-5.744,23.203-5.813,23.84l2.982,0.32C12.508,27.003,14.173,11.976,18.64,3
		H15.321z"/>
	<path style="fill:#6D4C41;" d="M23.25,3h-3.266c3.448,7.811,3.025,15.828,3.017,16v7h3l-0.003-6.906
		C26.022,18.723,26.45,11.048,23.25,3z"/>
	<path style="fill:#6D4C41;" d="M30.739,3h-4.359c-4.846,12.505-4.325,40.78-4.298,42.041l3.999-0.082
		C26.075,44.643,25.495,13.429,30.739,3z"/>
	<path style="fill:#6D4C41;" d="M34.186,3h-3.534c6.34,8.99,6.844,28.815,6.848,29v3h3l0-3.031
		C40.481,31.103,40.029,13.257,34.186,3z"/>
	<path style="fill:#6D4C41;" d="M44.104,3h-4.149c-3.146,12.283-2.967,40.754-2.957,42.016l4-0.031
		C40.996,44.672,40.799,13.915,44.104,3z"/>
</g>
<path style="fill:#FFB300;" d="M12.043,21.024c0.51-0.11,1.109,0.216,1.516,0.667c0.276,0.306,0.566,0.509,0.912,0.721
	c0.37,0.226,0.732,0.478,1.038,0.795c1.106,1.146,1.293,2.891,1.412,4.477c0.019,0.257,0.039,0.514,0.058,0.77
	c0.025,0.33,0.048,0.671-0.053,0.978c-0.101,0.307-0.36,0.574-0.676,0.567c-0.354-0.008-0.63-0.33-0.906-0.578
	c-0.607-0.544-1.377-0.785-2.029-1.248c-0.65-0.462-1.043-1.165-1.335-1.907C11.363,24.7,10.091,22.012,12.043,21.024
	C12.17,20.96,11.935,21.047,12.043,21.024z"/>
<path style="fill:#FFC107;" d="M34.957,10.024c-0.51-0.11-1.109,0.216-1.516,0.667c-0.276,0.306-0.566,0.509-0.912,0.721
	c-0.37,0.226-0.732,0.478-1.038,0.795c-1.106,1.146-1.293,2.891-1.412,4.477c-0.019,0.257-0.039,0.514-0.058,0.77
	c-0.025,0.33-0.048,0.671,0.053,0.978c0.101,0.307,0.36,0.574,0.676,0.567c0.354-0.008,0.63-0.33,0.906-0.578
	c0.607-0.544,1.377-0.785,2.029-1.248c0.65-0.462,1.043-1.165,1.335-1.907C35.637,13.7,36.909,11.012,34.957,10.024
	C34.83,9.96,35.065,10.047,34.957,10.024z"/>
<path style="fill:#FFC107;" d="M40.696,25.016c0.34-0.073,0.74,0.144,1.011,0.445c0.184,0.204,0.377,0.339,0.608,0.48
	c0.247,0.151,0.488,0.319,0.692,0.53c0.737,0.764,0.862,1.927,0.941,2.985c0.013,0.171,0.026,0.342,0.039,0.514
	c0.017,0.22,0.032,0.448-0.035,0.652c-0.067,0.205-0.24,0.383-0.45,0.378c-0.236-0.005-0.42-0.22-0.604-0.385
	c-0.405-0.363-0.918-0.523-1.353-0.832c-0.434-0.308-0.695-0.777-0.89-1.272C40.242,27.466,39.394,25.675,40.696,25.016
	C40.78,24.973,40.623,25.032,40.696,25.016z"/>
<path style="fill:#FFC107;" d="M8.639,17c-1.238,0.125-2.409,1.004-3.059,2.295c-0.65,1.291-0.762,2.962-0.293,4.364
	c0.154,0.459,0.324,0.908,0.523,1.344c0.253,0.555,0.605,1.03,0.81,0.995c0.316-0.053,0.473-0.48,0.686-0.77
	c0.278-0.378,0.68-0.489,1.007-0.792c0.367-0.34,0.849-0.947,1.02-1.434C9.835,21.577,10,21.159,10,19.626
	c0-1.013-0.418-2.521-0.659-2.57L8.639,17z"/>
<path style="fill:#FFC107;" d="M23.639,14c-1.238,0.125-2.409,1.004-3.059,2.295c-0.65,1.291-0.762,2.962-0.293,4.364
	c0.154,0.459,0.324,0.908,0.523,1.344c0.253,0.555,0.605,1.03,0.81,0.995c0.316-0.053,0.473-0.48,0.686-0.77
	c0.278-0.378,0.68-0.489,1.007-0.792c0.367-0.34,0.849-0.947,1.02-1.434C24.835,18.577,25,18.159,25,16.626
	c0-1.013-0.418-2.521-0.659-2.57L23.639,14z"/>
<path style="fill:#FFD740;" d="M14.571,10c0,0,0.339,0.002,0.571,0c1.087-0.008,2.175,0.881,2.61,2.127
	c0.528,1.512,0.173,3.353-0.702,4.602c-0.121,0.172-0.312,0.348-0.473,0.235c-0.058-0.041-0.096-0.111-0.136-0.176
	c-0.322-0.513-0.869-0.718-1.299-1.094c-0.64-0.558-1.007-1.498-1.108-2.449c-0.054-0.505-0.039-1.016,0.018-1.519
	c0.039-0.347,0.05-0.705,0.141-1.042C14.237,10.518,14.408,10.064,14.571,10z"/>
<path style="fill:#FFC107;" d="M25.571,25c0,0,0.339,0.002,0.571,0c1.087-0.008,2.175,0.881,2.61,2.127
	c0.528,1.512,0.173,3.353-0.702,4.602c-0.121,0.172-0.312,0.348-0.473,0.235c-0.058-0.041-0.096-0.111-0.136-0.176
	c-0.322-0.513-0.869-0.718-1.299-1.094c-0.64-0.558-1.007-1.498-1.108-2.449c-0.054-0.505-0.039-1.016,0.018-1.519
	c0.039-0.347,0.05-0.705,0.141-1.042C25.237,25.518,25.408,25.064,25.571,25z"/>
<path style="fill:#FFD740;" d="M38.286,18c0,0-0.424,0.002-0.714,0c-1.359-0.011-2.719,1.133-3.262,2.735
	c-0.66,1.944-0.217,4.311,0.878,5.917c0.151,0.221,0.39,0.448,0.591,0.302c0.072-0.052,0.12-0.143,0.17-0.226
	c0.403-0.659,1.086-0.923,1.624-1.406c0.8-0.718,1.259-1.926,1.385-3.149c0.067-0.649,0.049-1.306-0.022-1.954
	c-0.049-0.447-0.063-0.906-0.177-1.34C38.703,18.667,38.489,18.083,38.286,18z"/>
</svg>
