<?xml version="1.0" encoding="UTF-8" standalone="no"?>
<!-- Created with Inkscape (http://www.inkscape.org/) -->

<svg
   xmlns:dc="http://purl.org/dc/elements/1.1/"
   xmlns:cc="http://creativecommons.org/ns#"
   xmlns:rdf="http://www.w3.org/1999/02/22-rdf-syntax-ns#"
   xmlns:svg="http://www.w3.org/2000/svg"
   xmlns="http://www.w3.org/2000/svg"
   xmlns:sodipodi="http://sodipodi.sourceforge.net/DTD/sodipodi-0.dtd"
   xmlns:inkscape="http://www.inkscape.org/namespaces/inkscape"
   width="48mm"
   height="48mm"
   viewBox="0 0 48 48"
   version="1.1"
   id="svg508"
   inkscape:version="0.92.0 r"
   sodipodi:docname="cilantro.svg">
  <defs
     id="defs502" />
  <sodipodi:namedview
     id="base"
     pagecolor="#ffffff"
     bordercolor="#666666"
     borderopacity="1.0"
     inkscape:pageopacity="0.0"
     inkscape:pageshadow="2"
     inkscape:zoom="0.35"
     inkscape:cx="400"
     inkscape:cy="521.46163"
     inkscape:document-units="mm"
     inkscape:current-layer="layer1"
     showgrid="false"
     inkscape:window-width="1080"
     inkscape:window-height="675"
     inkscape:window-x="0"
     inkscape:window-y="23"
     inkscape:window-maximized="0" />
  <metadata
     id="metadata505">
    <rdf:RDF>
      <cc:Work
         rdf:about="">
        <dc:format>image/svg+xml</dc:format>
        <dc:type
           rdf:resource="http://purl.org/dc/dcmitype/StillImage" />
        <dc:title></dc:title>
      </cc:Work>
    </rdf:RDF>
  </metadata>
  <g
     inkscape:label="Calque 1"
     inkscape:groupmode="layer"
     id="layer1"
     transform="translate(0,-249)">
    <g
       transform="matrix(0.21203529,0,0,-0.21203529,23.430418,275.43913)"
       id="g24">
      <path
         inkscape:connector-curvature="0"
         id="path26"
         style="fill:#8cc63f;fill-opacity:1;fill-rule:nonzero;stroke:none"
         d="m 0,0 0.179,-0.091 c -0.07,0.016 -0.14,0.032 -0.21,0.048 C -0.02,-0.028 -0.01,-0.015 0,0 m -3.764,51.649 c 1.127,-13.246 -1.346,-26.804 -7.143,-38.768 -2.71,13.189 -0.243,27.486 7.143,38.768 m 94.945,-63.184 c -0.609,5.015 -6.806,8.44 -11.376,6.287 2.815,0.996 4.227,4.764 2.761,7.365 -1.467,2.602 -5.421,3.344 -7.731,1.452 3.571,2.886 3.801,9.008 0.456,12.153 -3.345,3.145 -9.441,2.538 -12.101,-1.204 0.558,3.893 -3.146,7.464 -7.062,7.838 C 52.213,22.729 48.43,20.646 45.576,17.94 42.721,15.234 40.549,11.899 37.949,8.948 29.886,-0.201 17.124,-2.667 4.832,-0.946 15.881,15.203 39.992,26.24 59.221,23.51 c 3.679,-0.522 7.35,-1.441 11.058,-1.194 3.707,0.246 7.601,1.946 9.23,5.286 1.629,3.339 -0.193,8.242 -3.877,8.729 6.542,-0.22 12.747,5.334 13.251,11.86 0.504,6.526 -4.776,12.967 -11.274,13.753 5.994,3.744 7.647,12.931 3.334,18.53 -4.313,5.599 -13.617,6.346 -18.768,1.505 4.502,7.339 2.108,18.063 -5.086,22.791 -7.195,4.729 -17.988,2.672 -22.94,-4.371 -2.715,4.486 -8.132,7.18 -13.348,6.638 -5.216,-0.542 -9.963,-4.293 -11.697,-9.242 -3.948,4.108 -11.334,3.082 -15.238,-1.067 -2.883,-3.064 -4.145,-7.254 -4.325,-11.512 -3.289,1.262 -7.353,0.511 -9.82,-2.045 -1.373,3.34 -2.798,6.764 -5.283,9.386 -2.484,2.622 -6.301,4.302 -9.759,3.258 -3.458,-1.043 -5.765,-5.493 -3.832,-8.544 -2.175,3.54 -6.816,5.355 -10.816,4.229 -3.999,-1.125 -7.013,-5.093 -7.024,-9.248 -3.346,1.861 -7.824,1.422 -10.747,-1.051 -2.922,-2.474 -4.093,-6.818 -2.811,-10.426 -3.358,1.783 -7.976,0.635 -10.108,-2.513 -2.132,-3.148 -1.485,-7.862 1.417,-10.319 -4.088,-0.402 -7.585,-4.117 -7.74,-8.221 -0.155,-4.104 3.052,-8.073 7.097,-8.782 -2.989,-1.531 -4.864,-4.997 -4.509,-8.336 0.355,-3.34 2.916,-6.335 6.16,-7.203 -3.134,0.004 -5.308,-3.753 -4.498,-6.78 0.811,-3.027 3.726,-5.099 6.752,-5.915 3.025,-0.816 6.215,-0.626 9.349,-0.644 17.106,-0.096 35.732,-9.162 48.295,-20.744 -15.758,-28.884 -21.048,-40.349 -28.404,-88.099 l 8.087,2.514 c 6.218,48.432 12.08,54.553 25.391,80.361 5.625,-1.281 14.865,-5.707 19.075,-9.656 6.819,-6.396 8.331,-23.666 7.913,-33.006 -0.126,-2.829 3.41,-5.018 6.174,-4.401 2.763,0.616 4.636,3.827 3.811,6.536 1.187,-2.32 2.404,-4.682 4.253,-6.518 1.849,-1.836 4.471,-3.091 7.041,-2.659 2.57,0.433 4.814,2.949 4.356,5.514 2.977,-3.639 7.72,-5.762 12.418,-5.558 2.487,0.108 5.123,0.964 6.549,3.004 1.427,2.04 0.991,5.402 -1.29,6.401 3.285,-0.501 6.645,-1.001 9.909,-0.38 3.263,0.62 6.469,2.587 7.655,5.69 1.187,3.103 -0.393,7.244 -3.62,8.033 3.774,0.027 7.484,1.982 9.638,5.08 2.155,3.098 2.698,7.256 1.41,10.803 4.649,3.33 9.84,7.811 9.151,13.488" />
    </g>
    <g
       transform="matrix(0.21203529,0,0,-0.21203529,13.025674,265.47092)"
       id="g28">
      <path
         inkscape:connector-curvature="0"
         id="path30"
         style="fill:#5b8c3e;fill-opacity:1;fill-rule:nonzero;stroke:none"
         d="m 0,0 c 1.602,-6.116 3.882,-12.03 6.843,-17.619 5.546,-10.465 14.167,-22.149 24.681,-28.045 0.312,-0.175 0.67,0.253 0.391,0.508 -4.493,4.106 -9.29,7.625 -13.376,12.2 -4.411,4.938 -8.209,10.414 -11.302,16.268 -3.061,5.794 -5.292,11.89 -6.948,18.219 -1.787,6.832 -5.202,12.622 -7.561,19.207 -0.015,0.043 -0.081,0.026 -0.069,-0.019 0.832,-2.974 2.023,-5.759 3.292,-8.564 C -2.248,8.176 -1.101,4.203 0,0" />
    </g>
    <g
       transform="matrix(0.21203529,0,0,-0.21203529,16.037739,268.59126)"
       id="g32">
      <path
         inkscape:connector-curvature="0"
         id="path34"
         style="fill:#5b8c3e;fill-opacity:1;fill-rule:nonzero;stroke:none"
         d="m 0,0 c 0.04,-0.31 0.51,-0.334 0.503,0 -0.172,7.349 3.535,14.128 4.992,21.245 1.37,6.689 2.553,13.272 4.654,19.788 0.012,0.038 -0.047,0.064 -0.066,0.028 C 6.817,34.807 6.23,27.573 4.777,20.76 3.341,14.023 -0.913,6.992 0,0" />
    </g>
    <g
       transform="matrix(0.21203529,0,0,-0.21203529,12.822202,267.53373)"
       id="g36">
      <path
         inkscape:connector-curvature="0"
         id="path38"
         style="fill:#5b8c3e;fill-opacity:1;fill-rule:nonzero;stroke:none"
         d="m 0,0 c 0.236,-0.054 0.379,0.265 0.166,0.394 -6.109,3.706 -14.659,6.083 -21.794,6.12 -0.039,0 -0.051,-0.063 -0.01,-0.071 C -17.939,5.793 -14.261,5 -10.686,3.839 -7.105,2.676 -3.661,0.847 0,0" />
    </g>
    <g
       transform="matrix(0.21203529,0,0,-0.21203529,22.133308,259.32351)"
       id="g40">
      <path
         inkscape:connector-curvature="0"
         id="path42"
         style="fill:#5b8c3e;fill-opacity:1;fill-rule:nonzero;stroke:none"
         d="m 0,0 c 1.077,-4.524 1.613,-9.256 1.765,-13.899 0.141,-4.293 -0.208,-8.572 -0.851,-12.812 0.458,0.798 0.935,1.585 1.439,2.356 0.075,-0.873 0.131,-1.748 0.174,-2.623 0.812,7.489 0.479,15.206 -0.638,22.22 C 1.251,-0.759 -0.682,6.267 -4.385,9.227 -5.519,9.655 -6.742,9.841 -7.96,9.801 -3.786,9.055 -0.973,4.087 0,0" />
    </g>
    <g
       transform="matrix(0.21203529,0,0,-0.21203529,14.467112,266.06609)"
       id="g44">
      <path
         inkscape:connector-curvature="0"
         id="path46"
         style="fill:#5b8c3e;fill-opacity:1;fill-rule:nonzero;stroke:none"
         d="M 0,0 C 1.738,11.301 3.022,22.899 3.481,34.323 3.482,34.362 3.417,34.373 3.41,34.332 1.6,23.033 0.409,11.469 -0.423,0.057 -0.441,-0.182 -0.037,-0.241 0,0" />
    </g>
    <g
       transform="matrix(0.21203529,0,0,-0.21203529,33.721358,281.43928)"
       id="g48">
      <path
         inkscape:connector-curvature="0"
         id="path50"
         style="fill:#5b8c3e;fill-opacity:1;fill-rule:nonzero;stroke:none"
         d="m 0,0 c -5.939,1.283 -11.508,3.003 -16.988,5.668 -10.199,4.961 -19.764,10.305 -30.811,13.243 -0.225,0.06 -0.313,-0.272 -0.096,-0.346 11.326,-3.856 21.482,-9.519 32.283,-14.498 4.533,-2.09 9.198,-3.536 14.067,-4.612 5.489,-1.213 10.734,-2.926 16.139,-4.341 0.241,-0.063 0.369,0.261 0.166,0.394 C 10.543,-1.736 4.848,-1.047 0,0" />
    </g>
    <g
       transform="matrix(0.21203529,0,0,-0.21203529,34.741248,285.75901)"
       id="g52">
      <path
         inkscape:connector-curvature="0"
         id="path54"
         style="fill:#5b8c3e;fill-opacity:1;fill-rule:nonzero;stroke:none"
         d="M 0,0 C -2.065,5.401 -2.92,14.609 -9.056,17.197 -9.287,17.294 -9.421,16.927 -9.222,16.803 -3.597,13.316 -3.158,5.284 -0.525,-0.221 -0.386,-0.511 0.117,-0.305 0,0" />
    </g>
    <g
       transform="matrix(0.21203529,0,0,-0.21203529,29.762618,280.78407)"
       id="g56">
      <path
         inkscape:connector-curvature="0"
         id="path58"
         style="fill:#5b8c3e;fill-opacity:1;fill-rule:nonzero;stroke:none"
         d="m 0,0 c -0.123,0.199 -0.48,0.072 -0.394,-0.166 1.572,-4.358 3.651,-8.49 5.056,-12.925 1.39,-4.387 2.535,-8.939 3.393,-13.46 0.008,-0.041 0.08,-0.032 0.075,0.011 C 6.981,-17.615 4.787,-7.758 0,0" />
    </g>
    <g
       transform="matrix(0.21203529,0,0,-0.21203529,27.589654,281.00003)"
       id="g60">
      <path
         inkscape:connector-curvature="0"
         id="path62"
         style="fill:#5b8c3e;fill-opacity:1;fill-rule:nonzero;stroke:none"
         d="m 0,0 c 1.986,-6.355 3.783,-12.761 5.852,-19.089 0.029,-0.088 0.156,-0.052 0.139,0.038 C 4.712,-12.466 2.668,-6.185 0.277,0.076 0.212,0.246 -0.056,0.18 0,0" />
    </g>
    <g
       transform="matrix(0.21203529,0,0,-0.21203529,31.375059,279.5658)"
       id="g64">
      <path
         inkscape:connector-curvature="0"
         id="path66"
         style="fill:#5b8c3e;fill-opacity:1;fill-rule:nonzero;stroke:none"
         d="m 0,0 c 5.011,1.881 10.321,4.353 14.883,7.154 4.621,2.837 8.41,7.24 12.208,11.043 0.033,0.033 -0.017,0.081 -0.051,0.051 C 22.871,14.64 18.852,10.046 14.035,7.327 9.445,4.735 4.412,2.979 -0.111,0.263 -0.245,0.182 -0.157,-0.059 0,0" />
    </g>
    <g
       transform="matrix(0.21203529,0,0,-0.21203529,37.923534,267.56812)"
       id="g68">
      <path
         inkscape:connector-curvature="0"
         id="path70"
         style="fill:#5b8c3e;fill-opacity:1;fill-rule:nonzero;stroke:none"
         d="m 0,0 c -7.947,1.498 -15.954,2.085 -24.029,1.491 -7.388,-0.544 -15.485,-1.551 -22.342,-4.456 -0.315,-0.134 -0.077,-0.585 0.222,-0.525 7.677,1.538 14.935,3.609 22.826,4.113 7.743,0.495 15.542,0.142 23.208,-1.039 C 0.154,-0.457 0.276,-0.052 0,0" />
    </g>
    <g
       transform="matrix(0.21203529,0,0,-0.21203529,27.568726,266.71769)"
       id="g72">
      <path
         inkscape:connector-curvature="0"
         id="path74"
         style="fill:#5b8c3e;fill-opacity:1;fill-rule:nonzero;stroke:none"
         d="m 0,0 c 7.406,5.355 15.001,9.672 23.634,12.766 8.238,2.952 16.782,4.823 25.184,7.217 0.225,0.065 0.129,0.388 -0.095,0.347 C 32.073,17.24 12.375,12.362 -0.261,0.338 -0.434,0.174 -0.202,-0.146 0,0" />
    </g>
    <g
       transform="matrix(0.21203529,0,0,-0.21203529,10.241141,270.60608)"
       id="g76">
      <path
         inkscape:connector-curvature="0"
         id="path78"
         style="fill:#5b8c3e;fill-opacity:1;fill-rule:nonzero;stroke:none"
         d="m 0,0 c 7.174,-0.101 14.029,-1.188 20.603,-4.146 0.587,-0.264 1.098,0.609 0.508,0.868 C 14.415,-0.332 7.303,1.165 0,0.287 -0.179,0.266 -0.19,0.003 0,0" />
    </g>
    <g
       transform="matrix(0.21203529,0,0,-0.21203529,39.277526,277.34206)"
       id="g80">
      <path
         inkscape:connector-curvature="0"
         id="path82"
         style="fill:#5b8c3e;fill-opacity:1;fill-rule:nonzero;stroke:none"
         d="m 0,0 c 0.117,0.165 -0.15,0.372 -0.282,0.218 -7.136,-8.34 -19.643,-8.043 -27.004,-15.798 -0.189,-0.199 0.058,-0.557 0.305,-0.394 C -18.351,-10.27 -6.266,-8.8 0,0" />
    </g>
    <g
       transform="matrix(0.21203529,0,0,-0.21203529,29.811826,278.43093)"
       id="g84">
      <path
         inkscape:connector-curvature="0"
         id="path86"
         style="fill:#5b8c3e;fill-opacity:1;fill-rule:nonzero;stroke:none"
         d="m 0,0 c 8.663,3.728 16.664,11.742 22.534,18.917 0.144,0.175 -0.091,0.424 -0.254,0.254 C 18.893,15.628 15.335,12.193 11.573,9.048 7.799,5.895 3.514,3.453 -0.261,0.338 -0.467,0.169 -0.204,-0.088 0,0" />
    </g>
    <g
       transform="matrix(0.21203529,0,0,-0.21203529,31.95642,262.06089)"
       id="g88">
      <path
         inkscape:connector-curvature="0"
         id="path90"
         style="fill:#5b8c3e;fill-opacity:1;fill-rule:nonzero;stroke:none"
         d="m 0,0 c -0.109,-0.168 0.153,-0.378 0.282,-0.218 4.974,6.173 10.609,11.381 17.381,15.548 0.08,0.049 0.01,0.165 -0.072,0.124 C 10.503,11.918 4.333,6.659 0,0" />
    </g>
    <g
       transform="matrix(0.21203529,0,0,-0.21203529,22.533208,274.18004)"
       id="g92">
      <path
         inkscape:connector-curvature="0"
         id="path94"
         style="fill:#5b8c3e;fill-opacity:1;fill-rule:nonzero;stroke:none"
         d="m 0,0 c 3.994,7.578 9.658,13.992 14.32,21.149 4.945,7.594 9.09,15.672 13.547,23.554 8.462,14.964 19.473,28.615 25.771,44.728 0.034,0.087 -0.103,0.122 -0.138,0.038 C 46.561,72.943 34.761,58.914 25.812,43.481 21.387,35.85 17.115,28.118 12.305,20.717 7.978,14.062 1.888,7.922 -0.525,0.221 -0.622,-0.087 -0.153,-0.29 0,0" />
    </g>
    <g
       transform="matrix(0.21203529,0,0,-0.21203529,26.586414,264.80057)"
       id="g96">
      <path
         inkscape:connector-curvature="0"
         id="path98"
         style="fill:#5b8c3e;fill-opacity:1;fill-rule:nonzero;stroke:none"
         d="m 0,0 c 0.315,7.372 0.29,14.82 -0.01,22.195 -0.248,6.106 -1.081,11.92 -3.514,17.567 -0.032,0.075 -0.159,0.022 -0.131,-0.055 C 0.846,27.033 -0.94,13.176 -0.215,0 -0.208,-0.138 -0.006,-0.139 0,0" />
    </g>
    <g
       transform="matrix(0.21203529,0,0,-0.21203529,29.04598,260.91378)"
       id="g100">
      <path
         inkscape:connector-curvature="0"
         id="path102"
         style="fill:#5b8c3e;fill-opacity:1;fill-rule:nonzero;stroke:none"
         d="m 0,0 c 3.305,7.541 5.119,15.833 5.351,24.057 0.002,0.079 -0.13,0.1 -0.141,0.019 C 4.093,15.85 2.264,8.013 -0.263,0.111 -0.311,-0.041 -0.066,-0.151 0,0" />
    </g>
  </g>
</svg>
