<?xml version="1.0" encoding="utf-8"?>
<!-- Generator: Adobe Illustrator 15.0.0, SVG Export Plug-In . SVG Version: 6.00 Build 0)  -->
<!DOCTYPE svg PUBLIC "-//W3C//DTD SVG 1.1//EN" "http://www.w3.org/Graphics/SVG/1.1/DTD/svg11.dtd">
<svg version="1.1"  xmlns="http://www.w3.org/2000/svg" xmlns:xlink="http://www.w3.org/1999/xlink" x="0px" y="0px"
	 width="48px" height="48px" viewBox="0 0 48 48" enable-background="new 0 0 48 48" xml:space="preserve">
<path fill="#2E7D32" d="M40.371,41.909c-0.782-0.209-1.274-0.434-1.858-0.691c-0.558-0.255-1.091-0.533-1.607-0.83
	c-1.033-0.594-2.001-1.26-2.912-1.98c-1.823-1.439-3.171-3.104-4.58-4.867c-2.816-3.539-4.872-7.517-6.42-11.614
	c2.148,3.817,4.756,7.364,7.886,10.254c1.564,1.44,3.004,2.728,4.799,3.745c0.896,0.509,1.819,0.952,2.754,1.313
	c0.467,0.181,0.937,0.34,1.402,0.471c0.439,0.125,0.988,0.249,1.275,0.268c1.11,0.068,1.955,1.023,1.887,2.135
	c-0.068,1.109-1.024,1.958-2.135,1.89c-0.134-0.009-0.263-0.029-0.387-0.062L40.371,41.909z"/>
<g>
	<path fill="#4CAF50" d="M33.301,12.705c-0.818,3.259-10.526,9.069-10.526,9.069s-5.811-9.707-4.992-12.967
		c1.129-4.492,6.248-2.98,8.185,0.256C29.203,7.127,34.429,8.213,33.301,12.705z"/>
	<path fill="#4CAF50" d="M31.844,32.301c-3.259-0.818-9.069-10.526-9.069-10.526s9.708-5.811,12.967-4.992
		c4.492,1.129,2.98,6.248-0.256,8.185C37.422,28.203,36.336,33.429,31.844,32.301z"/>
	<path fill="#4CAF50" d="M12.248,30.845c0.818-3.26,10.526-9.07,10.526-9.07s5.811,9.708,4.992,12.967
		c-1.129,4.492-6.247,2.98-8.185-0.256C16.346,36.423,11.12,35.337,12.248,30.845z"/>
	<path fill="#4CAF50" d="M13.705,11.249c3.259,0.818,9.069,10.525,9.069,10.525s-9.708,5.811-12.967,4.992
		c-4.492-1.129-2.98-6.248,0.256-8.185C8.127,15.347,9.213,10.12,13.705,11.249z"/>
</g>
<g>
	<g>
		<path fill="#388E3C" d="M28.584,17.334c-0.289,0.49-0.687,0.893-1.076,1.279c-0.408,0.367-0.825,0.721-1.262,1.027
			c-0.867,0.625-1.772,1.149-2.62,1.652l-0.866,0.515l-0.509-0.855c-0.525-0.882-1.069-1.81-1.538-2.788
			c-0.453-0.986-0.889-2.02-1.046-3.163c0.872,0.74,1.619,1.501,2.343,2.308c0.71,0.814,1.371,1.663,1.954,2.619l-1.374-0.34
			c0.95-0.582,1.928-0.995,2.917-1.351c0.492-0.183,1.001-0.325,1.502-0.485C27.527,17.613,28.022,17.461,28.584,17.334z"/>
	</g>
	<g>
		<path fill="#388E3C" d="M16.99,26.249c0.285-0.491,0.682-0.896,1.068-1.286c0.406-0.368,0.82-0.725,1.256-1.035
			c0.863-0.629,1.766-1.158,2.611-1.666l0.861-0.52l0.515,0.852c0.53,0.879,1.08,1.803,1.555,2.779
			c0.459,0.984,0.9,2.014,1.063,3.157c-0.876-0.735-1.628-1.491-2.355-2.294c-0.715-0.811-1.381-1.654-1.97-2.607l1.376,0.332
			c-0.947,0.587-1.922,1.006-2.909,1.367c-0.491,0.185-0.998,0.33-1.499,0.493C18.045,25.963,17.551,26.119,16.99,26.249z"/>
	</g>
</g>
<g>
	<path fill="#81C784" d="M29.11,17.157c-0.201-0.703-0.444-1.381-0.709-2.047c-0.538-1.326-1.176-2.593-1.904-3.805l-0.773-1.287
		l-1.283,0.771c-1.213,0.728-2.373,1.542-3.475,2.457c-0.547,0.462-1.082,0.944-1.592,1.47c-0.049,0.053-0.096,0.105-0.144,0.158
		c0.173,0.398,0.35,0.796,0.533,1.189c0.121-0.029,0.242-0.059,0.362-0.092c0.703-0.2,1.382-0.443,2.048-0.709
		c0.873-0.354,1.712-0.767,2.536-1.204c0.52,0.776,1.064,1.538,1.667,2.263c0.462,0.549,0.944,1.084,1.47,1.594
		c0.092,0.085,0.185,0.168,0.276,0.251c0.35-0.263,0.696-0.53,1.039-0.802C29.146,17.295,29.128,17.227,29.11,17.157z"/>
	<path fill="#81C784" d="M26.318,28.676c-0.173-0.399-0.35-0.797-0.533-1.19c-0.121,0.03-0.242,0.059-0.362,0.092
		c-0.703,0.201-1.382,0.443-2.047,0.709c-0.874,0.354-1.713,0.768-2.537,1.205c-0.52-0.777-1.064-1.539-1.667-2.264
		c-0.462-0.549-0.944-1.084-1.47-1.594c-0.092-0.084-0.185-0.167-0.276-0.25c-0.35,0.262-0.696,0.529-1.039,0.802
		c0.017,0.068,0.034,0.138,0.052,0.206c0.201,0.703,0.444,1.381,0.709,2.047c0.538,1.326,1.176,2.594,1.904,3.805l0.773,1.287
		l1.283-0.77c1.214-0.729,2.373-1.543,3.475-2.458c0.548-0.462,1.082-0.944,1.592-1.47C26.224,28.78,26.271,28.729,26.318,28.676z"
		/>
	<path fill="#81C784" d="M33.761,23.44c-0.729-1.213-1.543-2.373-2.458-3.475c-0.462-0.547-0.944-1.082-1.47-1.592
		c-0.051-0.049-0.105-0.095-0.157-0.144c-0.399,0.173-0.797,0.351-1.19,0.534c0.03,0.12,0.06,0.24,0.092,0.361
		c0.2,0.703,0.444,1.382,0.709,2.048c0.354,0.873,0.767,1.712,1.204,2.536c-0.776,0.52-1.538,1.064-2.263,1.668
		c-0.548,0.461-1.083,0.943-1.593,1.469c-0.084,0.092-0.168,0.184-0.252,0.276c0.263,0.351,0.53,0.697,0.804,1.04
		c0.067-0.018,0.137-0.035,0.204-0.052c0.704-0.202,1.382-0.445,2.048-0.71c1.326-0.538,2.593-1.176,3.805-1.904l1.287-0.773
		L33.761,23.44z"/>
	<path fill="#81C784" d="M16.972,24.423c-0.2-0.703-0.443-1.382-0.709-2.047c-0.354-0.874-0.767-1.713-1.204-2.537
		c0.776-0.52,1.538-1.064,2.263-1.667c0.549-0.462,1.084-0.944,1.593-1.469c0.085-0.092,0.168-0.185,0.252-0.277
		c-0.263-0.35-0.53-0.696-0.804-1.04c-0.067,0.018-0.136,0.035-0.204,0.053c-0.704,0.201-1.382,0.444-2.048,0.709
		c-1.326,0.538-2.593,1.176-3.805,1.904l-1.287,0.773l0.771,1.283c0.729,1.213,1.542,2.373,2.457,3.475
		c0.462,0.547,0.944,1.082,1.47,1.592c0.052,0.049,0.105,0.096,0.157,0.144c0.4-0.173,0.797-0.35,1.19-0.534
		C17.033,24.665,17.004,24.544,16.972,24.423z"/>
</g>
</svg>
