<?xml version="1.0" encoding="utf-8"?>
<!-- Generator: Adobe Illustrator 15.0.0, SVG Export Plug-In . SVG Version: 6.00 Build 0)  -->
<!DOCTYPE svg PUBLIC "-//W3C//DTD SVG 1.1//EN" "http://www.w3.org/Graphics/SVG/1.1/DTD/svg11.dtd">
<svg version="1.1"  xmlns="http://www.w3.org/2000/svg" xmlns:xlink="http://www.w3.org/1999/xlink" x="0px" y="0px"
	 width="48px" height="48px" viewBox="0 0 48 48" enable-background="new 0 0 48 48" xml:space="preserve">
<g>
	<circle fill="#2E7D32" cx="24.5" cy="11.5" r="5.5"/>
	<circle fill="#2E7D32" cx="36.5" cy="16.5" r="4.5"/>
</g>
<g>
	<circle fill="#388E3C" cx="17" cy="14" r="5"/>
	<circle fill="#388E3C" cx="8.5" cy="19.5" r="3.5"/>
	<circle fill="#388E3C" cx="39.5" cy="19.5" r="3.5"/>
	<circle fill="#388E3C" cx="30" cy="14" r="5"/>
</g>
<g>
	<circle fill="#4CAF50" cx="21" cy="19" r="5"/>
	<circle fill="#4CAF50" cx="13" cy="17" r="5"/>
	<circle fill="#4CAF50" cx="34" cy="20" r="4"/>
</g>
<g>
	<circle fill="#9CCC65" cx="27.5" cy="19.5" r="3.5"/>
	<circle fill="#9CCC65" cx="15.5" cy="18.5" r="2.5"/>
</g>
<rect x="5" y="20" fill="#795548" width="38" height="22"/>
<g>
	<rect x="5" y="26" fill="#4E342E" width="38" height="2"/>
	<rect x="5" y="34" fill="#4E342E" width="38" height="2"/>
</g>
<g>
	<rect x="9" y="20" fill="#8D6E63" width="4" height="22"/>
	<rect x="35" y="20" fill="#8D6E63" width="4" height="22"/>
</g>
<g>
	<rect x="7" y="20" fill="#6D4C41" width="2" height="22"/>
	<rect x="33" y="20" fill="#6D4C41" width="2" height="22"/>
</g>
<g>
	<rect x="7" y="26" fill="#3E2723" width="2" height="2"/>
	<rect x="7" y="34" fill="#3E2723" width="2" height="2"/>
	<rect x="33" y="26" fill="#3E2723" width="2" height="2"/>
	<rect x="33" y="34" fill="#3E2723" width="2" height="2"/>
</g>
</svg>
