<?xml version="1.0" encoding="utf-8"?>
<!-- Generator: Adobe Illustrator 15.0.0, SVG Export Plug-In . SVG Version: 6.00 Build 0)  -->
<!DOCTYPE svg PUBLIC "-//W3C//DTD SVG 1.1//EN" "http://www.w3.org/Graphics/SVG/1.1/DTD/svg11.dtd">
<svg version="1.1"  xmlns="http://www.w3.org/2000/svg" xmlns:xlink="http://www.w3.org/1999/xlink" x="0px" y="0px"
	 width="48px" height="48px" viewBox="0 0 48 48" enable-background="new 0 0 48 48" xml:space="preserve">
<line fill="none" stroke="#795548" stroke-width="4" x1="24" y1="44" x2="24" y2="35.109"/>
<g>
	<path fill="#009688" d="M24,12.891L11,35c0,0,4.109,4,13,4s13-4,13-4L24,12.891z"/>
	<path fill="#009688" d="M24,7.335L14,24c0,0,1.668,3,10,3s10-3,10-3L24,7.335z"/>
	<path fill="#009688" d="M24,4l-7,10c0,0,1.445,2,7,2s7-2,7-2L24,4z"/>
</g>
<g>
	<path fill="#00796B" d="M32.588,27.496l-1.021-1.735C30.057,26.414,27.681,27,24,27s-6.057-0.586-7.567-1.239l-1.021,1.735
		C17.195,28.312,19.904,29,24,29S30.805,28.312,32.588,27.496z"/>
	<path fill="#00796B" d="M29.837,17.062l-1.046-1.743C27.716,15.691,26.177,16,24,16s-3.716-0.309-4.791-0.682l-1.046,1.743
		C19.487,17.581,21.364,18,24,18S28.513,17.581,29.837,17.062z"/>
</g>
</svg>
