<?xml version="1.0" encoding="utf-8"?>
<!-- Generator: Adobe Illustrator 15.0.0, SVG Export Plug-In . SVG Version: 6.00 Build 0)  -->
<!DOCTYPE svg PUBLIC "-//W3C//DTD SVG 1.1//EN" "http://www.w3.org/Graphics/SVG/1.1/DTD/svg11.dtd">
<svg version="1.1"  xmlns="http://www.w3.org/2000/svg" xmlns:xlink="http://www.w3.org/1999/xlink" x="0px" y="0px"
	 width="48px" height="48px" viewBox="0 0 48 48" enable-background="new 0 0 48 48" xml:space="preserve">
<path fill="#EA8711" d="M19,44c-5,0-6-6.85-6-19s4.029-22,9-22s9,9.85,9,22s-1,19-6,19"/>
<g>
	<path fill="#FFC107" d="M25,37c0,1.104-0.896,2-2,2h-2c-1.104,0-2-0.896-2-2l0,0c0-1.104,0.896-2,2-2h2C24.104,35,25,35.896,25,37
		L25,37z"/>
	<path fill="#FFC107" d="M25,32c0-1.104-0.896-2-2-2h-2c-1.104,0-2,0.896-2,2l0,0c0,1.104,0.896,2,2,2h2C24.104,34,25,33.104,25,32
		L25,32z"/>
	<path fill="#FFC107" d="M25,27c0-1.104-0.896-2-2-2h-2c-1.104,0-2,0.896-2,2l0,0c0,1.104,0.896,2,2,2h2C24.104,29,25,28.104,25,27
		L25,27z"/>
	<path fill="#FFC107" d="M25,22c0-1.104-0.896-2-2-2h-2c-1.104,0-2,0.896-2,2l0,0c0,1.104,0.896,2,2,2h2C24.104,24,25,23.104,25,22
		L25,22z"/>
	<path fill="#FFC107" d="M25,17c0-1.104-0.896-2-2-2h-2c-1.104,0-2,0.896-2,2l0,0c0,1.104,0.896,2,2,2h2C24.104,19,25,18.104,25,17
		L25,17z"/>
	<path fill="#FFC107" d="M25,12c0-1.104-0.896-2-2-2h-2c-1.104,0-2,0.896-2,2l0,0c0,1.104,0.896,2,2,2h2C24.104,14,25,13.104,25,12
		L25,12z"/>
	<path fill="#FFC107" d="M32,32c0-1.104-0.896-2-2-2h-2c-1.104,0-2,0.896-2,2l0,0c0,1.104,0.896,2,2,2h2C31.104,34,32,33.104,32,32
		L32,32z"/>
	<path fill="#FFC107" d="M32,27c0-1.104-0.896-2-2-2h-2c-1.104,0-2,0.896-2,2l0,0c0,1.104,0.896,2,2,2h2C31.104,29,32,28.104,32,27
		L32,27z"/>
	<path fill="#FFC107" d="M32,22c0-1.104-0.896-2-2-2h-2c-1.104,0-2,0.896-2,2l0,0c0,1.104,0.896,2,2,2h2C31.104,24,32,23.104,32,22
		L32,22z"/>
	<path fill="#FFC107" d="M32,17c0-1.104-0.896-2-2-2h-2c-1.104,0-2,0.896-2,2l0,0c0,1.104,0.896,2,2,2h2C31.104,19,32,18.104,32,17
		L32,17z"/>
	<path fill="#FFC107" d="M31,12c0-1.104-0.896-2-2-2h-1c-1.104,0-2,0.896-2,2l0,0c0,1.104,0.896,2,2,2h1C30.104,14,31,13.104,31,12
		L31,12z"/>
	<path fill="#FFC107" d="M15,7c0,1.104,0.896,2,2,2l0,0c1.104,0,2-0.896,2-2l0,0c0-1.104-0.896-2-2-2l0,0C15.896,5,15,5.896,15,7
		L15,7z"/>
	<path fill="#FFC107" d="M20,7c0,1.104,0.896,2,2,2l0,0c1.104,0,2-0.896,2-2l0,0c0-1.104-0.896-2-2-2l0,0C20.896,5,20,5.896,20,7
		L20,7z"/>
	<path fill="#FFC107" d="M25,7c0,1.104,0.896,2,2,2l0,0c1.104,0,2-0.896,2-2l0,0c0-1.104-0.896-2-2-2l0,0C25.896,5,25,5.896,25,7
		L25,7z"/>
	<path fill="#FFC107" d="M13,12c0,1.104,0.896,2,2,2h1c1.104,0,2-0.896,2-2l0,0c0-1.104-0.896-2-2-2h-1C13.896,10,13,10.896,13,12
		L13,12z"/>
	<path fill="#FFC107" d="M12,17c0,1.104,0.896,2,2,2h2c1.104,0,2-0.896,2-2l0,0c0-1.104-0.896-2-2-2h-2C12.896,15,12,15.896,12,17
		L12,17z"/>
	<path fill="#FFC107" d="M12,22c0,1.104,0.896,2,2,2h2c1.104,0,2-0.896,2-2l0,0c0-1.104-0.896-2-2-2h-2C12.896,20,12,20.896,12,22
		L12,22z"/>
	<path fill="#FFC107" d="M12,27c0,1.104,0.896,2,2,2h2c1.104,0,2-0.896,2-2l0,0c0-1.104-0.896-2-2-2h-2C12.896,25,12,25.896,12,27
		L12,27z"/>
</g>
<path fill="#4CAF50" d="M41,33.705C28.958,21.706,23,39,23,39S18.759,27.635,7,21c7.792,7.482,0.142,24,15.583,24
	C36.75,45,27.542,28.2,41,33.705z"/>
<path fill="#388E3C" d="M41,33.705C28.958,21.706,23,45,23,45S13,24,7,21c7.792,7.482,7,24,15.583,24C32,45,28,26,41,33.705z"/>
</svg>
