<?xml version="1.0" encoding="utf-8"?>
<!-- Generator: Adobe Illustrator 19.1.1, SVG Export Plug-In . SVG Version: 6.00 Build 0)  -->
<svg version="1.1"  xmlns="http://www.w3.org/2000/svg" xmlns:xlink="http://www.w3.org/1999/xlink" x="0px" y="0px"
	 viewBox="0 0 48 48" enable-background="new 0 0 48 48" xml:space="preserve">
<path fill="#4CAF50" d="M44,13.6C44,7.4,42.7,4,39.7,4c-2.9,0-3.3,3.2-5.3,7c-0.6,0.1-1.1,0.6-1.1,1.3c0,0.2,0,0.4,0.1,0.5
	c-0.7,1.2-1.4,2.3-2.1,3.4c-0.1,0-0.2,0-0.2,0c-0.7,0-1.3,0.6-1.3,1.3c0,0.3,0.1,0.5,0.2,0.7c-1.3,1.8-2.7,3.5-4,5
	c-0.1,0-0.1,0-0.2,0c-0.7,0-1.3,0.6-1.3,1.3c0,0.1,0,0.2,0,0.3c-1.4,1.4-2.7,2.6-4,3.6c0,0,0,0,0,0c-0.6,0-1.2,0.4-1.3,1
	c-1.3,0.9-2.5,1.8-3.7,2.5c-0.1,0-0.2-0.1-0.3-0.1c-0.6,0-1.2,0.4-1.3,1c-1.2,0.7-2.3,1.3-3.3,1.8c-0.2-0.1-0.5-0.2-0.7-0.2
	c-0.7,0-1.3,0.6-1.3,1.3c0,0,0,0,0,0C5.7,37.2,4,38.3,4,40.1c0,1.3,0.9,2.5,2.8,3.2C7.1,43.7,7.5,44,8,44c0.3,0,0.5-0.1,0.7-0.2
	c0.8,0.1,1.7,0.2,2.7,0.2c1.4,0,3-0.2,4.5-0.4c0.2,0.3,0.6,0.4,1,0.4c0.6,0,1.1-0.4,1.3-0.9c1.7-0.5,3.5-1.1,5.2-1.8
	c0.2,0.1,0.4,0.1,0.6,0.1c0.6,0,1.2-0.4,1.3-1c1.1-0.5,2.2-1.2,3.2-1.8c0.2,0.2,0.5,0.2,0.8,0.2c0.7,0,1.3-0.6,1.3-1.3
	c0-0.1,0-0.2,0-0.3c0.9-0.6,1.7-1.3,2.6-2c0.2,0.1,0.4,0.1,0.6,0.1c0.7,0,1.3-0.6,1.3-1.3c0-0.2,0-0.3-0.1-0.5
	c0.8-0.8,1.6-1.7,2.4-2.6c0.7,0,1.3-0.6,1.3-1.3c0-0.1,0-0.2,0-0.3c0.8-1.2,1.6-2.4,2.3-3.6c0.7,0,1.3-0.6,1.3-1.3
	c0-0.3-0.1-0.6-0.3-0.8c0.6-1.3,1-2.7,1.4-4.1c0.4-0.2,0.7-0.6,0.7-1.1c0-0.3-0.1-0.6-0.3-0.8C43.9,16.3,44,15,44,13.6z"/>
<path fill="#388E3C" d="M44,13.6C33.3,41.3,9.9,41.7,4,40.1c0,1.3,0.9,2.5,2.8,3.2C7.1,43.7,7.5,44,8,44c0.3,0,0.5-0.1,0.7-0.2
	c0.8,0.1,1.7,0.2,2.7,0.2c1.4,0,3-0.2,4.5-0.4c0.2,0.3,0.6,0.4,1,0.4c0.6,0,1.1-0.4,1.3-0.9c1.7-0.5,3.5-1.1,5.2-1.8
	c0.2,0.1,0.4,0.1,0.6,0.1c0.6,0,1.2-0.4,1.3-1c1.1-0.5,2.2-1.2,3.2-1.8c0.2,0.2,0.5,0.2,0.8,0.2c0.7,0,1.3-0.6,1.3-1.3
	c0-0.1,0-0.2,0-0.3c0.9-0.6,1.7-1.3,2.6-2c0.2,0.1,0.4,0.1,0.6,0.1c0.7,0,1.3-0.6,1.3-1.3c0-0.2,0-0.3-0.1-0.5
	c0.8-0.8,1.6-1.7,2.4-2.6c0.7,0,1.3-0.6,1.3-1.3c0-0.1,0-0.2,0-0.3c0.8-1.2,1.6-2.4,2.3-3.6c0.7,0,1.3-0.6,1.3-1.3
	c0-0.3-0.1-0.6-0.3-0.8c0.6-1.3,1-2.7,1.4-4.1c0.4-0.2,0.7-0.6,0.7-1.1c0-0.3-0.1-0.6-0.3-0.8C43.9,16.3,44,15,44,13.6z"/>
<path fill="#AED581" d="M38,12c0.6,0,1,0.4,1,1s-0.5,1-1,1c-0.6,0-1-0.4-1-1S37.4,12,38,12z M36,23c0.6,0,1,0.4,1,1s-0.4,1-1,1
	s-1-0.4-1-1S35.4,23,36,23z M33,20c0.6,0,1,0.4,1,1s-0.5,1-1,1c-0.6,0-1-0.4-1-1S32.4,20,33,20z M29,30c0.6,0,1,0.4,1,1s-0.4,1-1,1
	s-1-0.4-1-1S28.4,30,29,30z M25,31c0.6,0,1,0.4,1,1s-0.4,1-1,1s-1-0.4-1-1S24.4,31,25,31z M19,36c0.6,0,1,0.4,1,1s-0.4,1-1,1
	s-1-0.4-1-1S18.4,36,19,36z M12,37c0.6,0,1,0.4,1,1s-0.4,1-1,1s-1-0.4-1-1S11.4,37,12,37z"/>
</svg>
