<?xml version="1.0" encoding="UTF-8" standalone="no"?>
<!-- Created with Inkscape (http://www.inkscape.org/) -->

<svg
   xmlns:dc="http://purl.org/dc/elements/1.1/"
   xmlns:cc="http://creativecommons.org/ns#"
   xmlns:rdf="http://www.w3.org/1999/02/22-rdf-syntax-ns#"
   xmlns:svg="http://www.w3.org/2000/svg"
   xmlns="http://www.w3.org/2000/svg"
   xmlns:sodipodi="http://sodipodi.sourceforge.net/DTD/sodipodi-0.dtd"
   xmlns:inkscape="http://www.inkscape.org/namespaces/inkscape"
   width="48"
   height="48"
   viewBox="0 0 48.000001 48.000001"
   id="svg5912"
   version="1.1"
   inkscape:version="0.91 r13725"
   sodipodi:docname="dill.svg">
  <defs
     id="defs5914" />
  <sodipodi:namedview
     id="base"
     pagecolor="#ffffff"
     bordercolor="#666666"
     borderopacity="1.0"
     inkscape:pageopacity="0.0"
     inkscape:pageshadow="2"
     inkscape:zoom="4"
     inkscape:cx="10.5"
     inkscape:cy="21.288363"
     inkscape:document-units="px"
     inkscape:current-layer="layer1"
     showgrid="false"
     units="px"
     inkscape:window-width="1199"
     inkscape:window-height="711"
     inkscape:window-x="0"
     inkscape:window-y="1"
     inkscape:window-maximized="0" />
  <metadata
     id="metadata5917">
    <rdf:RDF>
      <cc:Work
         rdf:about="">
        <dc:format>image/svg+xml</dc:format>
        <dc:type
           rdf:resource="http://purl.org/dc/dcmitype/StillImage" />
        <dc:title></dc:title>
      </cc:Work>
    </rdf:RDF>
  </metadata>
  <g
     inkscape:label="Layer 1"
     inkscape:groupmode="layer"
     id="layer1"
     transform="translate(0,-1004.3623)">
    <g
       transform="matrix(0.18335502,0,0,-0.18335502,-130.9492,1085.1679)"
       id="g5358">
      <g
         transform="translate(887.6946,342.9561)"
         id="g20">
        <path
           inkscape:connector-curvature="0"
           id="path22"
           style="fill:#6cbe45;fill-opacity:1;fill-rule:nonzero;stroke:none"
           d="m 0,0 c 2.186,-1.445 4.256,-3.079 6.615,-4.243 0.97,-0.48 2.091,-0.944 3.29,-1.344 1.061,-0.991 1.594,-2.289 2.256,-3.479 -2.087,-0.775 -4.116,-1.756 -6.026,-2.65 -3.687,-1.726 -7.388,-3.701 -10.614,-6.225 -3.942,-0.418 -7.85,-1.235 -11.642,-2.413 1.411,1.12 2.694,2.392 3.819,3.657 1.933,2.171 3.876,4.13 6.574,5.324 2.386,1.056 5.901,1.895 8.501,1.596 0.291,-0.033 0.354,0.45 0.069,0.512 -2.533,0.55 -4.447,1.012 -7.028,0.339 -2.204,-0.576 -4.335,-1.63 -6.075,-3.104 -1.252,-1.061 -2.28,-2.335 -3.318,-3.603 1.336,3.253 2.234,6.811 5.13,9.098 0.199,0.157 -0.017,0.534 -0.253,0.436 -4.731,-1.963 -5.046,-7.528 -6.938,-11.895 -0.215,-0.221 -0.433,-0.44 -0.662,-0.649 -1.825,-1.67 -3.854,-2.782 -5.925,-3.945 -2.017,-0.842 -4.054,-1.78 -6.014,-2.854 2.858,4.622 5.811,9.132 8.678,13.563 1.814,2.789 3.585,5.562 5.301,8.291 0.615,1.004 1.225,1.986 1.829,2.975 2.55,1.283 5.178,2.335 8.029,3.057 C -3.2,1.432 -1.182,0.781 0,0 M 56.756,10.838 C 55.271,9.964 54.334,8.695 52.633,8.088 51.066,7.528 49.389,7.35 47.734,7.355 c -1.561,0.005 -3.13,0.12 -4.691,0.161 3.059,1.361 5.614,3.472 4.965,6.933 -0.137,0.734 -1.171,0.617 -1.371,0 -0.982,-3.021 -4.989,-4.434 -7.636,-5.311 -1.946,-0.646 -3.942,-1.123 -5.96,-1.476 1.296,0.88 2.433,1.978 3.395,3.478 0.973,1.519 1.718,3.179 2.721,4.68 0.751,1.123 2.488,2.105 2.699,3.446 0.027,0.17 -0.016,0.368 -0.185,0.455 -2.32,1.177 -4.538,-2.942 -5.376,-4.549 C 35.4,13.455 34.643,11.609 33.34,10.145 32.238,8.907 30.862,7.986 29.435,7.163 29.28,7.147 29.124,7.128 28.969,7.113 25.041,6.731 21.101,6.693 17.159,6.679 c 1.566,0.659 3.105,1.441 4.605,2.105 2.868,1.271 5.635,2.521 8.228,4.296 0.28,0.192 0.115,0.656 -0.237,0.563 C 26.956,12.91 24.467,11.789 21.846,10.577 19.263,9.383 16.315,8.278 13.946,6.665 12.443,6.656 10.941,6.639 9.44,6.595 7.522,6.538 5.45,6.435 3.319,6.24 c 0.269,0.179 0.54,0.358 0.816,0.534 2.049,1.306 4.207,2.402 6.425,3.39 4.633,2.064 9.549,2.957 14.371,4.434 0.355,0.109 0.248,0.562 -0.082,0.605 -4.532,0.594 -8.944,-0.577 -13.136,-2.256 1.979,2.538 3.789,5.788 7.107,6.257 0.313,0.045 0.377,0.567 0.09,0.693 -1.86,0.825 -3.416,0.09 -4.797,-1.272 -1.764,-1.74 -3.31,-4.096 -4.451,-6.27 C 9.605,12.248 9.594,12.14 9.602,12.036 7.887,11.238 6.244,10.297 4.666,9.249 3.153,8.244 1.794,7.018 0.364,5.907 -3.221,5.422 -6.857,4.616 -10.13,3.255 c 0.248,0.43 0.497,0.862 0.742,1.289 3.085,5.39 5.728,10.632 7.832,15.664 2.114,5.02 3.693,9.796 4.778,14.123 0.474,1.838 0.839,3.591 1.13,5.252 1.582,1.645 3.387,3.03 5.673,3.968 3.374,-0.471 6.149,-2.365 8.965,-4.24 0.015,-0.055 0.038,-0.108 0.082,-0.151 2.816,-2.826 3.522,-7.044 6.642,-9.642 2.37,-1.974 6.13,-3.549 9.082,-2.055 0.352,0.179 0.219,0.666 -0.102,0.78 -1.734,0.616 -3.602,0.75 -5.289,1.512 -1.842,0.832 -3.436,2.2 -4.571,3.865 -0.752,1.103 -1.378,2.313 -2.13,3.394 0.53,-0.284 1.07,-0.548 1.624,-0.783 3.535,-1.497 10.393,-3.14 13.095,0.617 0.183,0.253 -0.002,0.668 -0.297,0.731 -2.113,0.449 -4.295,-0.116 -6.461,-0.02 1.603,0.498 3.137,1.205 4.695,1.824 2.33,0.925 4.858,1.008 7.124,1.92 0.226,0.091 0.331,0.427 0.074,0.563 -2.723,1.435 -6.337,-0.555 -8.907,-1.639 -2.026,-0.855 -4.067,-1.728 -6.281,-1.936 -0.137,-0.012 -0.262,-0.011 -0.394,-0.017 -1.888,0.575 -3.697,1.417 -5.408,2.398 -2.61,1.496 -5.279,3.209 -8.146,3.961 3.867,0.98 7.881,1.336 11.767,2.237 1.48,0.344 2.895,0.864 4.25,1.521 0.78,0.007 1.554,0.021 2.302,0.012 2.38,-0.028 4.744,0.065 7.083,0.536 3.433,0.693 8.158,2.338 8.803,6.263 0.055,0.335 -0.359,0.685 -0.634,0.369 -2.958,-3.416 -6.47,-4.945 -10.926,-5.508 -1.342,-0.169 -2.735,-0.224 -4.137,-0.272 5.528,3.546 9.928,9.311 13.347,14.572 0.13,0.2 -0.178,0.447 -0.335,0.258 -3.19,-3.84 -6.571,-8.557 -10.926,-11.155 -3.504,-2.09 -7.809,-3.046 -11.925,-3.759 1.312,0.908 2.536,1.927 3.643,2.935 2.168,1.974 4.168,4.119 6.38,6.048 2.356,2.054 5.34,3.614 7.469,5.868 0.351,0.372 0.008,1.102 -0.531,0.911 -2.199,-0.779 -4.108,-2.509 -5.92,-3.96 -2.211,-1.77 -4.254,-3.708 -6.276,-5.687 -0.827,-0.809 -1.643,-1.586 -2.464,-2.323 0.752,0.874 1.42,1.812 1.991,2.674 1.486,2.241 3.616,4.89 2.831,7.737 -0.094,0.344 -0.505,0.338 -0.693,0.091 -1.619,-2.131 -1.572,-5.068 -2.92,-7.371 -1.38,-2.36 -3.424,-3.928 -5.044,-6.031 -0.024,-0.032 0.017,-0.085 0.054,-0.07 0.039,0.016 0.077,0.035 0.116,0.052 -0.822,-0.562 -1.671,-1.073 -2.56,-1.528 -4.128,-0.728 -9.216,-1.996 -13.107,-4.427 0.041,0.381 0.079,0.755 0.112,1.119 0.063,0.803 0.122,1.563 0.178,2.279 0.051,0.716 0.039,1.392 0.06,2.018 0.012,0.627 0.024,1.206 0.034,1.738 0.017,0.531 -0.029,1.014 -0.038,1.447 -0.07,1.729 -0.108,2.651 -0.108,2.651 L 4.412,55.823 c 0.075,4.061 1.374,7.227 3.539,10.432 1.523,1.428 3.337,2.631 5.47,3.696 0.558,0.279 1.118,0.565 1.674,0.86 4.156,-0.022 8.12,0.04 11.482,2.941 0.258,0.223 -0.017,0.731 -0.346,0.594 -2.076,-0.865 -4.148,-1.706 -6.376,-2.081 -0.845,-0.142 -1.727,-0.181 -2.602,-0.244 2.829,1.696 5.424,3.759 7.155,6.614 0.191,0.315 -0.227,0.588 -0.484,0.373 -2.327,-1.942 -4.478,-4.081 -7.06,-5.7 -1.869,-1.173 -3.923,-2.028 -5.856,-3.087 4.543,5.333 10.928,11.708 9.199,18.81 -0.066,0.267 -0.454,0.197 -0.466,-0.064 C 19.509,84.057 16.216,79.097 12.91,75.658 10.151,72.789 6.784,70.498 4.451,67.23 4.31,67.033 4.176,66.832 4.044,66.631 3.983,69.032 3.56,71.409 2.614,73.7 c 0.224,2.978 1.693,5.71 1.232,8.804 -0.52,3.502 -2.905,6.243 -3.84,9.57 -0.109,0.39 -0.657,0.22 -0.594,-0.163 0.281,-1.724 0.519,-3.197 1.192,-4.815 0.761,-1.828 1.668,-3.666 1.93,-5.646 0.241,-1.818 -0.496,-3.744 -0.862,-5.622 -0.872,1.867 -1.95,3.831 -3.459,5.036 -0.946,0.756 -2.131,1.168 -3.142,1.823 -1.785,1.157 -3.379,2.793 -4.656,4.477 -0.147,0.195 -0.426,0.034 -0.327,-0.191 1.036,-2.357 2.372,-4.066 4.341,-5.712 2.158,-1.805 3.776,-3.703 5.209,-6.14 0.832,-1.416 1.437,-2.822 1.874,-4.233 -0.814,0.676 -1.837,1.171 -2.773,1.562 -1.7,0.71 -3.62,1.111 -5.202,2.071 -1.899,1.154 -3.149,2.984 -3.907,5.037 -0.106,0.287 -0.561,0.264 -0.558,-0.075 0.025,-2.886 1.482,-5.208 3.972,-6.634 1.542,-0.883 3.267,-1.227 4.921,-1.823 1.637,-0.589 2.81,-1.522 4.129,-2.503 0.29,-1.535 0.423,-3.086 0.472,-4.672 C 1.468,61.276 0.938,58.468 0.807,55.598 L 0.436,55.575 c 0,0 0.018,-0.85 0.052,-2.442 C 0.489,52.735 0.526,52.292 0.5,51.802 0.48,51.312 0.459,50.778 0.437,50.2 0.406,49.623 0.408,49.002 0.348,48.341 0.284,47.681 0.216,46.979 0.143,46.237 -0.187,43.278 -0.75,39.684 -1.87,35.654 c -1.092,-4.033 -2.663,-8.51 -4.765,-13.253 -0.637,-1.45 -1.333,-2.927 -2.071,-4.422 -0.637,2.444 -1.52,4.871 -2.246,7.162 -0.58,1.833 -1.197,3.655 -1.835,5.468 0.062,1.501 0.01,3.041 0.417,4.478 0.665,2.345 1.886,4.52 2.818,6.785 3.262,2.307 7.882,5.74 5.508,9.974 -0.147,0.262 -0.598,0.293 -0.736,0 -0.861,-1.826 -0.689,-3.664 -2.195,-5.209 -0.478,-0.49 -0.966,-0.964 -1.454,-1.436 1.035,3.769 1.837,9.352 -1.549,11.069 -0.413,0.209 -0.955,0.043 -1.079,-0.439 -0.545,-2.113 0.541,-4.439 0.511,-6.628 -0.04,-2.887 -0.828,-5.72 -1.775,-8.428 -0.615,-1.76 -1.456,-3.925 -1.937,-6.123 -0.411,1.086 -0.832,2.168 -1.264,3.246 -1.551,3.872 -3.322,7.653 -5.175,11.388 -0.556,1.121 -1.117,2.241 -1.637,3.38 1.833,3.025 2.257,7.66 2.17,11.016 -0.089,3.427 -1.111,6.564 -4.183,8.35 -0.272,0.159 -0.65,-0.172 -0.454,-0.454 1.779,-2.558 2.755,-5.686 2.775,-8.795 0.018,-2.671 -0.197,-5.807 -0.991,-8.515 -0.128,0.32 -0.259,0.638 -0.375,0.963 -0.68,1.923 -1.092,3.505 -2.167,5.259 -0.175,0.287 -0.703,0.36 -0.859,0 -1.498,-3.466 0.269,-6.796 1.793,-9.996 0.874,-1.836 1.769,-3.66 2.657,-5.487 -2.012,1.201 -4.29,2.149 -5.985,3.462 -1.72,1.333 -3.088,2.992 -4.167,4.878 -0.88,1.538 -1.378,3.38 -2.497,4.745 -0.235,0.287 -0.646,0.086 -0.753,-0.198 -1.333,-3.558 1.892,-8.184 4.425,-10.419 0.143,-0.127 0.292,-0.246 0.44,-0.367 -1.14,0.237 -2.275,0.511 -3.392,0.911 -2.761,0.989 -5.195,2.671 -7.924,3.744 -0.405,0.159 -0.789,-0.386 -0.562,-0.731 2.802,-4.257 9.95,-6.917 15.287,-6.136 0.59,-0.317 1.187,-0.62 1.788,-0.916 1.641,-0.81 3.354,-1.921 5.105,-2.659 0.44,-0.936 0.875,-1.876 1.297,-2.822 1.916,-4.289 3.716,-8.619 5.322,-13.034 -2.591,1.565 -5.765,2.077 -8.142,4.18 -2.576,2.279 -4.428,5.886 -6.18,8.822 -0.31,0.519 -1.077,0.169 -0.953,-0.402 0.87,-4.019 1.948,-7.557 5.243,-10.31 0.552,-0.461 1.188,-0.925 1.876,-1.369 -1.335,0.127 -2.665,0.314 -3.949,0.914 -2.507,1.172 -4.199,3.302 -5.659,5.582 -0.236,0.367 -0.765,0.205 -0.795,-0.216 -0.424,-5.967 8.032,-9.765 13.243,-7.824 1.98,-0.886 4.1,-1.445 5.952,-1.279 0.004,0 0.007,0.002 0.01,0.002 0.905,-2.819 1.664,-5.766 2.747,-8.511 -1.299,-2.474 -2.718,-4.994 -4.241,-7.543 -0.384,-0.64 -0.771,-1.285 -1.16,-1.933 C -16,4.922 -16.41,4.263 -16.823,3.599 c -0.796,-1.292 -1.672,-2.617 -2.52,-3.946 -1.74,-2.655 -3.537,-5.358 -5.399,-8.107 -0.706,-1.047 -1.42,-2.103 -2.137,-3.165 -0.549,1.519 -1.45,3.015 -2.112,4.214 -0.297,0.537 -0.613,1.065 -0.931,1.591 0.017,0.478 0.017,0.962 0.068,1.468 0.16,1.594 0.604,3.156 0.969,4.711 0.434,1.855 0.843,3.715 0.91,5.602 0.811,2.382 1.481,4.836 1.985,7.221 0.705,3.334 0.809,6.41 -1.471,9.145 -0.31,0.371 -0.921,-0.028 -0.792,-0.461 1.191,-4.002 0.626,-7.842 -0.234,-11.681 -0.489,1.771 -1.241,3.466 -1.901,5.183 -0.835,2.17 -1.254,4.54 -2.75,6.371 -0.228,0.28 -0.733,0.185 -0.893,-0.116 -1.066,-2.007 -0.352,-3.91 0.527,-5.869 1.181,-2.633 2.757,-5.14 3.274,-8.022 0.325,-1.812 0.133,-3.614 -0.169,-5.409 -0.429,1.155 -0.92,2.29 -1.419,3.405 -0.738,1.649 -1.53,3.938 -3.156,4.852 -0.304,0.171 -0.667,-0.046 -0.678,-0.388 -0.056,-1.762 1.293,-3.509 2.126,-5.002 0.906,-1.62 1.789,-3.278 2.768,-4.862 -0.121,-0.663 -0.237,-1.324 -0.325,-1.985 -0.081,-0.6 -0.183,-1.268 -0.24,-1.95 -0.892,1.34 -1.828,2.653 -2.773,3.949 -3.722,5.098 -7.794,9.984 -10.934,15.48 -1.02,1.784 -1.855,3.57 -2.542,5.374 -0.28,1.619 -0.482,3.248 0.039,5.023 0.094,0.32 0.202,0.634 0.322,0.943 2.209,1.892 4.235,4.124 6.161,6.197 1.827,1.967 3.983,4.418 3.166,7.265 -0.077,0.267 -0.523,0.38 -0.65,0.085 -1.312,-3.051 -2.793,-5.411 -5.066,-7.849 -0.488,-0.524 -0.987,-1.049 -1.486,-1.58 0.409,0.712 0.812,1.426 1.166,2.157 1.959,4.047 2.243,9.894 -1.236,13.265 -0.385,0.373 -1.043,0.101 -1.051,-0.436 -0.048,-3.199 1.911,-5.837 1.232,-9.174 -0.538,-2.642 -2.016,-4.947 -3.101,-7.38 -0.442,-0.991 -0.804,-2.084 -1.052,-3.221 -0.007,-0.01 -0.014,-0.021 -0.021,-0.031 -0.705,3.141 -1.049,6.391 -1.151,9.847 -0.1,3.394 -0.132,6.792 -0.22,10.188 0.222,0.597 0.466,1.182 0.776,1.725 1.14,1.998 2.83,3.557 4.069,5.477 2.427,3.763 3.161,8.766 3.677,13.109 0.072,0.604 -0.788,0.605 -0.978,0.132 -1.022,-2.549 -1.751,-5.089 -2.431,-7.755 -0.7,-2.744 -1.819,-4.801 -3.531,-7.043 -0.521,-0.681 -1.119,-1.504 -1.69,-2.404 -0.186,3.528 -0.845,7.171 1.279,10.281 0.391,0.572 -0.428,1.068 -0.893,0.689 -2.416,-1.971 -3.044,-4.959 -3.279,-7.94 -0.326,-4.16 -0.027,-8.393 0.053,-12.561 0.004,-0.239 0.01,-0.477 0.015,-0.715 -0.406,0.83 -0.83,1.657 -1.231,2.486 -2.277,4.704 -3.586,9.711 -4.317,14.847 -0.062,0.436 -0.655,0.324 -0.777,0 -0.795,-2.11 -1.081,-3.391 -0.709,-5.69 0.143,-0.881 0.339,-1.746 0.58,-2.597 -0.356,0.441 -0.705,0.883 -1.035,1.332 -1.104,1.505 -2.105,3.054 -3.611,4.194 -0.254,0.192 -0.606,-0.125 -0.523,-0.401 0.552,-1.819 1.74,-3.274 2.89,-4.754 1.207,-1.553 2.414,-3.335 3.892,-4.672 1.415,-3.04 3.717,-6.12 4.99,-9.388 0.286,-5.88 1.058,-11.579 3.664,-17.079 0.622,-1.313 1.32,-2.583 2.07,-3.823 -1.003,0.646 -2.007,1.286 -2.979,1.952 -2.609,1.786 -4.582,3.87 -5.508,6.95 -0.843,2.8 -0.885,5.735 -1.27,8.605 -0.053,0.395 -0.671,0.732 -0.883,0.24 -0.965,-2.235 -1.24,-4.714 -0.921,-7.123 -1.346,2.089 -1.886,4.174 -2.462,6.668 -0.095,0.412 -0.611,0.397 -0.823,0.107 -1.52,-2.081 -0.399,-4.618 0.932,-6.541 1.043,-1.506 2.282,-2.812 3.446,-4.186 0.389,-0.901 0.861,-1.765 1.422,-2.564 1.416,-2.021 3.434,-3.529 5.524,-4.797 1.417,-0.86 2.886,-1.645 4.327,-2.464 0.488,-0.277 1.224,-0.598 1.941,-0.982 1.333,-1.854 2.744,-3.657 4.163,-5.442 -1.791,0.793 -3.694,1.39 -5.109,1.951 -4.258,1.688 -8.319,2.997 -11.514,6.46 -0.329,0.357 -0.958,0.259 -1.191,-0.154 -2.264,-4.021 3.673,-6.632 6.954,-7.851 -0.909,-0.298 -1.783,-0.692 -2.701,-0.987 -1.548,-0.497 -3.194,-0.549 -4.724,-1.057 -0.358,-0.119 -0.597,-0.556 -0.368,-0.905 1.252,-1.91 3.488,-1.692 5.452,-0.998 1.305,0.461 2.535,1.108 3.826,1.604 1.546,0.595 2.775,0.489 4.368,0.553 0.079,0.003 0.154,0.028 0.224,0.063 0.751,-0.177 1.502,-0.357 2.25,-0.557 1.905,-0.512 3.775,-1.546 5.683,-2.101 1.662,-2.12 3.284,-4.273 4.779,-6.514 -0.973,0.598 -2.017,1.087 -3.089,1.486 -6.023,2.244 -12.927,2.151 -19.231,2.146 -0.397,0 -0.488,-0.597 -0.095,-0.698 2.629,-0.671 5.099,-1.487 7.802,-1.835 2.783,-0.358 5.585,-0.654 8.344,-1.175 -0.864,-0.315 -1.709,-0.842 -2.461,-1.377 -1.647,-1.17 -2.853,-2.212 -4.939,-2.461 -1.704,-0.204 -3.871,0.057 -5.548,0.448 -0.459,0.107 -0.795,-0.444 -0.461,-0.793 2.004,-2.09 4.4,-2.614 7.245,-1.918 3.662,0.896 5.681,4.599 9.549,4.751 0.203,0.008 0.351,0.159 0.388,0.333 1.353,-0.519 2.626,-1.218 3.724,-2.207 1.288,-1.159 1.821,-3.357 3.169,-4.359 -2.588,-3.841 -5.212,-7.786 -7.758,-11.882 -1.883,-2.993 -3.686,-6.093 -5.425,-9.256 l -1.281,-2.392 -1.228,-2.434 -0.609,-1.223 -0.585,-1.262 c -0.38,-0.835 -0.804,-1.698 -1.147,-2.511 l -0.614,-1.446 c -0.883,1.457 -2.185,2.851 -3.444,4.155 -0.391,1.504 -0.816,3.01 -0.911,4.588 -0.116,1.935 0.101,3.786 0.512,5.612 0.021,0.022 0.039,0.043 0.061,0.065 0.942,0.912 2.066,1.533 3.202,2.164 1.433,0.796 3.735,1.854 4.094,3.622 0.058,0.285 -0.244,0.58 -0.522,0.401 -1.208,-0.776 -2.112,-1.914 -3.388,-2.669 -1.01,-0.597 -2.062,-1.13 -2.998,-1.843 0.175,0.607 0.362,1.214 0.567,1.823 1.681,4.994 1.932,9.882 -1.701,14.13 -0.26,0.305 -0.712,-0.026 -0.633,-0.369 0.765,-3.342 2.397,-6.14 1.726,-9.703 -0.516,-2.74 -1.768,-5.281 -2.258,-8.033 -0.063,-0.354 -0.118,-0.732 -0.168,-1.119 -0.083,-0.314 -0.123,-0.634 -0.104,-0.955 -0.145,-1.594 -0.159,-3.36 0.062,-5.07 -1.513,1.711 -2.936,3.497 -4.256,5.361 -0.451,2.334 -0.898,4.615 -0.832,7.05 0.021,0.789 0.101,1.569 0.21,2.343 2.112,2.161 3.724,4.896 4.832,7.682 0.129,0.323 -0.042,0.671 -0.241,0.914 -1.126,1.367 -2.147,-1.636 -2.404,-2.19 -0.479,-1.03 -1.019,-2.027 -1.573,-3.015 0.187,0.939 0.371,1.88 0.508,2.829 0.676,4.707 0.237,9.348 -2.115,13.517 -0.196,0.346 -0.668,0.098 -0.607,-0.256 0.487,-2.81 0.937,-5.716 1,-8.572 0.008,-0.384 0.003,-0.765 -0.01,-1.144 -0.379,0.534 -0.805,1.044 -1.229,1.583 -0.608,0.773 -1.148,1.565 -1.453,2.51 -0.265,0.822 -0.243,1.679 -0.468,2.505 -0.063,0.229 -0.349,0.359 -0.557,0.227 -3.541,-2.253 2.068,-7.333 3.501,-9.25 -0.211,-1.662 -0.534,-3.308 -0.81,-4.981 -0.426,-2.575 -0.583,-5.369 -0.197,-8.047 -2.679,4.383 -4.822,9.049 -6.072,14.065 -1.245,4.993 -1.246,9.979 -1.123,15.03 0.437,0.789 0.899,1.568 1.424,2.326 1.102,1.596 2.319,3.12 3.272,4.814 1.596,2.835 2.782,6.205 0.983,9.186 -0.171,0.283 -0.694,0.187 -0.662,-0.179 0.361,-4.241 -1.005,-7.62 -3.334,-11.092 -0.515,-0.768 -1.077,-1.551 -1.613,-2.358 0.011,0.423 0.022,0.846 0.031,1.27 0.122,5.589 -0.32,12.191 -3.917,16.712 -0.286,0.359 -0.795,-0.04 -0.713,-0.415 0.745,-3.421 1.424,-6.821 1.455,-10.338 0.028,-3.274 -0.217,-6.565 -0.339,-9.837 -0.088,-2.377 -0.102,-4.732 0.013,-7.069 -0.406,1.767 -0.702,3.574 -1.067,5.217 -0.717,3.226 -1.403,6.462 -2.291,9.647 0.485,1.021 0.933,2.059 1.277,3.132 0.099,0.308 -0.336,0.574 -0.554,0.323 -0.471,-0.543 -0.867,-1.136 -1.206,-1.759 -0.657,2.236 -1.446,4.455 -2.918,6.279 -0.367,0.454 -0.94,-0.061 -0.872,-0.508 0.455,-2.982 1.725,-5.826 2.508,-8.736 0.025,-0.093 0.047,-0.186 0.071,-0.278 -0.04,-0.17 -0.081,-0.338 -0.116,-0.509 -0.049,-0.242 0.157,-0.441 0.362,-0.45 0.304,-1.198 0.594,-2.399 0.867,-3.604 -0.268,0.406 -0.549,0.792 -0.824,1.146 -1.194,1.538 -3.183,3.774 -5.313,3.534 -0.388,-0.043 -0.76,-0.462 -0.491,-0.855 1.089,-1.591 3.154,-2.279 4.498,-3.687 1.396,-1.463 2.008,-3.306 3.183,-4.878 0.589,-2.677 1.074,-5.504 2.166,-8.024 0.347,-0.8 0.836,-1.474 1.365,-2.108 0.309,-1.846 0.73,-3.683 1.296,-5.513 1.66,-5.362 4.238,-10.477 7.498,-15.05 -0.731,0.357 -1.495,0.66 -2.169,0.984 -1.267,0.609 -2.645,1.164 -3.975,1.796 -0.84,1.634 -2.057,3.136 -2.915,4.738 -0.953,1.78 -1.625,4.359 -3.294,5.558 -0.199,0.144 -0.548,0.002 -0.591,-0.241 -0.372,-2.093 1.298,-4.495 2.358,-6.209 0.381,-0.616 0.777,-1.279 1.204,-1.935 -0.102,0.078 -0.21,0.15 -0.308,0.231 -3.962,3.273 -5.917,8.974 -8.71,13.166 -0.298,0.448 -0.997,0.28 -1.015,-0.275 -0.092,-2.841 1.068,-5.235 2.505,-7.619 1.348,-2.237 2.761,-4.675 4.577,-6.572 1.91,-1.995 4.634,-2.893 7.106,-3.982 0.13,-0.057 0.265,-0.12 0.403,-0.186 -1.132,-0.116 -2.266,-0.262 -3.386,-0.263 -2.821,-0.002 -5.33,0.907 -8.069,1.316 -0.269,0.04 -0.604,-0.24 -0.402,-0.522 1.563,-2.182 4.334,-2.756 6.889,-2.809 2.338,-0.049 5.215,0.1 7.534,1.004 1.488,-0.699 3.078,-1.277 4.411,-1.042 1.41,-1.773 2.902,-3.484 4.491,-5.095 1.691,-1.713 4.135,-3.98 6.48,-4.842 l -0.069,-0.176 -0.247,-0.642 -0.493,-1.283 -0.492,-1.283 -0.449,-1.296 c -0.292,-0.866 -0.617,-1.723 -0.879,-2.596 -1.134,-3.47 -2.045,-6.987 -2.843,-10.494 -0.947,-4.253 -1.653,-8.503 -2.17,-12.704 -0.787,1.115 -1.659,2.188 -2.593,3.223 -0.077,3.362 -0.132,7.029 -0.783,10.425 0.933,3.496 2.53,6.843 2.416,10.511 -0.078,2.491 -0.637,6.348 -3.706,6.597 -0.382,0.031 -0.605,-0.52 -0.319,-0.769 2.557,-2.221 2.492,-7.465 1.789,-10.422 -0.269,-1.127 -0.6,-2.175 -0.859,-3.214 -0.087,0.274 -0.18,0.546 -0.279,0.814 -1.523,4.104 -4.561,7.754 -8.346,9.838 -0.516,0.284 -0.951,-0.267 -0.746,-0.746 0.901,-2.099 1.939,-3.393 3.455,-5.144 1.541,-1.779 3.083,-3.511 3.905,-5.759 1.228,-3.359 1.535,-7.056 2.061,-10.632 -3.083,3.113 -6.646,5.857 -9.95,8.287 -1.591,1.17 -3.223,2.297 -4.847,3.433 0.146,1.397 -0.021,2.875 -0.022,4.249 0,0.85 0.001,1.699 0.002,2.549 0.325,1.311 0.783,2.586 1.201,3.868 0.824,2.529 1.83,5.519 0.582,8.046 -0.113,0.229 -0.423,0.093 -0.441,-0.12 -0.189,-2.14 -0.192,-4.179 -0.77,-6.276 -0.176,-0.639 -0.375,-1.271 -0.576,-1.903 -0.001,0.395 0,0.791 -0.002,1.187 -0.009,1.54 0.42,5.996 -2.392,5.348 -0.225,-0.052 -0.321,-0.289 -0.282,-0.495 0.575,-3.04 0.596,-6.18 0.806,-9.264 0.124,-1.83 -10e-4,-4.011 0.234,-6.017 -2.185,1.555 -4.32,3.163 -6.292,4.946 -0.206,1.036 -0.398,2.074 -0.427,3.172 -0.052,1.93 0.262,3.8 0.454,5.714 0.387,3.867 -1.21,7.37 -1.624,11.162 -0.026,0.243 -0.404,0.434 -0.53,0.144 -1.596,-3.677 0.878,-7.468 0.535,-11.306 -0.205,-2.297 -0.492,-4.793 -0.207,-7.162 -1.396,1.433 -2.676,2.988 -3.787,4.722 -3.186,4.973 -4.935,10.41 -5.623,16.02 0.39,1.049 0.885,2.049 1.422,3.029 1.629,1.542 3.68,2.666 5.525,4.114 2.377,1.866 2.935,4.029 2.146,6.921 -0.048,0.174 -0.327,0.188 -0.366,0 -0.417,-1.986 -0.562,-3.901 -2.045,-5.465 -1.134,-1.195 -2.599,-2.162 -3.901,-3.189 1.703,2.959 3.498,6.482 2.409,9.948 -0.07,0.224 -0.46,0.271 -0.502,0 -0.711,-4.562 -3.051,-8.054 -4.968,-12.081 -0.228,4.447 0.152,8.965 0.963,13.415 1.868,1.468 3.739,3.074 5.036,4.902 1.494,2.107 1.576,4.457 1.2,6.913 -0.048,0.309 -0.526,0.279 -0.595,0 -0.63,-2.552 -0.853,-5.21 -2.643,-7.262 -0.872,-1 -1.78,-1.956 -2.681,-2.919 0.954,4.628 2.351,9.163 3.987,13.443 0.176,0.458 -0.544,0.741 -0.779,0.329 -2.835,-4.97 -5.055,-10.32 -6.425,-15.818 -0.198,1.022 -0.393,2.007 -0.533,2.913 -0.817,5.28 -1.128,11.85 2.567,16.154 0.079,0.092 -0.042,0.215 -0.134,0.134 -3.43,-3.039 -4.778,-7.234 -4.597,-11.728 0.15,-3.706 1.262,-7.437 1.914,-11.164 -0.402,-2.286 -0.652,-4.587 -0.731,-6.889 -0.352,1.896 -0.593,3.752 -1.51,5.554 -1.322,2.599 -2.766,4.976 -3.64,7.794 -0.879,2.837 -0.757,5.847 -1.55,8.674 -0.054,0.19 -0.373,0.215 -0.412,0 -0.845,-4.723 0.096,-10.431 2.364,-14.662 -1.334,1.113 -2.924,1.846 -4.143,3.088 -2.013,2.05 -2.431,5.035 -2.772,7.755 -0.033,0.264 -0.449,0.386 -0.512,0.07 -0.739,-3.722 -0.023,-7.898 3.233,-10.21 2.283,-1.621 4.531,-2.907 6.119,-5.316 0.195,-0.296 0.371,-0.601 0.537,-0.911 0.275,-0.862 0.516,-1.752 0.724,-2.706 0.262,-1.195 0.594,-2.321 1.156,-3.408 0.158,-0.304 0.335,-0.589 0.517,-0.868 0.27,-3.364 0.935,-6.702 2.042,-9.967 -0.773,0.7 -1.58,1.373 -2.44,2.008 -0.957,0.705 -1.987,1.366 -3.064,1.983 -0.586,0.854 -1.127,1.747 -1.676,2.747 -1.016,1.848 -2.227,3.501 -3.899,4.807 -2.867,2.239 -7.141,3.474 -10.723,2.419 -0.147,-0.043 -0.169,-0.288 0,-0.319 4.408,-0.814 8.397,-2.155 11.585,-5.519 0.697,-0.736 1.311,-1.701 1.936,-2.699 -4.668,2.152 -9.969,3.41 -14.82,3.261 -0.241,-0.007 -0.289,-0.347 -0.057,-0.419 3.538,-1.09 7.074,-1.975 10.432,-3.585 3.046,-1.461 6.064,-3.414 8.792,-5.429 -0.85,0.027 -1.705,0.003 -2.509,-0.003 -5.451,-0.047 -9.212,1.645 -12.106,6.336 -0.09,0.147 -0.376,0.103 -0.353,-0.095 0.382,-3.283 2.906,-6.158 5.979,-7.298 2.052,-0.761 4.326,-0.747 6.48,-0.669 1.392,0.05 2.995,0.292 4.489,0.174 1.829,-1.523 3.538,-3.188 5.212,-4.88 1.648,-2.813 3.646,-5.242 5.887,-7.418 -1.262,0.362 -2.548,0.642 -3.87,0.826 -1.963,0.274 -3.888,0.276 -5.793,0.119 -2.187,2.879 -6.021,6.136 -9.538,4.993 -0.525,-0.171 -0.585,-0.824 -0.148,-1.126 1.501,-1.04 3.408,-1.306 5.043,-2.11 1.082,-0.532 2.055,-1.177 2.943,-1.936 -3.194,-0.417 -6.35,-1.214 -9.56,-1.904 -0.404,-0.087 -0.502,-0.726 -0.119,-0.91 2.191,-1.056 4.395,-0.674 6.692,-0.143 2.971,0.686 5.832,1.148 8.892,0.909 2.762,-0.215 5.535,-0.884 8.164,-1.748 0.493,-0.162 0.979,-0.356 1.461,-0.569 2.223,-1.731 4.583,-3.333 7.004,-4.902 3.594,-2.328 7.087,-4.766 10.335,-7.559 -0.717,0.173 -1.41,0.313 -2.051,0.422 -2.674,0.454 -5.396,0.603 -8.045,1.142 -2.744,3.315 -5.947,6.586 -9.521,8.841 -0.234,0.148 -0.551,-0.152 -0.389,-0.389 1.97,-2.885 4.616,-5.486 7.4,-7.786 -0.124,0.042 -0.25,0.074 -0.373,0.118 -3.079,1.102 -6.042,2.994 -8.886,4.599 -0.452,0.255 -0.978,-0.258 -0.713,-0.714 2.969,-5.117 8.554,-7.161 14.197,-7.884 0.189,-0.024 0.38,-0.041 0.57,-0.062 -0.583,-0.242 -1.165,-0.486 -1.766,-0.678 -1.44,-0.461 -2.815,-0.431 -4.306,-0.406 -0.29,0.005 -0.523,-0.352 -0.348,-0.606 1.117,-1.626 2.995,-1.663 4.792,-1.111 1.185,0.364 2.249,1.055 3.383,1.537 1.076,0.456 2.176,0.7 3.295,0.846 1.587,-0.142 3.162,-0.348 4.69,-0.785 0.711,-0.203 1.356,-0.457 1.966,-0.743 1.522,-1.52 3.026,-3.055 4.637,-4.475 -0.169,-1.662 -0.309,-3.314 -0.423,-4.952 -0.241,-3.399 -0.339,-6.741 -0.39,-10.013 0.006,-1.639 -0.017,-3.317 0.025,-4.855 0.015,-0.795 0.031,-1.586 0.047,-2.371 0.028,-0.786 0.056,-1.567 0.083,-2.343 0.008,-0.201 0.018,-0.398 0.026,-0.599 -2.378,2.205 -5.086,4.127 -7.506,5.936 -1.07,0.799 -2.175,1.546 -3.309,2.247 -1.562,3.774 -3.249,7.932 -6.176,10.726 -0.623,1.127 -1.319,2.212 -2.022,3.22 -1.371,1.965 -3.106,4.461 -5.327,5.464 -0.149,0.068 -0.306,-0.071 -0.227,-0.227 1.149,-2.247 3.342,-4.087 4.827,-6.141 0.091,-0.125 0.175,-0.253 0.262,-0.379 -1.575,1.053 -3.189,1.906 -4.936,2.813 -2.411,1.253 -4.22,3.326 -6.589,4.593 -0.135,0.072 -0.338,-0.05 -0.279,-0.215 1.799,-4.958 8.187,-5.547 11.036,-9.527 1.397,-1.952 2.615,-4.086 3.962,-6.086 0.474,-0.704 0.977,-1.371 1.495,-2.019 -3.014,1.527 -6.166,2.797 -9.358,3.897 -1.569,2.806 -4.878,5.042 -7.275,6.576 -2.088,1.335 -4.316,2.433 -6.382,3.806 -2.22,1.475 -3.86,3.581 -6.007,5.088 -0.263,0.184 -0.529,-0.12 -0.487,-0.375 0.677,-4.105 5.995,-6.735 9.216,-8.6 2.033,-1.177 4.133,-2.252 6.037,-3.637 0.828,-0.602 1.527,-1.265 2.17,-1.963 -4.9,1.52 -9.919,2.512 -14.979,3.296 -1.408,1.094 -2.681,2.991 -3.457,3.956 -1.531,1.902 -2.995,3.876 -4.668,5.658 -2.138,2.276 -5.799,5.761 -9.216,4.965 -0.391,-0.091 -0.376,-0.578 -0.102,-0.78 2.103,-1.553 4.578,-2.189 6.604,-4.004 2.008,-1.799 3.635,-3.969 5.317,-6.062 0.56,-0.696 1.573,-2.087 2.754,-3.323 -1.345,0.191 -2.692,0.372 -4.039,0.548 -1.29,0.169 -2.584,0.311 -3.878,0.449 -1.556,2.024 -3.524,3.7 -5.79,4.93 -0.042,0.023 -0.086,0.045 -0.129,0.067 -1.262,3.128 -3.532,6.158 -6.599,7.62 -0.342,0.163 -0.748,-0.269 -0.43,-0.559 2.223,-2.03 4.222,-3.976 5.814,-6.446 -1.372,0.662 -2.773,1.272 -4.056,2.096 -1.881,1.207 -3.167,2.839 -4.482,4.616 -0.201,0.271 -0.656,0.198 -0.663,-0.18 -0.061,-3.523 3.368,-5.588 6.171,-6.974 3.044,-1.505 5.791,-2.964 8.312,-4.974 -1.933,0.203 -3.866,0.412 -5.788,0.689 -4.023,0.579 -7.676,1.902 -9.656,5.697 -0.236,0.453 -0.917,0.222 -0.927,-0.251 -0.123,-5.871 5.401,-8.141 10.471,-9.21 -1.3,-0.38 -2.582,-0.857 -3.818,-1.337 -2.706,-1.05 -5.581,-2.173 -8.541,-1.915 -3.148,0.274 -5.865,1.876 -8.771,2.933 -0.288,0.105 -0.525,-0.316 -0.3,-0.515 3.32,-2.93 7.191,-4.579 11.441,-4.177 -0.634,-0.416 -1.253,-0.843 -1.862,-1.209 -2.096,-1.258 -4.226,-1.669 -6.448,-2.543 -0.262,-0.102 -0.277,-0.45 0,-0.548 2.146,-0.758 4.429,0.14 6.288,1.299 1.612,1.005 3.76,2.16 5.171,3.649 3.772,1.144 7.438,3.218 11.287,3.627 5.599,-0.798 11.08,-1.834 16.545,-3.113 -1.626,-0.351 -3.208,-0.854 -4.668,-1.444 -2.506,-1.013 -4.749,-2.145 -7.513,-2.219 -1.7,-0.045 -5.226,-0.52 -6.616,0.726 -0.314,0.283 -0.813,-0.073 -0.595,-0.459 1.925,-3.406 7.766,-2.776 10.97,-1.711 0.207,0.068 0.409,0.146 0.613,0.222 -0.364,-0.398 -0.732,-0.79 -1.12,-1.161 -1.928,-1.851 -3.841,-2.467 -6.348,-3.133 -0.199,-0.053 -0.274,-0.383 -0.062,-0.476 3.712,-1.631 7.358,2.624 9.816,5.721 1.684,0.764 3.345,1.584 5.145,2.106 1.427,0.413 2.853,0.667 4.287,0.869 0.711,-0.181 1.423,-0.362 2.135,-0.552 2.693,-0.717 5.344,-1.528 7.954,-2.441 -1.373,-0.532 -2.703,-1.253 -3.901,-1.853 -0.014,-0.007 -0.028,-0.014 -0.043,-0.021 -1.547,0.302 -3.014,0.031 -4.572,-0.379 -2.021,-0.532 -4.121,-0.554 -6.101,-1.063 -0.218,-0.056 -0.309,-0.359 -0.136,-0.515 1.144,-1.035 2.685,-0.767 4.081,-0.389 1.696,0.459 3.311,1.228 5.021,1.492 -1.621,-0.802 -3.274,-1.556 -5.021,-2.014 -2.373,-0.621 -4.723,-0.383 -7.141,-0.331 -0.363,0.008 -0.57,-0.476 -0.301,-0.728 2.84,-2.661 7.203,-1.663 10.49,-0.337 3.265,1.317 6.684,4.157 10.272,5.171 3.504,-1.336 6.933,-2.869 10.284,-4.625 0.312,-0.164 0.62,-0.33 0.928,-0.496 -2.228,-0.366 -4.424,-1.471 -6.17,-2.737 -2.171,-1.576 -4.229,-2.974 -6.958,-3.329 -2.743,-0.357 -5.409,-0.072 -8.138,0.248 -0.374,0.044 -0.375,-0.488 -0.082,-0.605 3.463,-1.388 7.299,-2.674 10.933,-1.705 -0.485,-0.552 -0.942,-1.128 -1.358,-1.734 -0.19,-0.277 0.181,-0.625 0.454,-0.454 1.909,1.196 3.436,2.78 5.02,4.356 1.089,0.822 2.128,1.718 3.263,2.467 1.974,1.304 3.868,1.68 5.949,1.839 1.789,-1.07 3.521,-2.215 5.24,-3.495 1.209,-0.899 2.373,-1.887 3.546,-2.86 0.267,-4.183 0.637,-8.172 1.036,-11.924 1.168,-10.718 2.608,-19.525 3.583,-25.675 1.007,-6.133 1.582,-9.638 1.582,-9.638 l 8.964,1.569 c 0,0 -0.638,3.48 -1.755,9.57 -1.081,6.083 -2.663,14.751 -3.992,25.158 -0.652,5.203 -1.255,10.844 -1.592,16.81 -0.028,0.52 -0.057,1.045 -0.085,1.569 1.711,0.708 3.409,1.393 5.14,1.991 2.387,-0.269 4.675,-0.894 6.822,-2.196 0.362,-0.219 0.715,-0.452 1.064,-0.692 1.238,-3.846 2.857,-7.955 7.231,-9.032 0.502,-0.123 0.953,0.533 0.53,0.912 -1.885,1.687 -3.865,3.298 -4.997,5.624 -0.083,0.171 -0.159,0.367 -0.233,0.577 1.186,-0.967 2.345,-1.971 3.546,-2.903 4.253,-3.298 10.181,-6.397 15.734,-4.579 0.288,0.094 0.297,0.503 0,0.594 -1.67,0.508 -3.419,0.639 -5.088,1.206 -1.822,0.62 -3.684,1.45 -5.359,2.401 -0.454,0.257 -0.892,0.537 -1.323,0.824 2.439,-0.177 5.127,0.169 7.339,0.154 1.892,-0.012 3.542,-0.374 5.333,-0.929 1.192,-0.37 2.136,-0.806 3.371,-0.624 0.251,0.037 0.313,0.397 0.147,0.554 -1.816,1.715 -5.605,2.315 -8.047,2.399 -1.82,0.062 -3.658,0.032 -5.479,0.006 -1.456,-0.022 -3.097,0.098 -4.57,-0.187 -1.3,1 -2.558,2.059 -3.875,3.04 -2.398,1.787 -5.075,3.356 -7.886,4.094 1.164,0.27 2.355,0.486 3.589,0.627 6.79,0.776 13.566,0.482 20.357,-0.124 2.348,-0.209 4.7,-0.428 7.054,-0.617 0.716,-2.18 2.887,-4.362 4.175,-6.007 1.841,-2.35 3.904,-4.127 6.887,-4.761 1.246,-0.265 2.531,-0.428 3.826,-0.522 0.655,-0.581 1.35,-1.332 1.891,-1.616 1.426,-0.749 3.005,-1.23 4.587,-1.515 3.177,-0.571 6.628,-0.698 9.628,0.605 0.349,0.151 0.224,0.691 -0.102,0.779 -3.202,0.871 -6.54,0.14 -9.79,0.796 -0.965,0.194 -1.886,0.491 -2.782,0.86 0.711,0.01 1.418,0.035 2.115,0.075 2.236,0.128 6.268,-0.079 7.679,1.899 0.148,0.208 0.036,0.53 -0.17,0.649 -1.887,1.087 -4.501,-0.111 -6.592,-0.257 -3.048,-0.213 -6.236,-0.178 -9.245,0.396 -0.303,0.058 -0.587,0.136 -0.869,0.216 0.234,0.14 0.478,0.297 0.776,0.456 1.501,0.803 3.159,1.269 4.829,1.559 3.32,0.577 6.661,0.155 9.981,0.67 0.318,0.049 0.268,0.513 0,0.594 -3.446,1.042 -7.307,1.091 -10.822,0.258 -1.769,-0.42 -4.957,-1.322 -6.064,-3.071 -1.919,0.869 -3.349,2.315 -4.774,4.091 -0.862,1.074 -1.772,2.54 -2.858,3.676 3.858,-0.267 7.722,-0.41 11.588,-0.222 2.666,0.13 5.333,0.424 7.96,0.918 2.335,-2.108 6.049,-3.022 8.988,-3.42 3.672,-0.496 7.483,-0.316 10.573,1.883 0.261,0.186 0.203,0.686 -0.18,0.662 -3.283,-0.204 -6.555,-0.857 -9.857,-0.54 -2.452,0.236 -4.551,1.118 -6.706,1.958 2.247,0.45 4.98,1.157 5.83,2.983 0.208,0.445 0.031,0.87 -0.424,1.045 -1.409,0.539 -2.602,-0.108 -4.004,-0.503 -1.608,-0.453 -3.218,-0.847 -4.865,-1.134 -1.562,-0.272 -3.138,-0.453 -4.72,-0.57 3.963,1.919 7.679,4.753 11.215,6.864 1.751,1.045 3.577,1.739 5.45,2.183 1.342,-0.767 2.824,-1.364 4.191,-2.034 1.851,-0.907 3.656,-1.705 5.641,-2.288 0.375,-0.11 0.556,0.402 0.255,0.607 -2.137,1.456 -4.423,2.485 -6.765,3.555 -0.387,0.177 -0.776,0.374 -1.169,0.562 4.607,0.644 9.432,0.026 14.089,-0.506 0.271,-0.031 0.313,0.395 0.063,0.465 -6.566,1.836 -14.364,3.628 -20.903,0.788 -2.553,-1.109 -4.848,-2.792 -7.17,-4.361 0.548,1.248 1.075,2.46 1.936,3.604 2.453,3.258 6.617,5.698 10.59,6.551 0.403,0.087 0.294,0.684 -0.095,0.698 -3.807,0.134 -6.798,-0.884 -9.7,-3.414 -1.298,-1.133 -2.471,-2.492 -3.316,-3.998 -0.859,-1.532 -1.12,-3.512 -1.963,-5.056 -2.633,-1.521 -5.599,-2.723 -8.125,-4.39 -0.011,0 -0.022,0 -0.033,0 -6.962,0.068 -13.874,1.026 -20.81,1.534 1.214,0.663 2.401,1.496 3.456,2.258 2.571,0.167 5.031,0.029 7.601,-0.196 2.07,-0.182 4.517,-0.448 6.283,0.84 0.288,0.21 0.213,0.707 -0.191,0.707 -2.599,-0.002 -5.134,-0.386 -7.767,-0.285 -1.718,0.066 -3.375,0.104 -4.971,-0.376 0.401,0.289 0.773,0.552 1.109,0.772 4.547,2.973 9.435,5.303 15.023,4.227 0.41,-0.079 0.675,0.46 0.292,0.693 -4.258,2.593 -8.945,1.175 -13.03,-1.154 -0.615,-0.351 -1.212,-0.729 -1.8,-1.122 0.357,1.318 0.717,2.454 1.809,3.386 0.92,0.786 2.097,1.21 3.179,1.712 0.286,0.133 0.192,0.574 -0.085,0.65 -1.776,0.486 -3.468,-0.429 -4.651,-1.728 -0.58,-0.637 -1.036,-1.363 -1.333,-2.174 -0.362,-0.987 -0.226,-2.641 -1.064,-3.357 -0.051,-0.037 -0.102,-0.073 -0.152,-0.11 -0.195,-0.124 -0.429,-0.209 -0.725,-0.233 -0.256,-0.02 -0.404,-0.305 -0.283,-0.503 -0.429,-0.313 -0.859,-0.624 -1.294,-0.928 -1.207,-0.845 -2.441,-1.659 -3.78,-2.283 -0.488,-0.227 -0.965,-0.389 -1.427,-0.564 -5.479,0.251 -10.965,0.108 -16.33,-1.172 -3.433,-0.819 -7.145,-1.967 -10.248,-3.894 -0.006,0.144 -0.011,0.286 -0.017,0.43 -0.071,1.587 -0.073,3.073 -0.109,4.633 -0.009,3.125 0.024,6.319 0.193,9.555 0.188,3.71 0.519,7.481 1.016,11.272 1.015,1.269 2.124,2.427 3.357,3.488 2.573,0.51 4.914,-0.588 7.322,-1.621 0.274,-0.921 1.185,-1.735 1.701,-2.531 0.629,-0.97 1.121,-2.051 1.646,-3.079 0.176,-0.343 0.791,-0.196 0.751,0.203 -0.131,1.326 -0.566,2.398 -1.292,3.522 -0.21,0.325 -0.47,0.711 -0.771,1.074 0.549,-0.193 1.106,-0.36 1.673,-0.481 3.398,-0.727 8.117,-0.481 10.853,1.85 0.222,0.189 0.11,0.619 -0.178,0.673 -2.318,0.434 -4.747,-0.364 -7.091,-0.422 -1.083,-0.028 -2.111,0.108 -3.116,0.333 0.771,0.269 1.514,0.599 2.171,0.878 1.527,0.649 3.413,1.444 4.266,2.938 0.145,0.253 -0.093,0.492 -0.348,0.452 -1.578,-0.245 -3.042,-1.388 -4.475,-2.07 -1.222,-0.582 -2.749,-0.909 -4.012,-1.514 -0.891,0.293 -1.781,0.611 -2.693,0.904 -1.023,0.33 -2.479,0.715 -3.899,0.799 0.643,0.432 1.314,0.848 2.021,1.244 3.891,2.179 8.208,3.679 12.629,4.373 1.862,-0.262 3.674,-0.861 5.302,-1.825 0.139,-0.082 0.273,-0.167 0.404,-0.254 -0.089,-0.044 -0.178,-0.088 -0.267,-0.132 -0.194,-0.063 -0.211,-0.356 0,-0.411 0.071,-0.03 0.141,-0.059 0.211,-0.089 -0.51,-1.303 -0.151,-3.116 0.303,-4.297 0.665,-1.731 1.755,-2.942 3.498,-3.611 0.324,-0.124 0.646,0.312 0.455,0.592 -0.785,1.148 -1.563,2.461 -1.984,3.791 -0.213,0.67 -0.368,1.4 -0.427,2.1 -0.014,0.177 -0.015,0.349 -0.014,0.52 0.004,-0.002 0.006,-0.006 0.01,-0.007 0.02,-0.005 0.041,-0.008 0.061,-0.013 1.131,-1.179 2.023,-2.533 3.135,-3.876 2.167,-2.616 6.202,-3.842 9.161,-1.798 0.311,0.214 0.245,0.845 -0.215,0.795 -2.349,-0.256 -4.674,-0.204 -6.586,1.363 -1.08,0.886 -1.88,2.033 -2.743,3.131 0.674,-0.078 1.347,-0.181 2.008,-0.397 1.737,-0.569 3.148,-1.691 4.805,-2.423 0.298,-0.132 0.614,0.141 0.454,0.454 -1.259,2.451 -5.313,4.112 -8.352,3.628 -0.234,0.244 -0.477,0.48 -0.74,0.699 -1.322,1.101 -2.779,1.924 -4.322,2.467 6.138,0.233 12.105,-1.226 18.043,-2.93 0.243,-0.438 0.472,-0.872 0.695,-1.296 -1.098,-1.708 -1.687,-3.925 -1.402,-5.788 0.068,-0.44 0.711,-0.369 0.823,0 0.361,1.191 0.501,2.404 0.948,3.58 0.111,0.291 0.23,0.578 0.353,0.862 0.916,-1.638 1.949,-3.088 3.833,-4.177 0.025,-0.014 0.05,-0.027 0.075,-0.041 0.463,-2.646 2.926,-4.37 5.542,-4.343 0.361,0.004 0.401,0.49 0.082,0.606 -1.421,0.515 -2.564,1.535 -3.437,2.748 2.228,-0.772 4.73,-0.961 6.836,-0.026 0.38,0.168 0.19,0.656 -0.102,0.779 -2.974,1.252 -6.259,0.825 -8.983,2.858 -1.242,0.928 -1.948,2.343 -2.865,3.541 4.824,-1.417 9.642,-2.863 14.532,-3.558 0.499,-0.071 0.95,0.654 0.383,0.909 -2.654,1.195 -5.377,2.209 -8.134,3.128 2.126,0.666 4.246,1.617 6.211,2.205 2.52,-0.491 4.256,-2.58 6.829,-3.091 2.011,-0.399 4.494,-0.36 6.409,0.406 0.222,0.088 0.335,0.433 0.074,0.563 -2.643,1.314 -5.767,0.097 -8.482,1.455 -0.793,0.396 -1.572,0.916 -2.365,1.268 1.152,0.21 2.318,0.316 3.506,0.253 2.015,-0.106 3.889,-0.829 5.886,-0.991 0.182,-0.015 0.284,0.245 0.15,0.364 -2.697,2.404 -7.204,2.223 -10.515,1.444 -2.343,-0.551 -4.619,-1.46 -6.895,-2.233 -0.941,-0.32 -1.926,-0.605 -2.869,-0.971 -3.193,1.008 -6.423,1.912 -9.643,2.823 -6.253,1.769 -12.469,2.852 -18.97,2.012 -3.589,-0.464 -7.097,-1.409 -10.407,-2.828 0.839,1.183 1.612,2.434 2.678,3.427 1.093,1.019 2.477,1.312 3.628,2.188 0.242,0.184 0.305,0.564 0,0.736 -2.151,1.21 -4.54,-1.052 -5.814,-2.625 -0.983,-1.214 -1.779,-2.572 -2.69,-3.838 -0.49,-0.683 -1.107,-1.256 -1.703,-1.838 -0.703,-0.404 -1.395,-0.831 -2.071,-1.283 -1.375,-0.919 -2.85,-2.016 -4.178,-3.275 0.226,1.348 0.468,2.696 0.742,4.043 0.69,3.309 1.481,6.626 2.481,9.889 0.23,0.823 0.52,1.625 0.776,2.44 l 0.397,1.219 0.097,0.268 c 2.622,1.465 5.292,2.613 8.237,3.365 1.55,-0.686 3.161,-1.718 4.815,-2.857 0.004,-0.048 0.013,-0.098 0.034,-0.15 1.26,-3.073 2.755,-9.728 7.551,-7.98 0.289,0.106 0.352,0.477 0.085,0.65 -1.479,0.961 -3.11,0.87 -4.059,2.587 -0.65,1.175 -1.222,2.404 -1.797,3.627 5.042,-3.539 10.409,-7.203 15.61,-4.355 0.494,0.27 0.213,0.92 -0.263,0.972 -5.038,0.544 -8.939,2.131 -13.138,4.936 -1.798,1.202 -3.695,2.605 -5.724,3.196 0.115,0.017 0.228,0.038 0.344,0.054 6.991,0.97 13.963,-0.064 20.848,-1.32 0.26,-0.047 0.522,-0.097 0.784,-0.145 0.606,-1.4 1.736,-2.578 2.72,-3.735 0.345,-0.405 0.694,-0.805 1.049,-1.2 -0.146,-0.092 -0.252,-0.242 -0.238,-0.425 0.156,-2.11 0.295,-4.554 1.64,-6.287 1.293,-1.666 2.816,-2.172 4.844,-2.213 0.357,-0.007 0.413,0.436 0.167,0.618 -1.339,0.994 -3.327,2.161 -3.99,3.715 -0.417,0.976 -0.576,2.031 -0.926,3.005 0.614,-0.625 1.242,-1.236 1.898,-1.819 2.4,-2.133 4.933,-4.112 8.236,-3.066 0.275,0.087 0.31,0.524 0,0.594 -3.43,0.777 -6.075,3.037 -8.531,5.409 -1.206,1.166 -2.389,2.35 -3.512,3.597 -0.419,0.465 -0.803,0.942 -1.201,1.397 4.785,-0.923 9.683,-1.896 14.542,-2.027 1.535,-0.802 2.732,-2.106 3.963,-3.365 0.029,-0.175 0.171,-0.327 0.36,-0.365 0.717,-0.718 1.458,-1.402 2.296,-1.945 2.83,-1.834 6.187,-1.788 9.138,-0.362 0.365,0.177 0.182,0.761 -0.203,0.751 -1.883,-0.047 -3.992,-0.36 -5.845,0.053 -1.273,0.283 -2.294,0.907 -3.243,1.675 1.186,0.227 2.385,0.586 3.547,0.702 1.933,0.193 3.859,0.284 5.794,0.513 0.219,0.026 0.401,0.372 0.131,0.486 -2.979,1.26 -7.916,1.483 -10.907,-0.425 -0.887,0.837 -1.726,1.642 -2.655,2.291 0.103,0.003 0.206,0.003 0.309,0.008 3.466,0.151 6.855,1.053 10.128,2.3 4.411,-0.616 8.827,-1.74 13.248,-1.829 3.063,-0.062 8.304,0.31 9.795,3.526 0.137,0.296 -0.088,0.639 -0.428,0.557 -1.889,-0.457 -3.487,-1.635 -5.432,-2.029 -1.846,-0.373 -3.742,-0.354 -5.614,-0.223 2.609,1.122 5.21,2.291 7.756,3.532 0.232,0.113 0.058,0.43 -0.164,0.39 -3.289,-0.582 -6.548,-1.917 -9.357,-3.76 -2.383,0.276 -4.793,0.763 -7.193,0.904 1.856,0.812 3.669,1.705 5.431,2.6 0.529,0.268 0.143,1.014 -0.383,0.91 -5.252,-1.043 -10.304,-3.106 -15.555,-3.917 1.415,1.214 2.599,2.881 3.516,4.172 1.665,2.346 3.392,4.2 6.054,5.398 2.313,1.041 4.777,1.549 7.218,2.184 0.239,0.062 0.18,0.409 -0.057,0.419 -3.898,0.168 -7.985,-0.882 -11.072,-3.346 -1.454,-1.16 -2.537,-2.633 -3.56,-4.164 0.103,0.844 0.011,1.739 0.106,2.688 0.28,2.797 2.523,2.989 4.148,4.615 0.167,0.168 0.103,0.504 -0.147,0.555 -1.646,0.339 -3.597,-1.024 -4.483,-2.352 -1.424,-2.136 -0.546,-4.8 -1,-7.178 -0.015,-0.082 0.006,-0.161 0.046,-0.228 -1.047,-1.343 -2.174,-2.359 -3.66,-3.065 -0.846,-0.045 -1.698,-0.051 -2.558,-0.002 -6.516,0.366 -12.914,1.925 -19.355,2.951 2.728,0.547 5.447,1.522 8.006,2.071 0.109,0.023 0.219,0.043 0.328,0.065 2.97,-2.39 9.13,-4.52 12.425,-2.749 0.359,0.193 0.21,0.649 -0.102,0.78 -2.379,0.998 -5.206,0.768 -7.709,1.637 -0.569,0.198 -1.178,0.51 -1.797,0.783 4.198,0.483 8.432,0.128 12.43,-1.272 0.247,-0.087 0.498,0.234 0.348,0.452 -2.527,3.679 -9.051,2.639 -12.839,2.298 -2.553,-0.23 -4.957,-0.891 -7.419,-1.564 -2.946,-0.805 -5.999,-1.107 -8.944,-1.803 -4.54,0.473 -9.155,0.585 -13.649,-0.198 1.561,0.788 3.099,1.638 4.47,2.693 0.474,0.365 0.907,0.748 1.3,1.147 0.88,0.463 1.785,0.878 2.762,1.163 2.798,0.815 7.179,1.141 9.851,-0.249 0.249,-0.129 0.516,0.034 0.535,0.307 0.218,3.2 -6.274,2.183 -7.929,1.972 -1.166,-0.149 -2.339,-0.441 -3.481,-0.852 1.279,2.362 1.494,5.1 0.707,8.034 -0.072,0.269 -0.479,0.273 -0.549,0 -0.537,-2.091 -0.984,-4.514 -1.894,-6.468 -1.012,-2.172 -2.944,-3.436 -4.881,-4.7 -3.464,-2.261 -7.58,-3.942 -10.874,-6.449 -0.082,-0.045 -0.162,-0.093 -0.244,-0.14 l 0.007,0.019 0.027,0.075 c 0,0 0.041,0.107 0.005,0.019 l 0.062,0.154 0.124,0.308 0.994,2.466 c 0.331,0.826 0.681,1.559 1.02,2.344 l 0.512,1.159 0.553,1.165 1.12,2.328 1.179,2.304 c 1.57,2.983 3.208,5.928 4.941,8.81 1.313,0.739 2.623,1.469 3.949,2.171 1.594,0.005 3.187,-0.351 4.657,-1.142 2.211,-1.192 4.037,-2.92 6.131,-4.266 0.888,-0.997 1.456,-2.229 2.328,-3.352 0.854,-1.1 1.822,-2.108 2.936,-2.949 2.288,-1.73 5.076,-2.87 7.847,-1.757 0.246,0.099 0.335,0.537 0,0.594 -3.906,0.661 -7.05,1.835 -9.648,4.988 -0.259,0.314 -0.526,0.701 -0.808,1.11 4.947,-1.925 11.129,-1.397 15.687,1.192 0.232,0.132 0.077,0.51 -0.183,0.433 -3.602,-1.064 -7.43,-1.516 -11.098,-0.488 -3.483,0.975 -6.321,2.864 -9.322,4.785 -1.889,1.209 -3.957,1.922 -6.037,2.118 1.745,0.845 3.537,1.616 5.417,2.261 5.818,1.998 11.903,3.097 18.048,3.331 1.458,0.055 2.913,0.04 4.365,-0.016 2.615,-1.141 4.773,-2.991 7.129,-4.841 0.378,-0.593 0.718,-1.218 0.938,-2 0.352,-1.249 0.516,-2.539 1.059,-3.73 0.708,-1.555 2.299,-3.955 4.282,-3.359 0.262,0.078 0.397,0.384 0.254,0.626 -0.599,1.018 -1.708,1.52 -2.372,2.526 -0.805,1.222 -1.231,2.627 -1.729,3.987 -0.025,0.066 -0.051,0.134 -0.077,0.201 2.647,-1.783 6.907,-3.868 9.762,-2.255 0.216,0.122 0.306,0.499 0.087,0.67 -1.63,1.267 -3.865,1.009 -5.766,1.745 -2.34,0.906 -4.337,2.551 -6.331,4.037 -0.948,0.706 -1.968,1.448 -3.04,2.116 3.413,-0.306 6.816,-0.77 10.223,-1.173 2.744,-0.325 5.5,-0.605 8.263,-0.691 1.206,-0.822 2.226,-1.948 3.379,-2.836 1.21,-0.931 2.468,-1.806 3.792,-2.567 0.225,-1.526 1.85,-3.432 2.567,-4.291 1.607,-1.927 3.555,-3.308 5.916,-4.118 0.285,-0.098 0.532,0.316 0.299,0.515 -1.73,1.477 -3.427,3.024 -4.91,4.751 -0.54,0.629 -1.035,1.27 -1.503,1.937 2.355,-1.054 5.169,-1.857 7.476,-0.634 0.278,0.148 0.277,0.589 0,0.737 -1.479,0.788 -3.144,0.981 -4.73,1.478 -2.156,0.677 -4.163,1.694 -6.055,2.92 -0.724,0.468 -1.646,1.315 -2.646,2.085 2.309,0.043 4.523,0.307 6.472,1.729 0.295,0.215 0.298,0.721 -0.107,0.823 -3.079,0.778 -6.189,0.079 -9.352,0.139 -2.957,0.056 -5.901,0.342 -8.838,0.682 1.929,0.8 3.758,2.027 5.463,3.052 1.383,0.831 2.773,1.668 4.208,2.412 1.31,0.086 2.62,0.204 3.952,0.107 2.086,-0.153 4.335,-1.161 6.381,-0.907 0.268,0.034 0.46,0.347 0.235,0.567 -1.487,1.451 -4.172,1.603 -6.181,1.728 -0.279,0.018 -0.566,0.032 -0.859,0.041 2.028,0.663 4.154,0.914 6.164,1.612 0.383,0.133 0.382,0.644 0,0.777 -3.713,1.301 -8.097,-0.942 -11.311,-2.698 -3.707,-2.027 -7.445,-5.292 -11.665,-6.258 -5.42,0.65 -10.832,1.23 -16.294,0.931 2.782,1.452 5.511,3.021 8.379,4.306 2.197,0.984 4.562,1.728 6.874,2.566 0.376,-0.352 0.82,-0.657 1.368,-0.892 1.93,-0.827 5.576,-0.893 6.986,0.89 0.167,0.211 0.214,0.609 -0.096,0.744 -1.862,0.817 -3.824,-0.227 -5.716,0.247 0.976,0.417 1.929,0.873 2.834,1.403 0.36,0.21 0.213,0.805 -0.215,0.795 -1.574,-0.038 -3.15,-0.351 -4.705,-0.819 -0.528,0.652 -0.916,1.422 -1.363,2.147 2.907,-0.649 5.966,-0.789 8.353,0.164 0.356,0.142 0.587,0.757 0.125,0.953 -2.055,0.873 -4.275,0.662 -6.463,0.899 -3.152,0.342 -5.933,1.371 -8.7,2.882 -2.177,1.188 -4.291,2.504 -6.513,3.607 -0.451,0.223 -0.95,0.51 -1.469,0.765 6.071,1.112 12.201,1.115 18.348,1.085 1.314,-0.506 2.608,-1.157 3.765,-1.598 2.218,-0.845 4.442,-1.68 6.73,-2.319 0.279,-0.078 0.573,-0.158 0.872,-0.239 1.857,-1.218 3.783,-2.178 5.882,-2.912 1.834,-0.641 3.973,-1.5 5.916,-1.072 0.343,0.075 0.387,0.569 0.096,0.736 -1.568,0.9 -3.538,0.967 -5.267,1.483 -0.845,0.252 -1.679,0.548 -2.507,0.862 2.545,-0.387 5.175,-0.381 7.116,0.778 0.271,0.161 0.263,0.682 -0.096,0.736 C 36.551,0.817 34.295,0.302 32.056,0.5 29.117,0.759 26.248,1.554 23.455,2.474 21.986,2.957 20.535,3.5 19.077,4.019 25.154,4.015 31.293,4.19 37.213,5.656 c 0.601,0.149 1.269,0.318 1.97,0.514 3.728,0.165 7.428,-0.678 11.166,-0.146 2.421,0.344 6.533,1.517 6.929,4.413 0.04,0.289 -0.229,0.574 -0.522,0.401" />
      </g>
    </g>
  </g>
</svg>
