<?xml version="1.0" encoding="utf-8"?>
<!-- Generator: Adobe Illustrator 19.1.1, SVG Export Plug-In . SVG Version: 6.00 Build 0)  -->
<svg version="1.1"  xmlns="http://www.w3.org/2000/svg" xmlns:xlink="http://www.w3.org/1999/xlink" x="0px" y="0px"
	 viewBox="0 0 48 48" enable-background="new 0 0 48 48" xml:space="preserve">
<path fill="#8BC34A" d="M31,10.8c0,0-3.4-0.5-4,2.2c-0.5,1.9-5.4,2.3-6,0c-0.7-2.7-4-2.2-4-2.2s3-3.2,3-7.8c1.4,1.3,3.1,4.7,4,6
	c0,0,0,0,0,0s2-4.1,4-6C28,7.7,31,10.8,31,10.8z M36,36c0,0-4.4,3.9-1,4c4.9,0.1,6-6,6-6c-1.6,1.4-3,1-3,1L36,36z M40,26
	c4.3-4.3,0-11,0-11s0.4,4-1,4c-0.8,0-2-1-2-1S35.9,30.1,40,26z M9,14c0,0-3.9,4.7-1,11c2,4.5,3-8,3-8S8.8,20.6,9,14z M12,38
	c0,0-1.4-10.3-3-8s-3,0-3,0C6.3,37.8,12,38,12,38z"/>
<path fill="#F50057" d="M24,9C15.2,9,8,17.1,8,27s7.2,18,16,18s16-8.1,16-18S32.8,9,24,9L24,9z"/>
<path fill="#EEEEEE" d="M27.2,12.5C27.2,12.5,27.2,12.5,27.2,12.5c0,0-2.7-1.2-3.2-3.5c0,0,0.2,1.8-3.2,3.5c0,0-0.1,0-0.1,0
	C15.1,14.2,11,20,11,27c0,8.3,5.8,15,13,15s13-6.7,13-15C37,20,32.8,14.1,27.2,12.5z"/>
<path fill="#455A64" d="M24,15c0,0.6-0.4,1-1,1s-1-0.4-1-1s0.4-1,1-1S24,14.4,24,15z M30,17c-0.6,0-1,0.4-1,1s0.4,1,1,1s1-0.4,1-1
	S30.6,17,30,17z M27,18c-0.6,0-1,0.4-1,1s0.4,1,1,1s1-0.4,1-1S27.6,18,27,18z M29,22c0,0.6,0.4,1,1,1s1-0.4,1-1s-0.4-1-1-1
	S29,21.4,29,22z M17,19c-0.6,0-1,0.4-1,1s0.4,1,1,1s1-0.4,1-1S17.6,19,17,19z M14,26c-0.6,0-1,0.4-1,1s0.4,1,1,1s1-0.4,1-1
	S14.6,26,14,26z M21,23c-0.6,0-1,0.4-1,1s0.4,1,1,1s1-0.4,1-1S21.6,23,21,23z M25,24c-0.6,0-1,0.4-1,1s0.4,1,1,1s1-0.4,1-1
	S25.6,24,25,24z M34,24c-0.6,0-1,0.4-1,1s0.4,1,1,1s1-0.4,1-1S34.6,24,34,24z M31,26c-0.6,0-1,0.4-1,1s0.4,1,1,1s1-0.4,1-1
	S31.6,26,31,26z M32,32c0,0.6,0.4,1,1,1s1-0.4,1-1s-0.4-1-1-1S32,31.4,32,32z M29,35c0,0.6,0.4,1,1,1s1-0.4,1-1s-0.4-1-1-1
	S29,34.4,29,35z M23,37c-0.6,0-1,0.4-1,1s0.4,1,1,1s1-0.4,1-1S23.6,37,23,37z M19,35c-0.6,0-1,0.4-1,1s0.4,1,1,1s1-0.4,1-1
	S19.6,35,19,35z M17,29c-0.6,0-1,0.4-1,1s0.4,1,1,1s1-0.4,1-1S17.6,29,17,29z M23,29c-0.6,0-1,0.4-1,1s0.4,1,1,1s1-0.4,1-1
	S23.6,29,23,29z"/>
</svg>
