<?xml version="1.0" encoding="iso-8859-1"?>
<!-- Generator: Adobe Illustrator 20.0.0, SVG Export Plug-In . SVG Version: 6.00 Build 0)  -->
<svg version="1.1"  xmlns="http://www.w3.org/2000/svg" xmlns:xlink="http://www.w3.org/1999/xlink" x="0px" y="0px"
	 viewBox="0 0 48 48" style="enable-background:new 0 0 48 48;" xml:space="preserve">
<path style="fill:none;stroke:#F57F17;stroke-width:2;stroke-miterlimit:10;" d="M25,8c0.015-3.596,4-6.181,4-6.181"/>
<polygon style="fill:#CDDC39;" points="24,5 25.734,6.767 27.763,5.437 29.127,7.564 31.362,6.729 32.295,9.123 34.638,8.82 
	35.101,11.376 37.45,11.617 37.422,14.224 39.674,15 39.157,17.543 41.213,18.82 40.228,21.188 42,22.909 40.591,25 42,27.091 
	40.228,28.812 41.213,31.18 39.157,32.457 39.674,35 37.422,35.776 37.45,38.383 35.101,38.624 34.638,41.18 32.295,40.877 
	31.362,43.271 29.127,42.436 27.763,44.563 25.734,43.233 24,45 22.266,43.233 20.237,44.563 18.873,42.436 16.638,43.271 
	15.705,40.877 13.362,41.18 12.899,38.624 10.55,38.383 10.578,35.776 8.326,35 8.843,32.457 6.787,31.18 7.772,28.812 6,27.091 
	7.409,25 6,22.909 7.772,21.188 6.787,18.82 8.843,17.543 8.326,15 10.578,14.224 10.55,11.617 12.899,11.376 13.362,8.82 
	15.705,9.123 16.638,6.729 18.873,7.564 20.237,5.437 22.266,6.767 "/>
<ellipse style="fill:#FFF9C4;" cx="24" cy="25" rx="14" ry="16"/>
<g>
	<path style="fill:#FFC107;" d="M23,20.859v-8.624c0-0.641-0.597-1.121-1.224-0.984c-4.678,1.023-8.393,5.212-9.456,10.59
		C12.1,22.954,12.922,24,14.056,24h5.803C21.594,24,23,22.594,23,20.859z"/>
	<path style="fill:#FFC107;" d="M28.141,24h5.803c1.134,0,1.956-1.046,1.736-2.159c-1.063-5.378-4.778-9.567-9.456-10.59
		C25.597,11.114,25,11.593,25,12.235v8.624C25,22.594,26.406,24,28.141,24z"/>
	<path style="fill:#FFC107;" d="M19.859,26h-5.803c-1.134,0-1.956,1.046-1.736,2.159c1.063,5.378,4.778,9.567,9.456,10.59
		C22.403,38.886,23,38.407,23,37.765v-8.624C23,27.406,21.594,26,19.859,26z"/>
	<path style="fill:#FFC107;" d="M25,29.141v8.624c0,0.641,0.597,1.121,1.224,0.984c4.678-1.023,8.393-5.212,9.456-10.59
		C35.9,27.046,35.078,26,33.944,26h-5.803C26.406,26,25,27.406,25,29.141z"/>
</g>
</svg>
