<?xml version="1.0" encoding="utf-8"?>
<!-- Generator: Adobe Illustrator 19.1.1, SVG Export Plug-In . SVG Version: 6.00 Build 0)  -->
<svg version="1.1"  xmlns="http://www.w3.org/2000/svg" xmlns:xlink="http://www.w3.org/1999/xlink" x="0px" y="0px"
	 viewBox="0 0 48 48" enable-background="new 0 0 48 48" xml:space="preserve">
<path fill="#4A148C" d="M12.7,45C7.3,45,3,40.6,3,35.3c0-7.6,4.6-9.3,9.4-11c2.5-0.9,5.2-1.8,7.6-3.7c1.8-1.3,3.4-2.9,5-4.6
	c2.1-2.3,3.7-3.6,4-4c0.2-0.3,2.8-1.5,3-1.3c0,0,4.2-1.4,7,1.3s2,7.7,2,8C40,30.4,27,45,12.7,45z"/>
<path fill="#4CAF50" d="M43,3l2,2c0,0-2.2,3.8-4,6c1.4,1.8,3.1,4.8,1,10c-2.1-0.6-4-5-4-5s-1.2,1.5-5,2c-0.3-3.7,1-5,1-5
	s-4.6,0.4-6-1c0,0,2.8-5.3,10-3C40.8,7,43,3,43,3z"/>
<path fill="none" stroke="#9575CD" stroke-width="2" stroke-linecap="round" stroke-miterlimit="10" d="M7,35c0,0-0.6-3.5,5-6
	s12-4.7,17-11"/>
</svg>
