<?xml version="1.0" encoding="iso-8859-1"?>
<!-- Generator: Adobe Illustrator 19.1.1, SVG Export Plug-In . SVG Version: 6.00 Build 0)  -->
<svg version="1.1" id="Layer_1" xmlns="http://www.w3.org/2000/svg" xmlns:xlink="http://www.w3.org/1999/xlink" x="0px" y="0px"
	 viewBox="0 0 48 48" style="enable-background:new 0 0 48 48;" xml:space="preserve">
<ellipse style="fill:#CE8B05;" cx="24" cy="19.5" rx="17" ry="5.5"/>
<path style="fill:#3F51B5;" d="M29,33L29,33l-5,1l-5-1c0,0-11,1.986-11,13h32C40,35.025,29,33,29,33"/>
<polygon style="fill:#FF9800;" points="24,39 19,33 19,27 29,27 29,33 "/>
<path style="fill:#FFA726;" d="M35,21c0,1.105-0.896,2-2,2c-1.105,0-2-0.895-2-2s0.895-2,2-2C34.104,19,35,19.895,35,21 M17,21
	c0-1.105-0.896-2-2-2c-1.106,0-2,0.895-2,2s0.894,2,2,2C16.104,23,17,22.105,17,21"/>
<path style="fill:#FFB74D;" d="M33,15c0-7.635-18-4.971-18,0v7c0,4.971,4.028,9,9,9c4.971,0,9-4.029,9-9V15z"/>
<path style="fill:#784719;" d="M27,21c0-0.551,0.448-1,1-1s1,0.449,1,1s-0.448,1-1,1S27,21.551,27,21 M19,21c0,0.551,0.448,1,1,1
	s1-0.449,1-1s-0.448-1-1-1S19,20.449,19,21"/>
<path style="fill:#4CAF50;" d="M30,33.254V42H18v-8.749c-0.945,0.28-2.445,0.823-4,1.791V42v2v2h20v-2v-2v-6.941
	C32.444,34.086,30.944,33.536,30,33.254z"/>
<path style="fill:#1B5E20;" d="M15,44c0-0.553,0.447-1,1-1c0.552,0,1,0.447,1,1s-0.448,1-1,1C15.447,45,15,44.553,15,44z M32,45
	c0.552,0,1-0.447,1-1s-0.448-1-1-1c-0.553,0-1,0.447-1,1S31.447,45,32,45z"/>
<path style="fill:#CE8B05;" d="M24,14c-3.743,0-7.192,0.396-10,1.059V18c0,0,3-2,10-2s10,2,10,2v-2.941
	C31.191,14.396,27.742,14,24,14z"/>
<path style="fill:#FBC02D;" d="M28,4c-2,0-2,2-4,2s-2-2-4-2s-6,6.029-6,11v0.059C16.808,14.396,20.257,14,24,14
	c3.742,0,7.191,0.396,10,1.059V15C34,10.029,30,4,28,4z"/>
<path style="fill:#ED9F21;" d="M14.422,12C14.158,13.004,14,14.023,14,15c0,0,4-1,10-1s10,1,10,1c0-0.977-0.159-1.996-0.423-3
	c0,0-5.577-1-9.577-1S14.422,12,14.422,12z"/>
<g>
	<path style="fill:#424242;" d="M32,21l2-1.742V18c0,0-0.641-0.421-2-0.877V21z"/>
	<path style="fill:#424242;" d="M14,18v1.286L16,21v-3.877C14.641,17.579,14,18,14,18z"/>
</g>
</svg>
