<?xml version="1.0" encoding="utf-8"?>
<!-- Generator: Adobe Illustrator 15.0.0, SVG Export Plug-In . SVG Version: 6.00 Build 0)  -->
<!DOCTYPE svg PUBLIC "-//W3C//DTD SVG 1.1//EN" "http://www.w3.org/Graphics/SVG/1.1/DTD/svg11.dtd">
<svg version="1.1"  xmlns="http://www.w3.org/2000/svg" xmlns:xlink="http://www.w3.org/1999/xlink" x="0px" y="0px"
	 width="48px" height="48px" viewBox="0 0 48 48" enable-background="new 0 0 48 48" xml:space="preserve">
<g>
	<path fill="#1565C0" d="M33.148,7.77c2.722,1.57,3.661,5.059,2.091,7.78c-1.584,2.733-10.639,7.026-10.639,7.026
		s-0.816-9.995,0.768-12.729C26.938,7.126,30.427,6.186,33.148,7.77"/>
	<path fill="#1565C0" d="M14.852,40.235c-2.722-1.571-3.661-5.06-2.091-7.78c1.584-2.734,10.639-7.026,10.639-7.026
		s0.816,9.995-0.768,12.729C21.062,40.879,17.573,41.807,14.852,40.235"/>
	<path fill="#1565C0" d="M43,23.998c0,3.143-2.548,5.703-5.702,5.703c-3.143,0-11.393-5.703-11.393-5.703s8.25-5.702,11.393-5.702
		C40.452,18.296,43,20.844,43,23.998"/>
	<path fill="#1565C0" d="M5,23.998c0-3.154,2.548-5.702,5.702-5.702c3.143,0,11.393,5.702,11.393,5.702s-8.25,5.703-11.393,5.703
		C7.548,29.701,5,27.141,5,23.998"/>
	<path fill="#1565C0" d="M33.148,40.235c-2.722,1.571-6.21,0.644-7.78-2.078c-1.584-2.733-0.768-12.729-0.768-12.729
		s9.055,4.292,10.639,7.026C36.81,35.176,35.87,38.664,33.148,40.235"/>
	<path fill="#1565C0" d="M14.852,7.77c2.722-1.584,6.21-0.644,7.78,2.078c1.584,2.733,0.768,12.729,0.768,12.729
		s-9.055-4.293-10.639-7.026C11.19,12.828,12.13,9.34,14.852,7.77"/>
</g>
<g>
	<path fill="#2196F3" d="M24,5.012c3.319,0,6,2.682,6,6.001c0,3.306-6,12.988-6,12.988s-6-9.683-6-12.988
		C18,7.693,20.681,5.012,24,5.012"/>
	<path fill="#2196F3" d="M7.448,14.692c1.627-2.894,5.278-3.915,8.171-2.288C18.501,14.024,24,24,24,24s-11.381,0.483-14.263-1.137
		C6.845,21.236,5.821,17.586,7.448,14.692"/>
	<path fill="#2196F3" d="M40.588,14.758c1.616,2.9,0.578,6.547-2.321,8.162C35.379,24.529,24,24.001,24,24.001
		s5.538-9.954,8.426-11.563C35.325,10.822,38.973,11.858,40.588,14.758"/>
	<path fill="#2196F3" d="M24,42.988c-3.319,0-6-2.682-6-6.001c0-3.306,6-12.988,6-12.988s6,9.683,6,12.988
		C30,40.307,27.319,42.988,24,42.988"/>
	<path fill="#2196F3" d="M7.412,33.242c-1.616-2.9-0.578-6.547,2.321-8.162C12.621,23.471,24,23.999,24,23.999
		s-5.538,9.954-8.426,11.563C12.675,37.178,9.027,36.142,7.412,33.242"/>
	<path fill="#2196F3" d="M40.552,33.308c-1.627,2.894-5.278,3.915-8.171,2.288C29.499,33.976,24,24,24,24s11.381-0.483,14.263,1.137
		C41.155,26.764,42.179,30.414,40.552,33.308"/>
</g>
<path fill="#FF9800" d="M24,16.998c3.865,0,7,3.125,7,7c0,3.864-3.135,7-7,7s-7-3.136-7-7C17,20.123,20.135,16.998,24,16.998"/>
<path fill="#FFEB3B" d="M24,19.998c2.207,0,4,1.793,4,4c0,2.208-1.793,4-4,4s-4-1.792-4-4C20,21.791,21.793,19.998,24,19.998"/>
</svg>
