<?xml version="1.0" encoding="utf-8"?>
<!-- Generator: Adobe Illustrator 15.0.0, SVG Export Plug-In . SVG Version: 6.00 Build 0)  -->
<!DOCTYPE svg PUBLIC "-//W3C//DTD SVG 1.1//EN" "http://www.w3.org/Graphics/SVG/1.1/DTD/svg11.dtd">
<svg version="1.1"  xmlns="http://www.w3.org/2000/svg" xmlns:xlink="http://www.w3.org/1999/xlink" x="0px" y="0px"
	 width="48px" height="48px" viewBox="0 0 48 48" enable-background="new 0 0 48 48" xml:space="preserve">
<rect x="19" y="37" fill="#2E7D32" width="19" height="7"/>
<g>
	<path fill="#4CAF50" d="M38,10c-2,0-3,2-3,3c0,0.572,0,4.999,0,4.999c0,0.553-0.447,1-1,1L24,19.01c-0.553,0-1-0.447-1-1V9
		c0-1.106-1-2.989-3-2.989S17,8,17,9s0,17.099,0,17.099l-4.375-4.031c-1.39-1.392-3.448-1.518-4.838,0.182
		c-1.235,1.392-0.928,3.555,0.31,4.789l5.692,5.692C16.722,35.666,19,37,19,37h19.043C39.915,35.782,41,33.747,41,30.845
		c0,0,0-16.845,0-17.845S40,10,38,10z"/>
	<path fill="#4CAF50" d="M23,21.086C23,22.689,24.35,24,26,24c1.651,0,3-1.311,3-2.914V5.912C29,4.31,27.651,3,26,3
		c-1.65,0-3,1.31-3,2.912V21.086z"/>
	<path fill="#4CAF50" d="M29,20.999c0,1.604,1.35,2.914,3,2.914c1.651,0,3-1.311,3-2.914V7.912C35,6.31,33.651,5,32,5
		c-1.65,0-3,1.31-3,2.912V20.999z"/>
</g>
<g>
	<path fill="#388E3C" d="M36,22c0.553,0,1-0.447,1-1V10.205c-1.326,0.521-2,1.98-2,2.795v8C35,21.553,35.447,22,36,22z"/>
	<path fill="#388E3C" d="M30,21c0.553,0,1-0.447,1-1V5.18c-1.16,0.403-2,1.472-2,2.732V20C29,20.553,29.447,21,30,21z"/>
	<path fill="#388E3C" d="M24,21c0.553,0,1-0.447,1-1V3.18c-1.16,0.403-2,1.472-2,2.732V9v11C23,20.553,23.448,21,24,21z"/>
</g>
<g>
	<path fill="#FFFFFF" d="M26.487,24.998c0-1.105,0.899-1.998,2.013-1.998s2.014,0.893,2.014,1.998C30.514,26.105,28.5,29,28.5,29
		S26.487,26.105,26.487,24.998"/>
	<path fill="#FFFFFF" d="M30.514,32.999c0,1.108-0.9,2.001-2.014,2.001s-2.013-0.893-2.013-2.001C26.487,31.894,28.5,29,28.5,29
		S30.514,31.894,30.514,32.999"/>
	<path fill="#FFFFFF" d="M24.008,28.734C23.044,28.18,22.714,26.958,23.27,26c0.555-0.957,1.787-1.285,2.75-0.729
		c0.963,0.553,2.479,3.731,2.479,3.731S24.971,29.285,24.008,28.734"/>
	<path fill="#FFFFFF" d="M32.993,29.267c0.963,0.553,1.293,1.777,0.737,2.731c-0.556,0.958-1.787,1.287-2.751,0.734
		C30.016,32.179,28.5,29,28.5,29S32.029,28.715,32.993,29.267"/>
	<path fill="#FFFFFF" d="M32.993,28.732c0.963-0.555,1.293-1.776,0.737-2.734c-0.556-0.957-1.787-1.285-2.751-0.729
		C30.016,25.821,28.5,29,28.5,29S32.029,29.283,32.993,28.732"/>
	<path fill="#FFFFFF" d="M24.008,29.267c-0.963,0.553-1.293,1.777-0.738,2.731c0.555,0.958,1.787,1.287,2.75,0.734
		C26.983,32.179,28.5,29,28.5,29S24.971,28.715,24.008,29.267"/>
</g>
<path fill="#FFC107" d="M30.5,29.004c0,1.103-0.895,1.996-2,1.996s-2-0.894-2-1.996c0-1.109,0.895-2.004,2-2.004
	S30.5,27.895,30.5,29.004"/>
</svg>
