<?xml version="1.0" encoding="utf-8"?>
<!-- Generator: Adobe Illustrator 15.0.0, SVG Export Plug-In . SVG Version: 6.00 Build 0)  -->
<!DOCTYPE svg PUBLIC "-//W3C//DTD SVG 1.1//EN" "http://www.w3.org/Graphics/SVG/1.1/DTD/svg11.dtd">
<svg version="1.1"  xmlns="http://www.w3.org/2000/svg" xmlns:xlink="http://www.w3.org/1999/xlink" x="0px" y="0px"
	 width="48px" height="48px" viewBox="0 0 48 48" enable-background="new 0 0 48 48" xml:space="preserve">
<path fill="#CFD8DC" d="M24,42c-1.934,0-3.837-0.71-5.317-1.967c-1.035,0.365-2.103,0.551-3.183,0.551c-5.238,0-9.5-4.262-9.5-9.501
	c0-6.222,5.038-8.805,9.086-10.881C17.723,18.851,20,17.683,20,16V6l3,2l2-2l3.041,2.549V16c-0.054,1.142,2.062,2.258,4.301,3.439
	C36.418,21.59,42,24.535,42,31.083c0,5.239-4.262,9.501-9.5,9.501c-1.012,0-2.159-0.203-3.18-0.554C27.839,41.289,25.935,42,24,42z"
	/>
<path fill="#B0BEC5" d="M8.593,32.218c-0.044-0.251-0.075-0.505-0.097-0.76c-0.006-0.102-0.011-0.317-0.018-0.325l0.004-0.52
	c-0.01-0.445,0.049-1.01,0.135-1.502c0.17-1.011,0.553-1.97,1.146-2.951c1.18-1.98,3.324-3.781,5.322-5.958
	C11.038,22.278,6,24.861,6,31.083c0,5.239,4.262,9.501,9.5,9.501c1.08,0,2.147-0.186,3.183-0.551
	C12.774,39.91,9.25,36.211,8.593,32.218z"/>
<g>
	<path fill="#90A4AE" d="M37.917,24.958c1.54,2.074,2.236,4.958,1.666,7.209c-1.827,7.206-9.404,7.489-10.182,7.627L29.32,40.03
		c1.021,0.351,2.168,0.554,3.18,0.554c5.238,0,9.5-4.262,9.5-9.501c0-6.548-5.582-9.493-9.658-11.644l0,0
		C34.673,21.101,36.41,22.835,37.917,24.958z"/>
	<g>
		<path fill="#90A4AE" d="M26.833,22.113c2.784,2.232,4.664,5.645,5.305,9.326c0.152,0.92,0.274,1.845,0.221,2.876
			c-0.057,1.03-0.325,2.06-0.771,3.011c-0.892,1.909-2.578,3.445-4.573,4.172c-1.007,0.36-2.034,0.528-3.122,0.511
			c-0.998-0.025-2.083-0.238-3.04-0.646c-1.94-0.808-3.537-2.394-4.292-4.299c-0.383-0.945-0.601-1.95-0.597-2.944
			c-0.002-0.25,0.014-0.492,0.033-0.743l0.077-0.684c0.063-0.457,0.137-0.909,0.237-1.354c0.427-1.772,1.059-3.474,2.023-4.977
			c-0.339,1.738-0.559,3.459-0.56,5.151c-0.004,0.422-0.002,0.841,0.021,1.257l0.046,0.627c0.022,0.185,0.045,0.38,0.083,0.565
			c0.142,0.747,0.376,1.459,0.748,2.09c0.745,1.257,1.892,2.209,3.215,2.66c0.669,0.226,1.329,0.35,2.079,0.334
			c0.658-0.004,1.382-0.124,2.016-0.364c1.296-0.463,2.4-1.416,3.072-2.635c0.341-0.608,0.563-1.286,0.682-1.994
			c0.097-0.711,0.108-1.54,0.085-2.355C29.658,28.445,28.651,25.142,26.833,22.113z"/>
	</g>
</g>
</svg>
