<?xml version="1.0" encoding="iso-8859-1"?>
<!-- Generator: Adobe Illustrator 19.0.0, SVG Export Plug-In . SVG Version: 6.00 Build 0)  -->
<svg version="1.1" id="Layer_1" xmlns="http://www.w3.org/2000/svg" xmlns:xlink="http://www.w3.org/1999/xlink" x="0px" y="0px"
	 viewBox="0 0 512.001 512.001" style="enable-background:new 0 0 512.001 512.001;" xml:space="preserve">
<g>
	<g>
		<g>
			<path d="M333.204,213.75c0.749,0.217,1.505,0.32,2.249,0.32c3.497,0,6.719-2.293,7.741-5.822l14.925-51.506
				c1.239-4.278-1.225-8.75-5.5-9.989c-4.277-1.243-8.752,1.222-9.99,5.5l-14.925,51.506
				C326.465,208.038,328.928,212.511,333.204,213.75z"/>
			<path d="M268.696,279.139h-44.525c-4.454,0-8.064,3.61-8.064,8.064c0,4.453,3.609,8.064,8.064,8.064h44.525
				c4.454,0,8.064-3.61,8.064-8.064C276.76,282.749,273.151,279.139,268.696,279.139z"/>
			<path d="M230.263,126.605c16.501,0,29.926-13.424,29.926-29.925c0-16.501-13.424-29.925-29.926-29.925
				c-16.5,0-29.925,13.424-29.925,29.925C200.339,113.182,213.763,126.605,230.263,126.605z M230.263,82.884
				c7.609,0,13.798,6.19,13.798,13.797s-6.19,13.797-13.798,13.797c-7.608,0-13.797-6.19-13.797-13.797
				S222.655,82.884,230.263,82.884z"/>
			<path d="M321.424,294.761c-3.371-3.37-8.389-4.369-12.795-2.545c-4.403,1.823-7.247,6.081-7.247,10.847v131.538
				c0,3.617,1.537,7.086,4.218,9.517c2.369,2.148,5.456,3.328,8.626,3.328c0.413,0,0.828-0.02,1.242-0.06h-0.001
				c36.15-3.535,70.08-17.537,98.12-40.492c2.802-2.293,4.512-5.683,4.692-9.301c0.181-3.619-1.186-7.163-3.745-9.723
				L321.424,294.761z M317.508,430.943v-117.29l83.029,83.03C376.483,415.522,347.918,427.309,317.508,430.943z"/>
			<circle cx="128.293" cy="155.649" r="8.064"/>
			<path d="M467.347,268.636h-131.54c-4.766,0-9.024,2.845-10.847,7.249c-1.823,4.404-0.825,9.426,2.545,12.794l93.112,93.111
				c2.409,2.409,5.691,3.76,9.084,3.76c0.212,0,0.425-0.005,0.637-0.016c3.617-0.181,7.007-1.89,9.299-4.691h0.001
				c22.954-28.042,36.958-61.971,40.494-98.122c0.351-3.594-0.841-7.191-3.269-9.869
				C474.432,270.173,470.964,268.636,467.347,268.636z M429.427,367.793l-83.03-83.03h117.292
				C460.054,315.172,448.266,343.739,429.427,367.793z"/>
			<path d="M470.628,138.088c-4.348-5.927-11.063-9.649-18.424-10.212c-7.435-0.57-14.711,2.128-19.977,7.394l-16.875,16.875
				c-2.505-38.549-18.283-72.723-25.799-87.028c-2.263-4.307-6.076-7.424-10.736-8.774c-4.662-1.35-9.549-0.756-13.767,1.674
				c-6.124,3.531-14.679,8.859-24.162,15.926c-36.864-26.969-80.423-41.199-126.39-41.199C96.224,32.744,0,128.968,0,247.243
				c0,57.239,22.275,111.066,62.721,151.567c40.045,40.099,93.18,62.391,149.779,62.906c26.715,11.514,55.668,17.54,85.055,17.54
				c5.146,0,10.311-0.185,15.472-0.557c51.351-3.7,99.705-25.812,136.156-62.262c36.45-36.45,58.562-84.803,62.262-136.154
				C515.106,229.459,500.611,178.961,470.628,138.088z M429.033,161.272c18.876,23.924,30.779,52.342,34.556,82.635h-117.19
				L429.033,161.272z M373.104,71.989c0.488-0.28,0.933-0.24,1.225-0.156c0.289,0.084,0.688,0.288,0.949,0.785
				c7.965,15.159,25.941,54.291,24.168,95.433l-98.651,98.65c-10.102-25.163-20.834-64.456-10.078-101.575
				C295.491,148.652,313.075,106.597,373.104,71.989z M237.065,330.433c-38.333-4.021-70.56-31.328-82.951-43.231
				c41.092-39.486,78.248-43.752,92.32-43.752c10.061,0,20.535,1.798,31.186,5.322c3.333,11.708,7.3,22.079,10.845,30.261
				L237.065,330.433z M276.653,313.652v117.191c-30.291-3.778-58.712-15.68-82.635-34.556L276.653,313.652z M74.131,387.413
				c-37.404-37.455-58.004-87.235-58.004-140.17c0-109.383,88.989-198.372,198.371-198.372c41.034,0,79.991,12.261,113.307,35.54
				c-20.991,18.041-43.128,43.619-52.578,76.227c-6.115,21.106-6.768,44.658-1.937,70.001c0.008,0.039,0.016,0.077,0.024,0.116
				c-9.098-2.265-18.097-3.434-26.879-3.434c-48.119,0-88.444,33.779-103.546,48.302c-3.185,3.061-4.938,7.172-4.938,11.578
				c0,4.405,1.754,8.517,4.937,11.577c12.249,11.777,42.452,37.467,80.14,45.691l-55.012,55.012
				c-5.266,5.267-7.96,12.549-7.394,19.978c0.562,7.359,4.286,14.075,10.213,18.423c1.931,1.417,3.889,2.791,5.863,4.138
				C138.065,434.608,102.537,415.858,74.131,387.413z M191.42,398.884c-0.001,0.001-0.001,0.002-0.001,0.002h-0.001L191.42,398.884z
				 M495.358,279.121c-3.422,47.485-23.871,92.2-57.582,125.91c-33.709,33.709-78.424,54.158-125.908,57.581
				c-47.016,3.39-93.708-10.013-131.496-37.732c-2.161-1.586-3.464-3.946-3.671-6.649c-0.209-2.733,0.782-5.41,2.717-7.346
				l3.124-3.124c27.581,22.229,60.75,35.902,96.088,39.537c0.435,0.045,0.871,0.068,1.305,0.068c3.159,0,6.236-1.171,8.602-3.307
				c2.695-2.432,4.24-5.909,4.24-9.539V303.062c0-1.617-0.334-3.173-0.94-4.598l39.371-39.371c1.425,0.605,2.98,0.94,4.597,0.94
				h131.458c3.629,0,7.105-1.546,9.538-4.24c2.43-2.692,3.61-6.302,3.242-9.909c-3.635-35.338-17.31-68.507-39.537-96.087
				l3.124-3.124c1.935-1.935,4.598-2.927,7.344-2.717c2.703,0.206,5.064,1.51,6.649,3.671
				C485.345,185.415,498.746,232.115,495.358,279.121z"/>
			<circle cx="112.166" cy="238.419" r="8.064"/>
			<circle cx="78.852" cy="287.202" r="8.064"/>
			<circle cx="160.337" cy="196.384" r="8.064"/>
			<circle cx="78.852" cy="196.384" r="8.064"/>
		</g>
	</g>
</g>
<g>
</g>
<g>
</g>
<g>
</g>
<g>
</g>
<g>
</g>
<g>
</g>
<g>
</g>
<g>
</g>
<g>
</g>
<g>
</g>
<g>
</g>
<g>
</g>
<g>
</g>
<g>
</g>
<g>
</g>
</svg>
