<?xml version="1.0" encoding="iso-8859-1"?>
<!-- Generator: Adobe Illustrator 18.0.0, SVG Export Plug-In . SVG Version: 6.00 Build 0)  -->
<!DOCTYPE svg PUBLIC "-//W3C//DTD SVG 1.1//EN" "http://www.w3.org/Graphics/SVG/1.1/DTD/svg11.dtd">
<svg version="1.1" id="Capa_1" xmlns="http://www.w3.org/2000/svg" xmlns:xlink="http://www.w3.org/1999/xlink" x="0px" y="0px"
	 viewBox="0 0 459.103 459.103" style="enable-background:new 0 0 459.103 459.103;" xml:space="preserve">
<path d="M450.312,196.44h-218.56v-2.638c0-0.168-0.006-0.336-0.006-0.505h0.004c0.616-30.19,12.244-58.657,32.827-80.608
	c2.705,0.282,5.397,0.437,8.068,0.437c37.321,0,70.392-26.979,76.793-64.982c0.567-3.363-0.924-6.858-4.071-8.749
	c-0.906-0.544-1.926-0.882-2.969-1.057c-20.502-3.435-41.113,1.311-58.051,13.365c-16.35,11.637-27.365,28.749-31.232,48.357
	c-13.031,13.626-22.988,29.517-29.494,46.764c-6.185-17.209-28.521-47.148-28.544-47.288C186.011,45.704,134.84,9.286,81.005,18.352
	c-2.223,0.375-4.206,1.617-5.513,3.453c-1.308,1.837-1.832,4.118-1.457,6.34c4.392,26.078,18.677,48.884,40.222,64.218
	c16.952,12.064,36.801,18.367,57.196,18.367c3.32,0,6.655-0.188,9.994-0.524c21.501,22.673,33.305,52.228,33.305,83.597v2.638H8.791
	c-4.527,0-8.48,3.416-8.773,7.934c-0.321,4.951,3.6,9.066,8.482,9.066h206.252v0c0,5.286-0.937,10.526-2.766,15.485
	c-2.841,7.704-7.348,19.764-10.967,28.725c-3.18,7.876-9.111,14.328-16.718,18.105c-14.916,7.408-40.978,14.914-68.547-2.316
	c-4.117-2.574-9.598-1.189-11.966,3.136c-2.182,3.984-0.667,9.03,3.192,11.427c13.907,8.636,28.887,12.996,44.264,12.996
	c6.375,0,12.82-0.757,19.282-2.263c-9.438,7.818-20.179,14.162-31.911,18.69c-21.38,8.252-39.877,21.783-54.054,38.931
	c-14.603,1.696-65.619,10.328-73.678,48.607c-0.968,4.593,1.973,9.102,6.566,10.069c0.59,0.124,1.18,0.184,1.76,0.184
	c3.934,0,7.466-2.748,8.309-6.751c2.651-12.591,13.441-22.349,32.072-29.004c3.95-1.411,7.861-2.526,11.491-3.407
	c-5.833,10.446-10.282,21.759-13.122,33.687l-5.005,21.019c-1.088,4.566,1.732,9.15,6.3,10.237c0.662,0.158,1.324,0.233,1.976,0.233
	c3.846,0,7.332-2.628,8.262-6.533l5.005-21.019c7.248-30.439,26.522-56.278,52.955-71.983c-2.752,15.852-1.675,39.188,17.021,64.116
	c1.67,2.227,4.222,3.4,6.807,3.4c1.943,0,3.905-0.664,5.521-2.044c3.418-2.918,3.838-8.119,1.149-11.721
	c-21.984-29.449-13.565-55.455-10.082-63.42c25.691-10.671,47.031-28.998,61.396-52.237l-2.999,18.592
	c-1.992,12.345,1.993,25.118,11.25,33.525c4.348,3.949,6.694,9.587,6.433,15.453c-0.26,5.835-3.07,11.216-7.709,14.764
	l-24.057,18.396c-3.558,2.721-4.64,7.762-2.207,11.523c1.652,2.554,4.386,3.9,7.154,3.9c1.801,0,3.616-0.57,5.157-1.749
	l14.462-11.059c1.677,9.293,1.738,22.977-7.911,34.581c-2.948,3.546-2.86,8.875,0.539,11.991c1.641,1.505,3.699,2.239,5.745,2.239
	c2.415,0,4.813-1.024,6.495-3.013c17.887-21.159,13.156-46.373,9.683-57.637c5.799-6.304,9.244-14.468,9.632-23.179
	c0.485-10.895-3.857-21.37-11.912-28.726c-4.875-4.452-7.135-11.087-6.084-17.604l5.227-32.399l11.618,39.636
	c2.415,8.239,7.159,15.18,13.304,20.321c4.423,5.388,30.107,38.464,15.366,62.594c-2.266,3.709-1.723,8.598,1.648,11.341
	c1.612,1.311,3.514,1.931,5.388,1.931c2.833,0,5.604-1.416,7.216-3.996c9.775-15.641,9.667-35.329-0.312-56.936
	c-0.813-1.759-1.66-3.455-2.522-5.092c3.936,0.022,7.936-0.504,11.901-1.655c12.534-3.642,25.891,3.104,30.404,15.354
	c6.231,16.916,16.619,31.829,29.868,43.533c-0.57,2.158-1.097,4.784-1.388,7.82c-1.049,10.938,1.394,22.463,7.063,33.329
	c1.517,2.907,4.478,4.57,7.543,4.57c1.481-0.001,2.985-0.388,4.363-1.211c3.9-2.327,5.114-7.442,3.034-11.479
	c-4.463-8.662-5.451-16.142-5.227-21.686c7.855,4.788,16.352,8.6,25.316,11.256l6.245,1.851c0.806,0.239,1.619,0.353,2.419,0.353
	c3.811,0,7.319-2.586,8.265-6.533c1.065-4.444-1.765-8.908-6.146-10.206l-5.953-1.764c-24.553-7.275-44.968-24.793-56.029-47.662
	c0.804,0.183,1.618,0.357,2.452,0.516c4.249,0.81,8.436,1.211,12.544,1.211c14.949,0,28.842-5.325,40.711-15.71
	c3.532-3.091,3.891-8.461,0.799-11.994c-3.089-3.533-8.46-3.891-11.994-0.8c-26.562,23.243-56.497,4.257-57.846,3.379
	c-0.018-0.012-0.034-0.015-0.051-0.025c-10.533-10.311-26.175-14.768-41.132-10.428c-13.194,3.832-27.071-3.778-30.935-16.962
	l-0.86-2.935c4.41,1.562,9.032,2.353,13.661,2.353c5.27,0,10.546-1.016,15.517-3.055c4.24-1.739,6.544-6.547,4.975-10.853
	c-1.673-4.589-6.811-6.804-11.271-4.94c-6.355,2.659-13.281,2.492-19.503-0.472c-6.22-2.964-10.713-8.238-12.649-14.845
	l-12.019-40.855c-1.452-4.936-2.19-10.056-2.19-15.201v0h218.852c4.882,0,8.802-4.115,8.482-9.066
	C458.792,199.856,454.839,196.44,450.312,196.44z M294.205,65.554c10.726-7.634,23.312-11.521,36.263-11.292
	c-8.292,25.227-32.252,42.292-58.81,41.854C275.678,83.831,283.478,73.188,294.205,65.554z M124.114,78.513
	c-15.382-10.947-26.295-26.492-31.346-44.407c38.234-2.215,73.143,22.644,83.57,59.477C157.77,94.682,139.495,89.46,124.114,78.513z
	"/>
<g>
</g>
<g>
</g>
<g>
</g>
<g>
</g>
<g>
</g>
<g>
</g>
<g>
</g>
<g>
</g>
<g>
</g>
<g>
</g>
<g>
</g>
<g>
</g>
<g>
</g>
<g>
</g>
<g>
</g>
</svg>
