<?xml version="1.0" encoding="iso-8859-1"?>
<!-- Generator: Adobe Illustrator 18.0.0, SVG Export Plug-In . SVG Version: 6.00 Build 0)  -->
<!DOCTYPE svg PUBLIC "-//W3C//DTD SVG 1.1//EN" "http://www.w3.org/Graphics/SVG/1.1/DTD/svg11.dtd">
<svg version="1.1" id="Capa_1" xmlns="http://www.w3.org/2000/svg" xmlns:xlink="http://www.w3.org/1999/xlink" x="0px" y="0px"
	 viewBox="0 0 460.417 460.417" style="enable-background:new 0 0 460.417 460.417;" xml:space="preserve">
<path d="M301.979,264.248c4.748,0,9.644-0.483,14.663-1.455c24.537-4.75,50.812-20.92,78.097-48.063
	c56.709-56.413,65.313-157.72,65.652-162.005c0.196-2.478-0.703-4.917-2.458-6.675s-4.193-2.663-6.672-2.469
	c-4.271,0.331-105.264,8.756-161.96,65.156c-27.313,27.17-43.691,53.271-48.679,77.576c-4.046,19.715-0.423,37.55,10.467,52.126
	c-45.658,36.847-94.263,67.353-132.587,89.161c-4.523,2.574-8.974,5.067-13.346,7.483c5.969-12.841,12.715-31.327,17.932-56.499
	c31.116-1.184,62.763-31.318,66.967-98.553c3.961-63.363-50.561-116.926-52.884-119.175c-3.004-2.91-7.677-3.2-11.019-0.689
	c-2.585,1.942-63.354,48.297-67.314,111.661c-3.887,62.179,19.466,95.808,47.302,104.509c-2.872,13.622-6.111,24.746-9.164,33.513
	c-9.153,26.287-18.589,37.648-18.824,37.927c-0.006,0.007-0.012,0.013-0.017,0.02c-1.878,2.171-4.169,3.959-6.723,5.271
	C32.338,373.15,5.6,384.331,5.239,384.481c-4.334,1.803-6.387,6.777-4.585,11.112c1.358,3.268,4.52,5.239,7.852,5.239
	c1.087,0,2.193-0.21,3.259-0.653c0.502-0.209,50.954-21.293,114.928-57.68c9.461-5.381,19.544-11.29,30.048-17.682
	c5.998,4.719,26.974,19.147,69.819,29.114c0.842,28.299,27.707,57.448,88.389,62.586c2.751,0.233,5.48,0.344,8.192,0.344
	c53.951,0,99.111-43.986,101.1-45.95c2.974-2.939,3.369-7.604,0.931-11.001c-1.711-2.385-42.568-58.465-100.067-63.333
	c-27.421-2.324-51.198,1.391-68.763,10.734c-13.529,7.197-22.854,17.506-27.14,29.695c-30.199-7.202-48.16-16.563-56.713-21.953
	c28.999-18.301,60.36-39.961,90.475-64.36C274.138,259.656,287.357,264.248,301.979,264.248z M87.114,238.882
	c-9.084-16.206-12.995-39.025-11.31-65.992c2.796-44.721,40.089-81.497,54.726-94.287c12.935,14.52,45.353,55.651,42.558,100.369
	c-1.686,26.966-8.409,49.121-19.44,64.069c-7.779,10.54-17.146,16.749-27.408,18.248c3.66-23.158,5.941-51.013,5.549-84.177
	c-0.056-4.694-3.858-8.465-8.6-8.399c-4.694,0.056-8.454,3.906-8.399,8.6c0.389,32.887-1.985,60.11-5.53,82.174
	C100.462,256.208,92.917,249.234,87.114,238.882z M318.98,346.978c-28.895-0.295-53.017-2.834-72.915-6.443
	c3.198-7.285,9.366-13.483,18.26-18.214c14.671-7.804,35.193-10.848,59.344-8.804c39.407,3.336,71.304,36.573,82.944,50.362
	c-13.798,11.64-50.828,39.044-90.23,35.7c-24.153-2.045-43.87-8.496-57.02-18.656c-8.799-6.798-14.025-14.799-15.434-23.445
	c20.658,3.666,45.432,6.2,74.876,6.5c0.03,0,0.059,0,0.089,0c4.653,0,8.45-3.749,8.498-8.413
	C327.441,350.87,323.674,347.026,318.98,346.978z M257.274,189.731c4.244-20.678,19.464-44.518,44.015-68.941
	c42.157-41.936,114.218-55.386,140.932-59.052c-3.712,26.757-17.309,98.999-59.472,140.94
	c-24.498,24.37-48.475,39.386-69.339,43.425c-14.219,2.753-26.623,0.537-37-6.573c18.871-16.039,37.022-33.143,53.515-51.166
	c3.298-3.604,2.906-9.28-0.971-12.384c-3.541-2.834-8.723-2.2-11.787,1.145c-16.28,17.767-34.247,34.637-52.94,50.457
	C256.634,217.009,254.281,204.319,257.274,189.731z"/>
<g>
</g>
<g>
</g>
<g>
</g>
<g>
</g>
<g>
</g>
<g>
</g>
<g>
</g>
<g>
</g>
<g>
</g>
<g>
</g>
<g>
</g>
<g>
</g>
<g>
</g>
<g>
</g>
<g>
</g>
</svg>
