<?xml version="1.0" encoding="utf-8"?>
<!-- Generator: Adobe Illustrator 15.0.0, SVG Export Plug-In . SVG Version: 6.00 Build 0)  -->
<!DOCTYPE svg PUBLIC "-//W3C//DTD SVG 1.1//EN" "http://www.w3.org/Graphics/SVG/1.1/DTD/svg11.dtd">
<svg version="1.1"  xmlns="http://www.w3.org/2000/svg" xmlns:xlink="http://www.w3.org/1999/xlink" x="0px" y="0px"
	 width="48px" height="48px" viewBox="0 0 48 48" enable-background="new 0 0 48 48" xml:space="preserve">
<g>
	<path fill="none" stroke="#E65100" stroke-width="2" d="M27,15c0,0,3-9,11-9"/>
	<path fill="none" stroke="#E65100" stroke-width="2" d="M29,11c0,0,1-4.999-3-4.999c-2,0-2,2-2,2s0,2,2,2"/>
</g>
<g>
	<circle fill="#9C27B0" cx="16" cy="39" r="4"/>
	<circle fill="#9C27B0" cx="15" cy="32" r="4"/>
	<circle fill="#9C27B0" cx="22" cy="35" r="4"/>
	<circle fill="#9C27B0" cx="14" cy="25" r="4"/>
	<circle fill="#9C27B0" cx="21" cy="28" r="4"/>
	<circle fill="#9C27B0" cx="28" cy="31" r="4"/>
	<circle fill="#9C27B0" cx="13" cy="18" r="4"/>
	<circle fill="#9C27B0" cx="20" cy="21" r="4"/>
	<circle fill="#9C27B0" cx="19" cy="14" r="4"/>
	<circle fill="#9C27B0" cx="27" cy="24" r="4"/>
	<circle fill="#9C27B0" cx="26" cy="17" r="4"/>
	<circle fill="#9C27B0" cx="34" cy="27" r="4"/>
	<circle fill="#9C27B0" cx="33" cy="20" r="4"/>
</g>
<g>
	<path fill="#9C27B0" stroke="#EA80FC" stroke-width="2" stroke-linecap="round" d="M14.143,39.143c0-1.104,0.896-2,2-2"/>
	<path fill="#9C27B0" stroke="#EA80FC" stroke-width="2" stroke-linecap="round" d="M13.143,32.143c0-1.104,0.896-2,2-2"/>
	<path fill="#9C27B0" stroke="#EA80FC" stroke-width="2" stroke-linecap="round" d="M20.143,35.143c0-1.104,0.896-2,2-2"/>
	<path fill="#9C27B0" stroke="#EA80FC" stroke-width="2" stroke-linecap="round" d="M12.143,25.143c0-1.104,0.896-2,2-2"/>
	<path fill="#9C27B0" stroke="#EA80FC" stroke-width="2" stroke-linecap="round" d="M19.143,28.143c0-1.104,0.896-2,2-2"/>
	<path fill="#9C27B0" stroke="#EA80FC" stroke-width="2" stroke-linecap="round" d="M26.143,31.143c0-1.104,0.896-2,2-2"/>
	<path fill="#9C27B0" stroke="#EA80FC" stroke-width="2" stroke-linecap="round" d="M11.143,18.143c0-1.104,0.896-2,2-2"/>
	<path fill="#9C27B0" stroke="#EA80FC" stroke-width="2" stroke-linecap="round" d="M18.143,21.143c0-1.104,0.896-2,2-2"/>
	<path fill="#9C27B0" stroke="#EA80FC" stroke-width="2" stroke-linecap="round" d="M17.143,14.143c0-1.104,0.896-2,2-2"/>
	<path fill="#9C27B0" stroke="#EA80FC" stroke-width="2" stroke-linecap="round" d="M25.143,24.143c0-1.104,0.896-2,2-2"/>
	<path fill="#9C27B0" stroke="#EA80FC" stroke-width="2" stroke-linecap="round" d="M24.143,17.143c0-1.104,0.896-2,2-2"/>
	<path fill="#9C27B0" stroke="#EA80FC" stroke-width="2" stroke-linecap="round" d="M32.143,27.143c0-1.104,0.896-2,2-2"/>
	<path fill="#9C27B0" stroke="#EA80FC" stroke-width="2" stroke-linecap="round" d="M31.143,20.143c0-1.104,0.896-2,2-2"/>
</g>
<g>
	<path fill="#6A1B9A" d="M18.281,35.72C18.731,36.367,19,37.15,19,38c0,2.21-1.791,4-4,4c-0.85,0-1.633-0.269-2.281-0.72
		C13.441,42.318,14.64,43,16,43c2.209,0,4-1.79,4-4C20,37.64,19.318,36.442,18.281,35.72z"/>
	<path fill="#6A1B9A" d="M17.281,28.72C17.731,29.367,18,30.15,18,31c0,2.21-1.791,4-4,4c-0.85,0-1.633-0.269-2.281-0.72
		C12.441,35.318,13.64,36,15,36c2.209,0,4-1.79,4-4C19,30.64,18.318,29.442,17.281,28.72z"/>
	<path fill="#6A1B9A" d="M16.281,21.72C16.731,22.367,17,23.15,17,24c0,2.21-1.791,4-4,4c-0.85,0-1.633-0.269-2.281-0.72
		C11.441,28.318,12.64,29,14,29c2.209,0,4-1.79,4-4C18,23.64,17.318,22.442,16.281,21.72z"/>
	<path fill="#6A1B9A" d="M15.281,14.72C15.731,15.367,16,16.15,16,17c0,2.21-1.791,4-4,4c-0.85,0-1.633-0.269-2.281-0.72
		C10.441,21.318,11.64,22,13,22c2.209,0,4-1.79,4-4C17,16.64,16.318,15.442,15.281,14.72z"/>
	<g>
		<path fill="#6A1B9A" d="M21.281,10.72C21.731,11.367,22,12.15,22,13c0,2.21-1.791,4-4,4c-0.414,0-0.812-0.066-1.187-0.184
			c0.062,0.198,0.112,0.401,0.142,0.611C17.554,17.787,18.25,18,19,18c2.209,0,4-1.79,4-4C23,12.64,22.318,11.442,21.281,10.72z"/>
	</g>
	<g>
		<path fill="#6A1B9A" d="M28.281,13.72C28.731,14.367,29,15.15,29,16c0,2.21-1.791,4-4,4c-0.414,0-0.812-0.066-1.187-0.184
			c0.062,0.198,0.112,0.401,0.142,0.611C24.554,20.787,25.251,21,26,21c2.209,0,4-1.79,4-4C30,15.64,29.318,14.442,28.281,13.72z"/>
	</g>
	<path fill="#6A1B9A" d="M22.281,17.72C22.731,18.367,23,19.15,23,20c0,2.21-1.791,4-4,4c-0.414,0-0.812-0.066-1.187-0.184
		c0.062,0.198,0.112,0.401,0.142,0.611C18.554,24.787,19.25,25,20,25c2.209,0,4-1.79,4-4C24,19.64,23.318,18.442,22.281,17.72z"/>
	<path fill="#6A1B9A" d="M35.281,16.72C35.731,17.367,36,18.15,36,19c0,2.21-1.791,4-4,4c-0.414,0-0.812-0.066-1.187-0.184
		c0.062,0.198,0.111,0.401,0.142,0.611C31.554,23.787,32.251,24,33,24c2.209,0,4-1.79,4-4C37,18.64,36.318,17.442,35.281,16.72z"/>
	<path fill="#6A1B9A" d="M36.281,23.72C36.731,24.367,37,25.15,37,26c0,2.21-1.791,4-4,4c-0.414,0-0.812-0.066-1.187-0.184
		c0.062,0.198,0.111,0.401,0.142,0.611C32.554,30.787,33.251,31,34,31c2.209,0,4-1.79,4-4C38,25.64,37.318,24.442,36.281,23.72z"/>
	<path fill="#6A1B9A" d="M29.281,20.72C29.731,21.367,30,22.15,30,23c0,2.21-1.791,4-4,4c-0.414,0-0.812-0.066-1.187-0.184
		c0.062,0.198,0.112,0.401,0.142,0.611C25.554,27.787,26.251,28,27,28c2.209,0,4-1.79,4-4C31,22.64,30.318,21.442,29.281,20.72z"/>
	<path fill="#6A1B9A" d="M23.281,24.72C23.731,25.367,24,26.15,24,27c0,2.21-1.791,4-4,4c-0.414,0-0.812-0.066-1.187-0.184
		c0.062,0.198,0.112,0.401,0.142,0.611C19.554,31.787,20.25,32,21,32c2.209,0,4-1.79,4-4C25,26.64,24.318,25.442,23.281,24.72z"/>
	<path fill="#6A1B9A" d="M30.281,27.72C30.731,28.367,31,29.15,31,30c0,2.21-1.791,4-4,4c-0.414,0-0.812-0.066-1.187-0.184
		c0.062,0.198,0.111,0.401,0.142,0.611C26.554,34.787,27.251,35,28,35c2.209,0,4-1.79,4-4C32,29.64,31.318,28.442,30.281,27.72z"/>
	<path fill="#6A1B9A" d="M24.281,31.72C24.731,32.367,25,33.15,25,34c0,2.21-1.791,4-4,4c-0.414,0-0.812-0.066-1.187-0.184
		c0.062,0.198,0.112,0.401,0.142,0.611C20.554,38.787,21.25,39,22,39c2.209,0,4-1.79,4-4C26,33.64,25.318,32.442,24.281,31.72z"/>
</g>
</svg>
