<?xml version="1.0" encoding="utf-8"?>
<!-- Generator: Adobe Illustrator 15.0.0, SVG Export Plug-In . SVG Version: 6.00 Build 0)  -->
<!DOCTYPE svg PUBLIC "-//W3C//DTD SVG 1.1//EN" "http://www.w3.org/Graphics/SVG/1.1/DTD/svg11.dtd">
<svg version="1.1"  xmlns="http://www.w3.org/2000/svg" xmlns:xlink="http://www.w3.org/1999/xlink" x="0px" y="0px"
	 width="48px" height="48px" viewBox="0 0 48 48" enable-background="new 0 0 48 48" xml:space="preserve">
<g>
	<path fill="#388E3C" d="M20,42.986C20,26.007,27.264,11.928,29,9c-0.852,2.774-3,8-3,34.014L20,42.986z"/>
	<path fill="#388E3C" d="M24,42.975C24,29.27,34.963,13.556,38,11c-1.684,2.342-8,12.291-8,32.025L24,42.975z"/>
	<path fill="#388E3C" d="M19,43c0-17-5.631-25.871-7-28c1.765,1.823,13,16.016,13,28H19z"/>
</g>
<g>
	<path fill="#8BC34A" d="M29,43c0-13.638,11.218-24.641,13-26c-1.431,1.717-7,11-7,26H29z"/>
	<path fill="#8BC34A" d="M14,43c0-15.034-6.457-24.327-8-26c1.877,1.3,14,12.746,14,26H14z"/>
</g>
<g>
	<path fill="#4CAF50" d="M19.428,22.989c0.372,1.44,0.668,2.895,0.917,4.356c2.538,4.838,4.652,10.449,4.655,15.647l2-0.017
		c-0.25-3.555-0.745-7.176-1.516-10.682c-0.777-3.517-1.833-6.964-3.214-10.265c-1.376-3.3-3.074-6.455-5.105-9.354
		C15.124,9.794,12.796,7.09,10,5c2.458,2.462,4.324,5.409,5.879,8.447C17.42,16.501,18.587,19.713,19.428,22.989z"/>
	<path fill="#4CAF50" d="M21.001,43c0,0.008-0.001,0.017-0.001,0.024L24,43H21.001z"/>
</g>
</svg>
