<?xml version="1.0" encoding="utf-8"?>
<!-- Generator: Adobe Illustrator 15.0.0, SVG Export Plug-In . SVG Version: 6.00 Build 0)  -->
<!DOCTYPE svg PUBLIC "-//W3C//DTD SVG 1.1//EN" "http://www.w3.org/Graphics/SVG/1.1/DTD/svg11.dtd">
<svg version="1.1"  xmlns="http://www.w3.org/2000/svg" xmlns:xlink="http://www.w3.org/1999/xlink" x="0px" y="0px"
	 width="48px" height="48px" viewBox="0 0 48 48" enable-background="new 0 0 48 48" xml:space="preserve">
<g>
	<path fill="#F9A825" d="M21.293,15.803C21.242,16.881,21.154,22.008,21,23h4c0-2.999-0.435-6.369-0.725-7.523
		c-0.293-1.141-0.632-2.265-1.028-3.366C22.452,9.918,21.439,7.77,20,6c0.857,2.105,1.168,4.32,1.288,6.513
		C21.344,13.611,21.341,14.71,21.293,15.803z"/>
	<path fill="#F9A825" d="M19,23c0-9.18-5.682-12.275-6.737-12.797C11.204,9.686,10.114,9.271,9,9.001c1.952,1.171,6,3.833,6,13.999
		H19z"/>
	<path fill="#F9A825" d="M38,7c-2.107,1.193-4.054,2.756-5.703,4.706C31.478,12.687,29,16.751,29,22.999h4
		C33,11.706,36.305,8.713,38,7z"/>
	<path fill="#F9A825" d="M29.106,28c0.69,7.338,4.886,13.311,5.08,13.582l1.628-1.162c-0.045-0.062-3.163-5.695-3.721-12.42H29.106z
		"/>
	<path fill="#F9A825" d="M15.907,28c-0.558,6.725-3.677,12.358-3.721,12.42l1.628,1.162c0.194-0.271,4.39-6.244,5.081-13.582H15.907
		z"/>
	<path fill="#F9A825" d="M24.062,28c0.406,7.549,2.881,15.819,2.958,16.197l1.961-0.393C28.963,43.714,27.316,35.4,27.04,28H24.062z
		"/>
	<path fill="#F9A825" d="M20.96,28c-0.276,7.396-1.922,15.714-1.94,15.805l1.961,0.393c0.076-0.378,2.551-8.648,2.958-16.197H20.96z
		"/>
	<path fill="#F9A825" d="M34,26c0-0.553-0.447-1-1-1H15c-0.553,0-1,0.447-1,1l0,0c0,0.553,0.447,1,1,1h18C33.553,27,34,26.553,34,26
		L34,26z"/>
</g>
<g>
	<path fill="#D88A19" d="M18.926,28c-0.511,7.815-3.785,14.482-3.821,14.555l1.789,0.894c0.156-0.311,4.395-7.183,5.021-15.448
		H18.926z"/>
	<path fill="#D88A19" d="M16.557,8.622c0.626,1.034,1.043,2.164,1.308,3.317c0.265,1.154,0.376,2.336,0.387,3.518
		c0.003,0.394-0.005,1.218-0.023,2.187C18.696,19.146,19,20.907,19,23h2c0.154-0.992,0.242-6.119,0.293-7.197
		c0.006-0.143,0.005-0.287,0.01-0.43c-0.029-0.137-0.057-0.262-0.085-0.362c-0.366-1.308-0.848-2.59-1.486-3.788
		c-0.637-1.197-1.434-2.311-2.4-3.232C16.368,7.08,15.238,6.324,14,6C15.103,6.632,15.927,7.599,16.557,8.622z"/>
	<path fill="#D88A19" d="M25,23h0.5H26h3.5c0,0,0,0,0-0.001H29c0-1.486,0.143-2.845,0.368-4.072
		c-0.003-1.586,0.03-3.146,0.103-3.784c0.147-1.306,0.451-2.62,0.894-3.908c0.441-1.289,1.02-2.554,1.71-3.77
		C32.77,6.252,33.562,5.073,34.5,4c-1.166,0.829-2.233,1.811-3.23,2.871c-0.993,1.065-1.905,2.229-2.704,3.489
		s-1.483,2.622-2.009,4.071c-0.292,0.794-0.583,2.714-0.786,4.611c-0.065-1.635-0.118-3.264-0.154-3.905
		c-0.072-1.282-0.079-2.566,0.014-3.846c0.094-1.278,0.285-2.554,0.65-3.791C26.645,6.267,27.182,5.06,28,4
		c-1.057,0.822-1.931,1.912-2.635,3.098c-0.708,1.188-1.253,2.475-1.694,3.791c-0.128,0.38-0.253,0.849-0.375,1.369
		c0.374,1.055,0.699,2.129,0.979,3.219C24.565,16.631,25,20.001,25,23z"/>
	<path fill="#D88A19" d="M14.811,28c-0.954,5.393-5.402,9.191-5.452,9.233l1.281,1.536c0.235-0.196,5.258-4.471,6.196-10.77H14.811z
		"/>
	<path fill="#D88A19" d="M33.189,28h-2.025c0.938,6.299,5.961,10.573,6.195,10.77l1.282-1.536
		C38.591,37.191,34.143,33.393,33.189,28z"/>
	<path fill="#D88A19" d="M26.084,28c0.627,8.266,4.866,15.138,5.021,15.448l1.789-0.894c-0.036-0.072-3.31-6.739-3.821-14.555
		H26.084z"/>
	<rect x="23" y="28" fill="#D88A19" width="2" height="16"/>
</g>
<g>
	<path fill="#C47814" d="M34,24c0,0.553-0.447,1-1,1H15c-0.553,0-1-0.447-1-1l0,0c0-0.553,0.447-1,1-1h18C33.553,23,34,23.447,34,24
		L34,24z"/>
	<path fill="#C47814" d="M34,28c0,0.553-0.447,1-1,1H15c-0.553,0-1-0.447-1-1l0,0c0-0.553,0.447-1,1-1h18C33.553,27,34,27.447,34,28
		L34,28z"/>
</g>
</svg>
