<?xml version="1.0" encoding="utf-8"?>
<!-- Generator: Adobe Illustrator 15.0.0, SVG Export Plug-In . SVG Version: 6.00 Build 0)  -->
<!DOCTYPE svg PUBLIC "-//W3C//DTD SVG 1.1//EN" "http://www.w3.org/Graphics/SVG/1.1/DTD/svg11.dtd">
<svg version="1.1"  xmlns="http://www.w3.org/2000/svg" xmlns:xlink="http://www.w3.org/1999/xlink" x="0px" y="0px"
	 width="48px" height="48px" viewBox="0 0 48 48" enable-background="new 0 0 48 48" xml:space="preserve">
<g>
	<path fill="#D4E157" d="M7,41c0-7,1.956-8.902,2.951-9.913c1.002-1.003,2.229-1.782,3.749-2.269
		c1.545-0.459,3.293-0.717,5.748-0.269c0.449,2.454,0.192,4.202-0.269,5.748c-0.484,1.521-1.264,2.747-2.269,3.749
		C15.902,39.042,14,41,7,41z"/>
	<path fill="#D4E157" d="M6,32c0.164-2.503,0.85-4.07,1.683-5.493c0.851-1.393,1.924-2.426,3.157-3.201
		c1.238-0.769,2.643-1.268,4.267-1.411c1.644-0.113,3.437,0.015,5.756,0.995c-0.158,2.514-0.841,4.176-1.676,5.596
		c-0.853,1.39-1.926,2.424-3.165,3.188c-1.243,0.759-2.648,1.257-4.274,1.398C10.104,33.186,8.313,32.969,6,32z"/>
	<path fill="#D4E157" d="M16,42c-0.969-2.313-1.187-4.105-1.074-5.749c0.141-1.626,0.64-3.028,1.399-4.272
		c0.764-1.24,1.799-2.313,3.188-3.166c1.421-0.836,3.083-1.519,5.596-1.677c0.979,2.319,1.107,4.113,0.994,5.757
		c-0.145,1.623-0.643,3.027-1.41,4.267c-0.774,1.231-1.811,2.307-3.201,3.157C20.07,41.148,18.502,41.836,16,42z"/>
	<path fill="#D4E157" d="M22.985,40.585c-1.192-2.237-1.491-4.049-1.537-5.735c-0.015-1.676,0.35-3.166,0.991-4.526
		c0.646-1.357,1.579-2.579,2.89-3.619c1.341-1.024,2.938-1.927,5.442-2.397c1.203,2.242,1.504,4.054,1.549,5.742
		c0.013,1.672-0.353,3.165-1.004,4.52c-0.656,1.354-1.59,2.574-2.9,3.613C27.072,39.206,25.477,40.107,22.985,40.585z"/>
	<path fill="#D4E157" d="M10,19c0.601-2.463,1.813-3.639,2.885-4.899c1.085-1.227,2.324-2.055,3.677-2.594
		c1.355-0.534,2.83-0.766,4.458-0.604c1.642,0.197,3.389,0.664,5.505,2.078c-0.596,2.474-1.563,4.003-2.634,5.261
		c-1.086,1.225-2.324,2.054-3.683,2.583c-1.36,0.521-2.832,0.754-4.463,0.59C14.104,21.218,12,21,10,19z"/>
	<path fill="#D4E157" d="M29,38c-1.369-2.102-2.169-4.087-2.355-5.725c-0.153-1.625,0.084-3.096,0.605-4.457
		c0.527-1.356,1.354-2.6,2.566-3.688c1.246-1.076,2.758-2.048,5.201-2.656c1.381,2.104,1.832,3.846,2.017,5.481
		c0.151,1.624-0.086,3.095-0.618,4.449c-0.54,1.354-1.363,2.597-2.579,3.685C32.589,36.166,31.432,37.389,29,38z"/>
	<path fill="#D4E157" d="M21.473,33.396c-1.068-2.28-1.271-4.08-1.228-5.742c0.072-1.646,0.515-3.086,1.222-4.379
		c0.714-1.29,1.705-2.425,3.063-3.357c1.387-0.916,3.023-1.691,5.535-1.983c1.08,2.287,1.285,4.086,1.24,5.748
		c-0.076,1.645-0.518,3.084-1.234,4.374c-0.725,1.283-1.715,2.42-3.074,3.35C25.607,32.32,23.972,33.1,21.473,33.396z"/>
	<path fill="#D4E157" d="M14.603,26.523c0.281-2.528,1.052-4.178,1.959-5.579c0.926-1.37,2.058-2.365,3.341-3.089
		c1.288-0.718,2.731-1.154,4.383-1.219c1.668-0.033,3.478,0.188,5.778,1.297c-0.273,2.542-1.041,4.194-1.951,5.592
		c-0.926,1.367-2.061,2.365-3.35,3.078c-1.292,0.707-2.736,1.144-4.388,1.205C18.707,27.84,16.899,27.622,14.603,26.523z"/>
	<path fill="#D4E157" d="M7.414,25.014c0.477-2.49,1.38-4.087,2.405-5.431c1.038-1.313,2.26-2.244,3.611-2.902
		c1.356-0.65,2.849-1.015,4.521-1.003c1.688,0.044,3.5,0.346,5.742,1.549c-0.47,2.503-1.373,4.102-2.397,5.442
		c-1.042,1.311-2.261,2.243-3.619,2.892c-1.361,0.641-2.853,1.004-4.528,0.989C11.462,26.504,9.651,26.204,7.414,25.014z"/>
</g>
<g>
	<path fill="#C0CA33" d="M21.391,34.82c-0.007-0.491,0.026-0.965,0.082-1.424c-0.763,0.537-1.617,0.985-2.611,1.293
		c-1.114,0.321-2.337,0.533-3.842,0.463c-0.044,0.226-0.071,0.464-0.099,0.699c1.525,0.563,3.541,1.035,4.496,0.762
		c0.039-0.014,0.077-0.025,0.115-0.036c0.17,1.187,0.527,2.573,1.288,4.162c0.25-0.125,0.493-0.255,0.726-0.39
		c0.353-0.211,0.68-0.436,0.986-0.675C21.683,37.832,21.439,36.279,21.391,34.82z"/>
	<path fill="#C0CA33" d="M12.847,32.979c-0.072-1.506,0.142-2.729,0.462-3.842c0.309-0.994,0.755-1.85,1.294-2.613
		c-0.46,0.059-0.935,0.092-1.425,0.084c-1.459-0.049-3.013-0.293-4.854-1.143C8.086,25.771,7.86,26.1,7.649,26.451
		c-0.135,0.232-0.264,0.479-0.39,0.726c1.594,0.763,2.983,1.12,4.162,1.289c-0.008,0.026-0.017,0.054-0.023,0.079
		c-0.306,1.053-0.059,2.982,0.577,4.557C12.271,33.072,12.563,33.033,12.847,32.979z"/>
	<path fill="#C0CA33" d="M15.027,35.152c-0.604-0.03-1.246-0.1-1.951-0.231c-0.131-0.705-0.2-1.348-0.23-1.948
		c-0.344,0.07-0.695,0.129-1.065,0.157c-0.942,0.058-2.093-0.081-3.208-0.296c-0.175,0.485-0.49,0.688-0.828,1.966
		c1.446,0.288,3.191,0.386,4.159,0.326c0.382-0.028,0.75-0.088,1.119-0.153c-0.062,0.358-0.12,0.719-0.148,1.086
		c-0.061,0.989,0.011,2.753,0.3,4.202c1.021-0.346,1.427-0.543,1.989-0.836c-0.217-1.114-0.354-2.263-0.294-3.207
		C14.899,35.848,14.957,35.496,15.027,35.152z"/>
	<path fill="#C0CA33" d="M28.646,19.351c-0.418,0.997-0.98,1.849-1.576,2.668c-0.605,0.809-1.268,1.565-1.975,2.273
		c-0.706,0.709-1.462,1.37-2.271,1.978c-0.818,0.596-1.671,1.157-2.67,1.574c0.415-0.998,0.978-1.853,1.574-2.671
		c0.607-0.811,1.267-1.565,1.977-2.271c0.708-0.707,1.463-1.367,2.272-1.975C26.799,20.331,27.65,19.767,28.646,19.351z"/>
	<path fill="#C0CA33" d="M16.258,21.437c-0.172-0.009-0.338-0.004-0.513-0.021c-1.603-0.192-3.646-0.417-5.604-2.289
		c-0.118,0.131-0.238,0.256-0.351,0.398c-0.311,0.414-0.61,0.856-0.888,1.338l0.236,0.156c2.542,1.687,4.625,2.156,6.185,2.359
		C15.593,22.654,15.911,22.02,16.258,21.437z"/>
	<path fill="#C0CA33" d="M26.545,32.214c-0.018-0.174-1.171,0.614-1.895,0.89c0.205,1.559,0.611,3.186,2.291,5.719l0.156,0.236
		c0.479-0.281,0.924-0.578,1.336-0.891c0.155-0.121,0.293-0.251,0.435-0.38c-1.142-1.796-1.865-3.501-2.14-4.97
		C26.643,32.643,26.573,32.445,26.545,32.214z"/>
	<path fill="#C0CA33" d="M33,23c-0.518,0.389-1.053,0.69-1.591,0.926c-0.086,1.588-0.509,2.985-1.205,4.231
		c-0.724,1.284-1.72,2.417-3.089,3.341c-1.4,0.91-3.05,1.68-5.579,1.96c-0.011-0.022-0.018-0.044-0.029-0.065
		c-0.012,0-0.022,0.004-0.034,0.004c-1.036-2.211-1.255-3.967-1.229-5.588c-0.872,0.01-1.785-0.058-2.786-0.279
		c-0.043-0.01-0.087-0.021-0.13-0.03c-0.222-0.054-0.449-0.113-0.68-0.183c-0.074-0.021-0.148-0.045-0.223-0.067
		c-0.214-0.067-0.434-0.146-0.657-0.229c-0.081-0.03-0.16-0.059-0.243-0.092c-0.3-0.119-0.606-0.25-0.924-0.402
		c0.281-2.528,1.052-4.178,1.959-5.579c0.926-1.37,2.058-2.365,3.341-3.089c1.188-0.662,2.516-1.07,4.009-1.183
		C24.165,16.063,24.51,15.49,25,15c-1.047,0.116-2.041,0.076-2.98-0.056c-1.084,0.246-2.119,0.622-3.091,1.164
		c-4.304,2.665-6.792,7.988-5.895,11.691c1.371,1.372,3.536,1.814,5.292,1.952c0.159,1.776,0.634,3.974,2.007,5.347
		c3.406,1.193,8.953-1.664,11.62-5.967c0.516-0.923,0.883-1.904,1.13-2.933C32.925,25.197,32.875,24.128,33,23z"/>
	<path fill="#C0CA33" d="M20.24,36.063c0-0.76,0.11-1.491,0.311-2.179c-0.536,0.297-1.105,0.561-1.738,0.761
		c-0.984,0.293-2.052,0.504-3.331,0.504c-0.726,0-1.52-0.068-2.405-0.228c-0.44-2.444-0.181-4.19,0.277-5.737
		c0.16-0.503,0.362-0.962,0.584-1.403c-0.298,0.037-0.6,0.063-0.909,0.063c-0.431,0-0.851-0.04-1.259-0.111
		c-0.113,0.279-0.23,0.556-0.323,0.847c-0.454,1.53-0.89,3.636-0.339,6.696l0.246,1.367l1.368,0.247
		c0.968,0.174,1.87,0.259,2.759,0.259c1.316,0,2.556-0.187,3.901-0.587c0.298-0.095,0.581-0.214,0.865-0.329
		C20.246,36.176,20.24,36.12,20.24,36.063z"/>
</g>
<path fill="#7CB342" d="M37,33.999c0,0-4.708-4.627-4-10.999c-4,3-9,1-9,1s-2-6,1-9c-6.371,0.707-11-4.001-11-4.001
	c7.078-7.077,16.18-5.689,22.436,0.565C42.689,17.818,44.077,26.921,37,33.999z"/>
<g>
	<path fill="#689F38" d="M37.131,12.261l-1.393-1.393C38,8,41.861,7.999,42,7.999l0,0v1.969C41.979,9.968,39,10,37.131,12.261z"/>
	<path fill="#689F38" d="M36.436,11.564c-0.055,2.071-0.593,3.656-1.276,5.095c-0.692,1.431-1.603,2.645-2.657,3.712
		c-1.063,1.062-2.275,1.971-3.706,2.665C27.357,23.722,26.077,23.954,24,24c0.047-2.078,0.277-3.358,0.963-4.796
		c0.694-1.429,1.604-2.643,2.665-3.705c1.067-1.056,2.281-1.966,3.712-2.658C32.777,12.156,34.363,11.618,36.436,11.564z"/>
	<path fill="#689F38" d="M14,10.999c1.432-1.732,3.193-2.646,5.096-3.561c1.915-0.891,3.804-1.174,5.968-1.371
		c2.158-0.195,4.447,0.009,6.588,0.861c2.115,0.838,4.102,2.469,4.783,4.636c-2.141-0.666-3.881-0.54-5.642-0.565
		C29.046,10.976,14,10.999,14,10.999z"/>
	<path fill="#689F38" d="M37,33.999c0,0,0.021-15.047,0-16.795c-0.025-1.76,0.102-3.5-0.564-5.64
		c2.166,0.681,3.797,2.666,4.635,4.782c0.854,2.142,1.058,4.43,0.861,6.588c-0.197,2.166-0.652,4.435-1.545,6.35
		C39.475,31.188,38.732,32.566,37,33.999z"/>
</g>
</svg>
