<?xml version="1.0" encoding="utf-8"?>
<!-- Generator: Adobe Illustrator 15.0.0, SVG Export Plug-In . SVG Version: 6.00 Build 0)  -->
<!DOCTYPE svg PUBLIC "-//W3C//DTD SVG 1.1//EN" "http://www.w3.org/Graphics/SVG/1.1/DTD/svg11.dtd">
<svg version="1.1"  xmlns="http://www.w3.org/2000/svg" xmlns:xlink="http://www.w3.org/1999/xlink" x="0px" y="0px"
	 width="48px" height="48px" viewBox="0 0 48 48" enable-background="new 0 0 48 48" xml:space="preserve">
<ellipse transform="matrix(0.7071 0.7071 -0.7071 0.7071 24.001 -9.941)" fill="#795548" cx="24" cy="24" rx="17" ry="21"/>
<path fill="#8BC34A" d="M27.991,6.895L27.991,6.895c3.777,0,7.043,1.269,9.444,3.67c5.849,5.849,4.579,16.634-2.829,24.043
	c-4.13,4.13-9.45,6.498-14.596,6.498c-3.778,0-7.044-1.269-9.446-3.67C7.789,34.66,6.519,30.673,6.989,26.21
	c0.487-4.622,2.761-9.173,6.405-12.816C17.523,9.264,22.844,6.895,27.991,6.895"/>
<path fill="#689F38" d="M11.845,31.94c-0.509-0.989-0.127-2.191,0.855-2.693l0,0c0.99-0.51,5.603-1.275,5.603-1.275
	s-2.788,4.33-3.771,4.832l0,0c-0.792,0.409-1.732,0.232-2.326-0.361l0,0C12.057,32.294,11.938,32.131,11.845,31.94z M15.388,33.659
	c0.494-0.99,4.566-4.007,4.566-4.007s-0.501,4.834-1.003,5.816l0,0c-0.502,0.983-1.704,1.379-2.694,0.871l0,0c0,0,0,0,0.007,0.006
	l0,0c-0.197-0.099-0.367-0.227-0.509-0.367l0,0C15.154,35.377,14.984,34.443,15.388,33.659z M10.643,25.973
	c0.064-1.11,1.012-1.944,2.114-1.889l0,0c1.104,0.057,4.884,1.53,4.884,1.53s-4.007,2.529-5.117,2.466l0,0
	c-0.509-0.028-0.954-0.248-1.294-0.587l0,0C10.841,27.104,10.614,26.566,10.643,25.973z M20.118,35.646
	c-0.071-1.104,2.601-5.279,2.601-5.279s1.323,3.941,1.388,5.038l0,0c0.063,1.11-0.777,2.051-1.881,2.121l0,0
	c-0.594,0.028-1.146-0.198-1.534-0.587l0,0C20.358,36.607,20.146,36.154,20.118,35.646z M12.156,20.315
	c0.48-0.989,1.676-1.407,2.673-0.919l0,0c0.997,0.474,3.271,3.49,3.271,3.49s-4.021,0.582-5.018,0.108l0,0
	c-0.205-0.105-0.389-0.232-0.544-0.388l0,0C11.951,22.021,11.774,21.107,12.156,20.315z M25.202,35.087
	c-0.488-0.997,0.106-5.264,0.106-5.264s3.012,2.514,3.492,3.504l0,0c0.475,0.996,0.071,2.191-0.926,2.679l0,0
	c-0.785,0.375-1.704,0.205-2.291-0.381l0,0C25.429,35.469,25.301,35.285,25.202,35.087z M15.494,15.648
	c0.777-0.777,2.043-0.785,2.828,0l0,0c0.777,0.777,1.593,4.422,1.593,4.422s-3.637-0.809-4.421-1.593l0,0
	C14.716,17.699,14.709,16.434,15.494,15.648z M28.007,28.008c0,0,3.778,1.006,4.563,1.791l0,0c0.777,0.777,0.785,2.043,0,2.828l0,0
	c-0.007,0.007-0.014,0.014-0.021,0.021l0,0c0,0-0.008,0.008-0.015,0.015l0,0c-0.777,0.777-2.044,0.784-2.828,0l0,0
	C28.929,31.884,28.007,28.008,28.007,28.008z M19.227,14.984c-0.487-0.997-0.07-2.192,0.927-2.68l0,0l0,0l0,0
	c0.982-0.488,2.186-0.078,2.673,0.919l0,0c0.481,0.989-0.173,4.969-0.173,4.969S19.58,15.868,19.227,14.984z M34.975,25.287
	L34.975,25.287c0.989,0.48,1.414,1.668,0.926,2.666l0,0c-0.481,0.989-1.676,1.406-2.673,0.933l0,0
	c-1.052-0.511-3.378-3.642-3.378-3.642S33.978,24.799,34.975,25.287z M23.922,12.892c-0.07-1.104,0.764-2.051,1.867-2.121l0,0
	c0,0,0,0,0.007,0.007l0,0c1.103-0.071,2.051,0.764,2.114,1.874l0,0c0.063,1.095-2.321,4.987-2.321,4.987S23.95,13.4,23.922,12.892z
	 M30.36,22.448c0,0,4.056-2.316,5.158-2.259l0,0c1.096,0.063,1.944,1.011,1.881,2.105l0,0c-0.057,1.104-1.053,1.808-2.1,1.889
	C34.253,24.266,30.36,22.448,30.36,22.448z M29.077,12.813c0.502-0.982,1.704-1.379,2.688-0.877l0,0
	c0.982,0.502,1.378,1.704,0.876,2.687l0,0c-0.494,0.99-4.618,3.5-4.618,3.5S28.674,13.612,29.077,12.813z M33.503,15.472
	L33.503,15.472c0.976-0.509,2.185-0.12,2.694,0.856l0,0l0,0l0,0c0.502,0.982,0.127,2.191-0.862,2.701l0,0
	c-0.792,0.409-5.791,0.76-5.791,0.76S32.514,15.98,33.503,15.472z"/>
<g>
	<path fill="#5D4037" d="M30.296,30.332c0.426-0.425,0.426-1.059,0.035-1.449c-0.228-0.221-1.219-0.633-2.426-1.029
		c0.369,1.23,0.76,2.245,0.979,2.48C29.272,30.723,29.906,30.723,30.296,30.332z"/>
	<path fill="#5D4037" d="M21.617,33.669c0.202,0.202,0.486,0.311,0.778,0.295c0.549-0.034,0.964-0.503,0.933-1.064
		c-0.025-0.407-0.323-1.521-0.674-2.687c-0.723,1.271-1.295,2.442-1.317,2.831C21.351,33.277,21.447,33.499,21.617,33.669z"/>
	<path fill="#5D4037" d="M26.708,33.047c0.486-0.237,0.693-0.844,0.454-1.346c-0.021-0.043-0.179-0.327-0.946-1.095
		c-0.274-0.274-0.572-0.556-0.859-0.819c-0.109,1.355-0.114,2.502,0.012,2.811c0.047,0.094,0.113,0.19,0.187,0.264
		C25.854,33.159,26.316,33.234,26.708,33.047z"/>
	<path fill="#5D4037" d="M32.651,25.316c-0.3-0.13-1.417-0.159-2.742-0.093c0.369,0.443,0.78,0.914,1.16,1.294
		c0.473,0.473,0.674,0.582,0.71,0.599c0.492,0.234,1.096,0.024,1.336-0.47c0.186-0.381,0.109-0.836-0.189-1.136
		C32.847,25.432,32.754,25.367,32.651,25.316z"/>
	<path fill="#5D4037" d="M20.144,29.43c-1.197,0.968-2.208,1.87-2.392,2.201c-0.2,0.389-0.126,0.854,0.182,1.16
		c0.073,0.073,0.157,0.135,0.25,0.182l0.001-0.003c0.239,0.122,0.51,0.145,0.764,0.063c0.255-0.082,0.462-0.26,0.584-0.498
		C19.701,32.203,19.937,30.911,20.144,29.43z"/>
	<path fill="#5D4037" d="M32.346,19.465c0.477-0.245,0.669-0.854,0.416-1.35c-0.044-0.084-0.104-0.167-0.177-0.238
		c-0.308-0.308-0.786-0.384-1.165-0.187c-0.323,0.174-1.205,1.114-2.157,2.233C30.74,19.776,32.025,19.601,32.346,19.465z"/>
	<path fill="#5D4037" d="M32.768,23.287c0.559-0.043,1.144-0.382,1.173-0.942c0.017-0.286-0.09-0.562-0.292-0.765
		c-0.175-0.174-0.405-0.278-0.648-0.293c-0.37,0.012-1.542,0.521-2.814,1.168C31.361,22.932,32.424,23.295,32.768,23.287z"/>
	<path fill="#5D4037" d="M15.288,30.223c0.303,0.303,0.779,0.377,1.16,0.18c0.327-0.198,1.173-1.27,2.068-2.531
		c-1.416,0.282-2.637,0.574-2.984,0.753c-0.235,0.12-0.409,0.323-0.49,0.573c-0.081,0.256-0.058,0.53,0.067,0.773
		C15.16,30.074,15.214,30.148,15.288,30.223z"/>
	<path fill="#5D4037" d="M17.756,19.288c0.227,0.216,1.176,0.578,2.325,0.912c-0.334-1.15-0.697-2.101-0.911-2.327
		c-0.39-0.39-1.024-0.389-1.414,0.001S17.366,18.897,17.756,19.288z"/>
	<path fill="#5D4037" d="M15.627,23.034c0.278,0.111,1.363,0.103,2.648-0.008c-0.347-0.413-0.732-0.849-1.09-1.206
		c-0.484-0.484-0.678-0.584-0.698-0.594c-0.25-0.123-0.521-0.139-0.773-0.053c-0.252,0.088-0.455,0.268-0.571,0.507
		c-0.186,0.385-0.109,0.847,0.189,1.147C15.407,22.902,15.506,22.971,15.627,23.034z"/>
	<path fill="#5D4037" d="M28.013,18.082c1.188-0.807,2.196-1.582,2.392-1.906c0.195-0.381,0.121-0.846-0.187-1.153
		c-0.074-0.074-0.161-0.136-0.256-0.185c-0.488-0.25-1.09-0.051-1.342,0.441C28.486,15.563,28.246,16.73,28.013,18.082z"/>
	<path fill="#5D4037" d="M20.877,16.513l0.017,0.033l0.014,0.034c0.002,0.002,0.095,0.172,0.511,0.587
		c0.357,0.357,0.806,0.751,1.229,1.105c0.129-1.269,0.15-2.351,0.029-2.651c-0.046-0.093-0.11-0.183-0.188-0.262
		c-0.303-0.303-0.76-0.38-1.137-0.191C20.845,15.415,20.635,16.017,20.877,16.513z"/>
	<path fill="#5D4037" d="M25.53,17.678c0.63-1.172,1.122-2.245,1.137-2.611c-0.018-0.299-0.166-0.51-0.287-0.632
		c-0.2-0.2-0.479-0.305-0.765-0.286l-0.13,0.008c-0.219,0.041-0.416,0.152-0.564,0.321c-0.17,0.192-0.257,0.438-0.248,0.695
		C24.732,15.458,25.093,16.488,25.53,17.678z"/>
	<path fill="#5D4037" d="M15.247,24.848c-0.555-0.027-1.032,0.396-1.063,0.946c-0.014,0.28,0.091,0.553,0.295,0.757
		c0.182,0.182,0.398,0.282,0.642,0.295c0.373-0.018,1.511-0.564,2.744-1.253C16.737,25.202,15.65,24.868,15.247,24.848z"/>
</g>
<g>
	<ellipse transform="matrix(0.7071 0.7071 -0.7071 0.7071 24.0024 -9.941)" fill="#E6EE9C" cx="24" cy="24" rx="5.667" ry="7"/>
</g>
</svg>
