<?xml version="1.0" encoding="utf-8"?>
<!-- Generator: Adobe Illustrator 19.1.1, SVG Export Plug-In . SVG Version: 6.00 Build 0)  -->
<svg version="1.1"  xmlns="http://www.w3.org/2000/svg" xmlns:xlink="http://www.w3.org/1999/xlink" x="0px" y="0px"
	 viewBox="0 0 48 48" enable-background="new 0 0 48 48" xml:space="preserve">
<path fill="#558B2F" d="M36.7,22.6L25.4,11.2c0,0,5.3,1.7,11-3.9l4.3,4.3C35,17.3,36.7,22.6,36.7,22.6z"/>
<path fill="#AED581" d="M37.1,35c2-5,1.1-11.2-2.6-16.4c-0.3-2.3,0.2-5.2,3.3-8.4c-3.1,3.1-6.1,3.7-8.4,3.3C24.3,9.8,18,8.9,13,10.9
	L14,7c0,0-5,5.1-5.2,6.7C3,19.6,3.9,30,11,37c7,7,17.5,8,23.3,2.1C35.9,39,41,34,41,34L37.1,35z"/>
<path fill="#7CB342" d="M25.8,29.3c0,0-3-1.7-1.9-5.2c-3.5,1.1-5.1-1.9-5.2-1.9l0,0l0,0l0,0c0.3,0.3,3.7,1.9,7.8-2.1l1.4,1.4
	C23.9,25.6,25.5,29,25.8,29.3L25.8,29.3z M12.4,30c-0.2-0.2-1.9-3.8,1.4-7.1l-1.4-1.4c-3.2,3.2-6.8,1.6-7.1,1.4l0,0l0,0l0,0
	c0,0,2,3,4.7,2.3C9.2,28,12.1,29.5,12.4,30L12.4,30z M25.1,42.7c-0.2-0.2-1.9-3.8,1.4-7.1l-1.4-1.4c-3.2,3.2-6.8,1.6-7.1,1.4l0,0
	l0,0c0,0,2,3,4.7,2.3C22,40.8,25.1,42.7,25.1,42.7L25.1,42.7z M11,37c0.7,0.7,1.5,1.4,2.4,2c-0.9-0.9-1-1.9,1.1-4.1l-1.4-1.4
	c-2,2-3.1,2-4.1,1.1C9.5,35.5,10.2,36.3,11,37z M41,34l-1.4-1.4c-4,4-7.8,2.6-8.1,2.3l0,0l0,0l0,0C31.5,35,35.5,39.5,41,34z
	 M13.1,16.5c-0.3-0.3-1.7-4,2.3-8.1L14,7C8.4,12.6,13,16.5,13.1,16.5L13.1,16.5z M36.7,22.6L36.7,22.6c0,0.1,0.1,0.3,0.1,0.4
	c-0.2-1.9,3.1-6.3,5.9-9.2l-1.4-1.4c-0.7,0.8-2.9,3-4.5,5.5C36.1,20.6,36.7,22.6,36.7,22.6z M25.4,11.3L25.4,11.3c0,0,2,0.6,4.9-0.2
	c2.4-1.6,4.6-3.7,5.4-4.4l-1.4-1.4c-2.9,2.9-7.3,6.1-9.2,5.9C25.1,11.2,25.3,11.2,25.4,11.3z M36.7,22.6c-0.2-0.2-3.5-6.4,2.5-12.4
	l-1.4-1.4c-6,6-12.2,2.6-12.4,2.5l0,0c0.1,0,3.3,4.8,8.7,2.7C32,19.3,36.7,22.5,36.7,22.6L36.7,22.6z"/>
</svg>
