<?xml version="1.0" encoding="UTF-8" standalone="no"?>
<!-- Created with Inkscape (http://www.inkscape.org/) -->

<svg
   xmlns:dc="http://purl.org/dc/elements/1.1/"
   xmlns:cc="http://creativecommons.org/ns#"
   xmlns:rdf="http://www.w3.org/1999/02/22-rdf-syntax-ns#"
   xmlns:svg="http://www.w3.org/2000/svg"
   xmlns="http://www.w3.org/2000/svg"
   xmlns:sodipodi="http://sodipodi.sourceforge.net/DTD/sodipodi-0.dtd"
   xmlns:inkscape="http://www.inkscape.org/namespaces/inkscape"
   width="48"
   height="48"
   viewBox="0 0 48 48.000001"
   id="svg4390"
   version="1.1"
   inkscape:version="0.91 r13725"
   sodipodi:docname="lavander.svg">
  <defs
     id="defs4392" />
  <sodipodi:namedview
     id="base"
     pagecolor="#ffffff"
     bordercolor="#666666"
     borderopacity="1.0"
     inkscape:pageopacity="0.0"
     inkscape:pageshadow="2"
     inkscape:zoom="7.9195959"
     inkscape:cx="8.6932288"
     inkscape:cy="31.747127"
     inkscape:document-units="px"
     inkscape:current-layer="layer1"
     showgrid="false"
     units="px"
     inkscape:window-width="1206"
     inkscape:window-height="855"
     inkscape:window-x="0"
     inkscape:window-y="1"
     inkscape:window-maximized="0" />
  <metadata
     id="metadata4395">
    <rdf:RDF>
      <cc:Work
         rdf:about="">
        <dc:format>image/svg+xml</dc:format>
        <dc:type
           rdf:resource="http://purl.org/dc/dcmitype/StillImage" />
        <dc:title></dc:title>
      </cc:Work>
    </rdf:RDF>
  </metadata>
  <g
     inkscape:label="Layer 1"
     inkscape:groupmode="layer"
     id="layer1"
     transform="translate(0,-1004.3622)">
    <g
       transform="matrix(0.15521876,0,0,0.15521876,-146.3634,985.6966)"
       id="g429">
      <g
         id="g431">
        <path
           style="fill:#bad86f"
           inkscape:connector-curvature="0"
           d="M 1228.1,423.8 C 1210.2,400.5 1194.9,376.7 1182.8,353 1127,244 1011.6,165.2 1010.4,164.4 l 3.9,-5.8 c 0.3,0.2 29.8,20.2 65.8,53.6 33.3,30.8 79.2,79.7 108.8,137.6 11.9,23.3 26.9,46.7 44.6,69.7 l -5.4,4.3 z"
           id="path433" />
      </g>
      <g
         id="g435">
        <path
           style="fill:#bad86f"
           inkscape:connector-curvature="0"
           d="m 1041.1,191.7 c -8.4,0 -16,-2.4 -16.4,-2.6 l 0.9,-2.9 c 0.1,0 12.7,4.1 22.7,1.6 l 0.7,2.9 c -2.5,0.7 -5.3,1 -7.9,1 z"
           id="path437" />
      </g>
      <g
         id="g439">
        <g
           id="g441">
          <path
             style="fill:#8b58a4"
             inkscape:connector-curvature="0"
             d="m 979.3,177.7 0,0 c -2.3,-3.8 -1,-7.7 3.1,-9.3 l 0,0 c 1.9,-0.7 4.3,-0.9 6.7,-0.5 11.2,2 28.1,11.3 35.5,15.7 2.2,1.3 3.3,3.3 2.7,5 l 0,0 0,0 c -0.6,1.7 -2.7,2.7 -5.2,2.4 -8.5,-1 -27.6,-3.7 -37.7,-8.9 -2.2,-1.1 -4,-2.7 -5.1,-4.4 z"
             id="path443" />
        </g>
        <g
           id="g445">
          <path
             style="fill:#6ba342"
             inkscape:connector-curvature="0"
             d="m 1015,190 c 0,0 6.9,0.2 4.8,-2 -2.2,-2.2 -3.3,-3.1 -3.3,-3.1 0,0 1.5,0 4.5,-0.4 3.1,-0.4 -2.6,-4.5 -2.6,-4.5 5.2,1.5 7.7,3.6 8.8,5.3 1.3,2.1 0.4,4.9 -1.9,5.7 -2,0.8 -5.2,1 -10.3,-1 z"
             id="path447" />
        </g>
      </g>
      <g
         id="g449">
        <path
           style="fill:#bad86f"
           inkscape:connector-curvature="0"
           d="m 1096,235 c -8.3,0 -16.5,-3.7 -16.9,-3.9 l 1.3,-2.7 c 0.1,0 9.9,4.5 18.3,3.5 l 0.4,3 c -1.1,0.1 -2.1,0.1 -3.1,0.1 z"
           id="path451" />
      </g>
      <g
         id="g453">
        <g
           id="g455">
          <path
             style="fill:#8b58a4"
             inkscape:connector-curvature="0"
             d="m 1043.2,217.2 0,0 c -1.6,-3.3 -0.1,-6.4 3.4,-7.3 l 0,0 c 1.6,-0.4 3.6,-0.3 5.5,0.2 8.9,2.7 21.9,12 27.5,16.2 1.7,1.3 2.4,3.1 1.8,4.4 l 0,0 0,0 c -0.6,1.3 -2.5,1.9 -4.5,1.4 -6.9,-1.6 -22.2,-5.7 -30,-10.9 -1.7,-1.1 -3,-2.5 -3.7,-4 z"
             id="path457" />
        </g>
        <g
           id="g459">
          <path
             style="fill:#6ba342"
             inkscape:connector-curvature="0"
             d="m 1071.1,230.7 c 0,0 5.7,0.8 4.1,-1.2 -1.6,-2 -2.4,-2.8 -2.4,-2.8 0,0 1.2,0.1 3.7,0.1 2.5,-0.1 -1.7,-3.9 -1.7,-3.9 4.1,1.7 5.9,3.7 6.7,5.2 0.9,1.8 -0.2,4 -2.1,4.5 -1.7,0.3 -4.3,0.2 -8.3,-1.9 z"
             id="path461" />
        </g>
      </g>
      <g
         id="g463">
        <path
           style="fill:#bad86f"
           inkscape:connector-curvature="0"
           d="m 1138.6,282.9 c -7.2,0 -14.6,-4.3 -14.9,-4.5 l 1.5,-2.6 c 0.1,0 7.3,4.2 13.8,4 l 0.1,3 c -0.2,0.1 -0.4,0.1 -0.5,0.1 z"
           id="path465" />
      </g>
      <g
         id="g467">
        <g
           id="g469">
          <path
             style="fill:#8b58a4"
             inkscape:connector-curvature="0"
             d="m 1097,264.6 0,0 c -1,-2.7 0.4,-5 3.2,-5.4 l 0,0 c 1.3,-0.2 2.8,0 4.3,0.6 6.7,2.8 16.1,10.9 20.1,14.7 1.2,1.1 1.6,2.5 1,3.5 l 0,0 0,0 c -0.6,1 -2.1,1.3 -3.6,0.8 -5.2,-1.8 -16.8,-6.1 -22.5,-10.7 -1.2,-1 -2.1,-2.2 -2.5,-3.5 z"
             id="path471" />
        </g>
        <g
           id="g473">
          <path
             style="fill:#6ba342"
             inkscape:connector-curvature="0"
             d="m 1117.7,277.3 c 0,0 4.3,1 3.3,-0.6 -1.1,-1.7 -1.7,-2.4 -1.7,-2.4 0,0 0.9,0.2 2.9,0.3 2,0.1 -1,-3.2 -1,-3.2 3.1,1.7 4.3,3.3 4.8,4.5 0.5,1.5 -0.4,3.1 -2,3.3 -1.3,0.3 -3.4,0 -6.3,-1.9 z"
             id="path475" />
        </g>
      </g>
      <g
         id="g477">
        <path
           style="fill:#bad86f"
           inkscape:connector-curvature="0"
           d="m 1087.8,244.3 c -5.1,0 -8.9,-0.6 -9.2,-0.7 l 0.5,-3 c 0.1,0 13.2,2.2 22.7,-1.6 l 1.1,2.8 c -4.9,2 -10.5,2.5 -15.1,2.5 z"
           id="path479" />
      </g>
      <g
         id="g481">
        <g
           id="g483">
          <path
             style="fill:#8b58a4"
             inkscape:connector-curvature="0"
             d="m 1032.1,238.8 0,0 c -2.9,-3.4 -2.1,-7.5 1.7,-9.6 l 0,0 c 1.8,-1 4.1,-1.5 6.6,-1.5 11.3,0.4 29.4,7.2 37.3,10.4 2.4,1 3.8,2.8 3.4,4.6 l 0,0 0,0 c -0.3,1.8 -2.3,3 -4.8,3.1 -8.6,0.2 -27.9,0.3 -38.6,-3.4 -2.3,-0.8 -4.3,-2.1 -5.6,-3.6 z"
             id="path485" />
        </g>
        <g
           id="g487">
          <path
             style="fill:#6ba342"
             inkscape:connector-curvature="0"
             d="m 1069.1,245.9 c 0,0 6.9,-0.8 4.4,-2.7 -2.5,-1.8 -3.7,-2.6 -3.7,-2.6 0,0 1.4,-0.2 4.4,-1.1 3,-0.9 -3.2,-4.1 -3.2,-4.1 5.4,0.7 8.1,2.4 9.5,4 1.6,1.9 1.1,4.8 -1.1,6 -1.9,1 -5,1.7 -10.3,0.5 z"
             id="path489" />
        </g>
      </g>
      <g
         id="g491">
        <g
           id="g493">
          <path
             style="fill:#bad86f"
             inkscape:connector-curvature="0"
             d="m 1186.5,349.5 c -8.8,-0.6 -17.5,-6.8 -17.8,-7.1 l 1.8,-2.4 c 0.1,0.1 8.4,6 16.3,6.5 l -0.3,3 z"
             id="path495" />
        </g>
        <g
           id="g497">
          <g
             id="g499">
            <path
               style="fill:#8b58a4"
               inkscape:connector-curvature="0"
               d="m 1137.9,322.9 0,0 c -0.8,-3.4 1,-5.9 4.5,-6.2 l 0,0 c 1.6,-0.1 3.4,0.3 5.1,1.2 7.8,4.1 18.1,15 22.6,20 1.3,1.5 1.7,3.3 0.8,4.4 l 0,0 0,0 c -0.8,1.1 -2.6,1.3 -4.4,0.5 -6.1,-2.8 -19.6,-9.3 -25.9,-15.5 -1.4,-1.2 -2.3,-2.8 -2.7,-4.4 z"
               id="path501" />
          </g>
          <g
             id="g503">
            <path
               style="fill:#6ba342"
               inkscape:connector-curvature="0"
               d="m 1161.4,340.5 c 0,0 5.1,1.8 4,-0.4 -1.1,-2.2 -1.7,-3.1 -1.7,-3.1 0,0 1.1,0.3 3.5,0.7 2.4,0.4 -0.9,-3.9 -0.9,-3.9 3.5,2.4 4.8,4.5 5.3,6 0.5,1.9 -0.9,3.7 -2.8,3.8 -1.7,0.2 -4.1,-0.4 -7.4,-3.1 z"
               id="path505" />
          </g>
        </g>
      </g>
      <g
         id="g507">
        <g
           id="g509">
          <path
             style="fill:#bad86f"
             inkscape:connector-curvature="0"
             d="m 1184.6,346.4 -2.9,-0.7 c 1.8,-7.7 -1.4,-17.4 -1.4,-17.5 l 2.8,-1 c 0.2,0.5 3.5,10.7 1.5,19.2 z"
             id="path511" />
        </g>
        <g
           id="g513">
          <g
             id="g515">
            <path
               style="fill:#8b58a4"
               inkscape:connector-curvature="0"
               d="m 1173.6,292.2 0,0 c -3,-1.8 -6,-0.8 -7.2,2.5 l 0,0 c -0.6,1.5 -0.7,3.3 -0.3,5.2 1.6,8.7 9,21.8 12.4,27.5 1,1.7 2.6,2.6 3.9,2.1 l 0,0 0,0 c 1.3,-0.5 2.1,-2.1 1.8,-4.1 -0.8,-6.6 -3.1,-21.5 -7.1,-29.3 -0.9,-1.7 -2.1,-3.1 -3.5,-3.9 z"
               id="path517" />
          </g>
          <g
             id="g519">
            <path
               style="fill:#6ba342"
               inkscape:connector-curvature="0"
               d="m 1183.5,319.8 c 0,0 0.2,5.4 -1.5,3.7 -1.7,-1.7 -2.4,-2.6 -2.4,-2.6 0,0 0,1.1 -0.3,3.5 -0.3,2.4 -3.5,-2 -3.5,-2 1.2,4.1 2.8,5.9 4.2,6.8 1.6,1 3.8,0.3 4.5,-1.5 0.4,-1.5 0.5,-3.9 -1,-7.9 z"
               id="path521" />
          </g>
        </g>
      </g>
      <g
         id="g523">
        <g
           id="g525">
          <path
             style="fill:#bad86f"
             inkscape:connector-curvature="0"
             d="m 1191.4,355.5 -2.5,-1.6 c 4.3,-6.7 4.5,-16.9 4.5,-17 l 3,0 c 0,0.6 -0.2,11.3 -5,18.6 z"
             id="path527" />
        </g>
        <g
           id="g529">
          <g
             id="g531">
            <path
               style="fill:#8b58a4"
               inkscape:connector-curvature="0"
               d="m 1199.2,300.7 0,0 c -2.2,-2.7 -5.4,-2.7 -7.6,-0.1 l 0,0 c -1,1.2 -1.8,2.9 -2.1,4.8 -1.4,8.7 1.2,23.5 2.5,30.1 0.4,1.9 1.6,3.3 3,3.3 l 0,0 0,0 c 1.4,0 2.7,-1.3 3.1,-3.2 1.4,-6.5 4.3,-21.3 3,-30 -0.2,-1.9 -0.9,-3.6 -1.9,-4.9 z"
               id="path533" />
          </g>
          <g
             id="g535">
            <path
               style="fill:#6ba342"
               inkscape:connector-curvature="0"
               d="m 1199.2,330.1 c 0,0 -1.6,5.2 -2.7,3 -1.1,-2.2 -1.4,-3.2 -1.4,-3.2 0,0 -0.4,1.1 -1.5,3.2 -1.1,2.1 -2.6,-3 -2.6,-3 -0.2,4.2 0.7,6.6 1.7,7.8 1.2,1.5 3.5,1.5 4.7,0 1,-1.3 2,-3.6 1.8,-7.8 z"
               id="path537" />
          </g>
        </g>
      </g>
      <g
         id="g539">
        <g
           id="g541">
          <path
             style="fill:#bad86f"
             inkscape:connector-curvature="0"
             d="m 1140.3,293 c -7.4,0 -14.1,-2.2 -14.5,-2.3 l 0.9,-2.9 c 0.1,0 11.1,3.6 19.8,1.5 l 0.7,2.9 c -2.2,0.6 -4.6,0.8 -6.9,0.8 z"
             id="path543" />
        </g>
        <g
           id="g545">
          <g
             id="g547">
            <path
               style="fill:#8b58a4"
               inkscape:connector-curvature="0"
               d="m 1086.2,280.4 0,0 c -2,-3.3 -0.9,-6.7 2.7,-8.1 l 0,0 c 1.7,-0.6 3.7,-0.8 5.9,-0.4 9.8,1.8 24.5,10 31,13.8 1.9,1.1 2.9,2.9 2.4,4.4 l 0,0 0,0 c -0.5,1.5 -2.4,2.3 -4.6,2.1 -7.4,-0.9 -24.1,-3.3 -33,-7.8 -1.9,-1.1 -3.4,-2.5 -4.4,-4 z"
               id="path549" />
          </g>
          <g
             id="g551">
            <path
               style="fill:#6ba342"
               inkscape:connector-curvature="0"
               d="m 1117.4,291.3 c 0,0 6.1,0.2 4.2,-1.8 -1.9,-1.9 -2.9,-2.7 -2.9,-2.7 0,0 1.3,0 3.9,-0.4 2.6,-0.4 -2.3,-3.9 -2.3,-3.9 4.6,1.3 6.7,3.1 7.7,4.7 1.1,1.8 0.3,4.3 -1.7,5 -1.7,0.6 -4.5,0.8 -8.9,-0.9 z"
               id="path553" />
          </g>
        </g>
      </g>
      <g
         id="g555">
        <g
           id="g557">
          <path
             style="fill:#bad86f"
             inkscape:connector-curvature="0"
             d="m 1185.3,357.4 c -8.1,0 -15.8,-2.9 -16.2,-3.1 l 1.1,-2.8 c 0.1,0 10.9,4.1 19.7,2.5 l 0.5,2.9 c -1.7,0.4 -3.4,0.5 -5.1,0.5 z"
             id="path559" />
        </g>
        <g
           id="g561">
          <g
             id="g563">
            <path
               style="fill:#8b58a4"
               inkscape:connector-curvature="0"
               d="m 1130.1,342 0,0 c -1.9,-3.4 -0.5,-6.8 3.2,-8 l 0,0 c 1.7,-0.6 3.8,-0.6 5.9,-0.1 9.7,2.3 24,11.2 30.2,15.4 1.9,1.2 2.7,3.1 2.2,4.5 l 0,0 0,0 c -0.6,1.5 -2.5,2.2 -4.7,1.8 -7.4,-1.3 -23.9,-4.6 -32.5,-9.5 -2,-1.1 -3.4,-2.5 -4.3,-4.1 z"
               id="path565" />
          </g>
          <g
             id="g567">
            <path
               style="fill:#6ba342"
               inkscape:connector-curvature="0"
               d="m 1160.6,354.5 c 0,0 6.1,0.5 4.3,-1.5 -1.8,-2 -2.8,-2.8 -2.8,-2.8 0,0 1.3,0.1 4,-0.2 2.7,-0.2 -2,-4 -2,-4 4.5,1.6 6.5,3.5 7.4,5.1 1.1,1.9 0.1,4.3 -2,4.9 -1.7,0.4 -4.5,0.4 -8.9,-1.5 z"
               id="path569" />
          </g>
        </g>
      </g>
      <g
         id="g571">
        <g
           id="g573">
          <path
             style="fill:#bad86f"
             inkscape:connector-curvature="0"
             d="m 1154.3,303.5 -2.8,-1 c 2.9,-8.5 0.3,-19.7 0.3,-19.8 l 2.9,-0.7 c 0.1,0.5 2.7,12.2 -0.4,21.5 z"
             id="path575" />
        </g>
        <g
           id="g577">
          <g
             id="g579">
            <path
               style="fill:#8b58a4"
               inkscape:connector-curvature="0"
               d="m 1148,241.7 0,0 c -3.1,-2.3 -6.6,-1.5 -8.3,2 l 0,0 c -0.8,1.6 -1.1,3.7 -0.9,5.8 0.9,9.9 7.7,25.3 11,32.1 1,2 2.7,3.1 4.2,2.8 l 0,0 0,0 c 1.5,-0.4 2.5,-2.1 2.5,-4.4 -0.2,-7.5 -1.1,-24.3 -4.9,-33.5 -1,-2.1 -2.2,-3.7 -3.6,-4.8 z"
               id="path581" />
          </g>
          <g
             id="g583">
            <path
               style="fill:#6ba342"
               inkscape:connector-curvature="0"
               d="m 1156,273.7 c 0,0 -0.4,6.1 -2.1,4 -1.7,-2.1 -2.4,-3.1 -2.4,-3.1 0,0 -0.1,1.3 -0.7,3.9 -0.6,2.6 -3.7,-2.6 -3.7,-2.6 0.9,4.7 2.5,7 4,8.1 1.7,1.3 4.2,0.7 5.1,-1.2 0.7,-1.8 1.1,-4.6 -0.2,-9.1 z"
               id="path585" />
          </g>
        </g>
      </g>
      <g
         id="g587">
        <path
           style="fill:#bad86f"
           inkscape:connector-curvature="0"
           d="m 1106.3,242.3 -2.9,-0.6 c 1.6,-7.8 -1.9,-17.5 -1.9,-17.6 l 2.8,-1 c 0.2,0.4 3.8,10.5 2,19.2 z"
           id="path589" />
      </g>
      <g
         id="g591">
        <g
           id="g593">
          <path
             style="fill:#8b58a4"
             inkscape:connector-curvature="0"
             d="m 1093.8,187.9 0,0 c -3,-1.7 -6.1,-0.6 -7.2,2.7 l 0,0 c -0.5,1.5 -0.6,3.4 -0.2,5.3 1.9,8.7 9.6,21.7 13.2,27.4 1.1,1.7 2.7,2.5 4,2 l 0,0 0,0 c 1.3,-0.5 2,-2.2 1.7,-4.2 -1,-6.6 -3.7,-21.5 -8,-29.3 -0.8,-1.7 -2.1,-3.1 -3.5,-3.9 z"
             id="path595" />
        </g>
        <g
           id="g597">
          <path
             style="fill:#6ba342"
             inkscape:connector-curvature="0"
             d="m 1104.5,215.5 c 0,0 0.3,5.4 -1.4,3.8 -1.8,-1.6 -2.5,-2.5 -2.5,-2.5 0,0 0,1.1 -0.2,3.5 -0.3,2.4 -3.6,-1.9 -3.6,-1.9 1.3,4.1 3,5.9 4.4,6.7 1.7,1 3.8,0.2 4.4,-1.7 0.5,-1.5 0.5,-4 -1.1,-7.9 z"
             id="path599" />
        </g>
      </g>
      <g
         id="g601">
        <path
           style="fill:#bad86f"
           inkscape:connector-curvature="0"
           d="m 1138.2,282.9 -2.9,-0.6 c 1.6,-7.8 -1.9,-17.5 -1.9,-17.6 l 2.8,-1 c 0.1,0.4 3.8,10.5 2,19.2 z"
           id="path603" />
      </g>
      <g
         id="g605">
        <g
           id="g607">
          <path
             style="fill:#8b58a4"
             inkscape:connector-curvature="0"
             d="m 1125.7,228.5 0,0 c -3,-1.7 -6.1,-0.6 -7.2,2.7 l 0,0 c -0.5,1.5 -0.6,3.4 -0.2,5.3 1.9,8.7 9.6,21.7 13.2,27.4 1.1,1.7 2.7,2.5 4,2 l 0,0 0,0 c 1.3,-0.5 2,-2.2 1.7,-4.2 -1,-6.6 -3.7,-21.5 -8,-29.3 -0.9,-1.7 -2.1,-3.1 -3.5,-3.9 z"
             id="path609" />
        </g>
        <g
           id="g611">
          <path
             style="fill:#6ba342"
             inkscape:connector-curvature="0"
             d="m 1136.3,256.1 c 0,0 0.3,5.4 -1.4,3.8 -1.8,-1.6 -2.5,-2.5 -2.5,-2.5 0,0 0,1.1 -0.2,3.5 -0.2,2.4 -3.6,-1.9 -3.6,-1.9 1.3,4.1 3,5.9 4.4,6.7 1.7,1 3.8,0.2 4.4,-1.7 0.5,-1.4 0.6,-3.9 -1.1,-7.9 z"
             id="path613" />
        </g>
      </g>
      <g
         id="g615">
        <path
           style="fill:#bad86f"
           inkscape:connector-curvature="0"
           d="m 1034,178.1 -3,0 c 0.1,-9.7 -4.1,-14.2 -4.1,-14.3 l 2.2,-2.1 c 0.2,0.3 5.1,5.6 4.9,16.4 z"
           id="path617" />
      </g>
      <g
         id="g619">
        <path
           style="fill:#bad86f"
           inkscape:connector-curvature="0"
           d="m 1047.3,188.1 c -2.4,-11.4 -9,-16.9 -9,-17 l 1.9,-2.3 c 0.3,0.3 7.5,6.3 10.1,18.7 l -3,0.6 z"
           id="path621" />
      </g>
      <g
         id="g623">
        <g
           id="g625">
          <path
             style="fill:#8b58a4"
             inkscape:connector-curvature="0"
             d="m 993.1,134.3 0,0 c -0.4,-4.4 2.6,-7.3 7,-6.8 l 0,0 c 2,0.2 4.2,1.1 6.2,2.6 9,6.9 19.8,22.9 24.4,30.1 1.4,2.2 1.4,4.5 0.1,5.7 l 0,0 0,0 c -1.3,1.3 -3.6,1.1 -5.7,-0.3 -7.1,-4.8 -22.9,-15.9 -29.5,-25.1 -1.5,-1.9 -2.4,-4.1 -2.5,-6.2 z"
             id="path627" />
        </g>
        <g
           id="g629">
          <path
             style="fill:#6ba342"
             inkscape:connector-curvature="0"
             d="m 1019.1,161.6 c 0,0 6.1,3.3 5.2,0.4 -0.9,-2.9 -1.6,-4.3 -1.6,-4.3 0,0 1.3,0.7 4.2,1.7 2.9,1 -0.3,-5.2 -0.3,-5.2 4,3.7 5.2,6.7 5.4,8.7 0.2,2.5 -1.9,4.5 -4.3,4.2 -2,-0.2 -4.9,-1.4 -8.6,-5.5 z"
             id="path631" />
        </g>
      </g>
      <g
         id="g633">
        <g
           id="g635">
          <path
             style="fill:#8b58a4"
             inkscape:connector-curvature="0"
             d="m 1015.4,143.2 0,0 c 0.3,-3.7 3.1,-5.8 6.7,-4.8 l 0,0 c 1.7,0.4 3.4,1.5 4.8,3 6.6,6.9 13.6,21.6 16.5,28.2 0.9,2 0.6,3.9 -0.6,4.8 l 0,0 0,0 c -1.2,0.9 -3.2,0.5 -4.7,-1 -5.3,-4.9 -17,-16.2 -21.4,-24.7 -1,-1.8 -1.4,-3.7 -1.3,-5.5 z"
             id="path637" />
        </g>
        <g
           id="g639">
          <path
             style="fill:#6ba342"
             inkscape:connector-curvature="0"
             d="m 1033.6,169.3 c 0,0 4.7,3.5 4.3,1 -0.4,-2.6 -0.8,-3.7 -0.8,-3.7 0,0 1,0.7 3.3,1.9 2.3,1.2 0.4,-4.3 0.4,-4.3 2.8,3.6 3.5,6.2 3.4,8 -0.1,2.1 -2.1,3.5 -4.1,3 -1.7,-0.6 -3.9,-2.1 -6.5,-5.9 z"
             id="path641" />
        </g>
      </g>
      <g
         id="g643">
        <path
           style="fill:#bad86f"
           inkscape:connector-curvature="0"
           d="m 1097.2,237.2 c -2.4,-11.4 -9,-16.9 -9,-17 l 1.9,-2.3 c 0.3,0.3 7.5,6.3 10.1,18.7 l -3,0.6 z"
           id="path645" />
      </g>
      <g
         id="g647">
        <g
           id="g649">
          <path
             style="fill:#8b58a4"
             inkscape:connector-curvature="0"
             d="m 1065.3,192.3 0,0 c 0.3,-3.7 3.1,-5.8 6.7,-4.8 l 0,0 c 1.7,0.4 3.4,1.5 4.8,3 6.6,6.9 13.6,21.6 16.5,28.2 0.9,2 0.6,3.9 -0.6,4.8 l 0,0 0,0 c -1.2,0.9 -3.2,0.5 -4.7,-1 -5.3,-4.9 -17,-16.2 -21.4,-24.7 -1,-1.8 -1.4,-3.8 -1.3,-5.5 z"
             id="path651" />
        </g>
        <g
           id="g653">
          <path
             style="fill:#6ba342"
             inkscape:connector-curvature="0"
             d="m 1083.5,218.3 c 0,0 4.7,3.5 4.3,1 -0.4,-2.6 -0.8,-3.7 -0.8,-3.7 0,0 1,0.7 3.3,1.9 2.3,1.2 0.4,-4.3 0.4,-4.3 2.8,3.6 3.5,6.2 3.4,8 -0.1,2.1 -2.1,3.5 -4.1,3 -1.7,-0.6 -4,-2 -6.5,-5.9 z"
             id="path655" />
        </g>
      </g>
      <g
         id="g657">
        <path
           style="fill:#bad86f"
           inkscape:connector-curvature="0"
           d="m 1029.8,175.3 c -12.3,-0.2 -25.5,-7.1 -26,-7.4 l 1.4,-2.7 c 0.1,0.1 13.1,6.8 24.7,7.1 l -0.1,3 z"
           id="path659" />
      </g>
      <g
         id="g661">
        <g
           id="g663">
          <path
             style="fill:#8b58a4"
             inkscape:connector-curvature="0"
             d="m 972.8,154 0,0 c -1.6,-3.9 0.3,-7.4 4.4,-8.2 l 0,0 c 1.9,-0.4 4.2,-0.2 6.3,0.6 10.1,3.7 24.4,15.2 30.6,20.5 1.9,1.6 2.6,3.7 1.7,5.2 l 0,0 0,0 c -0.8,1.5 -3,2.1 -5.3,1.4 -7.8,-2.3 -25.3,-8 -33.9,-14.5 -1.7,-1.5 -3.1,-3.2 -3.8,-5 z"
             id="path665" />
        </g>
        <g
           id="g667">
          <path
             style="fill:#6ba342"
             inkscape:connector-curvature="0"
             d="m 1004.1,171.4 c 0,0 6.5,1.3 4.8,-1.1 -1.7,-2.4 -2.6,-3.4 -2.6,-3.4 0,0 1.4,0.2 4.3,0.3 2.9,0.1 -1.7,-4.6 -1.7,-4.6 4.7,2.3 6.6,4.6 7.4,6.4 0.9,2.2 -0.4,4.6 -2.7,5.1 -2,0.3 -5,0 -9.5,-2.7 z"
             id="path669" />
        </g>
      </g>
    </g>
  </g>
</svg>
