<?xml version="1.0" encoding="utf-8"?>
<!-- Generator: Adobe Illustrator 19.1.1, SVG Export Plug-In . SVG Version: 6.00 Build 0)  -->
<svg version="1.1"  xmlns="http://www.w3.org/2000/svg" xmlns:xlink="http://www.w3.org/1999/xlink" x="0px" y="0px"
	 viewBox="0 0 48 48" enable-background="new 0 0 48 48" xml:space="preserve">
<path fill="#689F38" d="M29,7c-3.5-0.1-2.6-3-5-3s-1.5,2.9-5,3c-2.9,0.1-4,5-4,5l9,23l9-23C33,12,31.9,7.1,29,7z"/>
<g>
	<path fill="#8BC34A" d="M20,45c-0.4-2.3,1.1-4.3-0.9-5.5c-1-0.6-2.2-0.8-3.1-1.5c-1.5-1-1.1-3.7-1.5-5.5c-0.1-0.3-0.2-0.7-0.4-0.9
		c-0.4-0.5-2.2-1.3-2.8-1.5C10.1,29.9,9.3,29,9,28c-0.3-1.1,0.1-2.3,0-3.4c0-1.4,0.4-1.8-0.6-2.8c-0.7-0.6-1.5-1-2-1.8
		c-0.9-1.4-0.3-4,1.2-4.8c0.8-0.4,1.8-0.5,2.4-2.3c0.5-1.6,0.5-2.1,1-3.7c0.4-1.3,1.7-2.2,3-2.3s2.6,0.7,3,2c0.6,1.8,0.3,1.7,1,3
		c0.8,1.5,3.9,1.9,4,5c0,1.1-1.5,2.7-1.1,3.6c0.2,0.4,0.6,0.7,1,1.1c1,1,1.5,2.5,1.3,3.9c-0.1,0.8-0.5,1.6-0.6,2.5
		c-0.1,1.8,1.3,3.2,2.4,4.7c2.6,3.5,1,6.2,1,12.2C26,45,20,45,20,45z"/>
	<path fill="#8BC34A" d="M26,45c0.4-2.3,0.9-4.3,2.9-5.5c1-0.6,2.2-0.8,3.1-1.5c1.5-1,1.1-3.7,1.5-5.5c0.1-0.3,0.2-0.7,0.4-0.9
		c0.4-0.5,2.2-1.3,2.8-1.5c1-0.3,1.9-1.1,2.2-2.1c0.3-1.1-0.1-2.3,0-3.4c0-1.4-0.4-1.8,0.6-2.8c0.7-0.6,1.5-1,2-1.8
		c0.9-1.4,0.3-4-1.2-4.8c-0.8-0.4-1.8-1-2.4-2.3c-0.7-1.5-0.5-2.1-1-3.7c-0.4-1.3-1.7-2.2-3-2.3c-1.3-0.1-2.6,0.7-3,2
		c-0.6,1.8-0.3,1.7-1,3c-0.8,1.5-3.9,1.9-4,5c0,1.1,1.5,2.7,1.1,3.6c-0.2,0.4-0.6,0.7-1,1.1c-1,1-1.5,2.5-1.3,3.9
		c0.1,0.8,0.5,1.6,0.6,2.5c0.1,1.8-1.3,3.2-2.4,4.7c-2.6,3.5-3,6.2-3,12.2C20,45,26,45,26,45z"/>
</g>
<path fill="#558B2F" d="M29,7c-2.8-0.1-2.8-2-3.9-2.7c0.9,4.6,3.8,4.2,3.6,5.7c-0.1,0.4-0.1,0.6-0.4,1.1c-0.1,0.1-0.6,0.5-0.9,0.7
	c-1.2,0.8-3.2,2.2-3.3,5.2c0,0,0,0,0,0.1c0,0,0,0,0-0.1c-0.1-3-2.1-4.3-3.3-5.2c-0.3-0.2-0.8-0.5-0.9-0.7c-0.3-0.5-0.4-0.6-0.4-1.1
	c-0.1-1.6,2.5-1.1,3.6-5.7C21.8,5,21.8,6.9,19,7c-1,0-1.7,0.6-2.3,1.3C16.8,8.5,16.9,8.8,17,9c0.6,1.8,0.3,1.7,1,3
	c0.8,1.5,3.9,1.9,4,5c0,1.1-1.5,2.7-1.1,3.6c0.2,0.4,0.6,0.7,1,1.1c1,1,1.5,2.5,1.3,3.9c-0.1,0.8-0.5,1.6-0.6,2.5
	c0,0.6,0.1,1.1,0.3,1.6c-3.4,3.5-2.9,10.7-2.8,11.2c0.2-3.4,1-5.5,2.9-8.1c0.3-0.4,0.7-0.8,1-1.3v0c0.8-1,1.5-2.1,1.4-3.4
	c0-0.9-0.4-1.7-0.6-2.5c-0.2-1.4,0.2-2.9,1.3-3.9c0.3-0.3,0.8-0.6,1-1.1c0.4-1-1.1-2.6-1.1-3.6c0.1-3.1,3.2-3.5,4-5
	c0.7-1.3,0.4-1.3,1-3c0.1-0.2,0.2-0.5,0.3-0.7C30.7,7.6,30,7,29,7z M24.7,20.3c-0.3,0.3-0.5,0.5-0.7,0.8c-0.2-0.3-0.5-0.6-0.7-0.8
	c-0.1-0.1-0.2-0.2-0.3-0.3c0.1-0.2,0.2-0.3,0.2-0.5c0.4-0.7,0.8-1.5,0.8-2.4c0,0.9,0.4,1.7,0.8,2.4c0.1,0.1,0.2,0.3,0.2,0.5
	C24.9,20.1,24.8,20.2,24.7,20.3z"/>
<path fill="#DCEDC8" d="M20.1,36.8c-0.1-0.2-0.2-0.3-0.3-0.5c-0.4-0.8-0.9-1.6-1.4-2.4c-0.5-0.8-1-1.7-1.5-2.6
	c-0.5-0.9-1-1.8-1.4-2.7c-0.4-0.9-0.9-1.8-1.2-2.7c-0.4-0.9-0.6-1.8-0.8-2.6c-0.2-0.8-0.3-1.7-0.4-2.4C13,20.1,13,19.4,13,18.8
	c-0.1-0.6,0.1-1.1,0.1-1.6c0.1-0.9,0.1-1.4,0.1-1.4s0,0.5,0.1,1.4c0,0.4,0,1,0.1,1.5c0.1,0.6,0.2,1.3,0.4,2c0.2,0.7,0.4,1.5,0.7,2.3
	c0.3,0.8,0.6,1.6,1.1,2.4c0.4,0.8,0.9,1.6,1.4,2.4c0.5,0.8,1.1,1.6,1.7,2.4c0.6,0.8,1.2,1.6,1.8,2.3c0.2,0.2,0.3,0.4,0.5,0.6
	c-0.1,0.4-0.3,0.9-0.4,1.3c0,0.1,0,0.1,0,0.2c0,0.1,0,0.1,0,0.2c-0.1,0.2-0.1,0.5-0.1,0.7c0,0.3-0.1,0.6-0.1,0.9c0,0,0,0,0,0
	C20.2,36.5,20.2,36.7,20.1,36.8z M25,45c0,0,0-0.5-0.1-1.4c-0.1-0.5,0-0.8,0.1-1.3c0-0.4,0.1-1,0.3-1.7c0.1-0.3,0.2-0.7,0.3-1
	c0.1-0.3,0.2-0.7,0.4-1.1c0.3-0.7,0.7-1.5,1.1-2.3c0.4-0.8,0.9-1.6,1.4-2.4c0.5-0.8,1-1.7,1.5-2.6c0.5-0.9,1-1.8,1.4-2.7
	c0.4-0.9,0.9-1.8,1.2-2.7c0.4-0.9,0.6-1.8,0.8-2.6c0.2-0.8,0.3-1.7,0.4-2.4c0.1-0.8,0.1-1.4,0.1-2.1c0.1-0.6-0.1-1.1-0.1-1.6
	c-0.1-0.9-0.1-1.4-0.1-1.4s0,0.5-0.1,1.4c0,0.4,0,1-0.1,1.5c-0.1,0.6-0.2,1.3-0.4,2c-0.2,0.7-0.4,1.5-0.7,2.3
	c-0.3,0.8-0.6,1.6-1.1,2.4c-0.4,0.8-0.9,1.6-1.4,2.4c-0.5,0.8-1.1,1.6-1.7,2.4c-0.6,0.8-1.2,1.6-1.8,2.3c-0.6,0.8-1.2,1.5-1.8,2.3
	c-0.6,0.8-1.1,1.6-1.5,2.4c-0.2,0.4-0.4,0.8-0.6,1.2c-0.2,0.4-0.4,0.8-0.5,1.2c-0.3,0.8-0.6,1.5-0.7,2.2c-0.2,0.7-0.3,1.4-0.3,1.8
	C21,44.5,21,45,21,45L25,45z"/>
</svg>
