<?xml version="1.0" encoding="iso-8859-1"?>
<!-- Generator: Adobe Illustrator 19.1.1, SVG Export Plug-In . SVG Version: 6.00 Build 0)  -->
<svg version="1.1"  xmlns="http://www.w3.org/2000/svg" xmlns:xlink="http://www.w3.org/1999/xlink" x="0px" y="0px"
	 viewBox="0 0 48 48" style="enable-background:new 0 0 48 48;" xml:space="preserve">
<path style="fill:#FF4081;" d="M45,14c0,0,1.391,13.905-10,17c-10.813,2.938-11,4-11,4c0-5.125-0.563-10.563,8-14
	S43.063,17.063,45,14z M3.054,14c0,0-1.391,13.905,10,17c10.813,2.938,11,4,11,4c0-5.125,0.563-10.563-8-14S4.991,17.063,3.054,14z"
	/>
<path style="fill:#F50057;" d="M24,32c0-16.313,8.75-15.75,11-22c0,0,2,3.063,2,10S29.938,32,24,32z M24,32
	c0-16.313-8.75-15.75-11-22c0,0-2,3.063-2,10S18.063,32,24,32z"/>
<path style="fill:#D50000;" d="M24,6c0,0-6,7.438-6,15s6,10,6,10s6-2.438,6-10S24,6,24,6z"/>
<path style="fill:#FFC400;" d="M24,23h-6c0,0,0.046,3.033,3,6c2.226,2.236,3,5,3,5s0.774-2.764,3-5c2.954-2.967,3-6,3-6H24z"/>
<ellipse style="fill:#FFEA00;" cx="24" cy="23" rx="6" ry="2"/>
<circle style="fill:#FFC400;" cx="21" cy="22" r="1"/>
<circle style="fill:#FFC400;" cx="24" cy="21" r="1"/>
<circle style="fill:#FFC400;" cx="27" cy="22" r="1"/>
<path style="fill:none;stroke:#FFEA00;stroke-width:2;stroke-linecap:round;stroke-miterlimit:10;" d="M24,34c0-2.313,9-5,9-11"/>
<path style="fill:none;stroke:#FFEA00;stroke-width:2;stroke-linecap:round;stroke-miterlimit:10;" d="M24,34c0-2.313-9-5-9-11"/>
<path style="fill:#FF80AB;" d="M24,34c0,0,5.875-6.688,12-7s8.313-0.688,11-3c0,2.875-3.125,13-11,13S24,34,24,34z M24,34
	c0,0-5.875-6.688-12-7s-8.313-0.688-11-3c0,2.875,3.125,13,11,13S24,34,24,34z"/>
<path style="fill:#FCB4D2;" d="M24,34c0.193,0.203-0.5,8-7,8S5.563,36.25,5,34c3.938,1.438,9.125-1,12-1S22.813,32.75,24,34z M24,34
	c-0.193,0.203,0.5,8,7,8s11.438-5.75,12-8c-3.938,1.438-9.125-1-12-1S25.188,32.75,24,34z"/>
</svg>
