<?xml version="1.0" encoding="utf-8"?>
<!-- Generator: Adobe Illustrator 15.0.0, SVG Export Plug-In . SVG Version: 6.00 Build 0)  -->
<!DOCTYPE svg PUBLIC "-//W3C//DTD SVG 1.1//EN" "http://www.w3.org/Graphics/SVG/1.1/DTD/svg11.dtd">
<svg version="1.1"  xmlns="http://www.w3.org/2000/svg" xmlns:xlink="http://www.w3.org/1999/xlink" x="0px" y="0px"
	 width="48px" height="48px" viewBox="0 0 48 48" enable-background="new 0 0 48 48" xml:space="preserve">
<path fill="#8BC34A" d="M29.76,37.057c0.134-0.044,0.229-0.047,0.242-0.048c0.003,0,0.006-0.002,0.008-0.002
	c0,0.002,0.001,0.002,0.105,0.002l10.932-0.984c0,0-2.035-1.482-2.784-2.313c-0.004-0.002-0.007-0.006-0.011-0.01
	c-0.004-0.006-0.011-0.01-0.015-0.015l0.001-0.006c-0.167-0.181-0.271-0.419-0.267-0.684c0.003-0.342,0.186-0.626,0.449-0.804
	l0.002-0.024L43,27.999l-4.977-1c-0.554-0.005-0.996-0.457-0.99-1.01c0-0.199,1.012-2.99,1.012-2.99l-4.995,1
	c-0.552-0.006-0.997-0.5-0.99-1.053c0.001-0.213,0.084-0.398,0.198-0.56l-0.009-0.019L40,12.018c0,0-3-0.017-4.01-0.018
	C35.048,11.999,35,11,35,11V4l-5.705,4.84c0,0-0.698,0.477-1.34-0.213c-0.64-0.691-3-3.627-3-3.627l-4.034,12.81l-0.019,0.003
	c-0.058,0.189-0.152,0.37-0.32,0.501c-0.433,0.345-1.061,0.271-1.405-0.162L17,13c0,0-1.779,3.683-1.938,3.806
	c-0.433,0.344-1.156,0.146-1.404-0.162L10,13l-0.881,5.926l-0.018,0.016c0.021,0.316-0.09,0.637-0.358,0.85
	c-0.207,0.166-0.458,0.229-0.702,0.207l-0.005,0.006C8.029,20.004,8.022,20,8.016,20C8.011,20,5,20,5,20l5.799,8.597
	c0.001,0.001,0.002,0.001,0.003,0.001c0.002,0.002,0.001,0.006,0.003,0.008c0.007,0.01,0.064,0.086,0.113,0.22
	c0.177,0.406,0.085,0.89-0.278,1.179C9.855,30.625,8,32,8,32l11,3l10,6c0,0-0.009-2,0-3.001
	C29.004,37.536,29.331,37.165,29.76,37.057z"/>
<g>
	<path fill="#689F38" d="M8.744,41.198C11.176,39.632,23,34,31,12c-6,23-17.946,29.669-20.584,31.69
		c-0.659,0.504-1.602,0.379-2.106-0.279s-0.38-1.602,0.279-2.106c0.031-0.024,0.063-0.047,0.097-0.068L8.744,41.198z"/>
	<g>
		<path fill="#689F38" d="M14,21c1.018,1.525,2.165,2.846,3.44,4.029c0.633,0.594,1.304,1.144,1.979,1.68
			c0.679,0.514,1.412,1.033,2.09,1.442l-0.066-0.036l1.506,0.744l0.374,0.19l0.15,0.075l0.152,0.065
			c0.219,0.087,0.457,0.175,0.698,0.25c0.975,0.296,2.017,0.508,3.077,0.604c1.062,0.119,2.146,0.149,3.245,0.129
			C31.748,30.165,32.856,30.067,34,30c-2.026,1.056-4.312,1.637-6.663,1.706c-1.175,0.007-2.368-0.075-3.55-0.39
			c-0.296-0.079-0.591-0.165-0.893-0.283l-0.235-0.098l-0.227-0.107l-0.377-0.186l-1.498-0.758l-0.047-0.023l-0.02-0.013
			c-0.846-0.548-1.545-1.124-2.237-1.772c-0.691-0.633-1.322-1.33-1.893-2.073c-0.574-0.738-1.072-1.538-1.481-2.376
			C14.472,22.793,14.161,21.9,14,21z"/>
	</g>
</g>
</svg>
