<?xml version="1.0" encoding="utf-8"?>
<!-- Generator: Adobe Illustrator 19.1.1, SVG Export Plug-In . SVG Version: 6.00 Build 0)  -->
<svg version="1.1"  xmlns="http://www.w3.org/2000/svg" xmlns:xlink="http://www.w3.org/1999/xlink" x="0px" y="0px"
	 viewBox="0 0 48 48" enable-background="new 0 0 48 48" xml:space="preserve">
<path fill="#FFECB3" d="M36.5,35.5c8.7-8.7,8.7-22.8,0-31.5L5.1,35.5C13.8,44.2,27.8,44.2,36.5,35.5z"/>
<g>
	<path fill="#FFB300" d="M28,27c4.7-4.7,5.5-11.9,1.4-15.7L12.2,28.4C16.1,32.5,23.2,31.7,28,27z"/>
</g>
<path fill="#4CAF50" d="M35.1,34.1c-7.9,7.9-20.7,7.9-28.6,0l-1.4,1.4c8.7,8.7,22.8,8.7,31.5,0s8.7-22.8,0-31.5l-1.4,1.4
	C43,13.4,43,26.2,35.1,34.1z"/>
<path fill="#F57F17" d="M25.8,23.4c0.4,0.4,1.4,2.9,1.4,2.9s-2.5-1-2.9-1.4c-0.4-0.4-0.4-1,0-1.4C24.8,23,25.4,23,25.8,23.4z
	 M16.5,28.4c-0.4,0.4-0.4,1,0,1.4c0.4,0.4,2.1,0.7,2.1,0.7s-0.3-1.8-0.7-2.1S16.9,28,16.5,28.4z M29.4,15.5c-0.4,0.4-0.4,1,0,1.4
	s2.1,0.7,2.1,0.7s-0.3-1.8-0.7-2.1C30.4,15.1,29.8,15.1,29.4,15.5z M26.5,21.2c-0.4,0.4-0.4,1,0,1.4c0.4,0.4,2.9,1.4,2.9,1.4
	s-1-2.5-1.4-2.9C27.6,20.8,26.9,20.8,26.5,21.2z M22.2,25.5c-0.4,0.4-0.4,1,0,1.4c0.4,0.4,2.9,1.4,2.9,1.4s-1-2.5-1.4-2.9
	C23.3,25.1,22.6,25.1,22.2,25.5z M19.4,27c-0.4,0.4-0.4,1,0,1.4c0.4,0.4,2.9,1.4,2.9,1.4s-1-2.5-1.4-2.9
	C20.4,26.6,19.8,26.6,19.4,27z M28,18.4c-0.4,0.4-0.4,1,0,1.4c0.4,0.4,2.9,1.4,2.9,1.4s-1-2.5-1.4-2.9C29,18,28.3,18,28,18.4z
	 M20.8,19.8c-0.4,0.4-0.4,1,0,1.4c0.4,0.4,2.9,1.4,2.9,1.4s-1-2.5-1.4-2.9C21.8,19.4,21.2,19.4,20.8,19.8z M18.7,21.9
	c-0.4,0.4-0.4,1,0,1.4c0.4,0.4,2.9,1.4,2.9,1.4s-1-2.5-1.4-2.9C19.7,21.6,19,21.6,18.7,21.9z M22.9,17.7c-0.4,0.4-0.4,1,0,1.4
	c0.4,0.4,2.9,1.4,2.9,1.4s-1-2.5-1.4-2.9C24,17.3,23.3,17.3,22.9,17.7z M25.1,15.5c-0.4,0.4-0.4,1,0,1.4c0.4,0.4,2.1,0.7,2.1,0.7
	s-0.3-1.8-0.7-2.1C26.1,15.1,25.5,15.1,25.1,15.5z M26.5,14.1c0.4,0.4,2.1,0.7,2.1,0.7S28.3,13,28,12.6L26.5,14.1z M16.5,24.1
	c-0.4,0.4-0.4,1,0,1.4c0.4,0.4,2.1,0.7,2.1,0.7s-0.3-1.8-0.7-2.1C17.5,23.7,16.9,23.7,16.5,24.1z M13.6,27c0.4,0.4,2.1,0.7,2.1,0.7
	s-0.3-1.8-0.7-2.1L13.6,27z"/>
</svg>
