<?xml version="1.0" encoding="UTF-8" standalone="no"?>
<!-- Created with Inkscape (http://www.inkscape.org/) -->

<svg
   xmlns:dc="http://purl.org/dc/elements/1.1/"
   xmlns:cc="http://creativecommons.org/ns#"
   xmlns:rdf="http://www.w3.org/1999/02/22-rdf-syntax-ns#"
   xmlns:svg="http://www.w3.org/2000/svg"
   xmlns="http://www.w3.org/2000/svg"
   xmlns:sodipodi="http://sodipodi.sourceforge.net/DTD/sodipodi-0.dtd"
   xmlns:inkscape="http://www.inkscape.org/namespaces/inkscape"
   width="48"
   height="48"
   viewBox="0 0 48.000001 48.000001"
   id="svg5912"
   version="1.1"
   inkscape:version="0.91 r13725"
   sodipodi:docname="mint.svg">
  <defs
     id="defs5914" />
  <sodipodi:namedview
     id="base"
     pagecolor="#ffffff"
     bordercolor="#666666"
     borderopacity="1.0"
     inkscape:pageopacity="0.0"
     inkscape:pageshadow="2"
     inkscape:zoom="4"
     inkscape:cx="70.5"
     inkscape:cy="40"
     inkscape:document-units="px"
     inkscape:current-layer="g5234"
     showgrid="false"
     units="px"
     inkscape:window-width="1199"
     inkscape:window-height="711"
     inkscape:window-x="0"
     inkscape:window-y="1"
     inkscape:window-maximized="0" />
  <metadata
     id="metadata5917">
    <rdf:RDF>
      <cc:Work
         rdf:about="">
        <dc:format>image/svg+xml</dc:format>
        <dc:type
           rdf:resource="http://purl.org/dc/dcmitype/StillImage" />
        <dc:title></dc:title>
      </cc:Work>
    </rdf:RDF>
  </metadata>
  <g
     inkscape:label="Layer 1"
     inkscape:groupmode="layer"
     id="layer1"
     transform="translate(0,-1004.3623)">
    <g
       transform="matrix(1.3333333,0,0,-1.3333333,41.129663,1474.3599)"
       id="g5234">
      <g
         transform="matrix(0.12850205,0,0,0.12850205,-121.38343,239.91188)"
         id="g5320">
        <g
           transform="translate(921.2913,684.0454)"
           id="g264">
          <path
             inkscape:connector-curvature="0"
             id="path266"
             style="fill:#6abb45;fill-opacity:1;fill-rule:nonzero;stroke:none"
             d="M 0,0 C 0,0 8.344,24.455 9.886,46.25 5.259,43.861 2.774,42.579 2.774,42.579 c 0,0 3.401,14.929 2.764,23.078 -0.479,6.134 -1.105,15.405 -3.854,19.696 -3.98,-3.157 -7.526,-8.966 -8.439,-6.694 -0.914,2.272 -1.529,33.565 -14.015,44.01 -2.784,-3.304 -4.953,-5.878 -4.953,-5.878 0,0 -8.249,28.792 -14.833,35.158 -2.761,-3.332 -5.3,-7.19 -6.301,-6.031 -1.002,1.16 -27.279,36.199 -27.279,36.199 0,0 -26.2,-35.097 -27.199,-36.259 -0.998,-1.161 -3.546,2.691 -6.314,6.017 -6.57,-6.38 -14.756,-35.191 -14.756,-35.191 0,0 -2.174,2.569 -4.965,5.867 -12.464,-10.473 -13.009,-41.767 -13.918,-44.04 -0.909,-2.274 -4.467,3.527 -8.454,6.675 -2.74,-4.297 -3.345,-13.57 -3.811,-19.705 -0.619,-8.15 2.815,-23.072 2.815,-23.072 0,0 -2.488,1.277 -7.12,3.655 1.59,-21.791 9.988,-46.227 9.988,-46.227 0,0 -3.488,-0.576 -7.678,-0.009 11.611,-23.959 23.229,-35.999 23.229,-35.999 0,0 -9.003,0.132 -6.58,-3.314 24.801,-27.683 36.139,-26.92 38.062,-26.528 -1.747,-0.469 -10.393,-3.029 -4.073,-6.15 7.003,-3.459 27.739,0.03 31.055,0.034 3.316,0.004 24.059,-3.44 31.054,0.034 6.313,3.136 -2.338,5.676 -4.086,6.142 1.924,-0.388 13.263,-1.126 38.003,26.611 2.415,3.452 -6.587,3.3 -6.587,3.3 0,0 11.592,12.066 23.149,36.05 C 3.49,-0.568 0,0 0,0" />
        </g>
        <g
           transform="translate(809.5098,690.0227)"
           id="g268">
          <path
             inkscape:connector-curvature="0"
             id="path270"
             style="fill:#c2dd8a;fill-opacity:1;fill-rule:nonzero;stroke:none"
             d="M 0,0 C -0.023,-0.072 -0.055,-0.14 -0.083,-0.209 -0.114,-0.339 -0.102,-0.322 0,0" />
        </g>
        <g
           transform="translate(846.1255,651.4879)"
           id="g272">
          <path
             inkscape:connector-curvature="0"
             id="path274"
             style="fill:#c2dd8a;fill-opacity:1;fill-rule:nonzero;stroke:none"
             d="m 0,0 c -4.678,2.103 -9.17,4.478 -13.486,7.1 -0.065,1.872 -0.13,3.744 -0.195,5.616 -0.065,1.848 -0.228,3.755 0.451,5.519 0.625,1.623 1.805,2.968 3.09,4.109 1.05,0.931 2.853,2.745 4.322,2.888 0.03,0.003 0.032,0.046 0,0.047 -1.311,0.055 -2.794,-1.524 -3.767,-2.322 -1.302,-1.069 -2.527,-2.289 -3.329,-3.786 -0.832,-1.554 -0.97,-3.198 -0.924,-4.932 0.062,-2.363 0.176,-4.725 0.267,-7.086 -9.422,5.734 -18.006,12.647 -25.861,20.487 -0.146,3.346 0.046,6.531 2.008,9.431 0.27,0.399 0.545,0.805 0.726,1.255 0.071,0.296 0.367,1.358 0.337,1.346 0.316,0.768 0.711,1.044 1.552,1.364 1.722,0.654 3.488,1.033 5.272,1.465 0.023,0.006 0.019,0.046 -0.006,0.043 -1.941,-0.245 -3.974,-0.82 -5.766,-1.605 -1.626,-0.712 -1.071,-2.08 -1.949,-3.476 -1.003,-1.594 -1.789,-2.965 -2.096,-4.861 -0.261,-1.617 -0.23,-3.264 -0.142,-4.899 -2.03,2.029 -4.017,4.113 -5.952,6.261 -1.223,1.359 -2.421,2.738 -3.605,4.129 0.112,0.025 0.221,0.055 0.334,0.075 0.047,0.009 0.027,0.079 -0.019,0.071 -0.126,-0.021 -0.246,-0.056 -0.369,-0.083 -9.832,11.565 -18.366,24.18 -26.653,36.907 -0.109,0.056 -0.264,0.136 -0.47,0.241 8.046,-12.689 16.683,-25.589 26.51,-37.306 -3.863,-1.188 -6.354,-5.19 -7.593,-8.844 -0.415,-1.228 -2.949,-11.332 0.054,-10.311 0.032,0.01 0.019,0.057 -0.014,0.05 -2.192,-0.511 -0.996,5.761 -0.865,6.509 0.321,1.843 0.817,3.663 1.57,5.378 1.337,3.043 3.634,6.132 6.905,7.151 3.27,-3.896 6.671,-7.66 10.227,-11.242 0.003,-0.04 0.005,-0.08 0.007,-0.119 0.003,-0.033 0.054,-0.034 0.052,0 -10e-4,0.021 -0.002,0.041 -0.003,0.062 C -28.083,15.264 -15.235,5.741 -0.12,-0.285 0.043,-0.35 0.161,-0.072 0,0" />
        </g>
        <g
           transform="translate(871.7379,676.1414)"
           id="g276">
          <path
             inkscape:connector-curvature="0"
             id="path278"
             style="fill:#c2dd8a;fill-opacity:1;fill-rule:nonzero;stroke:none"
             d="m 0,0 c 0.964,-3.107 1.071,-6.337 1.567,-9.521 0.003,-0.025 0.041,-0.018 0.042,0.006 0.06,1.862 -0.284,3.799 -0.612,5.63 C 0.712,-2.301 0.489,-0.424 -0.259,1.021 -0.794,2.056 -1.87,2.705 -2.897,3.254 -1.54,2.441 -0.43,1.385 0,0" />
        </g>
        <g
           transform="translate(867.0232,680.3004)"
           id="g280">
          <path
             inkscape:connector-curvature="0"
             id="path282"
             style="fill:#c2dd8a;fill-opacity:1;fill-rule:nonzero;stroke:none"
             d="M 0,0 C 0.017,-0.007 0.034,-0.015 0.051,-0.022 0.034,-0.015 0.017,-0.008 0,0" />
        </g>
        <g
           transform="translate(868.8413,679.3951)"
           id="g284">
          <path
             inkscape:connector-curvature="0"
             id="path286"
             style="fill:#c2dd8a;fill-opacity:1;fill-rule:nonzero;stroke:none"
             d="M 0,0 C -0.557,0.334 -1.156,0.625 -1.767,0.883 -1.363,0.703 -0.964,0.51 -0.57,0.302 -0.385,0.204 -0.193,0.103 0,0" />
        </g>
        <g
           transform="translate(866.788,680.3962)"
           id="g288">
          <path
             inkscape:connector-curvature="0"
             id="path290"
             style="fill:#c2dd8a;fill-opacity:1;fill-rule:nonzero;stroke:none"
             d="M 0,0 C 0.078,-0.033 0.158,-0.062 0.235,-0.096 0.157,-0.063 0.079,-0.032 0,0" />
        </g>
        <g
           transform="translate(906.993,702.6592)"
           id="g292">
          <path
             inkscape:connector-curvature="0"
             id="path294"
             style="fill:#c2dd8a;fill-opacity:1;fill-rule:nonzero;stroke:none"
             d="m 0,0 c 2.338,-1.439 4.124,-3.417 5.361,-5.868 2.319,-4.595 2.373,-9.687 2.496,-14.713 -9.356,-5.56 -19.355,-9.747 -29.677,-13.147 -0.018,0.028 -0.036,0.055 -0.053,0.083 -0.039,0.06 -0.136,0.005 -0.097,-0.057 0.013,-0.021 0.026,-0.042 0.039,-0.063 -11.696,-3.845 -23.803,-6.689 -35.848,-9.393 0.325,5.377 0.534,10.765 0.453,16.148 4.634,1.807 9.244,3.733 13.785,5.816 1.008,-0.262 2.182,-0.605 3.336,-1.069 -1.054,0.452 -2.142,0.817 -3.256,1.107 4.434,2.036 8.799,4.227 13.056,6.603 0.06,-0.28 0.122,-0.559 0.174,-0.843 0.008,-0.044 0.073,-0.024 0.067,0.019 -0.042,0.292 -0.096,0.583 -0.148,0.875 2.77,1.549 5.495,3.174 8.159,4.893 1.745,-0.764 3.491,-1.525 5.24,-2.281 1.059,-0.458 2.139,-0.888 3.185,-1.377 1.457,-0.683 1.58,-1.949 1.612,-3.356 0.05,-2.176 0.052,-4.354 0.009,-6.531 -0.022,-1.088 -0.055,-2.176 -0.101,-3.264 -0.027,-0.634 -0.058,-1.268 -0.092,-1.902 -0.021,-0.38 0.09,-1.463 -0.067,-0.349 -0.006,0.044 -0.08,0.034 -0.076,-0.01 0.032,-0.332 0.053,-0.666 0.062,-1 0.005,-0.112 0.166,-0.111 0.173,0 0.16,2.536 0.263,5.074 0.295,7.614 0.017,1.27 0.014,2.54 -0.004,3.81 -0.015,1.115 0.113,2.383 -0.126,3.477 -0.358,1.637 -2.488,2.027 -3.813,2.596 -2.06,0.886 -4.122,1.767 -6.186,2.644 2.962,1.916 5.855,3.936 8.653,6.09 2.805,2.159 5.526,4.427 8.184,6.767 C -3.634,1.963 -1.764,1.086 0,0 m -18.094,-39.866 c 1.287,-2.039 2.475,-4.036 2.262,-6.545 -0.21,-2.481 -1.385,-4.799 -2.361,-7.047 -0.489,-1.126 -0.977,-2.252 -1.466,-3.378 -0.21,-0.483 -0.419,-0.965 -0.628,-1.448 l -0.365,-0.841 c -1.714,-0.352 -3.428,-0.705 -5.139,-1.066 -4.555,-0.961 -9.111,-1.923 -13.666,-2.884 0.235,0.247 0.44,0.539 0.622,0.757 0.841,1.01 1.547,2.131 2.099,3.324 1.101,2.378 1.574,5.057 1.232,7.662 -0.623,4.75 -3.967,8.852 -8.389,10.59 7.536,1.796 15.084,3.777 22.462,6.182 1.109,-1.771 2.223,-3.539 3.337,-5.306 m -21.893,-23.321 c -0.084,-0.017 -0.169,-0.035 -0.253,-0.053 -0.013,0.007 -0.029,0.008 -0.039,0.02 0.031,-0.038 0.093,0.012 0.068,0.053 l -0.061,0.101 c -0.01,0.018 -0.037,0.032 -0.058,0.024 -0.183,-0.07 -0.273,-0.139 -0.278,-0.276 -0.845,-0.178 -1.689,-0.356 -2.534,-0.535 -2.892,-0.61 -5.784,-1.22 -8.676,-1.83 -0.644,-0.136 -1.305,-0.254 -1.971,-0.371 -0.056,0.031 -0.111,0.064 -0.168,0.094 -0.042,0.022 -0.079,-0.042 -0.037,-0.064 0.031,-0.016 0.059,-0.035 0.09,-0.051 -1.883,-0.333 -3.802,-0.681 -5.485,-1.482 -0.048,-0.023 -0.076,-0.058 -0.091,-0.097 0.491,6.91 0.981,13.82 1.456,20.731 0.069,1.002 0.134,2.004 0.197,3.006 4.583,1.017 9.212,2.051 13.846,3.154 4.061,-1.679 7.218,-5.284 8.142,-9.614 0.49,-2.296 0.299,-4.704 -0.431,-6.928 -0.36,-1.094 -0.85,-2.145 -1.452,-3.126 -0.164,-0.267 -1.596,-2.343 -2.265,-2.756 m -9.182,-10.595 c 0.015,-2.684 -1.14,-5.194 -1.304,-7.843 -0.437,0.062 -0.874,0.126 -1.312,0.185 -2.694,0.358 -5.895,1.112 -8.634,0.646 0.086,1.196 0.178,2.39 0.262,3.587 0.054,0.764 0.109,1.529 0.163,2.294 0.307,-0.051 0.614,-0.11 0.922,-0.16 0.098,-0.016 0.14,0.134 0.041,0.15 -0.318,0.054 -0.634,0.117 -0.952,0.172 0.167,2.355 0.334,4.71 0.501,7.064 -0.02,-0.116 0.065,-0.254 0.198,-0.257 2.18,-0.06 4.409,0.55 6.576,1.091 2.14,-1.638 3.525,-4.178 3.539,-6.929 m -12.337,86.91 c -0.006,0.154 -0.009,0.309 -0.014,0.464 8.087,0.342 13.458,-6.674 17.509,-12.763 -4.83,-3.943 -9.7,-7.832 -14.573,-11.689 -1.087,7.985 -2.584,15.916 -2.922,23.988 m 0.481,18.153 c 2.781,4.436 5.97,8.526 9.376,12.431 4.909,-2.369 10.2,-4.252 14.793,-7.216 1.157,-0.746 2.331,-1.579 3.277,-2.587 1.073,-1.143 1.42,-2.77 1.917,-4.216 0.935,-2.72 2.075,-5.416 2.227,-8.298 -2.343,-4.999 -5.044,-9.792 -7.507,-14.725 -10e-4,-0.001 0.002,-0.002 0.002,-0.004 -2.319,-1.944 -4.656,-3.866 -7,-5.779 -4.065,6.105 -9.471,13.155 -17.582,12.755 -0.217,5.888 0.051,11.769 0.497,17.639 m 30.515,-45.325 c -8.599,-4.821 -17.654,-8.863 -26.825,-12.417 -0.063,3.35 -0.24,6.698 -0.579,10.039 -0.169,1.676 -0.375,3.348 -0.598,5.017 5.811,4.541 11.636,9.129 17.388,13.815 5.404,-4.249 9.081,-9.804 10.614,-16.454 M -61.407,-69.49 c -0.042,-0.597 -0.082,-1.195 -0.123,-1.792 -6.34,0.904 -12.345,2.871 -18.019,5.577 -0.395,1.396 -0.495,2.78 -0.057,4.327 0.629,2.217 2.142,4.052 4.28,4.943 2.51,1.046 5.332,0.779 7.923,0.203 2.307,-0.512 4.546,-1.29 6.932,-0.894 -0.32,-4.127 -0.649,-8.249 -0.936,-12.364 m 78.82,95.039 c 0.05,0.238 0.103,0.497 0.161,0.78 C 13.994,21.817 9.281,17.908 5.358,14.043 -0.5,8.27 -6.486,2.618 -12.966,-2.46 c -3.107,-2.434 -6.33,-4.703 -9.64,-6.837 -0.124,0.053 -0.248,0.107 -0.372,0.16 -0.061,0.025 -0.114,-0.063 -0.053,-0.09 0.106,-0.047 0.213,-0.092 0.319,-0.139 -2.515,-1.618 -5.084,-3.153 -7.693,-4.618 -1.302,6.491 -5.209,12.689 -10.668,16.435 8.473,6.903 16.782,14.024 24.616,21.57 3.871,-1.084 7.664,-2.647 10.88,-5.1 1.974,-1.505 2.692,-3.152 2.703,-5.621 0.01,-2.291 -0.053,-4.598 0.085,-6.885 0.002,-0.039 0.059,-0.039 0.061,0 0.135,2.639 0.172,5.405 0.004,8.045 -0.113,1.758 -0.91,3.056 -2.253,4.182 -3.182,2.669 -7.386,4.501 -11.439,5.42 0.539,0.519 1.079,1.036 1.613,1.559 9.927,9.724 18.654,21.087 22.34,34.44 C 7.491,60.181 7.446,60.377 7.4,60.638 3.208,46.341 -6.661,34.184 -17.383,24.008 -23.639,18.072 -30.145,12.369 -36.775,6.806 c 2.805,4.563 5.105,9.531 7.35,14.389 0.009,-0.244 0.014,-0.489 0.007,-0.736 -0.001,-0.034 0.055,-0.043 0.06,-0.008 0.046,0.345 0.067,0.69 0.068,1.034 0.003,0.008 0.007,0.016 0.011,0.024 0.009,0.02 0.001,0.038 -0.01,0.051 -0.016,2.534 -1.159,5.042 -1.969,7.391 -0.45,1.305 -0.788,2.737 -1.425,3.967 -0.563,1.088 -1.62,1.893 -2.574,2.621 -2.238,1.71 -4.789,2.945 -7.334,4.121 -2.996,1.383 -5.991,2.785 -9.017,4.098 6.865,7.864 14.626,14.968 21.818,22.56 4.671,4.93 9.149,10.134 12.77,15.898 2.242,0.153 3.872,-1.402 5.564,-2.694 1.227,-0.937 2.579,-1.685 4.037,-2.197 1.333,-0.468 3.1,-0.954 4.531,-0.719 1.469,0.242 2.12,1.562 3.342,2.261 0.029,0.018 0.003,0.058 -0.027,0.045 -0.595,-0.251 -0.963,-0.609 -1.422,-1.06 -0.945,-0.93 -1.972,-1.242 -3.272,-1.125 -1.968,0.178 -3.921,0.848 -5.625,1.836 -2.283,1.323 -4.27,3.934 -7.118,3.669 0.358,0.57 0.717,1.139 1.058,1.72 2.72,4.648 5.488,10.09 5.653,15.561 -0.14,-0.166 -0.264,-0.314 -0.381,-0.452 -0.562,-6.561 -4.51,-13.029 -8.048,-18.26 -4.182,-6.184 -9.216,-11.724 -14.425,-17.051 -9.785,-10.009 -20.439,-19.489 -27.799,-31.519 0.291,3.688 0.644,7.371 0.982,11.049 0.895,9.769 1.357,19.537 1.523,29.312 4.387,5.452 8.55,11.298 12.238,17.451 4.94,-1.448 10.199,-4.929 11.223,-10.304 0.524,-2.75 0.318,-5.666 0.335,-8.451 0.018,-2.904 0.036,-5.807 0.054,-8.71 0,-0.07 0.108,-0.07 0.108,0 l -0.058,9.799 c -0.017,2.9 0.234,6.01 -0.692,8.806 -1.532,4.628 -6.468,7.633 -10.927,8.934 6.851,11.447 12.055,23.957 13.983,36.992 -0.141,0.016 -0.269,0.071 -0.376,0.196 -0.001,10e-4 -0.004,0.004 -0.005,0.006 -1.718,-8.829 -4.621,-17.146 -8.358,-25.092 -0.6,0.186 -1.203,0.37 -1.811,0.532 -0.016,0.004 -0.022,-0.02 -0.007,-0.025 0.591,-0.205 1.19,-0.389 1.788,-0.57 -4.728,-10.038 -10.787,-19.485 -17.477,-28.619 0.151,10.016 -0.005,20.039 -0.323,30.078 -0.616,19.449 -1.448,38.893 -2.245,58.336 -0.1,-0.134 -0.207,-0.278 -0.319,-0.428 0.485,-16.768 0.97,-33.536 1.482,-50.302 0.614,-20.082 1.016,-40.221 -0.57,-60.27 -0.794,-10.048 -2.096,-20.063 -2.341,-30.148 -0.012,-0.466 -0.015,-0.93 -0.02,-1.394 -14.294,12.316 -25.737,27.655 -33.648,44.646 0.171,0.248 0.34,0.497 0.511,0.746 0.019,0.028 -0.027,0.064 -0.048,0.037 -0.391,-0.503 -0.557,-0.93 -0.655,-0.128 -0.09,0.731 0.201,1.652 0.418,2.355 0.419,1.361 1.108,2.624 1.888,3.809 1.604,2.435 3.574,4.643 5.417,6.898 1.019,1.247 1.979,2.802 3.782,2.815 1.382,0.01 2.804,-0.47 4.184,-0.623 2.493,-0.276 5.029,-0.229 7.505,0.178 3.367,-7.623 6.974,-15.146 10.819,-22.557 0.093,-0.178 0.361,-0.02 0.269,0.158 -3.807,7.376 -7.379,14.871 -10.728,22.465 0.25,0.045 0.5,0.088 0.748,0.141 0.036,0.007 0.02,0.06 -0.015,0.054 -0.258,-0.042 -0.514,-0.074 -0.77,-0.11 -6.283,14.253 -11.769,28.857 -16.469,43.707 -0.02,0.064 -0.119,0.037 -0.1,-0.027 4.493,-14.92 9.924,-29.506 16.203,-43.733 -3.276,-0.426 -6.49,-0.391 -9.774,0.216 -1.052,0.195 -2.203,0.487 -3.228,0.008 -1.076,-0.503 -1.799,-1.706 -2.524,-2.594 -3.077,-3.764 -7.471,-7.991 -7.739,-13.141 -5.192,11.313 -8.827,23.343 -10.693,35.695 -0.077,-0.254 -0.148,-0.49 -0.212,-0.708 1.93,-12.387 5.633,-24.445 10.897,-35.775 0.001,-0.042 -0.003,-0.083 -10e-4,-0.124 0.002,-0.05 0.043,-0.062 0.082,-0.053 7.962,-17.074 19.479,-32.482 33.875,-44.831 -0.032,-9.39 1.37,-18.537 2.581,-27.845 0.851,-6.542 1.163,-13.104 1.155,-19.673 -20.948,8.028 -36.063,24.281 -47.518,43.014 1.239,2.515 2.492,5.024 3.763,7.524 0.765,1.506 1.538,3.008 2.316,4.508 0.89,1.713 1.54,3.842 3.754,4.024 6.772,0.555 13.618,0.348 20.401,0.754 0.031,0.002 0.031,0.048 0,0.047 -3.784,-0.038 -7.572,-0.234 -11.354,-0.365 l -5.677,-0.198 c -1.405,-0.049 -3.212,0.205 -4.542,-0.335 -0.955,-0.389 -1.372,-1.355 -1.823,-2.21 -0.869,-1.653 -1.725,-3.312 -2.577,-4.975 -1.471,-2.873 -2.909,-5.764 -4.33,-8.663 -3.635,5.956 -6.894,12.162 -9.861,18.433 1.867,5.531 4.305,10.856 7.315,15.861 0.758,1.26 1.509,2.774 2.539,3.829 1.078,1.105 2.799,1.406 4.193,1.939 2.524,0.964 4.933,2.178 7.229,3.599 0.017,0.011 0.002,0.037 -0.015,0.027 -2.721,-1.659 -5.595,-3.038 -8.61,-4.075 -1.02,-0.352 -2.063,-0.654 -2.835,-1.451 -0.933,-0.964 -1.596,-2.277 -2.29,-3.413 -3.127,-5.124 -5.636,-10.594 -7.542,-16.283 -2.07,4.376 -4.002,8.781 -5.802,13.158 -1.801,4.379 -3.475,8.823 -4.984,13.32 -0.138,-0.097 -0.301,-0.123 -0.488,-0.083 3.914,-12.266 9.3,-24.13 15.258,-35.444 1.77,-3.363 3.65,-6.68 5.64,-9.931 -0.177,-0.363 -0.359,-0.725 -0.536,-1.088 -0.03,-0.063 0.063,-0.118 0.094,-0.055 0.168,0.345 0.341,0.688 0.51,1.032 6.908,-11.264 15.219,-21.678 25.552,-29.996 6.71,-5.401 14.159,-9.789 22.218,-12.842 -0.026,-9.371 -0.703,-18.757 -1.428,-28.12 -3.288,-0.457 -6.383,1.076 -9.619,1.381 -2.41,0.226 -5.023,-0.072 -6.992,-1.6 -2.256,-1.751 -3.623,-5.349 -2.855,-8.258 -3.98,1.926 -7.796,4.216 -11.448,6.763 0.647,1.19 0.66,2.461 0.613,3.809 -0.075,2.18 0.13,4.092 1.303,5.998 1.109,1.803 2.717,3.202 4.484,4.335 0.786,0.504 1.602,0.957 2.43,1.387 0.415,0.215 0.833,0.424 1.253,0.63 0.22,0.108 1.083,0.684 0.524,0.275 -0.033,-0.024 -0.004,-0.078 0.033,-0.056 0.163,0.099 0.327,0.197 0.491,0.296 0.065,0.039 0.008,0.132 -0.059,0.1 -3.289,-1.551 -6.754,-3.294 -8.895,-6.353 -0.929,-1.328 -1.564,-2.858 -1.692,-4.482 -0.157,-1.999 0.429,-4.05 -0.541,-5.899 -1.019,0.711 -2.028,1.439 -3.021,2.189 0.028,0.016 0.016,0.063 -0.021,0.056 -0.014,-0.002 -0.028,-0.006 -0.042,-0.009 -3.33,2.518 -6.516,5.234 -9.557,8.059 -1.442,1.34 -2.863,2.704 -4.271,4.081 0.175,0.108 0.349,0.218 0.53,0.319 0.039,0.022 0.004,0.081 -0.035,0.06 -0.189,-0.101 -0.371,-0.211 -0.554,-0.321 -8.954,8.761 -17.293,18.195 -25.793,27.412 0.126,-0.393 0.236,-0.731 0.327,-1.007 8.104,-9.084 16.265,-18.238 25.014,-26.69 -3.679,-2.423 -5.924,-6.636 -5.863,-11.079 0.001,-0.086 0.135,-0.087 0.134,0 -0.053,4.439 2.163,8.558 5.793,11.017 2.162,-2.087 4.358,-4.132 6.6,-6.121 2.292,-2.034 4.667,-3.994 7.12,-5.85 -2.956,-0.775 -5.218,-3.384 -5.534,-6.453 -0.009,-0.092 0.132,-0.09 0.143,0 0.388,3.081 2.535,5.545 5.479,6.386 4.776,-3.606 9.854,-6.805 15.219,-9.359 0.185,-0.509 0.434,-0.994 0.771,-1.434 0.02,-0.025 0.075,-0.012 0.059,0.026 -0.174,0.415 -0.325,0.823 -0.459,1.228 5.633,-2.643 11.582,-4.569 17.838,-5.483 -0.064,-0.914 -0.126,-1.828 -0.189,-2.743 -19.924,3.647 -39.084,10.375 -57.058,19.638 -0.213,-0.006 -0.461,-0.016 -0.732,-0.032 18.028,-9.666 37.62,-16.237 57.778,-19.78 -0.191,-2.775 -0.379,-5.549 -0.564,-8.324 -9.66,-0.581 -19.315,-0.986 -28.975,-1.272 2.608,-0.707 4.152,-0.547 4.759,-0.423 -0.35,-0.094 -0.977,-0.273 -1.704,-0.522 8.656,0.302 17.301,0.922 25.894,1.827 -0.172,-2.567 -0.335,-5.134 -0.501,-7.701 0.631,0.068 1.196,0.126 1.686,0.172 0.233,3.104 0.468,6.208 0.691,9.313 2.988,-0.816 6.521,-0.637 9.572,-1.065 0.141,-0.019 0.281,-0.042 0.421,-0.062 0.005,-0.107 0.008,-0.214 0.017,-0.322 0.002,-0.024 0.04,-0.025 0.039,0 -0.005,0.105 -0.003,0.21 -0.004,0.315 3.075,-0.442 6.137,-0.973 9.213,-1.408 3.473,-0.49 6.976,-0.941 10.481,-1.057 -0.791,0.274 -1.481,0.469 -1.855,0.569 0.527,-0.106 1.76,-0.237 3.778,0.195 -4.915,0.289 -9.773,0.905 -14.678,1.678 -1.203,0.189 -2.405,0.38 -3.608,0.567 0.753,1.28 1.506,2.559 2.259,3.838 0.37,0.629 0.711,1.302 1.14,1.894 0.81,1.118 1.985,1.368 3.276,1.525 3.168,0.384 6.344,0.711 9.516,1.066 6.158,0.69 12.361,1.215 18.494,2.099 0.024,0.003 0.019,0.044 -0.006,0.042 -6.989,-0.56 -13.967,-1.539 -20.935,-2.32 -1.722,-0.193 -3.444,-0.386 -5.166,-0.579 -1.247,-0.139 -2.791,-0.092 -3.957,-0.63 -1,-0.461 -1.497,-1.453 -2.028,-2.359 -0.89,-1.52 -1.775,-3.043 -2.662,-4.565 -1.076,0.167 -2.152,0.327 -3.229,0.48 0.26,3.048 1.704,5.977 1.23,9.068 -0.354,2.304 -1.624,4.344 -3.438,5.741 0.528,0.131 1.054,0.259 1.573,0.369 3.072,0.654 6.143,1.308 9.214,1.962 4.001,0.851 8.001,1.703 12.002,2.554 0.541,-0.386 1.082,-0.772 1.622,-1.159 0.932,-0.666 2.451,-1.41 2.791,-2.584 0.544,-1.872 -0.826,-4.351 -1.771,-5.864 -0.022,-0.037 0.032,-0.066 0.057,-0.033 1.094,1.457 2.342,4.037 1.827,5.928 -0.193,0.712 -0.739,1.126 -1.307,1.544 -1.018,0.749 -2.059,1.47 -3.096,2.194 2.101,0.448 4.201,0.895 6.302,1.342 0.69,0.147 1.383,0.29 2.076,0.432 0.022,-0.015 0.048,-0.033 0.086,-0.059 0.022,-0.015 0.051,-0.011 0.073,0 0.066,0.033 0.123,0.081 0.18,0.129 5.023,1.024 10.094,1.965 15.026,3.326 1.857,0.512 3.824,1.183 5.68,2.078 -0.548,0.017 -0.905,0.012 -0.905,0.012 0,0 0.264,0.276 0.745,0.817 -2.631,-1.254 -5.411,-2.063 -8.243,-2.72 -3.876,-0.9 -7.777,-1.701 -11.676,-2.503 0.16,0.418 0.283,0.857 0.42,1.173 0.557,1.287 1.114,2.575 1.67,3.863 0.99,2.287 2.189,4.628 2.528,7.124 0.308,2.274 -0.411,4.171 -1.585,6.079 -1.305,2.117 -2.654,4.209 -3.998,6.302 10.221,3.337 20.11,7.493 29.192,13.085 0.012,-0.444 0.025,-0.888 0.043,-1.33 0.001,-0.036 0.055,-0.037 0.056,0 0.007,0.464 0.013,0.932 0.018,1.401 2.369,1.463 4.686,3.019 6.935,4.69 0.081,0.256 0.17,0.535 0.265,0.838 -2.349,-1.656 -4.75,-3.201 -7.193,-4.657 0.025,4.856 -0.233,9.887 -2.344,14.295 -0.974,2.033 -2.34,3.893 -4.135,5.275 -2.11,1.626 -4.638,2.575 -6.692,4.276 3.882,3.418 7.63,6.994 11.286,10.644 3.64,3.634 7.924,7.342 11.294,11.553" />
        </g>
        <g
           transform="translate(845.7299,852.8967)"
           id="g296">
          <path
             inkscape:connector-curvature="0"
             id="path298"
             style="fill:#c2dd8a;fill-opacity:1;fill-rule:nonzero;stroke:none"
             d="m 0,0 c -3.314,-3.455 -6.612,-6.927 -9.875,-10.431 -1.267,-1.359 -2.531,-2.761 -3.41,-4.412 -0.989,-1.86 -1.108,-3.872 -1.447,-5.909 -1.221,-7.346 -7.212,-13.379 -6.767,-21.078 0.002,-0.025 0.04,-0.025 0.039,0 -0.369,7.551 5.446,13.416 6.813,20.576 0.414,2.166 0.457,4.33 1.515,6.322 0.985,1.854 2.455,3.392 3.881,4.911 3.11,3.315 6.217,6.633 9.294,9.978 C 0.069,-0.014 0.027,0.028 0,0" />
        </g>
        <g
           transform="translate(844.4638,759.2761)"
           id="g300">
          <path
             inkscape:connector-curvature="0"
             id="path302"
             style="fill:#c2dd8a;fill-opacity:1;fill-rule:nonzero;stroke:none"
             d="m 0,0 c -4.099,0.185 -8.863,-1.024 -11.703,-4.133 -1.543,-1.69 -2.515,-3.802 -3.399,-5.887 -1.011,-2.389 -1.989,-4.792 -2.983,-7.187 -0.017,-0.042 0.05,-0.059 0.067,-0.019 0.999,2.386 1.983,4.779 3,7.157 0.828,1.935 1.727,3.896 3.102,5.513 3.087,3.629 7.503,4.027 11.916,4.482 0.046,0.005 0.048,0.072 0,0.074" />
        </g>
        <g
           transform="translate(842.2661,721.1909)"
           id="g304">
          <path
             inkscape:connector-curvature="0"
             id="path306"
             style="fill:#c2dd8a;fill-opacity:1;fill-rule:nonzero;stroke:none"
             d="m 0,0 c -2.762,-1.981 -5.404,-4.121 -7.893,-6.438 -2.323,-2.162 -4.326,-4.176 -5.16,-7.313 -1.83,-6.878 -2.426,-14.222 -1.654,-21.299 0.002,-0.014 0.023,-0.014 0.022,0 -0.526,6.817 -0.16,13.598 1.455,20.26 0.417,1.722 0.908,3.336 1.994,4.764 0.987,1.299 2.212,2.42 3.404,3.527 2.485,2.31 5.121,4.445 7.878,6.42 C 0.093,-0.045 0.048,0.034 0,0" />
        </g>
        <g
           transform="translate(803.7115,780.7111)"
           id="g308">
          <path
             inkscape:connector-curvature="0"
             id="path310"
             style="fill:#c2dd8a;fill-opacity:1;fill-rule:nonzero;stroke:none"
             d="m 0,0 c -2.608,-0.808 -5.212,-1.63 -7.812,-2.462 -1.944,-0.622 -3.749,-1.309 -5.096,-2.914 -2.753,-3.278 -4.247,-7.715 -4.693,-11.917 -0.003,-0.028 0.04,-0.027 0.043,0 0.505,4.251 2.038,8.991 5.011,12.187 1.541,1.655 3.716,2.228 5.797,2.895 2.255,0.722 4.51,1.441 6.759,2.178 C 0.03,-0.027 0.021,0.007 0,0" />
        </g>
        <g
           transform="translate(796.3121,722.0001)"
           id="g312">
          <path
             inkscape:connector-curvature="0"
             id="path314"
             style="fill:#c2dd8a;fill-opacity:1;fill-rule:nonzero;stroke:none"
             d="m 0,0 c -1.433,0.088 -2.864,0.117 -4.3,0.065 -0.953,-0.035 -2.079,0.02 -3.01,-0.252 -1.667,-0.487 -1.719,-2.37 -2.028,-3.815 -0.485,-2.266 -1.267,-4.662 -1.466,-6.969 -0.072,-0.829 0.075,-2.066 1.145,-1.997 0.016,10e-4 0.016,0.026 0,0.026 -0.694,-0.013 -0.98,0.797 -1.028,1.324 -0.038,0.413 0.018,0.791 0.091,1.197 0.137,0.77 0.329,1.535 0.491,2.3 0.344,1.62 0.685,3.24 1.028,4.86 0.13,0.616 0.209,1.618 0.604,2.126 0.812,1.041 2.187,1.01 3.368,1.077 1.7,0.097 3.404,0.09 5.105,0.019 C 0.025,-0.04 0.025,-0.002 0,0" />
        </g>
        <g
           transform="translate(882.1535,802.4631)"
           id="g316">
          <path
             inkscape:connector-curvature="0"
             id="path318"
             style="fill:#c2dd8a;fill-opacity:1;fill-rule:nonzero;stroke:none"
             d="m 0,0 c -0.994,2.021 -2.653,3.003 -4.548,4.098 -2.494,1.44 -5.05,2.764 -7.653,3.997 -0.045,0.021 -0.084,-0.046 -0.039,-0.067 2.361,-1.13 4.682,-2.337 6.958,-3.629 2.38,-1.35 4.293,-2.465 5.467,-5.036 2.272,-4.975 4.332,-10.046 6.618,-15.016 0.009,-0.019 0.044,-0.005 0.036,0.015 C 4.659,-10.413 2.498,-5.08 0,0" />
        </g>
        <g
           transform="translate(857.5065,767.4008)"
           id="g320">
          <path
             inkscape:connector-curvature="0"
             id="path322"
             style="fill:#c2dd8a;fill-opacity:1;fill-rule:nonzero;stroke:none"
             d="m 0,0 c -0.402,1.571 -1.106,2.565 -2.417,3.519 -2.054,1.496 -4.184,2.922 -6.31,4.313 -0.019,0.012 -0.035,-0.017 -0.017,-0.03 1.792,-1.296 3.628,-2.531 5.449,-3.785 1.01,-0.696 2.076,-1.371 2.679,-2.477 0.492,-0.905 0.644,-2.017 0.876,-3.008 0.972,-4.157 1.947,-8.313 2.922,-12.469 0.007,-0.033 0.057,-0.019 0.05,0.013 C 2.157,-9.286 1.18,-4.612 0,0" />
        </g>
        <g
           transform="translate(863.8878,808.295)"
           id="g324">
          <path
             inkscape:connector-curvature="0"
             id="path326"
             style="fill:#c2dd8a;fill-opacity:1;fill-rule:nonzero;stroke:none"
             d="m 0,0 c -0.16,1.083 -0.356,2.161 -0.585,3.231 -0.478,2.228 -1.23,4.385 -1.699,6.612 -0.471,2.235 -0.141,4.533 -0.627,6.755 -0.701,3.202 -2.906,5.888 -5.841,7.296 0.488,0.564 0.674,1.322 0.916,2.023 0.509,1.481 1.017,2.962 1.524,4.444 0.393,1.147 0.983,2.374 1.114,3.588 0.115,1.055 -0.286,1.973 -0.792,2.874 -1.358,2.417 -3.34,4.743 -3.169,7.679 0.003,0.053 -0.078,0.052 -0.082,0 -0.156,-2.025 0.603,-3.752 1.621,-5.459 0.551,-0.924 1.182,-1.814 1.665,-2.776 0.882,-1.755 0.383,-3.082 -0.201,-4.805 -0.414,-1.221 -0.829,-2.442 -1.241,-3.663 -0.471,-1.392 -0.785,-3.288 -1.998,-4.225 -1.978,-1.528 -4.469,-2.637 -6.606,-3.936 -0.055,-0.034 -0.006,-0.118 0.05,-0.086 1.208,0.688 2.406,1.395 3.606,2.097 1.083,0.633 2.407,1.188 3.361,2.012 0.06,0.052 0.112,0.109 0.166,0.166 3.189,-1.583 5.508,-4.666 5.919,-8.238 0.223,-1.94 0.054,-3.862 0.462,-5.788 0.401,-1.897 1.038,-3.737 1.485,-5.624 0.473,-1.993 0.997,-4.15 1.07,-6.201 0.063,-1.761 -1.107,-2.359 -2.363,-3.188 -0.796,-0.525 -1.598,-1.041 -2.406,-1.547 -3.455,-2.165 -7.019,-4.143 -10.672,-5.952 -0.06,-0.03 -0.007,-0.12 0.053,-0.09 4.2,2.071 8.285,4.368 12.221,6.907 1.069,0.69 3.037,1.487 3.325,2.909 C 0.46,-2.077 0.134,-0.905 0,0" />
        </g>
        <g
           transform="translate(873.0636,736.6332)"
           id="g328">
          <path
             inkscape:connector-curvature="0"
             id="path330"
             style="fill:#c2dd8a;fill-opacity:1;fill-rule:nonzero;stroke:none"
             d="m 0,0 c -4.892,-8.13 -10.681,-15.54 -17.67,-21.98 -0.049,-0.045 0.024,-0.119 0.074,-0.073 6.919,6.375 13.038,13.802 17.648,22.022 C 0.071,0.003 0.02,0.033 0,0" />
        </g>
        <g
           transform="translate(896.3672,761.9912)"
           id="g332">
          <path
             inkscape:connector-curvature="0"
             id="path334"
             style="fill:#c2dd8a;fill-opacity:1;fill-rule:nonzero;stroke:none"
             d="m 0,0 c -2.01,2.25 -4.352,3.325 -7.184,4.216 -3.636,1.144 -7.278,2.269 -10.918,3.402 -0.038,0.011 -0.053,-0.047 -0.016,-0.059 3.204,-1.007 6.407,-2.017 9.612,-3.02 3.248,-1.017 6.111,-1.992 8.444,-4.601 3.994,-4.47 7.999,-9.49 9.982,-15.212 0.019,-0.055 0.107,-0.032 0.088,0.024 C 8.019,-9.516 4.003,-4.482 0,0" />
        </g>
      </g>
    </g>
  </g>
</svg>
