<?xml version="1.0" encoding="utf-8"?>
<!-- Generator: Adobe Illustrator 15.0.0, SVG Export Plug-In . SVG Version: 6.00 Build 0)  -->
<!DOCTYPE svg PUBLIC "-//W3C//DTD SVG 1.1//EN" "http://www.w3.org/Graphics/SVG/1.1/DTD/svg11.dtd">
<svg version="1.1"  xmlns="http://www.w3.org/2000/svg" xmlns:xlink="http://www.w3.org/1999/xlink" x="0px" y="0px"
	 width="48px" height="48px" viewBox="0 0 48 48" enable-background="new 0 0 48 48" xml:space="preserve">
<path fill="#A1887F" d="M37.702,14.232c-1.253-1.25-7.915,1.498-14.851,8.419c-6.937,6.921-10.126,14.009-8.875,15.257
	c2.371,0.495,7.193-2.654,14.129-9.576C35.042,21.408,38.243,16.211,37.702,14.232z"/>
<path fill="#FFD54F" d="M40.165,28.135c3.688,3.68,3.634,8.418,0.673,11.372l0,0c-2.959,2.954-8.375,3.675-12.063-0.005
	c-3.687-3.679-7.166-11.164-7.166-11.164c-2.054-3.094-0.169-3.846,1.17-5.182c1.341-1.338,1.117-1.115,1.117-1.115
	c1.34-1.448,2.045-2.836,5.083-1.058C28.979,20.983,36.479,24.456,40.165,28.135z"/>
<path fill="#BCAAA4" d="M15.123,37.929c0.367-1.396,3.287-5.382,10.565-12.646c6.413-6.399,10.423-9.506,12.061-10.093
	c0.057-0.36,0.053-0.673-0.02-0.93c-0.078-0.077-0.178-0.141-0.297-0.187c-0.01-0.004-0.026-0.006-0.036-0.008
	c-0.359-0.129-0.883-0.127-1.55,0.013c-3.013,0.973-7.042,3.997-12.211,9.154c-6.084,6.07-9.333,10.575-9.88,13.691
	c-0.002,0-0.002,0.002-0.001,0.004c-0.007,0.183,0.005,0.342,0.027,0.487c0.008,0.05,0.015,0.099,0.026,0.142
	c0.013,0.049,0.029,0.091,0.048,0.132c0.04,0.096,0.085,0.184,0.15,0.249C14.331,38.005,14.707,37.998,15.123,37.929z"/>
<path fill="#5D4037" d="M13.75,12.612l-0.697,0.696c-6.188,6.174-9.289,18.063-1.096,23.627c1.266,0.744,2.02,0.973,2.02,0.973
	c-1.251-1.248,2.811-7.84,9.747-14.764c6.936-6.922,12.726-10.162,13.979-8.912c0,0,0.071-0.756-0.78-2.082
	C30.652,4.107,19.937,6.439,13.75,12.612z"/>
<path fill="#FFB300" d="M42.16,30.895c-0.024,0.016-0.051,0.016-0.076,0.042c-0.211,0.206-0.276,0.594-0.353,0.86
	c-0.101,0.352-0.129,0.613-0.141,0.967c-0.004,0.193-0.07,0.535-0.318,0.574c-0.249,0.039-0.682-0.313-0.865-0.437
	c-0.285-0.194-0.513-0.439-0.759-0.685c-0.262-0.262-0.841-0.921-1.284-0.811c-0.792,0.195-0.567,1.826-0.396,2.351
	c0.248,0.758,0.261,2.41-0.748,2.596c-0.631,0.116-1.235-0.228-1.806-0.461c-0.64-0.263-1.169-0.733-1.816-0.967
	c-0.359-0.129-0.952-0.199-1.252,0.093c-0.365,0.352-0.342,0.974-0.174,1.396c0.331,0.838,0.992,1.537,1.622,2.164
	c0.391,0.387,1.01,1.01,1.056,1.596c0.069,0.883-1.316,0.768-1.847,0.838c-0.381,0.051-1.034,0.049-1.285,0.404
	c-0.005,0.005-0.005,0.011-0.008,0.015c3.239,1.265,6.888,0.312,9.127-1.924C43.097,37.252,43.656,33.962,42.16,30.895z"/>
</svg>
