<?xml version="1.0" encoding="utf-8"?>
<!-- Generator: Adobe Illustrator 15.0.0, SVG Export Plug-In . SVG Version: 6.00 Build 0)  -->
<!DOCTYPE svg PUBLIC "-//W3C//DTD SVG 1.1//EN" "http://www.w3.org/Graphics/SVG/1.1/DTD/svg11.dtd">
<svg version="1.1"  xmlns="http://www.w3.org/2000/svg" xmlns:xlink="http://www.w3.org/1999/xlink" x="0px" y="0px"
	 width="48px" height="48px" viewBox="0 0 48 48" enable-background="new 0 0 48 48" xml:space="preserve">
<path fill="#E65100" d="M22.393,7.739c-3.461,0.954-6.904,2.886-9.831,5.764C6.443,19.521,4.48,27.755,7.193,33.734
	c0.004,0.012,0.002,0.021,0.007,0.033c1.059,2.727-0.345,4.989,0.369,5.69c0.713,0.701,3.566-0.701,5.714,0.331
	c0.023,0.012,0.039,0.008,0.062,0.017c6.083,2.698,14.479,0.775,20.612-5.257c2.926-2.881,4.89-6.268,5.859-9.671L22.393,7.739z"/>
<path fill="#FFA726" d="M25.709,21.622l-0.008-0.009c-5.498-5.406-8.265-9.436-8.227-11.973c0.015-0.919,0.396-1.369,0.56-1.521
	c4.275-4.205,10.119-3.308,16.011,2.487c0.689,0.679,1.162,1.219,1.35,1.439c0.307,0.225,1.176,0.883,2.188,1.878
	c5.142,5.058,5.827,10.598,1.883,15.199c-0.157,0.177-0.59,0.557-1.485,0.588c-2.515,0.089-6.642-2.632-12.27-8.088L25.709,21.622z"
	/>
<path fill="#AA3304" d="M36.533,31.554c0.439-0.604,0.833-1.224,1.201-1.851c-2.533-0.084-6.571-2.795-12.023-8.079l-0.002-0.002
	l-0.008-0.009c-5.394-5.305-8.151-9.279-8.219-11.823c-0.636,0.362-1.266,0.749-1.88,1.18c0.634,3.015,3.433,6.894,8.672,12.048
	C30.721,29.266,34.317,31.094,36.533,31.554z"/>
<path fill="#FB8C00" d="M11.849,35.249c-1.837-1.807-3.791-3.136-5.443-3.813C6.6,32.23,6.86,33,7.193,33.734
	c0.004,0.012,0.002,0.021,0.007,0.033c1.059,2.727-0.345,4.989,0.369,5.69c0.713,0.701,3.566-0.701,5.714,0.331
	c0.023,0.012,0.039,0.008,0.062,0.017c0.761,0.337,1.557,0.603,2.38,0.796C15.035,38.979,13.685,37.056,11.849,35.249z"/>
<path fill="#BF360C" d="M38.593,5.436c-0.591-0.58-1.549-0.58-2.14,0c-0.59,0.581-0.59,1.524,0,2.104
	c0.54,0.532,0.276,2.08-0.219,2.793c-0.905,1.106-2.175,1.979-2.768,2.304c-0.487,0.267-0.661,0.871-0.391,1.35
	c0.048,0.082,0.104,0.155,0.169,0.219c0.31,0.305,0.8,0.385,1.202,0.164c0.12-0.065,2.284-1.266,3.669-3.18l0.001,0
	C40.008,9.152,39.184,6.017,38.593,5.436z"/>
</svg>
