<?xml version="1.0" encoding="utf-8"?>
<!-- Generator: Adobe Illustrator 15.0.0, SVG Export Plug-In . SVG Version: 6.00 Build 0)  -->
<!DOCTYPE svg PUBLIC "-//W3C//DTD SVG 1.1//EN" "http://www.w3.org/Graphics/SVG/1.1/DTD/svg11.dtd">
<svg version="1.1"  xmlns="http://www.w3.org/2000/svg" xmlns:xlink="http://www.w3.org/1999/xlink" x="0px" y="0px"
	 width="48px" height="48px" viewBox="0 0 48 48" enable-background="new 0 0 48 48" xml:space="preserve">
<path fill="#CDDC39" d="M37,14.001c-0.018,0-0.035,0.003-0.053,0.003l-0.001-0.014C36.42,13.961,36,13.533,36,13.001
	c0-0.709,0.535-0.938,0.535-0.938C37.467,11.24,38,9.957,38,8.5C38,6.015,35.985,4,33.5,4C31.15,4,29,5.391,29,7.5
	C29,8.453,28.328,9,27.5,9c-0.391,0-0.742-0.152-1.01-0.397C25.694,8.131,24.652,8,23.5,8c-2.485,0-4.5,2.015-4.5,4.5
	c0,1.641,0.929,3.059,0.922,3.068c0.06,0.129,0.099,0.27,0.099,0.422c0,0.558-0.452,1.01-1.011,1.01c-0.06,0-0.11-0.023-0.167-0.033
	c-0.01,0.013-0.023,0.03-0.033,0.043C18.554,17.004,18.288,17,18,17c-2.209,0-4,1.791-4,4c0,2,1.631,3.508,1.626,3.52
	C15.856,24.783,16,25.124,16,25.501c0,0.828-0.672,1.5-1.5,1.5c-0.002,0-0.003-0.001-0.005-0.001C12.564,27.003,11,28.568,11,30.5
	c0,2.5,3.067,5.5,5,5.5c0,1,2.708,3,6.5,3c1.933,0,3.5-1.566,3.5-3.5c0.012-0.051,0-0.378,0-0.5c0-1.104,0.896-2,2-2
	c0.168,0,1.674,0,2.5,0c2.485,0,4.5-2.015,4.5-4.5c0-1.045-0.371-1.995-0.969-2.76C33.625,25.188,33,24.752,33,24.001
	c0-1.104,0.896-2,2-2c0.044,0,0.085,0.011,0.128,0.013C35.132,22.01,35.141,22,35.141,22c0.291,0.002,0.546,0,0.859,0
	c2.209,0,4-1.791,4-4S38,14.001,37,14.001z"/>
<g>
	<g>
		<path fill="#AFB42B" d="M26,14c0.425,0.918,0.817,1.745,1.306,2.428c0.479,0.687,1.016,1.179,1.633,1.473
			c0.284,0.132,0.716,0.267,1.109,0.391c0.402,0.119,0.808,0.23,1.225,0.326C32.111,18.804,32.972,18.954,34,19
			c-0.709,0.793-1.776,1.152-2.814,1.249c-0.524,0.046-1.056,0.019-1.572-0.072c-0.521-0.099-1.006-0.216-1.569-0.501
			c-1.081-0.554-1.822-1.592-2.114-2.618C25.644,16.02,25.641,14.964,26,14z"/>
	</g>
	<g>
		<path fill="#AFB42B" d="M20,20.001c0.445,1.281,0.957,2.443,1.602,3.455c0.654,1.005,1.437,1.829,2.388,2.395
			c0.992,0.563,2.12,1.062,3.274,1.429c1.166,0.354,2.374,0.638,3.736,0.722c-1.167,0.77-2.643,0.972-4.036,0.856
			c-1.408-0.135-2.773-0.548-4.028-1.317c-1.288-0.8-2.231-2.081-2.7-3.428C19.761,22.764,19.651,21.33,20,20.001z"/>
	</g>
	<g>
		<path fill="#AFB42B" d="M16,30c1.337,1.037,2.31,1.963,3.375,2.763c0.526,0.4,1.057,0.771,1.643,1.126
			C21.602,34.259,22.244,34.573,23,35c-1.53,0.82-3.495,0.4-4.838-0.647c-0.685-0.519-1.229-1.188-1.615-1.926
			C16.176,31.684,15.924,30.871,16,30z"/>
	</g>
</g>
<path fill="#9E9D24" d="M8.744,40.198C11.176,38.632,22,33,32,11c-7,22-18.946,29.669-21.584,31.69
	c-0.659,0.504-1.602,0.379-2.106-0.279s-0.38-1.602,0.279-2.106c0.031-0.024,0.063-0.047,0.097-0.068L8.744,40.198z"/>
</svg>
