<?xml version="1.0" encoding="utf-8"?>
<!-- Generator: Adobe Illustrator 19.1.1, SVG Export Plug-In . SVG Version: 6.00 Build 0)  -->
<svg version="1.1"  xmlns="http://www.w3.org/2000/svg" xmlns:xlink="http://www.w3.org/1999/xlink" x="0px" y="0px"
	 viewBox="0 0 48 48" enable-background="new 0 0 48 48" xml:space="preserve">
<path fill="#33691E" d="M7,11c0,0,11.9-2.3,21,9C11.2,24.9,7,11,7,11z M22.9,4c0,0-4.2,10.3,5.1,16C34.5,8.4,22.9,4,22.9,4z"/>
<path fill="#558B2F" d="M7,11c0,0,11.3,6.1,21,9C11.2,24.9,7,11,7,11z M22.9,4c0,0-4.2,10.3,5.1,16C28,13.4,22.9,4,22.9,4z"/>
<path fill="#6D4C41" d="M20.3,25.3l1.5,1.4c2.9-3.1,6-5.1,8.9-6.4c-1.1,1.8-0.4,3.5-0.3,3.6l1.9-0.9c0,0-0.5-2.4,2.4-4.2
	C37.8,18,40,18,40,18l0-2C39.6,16,28.9,15.9,20.3,25.3z"/>
<path fill="#9E9D24" d="M13.8,44c-1.5,0-2.9-0.4-4.2-1.2c-4.1-2.7-4.9-9-1.6-14.1c1.8-2.8,4.4-4.8,7.3-5.4c2.2-0.5,4.3-0.1,6,1l0,0
	c4.1,2.7,4.9,9,1.6,14.1c-1.8,2.8-4.4,4.8-7.3,5.4C15.1,43.9,14.4,44,13.8,44z M35.2,42c-4,0-7.8-3.4-8.9-8.2
	c-0.7-2.9-0.2-5.9,1.3-8.2c1.1-1.8,2.8-3,4.7-3.4c4.5-1,9.2,2.6,10.4,8.1c0.7,2.9,0.2,5.9-1.3,8.2c-1.1,1.8-2.8,3-4.7,3.4
	C36.2,41.9,35.7,42,35.2,42z"/>
<path fill="#827717" d="M19,40c0,0.6-0.4,1-1,1s-1-0.4-1-1s0.4-1,1-1S19,39.4,19,40z M14,40c-0.6,0-1,0.4-1,1s0.4,1,1,1s1-0.4,1-1
	S14.6,40,14,40z M15,36c-0.6,0-1,0.4-1,1s0.4,1,1,1s1-0.4,1-1S15.6,36,15,36z M36,38c-0.6,0-1,0.4-1,1s0.4,1,1,1s1-0.4,1-1
	S36.6,38,36,38z M39,35c-0.6,0-1,0.4-1,1s0.4,1,1,1s1-0.4,1-1S39.6,35,39,35z M35,34c-0.6,0-1,0.4-1,1s0.4,1,1,1s1-0.4,1-1
	S35.6,34,35,34z"/>
<path fill="none" stroke="#C0CA33" stroke-width="2" stroke-linecap="round" stroke-miterlimit="10" d="M30,32c-1.6-4,2-6,2-6
	 M19,27c0,0-3.9-2.1-7,3"/>
</svg>
