<?xml version="1.0" encoding="utf-8"?>
<!-- Generator: Adobe Illustrator 15.0.0, SVG Export Plug-In . SVG Version: 6.00 Build 0)  -->
<!DOCTYPE svg PUBLIC "-//W3C//DTD SVG 1.1//EN" "http://www.w3.org/Graphics/SVG/1.1/DTD/svg11.dtd">
<svg version="1.1"  xmlns="http://www.w3.org/2000/svg" xmlns:xlink="http://www.w3.org/1999/xlink" x="0px" y="0px"
	 width="48px" height="48px" viewBox="0 0 48 48" enable-background="new 0 0 48 48" xml:space="preserve">
<path fill="#F3E5F5" d="M29,3c0,9,9,10,8.5,21c-0.339,7.448-6.044,13.5-13.5,13.5S10.339,31.448,10,24c-0.5-11,9-12,9-21"/>
<path fill="none" stroke="#9C27B0" stroke-width="2" d="M29,3c0,9,9,10,9,21c0,7.731-6.269,14-14,14s-14-6.269-14-14c0-11,9-12,9-21
	"/>
<g>
	<path fill="none" stroke="#E1BEE7" stroke-width="2" d="M27,3c0,14.036,7,14,7,23c0,5.523-4.478,10-10,10s-10-4.477-10-10
		c0-9,7-9,7-23"/>
	<path fill="none" stroke="#E1BEE7" stroke-width="2" d="M25,3c0,14,5,20,5,25c0,3.313-2.687,6-6,6s-6-2.687-6-6s4.866-11,5-25"/>
	<path fill="#E1BEE7" d="M21,30c0-1.656,3-13,3-13s3,11.344,3,13s-1.343,3-3,3S21,31.656,21,30z"/>
</g>
<path fill="#AB47BC" d="M22,31c0-1.104,2-7,2-7s2,5.896,2,7s-0.896,2-2,2S22,32.104,22,31z"/>
<path fill="#5D4037" d="M26.924,36.656C25.982,36.874,25.007,37,24,37s-1.982-0.126-2.924-0.344L19,42l2.74-3.186L21,44l2.239-5.085
	L24,45l0.761-6.085L27,44l-0.74-5.186L29,42L26.924,36.656z"/>
</svg>
