<?xml version="1.0" encoding="UTF-8" standalone="no"?>
<!-- Created with Inkscape (http://www.inkscape.org/) -->

<svg
   xmlns:dc="http://purl.org/dc/elements/1.1/"
   xmlns:cc="http://creativecommons.org/ns#"
   xmlns:rdf="http://www.w3.org/1999/02/22-rdf-syntax-ns#"
   xmlns:svg="http://www.w3.org/2000/svg"
   xmlns="http://www.w3.org/2000/svg"
   xmlns:sodipodi="http://sodipodi.sourceforge.net/DTD/sodipodi-0.dtd"
   xmlns:inkscape="http://www.inkscape.org/namespaces/inkscape"
   width="48"
   height="48"
   viewBox="0 0 48.000001 48.000001"
   id="svg5912"
   version="1.1"
   inkscape:version="0.91 r13725"
   sodipodi:docname="oregano.svg">
  <defs
     id="defs5914" />
  <sodipodi:namedview
     id="base"
     pagecolor="#ffffff"
     bordercolor="#666666"
     borderopacity="1.0"
     inkscape:pageopacity="0.0"
     inkscape:pageshadow="2"
     inkscape:zoom="4"
     inkscape:cx="10.5"
     inkscape:cy="50"
     inkscape:document-units="px"
     inkscape:current-layer="layer1"
     showgrid="false"
     units="px"
     inkscape:window-width="1199"
     inkscape:window-height="711"
     inkscape:window-x="0"
     inkscape:window-y="1"
     inkscape:window-maximized="0" />
  <metadata
     id="metadata5917">
    <rdf:RDF>
      <cc:Work
         rdf:about="">
        <dc:format>image/svg+xml</dc:format>
        <dc:type
           rdf:resource="http://purl.org/dc/dcmitype/StillImage" />
        <dc:title></dc:title>
      </cc:Work>
    </rdf:RDF>
  </metadata>
  <g
     inkscape:label="Layer 1"
     inkscape:groupmode="layer"
     id="layer1"
     transform="translate(0,-1004.3623)">
    <g
       transform="matrix(0.20655511,0,0,-0.20655511,-27.684507,1093.2236)"
       id="g5202">
      <g
         transform="translate(281.7752,360.0376)"
         id="g392">
        <path
           inkscape:connector-curvature="0"
           id="path394"
           style="fill:#c3d380;fill-opacity:1;fill-rule:nonzero;stroke:none"
           d="m 0,0 c -34.295,-3.357 -33.29,-44.207 -36.513,-70.708 -4.025,-33.1 -8.881,-66.332 -35.651,-89.086 -2.656,3.577 -5.312,7.155 -7.968,10.733 27.902,19.371 33.074,53.892 38.731,85.071 3.088,17.016 5.156,35.627 13.958,50.861 3.619,6.264 4.935,8.434 11.546,11.643 C -14.084,-0.606 -0.05,3.451 0,0" />
      </g>
      <g
         transform="translate(241.5598,294.5681)"
         id="g396">
        <path
           inkscape:connector-curvature="0"
           id="path398"
           style="fill:#c3d380;fill-opacity:1;fill-rule:nonzero;stroke:none"
           d="M 0,0 C 4.914,3.928 6.838,5.161 12.825,7.113 15.241,7.901 27.921,11.554 28.06,8.419 28.156,6.237 25.092,6.858 23.155,6.466 20.053,5.839 17.019,4.901 14.102,3.672 8.764,1.424 7.538,0.029 3.34,-3.954 2.227,-2.636 1.113,-1.318 0,0" />
      </g>
      <g
         transform="translate(239.7456,290.2285)"
         id="g400">
        <path
           inkscape:connector-curvature="0"
           id="path402"
           style="fill:#c3d380;fill-opacity:1;fill-rule:nonzero;stroke:none"
           d="m 0,0 c 0.478,10.351 -3.196,20.397 -8.889,28.913 -2.797,4.185 -6.053,8.008 -9.626,11.551 -1.067,1.057 -4.705,3.411 -5.08,4.688 -0.334,1.14 0.408,1.572 1.45,2.859 C -7.482,35.874 5.299,19.931 5.176,-0.071 3.45,-0.047 1.725,-0.024 0,0" />
      </g>
      <g
         transform="translate(254.9776,347.0149)"
         id="g404">
        <path
           inkscape:connector-curvature="0"
           id="path406"
           style="fill:#c3d380;fill-opacity:1;fill-rule:nonzero;stroke:none"
           d="m 0,0 c 1.268,4.165 0.611,9.245 0.096,13.499 -0.386,3.193 -0.964,6.382 -1.81,9.488 -0.22,0.803 -2.552,5.461 0.233,4.797 C 0.758,27.251 2.584,14.972 2.876,13.224 3.617,8.782 5.111,6.292 3.836,1.862 2.732,2.211 1.104,-0.349 0,0" />
      </g>
      <g
         transform="translate(254.4618,369.7591)"
         id="g408">
        <path
           inkscape:connector-curvature="0"
           id="path410"
           style="fill:#7cb542;fill-opacity:1;fill-rule:nonzero;stroke:none"
           d="m 0,0 c -0.004,1.418 0.755,5.684 2.171,7.081 3.749,3.698 7.923,8.886 7.601,12.045 -0.323,3.159 -3.044,17.413 -13.168,22.84 -10.125,5.427 -21.825,11.718 -24.651,11.188 -2.827,-0.53 -7.873,-16.729 -4.971,-27.553 C -30.117,14.777 -22.935,3.437 -12.631,3.498 -4.078,3.549 0,0 0,0" />
      </g>
      <g
         transform="translate(276.3592,360.4396)"
         id="g412">
        <path
           inkscape:connector-curvature="0"
           id="path414"
           style="fill:#7cb542;fill-opacity:1;fill-rule:nonzero;stroke:none"
           d="m 0,0 c 0.897,0.858 4.833,7.065 6.422,8.352 1.59,1.286 11.454,7.48 19.832,6.995 C 34.633,14.861 50.783,6.629 52.899,5.262 55.015,3.894 53.135,2.381 52.324,1.727 51.513,1.074 40.258,-12.162 30.19,-12.919 20.123,-13.675 8.693,-12.365 1.199,-3.558 -0.542,-0.883 0,0 0,0" />
      </g>
      <g
         transform="translate(221.4435,332.8665)"
         id="g416">
        <path
           inkscape:connector-curvature="0"
           id="path418"
           style="fill:#7cb542;fill-opacity:1;fill-rule:nonzero;stroke:none"
           d="m 0,0 c 0.914,-0.278 -1.691,3.524 0,6.465 1.691,2.941 6.177,13.75 2.319,22.677 -3.858,8.927 -14.654,25.598 -53.966,20.845 -3.988,-0.715 -9.476,-2.558 -7.521,-8.316 1.806,-5.317 3.758,-20.612 12.945,-30.953 C -38.781,2.342 -31.11,-2.604 -11.329,-0.888 -4.459,-0.292 -1.59,0.484 0,0" />
      </g>
      <g
         transform="translate(264.0092,302.987)"
         id="g420">
        <path
           inkscape:connector-curvature="0"
           id="path422"
           style="fill:#7cb542;fill-opacity:1;fill-rule:nonzero;stroke:none"
           d="M 0,0 C 1.312,2.751 10.183,13.849 25.832,13.599 41.481,13.348 69.589,2.864 74.862,-24.039 76.502,-28.032 47.536,-35.904 34.214,-36.207 20.892,-36.51 -7.578,-30.259 -1.922,-5.932 -0.706,-2.094 0,0 0,0" />
      </g>
      <g
         transform="translate(214.9335,340.0237)"
         id="g424">
        <path
           inkscape:connector-curvature="0"
           id="path426"
           style="fill:#c3d380;fill-opacity:1;fill-rule:nonzero;stroke:none"
           d="M 0,0 C 0.797,5.345 2.39,10.73 2.772,16.102 3.146,21.345 0.418,26.769 -1.529,31.497 -1.596,31.66 -1.86,31.6 -1.802,31.421 -0.138,26.239 2.721,20.585 2.002,15.058 1.355,10.083 0.243,5.235 -0.277,0.233 c -1.669,1.404 -3.331,2.76 -4.777,4.121 -3.759,3.537 -7.39,7.211 -10.87,11.022 1.164,5.619 1.192,11.94 -1.006,17.265 -1.651,3.998 -4.329,7.545 -7.367,10.653 -0.447,0.045 -0.9,0.085 -1.358,0.122 2.982,-3.445 6.055,-6.849 7.895,-11.065 2.25,-5.154 2.09,-11.133 1.577,-16.69 -1.132,1.245 -2.25,2.503 -3.348,3.777 -2.116,2.455 -4.062,5.073 -6.609,7.108 -1.933,1.545 -4.024,2.929 -6.113,4.279 0.515,4.794 -1.747,8.962 -4.625,12.717 -0.371,-0.018 -0.742,-0.037 -1.119,-0.059 2.788,-3.748 5.454,-7.544 5.305,-12.375 -0.365,0.235 -0.73,0.47 -1.092,0.704 -5.303,3.418 -10.999,6.76 -17.182,8.264 -0.144,0.035 -0.197,-0.17 -0.061,-0.219 6.242,-2.266 11.779,-5.343 17.289,-9.021 0.325,-0.217 0.653,-0.432 0.982,-0.648 -0.011,-0.11 -0.019,-0.218 -0.033,-0.329 -0.028,-0.22 0.349,-0.272 0.39,-0.053 0.009,0.046 0.014,0.09 0.022,0.135 2.389,-1.558 4.837,-3.119 6.92,-5.039 2.37,-2.186 4.296,-4.881 6.413,-7.305 0.904,-1.036 1.824,-2.057 2.751,-3.073 -0.003,-0.031 -0.006,-0.063 -0.009,-0.094 -0.009,-0.08 0.094,-0.102 0.142,-0.055 0.129,-0.141 0.256,-0.282 0.385,-0.422 -5.542,-2.684 -11.042,-5.232 -17.306,-5.419 -3.857,-0.115 -7.531,0.592 -11.194,1.466 0.241,-0.423 0.488,-0.845 0.744,-1.262 3.628,-0.86 7.385,-1.259 11.011,-1.086 6.221,0.296 11.864,2.734 17.151,5.868 0,0 0,0 0,0.001 2.995,-3.237 6.092,-6.378 9.288,-9.416 2.357,-2.241 4.766,-4.432 7.21,-6.577 1.652,-1.449 3.183,-3.043 4.766,-4.566 0.224,-0.025 0.429,-0.063 0.615,-0.119 0.217,-0.066 0.232,0.104 0.157,0.433 C 4.887,-4.256 2.452,-2.07 0,0" />
      </g>
      <g
         transform="translate(260.4105,391.3426)"
         id="g428">
        <path
           inkscape:connector-curvature="0"
           id="path430"
           style="fill:#c3d380;fill-opacity:1;fill-rule:nonzero;stroke:none"
           d="m 0,0 c -0.395,-1.385 -0.574,-2.822 -1.312,-4.093 -0.645,-1.112 -1.65,-2.057 -2.51,-3.003 -1.525,-1.678 -2.994,-3.387 -4.443,-5.127 -0.96,3.379 -2.106,6.704 -3.56,9.856 1.727,1.197 3.613,2.235 4.541,4.144 0.498,1.024 1.123,1.903 1.296,3.045 0.201,1.325 -0.08,2.709 0.039,4.044 0.015,0.163 -0.237,0.188 -0.279,0.038 C -6.457,8.081 -6.509,7.352 -6.514,6.502 -6.524,4.966 -6.966,3.864 -7.725,2.572 -8.223,1.724 -8.612,0.938 -9.323,0.225 c -0.808,-0.809 -1.766,-1.52 -2.666,-2.247 -0.395,0.838 -0.808,1.666 -1.249,2.478 -0.996,1.829 -2.002,3.654 -3.011,5.476 0.632,1.133 1.31,2.229 2.038,3.309 0.632,0.937 1.686,1.972 2.063,3.047 0.66,1.877 -0.694,4.067 -1.687,5.581 -0.08,0.122 -0.263,0.016 -0.196,-0.115 0.497,-0.977 1.424,-2.368 1.415,-3.461 -0.011,-1.244 -0.776,-2.704 -1.425,-3.698 -0.912,-1.396 -1.737,-2.745 -2.448,-4.229 -2.579,4.65 -5.179,9.289 -7.739,13.95 0.668,0.991 1.682,2.107 1.98,3.259 0.27,1.044 -0.715,1.537 -0.702,2.537 10e-4,0.11 -0.171,0.11 -0.17,0 0.004,-0.946 0.956,-1.452 0.752,-2.504 -0.21,-1.087 -1.266,-2.285 -1.892,-3.234 -0.522,0.95 -1.048,1.899 -1.565,2.852 -0.017,0.032 -0.064,0.004 -0.049,-0.029 2.467,-5.137 5.06,-10.206 7.677,-15.264 -3.246,0.243 -6.492,-0.729 -9.744,-0.112 -3.68,0.699 -6.638,3.268 -9.194,5.858 -0.142,0.144 -0.348,-0.038 -0.268,-0.207 1.27,-2.659 5.172,-5.124 7.847,-6.015 3.429,-1.142 7.995,-0.671 11.438,0.324 0.402,-0.778 0.804,-1.558 1.207,-2.336 -0.026,-0.101 0.035,-0.189 0.114,-0.219 0.733,-1.414 1.467,-2.826 2.199,-4.241 0.738,-1.424 1.394,-2.877 1.993,-4.35 -3.901,0.124 -7.951,0.019 -11.735,1.069 -3.593,0.996 -6.768,3.269 -10.038,5.006 -0.163,0.087 -0.292,-0.141 -0.143,-0.245 3.128,-2.185 6.262,-4.426 9.992,-5.447 3.935,-1.076 7.992,-0.971 12.017,-0.615 1.105,-2.747 2.016,-5.562 2.881,-8.395 -3.529,-0.134 -7.092,-0.814 -10.619,-0.746 -4,0.077 -7.092,3.431 -10.559,5.127 -0.189,0.093 -0.424,-0.157 -0.241,-0.312 2.322,-1.96 5.729,-4.875 8.742,-5.546 2.015,-0.448 4.363,0.029 6.391,0.193 2.181,0.177 4.271,0.428 6.41,0.88 0.867,-2.851 1.701,-5.717 2.648,-8.548 0.451,-0.282 0.738,-0.5 0.85,-0.59 -0.62,2.915 -1.295,5.866 -2.106,8.783 3.567,3.561 8.22,7.4 8.45,12.706 C 0.343,0.149 0.052,0.182 0,0" />
      </g>
      <g
         transform="translate(338.8439,278.1918)"
         id="g432">
        <path
           inkscape:connector-curvature="0"
           id="path434"
           style="fill:#c3d380;fill-opacity:1;fill-rule:nonzero;stroke:none"
           d="m 0,0 c -3.931,3.458 -8.978,6.271 -13.276,8.604 -2.653,1.44 -5.383,2.712 -8.162,3.863 2.989,0.263 6.031,0.186 8.971,-0.42 3.359,-0.692 6.252,-2.263 9.332,-3.687 0.189,-0.087 0.424,0.154 0.24,0.312 -5.113,4.412 -13.132,5.5 -19.56,4.209 -3.648,1.465 -7.379,2.726 -11.154,3.847 -2.485,0.738 -4.987,1.418 -7.501,2.049 1.272,1.787 3.526,2.532 5.43,3.435 2.309,1.094 4.64,2.154 7.053,3.002 2.31,0.812 4.919,1.64 7.385,1.695 2.497,0.056 4.618,-1.075 6.887,-1.913 -0.567,0.484 -1.142,0.954 -1.726,1.409 -4.271,1.905 -8.675,0.955 -13.243,-0.734 -2.623,-0.97 -5.167,-2.158 -7.675,-3.394 -1.75,-0.862 -3.404,-1.708 -4.371,-3.435 -4.893,1.22 -9.834,2.239 -14.811,3.047 -0.3,0.048 -0.602,0.098 -0.904,0.147 1.157,1.776 2.267,3.681 3.723,5.201 1.838,1.92 4.069,3.014 6.462,4.07 3.956,1.745 8.026,3.205 12.089,4.676 -0.344,0.105 -0.687,0.209 -1.029,0.306 -4.26,-1.257 -8.398,-2.928 -12.406,-4.845 -4.381,-2.096 -7,-5.081 -9.039,-9.375 -4.554,0.743 -9.351,1.528 -14.081,1.807 4.417,6.49 10.469,11.366 17.656,14.237 -0.949,-0.128 -1.867,-0.297 -2.754,-0.502 -6.372,-2.875 -11.798,-7.637 -15.434,-13.705 -1.075,0.055 -2.145,0.079 -3.208,0.073 -0.08,-0.242 -0.177,-0.537 -0.29,-0.882 1.559,-0.196 3.125,-0.359 4.694,-0.503 -1.262,-5.352 -0.431,-10.658 2.343,-15.438 2.073,-3.574 5.533,-9.734 10.016,-10.525 0.184,-0.033 0.305,0.205 0.132,0.311 -8.405,5.114 -13.437,15.873 -11.793,25.59 4.349,-0.387 8.719,-0.685 13.026,-1.367 0.489,-0.077 0.977,-0.162 1.465,-0.243 -0.561,-6.155 0.027,-13.511 3.168,-18.9 2.434,-4.176 5.873,-10.313 11.408,-10.145 0.224,0.007 0.215,0.318 0,0.34 -5.988,0.621 -10.538,8.039 -12.46,13.261 -1.808,4.912 -0.85,10.334 -1.852,15.4 4.802,-0.808 9.571,-1.807 14.292,-2.998 -0.411,-5.261 1.628,-11.088 3.88,-15.725 1.555,-3.204 4.382,-9.613 8.582,-9.848 0.236,-0.013 0.254,0.319 0.053,0.39 -4.571,1.627 -7.486,8.396 -9.13,12.618 -1.599,4.108 -2.063,8.243 -3.012,12.472 1.889,-0.48 3.77,-0.99 5.643,-1.531 3.011,-0.871 5.997,-1.827 8.94,-2.896 0.184,-4.3 1.31,-9.273 3.386,-13.044 0.888,-1.615 2.069,-3.63 3.463,-4.89 1.222,-1.105 2.582,-0.731 4.118,-0.779 0.23,-0.007 0.262,0.324 0.053,0.39 -1.835,0.58 -3.236,0.542 -4.489,2.219 -1.241,1.663 -2.374,3.359 -3.151,5.291 -1.373,3.416 -1.822,7.065 -2.77,10.589 3.845,-1.421 7.612,-3.046 11.241,-4.983 2.95,-1.575 5.808,-3.321 8.555,-5.229 1.691,-1.174 3.269,-2.535 4.88,-3.836 C -0.364,-0.596 -0.122,-0.291 0,0" />
      </g>
      <g
         transform="translate(183.582,368.8032)"
         id="g436">
        <path
           inkscape:connector-curvature="0"
           id="path438"
           style="fill:#c3d380;fill-opacity:1;fill-rule:nonzero;stroke:none"
           d="m 0,0 c 0.265,0.14 0.032,0.504 -0.229,0.392 -3.482,-1.494 -7.135,-2.738 -10.836,-3.564 -2.906,-0.649 -5.466,-0.139 -8.069,0.608 0.087,-0.334 0.177,-0.672 0.271,-1.016 2.067,-0.761 4.186,-1.206 6.502,-0.782 C -7.983,-3.562 -3.925,-2.073 0,0" />
      </g>
      <g
         transform="translate(276.2805,359.9908)"
         id="g440">
        <path
           inkscape:connector-curvature="0"
           id="path442"
           style="fill:#c3d380;fill-opacity:1;fill-rule:nonzero;stroke:none"
           d="m 0,0 c 1.556,0.396 3.106,0.798 4.65,1.204 0.952,-2.533 3.023,-4.493 4.948,-6.346 1.656,-1.595 3.754,-3.922 6.261,-3.097 0.139,0.046 0.083,0.248 -0.061,0.219 -2.606,-0.531 -5.306,3.388 -6.855,5.009 -1.305,1.365 -2.643,2.756 -3.583,4.4 2.871,0.753 5.738,1.484 8.637,2.124 0.902,-2.949 3.333,-5.97 5.399,-8.143 1.775,-1.867 4.135,-3.559 6.824,-2.994 0.203,0.043 0.131,0.315 -0.045,0.335 -6.429,0.73 -8.322,6.49 -11.885,10.866 2.518,0.55 5.06,1.033 7.661,1.375 0.743,0.098 1.486,0.188 2.228,0.275 3.26,-6.03 9.942,-13.788 17.689,-10.462 0.151,0.065 0.078,0.338 -0.086,0.318 -3.759,-0.466 -8.005,-0.074 -11.017,2.474 -2.544,2.151 -4.078,5.277 -6.347,7.697 4.304,0.493 8.603,0.775 12.897,0.69 1.645,-2.086 3.488,-3.861 5.692,-5.36 1.468,-0.998 3.558,-2.627 5.312,-1.483 0.162,0.105 0.06,0.355 -0.131,0.311 -2.458,-0.567 -5.051,1.744 -6.81,3.207 -1.262,1.05 -2.481,2.142 -3.627,3.316 3.376,-0.087 6.749,-0.402 10.119,-1.031 0.178,-0.033 0.25,0.216 0.075,0.274 -3.639,1.22 -7.569,1.638 -11.549,1.654 1.481,2.31 4.193,2.801 6.592,3.825 -0.285,0.125 -0.574,0.25 -0.865,0.375 C 39.677,10.21 37.087,9.261 36.169,6.83 32.403,6.83 28.597,6.477 24.95,6.093 c 0.319,1.661 1.298,2.92 2.295,4.243 1.041,1.38 2.537,5.3 4.78,4.014 0.137,-0.079 0.292,0.111 0.172,0.223 -0.06,0.056 -0.12,0.099 -0.18,0.145 -0.427,0.119 -0.849,0.234 -1.263,0.336 C 29.799,14.87 28.952,13.802 28.466,12.923 27.209,10.648 25.068,8.71 24.652,6.061 23.722,5.962 22.8,5.862 21.895,5.767 19.634,5.528 17.309,5.253 14.973,4.903 c 1.428,2.326 3.315,4.033 5.763,5.263 2.408,1.211 4.552,3.617 7.272,3.938 0.183,0.021 0.182,0.261 0,0.284 -2.86,0.358 -5.169,-2.599 -7.51,-3.815 -2.515,-1.305 -4.394,-3.222 -5.749,-5.702 -0.001,-0.001 0,-0.001 0,-0.001 C 11.827,4.426 8.891,3.859 6.04,3.087 6.816,4.129 7.855,4.798 8.785,5.763 9.5,6.506 10.07,7.368 10.672,8.201 c 0.859,1.189 1.737,2.466 3.034,3.227 1.25,0.734 2.763,0.964 4.09,1.537 0.215,0.093 0.057,0.411 -0.153,0.363 C 14.877,12.694 12.813,11.821 11.064,9.555 10.107,8.316 9.313,6.99 8.242,5.837 7.347,4.871 6.422,4.119 5.783,3.016 4.087,2.548 2.43,1.996 0.82,1.364 0.498,0.929 0.238,0.602 0.079,0.449 0.079,0.449 -0.001,0.315 0,0" />
      </g>
      <g
         transform="translate(213.9805,339.223)"
         id="g444">
        <path
           inkscape:connector-curvature="0"
           id="path446"
           style="fill:#c3d380;fill-opacity:1;fill-rule:nonzero;stroke:none"
           d="m 0,0 c -3.914,-1.286 -7.56,-3.157 -11.575,-4.188 -4.046,-1.04 -8.246,-1.463 -12.413,-1.716 0.86,-0.266 1.761,-0.5 2.704,-0.705 7.391,-0.106 15.897,1.835 21.394,6.419 C 0.198,-0.117 0.104,0.034 0,0" />
      </g>
      <g
         transform="translate(225.3055,412.5587)"
         id="g448">
        <path
           inkscape:connector-curvature="0"
           id="path450"
           style="fill:#c3d380;fill-opacity:1;fill-rule:nonzero;stroke:none"
           d="m 0,0 c 3.342,-2.715 7.33,-3.064 11.484,-3.186 0.111,-0.003 0.108,0.161 0,0.17 C 7.515,-2.677 3.408,-2.308 0.138,0.178 0.036,0.256 -0.1,0.081 0,0" />
      </g>
    </g>
  </g>
</svg>
