<?xml version="1.0" encoding="utf-8"?>
<!-- Generator: Adobe Illustrator 15.0.0, SVG Export Plug-In . SVG Version: 6.00 Build 0)  -->
<!DOCTYPE svg PUBLIC "-//W3C//DTD SVG 1.1//EN" "http://www.w3.org/Graphics/SVG/1.1/DTD/svg11.dtd">
<svg version="1.1"  xmlns="http://www.w3.org/2000/svg" xmlns:xlink="http://www.w3.org/1999/xlink" x="0px" y="0px"
	 width="48px" height="48px" viewBox="0 0 48 48" enable-background="new 0 0 48 48" xml:space="preserve">
<g>
	<path fill="#388E3C" d="M7,14.006C6.973,11.824,7.849,9.289,9.261,7.57c1.416-1.714,3.572-3.046,5.963-3.427
		c2.386-0.404,4.798,0.152,6.693,1.222c1.909,1.084,3.117,2.705,4.082,4.643c-2.143-0.314-3.657-0.853-5.364-1.072
		c-1.703-0.236-3.216-0.263-4.626-0.031c-1.414,0.228-2.802,0.722-4.277,1.528C10.25,11.233,8.744,12.758,7,14.006z"/>
	<g>
		<path fill="#388E3C" d="M42,14.006c-1.506-0.927-2.783-1.763-4.035-2.47c-1.244-0.706-2.426-1.252-3.599-1.59
			c-1.173-0.341-2.362-0.493-3.73-0.45C29.264,9.523,27.77,9.792,26,10.008c0.817-1.582,2.164-2.813,3.86-3.56
			c1.687-0.748,3.77-0.906,5.627-0.34c1.868,0.544,3.438,1.7,4.555,3.081C41.145,10.584,41.907,12.21,42,14.006z"/>
	</g>
</g>
<path fill="#795548" d="M15,40.991c11-9.94,10-30.983,10-30.983h2c0,0,1,27.837-5,33.801C19.957,44.337,15,43.973,15,40.991z"/>
<g>
	<path fill="#8BC34A" d="M26,10.008c-4.829,6.035-6,18.989-6,18.989"/>
	<path fill="#8BC34A" d="M26,10.008c-0.053,2.075-0.146,3.671-0.344,5.279c-0.203,1.585-0.49,3.112-0.913,4.63
		c-0.417,1.519-0.968,3.022-1.696,4.532c-0.749,1.511-1.634,3.014-3.047,4.548c-1.074-1.805-1.453-3.623-1.591-5.412
		c-0.113-1.789,0.073-3.562,0.555-5.277c0.479-1.714,1.252-3.379,2.374-4.878C22.469,11.961,23.963,10.566,26,10.008z"/>
</g>
<g>
	<g>
		<path fill="#4CAF50" d="M26,10.008c-2.208,0.994-3.911,1.97-5.279,3.042c-1.367,1.065-2.35,2.197-3.261,3.518
			c-0.904,1.323-1.713,2.877-2.547,4.633c-0.848,1.757-1.659,3.689-2.913,5.797c-1.245-2.113-1.734-4.416-1.699-6.792
			c0.064-2.361,0.717-4.856,2.209-7.026c1.461-2.171,3.828-3.882,6.364-4.453C21.394,8.155,24.018,8.518,26,10.008z"/>
	</g>
	<g>
		<path fill="#4CAF50" d="M37.987,27.998c-1.136-2.025-1.953-3.785-2.756-5.446c-0.787-1.654-1.541-3.154-2.338-4.526
			c-0.804-1.374-1.637-2.623-2.723-3.893c-1.077-1.292-2.446-2.536-4.171-4.125c2.172-0.877,4.61-0.732,6.816,0.218
			c2.208,0.948,4.096,2.726,5.267,4.79c1.195,2.064,1.747,4.366,1.755,6.594C39.814,23.836,39.339,26.062,37.987,27.998z"/>
	</g>
</g>
</svg>
