<?xml version="1.0" encoding="utf-8"?>
<!-- Generator: Adobe Illustrator 15.0.0, SVG Export Plug-In . SVG Version: 6.00 Build 0)  -->
<!DOCTYPE svg PUBLIC "-//W3C//DTD SVG 1.1//EN" "http://www.w3.org/Graphics/SVG/1.1/DTD/svg11.dtd">
<svg version="1.1"  xmlns="http://www.w3.org/2000/svg" xmlns:xlink="http://www.w3.org/1999/xlink" x="0px" y="0px"
	 width="48px" height="48px" viewBox="0 0 48 48" enable-background="new 0 0 48 48" xml:space="preserve">
<polygon fill="#E0AC6E" points="36,19.999 16,6 4,22.999 25,36.999 31,36.999 38.072,25.394 "/>
<g>
	<path fill="#5D4037" d="M36.484,35.725c1.26,1.201,2.741,1.631,3.299,0.953c0.562-0.677-0.008-2.203-1.269-3.404
		s-2.738-1.631-3.299-0.952C34.654,32.996,35.225,34.522,36.484,35.725z"/>
	<path fill="#5D4037" d="M30.359,38.434c1.616,0.77,3.221,0.751,3.571-0.042c0.355-0.794-0.673-2.063-2.29-2.828
		c-1.616-0.768-3.218-0.752-3.57,0.043C27.715,36.398,28.743,37.665,30.359,38.434z"/>
	<path fill="#5D4037" d="M29.484,31.725c1.26,1.201,2.741,1.631,3.299,0.953c0.562-0.677-0.008-2.203-1.269-3.404
		s-2.738-1.631-3.299-0.952C27.654,28.996,28.225,30.522,29.484,31.725z"/>
	<ellipse fill="#5D4037" cx="40" cy="41.499" rx="3" ry="1.5"/>
</g>
<polygon fill="#FFCC80" points="16,6 18.215,11.653 10,22.999 4,22.999 25,36.999 36,19.999 "/>
<path fill="#558B2F" d="M28,23c0,3.315-2.684,5.999-6,5.999S16,26.315,16,23c0-3.317,2.684-6.001,6-6.001S28,19.683,28,23"/>
<g>
	<path fill="#FFFFFF" d="M20.536,19.943c0-0.829,0.655-1.498,1.464-1.498s1.464,0.669,1.464,1.498c0,0.832-1.464,3.002-1.464,3.002
		S20.536,20.775,20.536,19.943"/>
	<path fill="#FFFFFF" d="M23.464,25.945c0,0.831-0.655,1.5-1.464,1.5s-1.464-0.669-1.464-1.5s1.464-3,1.464-3
		S23.464,25.114,23.464,25.945"/>
	<path fill="#FFFFFF" d="M18.732,22.743c-0.701-0.415-0.939-1.329-0.536-2.049c0.403-0.719,1.3-0.964,2.001-0.547
		C20.896,20.562,22,22.945,22,22.945S19.433,23.156,18.732,22.743"/>
	<path fill="#FFFFFF" d="M25.268,23.146c0.701,0.415,0.939,1.331,0.536,2.049c-0.403,0.72-1.3,0.964-2.001,0.549
		C23.103,25.33,22,22.945,22,22.945S24.567,22.731,25.268,23.146"/>
	<path fill="#FFFFFF" d="M25.268,22.743c0.701-0.415,0.939-1.329,0.536-2.049c-0.403-0.719-1.3-0.964-2.001-0.547
		C23.103,20.562,22,22.945,22,22.945S24.567,23.156,25.268,22.743"/>
	<path fill="#FFFFFF" d="M18.732,23.146c-0.701,0.415-0.939,1.331-0.536,2.049c0.403,0.72,1.3,0.964,2.001,0.549
		C20.896,25.33,22,22.945,22,22.945S19.433,22.731,18.732,23.146"/>
</g>
<path fill="#FFC107" d="M23.5,23c0,0.828-0.671,1.499-1.5,1.499S20.5,23.828,20.5,23c0-0.83,0.671-1.501,1.5-1.501
	S23.5,22.17,23.5,23"/>
</svg>
