<?xml version="1.0" encoding="utf-8"?>
<!-- Generator: Adobe Illustrator 15.0.0, SVG Export Plug-In . SVG Version: 6.00 Build 0)  -->
<!DOCTYPE svg PUBLIC "-//W3C//DTD SVG 1.1//EN" "http://www.w3.org/Graphics/SVG/1.1/DTD/svg11.dtd">
<svg version="1.1"  xmlns="http://www.w3.org/2000/svg" xmlns:xlink="http://www.w3.org/1999/xlink" x="0px" y="0px"
	 width="48px" height="48px" viewBox="0 0 48 48" enable-background="new 0 0 48 48" xml:space="preserve">
<g>
	<circle fill="#8BC34A" cx="27.969" cy="6.003" r="2"/>
	<path fill="#8BC34A" d="M24.969,13.012h-2c0-8.01,4.367-8.813,4.553-8.906l0.447,3.9C27.828,8.078,24.969,7.746,24.969,13.012z"/>
</g>
<g>
	<path fill="#FF3D00" d="M19.002,44c-1.409,0-2.81-0.593-3.798-1.748C8.202,34.072,8,20.488,8,18.967c0-2.766,2.238-5.008,5-5.008
		c2.759,0,4.996,2.238,5,5c0.012,3.122,0.895,12.218,4.796,16.776c1.798,2.099,1.555,5.26-0.542,7.06
		C21.312,43.604,20.154,44,19.002,44z"/>
	<path fill="#FF3D00" d="M28.996,44c-0.952,0-1.914-0.271-2.767-0.839c-2.298-1.53-2.921-4.635-1.391-6.934
		c5.047-7.58,5.161-17.174,5.162-17.27c0.017-2.75,2.251-4.978,5-4.978c0.005,0,0.01,0,0.015,0c2.756,0.008,4.985,2.236,4.985,4.992
		c0,0.512-0.078,12.644-6.838,22.798C32.2,43.217,30.613,44,28.996,44z"/>
	<path fill="#FF3D00" d="M33.877,15.479c-0.277-2.563-2.549-4.435-5.165-4.45C28.718,11.019,28.73,11,28.73,11
		c-0.132,0-0.271,0.017-0.407,0.028c-0.053,0.003-0.104-0.005-0.156,0c-0.03,0.003-0.058,0.014-0.088,0.017
		c-0.299,0.039-0.604,0.104-0.907,0.176c-0.018,0.005-0.035,0.008-0.053,0.013c-1.26,0.309-2.483,0.815-3.087,0.815
		c-0.779,0-2.279-0.847-4.097-1.015c-0.009-0.001-0.016-0.004-0.025-0.005c-0.024-0.002-0.046,0.001-0.07,0
		C19.672,11.017,19.506,11,19.334,11c0,0,0.016,0.018,0.023,0.026c-2.627-0.004-4.914,1.858-5.211,4.422
		c-0.048,0.415-1.126,10.3,3.415,22.261c0.437,1.151,1.27,2.696,2.297,3.819C20.634,42.989,22.202,44,24.032,44
		c1.903,0,3.534-1.088,4.272-2.645c0.927-1.105,1.668-2.554,2.084-3.648C34.923,25.766,33.921,15.892,33.877,15.479z"/>
</g>
<g>
	<path fill="#DD2C00" d="M35.555,14.039c-0.239-0.035-0.478-0.074-0.726-0.074c-0.457,0-0.891,0.084-1.312,0.2
		c0.173,0.414,0.309,0.848,0.359,1.314c0.044,0.413,1.046,10.287-3.488,22.228c-0.416,1.095-1.157,2.543-2.084,3.648
		c-0.221,0.466-0.529,0.882-0.894,1.247C35.886,39.33,36.788,18.813,35.555,14.039z"/>
	<path fill="#DD2C00" d="M19.858,41.528c-1.027-1.123-1.86-2.668-2.297-3.819c-4.541-11.961-3.463-21.846-3.415-22.261
		c0.051-0.438,0.178-0.846,0.337-1.238c-0.458-0.116-1.093-0.251-1.482-0.251c-0.248,0-0.486,0.039-0.726,0.074
		c-1.25,4.839-0.301,25.842,8.499,28.676C20.408,42.365,20.093,41.971,19.858,41.528z"/>
</g>
<g>
	<path fill="none" stroke="#FF9E80" stroke-width="2" stroke-linecap="round" d="M19,13.959c-1,0-2,2.002-2,3.004"/>
	<path fill="none" stroke="#FF9E80" stroke-width="2" stroke-linecap="round" d="M17,21.969c0,0,0,7.01,2,11.016"/>
</g>
</svg>
