<?xml version="1.0" encoding="UTF-8" standalone="no"?>
<!-- Created with Inkscape (http://www.inkscape.org/) -->

<svg
   xmlns:dc="http://purl.org/dc/elements/1.1/"
   xmlns:cc="http://creativecommons.org/ns#"
   xmlns:rdf="http://www.w3.org/1999/02/22-rdf-syntax-ns#"
   xmlns:svg="http://www.w3.org/2000/svg"
   xmlns="http://www.w3.org/2000/svg"
   xmlns:sodipodi="http://sodipodi.sourceforge.net/DTD/sodipodi-0.dtd"
   xmlns:inkscape="http://www.inkscape.org/namespaces/inkscape"
   width="48mm"
   height="48mm"
   viewBox="0 0 170.07874 170.07874"
   id="svg4580"
   version="1.1"
   inkscape:version="0.91 r13725"
   sodipodi:docname="parsley.svg">
  <defs
     id="defs4582" />
  <sodipodi:namedview
     id="base"
     pagecolor="#ffffff"
     bordercolor="#666666"
     borderopacity="1.0"
     inkscape:pageopacity="0.0"
     inkscape:pageshadow="2"
     inkscape:zoom="0.35"
     inkscape:cx="-285"
     inkscape:cy="520"
     inkscape:document-units="px"
     inkscape:current-layer="layer1"
     showgrid="false"
     inkscape:window-width="1385"
     inkscape:window-height="855"
     inkscape:window-x="-77"
     inkscape:window-y="12"
     inkscape:window-maximized="0" />
  <metadata
     id="metadata4585">
    <rdf:RDF>
      <cc:Work
         rdf:about="">
        <dc:format>image/svg+xml</dc:format>
        <dc:type
           rdf:resource="http://purl.org/dc/dcmitype/StillImage" />
        <dc:title></dc:title>
      </cc:Work>
    </rdf:RDF>
  </metadata>
  <g
     inkscape:label="Layer 1"
     inkscape:groupmode="layer"
     id="layer1"
     transform="translate(0,-882.28346)">
    <g
       transform="matrix(0.71519225,0,0,-0.71519225,166.70333,992.16862)"
       id="g136">
      <path
         inkscape:connector-curvature="0"
         id="path138"
         style="fill:#7eb041;fill-opacity:1;fill-rule:nonzero;stroke:none"
         d="m 0,0 c -8.811,0.709 -18.025,0.922 -26.727,-0.633 0.241,1.769 0.482,3.537 0.722,5.306 -9.278,-2.015 -17.609,-7.23 -23.538,-14.646 0.501,3.453 -0.136,6.95 -1.564,10.134 -10.306,-4.358 -19.347,-11.662 -25.772,-20.824 -2.205,-3.143 -7.475,-2.896 -5.097,-1.012 6.691,5.303 10.153,14.393 8.684,22.803 -1.169,-0.861 -2.338,-1.723 -3.507,-2.585 0.121,2.151 -2.739,12.245 -5.339,12.185 -2.448,-0.056 -8.546,-6.85 -9.592,-9.065 -1.067,1.046 -2.083,2.077 -3.149,3.123 -3.572,-3.502 -5.368,-8.422 -6.545,-13.284 -1.176,-4.862 -1.856,-9.876 -3.706,-14.524 -2.977,-7.477 -9.071,-13.624 -16.448,-16.808 0.375,14.535 1.432,32.451 2.436,46.188 3.045,5.437 7.711,10.856 18.128,7.469 8.976,-2.919 26.125,-2.423 39.123,6.547 -4.792,4.512 -11.228,8.664 -12.981,7.985 16.817,6.824 25.519,11.873 31.295,21.959 -4.469,1.5 -7.886,1.072 -7.886,1.072 0,0 11.231,19.678 11.476,25.578 -5.301,3.403 -26.521,-0.756 -35.74,-8.522 -0.067,3.328 -1.848,5.601 -1.848,5.601 0,0 -10.698,-8.472 -13.979,-14.611 -3.282,-6.139 -7.547,-10.437 -7.49,-8.205 0.057,2.232 2.911,9.283 7.49,14.258 4.578,4.974 20.396,17.451 21.268,34.886 -4.676,2.46 -10.193,0.512 -10.193,0.512 0,0 9.818,14.312 9.47,18.114 -2.843,1.86 -7.632,-1.431 -7.632,-1.431 0,0 3.009,15.216 -7.888,29.359 -8.123,-3.328 -17.501,-17.939 -17.501,-17.939 0,0 -3.101,8.788 -4.488,10.174 -1.941,-1.386 -11.338,-22.194 -12.047,-28.152 -1.819,2.638 -4.883,3.47 -4.883,3.47 0,0 -4.588,-17.186 -2.206,-31.615 2.383,-14.428 2.284,-27.177 2.251,-30.505 -0.032,-3.328 -5.864,-6.383 -5.098,-1.04 1.461,10.191 0.906,15.461 -0.48,27.663 -0.929,8.174 -6.528,25.346 -9.888,26.623 -3.244,-1.267 -5.265,-8.874 -4.899,-9.984 0.366,-1.109 -7.677,16.64 -17.938,18.026 -5.546,-4.714 -0.498,-20.055 0,-23.572 -4.437,-0.832 -9.938,-1.941 -9.545,-3.605 0.394,-1.664 6.351,-8.597 10.306,-12.203 -6.03,-1.109 -9.703,-2.218 -10.363,-3.605 -0.659,-1.387 3.224,-14.143 23.469,-24.405 8.578,-3.784 19.881,-13.575 23.638,-33.882 -1.147,-14.569 -2.486,-36.074 -2.88,-53.037 -5.054,7.998 -12.599,25.048 -8.908,43.606 4.434,22.292 -3.224,12.803 -3.682,12.234 -0.457,-0.568 -6.004,21.027 -14.054,22.898 -4.306,-2.496 -8.779,-13.676 -5.082,-22.156 3.697,-8.481 6.808,-15.282 4.104,-16.114 -2.704,-0.832 -6.656,7.45 -7.28,15.372 -0.624,7.923 -11.856,24.978 -14.768,26.85 -1.105,-3.725 -1.846,-12.163 -1.846,-12.163 0,0 -7.305,17.571 -15.833,16.115 0.792,-4.99 1.341,-5.683 1.341,-5.683 0,0 -14.272,5.909 -24.966,-0.86 1.578,-6.144 12.743,-14.228 12.743,-14.228 0,0 -8.461,-0.86 -10.125,-2.108 -1.664,-1.248 11.439,-8.736 13.519,-9.36 -4.16,-1.248 -8.111,-4.992 -8.111,-4.992 0,0 5.615,-4.948 16.431,-7.882 10.816,-2.933 24.478,-8.433 22.223,-12.755 -2.256,-4.322 -8.891,1.826 -11.605,4.056 -2.714,2.23 -17.875,5.674 -24.646,0 4.379,-3.765 5.5,-4.851 5.5,-4.851 0,0 -13.599,-2.578 -15.015,-12.62 6.28,-3.594 14.61,-2.261 14.61,-2.261 0,0 -2.902,-4.294 -2.6,-7.702 3.421,-3.199 22.274,4.252 27.095,7.702 4.821,3.45 27.837,3.577 37.739,-7.207 6.047,-6.585 10.528,-11.573 13.103,-14.462 -0.008,-5.745 0.152,-10.525 0.546,-13.684 l 7.43,0.926 c -0.416,3.342 -0.549,8.719 -0.486,15.22 7.436,3.726 28.81,11.722 42.374,-10.83 16.64,-27.663 36.399,-21.839 37.231,-20.603 0.832,1.235 -0.624,3.548 -2.08,8.956 6.24,-5.616 18.72,-7.28 26.335,-2.275 -1.328,3.549 -16.5,15.67 -16.5,15.67 3.163,1.609 6.326,3.218 9.489,4.827 -4.033,2.078 -8.386,3.558 -12.872,4.255 -2.247,0.349 -4.493,0.456 -6.763,0.437 -0.976,-0.008 -1.725,-0.172 -1.432,0.839 0.093,0.321 1.754,2.363 2.052,2.408 -4.154,-0.656 -8.309,-1.312 -12.463,-1.968 -1.491,-0.236 -3.013,-0.472 -4.504,-0.234 -1.492,0.238 -2.975,1.032 -3.657,2.38 -0.872,1.722 -0.166,3.953 1.291,5.22 1.457,1.266 3.487,1.695 5.416,1.624 1.93,-0.07 3.81,-0.587 5.695,-1.003 5.127,-1.131 10.417,-1.509 15.654,-1.147 2.619,0.181 5.225,0.547 7.791,1.097 2.249,0.481 4.472,1.427 6.722,1.778 -0.9,1.728 -2.856,3.316 -4.147,4.814 4.094,-0.192 8.221,0.327 12.141,1.526 0.694,0.213 1.4,0.456 1.959,0.919 0.559,0.463 0.95,1.195 0.818,1.909 -0.193,1.045 -1.328,1.589 -2.32,1.97 -1.768,0.678 -3.855,1.444 -5.623,2.122 C -10.3,-17.415 -3.346,-9.377 0,0" />
    </g>
    <g
       transform="matrix(0.71519225,0,0,-0.71519225,50.743976,934.53473)"
       id="g140">
      <path
         inkscape:connector-curvature="0"
         id="path142"
         style="fill:#abd266;fill-opacity:1;fill-rule:nonzero;stroke:none"
         d="m 0,0 c -3.752,2.019 -7.406,4.191 -10.962,6.534 -0.067,-0.094 -0.115,-0.19 -0.142,-0.288 3.269,-2.527 6.87,-4.548 10.504,-6.517 2.11,-1.144 4.232,-2.268 6.349,-3.4 2.161,-1.155 4.357,-2.671 6.697,-3.399 0.045,-0.015 0.087,0.009 0.115,0.042 1.535,-4.081 3.118,-8.027 5.437,-11.755 0.027,-0.043 0.093,-0.004 0.068,0.039 -2.521,4.307 -3.951,9.321 -5.707,13.979 -1.783,4.73 -3.583,9.454 -5.221,14.237 -1.581,4.619 -2.913,9.317 -4.48,13.939 -1.119,3.304 -2.44,6.582 -4.539,9.352 -0.028,-0.027 -0.057,-0.052 -0.083,-0.08 2.352,-3.38 3.627,-7.776 4.81,-11.549 1.472,-4.696 2.896,-9.399 4.517,-14.047 1.573,-4.513 3.277,-8.979 4.95,-13.455 0.056,-0.15 0.113,-0.299 0.169,-0.449 C 10.788,-5.479 8.653,-4.612 6.752,-3.6 4.5,-2.401 2.246,-1.208 0,0" />
    </g>
    <g
       transform="matrix(0.71519225,0,0,-0.71519225,65.613836,932.33473)"
       id="g144">
      <path
         inkscape:connector-curvature="0"
         id="path146"
         style="fill:#abd266;fill-opacity:1;fill-rule:nonzero;stroke:none"
         d="m 0,0 c -0.554,-7.288 -1.479,-14.541 -2.405,-21.789 -0.045,-0.348 0.502,-0.345 0.546,0 0.936,7.382 1.871,14.769 2.413,22.193 0.265,3.636 0.437,7.278 0.465,10.924 0.026,3.464 0.158,7.122 -0.57,10.525 -0.01,0.045 -0.074,0.032 -0.077,-0.01 C 0.144,18.095 0.55,14.279 0.496,10.518 0.446,7.008 0.266,3.5 0,0" />
    </g>
    <g
       transform="matrix(0.71519225,0,0,-0.71519225,67.073254,955.18769)"
       id="g148">
      <path
         inkscape:connector-curvature="0"
         id="path150"
         style="fill:#abd266;fill-opacity:1;fill-rule:nonzero;stroke:none"
         d="m 0,0 c -0.017,0.046 -0.09,0.028 -0.075,-0.021 1.232,-4.188 3.839,-7.465 6.398,-10.921 2.875,-3.882 5.577,-8.021 8.725,-11.683 0.087,-0.101 0.255,0.03 0.184,0.141 -2.515,3.95 -5.598,7.62 -8.394,11.377 C 4.26,-7.644 1.495,-4.091 0,0" />
    </g>
    <g
       transform="matrix(0.71519225,0,0,-0.71519225,55.100788,948.44966)"
       id="g152">
      <path
         inkscape:connector-curvature="0"
         id="path154"
         style="fill:#abd266;fill-opacity:1;fill-rule:nonzero;stroke:none"
         d="m 0,0 c 2.199,-1.4 3.994,-3.287 5.767,-5.176 0.105,-0.112 0.26,0.051 0.165,0.165 C 4.398,-3.156 2.85,-1.376 0.841,-0.02 -1.377,1.476 -3.873,2.609 -6.236,3.855 -9.88,5.776 -13.508,7.685 -17.328,9.181 -17.33,9.12 -17.329,9.055 -17.326,8.983 -13.586,7.399 -10.004,5.449 -6.428,3.527 -4.284,2.375 -2.055,1.308 0,0" />
    </g>
    <g
       transform="matrix(0.71519225,0,0,-0.71519225,9.4844799,964.47426)"
       id="g156">
      <path
         inkscape:connector-curvature="0"
         id="path158"
         style="fill:#abd266;fill-opacity:1;fill-rule:nonzero;stroke:none"
         d="m 0,0 c 1.389,-0.468 2.742,-1.074 4.035,-1.678 2.918,-1.361 5.676,-2.987 8.259,-4.911 5.776,-4.3 11.165,-9.186 16.676,-13.818 9.738,-8.184 19.507,-16.479 27.657,-26.3 3.962,-4.774 7.429,-11.447 12.979,-14.584 0.186,-0.105 0.41,0.158 0.236,0.307 -2.321,1.988 -4.45,3.96 -6.358,6.365 -1.949,2.457 -3.753,5.024 -5.731,7.459 -4.248,5.229 -8.986,10.039 -13.931,14.607 -4.962,4.585 -10.138,8.929 -15.312,13.271 -5.361,4.498 -10.592,9.272 -16.246,13.403 -3.108,2.27 -6.482,4.128 -10.037,5.6 C 1.428,0.052 0.624,0.342 -0.184,0.573 -0.131,0.384 -0.07,0.193 0,0" />
    </g>
    <g
       transform="matrix(0.71519225,0,0,-0.71519225,166.17824,992.12849)"
       id="g160">
      <path
         inkscape:connector-curvature="0"
         id="path162"
         style="fill:#abd266;fill-opacity:1;fill-rule:nonzero;stroke:none"
         d="m 0,0 c -2.431,-1.061 -4.827,-2.231 -7.251,-3.278 -3.973,-1.715 -7.991,-3.322 -12.032,-4.868 -7.674,-2.936 -15.428,-5.651 -23.147,-8.466 -0.279,-0.102 -0.558,-0.205 -0.838,-0.307 3.868,8.509 11.281,14.273 17.881,20.679 0.039,0.286 0.078,0.571 0.117,0.857 C -25.304,4.61 -25.337,4.6 -25.371,4.593 -32.48,-1.979 -40.21,-8.145 -44.076,-17.215 c -6.91,-2.537 -13.785,-5.173 -20.53,-8.124 3.941,8.925 8.774,17.288 14.125,25.396 -0.269,-0.115 -0.534,-0.238 -0.801,-0.356 -5.576,-7.906 -10.188,-16.534 -14.063,-25.365 -7.165,-3.163 -14.354,-6.685 -22.179,-7.817 -4.337,-0.628 -8.739,0.069 -13.058,-0.612 -4.31,-0.68 -8.222,-2.896 -11.775,-5.323 -0.186,-0.126 -0.025,-0.41 0.177,-0.303 3.661,1.947 7.243,4.229 11.394,4.96 4.159,0.732 8.434,0.035 12.622,0.551 7.295,0.9 14.084,3.945 20.736,6.905 3.448,1.535 6.928,2.986 10.427,4.384 0.034,-0.046 0.08,-0.084 0.145,-0.099 3.331,-0.758 5.805,-3.207 8.394,-5.274 2.521,-2.013 5.237,-3.286 8.305,-4.247 5.543,-1.736 12.039,-3.252 18.089,-3.02 0.292,0.064 0.585,0.12 0.878,0.166 -0.127,0.243 -0.276,0.482 -0.439,0.719 -2.732,0.23 -5.475,0.355 -8.195,0.761 -3.766,0.563 -7.509,1.434 -11.119,2.65 -3.66,1.234 -6.245,3.239 -9.215,5.623 -1.83,1.47 -3.675,2.628 -5.954,3.078 4.001,1.587 8.028,3.105 12.066,4.593 0.127,-0.029 0.273,0.01 0.36,0.133 2.353,0.866 4.709,1.723 7.066,2.577 -0.002,-0.043 0.007,-0.088 0.044,-0.127 1.943,-2.03 4.294,-3.79 6.357,-5.722 2.036,-1.907 4.177,-3.452 6.8,-4.458 3.123,-1.198 6.477,-1.814 9.73,-2.546 0.622,-0.14 1.243,-0.27 1.865,-0.403 0.206,0.11 0.405,0.231 0.586,0.381 0.088,0.073 0.17,0.155 0.249,0.24 -3.873,0.885 -7.743,1.794 -11.463,3.079 -3.195,1.103 -5.613,3.03 -8.022,5.333 -1.669,1.596 -3.485,3.723 -5.795,4.351 5.008,1.815 10.021,3.624 15.011,5.501 4.318,1.625 8.614,3.31 12.863,5.109 2.974,1.258 6.071,2.511 8.967,4.042 0.052,0.141 0.111,0.281 0.162,0.423 C 0.49,-0.037 0.245,-0.019 0,0" />
    </g>
    <g
       transform="matrix(0.71519225,0,0,-0.71519225,26.339226,959.26529)"
       id="g164">
      <path
         inkscape:connector-curvature="0"
         id="path166"
         style="fill:#abd266;fill-opacity:1;fill-rule:nonzero;stroke:none"
         d="m 0,0 c 1.822,-1.333 3.464,-2.838 4.761,-4.801 1.741,-2.637 3.07,-5.615 4.411,-8.47 1.491,-3.173 2.851,-6.435 3.693,-9.847 0.406,-1.645 0.691,-3.32 0.795,-5.012 0.105,-1.719 -0.267,-3.468 -0.089,-5.158 0.016,-0.151 0.249,-0.267 0.327,-0.089 1.243,2.811 0.462,6.814 -0.205,9.715 -0.798,3.472 -2.161,6.791 -3.669,10.008 -1.538,3.279 -3.087,6.753 -5.193,9.716 C 3.642,-2.264 2.223,-1.013 0.636,0.059 0.425,0.052 0.213,0.03 0,0" />
    </g>
    <g
       transform="matrix(0.71519225,0,0,-0.71519225,153.69284,1042.8434)"
       id="g168">
      <path
         inkscape:connector-curvature="0"
         id="path170"
         style="fill:#abd266;fill-opacity:1;fill-rule:nonzero;stroke:none"
         d="m 0,0 c -2.161,0.745 -4.424,1.16 -6.681,1.619 -3.294,0.671 -6.519,1.587 -9.668,2.764 -6.243,2.333 -12.136,5.554 -17.813,9.019 -0.872,0.533 -1.743,1.086 -2.614,1.651 5.475,0.879 10.95,1.758 16.426,2.638 2.827,0.454 5.655,0.903 8.476,1.393 1.693,0.294 3.394,0.632 5.103,0.801 -0.327,0.167 -0.658,0.326 -0.989,0.486 -0.75,-0.081 -1.506,-0.196 -2.273,-0.313 -3.102,-0.471 -6.2,-0.969 -9.296,-1.481 -6.074,-1.007 -12.148,-2.013 -18.222,-3.019 -1.582,1.04 -3.166,2.116 -4.76,3.196 3.183,1.497 6.33,3.067 9.429,4.732 2.394,1.286 4.677,2.86 7.056,4.198 0.062,0.049 0.114,0.082 0.148,0.087 -0.261,-0.041 -0.522,-0.082 -0.783,-0.124 -2.164,-1.081 -4.249,-2.37 -6.356,-3.507 -3.29,-1.775 -6.633,-3.445 -10.017,-5.032 -8.018,5.422 -16.32,10.797 -25.996,11.55 -0.131,0.01 -0.16,-0.202 -0.032,-0.23 3.635,-0.772 7.222,-1.692 10.626,-3.208 2.956,-1.317 5.675,-3.045 8.385,-4.797 5.447,-3.521 10.804,-7.183 16.358,-10.536 1.259,-4.958 2.806,-10.238 5.175,-14.755 0.962,-1.833 2.125,-3.539 3.532,-4.981 0.181,0.07 0.336,0.139 0.465,0.205 -1.703,1.785 -3.066,3.909 -4.108,6.164 -1.923,4.162 -2.628,8.8 -4.428,12.988 C -27.661,8.403 -22.285,5.59 -16.588,3.517 -11.078,1.512 -5.342,0.772 0.307,-0.578 0.234,-0.403 0.131,-0.21 0,0" />
    </g>
    <g
       transform="matrix(0.71519225,0,0,-0.71519225,51.254188,1006.2627)"
       id="g172">
      <path
         inkscape:connector-curvature="0"
         id="path174"
         style="fill:#abd266;fill-opacity:1;fill-rule:nonzero;stroke:none"
         d="m 0,0 c -6.124,0.887 -12.449,0.7 -18.709,0.089 0.006,0.023 0.004,0.048 -0.02,0.067 -4.817,3.706 -10.418,6.113 -16.015,8.383 -4.131,1.675 -8.35,3.349 -12.74,3.883 -0.153,-0.107 -0.299,-0.221 -0.445,-0.335 4.512,-0.579 8.834,-2.216 13.081,-3.926 5.635,-2.269 10.845,-4.916 16.021,-8.083 -3.8,-0.374 -7.575,-0.904 -11.266,-1.445 -5.131,-0.752 -10.239,-1.645 -15.351,-2.513 -3.963,-0.672 -8.004,-1.161 -11.98,-1.873 0.315,-0.171 0.635,-0.333 0.958,-0.481 3.22,0.4 6.435,1.03 9.592,1.561 5.115,0.862 10.223,1.765 15.352,2.545 0.467,0.071 0.936,0.139 1.404,0.208 -3.366,-2.447 -6.177,-5.094 -8.891,-8.294 -1.812,-2.136 -3.854,-4.008 -5.999,-5.767 0.143,-0.059 0.297,-0.109 0.461,-0.153 1.756,1.345 3.418,2.804 4.92,4.491 1.448,1.626 2.764,3.368 4.298,4.916 1.783,1.8 3.846,3.276 5.905,4.739 0.069,0.049 0.096,0.116 0.099,0.184 4.479,0.646 8.974,1.179 13.489,1.481 5.28,0.354 10.523,0.19 15.805,0.093 C 0.097,-0.232 0.133,-0.019 0,0" />
    </g>
    <g
       transform="matrix(0.71519225,0,0,-0.71519225,76.809323,910.99311)"
       id="g176">
      <path
         inkscape:connector-curvature="0"
         id="path178"
         style="fill:#abd266;fill-opacity:1;fill-rule:nonzero;stroke:none"
         d="m 0,0 c 5.396,-19.042 12.938,-37.638 15.176,-57.422 -0.955,-2.772 -1.937,-5.535 -2.957,-8.281 -3.232,-8.701 -6.662,-17.686 -7.103,-27.059 -0.009,-0.18 0.25,-0.168 0.273,0 1.177,8.823 3.915,17.122 7.032,25.428 3.145,8.38 5.943,16.821 8.574,25.376 0.014,0.046 0.028,0.092 0.042,0.137 5.752,5.034 11.474,10.093 17.406,14.917 3.27,2.658 6.581,5.263 9.935,7.814 2.26,1.718 4.749,3.324 6.966,5.162 0.018,0.236 0.042,0.47 0.054,0.708 -2.787,-1.703 -5.371,-3.938 -7.92,-5.892 -3.064,-2.35 -6.093,-4.744 -9.086,-7.182 -5.836,-4.755 -11.495,-9.712 -17.108,-14.725 2.439,7.932 4.876,15.87 7.187,23.843 8.019,8.575 16.151,16.623 26.212,22.662 0,0.004 0,0.009 0,0.013 -0.196,0.128 -0.402,0.23 -0.614,0.312 -9.827,-5.054 -17.772,-13.598 -25.208,-21.64 2.488,8.645 4.818,17.333 6.826,26.103 1.123,4.903 2.145,9.829 3.102,14.767 0.463,2.389 0.954,4.927 1.07,7.445 -0.191,0.263 -0.382,0.526 -0.582,0.789 -0.16,-2.813 -0.637,-5.576 -1.21,-8.446 -0.88,-4.412 -1.812,-8.814 -2.823,-13.199 -2.021,-8.77 -4.381,-17.458 -6.895,-26.098 -0.275,-0.944 -0.549,-1.888 -0.823,-2.833 -0.015,-0.031 -0.024,-0.062 -0.028,-0.094 -1.731,-5.961 -3.463,-11.934 -5.252,-17.892 -0.088,4.831 -0.526,9.695 -0.829,14.511 -0.332,5.288 -0.744,10.574 -1.4,15.832 -1.27,10.174 -3.268,20.189 -2.985,30.482 -0.047,-0.047 -0.098,-0.101 -0.152,-0.164 -0.984,-10.149 1.442,-20.288 2.69,-30.318 1.302,-10.469 1.215,-21.028 2.305,-31.501 0.001,-0.014 0.008,-0.025 0.012,-0.038 -0.554,-1.834 -1.114,-3.666 -1.68,-5.495 -0.026,-0.023 -0.053,-0.046 -0.079,-0.07 -0.092,-0.082 -0.08,-0.185 -0.024,-0.26 -1.466,-4.724 -2.982,-9.432 -4.58,-14.107 -1.193,9.799 -3.681,19.36 -6.512,28.803 C 6.196,-18.218 3.395,-8.762 0.119,0.489 0.085,0.352 0.045,0.19 0,0" />
    </g>
    <g
       transform="matrix(0.71519225,0,0,-0.71519225,97.582073,1015.7386)"
       id="g180">
      <path
         inkscape:connector-curvature="0"
         id="path182"
         style="fill:#abd266;fill-opacity:1;fill-rule:nonzero;stroke:none"
         d="m 0,0 c 2.748,2.706 4.803,6.441 6.596,9.823 1.854,3.497 3.39,7.165 4.583,10.938 2.319,7.339 3.422,15.151 2.843,22.84 -0.131,-0.039 -0.27,-0.093 -0.413,-0.155 C 13.773,35.924 12.944,28.464 10.7,21.253 9.641,17.851 8.302,14.537 6.698,11.356 7,16.052 5.736,20.815 4.914,25.4 4.495,27.738 4.155,30.123 3.373,32.375 2.802,34.02 1.802,35.536 1.218,37.171 1.184,37.135 1.148,37.101 1.115,37.064 1.375,36.19 1.733,35.344 2.117,34.467 3.198,32.005 3.806,29.578 4.283,26.941 5.245,21.616 6.848,15.985 6.28,10.547 6.208,10.41 6.139,10.271 6.066,10.133 4.205,6.633 1.746,3.597 -0.306,0.236 -0.423,0.046 -0.157,-0.155 0,0" />
    </g>
    <g
       transform="matrix(0.71519225,0,0,-0.71519225,36.787171,985.01851)"
       id="g184">
      <path
         inkscape:connector-curvature="0"
         id="path186"
         style="fill:#abd266;fill-opacity:1;fill-rule:nonzero;stroke:none"
         d="m 0,0 c 0.245,0.023 0.256,0.389 0,0.39 -6.123,0.011 -12.29,-0.521 -18.407,-0.799 -3.888,-0.177 -7.776,-0.35 -11.662,-0.556 -0.194,-0.173 -0.308,-0.28 -0.308,-0.28 0,0 0.074,-0.065 0.214,-0.179 3.919,0.153 7.837,0.341 11.756,0.524 6.118,0.286 12.31,0.326 18.407,0.9" />
    </g>
    <g
       transform="matrix(0.71519225,0,0,-0.71519225,28.776173,978.5512)"
       id="g188">
      <path
         inkscape:connector-curvature="0"
         id="path190"
         style="fill:#abd266;fill-opacity:1;fill-rule:nonzero;stroke:none"
         d="M 0,0 C -8.311,0.035 -16.691,0.308 -24.478,3.206 -24.35,3.028 -24.176,2.831 -23.961,2.62 -16.495,-0.438 -7.982,-0.46 0,-0.507 0.326,-0.509 0.327,-0.001 0,0" />
    </g>
    <g
       transform="matrix(0.71519225,0,0,-0.71519225,106.74647,1002.6536)"
       id="g192">
      <path
         inkscape:connector-curvature="0"
         id="path194"
         style="fill:#abd266;fill-opacity:1;fill-rule:nonzero;stroke:none"
         d="m 0,0 c 2.731,1.971 4.439,5.647 6.248,8.398 1.481,2.251 2.938,4.516 4.387,6.786 -0.017,0.119 -0.036,0.237 -0.055,0.356 C 7.2,10.28 3.913,4.846 -0.142,0.184 -0.223,0.09 -0.115,-0.083 0,0" />
    </g>
    <g
       transform="matrix(0.71519225,0,0,-0.71519225,58.926155,993.92891)"
       id="g196">
      <path
         inkscape:connector-curvature="0"
         id="path198"
         style="fill:#abd266;fill-opacity:1;fill-rule:nonzero;stroke:none"
         d="m 0,0 c 6.099,5.462 11.315,11.619 13.442,19.532 -0.081,0.122 -0.167,0.224 -0.258,0.306 C 12.022,16.312 10.451,12.928 8.322,9.873 6.998,7.973 5.483,6.209 3.805,4.614 2.575,3.444 1.11,2.38 0.013,1.054 0.065,5.077 0.102,9.1 0.061,13.121 c -0.049,4.863 -0.492,9.545 -1.829,14.234 -1.225,4.3 -2.797,8.521 -3.695,12.903 -0.075,-0.054 -0.151,-0.114 -0.226,-0.172 0.647,-4.145 2.028,-8.108 3.167,-12.169 C -0.966,22.368 -0.705,16.911 -0.71,11.183 -0.712,7.44 -0.733,3.697 -0.763,-0.046 -0.774,-0.065 -0.788,-0.082 -0.799,-0.102 -0.857,-0.205 -0.83,-0.303 -0.766,-0.369 -0.784,-2.461 -0.8,-4.554 -0.828,-6.646 -0.877,-10.202 -1.99,-16.754 1.31,-19.341 c 0.186,-0.146 0.454,0.03 0.337,0.259 -1.202,2.346 -1.812,4.328 -1.829,7.01 -0.017,2.774 0.092,5.554 0.13,8.328 C -0.035,-2.496 -0.017,-1.248 0,0" />
    </g>
    <g
       transform="matrix(0.71519225,0,0,-0.71519225,42.237523,987.41925)"
       id="g200">
      <path
         inkscape:connector-curvature="0"
         id="path202"
         style="fill:#abd266;fill-opacity:1;fill-rule:nonzero;stroke:none"
         d="m 0,0 c -0.701,11.837 -2.41,23.468 -4.815,35.052 -0.066,-0.242 -0.13,-0.5 -0.193,-0.77 0.766,-4.733 1.65,-9.444 2.443,-14.175 C -1.449,13.444 -0.911,6.735 -0.468,0 -0.448,-0.299 0.018,-0.302 0,0" />
    </g>
    <g
       transform="matrix(0.71519225,0,0,-0.71519225,110.2989,963.5385)"
       id="g204">
      <path
         inkscape:connector-curvature="0"
         id="path206"
         style="fill:#abd266;fill-opacity:1;fill-rule:nonzero;stroke:none"
         d="m 0,0 c -0.412,-0.108 -0.237,-0.75 0.176,-0.639 7.511,2.019 15.021,4.038 22.532,6.058 3.817,1.026 8,1.811 11.714,3.434 0.093,0.146 0.186,0.29 0.276,0.438 C 30.35,7.44 25.323,6.626 20.989,5.492 13.993,3.661 6.996,1.831 0,0" />
    </g>
    <g
       transform="matrix(0.71519225,0,0,-0.71519225,130.25385,944.48005)"
       id="g208">
      <path
         inkscape:connector-curvature="0"
         id="path210"
         style="fill:#abd266;fill-opacity:1;fill-rule:nonzero;stroke:none"
         d="m 0,0 c -5.055,-4.335 -10.308,-8.439 -15.737,-12.294 -5.18,-3.677 -10.523,-7.113 -15.994,-10.339 -2.903,-1.712 -5.828,-3.391 -8.66,-5.219 -2.765,-1.784 -5.333,-3.835 -8.039,-5.702 -0.982,-0.678 -2.009,-1.272 -3.063,-1.819 l -10e-4,0 c -0.126,-0.009 -0.219,-0.066 -0.282,-0.145 -4.697,-2.388 -9.896,-3.862 -14.027,-7.172 -0.275,-0.22 0.085,-0.689 0.378,-0.49 4.473,3.036 9.721,4.475 14.426,7.034 7.136,0.157 14.569,-2.836 21.152,-5.232 3.357,-1.223 6.705,-2.506 10.134,-3.516 2.454,-0.722 5.443,-1.772 8.176,-1.817 0.203,0.135 0.409,0.266 0.61,0.406 -0.196,0.185 -0.397,0.369 -0.599,0.553 -1.013,0.278 -2.068,0.463 -3.068,0.703 -1.846,0.443 -3.661,0.988 -5.471,1.558 -3.525,1.11 -7,2.359 -10.487,3.584 -5.945,2.089 -12.562,4.555 -19.016,4.59 0.108,0.067 0.218,0.13 0.325,0.198 2.757,1.75 5.292,3.825 8.005,5.64 2.802,1.875 5.706,3.587 8.609,5.299 11.088,6.538 21.652,13.865 31.497,22.167 2.842,2.397 5.624,4.867 8.341,7.406 1.165,1.088 2.367,2.191 3.533,3.332 0.117,0.511 0.193,0.973 0.223,1.378 C 9.703,8.887 8.467,7.638 7.199,6.454 4.843,4.255 2.447,2.099 0,0" />
    </g>
    <g
       transform="matrix(0.71519225,0,0,-0.71519225,64.703682,950.3525)"
       id="g212">
      <path
         inkscape:connector-curvature="0"
         id="path214"
         style="fill:#abd266;fill-opacity:1;fill-rule:nonzero;stroke:none"
         d="M 0,0 C -0.092,0.139 -0.183,0.278 -0.275,0.417 -0.29,0.44 -0.326,0.419 -0.311,0.396 -0.219,0.257 -0.128,0.118 -0.036,-0.021 -0.021,-0.043 0.015,-0.022 0,0" />
    </g>
    <g
       transform="matrix(0.71519225,0,0,-0.71519225,104.28957,959.74318)"
       id="g216">
      <path
         inkscape:connector-curvature="0"
         id="path218"
         style="fill:#abd266;fill-opacity:1;fill-rule:nonzero;stroke:none"
         d="M 0,0 C 2.426,4.49 4.066,9.522 5.673,14.355 7.234,19.046 8.601,23.79 9.594,28.63 9.475,28.535 9.249,28.352 8.933,28.092 7.78,23.664 6.602,19.24 5.202,14.884 3.591,9.875 1.449,5.069 -0.214,0.09 -0.256,-0.036 -0.063,-0.116 0,0" />
    </g>
  </g>
</svg>
