<?xml version="1.0" encoding="utf-8"?>
<!-- Generator: Adobe Illustrator 15.0.0, SVG Export Plug-In . SVG Version: 6.00 Build 0)  -->
<!DOCTYPE svg PUBLIC "-//W3C//DTD SVG 1.1//EN" "http://www.w3.org/Graphics/SVG/1.1/DTD/svg11.dtd">
<svg version="1.1"  xmlns="http://www.w3.org/2000/svg" xmlns:xlink="http://www.w3.org/1999/xlink" x="0px" y="0px"
	 width="48px" height="48px" viewBox="0 0 48 48" enable-background="new 0 0 48 48" xml:space="preserve">
<ellipse fill="#FF5252" cx="19.5" cy="26.501" rx="13.5" ry="17.5"/>
<g>
	<path fill="#D50000" d="M15,26.501c0-0.55,0.292-12.209,8.989-16.478c0.004-0.002,0.007-0.004,0.011-0.006
		c-0.836-0.383-1.707-0.661-2.609-0.825c-4.977,3.249-8.295,8.533-8.057,16.058c0.17,5.379,2.168,9.244,4.487,11.928
		C16.059,34.222,15,30.525,15,26.501z"/>
	<path fill="#D50000" d="M19.358,13.65c-0.535,0.078-1.099,0.127-1.69,0.127c-1.793,0-3.802-0.43-5.8-1.707
		c-0.578,0.516-1.118,1.095-1.626,1.717c2.434,2.007,4.9,2.97,6.95,3.17C17.806,15.739,18.536,14.633,19.358,13.65z"/>
</g>
<path fill="#4CAF50" d="M24,12.056c0,0-2.063-11.389-18-7.056C13,19,24,12.056,24,12.056z"/>
<g>
	<path fill="#4CAF50" d="M23,12C17,5,6,5,6,5"/>
	<path fill="#2E7D32" d="M22.25,12.661c-1.809-2.372-4.364-4.153-7.194-5.392c-1.415-0.622-2.898-1.115-4.415-1.495
		C9.123,5.399,7.572,5.118,6,5c1.577-0.049,3.162,0.067,4.736,0.283c1.573,0.222,3.139,0.563,4.672,1.05
		c1.531,0.488,3.032,1.125,4.448,1.951c1.412,0.82,2.755,1.856,3.894,3.055L22.25,12.661z"/>
</g>
<path fill="none" stroke="#795548" stroke-width="2" stroke-linecap="round" d="M21,6.001c0,0,3,2,3,5"/>
<ellipse fill="#FF9E80" cx="28.5" cy="26.501" rx="13.5" ry="17.5"/>
</svg>
