<?xml version="1.0" encoding="utf-8"?>
<!-- Generator: Adobe Illustrator 15.0.0, SVG Export Plug-In . SVG Version: 6.00 Build 0)  -->
<!DOCTYPE svg PUBLIC "-//W3C//DTD SVG 1.1//EN" "http://www.w3.org/Graphics/SVG/1.1/DTD/svg11.dtd">
<svg version="1.1"  xmlns="http://www.w3.org/2000/svg" xmlns:xlink="http://www.w3.org/1999/xlink" x="0px" y="0px"
	 width="48px" height="48px" viewBox="0 0 48 48" enable-background="new 0 0 48 48" xml:space="preserve">
<path fill="#FBC02D" d="M36.672,7.203c-0.52-0.036-0.961,0.049-1.191,0.086c-1.28,0.07-5.918,0.734-11.635,6.28
	c-1.077,0.74-4.616,3.423-4.969,6.901l-0.018,0.184c-0.085,0.92-0.263,2.832-1.549,3.391c-2.556,1.109-4.948,2.52-5.441,2.874
	C9.04,28.674,4.7,32.953,6.372,37.857C7.27,40.49,9.354,42,12.092,42c1.806,0,3.456-0.659,4.314-1.073
	c1.839-0.382,10.189-2.489,12.046-9.558c0.12-0.24,0.253-0.592,0.417-1.027c0.586-1.561,1.568-4.173,3.503-5.824
	c0.18-0.153,0.706-0.613,1.41-1.229c1.428-1.247,3.592-3.138,5.146-4.468l0.074-0.071c0.305-0.295,2.75-2.994,2.953-6.802
	C42.471,2.296,38.359,7.322,36.672,7.203z"/>
<g>
	<path fill="#D84315" d="M13.302,29.005c0,0-5.991,3.663-4.492,8.058c1.498,4.397,6.74,1.467,6.74,1.467s8.988-1.467,10.482-8.062
		c0,0,1.375-2.386,0.874-3.661c-0.252-0.646-1.778-0.262-2.576-0.662c-1.02-0.512-2.602-0.668-5.037-0.071
		C16.298,26.807,13.302,29.005,13.302,29.005z"/>
	<path fill="#D84315" d="M24.439,16.17c0,0-6.423,4.282-2.854,7.851c3.569,3.569,7.136,0,7.851-0.713
		c0.713-0.716,6.424-5.709,6.424-5.709S38,15.458,38,12.601c0-2.853-3.568-2.14-3.568-2.14S30.148,10.461,24.439,16.17z"/>
</g>
<g>
	<path fill="#A52E0E" d="M26.939,26.969c-2.125,2.59-7.53,7.862-17.917,10.588c1.72,3.646,6.526,0.973,6.526,0.973
		s8.988-1.467,10.482-8.062C26.032,30.468,27.285,28.273,26.939,26.969z"/>
	<path fill="#A52E0E" d="M37.418,11.043c-0.007,0.022-0.02,0.033-0.023,0.059c-1.65,2.862-6.052,8.848-15.628,13.07
		c-0.001,0.002-0.001,0.003-0.002,0.005c3.509,3.28,6.968-0.168,7.673-0.869c0.711-0.716,6.422-5.709,6.422-5.709
		S38,15.458,38,12.601C38,11.871,37.766,11.377,37.418,11.043z"/>
</g>
</svg>
