<?xml version="1.0" encoding="utf-8"?>
<!-- Generator: Adobe Illustrator 15.0.0, SVG Export Plug-In . SVG Version: 6.00 Build 0)  -->
<!DOCTYPE svg PUBLIC "-//W3C//DTD SVG 1.1//EN" "http://www.w3.org/Graphics/SVG/1.1/DTD/svg11.dtd">
<svg version="1.1"  xmlns="http://www.w3.org/2000/svg" xmlns:xlink="http://www.w3.org/1999/xlink" x="0px" y="0px"
	 width="48px" height="48px" viewBox="0 0 48 48" enable-background="new 0 0 48 48" xml:space="preserve">
<g>
	<ellipse fill="#FFC400" cx="24" cy="33.5" rx="14" ry="11.5"/>
	<path fill="#FFC400" d="M38,34c0-8-6-10-7-16c-0.636-3.813-3.134-7-7-7s-6.364,3.187-7,7c-1,6-7,8-7,16"/>
</g>
<g>
	<path fill="#FFFFFF" stroke="#795548" stroke-width="2" stroke-miterlimit="10" d="M27,5c0,0-3,3-3,8"/>
	<circle fill="#795548" cx="24" cy="13" r="1"/>
</g>
<path fill="#4CAF50" d="M24,14.035c0,0-1.25-12.535-14-8.035C11.375,19.042,24,14.035,24,14.035z"/>
<path fill="#FFAB00" d="M37.777,31.518C36.701,25.508,31.887,23.323,31,18c-0.514-3.084-2.247-5.756-4.936-6.666
	C28.24,12.765,29,18.518,29,22c0,4,4,6,4,10s-4,9-10,9c-11.107,0-12.789-6.85-12.979-7.869C10.017,33.254,10,33.375,10,33.5
	c0,0.073,0.012,0.145,0.014,0.217C10.012,33.814,10,33.901,10,34h0.03c0.321,6.117,6.442,11,13.97,11s13.648-4.883,13.97-11H38
	c0-0.099-0.012-0.186-0.014-0.283C37.988,33.645,38,33.573,38,33.5C38,32.822,37.915,32.162,37.777,31.518z"/>
<g>
	<circle fill="#FF9100" cx="30" cy="32" r="1"/>
	<circle fill="#FF9100" cx="26" cy="32" r="1"/>
	<circle fill="#FF9100" cx="28" cy="35" r="1"/>
</g>
</svg>
