<?xml version="1.0" encoding="utf-8"?>
<!-- Generator: Adobe Illustrator 15.0.0, SVG Export Plug-In . SVG Version: 6.00 Build 0)  -->
<!DOCTYPE svg PUBLIC "-//W3C//DTD SVG 1.1//EN" "http://www.w3.org/Graphics/SVG/1.1/DTD/svg11.dtd">
<svg version="1.1"  xmlns="http://www.w3.org/2000/svg" xmlns:xlink="http://www.w3.org/1999/xlink" x="0px" y="0px"
	 width="48px" height="48px" viewBox="0 0 48 48" enable-background="new 0 0 48 48" xml:space="preserve">
<g>
	<path fill="none" stroke="#8BC34A" stroke-width="2" stroke-linecap="round" d="M16.999,33.001c6,3,6,8.999,6,8.999"/>
	<path fill="#8BC34A" d="M19.587,26.774C15.485,24.65,8.633,27.352,7,27.998c2.386,1.46,2.48,9.171,6.888,10.657
		c3.119,1.054,5.71-0.257,5.943-4.626C23.012,32.252,22.49,28.278,19.587,26.774z"/>
	<path fill="none" stroke="#8BC34A" stroke-width="2" stroke-linecap="round" d="M26.999,35.001c0,0-4,0.999-4,6.999"/>
	<path fill="#8BC34A" d="M27.782,28.2C31.586,27.135,36.762,30.193,38,31c-2.254,0.806-3.731,7.462-7.671,7.952
		c-2.788,0.346-4.703-1.166-4.091-4.808C23.922,32.146,25.09,28.958,27.782,28.2z"/>
</g>
<g>
	<path fill="#689F38" d="M13.888,38.655C9.48,37.169,9.386,29.458,7,27.998c0,0,0,0,0.003,0.002
		c2.118,0.157,5.927,1.64,12.847,6.016c-0.007,0.006-0.012,0.01-0.019,0.014C19.598,38.398,17.007,39.709,13.888,38.655z"/>
	<path fill="#689F38" d="M30.329,38.952C34.269,38.462,35.746,31.806,38,31c0,0,0,0-0.002,0c-1.791-0.223-5.208,0.678-11.771,3.129
		c0.004,0.006,0.007,0.011,0.011,0.016C25.626,37.786,27.541,39.298,30.329,38.952z"/>
</g>
<g>
	<rect x="25" y="8" fill="#FF9800" width="13" height="13"/>
	
		<rect x="24.782" y="7.782" transform="matrix(-0.7071 -0.7071 0.7071 -0.7071 43.5208 47.0269)" fill="#FF9800" width="13.435" height="13.435"/>
</g>
<path fill="#FFEB3B" d="M27,14.499c0,2.485,2.015,4.5,4.5,4.5s4.5-2.015,4.5-4.5c0-2.486-2.015-4.5-4.5-4.5S27,12.013,27,14.499"/>
</svg>
