<?xml version="1.0" encoding="utf-8"?>
<!-- Generator: Adobe Illustrator 19.1.1, SVG Export Plug-In . SVG Version: 6.00 Build 0)  -->
<svg version="1.1"  xmlns="http://www.w3.org/2000/svg" xmlns:xlink="http://www.w3.org/1999/xlink" x="0px" y="0px"
	 viewBox="0 0 48 48" enable-background="new 0 0 48 48" xml:space="preserve">
<path fill="#FFFFFF" stroke="#795548" stroke-width="2" stroke-miterlimit="10" d="M28,4c0,0-3,3.1-3,9"/>
<path fill="#9C27B0" d="M39,26c0,8.3-6.7,19-15,19S9,34.3,9,26c0-9.8,4.4-17,16-13C34.4,8.9,39,17.7,39,26z"/>
<path fill="#4A148C" d="M32.9,28.6c0.2-0.5,0.2-1.1,0.2-1.6l0.2-1.6c0-0.5,0-1.1,0-1.7c0-0.6,0-1.1-0.1-1.6
	c-0.1-0.5-0.2-1.1-0.3-1.6c-0.1-0.5-0.3-1-0.4-1.5c-0.3-1-0.7-1.9-1.1-2.9c-0.5-0.8-0.9-1.7-1.4-2.4c-0.4-0.6-0.8-1.2-1.3-1.7
	c-1.2,0.1-2.4,0.4-3.8,1c5.2,4,6.3,11.9,6.3,12.4l0,1.5c0,0.5,0,1-0.1,1.5c-0.1,0.5-0.1,1-0.2,1.5c0,0.5-0.1,1-0.2,1.4
	c-0.2,0.9-0.4,1.8-0.7,2.7c-0.3,0.8-0.6,1.6-0.9,2.3c-0.1,0.4-0.3,0.7-0.4,1c-0.2,0.3-0.3,0.6-0.5,0.9c-0.3,0.6-0.5,1.1-0.7,1.5
	C27.2,40.5,27,41,27,41s0.3-0.4,0.8-1.2c0.3-0.4,0.6-0.8,0.9-1.4c0.2-0.3,0.4-0.6,0.6-0.8c0.2-0.3,0.3-0.6,0.5-1
	c0.4-0.7,0.8-1.5,1.2-2.3c0.4-0.8,0.7-1.8,1-2.7c0.2-0.5,0.3-1,0.4-1.5C32.6,29.6,32.8,29.1,32.9,28.6z"/>
<g>
	<path fill="#4CAF50" d="M25,13c0,0-1.3-12.5-14-8C12.4,18,25,13,25,13z"/>
</g>
</svg>
