<?xml version="1.0" encoding="utf-8"?>
<!-- Generator: Adobe Illustrator 15.0.0, SVG Export Plug-In . SVG Version: 6.00 Build 0)  -->
<!DOCTYPE svg PUBLIC "-//W3C//DTD SVG 1.1//EN" "http://www.w3.org/Graphics/SVG/1.1/DTD/svg11.dtd">
<svg version="1.1"  xmlns="http://www.w3.org/2000/svg" xmlns:xlink="http://www.w3.org/1999/xlink" x="0px" y="0px"
	 width="48px" height="48px" viewBox="0 0 48 48" enable-background="new 0 0 48 48" xml:space="preserve">
<path fill="#FF5252" d="M26,9l-2-5l-2,5c0,0,0-1-4-3l1,6l5,1l5-1l1-6C26,8,26,9,26,9z"/>
<ellipse fill="#FFECB3" cx="24" cy="27.5" rx="17.849" ry="15.5"/>
<g>
	<path fill="#FF1744" d="M23.5,18.93c0-0.83-0.67-1.5-1.5-1.5c-0.03,0-0.05,0-0.08,0c0.06-0.2,0.07-0.43,0.03-0.65
		c-0.15-0.82-0.93-1.36-1.74-1.22c-0.02,0.01-0.03,0.01-0.05,0.01c-0.8,0.15-1.33,0.9-1.21,1.7c-0.35-0.73-1.22-1.05-1.96-0.72
		c-0.75,0.33-1.09,1.19-0.78,1.94c-0.52-0.62-1.44-0.72-2.08-0.22c-0.65,0.51-0.76,1.43-0.27,2.08c-0.67-0.47-1.59-0.33-2.08,0.33
		c-0.49,0.66-0.35,1.59,0.29,2.08c-0.77-0.27-1.62,0.14-1.9,0.91c-0.28,0.77,0.12,1.62,0.88,1.91c-0.81-0.021-1.5,0.62-1.54,1.439
		c-0.03,0.82,0.59,1.511,1.4,1.561c-0.79,0.2-1.28,1.01-1.08,1.81c0.2,0.8,1,1.29,1.8,1.101c-0.7,0.43-0.92,1.34-0.5,2.05
		c0.42,0.7,1.33,0.93,2.03,0.529c-0.54,0.601-0.5,1.53,0.09,2.091c0.59,0.56,1.52,0.54,2.09-0.03c-0.36,0.72-0.09,1.6,0.62,1.99
		c0.71,0.399,1.61,0.149,2.01-0.551c-0.18,0.78,0.29,1.58,1.07,1.79c0.13,0.04,0.26,0.051,0.39,0.051c0.67,0,1.27-0.44,1.45-1.11
		c0.03-0.12,0.05-0.24,0.05-0.36c0.13,0.101,0.27,0.181,0.43,0.23c0.79,0.27,1.64-0.15,1.91-0.93c0.27-0.79-0.15-1.641-0.94-1.9
		c-0.05-0.021-0.11-0.04-0.16-0.05c0.75-0.08,1.33-0.721,1.33-1.49c0-0.76-0.57-1.39-1.3-1.49c0.73-0.09,1.3-0.72,1.3-1.479
		c0-0.761-0.56-1.391-1.29-1.49c0.73-0.1,1.29-0.73,1.29-1.49s-0.57-1.38-1.3-1.479c0.73-0.101,1.3-0.73,1.3-1.49
		c0-0.76-0.57-1.39-1.31-1.48c0.74-0.1,1.31-0.73,1.31-1.49c0-0.76-0.57-1.39-1.31-1.49C22.93,20.33,23.5,19.7,23.5,18.93z"/>
	<path fill="#FF1744" d="M37.09,28.58c0.81-0.061,1.43-0.75,1.4-1.561c-0.04-0.83-0.73-1.47-1.551-1.439
		c0.771-0.28,1.17-1.14,0.891-1.91c-0.28-0.77-1.13-1.18-1.9-0.91c0.64-0.5,0.771-1.42,0.29-2.08c-0.49-0.66-1.41-0.8-2.07-0.34
		c0.48-0.65,0.36-1.56-0.279-2.07c-0.641-0.5-1.561-0.4-2.08,0.22c0.31-0.74-0.03-1.61-0.78-1.94c-0.74-0.33-1.61-0.01-1.96,0.72
		c0.12-0.8-0.41-1.55-1.21-1.7c-0.01,0-0.01,0-0.021,0c-0.01,0-0.02,0-0.039-0.01c-0.811-0.14-1.591,0.4-1.73,1.22
		c-0.04,0.23-0.03,0.45,0.03,0.66c-0.03-0.01-0.05-0.01-0.08-0.01c-0.83,0-1.5,0.67-1.5,1.5c0,0.77,0.569,1.4,1.31,1.49
		c-0.74,0.1-1.31,0.72-1.31,1.49c0,0.76,0.569,1.39,1.31,1.49c-0.74,0.09-1.31,0.72-1.31,1.48c0,0.76,0.56,1.39,1.3,1.49
		c-0.74,0.1-1.3,0.72-1.3,1.479s0.56,1.391,1.29,1.49c-0.73,0.1-1.29,0.729-1.29,1.49c0,0.76,0.56,1.39,1.3,1.479
		c-0.74,0.101-1.3,0.73-1.3,1.49c0,0.77,0.58,1.41,1.33,1.49c-0.05,0.01-0.11,0.029-0.16,0.05c-0.79,0.26-1.21,1.12-0.94,1.9
		c0.27,0.779,1.12,1.199,1.91,0.939c0.16-0.06,0.3-0.14,0.43-0.24c0,0.12,0.021,0.24,0.051,0.36c0.18,0.67,0.779,1.11,1.439,1.11
		c0.13,0,0.26-0.021,0.391-0.051c0.79-0.21,1.26-1,1.08-1.79c0.409,0.7,1.3,0.95,2.01,0.551c0.71-0.391,0.979-1.28,0.609-2
		c0.57,0.58,1.5,0.6,2.101,0.04c0.59-0.561,0.63-1.5,0.08-2.101c0.71,0.41,1.609,0.181,2.029-0.52c0.431-0.71,0.2-1.62-0.489-2.05
		c0.79,0.189,1.6-0.301,1.8-1.101S37.88,28.78,37.09,28.58z"/>
</g>
<g>
	<path fill="#D50000" d="M18,6l1,6l2,1C21.065,11.438,18,6,18,6z"/>
	<path fill="#D50000" d="M30,6c0,0-3.065,5.438-3,7l2-1L30,6z"/>
	<path fill="#D50000" d="M27.559,11.325L27,13v0.24c7.945,1.214,14,7.139,14,14.26c0,6.82-5.543,12.585-12.999,14.095
		C26,42,23.917,39.87,23.917,39.87S22,42,19.999,41.595C12.543,40.085,7,34.32,7,27.5c0-7.121,6.055-13.046,14-14.26V13
		l-0.814-1.629C11.526,12.907,5,19.525,5,27.5C5,36.613,13.507,44,24,44s19-7.387,19-16.5C43,19.447,36.345,12.775,27.559,11.325z"
		/>
	<circle fill="#D50000" cx="22" cy="12" r="1"/>
	<circle fill="#D50000" cx="24" cy="12" r="1"/>
	<circle fill="#D50000" cx="26" cy="12" r="1"/>
	<circle fill="#D50000" cx="23" cy="10" r="1"/>
	<circle fill="#D50000" cx="25" cy="10" r="1"/>
	<circle fill="#D50000" cx="18.5" cy="21.5" r="1.5"/>
	<circle fill="#D50000" cx="14.5" cy="24.5" r="1.5"/>
	<circle fill="#D50000" cx="18.5" cy="27.5" r="1.5"/>
	<circle fill="#D50000" cx="18.5" cy="33.5" r="1.5"/>
	<circle fill="#D50000" cx="14.5" cy="30.5" r="1.5"/>
	<circle fill="#D50000" cx="29.5" cy="21.5" r="1.5"/>
	<circle fill="#D50000" cx="33.5" cy="24.5" r="1.5"/>
	<circle fill="#D50000" cx="29.5" cy="27.5" r="1.5"/>
	<circle fill="#D50000" cx="29.5" cy="33.5" r="1.5"/>
	<circle fill="#D50000" cx="33.5" cy="30.5" r="1.5"/>
</g>
</svg>
