<?xml version="1.0" encoding="utf-8"?>
<!-- Generator: Adobe Illustrator 19.1.1, SVG Export Plug-In . SVG Version: 6.00 Build 0)  -->
<svg version="1.1"  xmlns="http://www.w3.org/2000/svg" xmlns:xlink="http://www.w3.org/1999/xlink" x="0px" y="0px"
	 viewBox="0 0 48 48" enable-background="new 0 0 48 48" xml:space="preserve">
<path fill="#8D6E63" d="M19.8,43c-0.7,0-1.4,0-2.1-0.1c-4.6-0.5-8.4-2.7-10.5-6.2c-5.1-8.3,0.1-13,5.1-17.4c1.3-1.2,2.7-2.4,3.9-3.7
	c0.4-0.4,0.8-0.9,1.2-1.3c5.4-6,11.4-12.8,19.8-7c3.4,2.4,5.4,6,5.9,10.5c0.6,6.2-2,13.3-6.7,18.2l0,0C31.8,40.4,25.7,43,19.8,43z"
	/>
<path fill="#795548" d="M19.8,43c-0.7,0-1.4,0-2.1-0.1c-4.6-0.5-8.4-2.7-10.5-6.2c-1.4-2.3-2-4.2-2.1-6c9.7,8.8,33.6,2.2,37.9-13
	c0.6,6.2-2,13.3-6.7,18.2l0,0C31.8,40.4,25.7,43,19.8,43z"/>
<circle fill="#3E2723" cx="22.5" cy="38.5" r="1.5"/>
<path fill="#5D4037" d="M34,13c0.6,0,1,0.4,1,1s-0.4,1-1,1s-1-0.4-1-1S33.4,13,34,13z M34,24c0,0.6,0.4,1,1,1s1-0.4,1-1s-0.4-1-1-1
	S34,23.4,34,24z M26,17c0,0.6,0.4,1,1,1s1-0.4,1-1s-0.4-1-1-1S26,16.4,26,17z M14,32c0,0.6,0.4,1,1,1s1-0.4,1-1s-0.4-1-1-1
	S14,31.4,14,32z M20,28.5c0,0.8,0.7,1.5,1.5,1.5c0.8,0,1.5-0.7,1.5-1.5c0-0.8-0.7-1.5-1.5-1.5C20.7,27,20,27.7,20,28.5z"/>
</svg>
