<?xml version="1.0" encoding="utf-8"?>
<!-- Generator: Adobe Illustrator 19.1.1, SVG Export Plug-In . SVG Version: 6.00 Build 0)  -->
<svg version="1.1"  xmlns="http://www.w3.org/2000/svg" xmlns:xlink="http://www.w3.org/1999/xlink" x="0px" y="0px"
	 viewBox="0 0 48 48" enable-background="new 0 0 48 48" xml:space="preserve">
<g>
	<path fill="none" stroke="#8BC34A" stroke-width="2" stroke-linecap="round" d="M20.2,15.4c4,2.5,3.8,8.6,3.8,8.6"/>
	<path fill="#8BC34A" d="M20.2,7C15.4,4.6,7.9,7.3,6,8c2.8,1.7,2.4,10.9,7.5,12.6c3.6,1.2,6.4-0.2,6.7-5.2
		C24.2,13.1,23.6,8.7,20.2,7z"/>
	<path fill="none" stroke="#8BC34A" stroke-width="2" stroke-linecap="round" d="M29,16c0,0-5,0.9-5,8v3"/>
	<path fill="#8BC34A" d="M30.2,8.3C34.6,6.9,40.6,11,42,12c-2.6,1-4.3,9.3-8.9,9.9c-3.2,0.4-4.9-1.3-4.1-5.9
		C25.4,13.2,27.1,9.2,30.2,8.3z"/>
</g>
<g>
	<path fill="#689F38" d="M13.5,20.6C8.4,18.9,8.8,9.7,6,8c0,0,0,0,0,0c2.5,0.2,6.1,2.4,14.2,7.4c0,0,0,0,0,0
		C19.9,20.4,17.2,21.8,13.5,20.6z"/>
	<path fill="#689F38" d="M33.2,21.9c4.5-0.6,6.2-8.9,8.9-9.9c0,0,0,0,0,0c-2.1-0.3-5.4,0.9-13,4c0,0,0,0,0,0
		C27.4,20.5,29.9,22.4,33.2,21.9z"/>
</g>
<polygon fill="#E64A19" points="13,27 16,42 32,42 35,27 "/>
<path fill="#BF360C" d="M35,30H13c-0.6,0-1-0.5-1-1v-4h24v4C36,29.5,35.5,30,35,30z"/>
</svg>
