<?xml version="1.0" encoding="utf-8"?>
<!-- Generator: Adobe Illustrator 19.1.1, SVG Export Plug-In . SVG Version: 6.00 Build 0)  -->
<svg version="1.1"  xmlns="http://www.w3.org/2000/svg" xmlns:xlink="http://www.w3.org/1999/xlink" x="0px" y="0px"
	 viewBox="0 0 48 48" enable-background="new 0 0 48 48" xml:space="preserve">
<path fill="#FF4081" d="M24.6,28.4c0,0-0.9-1.3-1.8-2.2c-0.9-0.9-2.1-1.7-2.2-1.8c-5.2-3.9-9.7-2.5-12,0c-1.8,2-2.6,4-2.6,6
	c0,1.5,0.6,3,0.8,4.4c0.6,2.8,0.8,4.6-0.3,6.2l-1.2,1.2c-0.4,0.4-0.4,1,0,1.4C5.5,43.9,5.7,44,6,44s0.5-0.1,0.7-0.3l1.6-1.6l0,0
	c1.3-1.1,3.4-0.6,5.8-0.1c1.6,0.3,3.3,1,5.1,1c1.9,0,3.9-0.9,5.6-2.5C27.4,38.1,28.1,32.9,24.6,28.4z"/>
<path fill="#F8BBD0" d="M24.9,32.9c0.6-0.6,1-1.4,1.1-2.3c-0.3-0.7-0.8-1.4-1.3-2.2c0,0-0.9-1.3-1.8-2.2c-0.9-0.9-2.1-1.7-2.2-1.8
	c-0.8-0.6-1.5-1-2.2-1.4c-0.9,0.1-1.7,0.4-2.3,1c-1.8,1.8-1.3,5.3,1.1,7.7S23.1,34.7,24.9,32.9z"/>
<path fill="#4CAF50" d="M30,20c0,0,4.7-4,8.2-4c2.3,0,4.8,1.5,4.8,4.2c0,2.2-0.6,4.8-3.3,4.8c-2.6,0-2.6-2-2.8-2.8
	c-0.6,0.7-3.4,1.6-4.2-0.7c0,0-4.3,1.3-7.4,3.6L30,20z M27.8,21c3.1-3.6,0.5-12-4.2-12C20,9,19,10.8,19,12.4c0,1.4,1.4,3.1,3.4,2.8
	c-0.4,2.5,1.9,3.6,3.6,2.3c1,0.3-0.2,5.7-2.9,8.2L27.8,21z"/>
<path fill="#388E3C" d="M33.1,4C30.9,4,29,5.2,29,7c0,2.4,2.7,2.1,2.7,2.1s-2.3,2.8,1.7,3.6c-0.2,1-1.7,2.9-3.8,5.2l-9.3,9.3
	c-0.4,0.4-0.4,1,0,1.4c0.2,0.2,0.5,0.3,0.7,0.3s0.5-0.1,0.7-0.3l2.5-2.5c2.2-2,4.9-4.8,8.1-8.1c0,0,2.9-3,3.6-3.8
	C40.8,9.3,40,4,33.1,4z"/>
</svg>
