<?xml version="1.0" encoding="UTF-8" standalone="no"?>
<!-- Created with Inkscape (http://www.inkscape.org/) -->

<svg
   xmlns:dc="http://purl.org/dc/elements/1.1/"
   xmlns:cc="http://creativecommons.org/ns#"
   xmlns:rdf="http://www.w3.org/1999/02/22-rdf-syntax-ns#"
   xmlns:svg="http://www.w3.org/2000/svg"
   xmlns="http://www.w3.org/2000/svg"
   xmlns:sodipodi="http://sodipodi.sourceforge.net/DTD/sodipodi-0.dtd"
   xmlns:inkscape="http://www.inkscape.org/namespaces/inkscape"
   width="48"
   height="48"
   viewBox="0 0 48.000001 48.000001"
   id="svg5912"
   version="1.1"
   inkscape:version="0.91 r13725"
   sodipodi:docname="rosemary.svg">
  <defs
     id="defs5914" />
  <sodipodi:namedview
     id="base"
     pagecolor="#ffffff"
     bordercolor="#666666"
     borderopacity="1.0"
     inkscape:pageopacity="0.0"
     inkscape:pageshadow="2"
     inkscape:zoom="4"
     inkscape:cx="10.5"
     inkscape:cy="21.288363"
     inkscape:document-units="px"
     inkscape:current-layer="layer1"
     showgrid="false"
     units="px"
     inkscape:window-width="1199"
     inkscape:window-height="711"
     inkscape:window-x="0"
     inkscape:window-y="1"
     inkscape:window-maximized="0" />
  <metadata
     id="metadata5917">
    <rdf:RDF>
      <cc:Work
         rdf:about="">
        <dc:format>image/svg+xml</dc:format>
        <dc:type
           rdf:resource="http://purl.org/dc/dcmitype/StillImage" />
        <dc:title></dc:title>
      </cc:Work>
    </rdf:RDF>
  </metadata>
  <g
     inkscape:label="Layer 1"
     inkscape:groupmode="layer"
     id="layer1"
     transform="translate(0,-1004.3623)">
    <g
       transform="matrix(0.16026014,0,0,-0.16026014,-160.89245,1078.793)"
       id="g5362">
      <g
         transform="translate(1148.2063,211.1129)"
         id="g620">
        <path
           inkscape:connector-curvature="0"
           id="path622"
           style="fill:#0f7c3e;fill-opacity:1;fill-rule:nonzero;stroke:none"
           d="m 0,0 c -1.849,1.584 -3.863,2.961 -5.892,4.31 -1.049,0.621 -2.062,1.31 -3.15,1.869 -0.539,0.287 -1.06,0.618 -1.612,0.884 -0.549,0.273 -1.098,0.546 -1.649,0.819 -0.544,0.296 -1.116,0.516 -1.679,0.769 -0.567,0.239 -1.123,0.523 -1.7,0.741 -1.157,0.423 -2.305,0.931 -3.499,1.284 -2.362,0.841 -4.812,1.406 -7.325,1.934 -1.056,0.166 -2.334,0.523 -2.694,1.597 -0.277,0.828 0.233,1.726 1.009,2.18 0.386,0.227 0.819,0.368 1.269,0.464 0.225,0.048 0.455,0.085 0.686,0.115 0.231,0.019 0.462,0.025 0.692,0.034 3.452,0.226 6.938,-0.119 10.354,-0.811 1.719,-0.321 3.388,-0.841 5.059,-1.365 l 2.457,-0.929 c 0.817,-0.318 1.597,-0.719 2.395,-1.083 3.148,-1.542 6.138,-3.432 8.836,-5.687 2.684,-2.27 5.096,-4.86 7.146,-7.703 0.434,-0.637 0.849,-1.51 1.134,-2.406 0.245,-0.926 0.345,-1.882 0.246,-2.65 -0.196,-1.552 -1.256,-2.324 -3.517,-1.227 -0.408,0.197 -0.799,0.423 -1.174,0.673 -0.402,0.232 -0.789,0.487 -1.163,0.762 -0.374,0.276 -0.734,0.57 -1.083,0.879 -0.361,0.3 -0.736,0.594 -1.087,0.91 -0.353,0.313 -0.697,0.635 -1.03,0.963 C 2.676,-2.36 2.328,-2.051 1.984,-1.746 1.648,-1.432 1.317,-1.124 0.994,-0.823 0.653,-0.541 0.321,-0.266 0,0" />
      </g>
      <g
         transform="translate(1119.3944,226.1431)"
         id="g624">
        <path
           inkscape:connector-curvature="0"
           id="path626"
           style="fill:#7eb155;fill-opacity:1;fill-rule:nonzero;stroke:none"
           d="m 0,0 c -0.101,-0.67 0.267,-1.318 0.889,-1.615 0.211,-0.1 0.46,-0.173 0.945,-0.222 0.484,-0.03 1.203,-0.107 2.351,-0.202 9.869,-0.775 19.536,-5.145 26.891,-11.883 0.266,-0.205 0.738,-0.717 1.176,-1.143 0.433,-0.432 0.807,-0.805 0.807,-0.805 1.71,-1.844 3.626,-4.114 5.041,-6.322 2.175,-0.761 2.945,0.59 2.821,2.526 -0.068,0.108 -0.135,0.215 -0.199,0.317 -1.854,2.81 -4.005,5.463 -6.466,7.798 -2.462,2.331 -5.165,4.4 -8.028,6.171 C 19.964,-1.552 12.718,0.807 5.415,1.368 4.505,1.41 3.474,1.457 2.585,1.441 1.575,1.357 0.186,1.237 0,0" />
      </g>
      <g
         transform="translate(1120.896,225.8422)"
         id="g628">
        <path
           inkscape:connector-curvature="0"
           id="path630"
           style="fill:#d5e37d;fill-opacity:1;fill-rule:nonzero;stroke:none"
           d="m 0,0 c 0.147,-0.068 0.561,-0.107 1.082,-0.134 0.52,-0.062 1.147,-0.116 1.72,-0.16 1.366,-0.061 2.713,-0.327 4.068,-0.507 0.674,-0.121 1.34,-0.282 2.011,-0.421 l 1.004,-0.215 c 0.333,-0.081 0.661,-0.184 0.991,-0.275 l 1.979,-0.562 1.941,-0.688 c 0.323,-0.117 0.649,-0.224 0.969,-0.348 l 0.947,-0.406 c 0.63,-0.275 1.268,-0.53 1.891,-0.82 1.221,-0.632 2.478,-1.198 3.647,-1.929 0.588,-0.356 1.2,-0.674 1.77,-1.061 l 1.713,-1.153 c 2.233,-1.606 4.394,-3.335 6.304,-5.323 0.278,-0.277 0.564,-0.562 0.856,-0.854 0.273,-0.31 0.551,-0.627 0.834,-0.949 0.557,-0.65 1.169,-1.287 1.684,-2.005 0.525,-0.708 1.108,-1.378 1.586,-2.097 0.483,-0.714 0.961,-1.407 1.423,-2.06 0.241,0.108 0.435,0.275 0.586,0.492 -0.344,0.581 -0.694,1.153 -1,1.637 -1.872,2.857 -4.087,5.492 -6.569,7.851 -2.504,2.336 -5.277,4.377 -8.228,6.109 C 17.318,-2.381 10.605,-0.32 3.809,0.224 2.899,0.265 1.955,0.305 1.162,0.292 0.368,0.236 -0.227,0.102 0,0" />
      </g>
      <g
         transform="translate(1159.8673,219.1184)"
         id="g632">
        <path
           inkscape:connector-curvature="0"
           id="path634"
           style="fill:#0f7c3e;fill-opacity:1;fill-rule:nonzero;stroke:none"
           d="m 0,0 c 0.689,3.674 1.89,7.233 3.31,10.678 0.78,1.694 1.523,3.403 2.471,5.008 0.463,0.807 0.888,1.632 1.397,2.41 l 1.538,2.319 c 0.497,0.779 1.086,1.499 1.65,2.231 0.578,0.722 1.12,1.465 1.736,2.152 1.247,1.363 2.445,2.746 3.82,3.967 2.621,2.545 5.601,4.68 8.632,6.563 1.322,0.745 3.003,1.453 4.14,0.561 0.876,-0.687 1.01,-2.057 0.646,-3.079 -0.184,-0.512 -0.468,-0.96 -0.801,-1.371 -0.167,-0.206 -0.346,-0.403 -0.53,-0.594 -0.179,-0.201 -0.356,-0.401 -0.531,-0.599 L 25.482,28.057 23.611,25.769 C 23.289,25.4 22.997,25.004 22.71,24.604 L 21.836,23.419 C 21.547,23.023 21.244,22.64 20.964,22.238 L 20.155,21.012 C 19.033,19.411 18.07,17.706 17.071,16.036 L 15.693,13.459 C 15.232,12.603 14.855,11.703 14.423,10.833 12.8,7.302 11.396,3.673 10.315,-0.058 9.258,-3.794 8.471,-7.602 7.979,-11.468 c -0.084,-0.85 -0.38,-1.883 -0.829,-2.898 -0.39,-1.013 -0.913,-2.01 -1.553,-2.755 -1.276,-1.471 -2.969,-2.003 -4.732,0.99 -0.319,0.545 -0.6,1.129 -0.847,1.745 -0.211,0.615 -0.386,1.26 -0.53,1.928 -0.146,0.667 -0.261,1.357 -0.351,2.059 -0.071,0.701 -0.08,1.411 -0.089,2.128 -0.005,0.716 0.01,1.438 0.039,2.156 0.057,0.713 0.148,1.421 0.235,2.119 0.097,0.699 0.192,1.387 0.285,2.059 C -0.258,-1.273 -0.127,-0.625 0,0" />
      </g>
      <g
         transform="translate(1188.7737,253.8204)"
         id="g636">
        <path
           inkscape:connector-curvature="0"
           id="path638"
           style="fill:#7eb155;fill-opacity:1;fill-rule:nonzero;stroke:none"
           d="M 0,0 C -0.395,0.796 -1.247,1.207 -2.148,1 -2.453,0.931 -2.78,0.799 -3.345,0.446 -3.622,0.262 -3.983,0.051 -4.386,-0.286 -4.793,-0.62 -5.283,-1.035 -5.879,-1.552 c -10.253,-8.9 -17.538,-21.573 -20.384,-35.133 -0.128,-0.448 -0.256,-1.407 -0.406,-2.242 -0.141,-0.838 -0.262,-1.562 -0.262,-1.562 -0.463,-3.465 -0.822,-7.591 -0.513,-11.232 1.893,-2.395 3.658,-1.053 4.845,0.898 -0.001,0.149 -0.003,0.297 -0.004,0.438 0.012,3.937 0.348,7.916 1.141,11.821 0.797,3.901 1.948,7.732 3.412,11.416 3.235,8.019 8.196,15.436 14.326,21.459 0.784,0.724 1.67,1.547 2.393,2.31 C -0.459,-2.574 0.728,-1.471 0,0" />
      </g>
      <g
         transform="translate(1187.0363,252.9821)"
         id="g640">
        <path
           inkscape:connector-curvature="0"
           id="path642"
           style="fill:#d5e37d;fill-opacity:1;fill-rule:nonzero;stroke:none"
           d="m 0,0 c -0.202,-0.045 -0.658,-0.325 -1.206,-0.71 -0.523,-0.415 -1.137,-0.939 -1.695,-1.422 -1.362,-1.113 -2.559,-2.406 -3.827,-3.635 -0.608,-0.64 -1.18,-1.313 -1.773,-1.971 l -0.882,-0.994 c -0.285,-0.339 -0.549,-0.695 -0.825,-1.042 l -1.64,-2.101 -1.51,-2.201 c -0.25,-0.369 -0.509,-0.733 -0.75,-1.108 l -0.687,-1.148 c -0.453,-0.768 -0.928,-1.527 -1.362,-2.307 -0.807,-1.595 -1.693,-3.156 -2.373,-4.816 -0.35,-0.825 -0.75,-1.63 -1.058,-2.473 l -0.933,-2.525 c -1.141,-3.401 -2.108,-6.88 -2.635,-10.438 -0.084,-0.504 -0.171,-1.024 -0.261,-1.556 -0.057,-0.535 -0.115,-1.083 -0.174,-1.638 -0.104,-1.112 -0.266,-2.252 -0.272,-3.405 -0.017,-0.575 -0.035,-1.151 -0.052,-1.723 -0.016,-0.572 -0.041,-1.14 -0.001,-1.702 0.05,-1.122 0.107,-2.215 0.174,-3.247 0.34,-0.022 0.669,0.056 0.983,0.208 0.016,0.848 0.019,1.686 0.009,2.401 -0.003,4.269 0.433,8.54 1.277,12.734 0.881,4.188 2.187,8.283 3.849,12.226 3.291,7.909 8.251,15.093 14.323,21.093 0.837,0.775 1.702,1.579 2.391,2.303 C -0.189,-0.511 0.315,0.066 0,0" />
      </g>
      <g
         transform="translate(1145.2053,254.5157)"
         id="g644">
        <path
           inkscape:connector-curvature="0"
           id="path646"
           style="fill:#0f7c3e;fill-opacity:1;fill-rule:nonzero;stroke:none"
           d="m 0,0 c -6.66,7.864 -14.173,14.933 -22.702,21.279 -0.908,0.645 -1.928,1.562 -1.747,2.699 0.139,0.876 1.026,1.458 1.926,1.524 0.893,0.057 1.807,-0.233 2.642,-0.603 C -7.161,19.72 3.956,9.99 10.758,-2.107 c 0.366,-0.667 0.689,-1.567 0.883,-2.486 0.17,-0.935 0.202,-1.893 0.047,-2.664 C 11.381,-8.808 10.284,-9.588 8.032,-8.288 7.624,-8.054 7.234,-7.789 6.86,-7.498 6.47,-7.216 6.095,-6.909 5.734,-6.582 5.372,-6.255 5.025,-5.908 4.69,-5.546 4.347,-5.189 4,-4.827 3.673,-4.451 3.344,-4.075 3.026,-3.691 2.718,-3.302 2.399,-2.919 2.083,-2.539 1.773,-2.166 1.47,-1.784 1.173,-1.409 0.882,-1.042 0.58,-0.685 0.285,-0.336 0,0" />
      </g>
      <g
         transform="translate(1121.4948,279.0638)"
         id="g648">
        <path
           inkscape:connector-curvature="0"
           id="path650"
           style="fill:#7eb155;fill-opacity:1;fill-rule:nonzero;stroke:none"
           d="m 0,0 c -0.406,-0.562 -0.374,-1.318 0.062,-1.875 0.289,-0.395 0.81,-0.683 2.875,-1.869 8.903,-5.005 16.905,-11.956 23.254,-20.103 0.226,-0.263 0.639,-0.852 1.02,-1.358 0.376,-0.509 0.701,-0.948 0.701,-0.948 1.502,-2.132 3.197,-4.691 4.552,-7.045 2.172,-0.926 3.012,0.458 3.034,2.395 -0.061,0.111 -0.121,0.222 -0.179,0.328 -1.649,2.929 -3.482,5.789 -5.534,8.49 -2.054,2.699 -4.281,5.267 -6.647,7.67 C 17.963,-9.092 11.941,-4.598 5.513,-1.104 4.707,-0.685 3.792,-0.209 2.979,0.152 2.039,0.526 0.748,1.038 0,0" />
      </g>
      <g
         transform="translate(1122.717,278.107)"
         id="g652">
        <path
           inkscape:connector-curvature="0"
           id="path654"
           style="fill:#d5e37d;fill-opacity:1;fill-rule:nonzero;stroke:none"
           d="m 0,0 c 0.102,-0.129 0.461,-0.354 0.923,-0.616 0.453,-0.28 1.009,-0.597 1.519,-0.884 4.857,-2.712 9.405,-6.031 13.622,-9.729 4.18,-3.746 8.025,-7.898 11.341,-12.447 1.91,-2.574 4.032,-5.946 5.683,-8.753 0.25,0.097 0.457,0.259 0.624,0.473 -0.311,0.609 -0.628,1.21 -0.907,1.717 -1.69,3.016 -3.594,5.917 -5.689,8.678 -2.112,2.749 -4.42,5.348 -6.888,7.783 C 15.305,-8.889 9.649,-4.759 3.588,-1.448 2.77,-1.023 1.921,-0.584 1.186,-0.258 0.44,0.046 -0.159,0.197 0,0" />
      </g>
      <g
         transform="translate(1152.4166,284.0894)"
         id="g656">
        <path
           inkscape:connector-curvature="0"
           id="path658"
           style="fill:#0f7c3e;fill-opacity:1;fill-rule:nonzero;stroke:none"
           d="m 0,0 c 1.629,2.875 3.664,5.543 6.072,7.837 2.404,2.3 5.157,4.236 8.102,5.68 5.876,2.933 12.502,3.986 18.66,3.162 1.3,-0.167 2.812,-0.668 3.055,-1.878 0.188,-0.932 -0.48,-1.893 -1.251,-2.349 -0.389,-0.218 -0.807,-0.382 -1.236,-0.481 -0.428,-0.095 -0.869,-0.155 -1.3,-0.232 C 25.639,10.728 19.588,8.025 14.74,4.045 9.904,0.08 6.125,-5.252 3.924,-11.242 c -0.114,-0.33 -0.298,-0.683 -0.497,-1.052 -0.193,-0.37 -0.429,-0.75 -0.697,-1.121 -0.496,-0.749 -1.129,-1.469 -1.75,-1.989 -1.264,-1.011 -2.788,-1.266 -3.819,1.575 -0.72,2.07 -0.615,4.599 -0.003,7.05 C -2.235,-4.321 -1.113,-1.963 0,0" />
      </g>
      <g
         transform="translate(1187.7922,298.0052)"
         id="g660">
        <path
           inkscape:connector-curvature="0"
           id="path662"
           style="fill:#7eb155;fill-opacity:1;fill-rule:nonzero;stroke:none"
           d="m 0,0 c 0.179,0.735 -0.148,1.475 -0.86,1.845 -0.24,0.132 -0.53,0.204 -1.1,0.267 -0.571,0.07 -1.423,0.084 -2.785,0.009 -5.835,-0.39 -11.668,-2.218 -16.745,-5.401 -1.283,-0.775 -2.483,-1.682 -3.662,-2.614 -1.144,-0.974 -2.271,-1.976 -3.287,-3.086 -2.073,-2.181 -3.834,-4.646 -5.298,-7.265 -0.212,-0.342 -0.573,-1.097 -0.912,-1.75 -0.317,-0.664 -0.572,-1.246 -0.572,-1.246 -1.247,-2.762 -2.274,-6.218 -2.63,-9.356 0.624,-1.178 1.36,-1.512 2.093,-1.4 0.736,0.115 1.458,0.678 2.101,1.387 0.025,0.121 0.05,0.241 0.074,0.356 1.24,6.425 4.492,12.59 9.153,17.198 5.034,5.047 11.934,8.332 19.024,9.238 0.442,0.047 0.911,0.115 1.38,0.159 0.469,0.038 0.936,0.085 1.369,0.143 0.492,0.04 1.074,0.093 1.574,0.301 C -0.586,-1.03 -0.164,-0.678 0,0" />
      </g>
      <g
         transform="translate(1186.2074,298.4097)"
         id="g664">
        <path
           inkscape:connector-curvature="0"
           id="path666"
           style="fill:#d5e37d;fill-opacity:1;fill-rule:nonzero;stroke:none"
           d="m 0,0 c -0.157,0.076 -0.607,0.127 -1.176,0.158 -0.567,-0.001 -1.255,0 -1.881,-0.046 -5.957,-0.382 -11.891,-2.385 -16.961,-5.777 -5.077,-3.396 -9.161,-8.273 -11.78,-13.816 -0.756,-1.574 -1.453,-3.413 -1.984,-5.303 -0.532,-1.891 -0.876,-3.838 -1.012,-5.597 0.282,-0.068 0.569,-0.05 0.855,0.03 0.136,0.704 0.228,1.406 0.363,1.995 0.662,3.549 1.953,6.97 3.67,10.144 1.753,3.155 3.961,6.067 6.592,8.535 5.242,4.953 12.131,8.124 19.289,9.05 0.478,0.055 0.966,0.111 1.438,0.165 0.474,0.039 0.932,0.083 1.351,0.138 C -0.398,-0.246 0.242,-0.12 0,0" />
      </g>
      <g
         transform="translate(1135.78,297.861)"
         id="g668">
        <path
           inkscape:connector-curvature="0"
           id="path670"
           style="fill:#0f7c3e;fill-opacity:1;fill-rule:nonzero;stroke:none"
           d="m 0,0 c -3.927,2.321 -8.84,3.659 -14.049,5.133 -5.259,1.492 -10.464,3.243 -15.561,5.243 -1.073,0.421 -2.314,1.078 -2.384,2.229 -0.054,0.887 0.69,1.665 1.531,1.95 0.842,0.286 1.759,0.192 2.642,0.09 3.307,-0.38 6.607,-0.82 9.899,-1.321 3.294,-0.517 6.54,-1.01 9.97,-1.781 3.401,-0.775 6.939,-1.879 10.286,-3.716 3.376,-1.872 6.428,-4.479 8.604,-7.898 0.468,-0.754 0.886,-1.795 1.041,-2.876 0.093,-0.53 0.097,-1.082 0.077,-1.576 -0.05,-0.51 -0.135,-0.97 -0.286,-1.365 C 11.451,-6.686 10.963,-7.169 10.324,-7.232 10.005,-7.265 9.648,-7.197 9.26,-7.028 9.064,-6.944 8.866,-6.833 8.652,-6.701 8.43,-6.571 8.198,-6.417 7.961,-6.239 6.552,-5.225 5.334,-4.119 4.03,-3.002 3.377,-2.449 2.712,-1.898 2.037,-1.382 1.358,-0.871 0.667,-0.403 0,0" />
      </g>
      <g
         transform="translate(1104.3838,311.1984)"
         id="g672">
        <path
           inkscape:connector-curvature="0"
           id="path674"
           style="fill:#7eb155;fill-opacity:1;fill-rule:nonzero;stroke:none"
           d="m 0,0 c -0.271,-0.645 -0.073,-1.375 0.496,-1.818 0.385,-0.299 0.958,-0.526 3.331,-1.082 5.086,-1.193 10.261,-2.359 15.418,-3.518 2.563,-0.59 5.089,-1.229 7.502,-2.085 2.411,-0.858 4.713,-1.928 6.735,-3.354 0.267,-0.195 0.828,-0.597 1.291,-0.986 0.241,-0.184 0.442,-0.381 0.599,-0.514 0.154,-0.136 0.252,-0.222 0.252,-0.222 1.843,-1.67 3.544,-4.057 4.363,-6.422 0.927,-0.599 1.698,-0.734 2.289,-0.387 0.582,0.334 1.019,1.167 1.142,2.228 -0.047,0.137 -0.089,0.276 -0.144,0.4 -1.396,3.586 -3.933,6.52 -6.845,8.719 -1.457,1.102 -3.05,2.054 -4.662,2.812 -1.614,0.773 -3.268,1.4 -4.92,1.92 -3.608,1.144 -7.23,1.835 -10.743,2.56 C 12.571,-1.034 9.042,-0.321 5.54,0.387 4.669,0.56 3.683,0.757 2.82,0.875 1.842,1.008 0.501,1.191 0,0" />
      </g>
      <g
         transform="translate(1105.7938,310.5578)"
         id="g676">
        <path
           inkscape:connector-curvature="0"
           id="path678"
           style="fill:#d5e37d;fill-opacity:1;fill-rule:nonzero;stroke:none"
           d="m 0,0 c 0.261,-0.203 1.613,-0.54 2.757,-0.808 5.433,-1.28 10.931,-2.5 16.445,-3.758 2.75,-0.652 5.492,-1.397 8.12,-2.455 2.624,-1.053 5.139,-2.429 7.286,-4.278 1.218,-1.049 2.481,-2.361 3.487,-3.87 1.035,-1.491 1.773,-3.177 2.226,-4.758 0.27,0.03 0.512,0.132 0.727,0.304 -0.148,0.709 -0.357,1.398 -0.575,1.97 -1.332,3.424 -3.832,6.241 -6.726,8.341 -2.919,2.123 -6.263,3.492 -9.625,4.489 -3.374,1.002 -6.789,1.644 -10.157,2.343 C 10.587,-1.797 7.21,-1.115 3.838,-0.434 2.938,-0.254 2.004,-0.07 1.209,0.039 0.414,0.147 -0.201,0.156 0,0" />
      </g>
      <g
         transform="translate(1139.2766,340.5895)"
         id="g680">
        <path
           inkscape:connector-curvature="0"
           id="path682"
           style="fill:#0f7c3e;fill-opacity:1;fill-rule:nonzero;stroke:none"
           d="m 0,0 c 1.025,2.337 2.299,4.558 3.684,6.697 0.724,1.049 1.435,2.107 2.241,3.094 0.398,0.496 0.779,1.004 1.199,1.482 0.421,0.473 0.843,0.947 1.267,1.422 3.431,3.736 7.473,6.859 11.807,9.231 0.928,0.481 2.107,0.932 2.889,0.292 0.602,-0.494 0.671,-1.448 0.386,-2.158 C 23.194,19.34 22.604,18.84 22.079,18.297 20.04,16.358 18.16,14.274 16.364,12.146 14.57,10.013 12.885,7.8 11.341,5.494 9.791,3.194 8.335,0.834 7.017,-1.606 5.71,-4.05 4.516,-6.557 3.443,-9.125 3.218,-9.692 2.815,-10.346 2.317,-10.953 c -0.472,-0.613 -1.03,-1.183 -1.61,-1.552 -1.155,-0.73 -2.382,-0.697 -2.949,1.635 -0.103,0.424 -0.172,0.865 -0.213,1.318 -0.025,0.448 -0.02,0.908 0.008,1.375 0.029,0.468 0.08,0.943 0.151,1.421 0.079,0.476 0.194,0.948 0.314,1.423 0.121,0.474 0.256,0.948 0.4,1.417 0.156,0.463 0.331,0.918 0.503,1.367 0.177,0.448 0.352,0.889 0.523,1.319 C -0.366,-0.808 -0.18,-0.397 0,0" />
      </g>
      <g
         transform="translate(1162.4894,361.9777)"
         id="g684">
        <path
           inkscape:connector-curvature="0"
           id="path686"
           style="fill:#7eb155;fill-opacity:1;fill-rule:nonzero;stroke:none"
           d="M 0,0 C -0.261,0.561 -0.85,0.863 -1.48,0.741 -1.895,0.644 -2.428,0.446 -4.139,-0.917 -11.541,-6.694 -17.667,-14.458 -21.72,-23.14 c -0.15,-0.284 -0.4,-0.904 -0.638,-1.441 -0.232,-0.539 -0.433,-1.004 -0.433,-1.004 -0.906,-2.243 -1.889,-4.922 -2.446,-7.381 0.771,-1.978 2.214,-1.482 3.413,-0.397 0.03,0.101 0.059,0.201 0.088,0.297 0.816,2.67 1.788,5.319 2.972,7.877 1.185,2.557 2.535,5.039 4.024,7.414 3.266,5.166 7.348,9.894 11.94,13.889 0.581,0.484 1.238,1.033 1.777,1.545 C -0.387,-1.791 0.481,-1.037 0,0" />
      </g>
      <g
         transform="translate(1161.2545,361.428)"
         id="g688">
        <path
           inkscape:connector-curvature="0"
           id="path690"
           style="fill:#d5e37d;fill-opacity:1;fill-rule:nonzero;stroke:none"
           d="m 0,0 c -0.142,-0.027 -0.466,-0.212 -0.858,-0.469 -0.381,-0.271 -0.828,-0.614 -1.235,-0.932 -3.875,-3.007 -7.351,-6.601 -10.409,-10.538 -3.014,-3.972 -5.6,-8.312 -7.551,-12.93 -1.134,-2.616 -2.3,-5.98 -2.904,-8.807 0.222,-0.087 0.456,-0.105 0.696,-0.07 0.185,0.565 0.36,1.127 0.501,1.608 0.868,2.867 1.938,5.675 3.194,8.399 1.274,2.717 2.742,5.342 4.373,7.861 3.248,5.051 7.258,9.596 11.768,13.536 0.614,0.512 1.249,1.044 1.758,1.525 C -0.144,-0.354 0.221,0.04 0,0" />
      </g>
      <g
         transform="translate(1132.0979,372.3993)"
         id="g692">
        <path
           inkscape:connector-curvature="0"
           id="path694"
           style="fill:#0f7c3e;fill-opacity:1;fill-rule:nonzero;stroke:none"
           d="m 0,0 c 4.277,9.135 11.583,16.832 20.173,21.523 0.916,0.48 2.081,0.93 2.858,0.3 0.6,-0.486 0.672,-1.431 0.392,-2.135 -0.275,-0.715 -0.857,-1.215 -1.378,-1.754 -2.019,-1.931 -3.89,-3.995 -5.684,-6.1 C 14.57,9.724 12.879,7.539 11.318,5.268 9.752,3.001 8.273,0.678 6.92,-1.721 5.577,-4.125 4.338,-6.589 3.209,-9.112 2.971,-9.67 2.555,-10.309 2.046,-10.898 c -0.485,-0.596 -1.054,-1.146 -1.639,-1.496 -1.165,-0.691 -2.377,-0.621 -2.874,1.702 -0.09,0.422 -0.147,0.86 -0.175,1.309 -0.013,0.443 0.003,0.897 0.043,1.359 0.04,0.461 0.103,0.929 0.184,1.4 0.09,0.468 0.215,0.932 0.344,1.398 0.131,0.466 0.275,0.93 0.428,1.39 0.164,0.455 0.346,0.9 0.525,1.34 0.186,0.439 0.367,0.871 0.545,1.292 C -0.377,-0.791 -0.185,-0.389 0,0" />
      </g>
      <g
         transform="translate(1155.2577,393.4012)"
         id="g696">
        <path
           inkscape:connector-curvature="0"
           id="path698"
           style="fill:#7eb155;fill-opacity:1;fill-rule:nonzero;stroke:none"
           d="M 0,0 C -0.261,0.555 -0.846,0.851 -1.47,0.728 -1.881,0.631 -2.405,0.43 -4.097,-0.921 c -7.314,-5.73 -13.435,-13.336 -17.617,-21.844 -0.154,-0.278 -0.415,-0.885 -0.661,-1.412 -0.242,-0.528 -0.451,-0.984 -0.451,-0.984 -0.946,-2.198 -1.982,-4.824 -2.605,-7.239 0.709,-1.979 2.15,-1.533 3.368,-0.49 0.033,0.1 0.065,0.199 0.096,0.293 0.883,2.627 1.912,5.23 3.138,7.744 1.228,2.512 2.609,4.95 4.119,7.286 3.311,5.08 7.39,9.739 11.943,13.706 0.576,0.481 1.227,1.027 1.761,1.536 C -0.377,-1.776 0.482,-1.025 0,0" />
      </g>
      <g
         transform="translate(1154.0361,392.8513)"
         id="g700">
        <path
           inkscape:connector-curvature="0"
           id="path702"
           style="fill:#d5e37d;fill-opacity:1;fill-rule:nonzero;stroke:none"
           d="m 0,0 c -0.141,-0.027 -0.461,-0.212 -0.848,-0.468 -0.377,-0.27 -0.819,-0.61 -1.222,-0.925 -3.833,-2.987 -7.292,-6.527 -10.359,-10.397 -3.026,-3.903 -5.651,-8.159 -7.683,-12.689 -1.179,-2.567 -2.417,-5.867 -3.097,-8.649 0.216,-0.092 0.448,-0.117 0.687,-0.089 0.199,0.555 0.388,1.106 0.541,1.579 0.938,2.817 2.065,5.573 3.366,8.247 1.316,2.667 2.814,5.244 4.464,7.718 3.287,4.962 7.286,9.438 11.754,13.346 0.607,0.509 1.236,1.037 1.739,1.515 C -0.141,-0.352 0.219,0.04 0,0" />
      </g>
      <g
         transform="translate(1124.5289,389.4243)"
         id="g704">
        <path
           inkscape:connector-curvature="0"
           id="path706"
           style="fill:#0f7c3e;fill-opacity:1;fill-rule:nonzero;stroke:none"
           d="m 0,0 c -2.254,14.28 -7.449,28.05 -15.415,40.525 -0.873,1.282 -1.793,2.931 -1.232,4.045 0.433,0.859 1.656,0.918 2.739,0.411 0.539,-0.253 1.049,-0.611 1.538,-1.019 0.245,-0.204 0.484,-0.421 0.719,-0.643 0.225,-0.23 0.441,-0.47 0.656,-0.706 C 2.171,28.595 9.56,8.805 8.623,-10.629 c -0.067,-1.064 -0.307,-2.369 -0.671,-3.6 -0.42,-1.23 -0.981,-2.383 -1.583,-3.174 -1.213,-1.593 -2.631,-1.68 -3.772,1.554 -0.207,0.584 -0.379,1.192 -0.522,1.817 -0.179,0.628 -0.33,1.274 -0.456,1.934 -0.127,0.659 -0.229,1.332 -0.312,2.012 C 1.206,-9.405 1.089,-8.715 1.006,-8.023 0.919,-7.331 0.847,-6.636 0.787,-5.945 0.698,-5.253 0.61,-4.567 0.523,-3.89 0.448,-3.212 0.373,-2.544 0.301,-1.892 0.198,-1.243 0.097,-0.61 0,0" />
      </g>
      <g
         transform="translate(1108.9274,434.1364)"
         id="g708">
        <path
           inkscape:connector-curvature="0"
           id="path710"
           style="fill:#7eb155;fill-opacity:1;fill-rule:nonzero;stroke:none"
           d="m 0,0 c -0.65,-0.347 -0.845,-1.186 -0.501,-2.07 0.117,-0.3 0.293,-0.624 0.711,-1.188 0.203,-0.288 0.493,-0.613 0.817,-1.067 0.329,-0.451 0.736,-0.993 1.243,-1.656 8.696,-11.378 14.265,-25.406 15.998,-39.783 0.089,-0.478 0.143,-1.487 0.229,-2.37 0.076,-0.884 0.142,-1.648 0.142,-1.648 0.203,-3.649 0.28,-7.956 -0.041,-11.752 1.3,-2.734 2.866,-1.741 4.069,0.524 0.016,0.177 0.031,0.353 0.047,0.521 0.343,4.699 0.332,9.469 -0.172,14.196 -0.508,4.725 -1.41,9.406 -2.674,13.957 -2.798,9.912 -7.552,19.381 -13.779,27.53 C 5.291,-3.812 4.386,-2.686 3.56,-1.753 2.566,-0.743 1.2,0.642 0,0" />
      </g>
      <g
         transform="translate(1110.0756,432.3142)"
         id="g712">
        <path
           inkscape:connector-curvature="0"
           id="path714"
           style="fill:#d5e37d;fill-opacity:1;fill-rule:nonzero;stroke:none"
           d="m 0,0 c 0.081,-0.206 0.436,-0.68 0.9,-1.261 0.434,-0.606 0.975,-1.322 1.473,-1.974 1.224,-1.518 2.264,-3.175 3.383,-4.777 0.531,-0.82 1.023,-1.667 1.537,-2.499 l 0.764,-1.254 c 0.245,-0.423 0.469,-0.86 0.704,-1.29 l 1.398,-2.587 1.264,-2.659 c 0.208,-0.445 0.427,-0.885 0.628,-1.333 l 0.563,-1.362 c 0.371,-0.91 0.764,-1.812 1.118,-2.729 0.642,-1.86 1.368,-3.692 1.889,-5.594 0.271,-0.946 0.593,-1.879 0.823,-2.837 l 0.703,-2.872 c 0.84,-3.849 1.522,-7.746 1.796,-11.683 0.049,-0.559 0.098,-1.136 0.149,-1.725 0.02,-0.591 0.041,-1.195 0.062,-1.807 0.029,-1.226 0.117,-2.486 0.063,-3.75 -0.01,-0.631 -0.02,-1.264 -0.03,-1.892 -0.009,-0.629 -0.006,-1.255 -0.06,-1.87 -0.071,-1.233 -0.141,-2.435 -0.206,-3.575 0.274,-0.075 0.551,-0.04 0.824,0.085 0.106,0.953 0.2,1.899 0.271,2.708 0.367,4.832 0.285,9.704 -0.227,14.535 -0.548,4.828 -1.544,9.603 -2.931,14.259 -2.738,9.33 -7.289,18.098 -13.144,25.804 -0.81,1.008 -1.651,2.051 -2.397,2.894 C 0.535,-0.231 -0.128,0.315 0,0" />
      </g>
      <g
         transform="translate(1156.2523,180.3181)"
         id="g716">
        <path
           inkscape:connector-curvature="0"
           id="path718"
           style="fill:#d5e37d;fill-opacity:1;fill-rule:nonzero;stroke:none"
           d="m 0,0 c 0,0 0.068,1.006 0.194,2.893 0.063,0.944 0.142,2.108 0.233,3.476 0.035,0.674 0.121,1.44 0.123,2.181 0.016,0.754 0.033,1.554 0.051,2.399 0.019,0.846 0.039,1.738 0.06,2.673 0.01,0.939 0.073,1.903 0.032,2.948 -0.039,2.076 -0.082,4.322 -0.127,6.721 -0.134,2.401 -0.277,4.957 -0.427,7.652 -0.221,2.694 -0.492,5.527 -0.769,8.485 -0.181,1.477 -0.366,2.985 -0.554,4.522 -0.193,1.537 -0.362,3.105 -0.619,4.694 -0.481,3.18 -0.942,6.473 -1.563,9.847 -1.132,6.758 -2.609,13.861 -4.197,21.208 -3.23,14.689 -7.204,30.322 -10.87,46.097 -1.804,7.875 -3.499,15.854 -4.962,23.715 -0.341,1.972 -0.681,3.937 -1.019,5.892 -0.164,0.978 -0.344,1.95 -0.494,2.927 -0.145,0.977 -0.289,1.951 -0.433,2.922 -0.277,1.945 -0.599,3.868 -0.833,5.794 -0.234,1.926 -0.467,3.837 -0.697,5.733 -0.811,7.597 -1.407,14.972 -1.497,21.994 -0.215,7.015 0.12,13.661 0.551,19.775 0.128,1.528 0.325,3.02 0.479,4.479 0.169,1.458 0.308,2.885 0.492,4.271 0.458,2.759 0.893,5.377 1.301,7.837 0.542,2.434 1.05,4.713 1.519,6.82 0.207,1.059 0.541,2.044 0.799,2.998 0.272,0.951 0.532,1.859 0.778,2.72 0.246,0.86 0.479,1.674 0.699,2.44 0.2,0.772 0.498,1.463 0.715,2.123 0.466,1.311 0.861,2.426 1.182,3.329 0.642,1.807 0.985,2.77 0.985,2.77 l 3.247,-1.223 c 0,0 -0.308,-0.946 -0.886,-2.72 -0.288,-0.886 -0.644,-1.979 -1.063,-3.264 -0.195,-0.647 -0.468,-1.322 -0.642,-2.079 -0.193,-0.75 -0.398,-1.548 -0.616,-2.391 -0.217,-0.842 -0.445,-1.729 -0.686,-2.66 -0.226,-0.933 -0.527,-1.894 -0.7,-2.931 -0.402,-2.057 -0.837,-4.283 -1.302,-6.661 -0.333,-2.4 -0.689,-4.955 -1.063,-7.647 -0.144,-1.352 -0.242,-2.746 -0.369,-4.167 -0.113,-1.424 -0.267,-2.876 -0.353,-4.366 -0.26,-5.965 -0.42,-12.438 -0.029,-19.283 0.265,-6.844 1.039,-14.046 2.028,-21.466 0.274,-1.852 0.551,-3.72 0.83,-5.602 0.279,-1.881 0.646,-3.766 0.967,-5.667 0.167,-0.95 0.334,-1.903 0.501,-2.859 0.172,-0.954 0.375,-1.908 0.561,-2.866 0.384,-1.914 0.768,-3.838 1.155,-5.77 1.647,-7.718 3.51,-15.481 5.514,-23.287 C -7.725,111.862 -3.336,96.317 0.323,81.541 2.126,74.146 3.816,66.968 5.158,60.079 5.882,56.649 6.446,53.274 7.026,50.018 7.332,48.393 7.55,46.777 7.791,45.196 8.027,43.613 8.258,42.061 8.485,40.54 c 0.37,-3.059 0.727,-5.992 1.03,-8.787 0.23,-2.808 0.449,-5.472 0.654,-7.975 0.114,-2.515 0.221,-4.869 0.319,-7.045 0.07,-1.081 0.034,-2.159 0.05,-3.169 0.003,-1.016 0.006,-1.984 0.009,-2.903 C 10.549,9.742 10.551,8.872 10.553,8.053 10.567,7.221 10.504,6.519 10.486,5.823 10.43,4.453 10.383,3.288 10.344,2.343 10.267,0.454 9.86,-12.274 9.86,-12.274 Z" />
      </g>
      <g
         transform="translate(1166.7992,190.9795)"
         id="g720">
        <path
           inkscape:connector-curvature="0"
           id="path722"
           style="fill:#b3bd57;fill-opacity:1;fill-rule:nonzero;stroke:none"
           d="m 0,0 c -0.003,0.919 -0.006,1.887 -0.009,2.902 -0.016,1.011 0.02,2.089 -0.049,3.169 -0.099,2.177 -0.206,4.531 -0.32,7.046 -0.205,2.503 -0.424,5.166 -0.654,7.974 -0.303,2.796 -0.66,5.729 -1.03,8.787 -0.227,1.521 -0.458,3.074 -0.694,4.656 -0.241,1.581 -0.459,3.198 -0.765,4.822 -0.58,3.257 -1.144,6.632 -1.868,10.061 -1.342,6.889 -3.032,14.068 -4.835,21.463 -3.659,14.776 -8.048,30.32 -12.097,45.885 -2.004,7.806 -3.867,15.569 -5.514,23.287 -0.386,1.931 -0.771,3.855 -1.154,5.77 -0.187,0.958 -0.39,1.911 -0.562,2.866 -0.167,0.955 -0.334,1.908 -0.5,2.858 -0.322,1.901 -0.689,3.787 -0.968,5.668 -0.279,1.881 -0.556,3.749 -0.83,5.602 -0.989,7.419 -1.763,14.621 -2.028,21.466 -0.391,6.845 -0.231,13.317 0.03,19.283 0.085,1.489 0.24,2.942 0.352,4.365 0.127,1.422 0.225,2.815 0.369,4.167 0.374,2.693 0.73,5.247 1.063,7.648 0.465,2.378 0.9,4.603 1.302,6.661 0.173,1.037 0.474,1.997 0.701,2.931 0.24,0.931 0.468,1.818 0.686,2.66 0.217,0.843 0.422,1.64 0.615,2.391 0.174,0.757 0.447,1.432 0.642,2.078 0.419,1.285 0.775,2.378 1.063,3.264 0.578,1.774 0.886,2.72 0.886,2.72 l -3.247,1.224 c 0,0 -0.343,-0.963 -0.985,-2.77 -0.32,-0.904 -0.716,-2.019 -1.181,-3.33 -0.218,-0.66 -0.516,-1.35 -0.716,-2.122 -0.219,-0.766 -0.453,-1.581 -0.699,-2.441 -0.246,-0.861 -0.505,-1.768 -0.777,-2.719 -0.259,-0.955 -0.593,-1.94 -0.8,-2.999 -0.417,-1.87 -0.865,-3.884 -1.34,-6.015 -0.306,-2.2 -0.628,-4.515 -0.966,-6.948 -0.147,-1.378 -0.246,-2.799 -0.376,-4.248 -0.115,-1.451 -0.272,-2.932 -0.359,-4.45 -0.266,-6.081 -0.429,-12.678 -0.031,-19.656 0.271,-6.977 1.059,-14.318 2.067,-21.881 0.28,-1.889 0.562,-3.793 0.847,-5.711 0.284,-1.917 0.658,-3.839 0.986,-5.777 0.17,-0.968 0.34,-1.939 0.51,-2.913 0.176,-0.973 0.383,-1.945 0.573,-2.922 0.39,-1.951 0.782,-3.912 1.177,-5.881 1.678,-7.867 3.577,-15.781 5.62,-23.738 4.127,-15.865 8.602,-31.71 12.331,-46.772 1.838,-7.538 3.561,-14.855 4.929,-21.878 0.737,-3.496 1.313,-6.935 1.903,-10.255 0.313,-1.656 0.535,-3.304 0.78,-4.915 0.241,-1.613 0.477,-3.196 0.708,-4.746 0.377,-3.118 0.741,-6.108 1.049,-8.958 0.235,-2.862 0.458,-5.577 0.668,-8.128 0.116,-2.564 0.225,-4.963 0.325,-7.182 0.071,-1.101 0.035,-2.2 0.05,-3.23 0.004,-1.035 0.007,-2.022 0.01,-2.959 0.002,-0.937 0.004,-1.824 0.006,-2.658 0.014,-0.848 -0.05,-1.564 -0.068,-2.273 -0.057,-1.397 -0.106,-2.585 -0.145,-3.548 -0.042,-1.034 -0.181,-5.25 -0.301,-8.935 l 2.933,-3.652 c 0,0 0.407,12.728 0.484,14.618 0.039,0.945 0.086,2.11 0.142,3.48 0.018,0.695 0.081,1.398 0.067,2.23 C 0.004,-1.789 0.002,-0.919 0,0" />
      </g>
      <g
         transform="translate(1167.9215,213.3689)"
         id="g724">
        <path
           inkscape:connector-curvature="0"
           id="path726"
           style="fill:#0f7c3e;fill-opacity:1;fill-rule:nonzero;stroke:none"
           d="m 0,0 c 2.687,2.993 5.724,5.655 8.891,8.121 1.625,1.181 3.231,2.386 4.953,3.417 0.855,0.524 1.688,1.078 2.567,1.558 l 2.641,1.421 c 0.872,0.484 1.792,0.881 2.696,1.299 0.912,0.403 1.804,0.838 2.733,1.196 1.864,0.703 3.699,1.437 5.609,1.968 3.762,1.195 7.649,1.91 11.489,2.391 1.636,0.148 3.614,0.101 4.359,-1.291 0.574,-1.073 0.102,-2.495 -0.725,-3.352 -0.416,-0.429 -0.905,-0.749 -1.428,-1.012 -0.261,-0.132 -0.53,-0.249 -0.803,-0.358 C 42.71,15.24 42.44,15.122 42.172,15.006 38.105,13.404 34.21,11.444 30.431,9.348 28.527,8.323 26.707,7.153 24.871,6.028 L 22.183,4.234 C 21.285,3.64 20.435,2.975 19.555,2.358 16.094,-0.195 12.758,-2.912 9.616,-5.849 6.491,-8.8 3.531,-11.927 0.752,-15.23 c -0.593,-0.737 -1.491,-1.52 -2.512,-2.189 -0.979,-0.697 -2.067,-1.291 -3.102,-1.58 -2.056,-0.565 -3.89,0.018 -3.678,3.779 0.04,0.683 0.137,1.378 0.282,2.078 0.173,0.683 0.394,1.371 0.655,2.06 0.261,0.689 0.562,1.379 0.892,2.066 0.343,0.677 0.743,1.33 1.148,1.987 0.409,0.654 0.838,1.3 1.278,1.936 0.458,0.62 0.942,1.216 1.418,1.806 0.484,0.584 0.96,1.16 1.426,1.722 C -0.947,-1.028 -0.465,-0.505 0,0" />
      </g>
      <g
         transform="translate(1213.5461,232.1734)"
         id="g728">
        <path
           inkscape:connector-curvature="0"
           id="path730"
           style="fill:#7eb155;fill-opacity:1;fill-rule:nonzero;stroke:none"
           d="M 0,0 C -0.042,0.968 -0.712,1.755 -1.698,1.952 -2.031,2.019 -2.414,2.035 -3.131,1.936 -3.854,1.857 -4.891,1.593 -6.537,1.113 c -14.152,-4.075 -27.441,-12.302 -37.735,-23.256 -0.366,-0.346 -1.036,-1.153 -1.651,-1.839 -0.608,-0.692 -1.133,-1.289 -1.133,-1.289 -2.426,-2.917 -5.163,-6.467 -7.105,-9.915 0.26,-3.314 2.655,-3.205 4.932,-2.137 0.09,0.137 0.179,0.273 0.265,0.403 2.42,3.604 5.099,7.085 8.088,10.294 2.991,3.206 6.219,6.192 9.622,8.92 7.448,5.917 16,10.604 24.935,13.731 1.119,0.361 2.386,0.773 3.462,1.199 C -1.617,-2.36 0.076,-1.787 0,0" />
      </g>
      <g
         transform="translate(1211.4365,232.1125)"
         id="g732">
        <path
           inkscape:connector-curvature="0"
           id="path734"
           style="fill:#d5e37d;fill-opacity:1;fill-rule:nonzero;stroke:none"
           d="m 0,0 c -0.222,0.045 -0.8,-0.03 -1.519,-0.168 -0.71,-0.172 -1.558,-0.409 -2.333,-0.632 -1.856,-0.486 -3.65,-1.179 -5.476,-1.795 -0.902,-0.339 -1.789,-0.718 -2.686,-1.077 l -1.343,-0.547 c -0.444,-0.191 -0.878,-0.406 -1.317,-0.608 l -2.633,-1.235 -2.571,-1.368 c -0.428,-0.231 -0.86,-0.454 -1.284,-0.692 l -1.252,-0.752 c -0.831,-0.505 -1.676,-0.994 -2.498,-1.517 -1.61,-1.099 -3.267,-2.139 -4.805,-3.347 -0.775,-0.596 -1.58,-1.154 -2.33,-1.782 l -2.256,-1.88 c -2.942,-2.579 -5.782,-5.298 -8.324,-8.284 -0.368,-0.419 -0.747,-0.85 -1.135,-1.292 -0.366,-0.459 -0.74,-0.929 -1.119,-1.406 -0.749,-0.961 -1.557,-1.92 -2.255,-2.965 -0.359,-0.514 -0.718,-1.029 -1.076,-1.541 -0.355,-0.513 -0.715,-1.018 -1.023,-1.549 -0.638,-1.046 -1.251,-2.071 -1.818,-3.046 0.293,-0.228 0.636,-0.36 1.013,-0.416 0.531,0.762 1.045,1.522 1.473,2.177 2.595,3.889 5.509,7.568 8.695,10.999 3.212,3.409 6.704,6.552 10.408,9.418 7.391,5.765 15.769,10.226 24.583,13.334 1.188,0.384 2.417,0.784 3.435,1.186 C -0.417,-0.426 0.343,-0.074 0,0" />
      </g>
      <g
         transform="translate(1132.4877,399.0785)"
         id="g736">
        <path
           inkscape:connector-curvature="0"
           id="path738"
           style="fill:#0f7c3e;fill-opacity:1;fill-rule:nonzero;stroke:none"
           d="m 0,0 c 1.497,3.461 3.299,6.785 5.234,10.017 1.009,1.592 1.997,3.196 3.107,4.718 0.549,0.764 1.075,1.543 1.652,2.286 l 1.736,2.219 c 0.57,0.744 1.196,1.446 1.806,2.157 0.618,0.704 1.215,1.423 1.858,2.103 1.293,1.355 2.559,2.721 3.933,3.983 2.67,2.59 5.566,4.922 8.514,7.105 1.27,0.892 2.879,1.823 3.906,1.257 0.792,-0.436 0.833,-1.629 0.397,-2.632 -0.429,-1.015 -1.274,-1.848 -2.027,-2.722 -2.92,-3.166 -5.63,-6.508 -8.228,-9.915 C 19.294,17.165 16.846,13.65 14.589,10.018 12.325,6.392 10.19,2.687 8.242,-1.118 6.307,-4.93 4.527,-8.82 2.909,-12.787 2.568,-13.662 2.005,-14.688 1.34,-15.644 c -0.632,-0.966 -1.356,-1.869 -2.077,-2.464 -1.436,-1.185 -2.841,-1.183 -3.217,2.192 -0.067,0.612 -0.096,1.25 -0.09,1.906 0.027,0.649 0.087,1.317 0.177,1.996 0.089,0.68 0.205,1.371 0.344,2.069 0.15,0.693 0.343,1.385 0.539,2.08 0.2,0.695 0.415,1.389 0.639,2.078 0.24,0.682 0.501,1.353 0.759,2.015 0.263,0.661 0.522,1.313 0.776,1.948 C -0.533,-1.199 -0.261,-0.589 0,0" />
      </g>
      <g
         transform="translate(1164.3586,433.9073)"
         id="g740">
        <path
           inkscape:connector-curvature="0"
           id="path742"
           style="fill:#7eb155;fill-opacity:1;fill-rule:nonzero;stroke:none"
           d="m 0,0 c -0.322,0.633 -1.105,0.831 -1.96,0.483 -0.289,-0.118 -0.603,-0.294 -1.152,-0.711 -0.56,-0.406 -1.321,-1.089 -2.512,-2.216 -10.243,-9.638 -18.748,-21.601 -24.677,-34.652 -0.217,-0.428 -0.589,-1.355 -0.939,-2.161 -0.344,-0.808 -0.64,-1.506 -0.64,-1.506 -1.351,-3.357 -2.838,-7.354 -3.778,-11.003 0.651,-2.855 2.373,-2.056 3.911,-0.324 0.048,0.154 0.096,0.307 0.142,0.453 1.302,4.067 2.803,8.108 4.572,12.037 1.771,3.928 3.752,7.762 5.914,11.461 4.737,8.051 10.545,15.591 17.051,22.242 0.822,0.812 1.753,1.733 2.521,2.567 C -0.642,-2.418 0.594,-1.169 0,0" />
      </g>
      <g
         transform="translate(1162.6516,432.8169)"
         id="g744">
        <path
           inkscape:connector-curvature="0"
           id="path746"
           style="fill:#d5e37d;fill-opacity:1;fill-rule:nonzero;stroke:none"
           d="M 0,0 C -0.194,-0.079 -0.644,-0.417 -1.189,-0.866 -1.718,-1.333 -2.342,-1.913 -2.91,-2.447 -4.28,-3.694 -5.549,-5.05 -6.863,-6.369 -7.503,-7.043 -8.122,-7.74 -8.754,-8.426 l -0.943,-1.034 -0.908,-1.066 -1.812,-2.143 -1.734,-2.212 -0.865,-1.11 -0.826,-1.14 c -0.548,-0.763 -1.109,-1.517 -1.647,-2.289 -4.259,-6.199 -7.964,-12.833 -10.879,-19.806 -1.687,-3.954 -3.48,-9.006 -4.529,-13.238 0.246,-0.113 0.514,-0.125 0.797,-0.056 0.287,0.855 0.561,1.702 0.786,2.429 1.376,4.327 3.003,8.579 4.867,12.728 1.885,4.14 4.018,8.168 6.361,12.067 4.667,7.816 10.322,15.025 16.659,21.526 0.862,0.852 1.754,1.735 2.472,2.514 C -0.217,-0.498 0.301,0.119 0,0" />
      </g>
      <g
         transform="translate(1122.9989,359.2757)"
         id="g748">
        <path
           inkscape:connector-curvature="0"
           id="path750"
           style="fill:#0f7c3e;fill-opacity:1;fill-rule:nonzero;stroke:none"
           d="m 0,0 c -4.697,9.907 -10.151,19.396 -16.501,28.685 -0.683,0.963 -1.382,2.233 -0.803,3.298 0.446,0.82 1.532,1.088 2.448,0.844 0.907,-0.249 1.705,-0.855 2.41,-1.502 10.833,-9.453 18.998,-22.317 22.885,-36.29 0.207,-0.769 0.31,-1.762 0.279,-2.747 -0.056,-0.993 -0.254,-1.978 -0.6,-2.73 -0.692,-1.512 -2.002,-2.064 -4.001,-0.177 -0.362,0.341 -0.699,0.71 -1.013,1.103 -0.331,0.388 -0.639,0.799 -0.929,1.227 -0.29,0.429 -0.56,0.875 -0.814,1.334 C 3.099,-6.499 2.836,-6.036 2.597,-5.563 2.355,-5.09 2.127,-4.611 1.91,-4.13 1.68,-3.654 1.453,-3.179 1.24,-2.708 1.03,-2.234 0.823,-1.768 0.622,-1.313 0.409,-0.863 0.201,-0.424 0,0" />
      </g>
      <g
         transform="translate(1106.6294,391.5669)"
         id="g752">
        <path
           inkscape:connector-curvature="0"
           id="path754"
           style="fill:#7eb155;fill-opacity:1;fill-rule:nonzero;stroke:none"
           d="m 0,0 c -0.6,-0.417 -0.834,-1.179 -0.592,-1.886 0.153,-0.491 0.562,-0.969 2.227,-2.858 7.199,-8.046 13.153,-17.462 17.452,-27.508 0.158,-0.331 0.428,-1.043 0.683,-1.662 0.251,-0.621 0.467,-1.157 0.467,-1.157 0.984,-2.578 2.069,-5.637 2.903,-8.387 2.006,-1.479 3.198,-0.245 3.691,1.725 -0.035,0.128 -0.07,0.256 -0.103,0.378 -0.973,3.386 -2.115,6.757 -3.479,10.041 -1.364,3.283 -2.907,6.495 -4.603,9.597 -3.717,6.754 -8.334,13.109 -13.547,18.736 -0.659,0.689 -1.405,1.47 -2.09,2.104 C 2.208,-0.182 1.108,0.77 0,0" />
      </g>
      <g
         transform="translate(1107.5106,390.1918)"
         id="g756">
        <path
           inkscape:connector-curvature="0"
           id="path758"
           style="fill:#d5e37d;fill-opacity:1;fill-rule:nonzero;stroke:none"
           d="m 0,0 c 0.057,-0.164 0.335,-0.513 0.704,-0.933 0.356,-0.433 0.802,-0.939 1.213,-1.398 3.918,-4.358 7.422,-9.131 10.563,-14.143 3.096,-5.041 5.815,-10.34 8.005,-15.855 1.269,-3.132 2.594,-7.117 3.623,-10.391 0.28,0.041 0.531,0.158 0.753,0.337 -0.172,0.7 -0.351,1.39 -0.514,1.977 -0.998,3.497 -2.2,6.941 -3.596,10.309 -1.413,3.361 -3.027,6.639 -4.815,9.817 C 12.374,-13.911 8.005,-8.006 3.077,-2.668 2.406,-1.967 1.71,-1.241 1.089,-0.667 0.452,-0.107 -0.089,0.251 0,0" />
      </g>
      <g
         transform="translate(1128.3607,325.0614)"
         id="g760">
        <path
           inkscape:connector-curvature="0"
           id="path762"
           style="fill:#0f7c3e;fill-opacity:1;fill-rule:nonzero;stroke:none"
           d="m 0,0 c -5.508,6.14 -11.175,12.097 -17.127,18.029 -0.632,0.615 -1.316,1.452 -1.031,2.305 0.22,0.657 0.98,0.996 1.677,0.942 0.694,-0.057 1.348,-0.394 1.95,-0.761 C -5.399,15.177 2.613,7.647 8.501,-1.22 8.822,-1.709 9.12,-2.379 9.323,-3.076 9.516,-3.781 9.61,-4.516 9.545,-5.126 9.418,-6.35 8.64,-7.067 6.776,-6.21 4.088,-4.972 1.901,-2.096 0,0" />
      </g>
      <g
         transform="translate(1110.8461,345.744)"
         id="g764">
        <path
           inkscape:connector-curvature="0"
           id="path766"
           style="fill:#7eb155;fill-opacity:1;fill-rule:nonzero;stroke:none"
           d="m 0,0 c -0.384,-0.384 -0.455,-0.97 -0.183,-1.455 0.18,-0.336 0.537,-0.642 2.025,-1.786 6.409,-4.869 12.372,-10.582 17.601,-16.842 0.346,-0.424 1.437,-1.761 1.437,-1.761 1.276,-1.618 2.744,-3.544 4.004,-5.28 1.765,-0.562 2.299,0.605 2.181,2.097 -0.055,0.082 -0.11,0.162 -0.162,0.239 -2.94,4.284 -6.3,8.376 -9.911,12.134 C 13.051,-8.561 8.688,-4.784 4.113,-1.462 3.54,-1.056 2.891,-0.595 2.306,-0.232 1.633,0.165 0.709,0.709 0,0" />
      </g>
      <g
         transform="translate(1111.6711,344.8587)"
         id="g768">
        <path
           inkscape:connector-curvature="0"
           id="path770"
           style="fill:#d5e37d;fill-opacity:1;fill-rule:nonzero;stroke:none"
           d="m 0,0 c 0.131,-0.218 0.995,-0.875 1.719,-1.435 6.916,-5.266 13.303,-11.444 18.837,-18.305 1.583,-1.946 3.436,-4.455 4.953,-6.502 0.187,0.097 0.335,0.24 0.447,0.42 -0.287,0.449 -0.577,0.891 -0.831,1.263 C 19.026,-15.678 11.323,-7.833 2.609,-1.515 2.023,-1.1 1.415,-0.67 0.883,-0.339 0.344,-0.018 -0.098,0.172 0,0" />
      </g>
      <g
         transform="translate(1155.3926,201.4077)"
         id="g772">
        <path
           inkscape:connector-curvature="0"
           id="path774"
           style="fill:#0f7c3e;fill-opacity:1;fill-rule:nonzero;stroke:none"
           d="m 0,0 c -1.968,5.595 -4.63,10.99 -7.715,16.376 -3.061,5.39 -6.5,10.774 -9.803,16.336 -0.695,1.169 -1.381,2.684 -0.614,3.813 0.592,0.87 1.852,1.06 2.848,0.717 0.995,-0.345 1.789,-1.099 2.544,-1.844 C -7.1,29.84 -1.61,23.774 2.745,16.619 4.932,13.052 6.78,9.209 8.173,5.175 8.862,3.154 9.436,1.083 9.875,-1.026 c 0.432,-2.111 0.71,-4.264 0.835,-6.428 0.02,-0.477 0.012,-1.01 -0.063,-1.567 -0.082,-0.558 -0.205,-1.137 -0.365,-1.698 -0.361,-1.127 -0.862,-2.18 -1.52,-2.896 -1.288,-1.457 -2.87,-1.462 -4.377,1.142 -1.119,1.874 -1.842,3.997 -2.486,6.17 C 1.257,-4.135 0.675,-1.912 0,0" />
      </g>
      <g
         transform="translate(1138.3512,238.1854)"
         id="g776">
        <path
           inkscape:connector-curvature="0"
           id="path778"
           style="fill:#7eb155;fill-opacity:1;fill-rule:nonzero;stroke:none"
           d="m 0,0 c -0.721,-0.408 -1.064,-1.236 -0.852,-2.062 0.142,-0.56 0.519,-1.184 2.32,-3.427 3.854,-4.814 7.654,-9.726 10.923,-14.955 3.285,-5.212 5.993,-10.773 7.687,-16.61 0.129,-0.386 0.328,-1.206 0.52,-1.924 0.177,-0.721 0.308,-1.347 0.308,-1.347 0.668,-2.983 1.05,-6.553 1.042,-9.709 0.817,-1.1 1.653,-1.479 2.44,-1.298 0.783,0.177 1.535,0.916 2.133,1.944 10e-4,0.157 10e-4,0.313 0.002,0.462 0.029,2.084 -0.121,4.169 -0.405,6.23 -0.285,2.06 -0.683,4.106 -1.231,6.103 -0.54,1.999 -1.188,3.961 -1.927,5.879 -0.751,1.911 -1.591,3.778 -2.502,5.596 C 16.453,-17.181 10.989,-10.177 5.47,-3.689 4.784,-2.881 4.002,-1.972 3.278,-1.231 2.457,-0.391 1.332,0.754 0,0" />
      </g>
      <g
         transform="translate(1139.2081,236.563)"
         id="g780">
        <path
           inkscape:connector-curvature="0"
           id="path782"
           style="fill:#d5e37d;fill-opacity:1;fill-rule:nonzero;stroke:none"
           d="m 0,0 c 0.098,-0.379 1.118,-1.676 1.988,-2.763 4.136,-5.16 8.219,-10.466 11.703,-16.19 3.483,-5.711 6.305,-11.894 7.871,-18.425 0.449,-1.856 0.81,-3.971 1.032,-6.108 0.225,-2.137 0.291,-4.295 0.258,-6.24 0.316,-0.058 0.627,-0.023 0.929,0.091 0.058,0.826 0.137,1.647 0.121,2.347 0.055,4.19 -0.616,8.361 -1.716,12.381 -1.132,4.017 -2.718,7.89 -4.649,11.567 C 13.67,-15.97 8.555,-9.426 3.27,-3.209 2.563,-2.379 1.825,-1.524 1.16,-0.843 0.495,-0.163 -0.075,0.292 0,0" />
      </g>
      <g
         transform="translate(1158.7997,262.9409)"
         id="g784">
        <path
           inkscape:connector-curvature="0"
           id="path786"
           style="fill:#0f7c3e;fill-opacity:1;fill-rule:nonzero;stroke:none"
           d="m 0,0 c 1.187,2.429 2.691,4.69 4.322,6.836 0.857,1.043 1.693,2.101 2.645,3.056 0.471,0.481 0.919,0.982 1.415,1.436 0.496,0.45 0.994,0.9 1.492,1.352 0.489,0.457 1.028,0.859 1.553,1.274 0.532,0.406 1.045,0.831 1.597,1.207 1.112,0.743 2.196,1.506 3.369,2.132 2.281,1.342 4.733,2.355 7.182,3.191 1.054,0.314 2.357,0.544 3.022,-0.269 0.512,-0.627 0.388,-1.62 -0.036,-2.286 -0.214,-0.334 -0.489,-0.606 -0.793,-0.845 -0.307,-0.233 -0.637,-0.447 -0.95,-0.675 -2.42,-1.58 -4.653,-3.408 -6.771,-5.32 C 15.933,9.169 13.955,7.111 12.165,4.903 10.369,2.703 8.699,0.403 7.221,-2.02 5.758,-4.451 4.455,-6.977 3.331,-9.595 3.1,-10.175 2.683,-10.841 2.165,-11.462 c -0.481,-0.631 -1.052,-1.222 -1.651,-1.611 -1.192,-0.767 -2.479,-0.781 -3.096,1.661 -0.111,0.444 -0.188,0.908 -0.235,1.386 -0.022,0.471 -0.015,0.955 0.018,1.448 0.033,0.494 0.09,0.996 0.168,1.502 0.09,0.502 0.223,0.998 0.358,1.499 0.138,0.499 0.291,0.998 0.452,1.492 0.18,0.486 0.38,0.961 0.577,1.431 0.203,0.468 0.403,0.929 0.598,1.379 C -0.424,-0.838 -0.208,-0.412 0,0" />
      </g>
      <g
         transform="translate(1185.3571,282.2803)"
         id="g788">
        <path
           inkscape:connector-curvature="0"
           id="path790"
           style="fill:#7eb155;fill-opacity:1;fill-rule:nonzero;stroke:none"
           d="m 0,0 c -0.153,0.627 -0.692,1.055 -1.363,1.054 -0.227,0 -0.479,-0.041 -0.936,-0.2 -0.464,-0.145 -1.107,-0.459 -2.118,-1 -8.703,-4.605 -16.06,-12.16 -20.669,-21.091 -0.174,-0.289 -0.452,-0.933 -0.72,-1.488 -0.262,-0.558 -0.487,-1.039 -0.487,-1.039 -1.005,-2.329 -2.076,-5.133 -2.611,-7.727 0.829,-2.057 2.332,-1.492 3.562,-0.368 0.03,0.104 0.059,0.208 0.087,0.307 0.816,2.755 1.849,5.477 3.167,8.067 1.32,2.587 2.858,5.064 4.577,7.388 3.772,5.05 8.581,9.408 13.937,12.666 0.677,0.386 1.442,0.825 2.081,1.247 C -0.742,-1.752 0.281,-1.159 0,0" />
      </g>
      <g
         transform="translate(1183.9894,281.9649)"
         id="g792">
        <path
           inkscape:connector-curvature="0"
           id="path794"
           style="fill:#d5e37d;fill-opacity:1;fill-rule:nonzero;stroke:none"
           d="M 0,0 C -0.151,0.001 -0.519,-0.124 -0.97,-0.309 -1.408,-0.518 -1.929,-0.787 -2.404,-1.038 -3.55,-1.605 -4.616,-2.316 -5.718,-2.973 -6.256,-3.323 -6.776,-3.701 -7.307,-4.064 L -8.1,-4.616 c -0.259,-0.191 -0.508,-0.396 -0.763,-0.593 l -1.522,-1.198 -1.453,-1.287 -0.725,-0.648 -0.689,-0.685 c -0.457,-0.461 -0.926,-0.91 -1.373,-1.382 -3.537,-3.805 -6.554,-8.153 -8.727,-12.909 -1.267,-2.688 -2.508,-6.194 -3.077,-9.154 0.232,-0.085 0.477,-0.099 0.727,-0.058 0.185,0.589 0.359,1.173 0.499,1.675 0.872,2.982 2.027,5.883 3.435,8.661 1.431,2.766 3.122,5.395 5.021,7.863 3.781,4.956 8.534,9.146 13.834,12.39 0.72,0.411 1.466,0.839 2.074,1.239 C -0.217,-0.332 0.234,-0.004 0,0" />
      </g>
      <g
         transform="translate(1140.7054,275.0733)"
         id="g796">
        <path
           inkscape:connector-curvature="0"
           id="path798"
           style="fill:#0f7c3e;fill-opacity:1;fill-rule:nonzero;stroke:none"
           d="m 0,0 c -7.752,7.567 -16.332,14.203 -25.913,19.961 -1.017,0.581 -2.179,1.435 -2.108,2.644 0.055,0.932 0.922,1.632 1.858,1.795 0.928,0.152 1.916,-0.056 2.828,-0.357 13.854,-4.107 26.49,-13.181 34.808,-25.184 0.449,-0.663 0.875,-1.573 1.169,-2.517 0.27,-0.963 0.398,-1.963 0.312,-2.786 -0.171,-1.654 -1.243,-2.578 -3.729,-1.438 -0.449,0.205 -0.883,0.445 -1.303,0.713 -0.437,0.256 -0.86,0.54 -1.27,0.847 -0.41,0.307 -0.808,0.636 -1.194,0.983 C 5.064,-5 4.664,-4.656 4.285,-4.294 3.903,-3.934 3.533,-3.563 3.172,-3.186 2.8,-2.816 2.432,-2.451 2.071,-2.09 1.716,-1.721 1.367,-1.357 1.027,-1.003 0.675,-0.659 0.331,-0.324 0,0" />
      </g>
      <g
         transform="translate(1113.3979,298.3515)"
         id="g800">
        <path
           inkscape:connector-curvature="0"
           id="path802"
           style="fill:#7eb155;fill-opacity:1;fill-rule:nonzero;stroke:none"
           d="m 0,0 c -0.366,-0.63 -0.255,-1.419 0.26,-1.956 0.343,-0.384 0.918,-0.631 3.202,-1.659 9.834,-4.317 18.917,-10.784 26.373,-18.682 0.263,-0.252 0.754,-0.829 1.202,-1.32 0.445,-0.496 0.828,-0.924 0.828,-0.924 1.784,-2.083 3.81,-4.594 5.459,-6.927 2.365,-0.757 3.11,0.774 2.942,2.805 -0.074,0.111 -0.148,0.221 -0.219,0.326 -2.015,2.906 -4.217,5.722 -6.635,8.347 -2.418,2.623 -5.008,5.089 -7.727,7.368 C 19.741,-7.673 12.976,-3.58 5.886,-0.585 4.998,-0.229 3.991,0.174 3.103,0.468 2.08,0.762 0.675,1.164 0,0" />
      </g>
      <g
         transform="translate(1114.7765,297.4769)"
         id="g804">
        <path
           inkscape:connector-curvature="0"
           id="path806"
           style="fill:#d5e37d;fill-opacity:1;fill-rule:nonzero;stroke:none"
           d="m 0,0 c 0.12,-0.124 0.52,-0.323 1.03,-0.549 0.503,-0.246 1.118,-0.521 1.682,-0.768 5.364,-2.337 10.464,-5.346 15.253,-8.791 4.755,-3.499 9.197,-7.461 13.12,-11.896 2.255,-2.505 4.809,-5.827 6.812,-8.605 0.253,0.126 0.453,0.316 0.607,0.556 -0.385,0.608 -0.776,1.205 -1.117,1.709 -2.066,2.993 -4.346,5.844 -6.815,8.527 -2.484,2.669 -5.161,5.159 -7.991,7.46 C 16.935,-7.733 10.592,-3.985 3.906,-1.145 3.005,-0.784 2.071,-0.412 1.268,-0.147 0.455,0.094 -0.187,0.19 0,0" />
      </g>
      <g
         transform="translate(1144.5618,301.4442)"
         id="g808">
        <path
           inkscape:connector-curvature="0"
           id="path810"
           style="fill:#0f7c3e;fill-opacity:1;fill-rule:nonzero;stroke:none"
           d="m 0,0 c 1.271,3.665 3.06,7.11 5.297,10.195 2.247,3.114 4.851,5.808 7.648,8.167 5.606,4.739 11.851,8.081 18.106,10.893 1.321,0.592 2.998,1.115 4.08,0.165 0.834,-0.732 0.87,-2.076 0.386,-3.073 C 35.035,25.35 34.151,24.623 33.302,23.928 26.927,18.734 20.755,13.643 15.999,7.794 15.39,7.067 14.845,6.327 14.288,5.594 13.765,4.837 13.224,4.092 12.744,3.309 11.767,1.758 10.852,0.167 10.104,-1.483 9.347,-3.128 8.702,-4.809 8.19,-6.515 7.7,-8.224 7.358,-9.953 7.173,-11.689 c -0.027,-0.38 -0.129,-0.805 -0.239,-1.251 -0.096,-0.444 -0.237,-0.914 -0.417,-1.39 -0.294,-0.939 -0.755,-1.917 -1.232,-2.695 -0.506,-0.779 -1.148,-1.383 -1.937,-1.468 -0.78,-0.08 -1.757,0.355 -2.84,1.79 -1.559,2.088 -2.244,5.111 -2.185,8.142 C -1.632,-5.516 -0.857,-2.504 0,0" />
      </g>
      <g
         transform="translate(1179.8171,329.6901)"
         id="g812">
        <path
           inkscape:connector-curvature="0"
           id="path814"
           style="fill:#7eb155;fill-opacity:1;fill-rule:nonzero;stroke:none"
           d="m 0,0 c -0.334,0.808 -1.157,1.274 -2.05,1.157 -0.604,-0.083 -1.313,-0.382 -3.89,-2.035 -5.511,-3.561 -11.04,-7.444 -15.878,-12.292 -4.854,-4.785 -8.899,-10.732 -11.071,-17.39 -0.168,-0.437 -0.418,-1.384 -0.65,-2.213 -0.125,-0.411 -0.188,-0.811 -0.257,-1.096 -0.062,-0.287 -0.102,-0.469 -0.102,-0.469 -0.212,-0.863 -0.31,-1.794 -0.464,-2.733 -0.074,-0.953 -0.204,-1.922 -0.191,-2.909 -0.043,-0.984 0.026,-1.974 0.091,-2.95 0.034,-0.487 0.122,-0.968 0.182,-1.445 0.063,-0.476 0.135,-0.946 0.25,-1.401 1.138,-1.087 2.064,-1.146 2.822,-0.739 0.762,0.415 1.335,1.289 1.789,2.258 -0.014,0.136 -0.028,0.272 -0.041,0.401 -0.236,1.796 -0.229,3.639 -0.029,5.477 0.201,1.838 0.552,3.681 1.12,5.481 0.558,1.801 1.267,3.568 2.101,5.282 0.851,1.707 1.834,3.352 2.912,4.928 1.169,1.717 2.503,3.339 3.946,4.912 1.439,1.567 2.979,3.063 4.592,4.499 3.224,2.876 6.758,5.485 10.357,8.013 0.896,0.627 1.921,1.332 2.772,1.994 C -0.72,-2.519 0.615,-1.492 0,0" />
      </g>
      <g
         transform="translate(1178.011,329.0008)"
         id="g816">
        <path
           inkscape:connector-curvature="0"
           id="path818"
           style="fill:#d5e37d;fill-opacity:1;fill-rule:nonzero;stroke:none"
           d="m 0,0 c -0.409,-0.053 -1.894,-0.96 -3.125,-1.754 -5.844,-3.766 -11.606,-7.871 -16.499,-12.988 -4.893,-5.074 -8.723,-11.353 -10.426,-18.276 -0.481,-1.965 -0.81,-4.226 -0.839,-6.503 -0.034,-2.276 0.261,-4.558 0.801,-6.527 0.334,0.038 0.641,0.17 0.922,0.368 -0.111,0.811 -0.289,1.598 -0.335,2.287 -0.531,4.088 0.069,8.28 1.315,12.237 1.288,3.958 3.26,7.708 5.726,11.093 2.474,3.378 5.427,6.44 8.619,9.223 3.187,2.799 6.62,5.337 10.119,7.791 0.935,0.654 1.91,1.326 2.699,1.94 C -0.232,-0.497 0.315,0.042 0,0" />
      </g>
      <g
         transform="translate(1142.9266,325.2491)"
         id="g820">
        <path
           inkscape:connector-curvature="0"
           id="path822"
           style="fill:#0f7c3e;fill-opacity:1;fill-rule:nonzero;stroke:none"
           d="m 0,0 c 5.591,7.657 13.313,13.761 21.816,17.424 0.903,0.375 2.04,0.701 2.728,0.042 0.531,-0.509 0.523,-1.408 0.195,-2.055 -0.326,-0.654 -0.922,-1.09 -1.472,-1.553 C 14.902,7.134 7.539,-0.529 1.235,-9.109 c -0.34,-0.474 -0.864,-0.989 -1.462,-1.434 -0.582,-0.455 -1.232,-0.846 -1.85,-1.044 -1.232,-0.393 -2.33,-0.048 -2.292,2.202 0.052,3.282 2.44,6.8 4.369,9.385" />
      </g>
      <g
         transform="translate(1167.526,341.9276)"
         id="g824">
        <path
           inkscape:connector-curvature="0"
           id="path826"
           style="fill:#7eb155;fill-opacity:1;fill-rule:nonzero;stroke:none"
           d="M 0,0 C -0.203,0.546 -0.734,0.875 -1.334,0.811 -1.733,0.757 -2.237,0.6 -3.96,-0.512 c -7.429,-4.722 -14.163,-10.935 -19.607,-18.072 -0.369,-0.474 -1.481,-2.015 -1.481,-2.015 -1.303,-1.854 -2.785,-4.074 -3.89,-6.159 0.228,-1.984 1.651,-1.898 3.012,-1.185 0.052,0.086 0.104,0.171 0.154,0.252 1.393,2.263 2.887,4.49 4.51,6.623 1.624,2.133 3.347,4.191 5.149,6.155 3.941,4.271 8.398,8.154 13.131,11.488 0.594,0.406 1.266,0.866 1.824,1.3 C -0.511,-1.654 0.374,-1.009 0,0" />
      </g>
      <g
         transform="translate(1166.3198,341.5073)"
         id="g828">
        <path
           inkscape:connector-curvature="0"
           id="path830"
           style="fill:#d5e37d;fill-opacity:1;fill-rule:nonzero;stroke:none"
           d="m 0,0 c -0.136,-0.014 -0.455,-0.163 -0.844,-0.373 -0.382,-0.22 -0.833,-0.502 -1.244,-0.763 -7.798,-4.972 -14.815,-11.55 -20.34,-19.206 -1.585,-2.169 -3.41,-4.976 -4.656,-7.398 0.18,-0.133 0.388,-0.207 0.615,-0.234 0.306,0.472 0.601,0.943 0.846,1.349 5.896,9.68 13.874,18.117 23.136,24.635 0.624,0.426 1.27,0.869 1.793,1.275 C -0.163,-0.323 0.21,0.02 0,0" />
      </g>
      <g
         transform="translate(1134.1727,355.3871)"
         id="g832">
        <path
           inkscape:connector-curvature="0"
           id="path834"
           style="fill:#0f7c3e;fill-opacity:1;fill-rule:nonzero;stroke:none"
           d="m 0,0 c 1.062,1.75 2.341,3.362 3.704,4.883 0.709,0.736 1.405,1.485 2.178,2.152 0.383,0.338 0.751,0.69 1.151,1.006 0.399,0.313 0.799,0.626 1.201,0.941 3.243,2.45 6.939,4.241 10.737,5.288 0.81,0.2 1.807,0.328 2.286,-0.313 0.369,-0.494 0.241,-1.244 -0.107,-1.736 -0.346,-0.503 -0.89,-0.77 -1.387,-1.096 C 17.856,10.01 16.07,8.716 14.361,7.358 12.653,5.996 11.035,4.531 9.541,2.951 8.043,1.377 6.628,-0.273 5.338,-2.021 4.059,-3.775 2.886,-5.606 1.828,-7.513 1.607,-7.937 1.238,-8.412 0.796,-8.844 0.38,-9.285 -0.101,-9.688 -0.586,-9.934 c -0.966,-0.486 -1.938,-0.384 -2.207,1.51 -0.049,0.344 -0.07,0.7 -0.067,1.065 0.019,0.357 0.062,0.721 0.125,1.091 0.063,0.37 0.145,0.744 0.242,1.12 0.106,0.371 0.243,0.736 0.382,1.103 0.141,0.367 0.293,0.731 0.451,1.092 0.17,0.353 0.355,0.697 0.537,1.038 0.187,0.339 0.37,0.672 0.549,0.997 C -0.377,-0.603 -0.185,-0.296 0,0" />
      </g>
      <g
         transform="translate(1155.3698,368.6805)"
         id="g836">
        <path
           inkscape:connector-curvature="0"
           id="path838"
           style="fill:#7eb155;fill-opacity:1;fill-rule:nonzero;stroke:none"
           d="M 0,0 C -0.095,0.482 -0.49,0.826 -1,0.849 -1.338,0.848 -1.792,0.806 -3.363,0.052 c -6.782,-3.156 -12.741,-8.447 -16.848,-14.884 -0.151,-0.207 -0.408,-0.673 -0.65,-1.074 -0.238,-0.403 -0.443,-0.751 -0.443,-0.751 -0.93,-1.688 -1.95,-3.725 -2.569,-5.638 0.46,-1.623 1.642,-1.325 2.666,-0.569 0.031,0.077 0.062,0.153 0.091,0.226 0.843,2.027 1.835,4.016 3.02,5.892 1.185,1.875 2.518,3.657 3.968,5.321 3.18,3.612 7.058,6.678 11.275,8.946 0.531,0.268 1.132,0.573 1.637,0.87 C -0.628,-1.306 0.174,-0.891 0,0" />
      </g>
      <g
         transform="translate(1154.3175,368.4885)"
         id="g840">
        <path
           inkscape:connector-curvature="0"
           id="path842"
           style="fill:#d5e37d;fill-opacity:1;fill-rule:nonzero;stroke:none"
           d="M 0,0 C -0.115,0.006 -0.399,-0.076 -0.749,-0.201 -1.09,-0.342 -1.497,-0.527 -1.868,-0.7 c -3.531,-1.628 -6.804,-3.891 -9.737,-6.54 -2.899,-2.69 -5.457,-5.794 -7.445,-9.24 -1.152,-1.946 -2.361,-4.504 -3.039,-6.695 0.169,-0.084 0.353,-0.115 0.546,-0.105 0.188,0.432 0.368,0.86 0.515,1.229 0.902,2.19 1.996,4.302 3.259,6.31 1.279,2 2.732,3.886 4.324,5.646 3.172,3.536 6.989,6.475 11.154,8.728 0.565,0.285 1.149,0.582 1.627,0.863 C -0.177,-0.245 0.177,-0.011 0,0" />
      </g>
      <g
         transform="translate(1131.0553,424.522)"
         id="g844">
        <path
           inkscape:connector-curvature="0"
           id="path846"
           style="fill:#0f7c3e;fill-opacity:1;fill-rule:nonzero;stroke:none"
           d="m 0,0 c 2.052,6.002 5.099,11.573 8.815,16.56 1.854,2.499 3.883,4.854 6.074,7.04 2.191,2.183 4.545,4.205 7.125,5.931 1.08,0.734 2.563,1.383 3.34,0.796 0.594,-0.453 0.502,-1.413 0.112,-2.166 -0.399,-0.759 -1.063,-1.414 -1.701,-2.077 -2.384,-2.487 -4.564,-5.273 -6.612,-8.128 -2.037,-2.871 -3.931,-5.846 -5.66,-8.9 C 8.05,2.95 5.204,-3.49 3.711,-10.153 3.377,-11.608 2.538,-13.683 1.662,-14.9 c -0.904,-1.193 -2.04,-1.558 -3.015,1.149 -0.659,1.968 -0.717,4.425 -0.38,6.856 C -1.403,-4.458 -0.689,-2.053 0,0" />
      </g>
      <g
         transform="translate(1156.4114,454.009)"
         id="g848">
        <path
           inkscape:connector-curvature="0"
           id="path850"
           style="fill:#7eb155;fill-opacity:1;fill-rule:nonzero;stroke:none"
           d="m 0,0 c -0.198,0.542 -0.838,0.807 -1.573,0.562 -0.25,-0.08 -0.531,-0.203 -1.004,-0.536 -0.476,-0.329 -1.16,-0.854 -2.166,-1.78 -2.158,-1.985 -4.148,-4.146 -6.014,-6.419 -1.87,-2.27 -3.616,-4.653 -5.229,-7.133 -3.231,-4.953 -5.973,-10.287 -7.891,-15.942 -0.137,-0.375 -0.39,-1.168 -0.597,-1.871 -0.221,-0.697 -0.377,-1.312 -0.377,-1.312 -0.797,-2.911 -1.466,-6.438 -1.522,-9.614 1.101,-2.195 2.32,-1.132 3.193,0.479 0.013,0.128 0.027,0.256 0.04,0.378 0.595,6.836 3.049,13.632 6.27,19.868 1.758,3.409 3.799,6.709 6.033,9.862 2.248,3.14 4.696,6.146 7.358,8.834 0.657,0.674 1.431,1.391 2.079,2.025 C -0.658,-1.881 0.371,-0.988 0,0" />
      </g>
      <g
         transform="translate(1154.9475,453.259)"
         id="g852">
        <path
           inkscape:connector-curvature="0"
           id="path854"
           style="fill:#d5e37d;fill-opacity:1;fill-rule:nonzero;stroke:none"
           d="m 0,0 c -0.323,-0.109 -1.527,-1.038 -2.462,-1.921 -4.483,-4.15 -8.329,-9.063 -11.67,-14.291 -3.305,-5.255 -6.069,-10.92 -7.826,-16.917 -0.485,-1.708 -0.977,-3.643 -1.286,-5.619 -0.312,-1.975 -0.468,-3.979 -0.457,-5.777 0.219,-0.039 0.437,0.008 0.649,0.121 0.064,0.733 0.08,1.46 0.153,2.077 0.323,3.697 1.175,7.35 2.364,10.89 1.192,3.541 2.725,6.974 4.484,10.285 1.769,3.307 3.762,6.498 5.957,9.54 2.19,3.045 4.584,5.946 7.204,8.599 0.696,0.712 1.448,1.412 2.068,2.016 C -0.201,-0.398 0.251,0.082 0,0" />
      </g>
      <g
         transform="translate(1126.7064,419.8629)"
         id="g856">
        <path
           inkscape:connector-curvature="0"
           id="path858"
           style="fill:#0f7c3e;fill-opacity:1;fill-rule:nonzero;stroke:none"
           d="m 0,0 c -2.07,5.303 -4.676,10.47 -7.637,15.454 -1.475,2.496 -3.044,4.944 -4.705,7.328 -1.661,2.381 -3.414,4.702 -5.331,6.849 -0.804,0.911 -1.751,1.968 -1.533,2.922 0.164,0.738 1.12,1.016 2.08,0.768 0.953,-0.242 1.839,-0.876 2.647,-1.512 3.031,-2.391 5.683,-5.11 8.144,-7.995 2.444,-2.897 4.663,-5.984 6.632,-9.239 C 4.213,8.073 7.225,0.841 8.316,-6.903 8.383,-7.325 8.412,-7.804 8.397,-8.308 8.384,-8.812 8.364,-9.332 8.281,-9.848 8.118,-10.88 7.847,-11.861 7.434,-12.557 c -0.793,-1.405 -1.892,-1.569 -3.109,0.79 -0.926,1.7 -1.613,3.708 -2.291,5.772 C 1.361,-3.933 0.697,-1.818 0,0" />
      </g>
      <g
         transform="translate(1108.2882,452.7109)"
         id="g860">
        <path
           inkscape:connector-curvature="0"
           id="path862"
           style="fill:#7eb155;fill-opacity:1;fill-rule:nonzero;stroke:none"
           d="m 0,0 c -0.448,-0.388 -0.434,-1.041 -0.051,-1.673 0.133,-0.214 0.317,-0.427 0.704,-0.818 0.389,-0.385 0.994,-0.93 1.927,-1.852 2.002,-1.975 3.871,-4.13 5.626,-6.384 1.758,-2.252 3.407,-4.606 4.932,-7.042 3.055,-4.864 5.658,-10.048 7.492,-15.458 0.131,-0.36 0.374,-1.116 0.572,-1.786 0.213,-0.667 0.361,-1.25 0.361,-1.25 0.765,-2.773 1.4,-6.094 1.592,-9.056 1.285,-1.978 2.419,-1.084 3.132,0.872 -0.011,0.142 -0.023,0.284 -0.034,0.419 -0.569,7.581 -3.178,14.845 -6.571,21.425 -1.854,3.597 -4.007,7.05 -6.376,10.341 -2.385,3.281 -4.981,6.406 -7.884,9.256 C 4.707,-2.294 3.849,-1.519 3.061,-0.898 2.167,-0.198 0.842,0.717 0,0" />
      </g>
      <g
         transform="translate(1109.4807,451.4693)"
         id="g864">
        <path
           inkscape:connector-curvature="0"
           id="path866"
           style="fill:#d5e37d;fill-opacity:1;fill-rule:nonzero;stroke:none"
           d="m 0,0 c 0.183,-0.302 1.347,-1.313 2.259,-2.236 4.374,-4.343 8.088,-9.35 11.347,-14.634 3.221,-5.308 5.937,-10.975 7.703,-16.953 0.488,-1.704 0.978,-3.634 1.312,-5.601 0.338,-1.966 0.548,-3.958 0.652,-5.758 0.223,-0.031 0.436,0.023 0.638,0.15 -0.021,0.762 -0.01,1.521 -0.076,2.163 -0.285,3.844 -1.131,7.626 -2.331,11.271 -1.202,3.648 -2.762,7.165 -4.56,10.544 -1.808,3.377 -3.853,6.62 -6.112,9.704 -2.256,3.085 -4.725,6.016 -7.455,8.702 -0.725,0.72 -1.516,1.432 -2.221,1.986 C 0.448,-0.112 -0.143,0.231 0,0" />
      </g>
      <g
         transform="translate(1165.0541,208.3541)"
         id="g868">
        <path
           inkscape:connector-curvature="0"
           id="path870"
           style="fill:#0f7c3e;fill-opacity:1;fill-rule:nonzero;stroke:none"
           d="m 0,0 c 1.448,3.396 3.104,6.706 5.023,9.851 1.875,3.173 4.034,6.164 6.314,9.031 4.638,5.679 9.986,10.728 15.891,14.827 1.256,0.851 2.882,1.701 4.129,0.91 0.96,-0.609 1.225,-1.979 0.929,-3.061 -0.292,-1.091 -1.053,-1.94 -1.75,-2.802 C 25.258,22.365 20.488,15.654 16.26,8.638 14.125,5.144 12.151,1.56 10.316,-2.088 8.479,-5.734 6.772,-9.443 5.248,-13.226 c -0.32,-0.834 -0.889,-1.8 -1.602,-2.696 -0.709,-0.895 -1.492,-1.739 -2.339,-2.284 -1.673,-1.081 -3.464,-1.05 -4.328,2.349 -0.33,1.241 -0.397,2.558 -0.335,3.923 0.04,1.373 0.303,2.758 0.625,4.146 C -2.075,-5.016 -0.978,-2.325 0,0" />
      </g>
      <g
         transform="translate(1196.7363,241.7941)"
         id="g872">
        <path
           inkscape:connector-curvature="0"
           id="path874"
           style="fill:#7eb155;fill-opacity:1;fill-rule:nonzero;stroke:none"
           d="M 0,0 C -0.475,0.768 -1.382,1.103 -2.273,0.82 -2.574,0.725 -2.892,0.565 -3.429,0.162 -3.697,-0.039 -4.022,-0.3 -4.424,-0.647 c -0.39,-0.36 -0.857,-0.806 -1.426,-1.362 -4.887,-4.763 -9.395,-10.043 -13.345,-15.756 l -1.478,-2.147 -1.401,-2.201 c -0.959,-1.453 -1.792,-2.985 -2.684,-4.481 -1.679,-3.053 -3.295,-6.148 -4.669,-9.354 -0.18,-0.431 -0.601,-1.306 -0.905,-2.106 -0.316,-0.794 -0.59,-1.48 -0.59,-1.48 -0.678,-1.626 -1.286,-3.448 -1.917,-5.276 -0.279,-0.927 -0.56,-1.859 -0.836,-2.779 -0.281,-0.918 -0.476,-1.849 -0.699,-2.739 1.156,-2.878 3.253,-2.135 4.984,-0.536 0.042,0.148 0.084,0.295 0.124,0.435 2.301,7.829 5.661,15.515 9.783,22.643 2.241,3.887 4.694,7.691 7.391,11.312 2.695,3.621 5.591,7.086 8.645,10.354 0.772,0.799 1.633,1.719 2.352,2.539 C -0.261,-2.668 0.877,-1.419 0,0" />
      </g>
      <g
         transform="translate(1195.038,240.7836)"
         id="g876">
        <path
           inkscape:connector-curvature="0"
           id="path878"
           style="fill:#d5e37d;fill-opacity:1;fill-rule:nonzero;stroke:none"
           d="m 0,0 c -0.202,-0.063 -0.639,-0.389 -1.166,-0.826 -0.52,-0.443 -1.105,-1.023 -1.647,-1.546 -2.589,-2.477 -4.995,-5.161 -7.343,-7.91 -1.126,-1.412 -2.306,-2.791 -3.369,-4.262 -0.54,-0.728 -1.093,-1.45 -1.623,-2.187 l -1.551,-2.244 c -0.527,-0.743 -1.015,-1.511 -1.502,-2.281 -0.485,-0.771 -0.988,-1.532 -1.457,-2.314 -0.917,-1.576 -1.871,-3.135 -2.709,-4.758 -1.754,-3.205 -3.292,-6.529 -4.679,-9.911 -1.593,-3.844 -3.25,-8.768 -4.085,-12.905 0.325,-0.124 0.667,-0.147 1.017,-0.093 0.261,0.828 0.507,1.65 0.705,2.355 1.228,4.197 2.756,8.313 4.521,12.328 1.764,4.015 3.763,7.934 6.003,11.711 2.231,3.783 4.665,7.445 7.279,10.973 2.639,3.509 5.469,6.869 8.459,10.074 0.812,0.843 1.644,1.725 2.313,2.499 C -0.145,-0.543 0.312,0.097 0,0" />
      </g>
      <g
         transform="translate(1149.3234,235.149)"
         id="g880">
        <path
           inkscape:connector-curvature="0"
           id="path882"
           style="fill:#0f7c3e;fill-opacity:1;fill-rule:nonzero;stroke:none"
           d="m 0,0 c -1.832,1.816 -3.812,3.47 -5.804,5.109 -1.03,0.776 -2.022,1.609 -3.09,2.34 -0.529,0.371 -1.037,0.779 -1.578,1.135 l -1.616,1.084 c -0.53,0.382 -1.094,0.702 -1.645,1.05 -0.557,0.336 -1.098,0.709 -1.666,1.03 -1.139,0.632 -2.257,1.335 -3.435,1.916 -2.315,1.273 -4.741,2.336 -7.221,3.392 -1.053,0.398 -2.288,1.037 -2.416,2.208 -0.098,0.902 0.62,1.708 1.5,2.006 0.439,0.15 0.904,0.202 1.379,0.205 0.476,0.01 0.955,-0.047 1.421,-0.13 3.527,-0.47 6.994,-1.424 10.357,-2.671 3.362,-1.255 6.611,-2.863 9.636,-4.829 3.03,-1.955 5.885,-4.199 8.456,-6.737 2.558,-2.55 4.855,-5.358 6.831,-8.366 0.42,-0.67 0.81,-1.583 1.066,-2.518 0.222,-0.96 0.3,-1.948 0.175,-2.743 C 12.104,-8.123 10.998,-8.931 8.66,-7.716 8.237,-7.498 7.832,-7.248 7.443,-6.973 7.031,-6.712 6.635,-6.426 6.252,-6.119 5.87,-5.813 5.502,-5.486 5.146,-5.143 4.779,-4.809 4.401,-4.475 4.048,-4.122 3.691,-3.771 3.345,-3.41 3.01,-3.045 2.659,-2.69 2.311,-2.339 1.969,-1.993 1.634,-1.638 1.305,-1.29 0.984,-0.949 0.646,-0.624 0.318,-0.306 0,0" />
      </g>
      <g
         transform="translate(1121.4285,255.1683)"
         id="g884">
        <path
           inkscape:connector-curvature="0"
           id="path886"
           style="fill:#7eb155;fill-opacity:1;fill-rule:nonzero;stroke:none"
           d="m 0,0 c -0.25,-0.661 -0.018,-1.4 0.556,-1.836 0.194,-0.148 0.434,-0.276 0.921,-0.43 0.5,-0.146 1.221,-0.355 2.375,-0.689 9.989,-2.771 19.297,-8.492 26.487,-16.094 0.258,-0.239 0.721,-0.802 1.151,-1.279 0.424,-0.48 0.791,-0.896 0.791,-0.896 1.683,-2.034 3.573,-4.506 5.021,-6.846 2.25,-0.851 3.069,0.565 2.999,2.564 -0.067,0.113 -0.134,0.225 -0.198,0.332 -1.834,2.948 -3.92,5.778 -6.288,8.359 -2.368,2.577 -4.959,4.948 -7.712,7.076 C 20.081,-5.126 13.071,-1.678 5.775,0.288 4.863,0.509 3.828,0.761 2.924,0.921 1.887,1.048 0.461,1.221 0,0" />
      </g>
      <g
         transform="translate(1122.8901,254.541)"
         id="g888">
        <path
           inkscape:connector-curvature="0"
           id="path890"
           style="fill:#d5e37d;fill-opacity:1;fill-rule:nonzero;stroke:none"
           d="m 0,0 c 0.135,-0.101 0.549,-0.229 1.073,-0.368 0.519,-0.167 1.148,-0.346 1.725,-0.506 1.38,-0.343 2.714,-0.852 4.069,-1.291 0.668,-0.245 1.326,-0.523 1.991,-0.782 l 0.994,-0.394 c 0.329,-0.139 0.65,-0.296 0.975,-0.443 l 1.947,-0.895 1.899,-0.998 0.949,-0.501 0.923,-0.549 c 0.613,-0.369 1.236,-0.723 1.842,-1.103 4.821,-3.095 9.27,-6.819 13.031,-11.163 2.169,-2.449 4.54,-5.757 6.316,-8.57 0.252,0.108 0.458,0.279 0.62,0.502 -0.344,0.612 -0.693,1.215 -0.999,1.723 -1.864,3.016 -4.022,5.855 -6.423,8.476 -2.421,2.602 -5.092,4.971 -7.945,7.09 -5.694,4.265 -12.23,7.368 -19.061,9.228 C 3.007,-0.321 2.054,-0.093 1.243,0.052 0.424,0.161 -0.209,0.152 0,0" />
      </g>
      <g
         transform="translate(1156.1106,240.5753)"
         id="g892">
        <path
           inkscape:connector-curvature="0"
           id="path894"
           style="fill:#0f7c3e;fill-opacity:1;fill-rule:nonzero;stroke:none"
           d="m 0,0 c 0.764,3.271 2.028,6.402 3.497,9.406 0.801,1.47 1.567,2.958 2.527,4.328 0.47,0.69 0.902,1.403 1.415,2.061 l 1.545,1.96 c 0.5,0.661 1.087,1.256 1.649,1.865 0.575,0.598 1.116,1.221 1.726,1.781 1.232,1.108 2.417,2.243 3.761,3.198 2.571,2.029 5.454,3.613 8.353,4.941 1.261,0.505 2.834,0.934 3.725,0.01 0.687,-0.713 0.639,-1.94 0.203,-2.794 C 28.18,26.327 27.88,25.968 27.541,25.647 27.372,25.486 27.193,25.335 27.009,25.19 26.831,25.033 26.655,24.877 26.48,24.723 l -1.982,-1.7 -1.868,-1.816 c -0.32,-0.289 -0.612,-0.609 -0.9,-0.934 L 20.854,19.316 C 20.565,18.995 20.263,18.689 19.982,18.362 L 19.168,17.355 C 18.042,16.051 17.067,14.626 16.06,13.24 L 14.664,11.077 C 14.197,10.359 13.81,9.59 13.371,8.855 11.719,5.857 10.279,2.744 9.164,-0.489 8.072,-3.727 7.253,-7.051 6.737,-10.44 c -0.089,-0.745 -0.37,-1.648 -0.787,-2.536 -0.357,-0.886 -0.83,-1.76 -1.407,-2.415 -1.149,-1.29 -2.659,-1.774 -4.202,0.92 -0.279,0.491 -0.524,1.018 -0.738,1.574 -0.176,0.554 -0.321,1.135 -0.438,1.737 -0.117,0.601 -0.207,1.223 -0.274,1.856 -0.048,0.63 -0.035,1.268 -0.024,1.912 0.015,0.644 0.048,1.291 0.093,1.936 0.074,0.638 0.181,1.27 0.282,1.895 0.111,0.624 0.22,1.239 0.326,1.839 C -0.284,-1.132 -0.139,-0.556 0,0" />
      </g>
      <g
         transform="translate(1184.3525,269.0507)"
         id="g896">
        <path
           inkscape:connector-curvature="0"
           id="path898"
           style="fill:#7eb155;fill-opacity:1;fill-rule:nonzero;stroke:none"
           d="M 0,0 C -0.252,0.75 -0.951,1.215 -1.773,1.139 -2.05,1.113 -2.355,1.035 -2.897,0.789 -3.163,0.659 -3.51,0.517 -3.904,0.262 -4.302,0.012 -4.781,-0.302 -5.367,-0.695 -15.44,-7.461 -22.914,-18.357 -25.973,-30.35 c -0.135,-0.393 -0.278,-1.246 -0.442,-1.987 -0.153,-0.743 -0.285,-1.385 -0.285,-1.385 -0.515,-3.081 -0.935,-6.765 -0.677,-10.023 1.663,-2.154 3.245,-0.951 4.319,0.757 0.001,0.131 0.001,0.262 0.001,0.386 0.054,3.475 0.44,6.985 1.283,10.405 0.847,3.417 2.046,6.747 3.548,9.916 3.317,6.891 8.306,13.065 14.317,17.703 0.766,0.548 1.631,1.173 2.348,1.764 C -0.703,-2.212 0.464,-1.386 0,0" />
      </g>
      <g
         transform="translate(1182.7246,268.5191)"
         id="g900">
        <path
           inkscape:connector-curvature="0"
           id="path902"
           style="fill:#d5e37d;fill-opacity:1;fill-rule:nonzero;stroke:none"
           d="m 0,0 c -0.184,-0.016 -0.618,-0.208 -1.147,-0.483 -0.507,-0.309 -1.106,-0.703 -1.651,-1.069 -1.328,-0.826 -2.511,-1.856 -3.759,-2.81 -0.599,-0.506 -1.167,-1.05 -1.754,-1.576 l -0.874,-0.796 c -0.282,-0.274 -0.547,-0.567 -0.821,-0.85 l -1.635,-1.718 -1.515,-1.83 c -0.25,-0.307 -0.51,-0.608 -0.752,-0.921 l -0.694,-0.968 c -0.457,-0.649 -0.936,-1.285 -1.376,-1.947 -0.821,-1.362 -1.719,-2.685 -2.419,-4.121 -0.359,-0.711 -0.767,-1.4 -1.086,-2.132 l -0.966,-2.193 c -1.186,-2.963 -2.205,-6.015 -2.785,-9.164 -0.092,-0.446 -0.187,-0.906 -0.284,-1.375 -0.065,-0.476 -0.131,-0.961 -0.198,-1.454 -0.12,-0.987 -0.299,-1.996 -0.32,-3.023 -0.026,-0.511 -0.052,-1.023 -0.077,-1.532 -0.024,-0.508 -0.058,-1.014 -0.025,-1.514 0.034,-1 0.075,-1.973 0.126,-2.891 0.302,-0.021 0.595,0.047 0.876,0.18 0.022,0.753 0.032,1.496 0.029,2.131 0.043,3.787 0.536,7.571 1.439,11.259 0.938,3.682 2.301,7.251 4.007,10.644 3.383,6.814 8.379,12.793 14.362,17.44 0.822,0.59 1.672,1.203 2.358,1.766 C -0.227,-0.427 0.285,0.02 0,0" />
      </g>
    </g>
  </g>
</svg>
