<?xml version="1.0" encoding="iso-8859-1"?>
<!-- Generator: Adobe Illustrator 19.1.1, SVG Export Plug-In . SVG Version: 6.00 Build 0)  -->
<svg version="1.1" id="Layer_1" xmlns="http://www.w3.org/2000/svg" xmlns:xlink="http://www.w3.org/1999/xlink" x="0px" y="0px"
	 viewBox="0 0 48 48" style="enable-background:new 0 0 48 48;" xml:space="preserve">
<g>
	<line style="fill:#FFFFFF;stroke:#795548;stroke-width:2;stroke-miterlimit:10;" x1="5" y1="43" x2="22.933" y2="25.068"/>
	<g>
		<line style="fill:#FFFFFF;" x1="9" y1="39" x2="6" y2="36"/>
		<polygon style="fill:#795548;" points="8.293,39.707 6,36 9.707,38.293 		"/>
	</g>
	<g>
		<line style="fill:#FFFFFF;" x1="15" y1="33" x2="18" y2="36"/>
		<polygon style="fill:#795548;" points="15.707,32.293 18,36 14.293,33.707 		"/>
	</g>
</g>
<path style="fill:#8BC34A;" d="M16,27.5c0,4.142-4.5,7.5-4.5,7.5S7,31.642,7,27.5s4.5-7.5,4.5-7.5S16,23.358,16,27.5z"/>
<path style="fill:#689F38;" d="M10.5,35l1-15l1,15c0.039,0.552-0.376,1.032-0.929,1.071c-0.552,0.039-1.032-0.376-1.071-0.929
	C10.497,35.097,10.497,35.045,10.5,35z"/>
<circle style="fill:#F48FB1;" cx="28.5" cy="19.5" r="8.5"/>
<path style="fill:#F8BBD0;" d="M37,24c2.938,0,5.313-1.375,6-4c0.681-2.6-2-5-2-5s2.438-4.5-0.188-7.125S34,7,34,7s-1.938-2-5-2
	c-4.625,0-5,5-5,5s-3,0.938-3,5c0,4.938,6,5,6,5s0.278,6,6,6C36,26,37,24,37,24z"/>
<path style="fill:#FCE4EC;" d="M31.984,20.282c0,0-0.176,0.014-0.51,0.013c-0.336-0.006-0.836-0.037-1.45-0.226
	c-0.606-0.194-1.344-0.536-2.013-1.177c-0.661-0.632-1.291-1.548-1.522-2.718c-0.242-1.154-0.052-2.55,0.676-3.728
	c0.37-0.602,0.791-1.099,1.389-1.613l0.376-0.299c0.127-0.101,0.323-0.213,0.485-0.317c0.345-0.202,0.674-0.365,1.045-0.482
	c1.449-0.504,3.127-0.472,4.62,0.137c1.476,0.631,2.809,1.745,3.499,3.367c0.672,1.609,0.431,3.529-0.522,4.928
	c-0.472,0.697-1.092,1.307-1.809,1.68c-0.809,0.438-1.621,0.583-2.448,0.552c-1.647-0.086-3.108-1.057-3.756-2.454
	c-0.314-0.705-0.389-1.481-0.237-2.173c0.151-0.694,0.518-1.299,0.979-1.737c0.114-0.112,0.234-0.212,0.361-0.301l0.092-0.069
	c0.078-0.055,0.069-0.043,0.108-0.068c0.061-0.034,0.097-0.061,0.178-0.101c0.313-0.168,0.581-0.24,0.875-0.291
	c0.577-0.087,1.132,0.008,1.587,0.216c0.923,0.405,1.431,1.246,1.456,1.94c0.039,0.702-0.286,1.172-0.514,1.411
	c-0.242,0.244-0.404,0.321-0.404,0.321s0.143-0.115,0.315-0.39c0.169-0.268,0.328-0.744,0.199-1.285
	c-0.119-0.53-0.624-1.067-1.325-1.263c-0.345-0.098-0.741-0.099-1.106,0.019c-0.174,0.053-0.381,0.144-0.504,0.235
	c-0.032,0.017-0.096,0.071-0.143,0.105c-0.014,0.012-0.077,0.056-0.05,0.041l-0.056,0.055c-0.079,0.07-0.15,0.147-0.216,0.23
	c-0.538,0.647-0.675,1.655-0.232,2.431c0.455,0.773,1.446,1.349,2.452,1.344c0.493,0,1.04-0.152,1.417-0.387
	c0.476-0.285,0.866-0.672,1.16-1.128c0.604-0.908,0.697-2.114,0.3-3.123c-0.391-1.002-1.345-1.881-2.4-2.341
	c-1.059-0.493-2.286-0.583-3.35-0.27c-0.265,0.066-0.535,0.186-0.76,0.287c-0.115,0.064-0.213,0.092-0.346,0.179l-0.4,0.266
	c-0.389,0.287-0.831,0.71-1.12,1.127c-0.609,0.851-0.893,1.851-0.796,2.786c0.092,0.931,0.471,1.772,0.975,2.392
	c0.505,0.621,1.093,1.057,1.627,1.322c0.535,0.264,1,0.407,1.32,0.47C31.807,20.261,31.984,20.282,31.984,20.282z M25.954,10.043
	c0.007,0.013,0.019,0.024,0.033,0.032c0.038,0.019,0.085,0.004,0.104-0.035c0,0,0.186-0.37,0.627-0.809
	c0.221-0.213,0.491-0.455,0.831-0.637c0.33-0.196,0.716-0.344,1.114-0.442c0.2-0.044,0.396-0.115,0.6-0.132
	c0.202-0.022,0.399-0.069,0.595-0.064c0.39-0.026,0.756-0.006,1.07,0.023c0.627,0.055,1.049,0.119,1.049,0.119
	c0.015,0.002,0.03,0,0.045-0.006c0.039-0.018,0.057-0.065,0.039-0.104l-0.039-0.084c0,0-0.073-0.158-0.227-0.384
	c-0.158-0.213-0.388-0.534-0.731-0.758c-0.335-0.262-0.766-0.463-1.273-0.582c-0.247-0.071-0.525-0.073-0.799-0.073
	c-0.275-0.016-0.563,0.063-0.846,0.115c-0.278,0.076-0.56,0.195-0.816,0.327c-0.256,0.155-0.5,0.311-0.701,0.519
	c-0.212,0.188-0.372,0.424-0.508,0.647c-0.147,0.21-0.234,0.455-0.298,0.674c-0.138,0.435-0.114,0.851-0.062,1.127
	c0.058,0.284,0.152,0.453,0.148,0.445L25.954,10.043z M25.013,18.059c0.013,0.001,0.027-0.001,0.04-0.007
	c0.037-0.018,0.053-0.063,0.035-0.1c0,0-0.044-0.09-0.121-0.247c-0.075-0.156-0.196-0.384-0.295-0.653
	c-0.121-0.262-0.218-0.588-0.311-0.939c-0.072-0.356-0.125-0.738-0.12-1.123c-0.028-0.768,0.151-1.537,0.391-2.067
	c0.219-0.541,0.444-0.858,0.444-0.858c0.009-0.012,0.014-0.026,0.015-0.042c0.002-0.043-0.032-0.08-0.075-0.082l-0.093-0.004
	c0,0-0.18-0.008-0.448,0.047c-0.262,0.057-0.628,0.18-0.958,0.43c-0.176,0.119-0.35,0.268-0.496,0.448
	c-0.143,0.181-0.317,0.376-0.419,0.607c-0.237,0.454-0.36,1-0.36,1.546c0.008,0.547,0.156,1.08,0.388,1.526
	c0.117,0.22,0.284,0.41,0.428,0.585c0.132,0.179,0.337,0.335,0.505,0.458c0.334,0.281,0.665,0.319,0.919,0.392
	c0.256,0.056,0.43,0.073,0.43,0.073L25.013,18.059z M36.064,22.002c0.004-0.016,0.003-0.033-0.003-0.049
	c-0.016-0.041-0.062-0.06-0.103-0.044c0,0-0.108,0.043-0.297,0.118c-0.094,0.037-0.209,0.081-0.341,0.132
	c-0.133,0.031-0.281,0.065-0.44,0.112c-0.155,0.056-0.344,0.058-0.532,0.092c-0.189,0.038-0.395,0.027-0.605,0.035
	c-0.421,0.006-0.87-0.058-1.312-0.143c-0.89-0.165-1.748-0.501-2.363-0.803c-0.62-0.296-1.01-0.535-1.01-0.535
	c-0.014-0.009-0.032-0.013-0.05-0.012c-0.045,0.004-0.078,0.043-0.074,0.088l0.007,0.086c0,0,0.064,0.747,0.565,1.462
	c0.241,0.369,0.586,0.723,1.015,1.028c0.427,0.302,0.958,0.518,1.517,0.645c0.292,0.035,0.575,0.09,0.871,0.075
	c0.297-0.01,0.581-0.027,0.865-0.109c0.282-0.068,0.541-0.164,0.782-0.299c0.248-0.121,0.44-0.24,0.649-0.425
	c0.202-0.156,0.358-0.335,0.479-0.49c0.1-0.147,0.152-0.31,0.208-0.436c0.103-0.262,0.148-0.441,0.148-0.441L36.064,22.002z
	 M40.008,15.94c-0.012-0.006-0.026-0.008-0.04-0.006c-0.042,0.005-0.071,0.042-0.066,0.084c0,0,0.047,0.407,0.036,1.022
	c-0.001,0.609-0.105,1.436-0.449,2.148c-0.102,0.166-0.168,0.358-0.296,0.502c-0.114,0.155-0.229,0.306-0.375,0.418
	c-0.128,0.133-0.276,0.231-0.426,0.312c-0.14,0.097-0.286,0.163-0.43,0.207c-0.552,0.231-0.977,0.25-0.97,0.272
	c-0.055,0.005-0.096,0.053-0.091,0.108s0.053,0.096,0.108,0.091c0,0,0.113,0.125,0.341,0.285c0.227,0.157,0.574,0.362,1.035,0.393
	c0.118,0.012,0.241,0.024,0.369,0.037c0.13-0.002,0.254-0.039,0.391-0.064c0.274-0.051,0.574-0.125,0.839-0.299
	c0.288-0.146,0.535-0.357,0.758-0.603c0.247-0.235,0.38-0.522,0.552-0.801c0.104-0.285,0.24-0.581,0.268-0.865
	c0.057-0.284,0.065-0.566,0.04-0.824c-0.005-0.263-0.093-0.506-0.157-0.731c-0.061-0.222-0.169-0.425-0.278-0.604
	c-0.207-0.359-0.476-0.623-0.691-0.793c-0.217-0.174-0.378-0.248-0.378-0.248L40.008,15.94z M34.942,8.965
	c-0.012,0.014-0.019,0.031-0.019,0.05c-0.001,0.045,0.034,0.083,0.079,0.084c0,0,0.428,0.013,1.056,0.156
	c0.623,0.131,1.447,0.419,2.098,0.951c0.175,0.116,0.328,0.258,0.474,0.404c0.159,0.133,0.269,0.306,0.397,0.456
	c0.134,0.146,0.206,0.328,0.306,0.478c0.102,0.151,0.156,0.316,0.219,0.462c0.054,0.149,0.134,0.276,0.163,0.403
	c0.038,0.125,0.072,0.234,0.099,0.323c0.055,0.18,0.087,0.283,0.087,0.283c0.004,0.014,0.012,0.027,0.024,0.037
	c0.034,0.03,0.085,0.026,0.115-0.007l0.057-0.065c0,0,0.114-0.13,0.255-0.374c0.134-0.242,0.315-0.607,0.339-1.051
	c0.023-0.224,0.058-0.48-0.008-0.726c-0.054-0.249-0.072-0.545-0.21-0.798c-0.122-0.259-0.25-0.541-0.454-0.768
	c-0.185-0.247-0.409-0.463-0.654-0.65c-0.246-0.19-0.51-0.337-0.784-0.455c-0.268-0.122-0.552-0.187-0.821-0.236
	c-0.27-0.041-0.539-0.04-0.786-0.014c-0.243,0.003-0.478,0.069-0.688,0.137c-0.417,0.125-0.747,0.342-0.964,0.522
	c-0.107,0.079-0.193,0.183-0.248,0.238C35.025,8.868,34.998,8.9,34.998,8.9L34.942,8.965z"/>
</svg>
