<?xml version="1.0" encoding="UTF-8" standalone="no"?>
<!-- Created with Inkscape (http://www.inkscape.org/) -->

<svg
   xmlns:dc="http://purl.org/dc/elements/1.1/"
   xmlns:cc="http://creativecommons.org/ns#"
   xmlns:rdf="http://www.w3.org/1999/02/22-rdf-syntax-ns#"
   xmlns:svg="http://www.w3.org/2000/svg"
   xmlns="http://www.w3.org/2000/svg"
   xmlns:sodipodi="http://sodipodi.sourceforge.net/DTD/sodipodi-0.dtd"
   xmlns:inkscape="http://www.inkscape.org/namespaces/inkscape"
   width="48"
   height="48"
   viewBox="0 0 48 48.000001"
   id="svg4390"
   version="1.1"
   inkscape:version="0.91 r13725"
   sodipodi:docname="sage.svg">
  <defs
     id="defs4392" />
  <sodipodi:namedview
     id="base"
     pagecolor="#ffffff"
     bordercolor="#666666"
     borderopacity="1.0"
     inkscape:pageopacity="0.0"
     inkscape:pageshadow="2"
     inkscape:zoom="7.9195959"
     inkscape:cx="8.6932288"
     inkscape:cy="16.594839"
     inkscape:document-units="px"
     inkscape:current-layer="layer1"
     showgrid="false"
     units="px"
     inkscape:window-width="1206"
     inkscape:window-height="855"
     inkscape:window-x="140"
     inkscape:window-y="226"
     inkscape:window-maximized="0" />
  <metadata
     id="metadata4395">
    <rdf:RDF>
      <cc:Work
         rdf:about="">
        <dc:format>image/svg+xml</dc:format>
        <dc:type
           rdf:resource="http://purl.org/dc/dcmitype/StillImage" />
        <dc:title></dc:title>
      </cc:Work>
    </rdf:RDF>
  </metadata>
  <g
     inkscape:label="Layer 1"
     inkscape:groupmode="layer"
     id="layer1"
     transform="translate(0,-1004.3622)">
    <g
       transform="matrix(0.1644467,0,0,0.1644467,-110.24094,973.08557)"
       id="g305">
      <g
         id="g307">
        <path
           style="fill:#82c341"
           inkscape:connector-curvature="0"
           d="m 897.1,447 c 0,0 -17.4,9.7 -69.1,-15 -22.4,-10.7 -38.9,-24.1 -47,-31.4 -2.3,-2.1 -0.9,-5.9 2.2,-6 21.6,-0.7 81.6,2.3 113.9,52.4 z"
           id="path309" />
      </g>
      <g
         id="g311">
        <path
           style="fill:#82c341"
           inkscape:connector-curvature="0"
           d="m 886.3,366.8 c 0,0 -22.6,-17.2 -21.7,-86.5 0.4,-30.6 8,-54.9 12.5,-66.8 1.3,-3.4 6,-3.8 7.8,-0.5 12.9,23.4 47.1,97.3 1.4,153.8 z"
           id="path313" />
      </g>
      <g
         id="g315">
        <path
           style="fill:#6ba342"
           inkscape:connector-curvature="0"
           d="m 867.6,251.5 c -0.1,14 1.2,42.1 10.4,73.8 4.1,14.1 8.4,25.9 12.6,35.7 25.3,-35.9 20.8,-77.7 11.1,-108.9 -3.5,-4.2 -6.7,-7.7 -9.2,-10.4 -2.3,-2.4 -5.2,-3.9 -8.5,-4.4 -4.1,-0.6 -8.3,0.7 -11.4,3.4 -3.2,2.8 -5,6.7 -5,10.8 z"
           id="path317" />
      </g>
      <g
         id="g319">
        <path
           style="fill:#6ba342"
           inkscape:connector-curvature="0"
           d="m 867.6,251.5 c -0.1,14 1.2,42.1 10.4,73.8 4.1,14.1 8.4,25.9 12.6,35.7 25.3,-35.9 20.8,-77.7 11.1,-108.9 -3.5,-4.2 -6.7,-7.7 -9.2,-10.4 -2.3,-2.4 -5.2,-3.9 -8.5,-4.4 -4.1,-0.6 -8.3,0.7 -11.4,3.4 -3.2,2.8 -5,6.7 -5,10.8 z"
           id="path321" />
      </g>
      <g
         id="g323">
        <path
           style="fill:#bad86f"
           inkscape:connector-curvature="0"
           d="M 946.3,476 C 943.9,473.6 886.9,416.6 863.8,364.7 832,293.2 793.4,262.4 793,262.1 l 7.4,-9.5 c 1.7,1.3 41.3,32.7 74.4,107.1 22.2,49.9 79.5,107.1 80,107.7 l -8.5,8.6 z"
           id="path325" />
      </g>
      <g
         id="g327">
        <g
           id="g329">
          <path
             style="fill:#82c341"
             inkscape:connector-curvature="0"
             d="m 829.1,292.2 c 0,0 -29.4,-54.4 -45.1,-85.7 -1.6,-3.2 -6.4,-2.2 -6.7,1.4 -0.8,13.5 0.4,34.9 13.7,47.4 20.4,19.3 38.1,36.9 38.1,36.9 z"
             id="path331" />
        </g>
        <g
           id="g333">
          <path
             style="fill:#6ba342"
             inkscape:connector-curvature="0"
             d="m 777.6,223.2 c 1.1,11.3 4.5,23.7 13.4,32.1 0.3,0.3 0.6,0.5 0.8,0.8 10.2,4.4 18.6,9.1 25.1,13.3 -3.2,-6 -6.8,-12.8 -10.6,-19.9 -8.6,-9.3 -18.6,-19 -28.7,-26.3 z"
             id="path335" />
        </g>
        <g
           id="g337">
          <path
             style="fill:#6ba342"
             inkscape:connector-curvature="0"
             d="m 777.6,223.2 c 1.1,11.3 4.5,23.7 13.4,32.1 0.3,0.3 0.6,0.5 0.8,0.8 10.2,4.4 18.6,9.1 25.1,13.3 -3.2,-6 -6.8,-12.8 -10.6,-19.9 -8.6,-9.3 -18.6,-19 -28.7,-26.3 z"
             id="path339" />
        </g>
        <g
           id="g341">
          <path
             style="fill:#82c341"
             inkscape:connector-curvature="0"
             d="m 829.5,292.7 c 0,0 -40.2,-56.6 -73.3,-68.7 -11.2,-4.1 -19.8,-8.7 -25.9,-12.5 -2.7,-1.7 -5.9,1.4 -4.2,4.2 8.9,14.7 26.5,38.8 50.2,46.7 34.9,11.7 53.2,30.3 53.2,30.3 z"
             id="path343" />
        </g>
      </g>
      <g
         id="g345">
        <path
           style="fill:#bad86f"
           inkscape:connector-curvature="0"
           d="m 927.5,455.8 c -0.5,-0.1 -53.4,-7.4 -115,-42 l 3.4,-6.1 c 60.4,33.9 112,41.1 112.5,41.2 l -0.9,6.9 z"
           id="path347" />
      </g>
      <g
         id="g349">
        <path
           style="fill:#82c341"
           inkscape:connector-curvature="0"
           d="m 840,288.9 c 0,0 -10.7,-9.8 -5.5,-51.3 2.3,-18 7.7,-32.4 10.9,-39.8 0.9,-2.1 3.9,-2 4.7,0.1 5.4,14.9 17.1,57.1 -10.1,91 z"
           id="path351" />
      </g>
      <g
         id="g353">
        <path
           style="fill:#bad86f"
           inkscape:connector-curvature="0"
           d="m 840,312.1 c -0.3,-1.6 -7.2,-38.8 2.6,-89.6 l 6.9,1.3 c -9.5,49.4 -2.7,86.5 -2.6,86.9 l -6.9,1.4 z"
           id="path355" />
      </g>
      <g
         id="g357">
        <path
           style="fill:#82c341"
           inkscape:connector-curvature="0"
           d="m 839,346.9 c 0,0 -20.8,4.1 -65,-37.8 -19.2,-18.2 -31.5,-37.1 -37.3,-47.2 -1.7,-2.9 1,-6.3 4.2,-5.4 22.1,6.5 81.8,29.2 98.1,90.4 z"
           id="path359" />
      </g>
      <g
         id="g361">
        <path
           style="fill:#6ba342"
           inkscape:connector-curvature="0"
           d="m 738.5,264.9 c 6.4,10.6 18.1,27.7 35.5,44.2 44.2,41.9 65,37.8 65,37.8 -0.6,-2.2 -1.2,-4.4 -1.9,-6.5 -15.5,-22.3 -36.2,-41.4 -61.9,-57 -12.5,-7.6 -25,-13.6 -36.7,-18.5 z"
           id="path363" />
      </g>
      <g
         id="g365">
        <path
           style="fill:#bad86f"
           inkscape:connector-curvature="0"
           d="m 887.5,385.6 -6.7,-1.9 c 0.1,-0.4 10.7,-38 3,-80 l 6.9,-1.3 c 8,43.7 -2.7,81.6 -3.2,83.2 z"
           id="path367" />
      </g>
      <g
         id="g369">
        <path
           style="fill:#82c341"
           inkscape:connector-curvature="0"
           d="m 931.7,400.5 c 0,0 -23.9,-8.3 -44.1,-78 -8.8,-30.2 -10.1,-57 -10,-71 0,-4 4.9,-5.9 7.6,-3 18.8,20 66.5,79.3 46.5,152 z"
           id="path371" />
      </g>
      <g
         id="g373">
        <path
           style="fill:#82c341"
           inkscape:connector-curvature="0"
           d="m 931.7,400.5 c 0,0 -23.9,-8.3 -44.1,-78 -8.8,-30.2 -10.1,-57 -10,-71 0,-4 4.9,-5.9 7.6,-3 18.8,20 66.5,79.3 46.5,152 z"
           id="path375" />
      </g>
      <g
         id="g377">
        <path
           style="fill:#bad86f"
           inkscape:connector-curvature="0"
           d="M 929.3,449.6 C 928.2,373.4 906,325.6 905.8,325.2 l 6.3,-3 c 0.9,2 23,49.5 24.1,127.3 l -6.9,0.1 z"
           id="path379" />
      </g>
      <g
         id="g381">
        <path
           style="fill:#6ba342"
           inkscape:connector-curvature="0"
           d="m 738.5,264.9 c 6.4,10.6 18.1,27.7 35.5,44.2 44.2,41.9 65,37.8 65,37.8 -0.6,-2.2 -1.2,-4.4 -1.9,-6.5 -15.5,-22.3 -36.2,-41.4 -61.9,-57 -12.5,-7.6 -25,-13.6 -36.7,-18.5 z"
           id="path383" />
      </g>
      <g
         id="g385">
        <path
           style="fill:#bad86f"
           inkscape:connector-curvature="0"
           d="m 867,365.6 c -0.5,-0.2 -51.5,-24.9 -102.5,-80.1 l 5.1,-4.7 c 50,54.2 99.9,78.3 100.4,78.6 l -3,6.2 z"
           id="path387" />
      </g>
      <g
         id="g389">
        <path
           style="fill:#82c341"
           inkscape:connector-curvature="0"
           d="m 850.7,389.1 c 0,0 -32,8.8 -105.8,-51.4 -32,-26.1 -53.4,-54.2 -63.6,-69.3 -2.9,-4.3 0.9,-10 6,-8.9 35.1,7.4 130.9,36 163.4,129.6 z"
           id="path391" />
      </g>
      <g
         id="g393">
        <path
           style="fill:#bad86f"
           inkscape:connector-curvature="0"
           d="m 897.2,413.1 c -0.8,-0.3 -82.9,-32.7 -168.6,-112.7 l 4.8,-5.1 c 84.6,79 165.5,111 166.3,111.3 l -2.5,6.5 z"
           id="path395" />
      </g>
    </g>
  </g>
</svg>
