<?xml version="1.0" encoding="iso-8859-1"?>
<!-- Generator: Adobe Illustrator 20.1.0, SVG Export Plug-In . SVG Version: 6.00 Build 0)  -->
<svg version="1.1"  xmlns="http://www.w3.org/2000/svg" xmlns:xlink="http://www.w3.org/1999/xlink" x="0px" y="0px"
	 viewBox="0 0 48 48" style="enable-background:new 0 0 48 48;" xml:space="preserve">
<path style="fill:none;stroke:#E65100;stroke-width:2;stroke-miterlimit:10;" d="M4.67,2.809c0,0,4.239,8.923,9.002,11.488"/>
<polygon style="fill:#7CB342;" points="14.706,8.657 14.957,6.4 16.796,8.49 19.387,5.647 20.474,7.988 23.232,6.233 23.65,9.075 
	27.913,7.319 27.83,10.245 30.17,9.075 29.836,12 33.681,12.084 32.678,14.341 35.938,15.929 34.015,17.517 36.941,18.604 
	35.019,21.028 38.028,21.446 35.938,23.787 38.78,24.455 37.192,26.629 40.703,26.712 39.616,28.635 42.542,28.886 40.954,30.808 
	43.712,31.31 41.873,33.4 44.632,34.57 42.542,35.49 45.3,37.663 43.378,37.83 44.52,41.04 41.121,40.171 40.877,42.978 
	38.697,41.592 37.156,43.986 35.102,41.759 33.202,44.684 31.09,41.926 29.093,44.373 27.495,42.01 25.604,44.373 24.653,41.592 
	22.271,43.211 21.895,40.171 19.092,42.203 18.551,39.335 15.759,40.807 15.458,37.997 13.278,39.489 13.201,36.66 10.642,37.319 
	10.777,34.403 7.929,34.605 8.687,31.728 5.603,31.194 6.765,28.719 3.898,27.396 5.511,25.124 3.122,23.519 4.842,21.446 
	2.967,19.178 4.926,17.852 3.743,15.147 5.929,14.425 6.611,11.813 8.938,13.004 9.105,9.743 11.78,10.914 12.031,7.319 "/>
<path style="fill:#7CB342;" d="M18.313,7c18.931,0,17.537,16.628,20.25,19.265C42.571,30.16,44,34,44,38.5
	c0,2.25-5.926,4.5-13.333,4.5S4,38.588,4,19.463c0-7.435,6.496-7.624,6.496-7.624S12.42,7,18.313,7z"/>
<path style="fill:#FFFFFF;" d="M30.667,41c-3.689,0-9.85-1.128-15.071-4.305C9.228,32.82,6,27.022,6,19.463
	c0-5.145,3.809-5.589,4.555-5.625l1.294-0.057c0,0,12.083,15.784,30.151,24.551C41.37,39.154,37.379,41,30.667,41z"/>
<path style="fill:#263238;" d="M12.942,20.627c0,0-4.538,0.346-4.053,2.003C9.373,24.287,11.716,23.647,12.942,20.627z"/>
<path style="fill:#263238;" d="M15.337,26.421c0,0-4.491,0.739-3.864,2.348C12.101,30.378,14.379,29.536,15.337,26.421z"/>
<path style="fill:#263238;" d="M19.165,31.028c0,0-4.19,1.777-3.201,3.193C16.952,35.637,18.968,34.281,19.165,31.028z"/>
<path style="fill:#263238;" d="M24.601,34.514c0,0-3.463,2.544-2.247,3.629S25.127,37.546,24.601,34.514z"/>
<path style="fill:#263238;" d="M30.305,36.189c0,0-2.718,2.528-1.566,3.339C29.891,40.337,31.06,38.737,30.305,36.189z"/>
</svg>
