<?xml version="1.0" encoding="utf-8"?>
<!-- Generator: Adobe Illustrator 15.0.0, SVG Export Plug-In . SVG Version: 6.00 Build 0)  -->
<!DOCTYPE svg PUBLIC "-//W3C//DTD SVG 1.1//EN" "http://www.w3.org/Graphics/SVG/1.1/DTD/svg11.dtd">
<svg version="1.1"  xmlns="http://www.w3.org/2000/svg" xmlns:xlink="http://www.w3.org/1999/xlink" x="0px" y="0px"
	 width="48px" height="48px" viewBox="0 0 48 48" enable-background="new 0 0 48 48" xml:space="preserve">
<path fill="#388E3C" d="M40.815,5c-2.087,4.212-10.556,4.08-13.015,9.106c-0.501,1.023-0.847,2.095-1.031,3.163
	c-0.017,0.076-0.034,0.144-0.049,0.233c-0.41,2.536-2.265,2.965-2.265,2.965l0.007,0.007c-1.501,0.495-2.951,1.389-4.185,2.634
	c-0.913,0.92-1.618,1.938-2.125,2.99c-0.007,0.011-0.013,0.017-0.02,0.027c-0.949,1.456-2.354,1.904-3.28,2.036
	c-0.308,0-0.617,0.017-0.926,0.045c-0.01-0.001-0.021-0.002-0.021-0.002l-0.001,0.005c-0.831,0.076-1.663,0.247-2.484,0.519
	c-2.07,0.685-3.865,1.933-5.051,3.512C5.718,33.107,4,35.007,4,35.007s0.806,2.29,1.161,3.381C6.071,41.189,8.922,43,12.422,43
	c1.152,0,2.313-0.191,3.453-0.568c1.943-0.643,3.634-1.783,4.816-3.226l-0.001,0.015c0,0,0.006-0.013,0.018-0.034
	c0.073-0.089,0.15-0.175,0.219-0.267c0.162-0.215,0.309-0.435,0.443-0.657c0.593-0.676,1.608-1.522,3.158-1.928
	c0.329-0.041,0.657-0.105,0.984-0.186c0.022-0.003,0.042-0.008,0.063-0.01c0.008-0.005,0.012-0.009,0.019-0.014
	c1.715-0.44,3.391-1.411,4.792-2.823c1.456-1.467,2.459-3.268,2.862-5.105l0.005,0.008c0,0,0.398-2.079,2.491-2.804
	c0.006-0.007,0.009-0.012,0.014-0.019c1.935-0.859,3.677-2.532,4.797-4.765C43.392,13.904,41.251,6.229,40.815,5z"/>
<g>
	
		<ellipse transform="matrix(0.7071 -0.7071 0.7071 0.7071 -12.4769 25.8766)" fill="#9CCC65" cx="25" cy="28" rx="5.813" ry="4.024"/>
	<path fill="#9CCC65" d="M37.156,12.312c2.006,1.004,2.443,4.142,0.976,7.006c-1.467,2.867-4.279,4.375-6.287,3.371
		c-2.006-1.004-2.444-4.143-0.978-7.007C32.335,12.814,35.149,11.306,37.156,12.312z"/>
	<path fill="#9CCC65" d="M18.862,33.575c0.672,2.244-1.184,4.929-4.145,5.991c-2.963,1.063-5.908,0.106-6.58-2.142
		c-0.673-2.243,1.184-4.928,4.145-5.99C15.244,30.37,18.19,31.329,18.862,33.575z"/>
</g>
<g>
	
		<ellipse transform="matrix(0.9089 -0.417 0.417 0.9089 -13.358 8.3421)" fill="#F1F8E9" cx="12.416" cy="34.747" rx="1.662" ry="1.149"/>
	
		<ellipse transform="matrix(0.6858 -0.7278 0.7278 0.6858 -13.3445 25.9783)" fill="#F1F8E9" cx="23.414" cy="28.444" rx="1.662" ry="1.149"/>
	
		<ellipse transform="matrix(0.3109 -0.9504 0.9504 0.3109 5.1248 43.8303)" fill="#F1F8E9" cx="32.79" cy="18.381" rx="1.661" ry="1.15"/>
</g>
</svg>
