<?xml version="1.0" encoding="iso-8859-1"?>
<!-- Generator: Adobe Illustrator 19.2.1, SVG Export Plug-In . SVG Version: 6.00 Build 0)  -->
<svg version="1.1" id="Layer_1" xmlns="http://www.w3.org/2000/svg" xmlns:xlink="http://www.w3.org/1999/xlink" x="0px" y="0px"
	 viewBox="0 0 48 48" style="enable-background:new 0 0 48 48;" xml:space="preserve">
<path style="fill:#FFD54F;" d="M31.273,11.273C31.273,15.289,24,24,24,24s-7.273-8.711-7.273-12.727S19.983,4,24,4
	S31.273,7.256,31.273,11.273z"/>
<path style="fill:#FFD54F;" d="M14.143,13.15C17.963,14.391,24,24,24,24s-10.532,4.225-14.352,2.984S3.738,21.64,4.979,17.82
	S10.323,11.909,14.143,13.15z"/>
<path style="fill:#FFD54F;" d="M10.635,30.022C12.996,26.772,24,24,24,24s0.764,11.322-1.597,14.571
	c-2.361,3.25-6.909,3.97-10.159,1.609S8.274,33.271,10.635,30.022z"/>
<path style="fill:#FFD54F;" d="M25.597,38.571C23.236,35.322,24,24,24,24s11.004,2.772,13.365,6.022s1.641,7.798-1.609,10.159
	C32.506,42.541,27.958,41.821,25.597,38.571z"/>
<path style="fill:#FFD54F;" d="M38.352,26.984C34.532,28.225,24,24,24,24s6.037-9.609,9.857-10.85S41.78,14,43.021,17.82
	S42.172,25.743,38.352,26.984z"/>
<path style="fill:#FFCA28;" d="M20,11.273C20,17.433,24,24,24,24s-7.273-8.711-7.273-12.727S19.983,4,24,4C24,4,20,5.628,20,11.273z
	"/>
<path style="fill:#FFCA28;" d="M10.66,23.871C16.519,25.775,24,24,24,24s-10.532,4.225-14.352,2.984S3.738,21.64,4.979,17.82
	C4.979,17.82,5.291,22.127,10.66,23.871z"/>
<path style="fill:#FFCA28;" d="M19.755,36.648C23.376,31.664,24,24,24,24s0.764,11.322-1.597,14.571
	c-2.361,3.25-6.909,3.97-10.159,1.609C12.244,40.18,16.437,41.214,19.755,36.648z"/>
<path style="fill:#FFCA28;" d="M34.717,31.945C31.096,26.962,24,24,24,24s11.004,2.772,13.365,6.022s1.641,7.798-1.609,10.159
	C35.756,40.18,38.035,36.512,34.717,31.945z"/>
<path style="fill:#FFCA28;" d="M34.868,16.263C29.009,18.167,24,24,24,24s6.037-9.609,9.857-10.85S41.78,14,43.021,17.82
	C43.021,17.82,40.237,14.518,34.868,16.263z"/>
<path style="fill:#E91E63;" d="M26.273,15.997C26.273,17.252,24,24,24,24s-2.273-6.748-2.273-8.003s1.018-2.273,2.273-2.273
	S26.273,14.742,26.273,15.997z"/>
<path style="fill:#E91E63;" d="M17.091,19.365C18.285,19.753,24,24,24,24s-7.12,0.076-8.314-0.312s-1.847-1.67-1.459-2.864
	C14.615,19.631,15.897,18.977,17.091,19.365z"/>
<path style="fill:#E91E63;" d="M17.457,29.139C18.195,28.123,24,24,24,24s-2.128,6.795-2.866,7.811s-2.159,1.241-3.175,0.503
	C16.944,31.576,16.719,30.154,17.457,29.139z"/>
<path style="fill:#E91E63;" d="M26.866,31.811C26.128,30.795,24,24,24,24s5.805,4.123,6.543,5.139s0.513,2.437-0.503,3.175
	C29.025,33.051,27.603,32.826,26.866,31.811z"/>
<path style="fill:#E91E63;" d="M32.314,23.688C31.12,24.076,24,24,24,24s5.715-4.247,6.909-4.635
	c1.194-0.388,2.476,0.265,2.864,1.459C34.161,22.018,33.508,23.3,32.314,23.688z"/>
</svg>
