<?xml version="1.0" encoding="UTF-8" standalone="no"?>
<svg
   xmlns:dc="http://purl.org/dc/elements/1.1/"
   xmlns:cc="http://creativecommons.org/ns#"
   xmlns:rdf="http://www.w3.org/1999/02/22-rdf-syntax-ns#"
   xmlns:svg="http://www.w3.org/2000/svg"
   xmlns="http://www.w3.org/2000/svg"
   xmlns:xlink="http://www.w3.org/1999/xlink"
   xmlns:sodipodi="http://sodipodi.sourceforge.net/DTD/sodipodi-0.dtd"
   xmlns:inkscape="http://www.inkscape.org/namespaces/inkscape"
   enable-background="new 0 0 75.95 42.95"
   version="1.1"
   viewBox="0 0 48.000002 47.999999"
   xml:space="preserve"
   id="svg2"
   inkscape:version="0.91 r13725"
   sodipodi:docname="spinach.svg"
   width="48"
   height="48"><metadata
     id="metadata849"><rdf:RDF><cc:Work
         rdf:about=""><dc:format>image/svg+xml</dc:format><dc:type
           rdf:resource="http://purl.org/dc/dcmitype/StillImage" /><dc:title></dc:title></cc:Work></rdf:RDF></metadata><defs
     id="defs847" /><sodipodi:namedview
     pagecolor="#ffffff"
     bordercolor="#666666"
     borderopacity="1"
     objecttolerance="10"
     gridtolerance="10"
     guidetolerance="10"
     inkscape:pageopacity="0"
     inkscape:pageshadow="2"
     inkscape:window-width="1110"
     inkscape:window-height="749"
     id="namedview845"
     showgrid="false"
     inkscape:zoom="4.0816328"
     inkscape:cx="37.974998"
     inkscape:cy="21.475"
     inkscape:window-x="0"
     inkscape:window-y="0"
     inkscape:window-maximized="0"
     inkscape:current-layer="svg2" /><symbol
     id="ct"
     viewBox="-0.004 -29.138 23.993 29.138"
     transform="translate(0,5.0499995)"><path
       d="m 23.05,-24.45 c 0.434,-0.8 0.7,-1.433 0.8,-1.9 0.167,-0.867 0.183,-1.733 0.05,-2.6 -0.367,-0.267 -0.717,-0.25 -1.05,0.05 -0.833,0.667 -4.667,4.433 -11.5,11.3 C 3.883,-10.133 0.1,-6.033 0,-5.3 c -0.067,0.7 0.65,1.8 2.15,3.3 0.767,0.733 1.533,1.4 2.3,2 3.333,-0.633 5.233,-1.767 5.7,-3.4 0.133,-0.434 0.467,-0.533 1,-0.3 0.633,0.3 1.067,0.383 1.3,0.25 0.566,-0.3 1.083,-0.683 1.55,-1.15 l 0.15,-0.8 c -0.367,0.033 -0.833,-0.05 -1.4,-0.25 -0.433,-0.167 -0.817,-0.45 -1.15,-0.85 -0.333,-0.4 -0.383,-0.7 -0.15,-0.9 0.167,-0.167 0.367,-0.25 0.6,-0.25 0.267,-0.033 0.517,-0.117 0.75,-0.25 0.467,-0.267 1.034,-0.75 1.7,-1.45 -0.267,-0.033 -0.5,-0.133 -0.7,-0.3 -0.367,-0.3 -0.316,-0.8 0.15,-1.5 0.133,-0.2 0.667,-0.917 1.6,-2.15 0.567,-0.767 0.967,-1.383 1.2,-1.85 0.233,-0.434 0.567,-0.9 1,-1.4 0.633,-0.667 1.083,-1.184 1.35,-1.55 0.367,-0.467 0.983,-1.267 1.85,-2.4 0.733,-0.967 1.167,-1.7 1.3,-2.2 0.1,-0.367 0.367,-0.95 0.8,-1.75 z"
       id="path5"
       inkscape:connector-curvature="0"
       style="clip-rule:evenodd;fill:#255700;fill-rule:evenodd" /></symbol><linearGradient
     id="cg"
     x1="23.031"
     x2="35.606998"
     y1="9.9644003"
     y2="30.514"
     gradientUnits="userSpaceOnUse"
     gradientTransform="matrix(1.0576138,0,0,1.0576138,0.98866067,1.5754874)"><stop
       stop-color="#1C4200"
       offset="0"
       id="stop8" /><stop
       stop-color="#1E4400"
       offset=".4392"
       id="stop10" /><stop
       stop-color="#244B01"
       offset=".5961"
       id="stop12" /><stop
       stop-color="#305602"
       offset=".7059"
       id="stop14" /><stop
       stop-color="#406704"
       offset=".7961"
       id="stop16" /><stop
       stop-color="#557D06"
       offset=".8745"
       id="stop18" /><stop
       stop-color="#6F9809"
       offset=".9451"
       id="stop20" /><stop
       stop-color="#8BB50C"
       offset="1"
       id="stop22" /></linearGradient><path
     d="m 25.789704,18.814593 c -0.528807,-1.797943 -0.493906,-3.719628 0.105761,-5.763996 0.634569,-2.150129 1.55152,-2.749796 2.749796,-1.797943 0.987812,0.81119 2.168109,2.520294 3.543006,5.129427 0.74033,1.445758 1.763043,3.472146 3.067081,6.08128 0.634568,1.092515 1.322017,2.273869 2.062346,3.543006 0.457947,0.916951 0.66947,2.027446 0.634569,3.331483 -0.03596,2.574232 -0.08778,4.018933 -0.158642,4.336217 -0.246424,1.234235 -0.898972,1.375956 -1.956586,0.423046 -2.186088,-2.045426 -4.002011,-4.265357 -5.446711,-6.662967 -0.66947,-1.127417 -1.39182,-2.820656 -2.168108,-5.076547 -0.74033,-2.291849 -1.198277,-3.719627 -1.374898,-4.283336 l -1.057614,0.74033 z"
     id="path24"
     style="clip-rule:evenodd;fill:url(#cg);fill-rule:evenodd"
     inkscape:connector-curvature="0" /><linearGradient
     id="cr"
     x1="15.732"
     x2="27.954"
     y1="7.3031998"
     y2="27.305"
     gradientUnits="userSpaceOnUse"
     gradientTransform="matrix(1.0576138,0,0,1.0576138,0.98866067,1.5754874)"><stop
       stop-color="#255700"
       offset="0"
       id="stop27" /><stop
       stop-color="#275900"
       offset=".4471"
       id="stop29" /><stop
       stop-color="#2E5F01"
       offset=".6078"
       id="stop31" /><stop
       stop-color="#396A02"
       offset=".7255"
       id="stop33" /><stop
       stop-color="#4A7904"
       offset=".8157"
       id="stop35" /><stop
       stop-color="#608E07"
       offset=".898"
       id="stop37" /><stop
       stop-color="#7BA60A"
       offset=".9647"
       id="stop39" /><stop
       stop-color="#8BB50C"
       offset="1"
       id="stop41" /></linearGradient><path
     d="m 26.741556,18.814593 c 4.441978,5.816876 6.610087,9.096536 6.504325,9.835808 C 33.14012,29.35583 32.593334,28.809044 31.60658,27.0111 28.962545,25.178255 26.794437,23.94402 25.102255,23.309452 23.762258,22.780645 22.45822,21.934554 21.189084,20.771179 19.779285,19.467141 18.703691,18.021383 17.963362,16.434962 17.117271,14.671919 16.923727,12.786194 17.381674,10.776728 17.80472,8.7313024 18.66879,8.0967341 19.972828,8.8730226 c 1.092515,0.6345683 2.343672,2.2030094 3.754529,4.7063814 1.797944,3.207743 2.802677,4.952806 3.014199,5.235189 z"
     id="path43"
     style="clip-rule:evenodd;fill:url(#cr);fill-rule:evenodd"
     inkscape:connector-curvature="0" /><linearGradient
     id="bg"
     x1="23.077"
     x2="33.824001"
     y1="1.6245"
     y2="19.176001"
     gradientUnits="userSpaceOnUse"
     gradientTransform="matrix(1.0576138,0,0,1.0576138,0.98866067,1.5754874)"><stop
       stop-color="#255700"
       offset="0"
       id="stop46" /><stop
       stop-color="#275900"
       offset=".4471"
       id="stop48" /><stop
       stop-color="#2E5F01"
       offset=".6078"
       id="stop50" /><stop
       stop-color="#396A02"
       offset=".7255"
       id="stop52" /><stop
       stop-color="#4A7904"
       offset=".8157"
       id="stop54" /><stop
       stop-color="#608E07"
       offset=".898"
       id="stop56" /><stop
       stop-color="#7BA60A"
       offset=".9647"
       id="stop58" /><stop
       stop-color="#8BB50C"
       offset="1"
       id="stop60" /></linearGradient><path
     d="m 31.870983,10.19504 c 0,1.234235 -0.01798,2.802677 -0.05288,4.706382 -0.0349,1.480659 0.05288,2.678936 0.264403,3.595887 l 0.211523,1.004733 c 0.563708,2.397611 0.846091,3.80741 0.846091,4.230455 0,1.057614 -0.758309,0.441025 -2.27387,-1.850824 -0.740329,-1.163375 -1.304038,-2.291849 -1.692182,-3.384364 -0.388144,-1.092515 -0.72235,-2.520294 -1.004733,-4.283336 C 27.992714,13.19126 27.868973,11.429275 27.79917,8.9259033 27.764269,6.7747169 27.604569,5.3300164 27.323244,4.5896868 26.9351,3.5320729 27.00596,2.7208831 27.534767,2.1571749 c 0.493905,-0.5637081 1.269136,-0.7054283 2.32675,-0.4230455 0.880992,0.2823829 1.46268,1.3220173 1.745063,3.1199608 0.176621,1.0925151 0.264403,2.8735367 0.264403,5.3409498 z"
     id="path62"
     style="clip-rule:evenodd;fill:url(#bg);fill-rule:evenodd"
     inkscape:connector-curvature="0" /><linearGradient
     id="bq"
     x1="29.402"
     x2="35.723"
     y1="10.079"
     y2="20.406"
     gradientUnits="userSpaceOnUse"
     gradientTransform="matrix(1.0576138,0,0,1.0576138,0.98866067,1.5754874)"><stop
       stop-color="#255700"
       offset="0"
       id="stop65" /><stop
       stop-color="#275900"
       offset=".4471"
       id="stop67" /><stop
       stop-color="#2E5F01"
       offset=".6078"
       id="stop69" /><stop
       stop-color="#396A02"
       offset=".7255"
       id="stop71" /><stop
       stop-color="#4A7904"
       offset=".8157"
       id="stop73" /><stop
       stop-color="#608E07"
       offset=".898"
       id="stop75" /><stop
       stop-color="#7BA60A"
       offset=".9647"
       id="stop77" /><stop
       stop-color="#8BB50C"
       offset="1"
       id="stop79" /></linearGradient><path
     d="m 32.875716,11.834341 c 1.692183,-1.339996 2.926418,-0.916951 3.701649,1.269137 0.388144,1.128474 0.493905,2.238969 0.317284,3.331484 -0.105761,0.564766 -0.246424,1.004733 -0.423046,1.322017 -0.246424,-0.105761 -0.457946,-0.0698 -0.634568,0.105762 -0.388144,0.388144 -0.459004,1.269136 -0.211523,2.644034 0.211523,1.092515 0.441025,2.25589 0.687449,3.490126 0.105762,0.634568 0,0.81119 -0.317284,0.528807 -0.563708,-0.493906 -1.287116,-1.4098 -2.168108,-2.749796 -1.092515,-1.657281 -1.727083,-2.979298 -1.903705,-3.966052 -0.140663,-0.951852 -0.01798,-2.238968 0.370165,-3.860291 l 0.581687,-2.115228 z"
     id="path81"
     style="clip-rule:evenodd;fill:url(#bq);fill-rule:evenodd"
     inkscape:connector-curvature="0" /><linearGradient
     id="br"
     x1="26.253"
     x2="22.125999"
     y1="23.868999"
     y2="29.566999"
     gradientUnits="userSpaceOnUse"
     gradientTransform="matrix(1.0576138,0,0,1.0576138,0.98866067,1.5754874)"><stop
       stop-color="#255700"
       offset="0"
       id="stop84" /><stop
       stop-color="#275900"
       offset=".4471"
       id="stop86" /><stop
       stop-color="#2E5F01"
       offset=".6078"
       id="stop88" /><stop
       stop-color="#396A02"
       offset=".7255"
       id="stop90" /><stop
       stop-color="#4A7904"
       offset=".8157"
       id="stop92" /><stop
       stop-color="#608E07"
       offset=".898"
       id="stop94" /><stop
       stop-color="#7BA60A"
       offset=".9647"
       id="stop96" /><stop
       stop-color="#8BB50C"
       offset="1"
       id="stop98" /></linearGradient><path
     d="m 27.534767,25.689083 c 0.916951,0.388144 2.538273,1.710161 4.865023,3.966052 -1.374898,-0.421988 -2.34473,-0.704371 -2.908438,-0.846091 -0.916951,-0.211523 -1.639301,-0.194601 -2.168108,0.05288 -0.775231,0.353243 -1.251157,0.59861 -1.427779,0.74033 -0.457946,0.282383 -0.846091,0.723408 -1.163375,1.322017 -0.528807,0.880992 -0.616589,1.956586 -0.264403,3.225722 -0.246424,0.0349 -0.510828,-0.0349 -0.793211,-0.211522 -0.599667,-0.352186 -1.022712,-1.110495 -1.269136,-2.272813 -0.528807,-2.644034 -0.05288,-4.512838 1.427778,-5.605353 1.057614,-0.883107 2.29185,-1.00579 3.701649,-0.371222 z"
     id="path100"
     style="clip-rule:evenodd;fill:url(#br);fill-rule:evenodd"
     inkscape:connector-curvature="0" /><linearGradient
     id="bs"
     x1="26.246"
     x2="28.091999"
     y1="26.068001"
     y2="29.07"
     gradientUnits="userSpaceOnUse"
     gradientTransform="matrix(1.0576138,0,0,1.0576138,0.98866067,1.5754874)"><stop
       stop-color="#255700"
       offset="0"
       id="stop103" /><stop
       stop-color="#275900"
       offset=".4471"
       id="stop105" /><stop
       stop-color="#2E5F01"
       offset=".6078"
       id="stop107" /><stop
       stop-color="#396A02"
       offset=".7255"
       id="stop109" /><stop
       stop-color="#4A7904"
       offset=".8157"
       id="stop111" /><stop
       stop-color="#608E07"
       offset=".898"
       id="stop113" /><stop
       stop-color="#7BA60A"
       offset=".9647"
       id="stop115" /><stop
       stop-color="#8BB50C"
       offset="1"
       id="stop117" /></linearGradient><path
     d="m 33.616046,30.554106 c -1.234235,-0.211522 -2.097248,-0.353243 -2.591154,-0.423045 -0.775231,-0.0698 -1.409799,0.105761 -1.903705,0.528807 -0.493905,0.493905 -0.86407,1.004733 -1.110494,1.53354 -0.211523,0.493905 -0.282383,0.846091 -0.211523,1.057614 -1.057614,-0.635626 -1.498639,-1.287116 -1.322017,-1.957644 0.105761,-0.421988 0.669469,-1.003675 1.692182,-1.744005 0.916951,-0.670527 1.568441,-1.057614 1.956586,-1.164433 0.388144,-0.0698 1.551519,0.653606 3.490125,2.169166 z"
     id="path119"
     style="clip-rule:evenodd;fill:url(#bs);fill-rule:evenodd"
     inkscape:connector-curvature="0" /><linearGradient
     id="bt"
     x1="17.629999"
     x2="22.566999"
     y1="16.066999"
     y2="24.139999"
     gradientUnits="userSpaceOnUse"
     gradientTransform="matrix(1.0576138,0,0,1.0576138,0.98866067,1.5754874)"><stop
       stop-color="#255700"
       offset="0"
       id="stop122" /><stop
       stop-color="#275900"
       offset=".4471"
       id="stop124" /><stop
       stop-color="#2E5F01"
       offset=".6078"
       id="stop126" /><stop
       stop-color="#396A02"
       offset=".7255"
       id="stop128" /><stop
       stop-color="#4A7904"
       offset=".8157"
       id="stop130" /><stop
       stop-color="#608E07"
       offset=".898"
       id="stop132" /><stop
       stop-color="#7BA60A"
       offset=".9647"
       id="stop134" /><stop
       stop-color="#8BB50C"
       offset="1"
       id="stop136" /></linearGradient><path
     d="m 19.073856,23.94402 c -1.797943,-2.784697 -1.850824,-4.389097 -0.158642,-4.812143 1.021655,-0.282383 2.238969,-0.05288 3.648768,0.687449 1.269136,0.634569 2.27387,1.445758 3.014199,2.432512 1.727084,2.25589 2.220989,3.402344 1.48066,3.437245 -1.127417,0.14172 -2.168109,0.229502 -3.119961,0.264403 -2.361652,0.105762 -3.984031,-0.563708 -4.865024,-2.009466 z"
     id="path138"
     style="clip-rule:evenodd;fill:url(#bt);fill-rule:evenodd"
     inkscape:connector-curvature="0" /><linearGradient
     id="bu"
     x1="33.346001"
     x2="38.493999"
     y1="18.360001"
     y2="26.761999"
     gradientUnits="userSpaceOnUse"
     gradientTransform="matrix(1.0576138,0,0,1.0576138,0.98866067,1.5754874)"><stop
       stop-color="#255700"
       offset="0"
       id="stop141" /><stop
       stop-color="#275900"
       offset=".4471"
       id="stop143" /><stop
       stop-color="#2E5F01"
       offset=".6078"
       id="stop145" /><stop
       stop-color="#396A02"
       offset=".7255"
       id="stop147" /><stop
       stop-color="#4A7904"
       offset=".8157"
       id="stop149" /><stop
       stop-color="#608E07"
       offset=".898"
       id="stop151" /><stop
       stop-color="#7BA60A"
       offset=".9647"
       id="stop153" /><stop
       stop-color="#8BB50C"
       offset="1"
       id="stop155" /></linearGradient><path
     d="m 37.264814,20.559656 c 1.727083,0.246424 2.679993,0.969832 2.855557,2.168108 0.105761,0.66947 0.05288,1.251157 -0.158642,1.745063 -0.282383,0.74033 -0.441025,1.198276 -0.475926,1.374898 -0.211523,1.621322 0,2.908438 0.634568,3.859233 0.493906,0.740329 0.459004,1.128474 -0.105761,1.164432 -0.528807,0.0349 -1.198277,-0.670527 -2.009467,-2.115227 -0.916951,-1.69324 -1.480659,-3.490126 -1.692182,-5.393831 -0.176621,-1.938606 0.140663,-2.873536 0.951853,-2.802676 z"
     id="path157"
     style="clip-rule:evenodd;fill:url(#bu);fill-rule:evenodd"
     inkscape:connector-curvature="0" /><linearGradient
     id="bv"
     x1="19.913"
     x2="30.76"
     y1="8.3809004"
     y2="32.231998"
     gradientUnits="userSpaceOnUse"
     gradientTransform="matrix(1.0576138,0,0,1.0576138,0.98866067,1.5754874)"><stop
       stop-color="#2F7000"
       offset="0"
       id="stop160" /><stop
       stop-color="#317100"
       offset=".4588"
       id="stop162" /><stop
       stop-color="#387601"
       offset=".6235"
       id="stop164" /><stop
       stop-color="#437F03"
       offset=".7412"
       id="stop166" /><stop
       stop-color="#548C05"
       offset=".8353"
       id="stop168" /><stop
       stop-color="#6A9D08"
       offset=".9176"
       id="stop170" /><stop
       stop-color="#85B00B"
       offset=".9882"
       id="stop172" /><stop
       stop-color="#8BB50C"
       offset="1"
       id="stop174" /></linearGradient><path
     d="m 34.197734,9.8777558 c 1.163375,2.2558902 1.727083,4.0538342 1.692182,5.3938312 0,0.705428 -0.123741,1.480659 -0.370165,2.32675 -0.282383,0.916951 -0.441025,1.692182 -0.475926,2.326751 -0.03596,0.705428 -0.07086,1.885725 -0.105762,3.543006 -0.176621,1.269136 -0.581687,1.797943 -1.216255,1.586421 -0.846092,-0.282383 -1.692183,-0.300363 -2.538274,-0.05288 -0.880992,0.246424 -1.198276,0.686391 -0.951852,1.322017 0.388144,0.915894 -1.850824,1.374898 -6.715848,1.374898 -2.361651,0.140663 -4.053833,0.0698 -5.076546,-0.211523 l -1.269137,-0.423045 c -0.0349,-0.282383 0.01798,-0.634568 0.158643,-1.057614 0.282382,-0.81119 0.863012,-1.498639 1.745062,-2.062347 l 2.379631,-1.53354 c 0.66947,-0.282383 1.374898,-0.194601 2.115228,0.264404 1.339997,0.77523 1.039634,0.563708 -0.898972,-0.634569 -1.551519,-0.951852 -2.626055,-1.551519 -3.225722,-1.797943 -0.564766,-0.246424 -1.198276,-0.705429 -1.903705,-1.374898 l -0.898971,-0.898972 c 0.211522,-0.211523 0.493905,-0.423045 0.846091,-0.634568 0.669469,-0.423046 1.339996,-0.634568 2.009466,-0.634568 1.022712,0.03596 2.34473,0.459004 3.966052,1.269136 l 2.220989,0.951852 c 1.304037,0.352185 1.480659,-0.193544 0.528806,-1.639302 -1.128473,-1.692182 -1.781021,-3.331484 -1.956585,-4.917905 -0.211523,-1.516618 0.01798,-2.7318163 0.687449,-3.6487674 0.846091,-1.1633752 1.322017,-2.2389685 1.427779,-3.2257221 l 2.802676,3.4901255 c 0.916951,1.163375 1.498639,2.080326 1.745063,2.749796 0,0.0349 0.158642,0.828112 0.475926,2.379631 0.140663,0.775231 0.299305,2.097249 0.475926,3.966052 l 0.05288,0.898972 c 0.0349,0 0.0349,-0.388144 0,-1.163375 -0.0349,-1.374898 0.123741,-2.520294 0.475926,-3.437245 0.457947,-0.81119 0.775231,-1.48066 0.951853,-2.009467 l 0.846091,-2.4853922 z"
     id="path176"
     style="clip-rule:evenodd;fill:url(#bv);fill-rule:evenodd"
     inkscape:connector-curvature="0" /><linearGradient
     id="bw"
     x1="23.464001"
     x2="36.662998"
     y1="10.954"
     y2="32.527"
     gradientUnits="userSpaceOnUse"
     gradientTransform="matrix(1.0576138,0,0,1.0576138,0.98866067,1.5754874)"><stop
       stop-color="#376E00"
       offset=".0118"
       id="stop179" /><stop
       stop-color="#396E00"
       offset=".7333"
       id="stop181" /><stop
       stop-color="#407002"
       offset=".9922"
       id="stop183" /><stop
       stop-color="#407002"
       offset="1"
       id="stop185" /></linearGradient><path
     d="m 26.635795,14.055331 c 0.388144,0.211522 0.898972,0.846091 1.53354,1.903705 0.66947,1.127416 1.304038,1.920627 1.903705,2.379631 0.563708,0.423045 0.898972,0.405066 1.004733,-0.05288 0.105761,-0.352185 0.475926,-0.105761 1.110494,0.74033 0.317285,0.423045 0.616589,0.880992 0.898972,1.374898 0.81119,-2.150129 1.48066,-3.648768 2.009466,-4.494859 0.951853,-1.550462 1.710162,-1.674203 2.27387,-0.370165 0.528807,1.163376 0.652548,2.449434 0.370165,3.860291 -0.282383,1.51556 -0.370165,2.467413 -0.264403,2.855557 1.163375,4.195554 1.322017,6.557206 0.475926,7.086012 -0.599667,0.352186 -0.864071,1.039635 -0.793211,2.062347 0.0698,0.950795 0.352186,1.832845 0.846091,2.644035 0.493906,0.775231 0.722351,1.516618 0.687449,2.220989 -0.0349,0.705428 -0.388144,0.79321 -1.057613,0.264403 l -1.850825,-1.480659 c -0.105761,-1.234235 -0.705428,-2.450491 -1.797943,-3.648768 -1.057614,-1.127416 -1.797944,-1.832844 -2.220989,-2.115227 -0.634568,-0.459005 -0.898972,-0.334206 -0.79321,0.370165 0.176621,1.199334 0.264403,1.850824 0.264403,1.957643 0,0.492848 -0.194601,0.669469 -0.581688,0.528807 -0.705428,-0.246424 -1.145395,-0.459005 -1.322017,-0.635626 -0.492848,-0.387087 -0.79321,-1.004733 -0.898972,-1.850824 -0.07086,-0.66947 0.0349,-1.304038 0.317285,-1.903705 0.211522,-0.493906 0.229502,-0.915894 0.05288,-1.269137 -0.0349,-0.0698 -0.08778,-0.528807 -0.158642,-1.374898 -0.0349,-0.352185 -0.352185,-0.423045 -0.951852,-0.211523 -0.775231,0.59861 -1.322017,0.987812 -1.639302,1.164433 -0.493905,0.282383 -1.163375,-0.106819 -2.009466,-1.164433 -0.423045,-0.492848 -1.216256,-1.198276 -2.379631,-2.115227 -0.492848,-0.352186 -0.652548,-0.916951 -0.475926,-1.692182 0.176621,-0.916951 0.475926,-1.586421 0.898972,-2.009466 0.352185,-0.317285 0.705428,-0.441025 1.057613,-0.370165 0.352186,0.0698 0.74033,0 1.163376,-0.211523 0.493905,-0.246424 0.723407,-0.599667 0.687449,-1.057614 -0.282383,-0.951852 -0.475927,-1.674202 -0.581688,-2.168108 -0.246424,-0.951853 -0.05288,-1.4098 0.581688,-1.374899 0.916951,0.0349 1.46268,0.08778 1.639301,0.158643 z"
     id="path187"
     style="clip-rule:evenodd;fill:url(#bw);fill-rule:evenodd"
     inkscape:connector-curvature="0" /><linearGradient
     id="bx"
     x1="22.975"
     x2="41.265999"
     y1="11.482"
     y2="41.375999"
     gradientUnits="userSpaceOnUse"
     gradientTransform="matrix(1.0576138,0,0,1.0576138,0.98866067,1.5754874)"><stop
       stop-color="#8BB50C"
       offset="0"
       id="stop190" /><stop
       stop-color="#89B30C"
       offset=".5137"
       id="stop192" /><stop
       stop-color="#82AD0B"
       offset=".702"
       id="stop194" /><stop
       stop-color="#77A309"
       offset=".8314"
       id="stop196" /><stop
       stop-color="#669307"
       offset=".9373"
       id="stop198" /><stop
       stop-color="#588705"
       offset="1"
       id="stop200" /></linearGradient><path
     d="m 45.196917,44.990535 -2.220989,-0.634569 -1.850824,-0.846091 c 0.140663,0.317285 0.140663,0.405067 0,0.264404 C 40.80782,43.562756 39.94375,42.416303 38.53395,40.337034 37.405476,38.679753 36.101439,36.511645 34.620779,33.832709 33.351643,31.575761 32.34691,29.989341 31.60658,29.073447 30.725588,27.980932 29.649994,27.0111 28.380858,26.165009 27.146622,25.424679 26.33649,24.912794 25.948346,24.631469 25.45444,24.314185 24.960535,23.803357 24.467687,23.097929 l -0.581688,-0.951852 0.74033,-1.216256 0.898972,1.269136 c 0.77523,0.916951 1.550461,1.568442 2.32675,1.956586 1.304038,0.634568 2.238968,1.163375 2.802676,1.586421 1.022713,0.740329 1.886784,1.710161 2.591154,2.908437 1.057614,1.832845 3.190821,5.28807 6.398564,10.365673 0.846091,1.4098 1.463737,2.379631 1.850824,2.908438 0.563708,0.703314 1.163375,1.215199 1.797943,1.532483 0.880993,0.459004 1.356919,0.687449 1.427779,0.687449 0.246424,0.0349 0.14172,-0.352186 -0.317284,-1.163375 -0.352185,-0.564766 -2.485393,-3.543007 -6.398564,-8.936837 -0.986753,-1.410857 -1.956585,-2.943339 -2.908438,-4.601678 -0.916951,-1.656223 -1.6044,-2.872479 -2.062346,-3.64771 C 32.505552,24.877893 31.67744,23.8023 30.548966,22.569122 29.27983,21.229125 28.345957,20.20747 27.74629,19.502042 27.00596,18.655951 26.318511,17.456617 25.683943,15.906155 l -0.687449,-2.009467 0.79321,-0.475926 0.951852,2.432512 c 0.81119,1.727084 1.604401,2.926418 2.379631,3.595887 2.784698,2.467413 4.794164,4.847044 6.028399,7.138894 2.609133,4.759262 4.6186,7.896144 6.028399,9.411705 0.987811,1.057614 1.920626,1.957643 2.802676,2.696915 0.81119,0.705428 1.163376,0.951852 1.057614,0.74033 -4.548797,-6.13416 -7.174852,-9.852731 -7.879223,-11.157826 -0.352185,-0.670527 -1.128474,-1.885725 -2.32675,-3.648768 -1.234235,-1.797943 -2.009466,-2.996219 -2.32675,-3.595887 -0.388145,-0.705428 -0.81119,-1.656223 -1.269137,-2.855557 -0.563708,-1.58642 -0.880992,-2.467413 -0.951852,-2.644034 -0.246424,-0.599668 -0.370165,-1.304039 -0.370165,-2.115228 l 0.05288,-1.004734 0.951852,-0.211522 0.211523,1.480659 c 0.246424,1.234235 0.72235,2.573175 1.427778,4.018933 1.127417,2.291849 3.437245,6.433465 6.927371,12.426962 0.669469,1.199334 1.991487,3.08506 3.966052,5.658234 1.58642,2.045425 2.467413,3.491183 2.644034,4.337274 0.282383,1.621322 -0.01692,3.243702 -0.898972,4.865024 z"
     id="path202"
     style="clip-rule:evenodd;fill:url(#bx);fill-rule:evenodd"
     inkscape:connector-curvature="0" /><linearGradient
     id="by"
     x1="19.125999"
     x2="26.598"
     y1="3.2290001"
     y2="15.456"
     gradientUnits="userSpaceOnUse"
     gradientTransform="matrix(1.0576138,0,0,1.0576138,0.98866067,1.5754874)"><stop
       stop-color="#255700"
       offset="0"
       id="stop205" /><stop
       stop-color="#275900"
       offset=".4471"
       id="stop207" /><stop
       stop-color="#2E5F01"
       offset=".6078"
       id="stop209" /><stop
       stop-color="#396A02"
       offset=".7255"
       id="stop211" /><stop
       stop-color="#4A7904"
       offset=".8157"
       id="stop213" /><stop
       stop-color="#608E07"
       offset=".898"
       id="stop215" /><stop
       stop-color="#7BA60A"
       offset=".9647"
       id="stop217" /><stop
       stop-color="#8BB50C"
       offset="1"
       id="stop219" /></linearGradient><path
     d="m 27.481886,17.545457 c 0.423046,0.669469 0.528807,1.075593 0.317284,1.216255 -0.211523,0.140663 -0.475926,0.0349 -0.79321,-0.317284 -1.797944,-1.622379 -3.384364,-3.560986 -4.759262,-5.816876 -1.974565,-3.1728418 -2.255891,-5.6762136 -0.846091,-7.5090583 0.669469,-0.8460911 1.46268,-1.0755933 2.379631,-0.687449 0.740329,0.3521854 1.392877,1.0216549 1.956585,2.0094662 0.352186,0.6694695 0.459005,1.6044001 0.317284,2.8026766 -0.176621,1.6572805 -0.246424,2.6620135 -0.211522,3.0141995 0.07086,1.127416 0.211522,2.027446 0.423045,2.696915 0.246424,0.811191 0.652548,1.674203 1.216256,2.591155 z"
     id="path221"
     style="clip-rule:evenodd;fill:url(#by);fill-rule:evenodd"
     inkscape:connector-curvature="0" /><linearGradient
     id="bz"
     x1="17.749001"
     x2="27.346001"
     y1="8.7138996"
     y2="24.391001"
     gradientUnits="userSpaceOnUse"
     gradientTransform="matrix(1.0576138,0,0,1.0576138,0.98866067,1.5754874)"><stop
       stop-color="#2C6900"
       offset="0"
       id="stop224" /><stop
       stop-color="#2E6A00"
       offset=".4549"
       id="stop226" /><stop
       stop-color="#357001"
       offset=".6196"
       id="stop228" /><stop
       stop-color="#407903"
       offset=".7333"
       id="stop230" /><stop
       stop-color="#518705"
       offset=".8275"
       id="stop232" /><stop
       stop-color="#679807"
       offset=".9098"
       id="stop234" /><stop
       stop-color="#82AE0B"
       offset=".9804"
       id="stop236" /><stop
       stop-color="#8BB50C"
       offset="1"
       id="stop238" /></linearGradient><path
     d="M 28.803903,26.482293 26.26563,25.213157 c -0.775231,-0.421988 -1.409799,-0.898972 -1.903705,-1.427779 -0.634568,-0.599667 -1.269136,-1.46268 -1.903705,-2.591154 -0.634568,-1.163375 -1.075593,-2.238968 -1.322017,-3.225722 -0.528807,-2.291849 -1.145396,-4.000953 -1.850824,-5.129428 -0.528807,-0.846091 -0.211523,-1.639301 0.951853,-2.379631 1.198276,-0.7054281 2.150128,-0.7054281 2.855557,0 0.705428,0.705429 1.551519,2.255891 2.538273,4.653502 0.916951,2.32675 1.53354,4.283336 1.850824,5.869756 0.282383,1.304038 0.74033,2.573175 1.374898,3.80741 0.211523,0.387087 0.652548,1.075593 1.322017,2.062347 0.388145,0.564766 -0.07086,0.439967 -1.374898,-0.370165 z"
     id="path240"
     style="clip-rule:evenodd;fill:url(#bz);fill-rule:evenodd"
     inkscape:connector-curvature="0" /><linearGradient
     id="ca"
     x1="25.044001"
     x2="32.839001"
     y1="1.9287"
     y2="14.682"
     gradientUnits="userSpaceOnUse"
     gradientTransform="matrix(1.0576138,0,0,1.0576138,0.98866067,1.5754874)"><stop
       stop-color="#2C6900"
       offset="0"
       id="stop243" /><stop
       stop-color="#2E6A00"
       offset=".4549"
       id="stop245" /><stop
       stop-color="#357001"
       offset=".6196"
       id="stop247" /><stop
       stop-color="#407903"
       offset=".7333"
       id="stop249" /><stop
       stop-color="#518705"
       offset=".8275"
       id="stop251" /><stop
       stop-color="#679807"
       offset=".9098"
       id="stop253" /><stop
       stop-color="#82AE0B"
       offset=".9804"
       id="stop255" /><stop
       stop-color="#8BB50C"
       offset="1"
       id="stop257" /></linearGradient><path
     d="m 33.087239,4.7483288 c 0.846091,1.4806593 1.163375,3.1199607 0.951853,4.9179042 -0.140663,1.022713 -0.457947,2.379631 -0.951853,4.071813 -0.176621,0.775231 -0.423045,1.604401 -0.740329,2.485393 -0.176622,0.634569 -0.158643,1.181355 0.05288,1.639302 0.388145,0.740329 0.388145,1.145395 0,1.216256 C 32.047605,19.184758 31.553699,18.53221 30.919131,17.122411 30.530987,16.27632 30.249661,15.430229 30.07304,14.584137 29.861517,13.2801 29.649994,12.045864 29.438472,10.882489 29.368669,10.424542 28.944566,8.9079239 28.169335,6.3347495 27.74629,4.8889915 27.710331,3.9551185 28.063574,3.5320729 c 0.598609,-0.7403297 1.304037,-1.1104945 2.115227,-1.1104945 1.092515,0 2.062347,0.7752309 2.908438,2.3267504 z"
     id="path259"
     style="clip-rule:evenodd;fill:url(#ca);fill-rule:evenodd"
     inkscape:connector-curvature="0" /><linearGradient
     id="cb"
     x1="24.743999"
     x2="31.593"
     y1="15.354"
     y2="29.23"
     gradientUnits="userSpaceOnUse"
     gradientTransform="matrix(1.0576138,0,0,1.0576138,0.98866067,1.5754874)"><stop
       stop-color="#378200"
       offset="0"
       id="stop262" /><stop
       stop-color="#398300"
       offset=".4706"
       id="stop264" /><stop
       stop-color="#408701"
       offset=".6392"
       id="stop266" /><stop
       stop-color="#4B8E03"
       offset=".7569"
       id="stop268" /><stop
       stop-color="#5C9806"
       offset=".8549"
       id="stop270" /><stop
       stop-color="#72A509"
       offset=".9373"
       id="stop272" /><stop
       stop-color="#88B20C"
       offset="1"
       id="stop274" /></linearGradient><path
     d="m 30.86625,19.449161 c 0.880993,0.599667 1.55152,1.356919 2.009466,2.27387 0.282383,0.564766 0.793211,1.657281 1.53354,3.27966 1.057614,1.868804 1.974565,2.961319 2.749796,3.278603 -1.974565,-2.678935 -2.820656,-4.565719 -2.538273,-5.658234 0.211523,-0.77523 0.599667,-1.269136 1.163375,-1.480659 0.563709,-0.211523 0.933873,-0.08778 1.110495,0.370165 0.0349,0.105761 0.0698,0.687449 0.105761,1.745063 0,0.916951 0.211523,1.763042 0.634569,2.538273 0.705428,1.304038 0.987811,2.784697 0.846091,4.44092 l -0.793211,-0.713889 c 0.114223,0.300362 0.07932,0.696967 -0.105761,1.189815 -0.282383,0.74033 -0.475926,1.164433 -0.581688,1.269137 -0.176621,0.14172 -0.475926,0.0698 -0.898971,-0.211523 -0.388145,-0.246424 -0.74033,-0.405066 -1.057614,-0.475926 l -0.423046,-0.05288 c 0.987812,1.199334 1.128474,1.903705 0.423046,2.115228 -0.459005,0.14172 -0.880993,0 -1.269137,-0.421988 L 33.298762,32.29917 c -0.317284,-0.211523 -0.986754,-0.898972 -2.009466,-2.062347 -0.66947,-0.81119 -1.39182,-1.180297 -2.168109,-1.110494 -0.916951,0.0349 -1.568441,0.176621 -1.956585,0.423045 -0.282383,0.140663 -0.546786,0.459005 -0.79321,0.950795 l -0.423046,0.900029 c -0.669469,-1.410856 -0.86407,-2.503371 -0.581688,-3.27966 0.246424,-0.775231 0.634569,-1.4447 1.163376,-2.008409 0.705428,-0.740329 1.480659,-1.039634 2.32675,-0.900029 0.951852,0.14172 1.586421,0.335264 1.903705,0.582745 0.203062,0.126914 0.493906,0.452659 0.872531,0.978293 -0.393432,-0.756194 -0.684276,-1.452104 -0.872531,-2.088787 -0.317284,-1.057614 -0.846091,-1.938606 -1.586421,-2.644035 -0.598609,-0.563708 -1.163375,-0.916951 -1.692182,-1.057614 l -0.74033,-0.264403 1.269137,-1.163375 c 1.057614,-0.66947 2.009466,-0.705429 2.855557,-0.105762 z"
     id="path276"
     style="clip-rule:evenodd;fill:url(#cb);fill-rule:evenodd"
     inkscape:connector-curvature="0" /><linearGradient
     id="cc"
     x1="24.349001"
     x2="41.849998"
     y1="13.589"
     y2="42.193001"
     gradientUnits="userSpaceOnUse"
     gradientTransform="matrix(1.0576138,0,0,1.0576138,0.98866067,1.5754874)"><stop
       stop-color="#A2CF1B"
       offset="0"
       id="stop279" /><stop
       stop-color="#A3CF1D"
       offset=".4157"
       id="stop281" /><stop
       stop-color="#A6D124"
       offset=".5647"
       id="stop283" /><stop
       stop-color="#ABD32F"
       offset=".6706"
       id="stop285" /><stop
       stop-color="#B3D640"
       offset=".7569"
       id="stop287" /><stop
       stop-color="#BCDB56"
       offset=".8275"
       id="stop289" /><stop
       stop-color="#C8E072"
       offset=".8941"
       id="stop291" /><stop
       stop-color="#D6E691"
       offset=".9529"
       id="stop293" /><stop
       stop-color="#E5EDB2"
       offset="1"
       id="stop295" /></linearGradient><path
     d="m 46.466054,44.990535 c -0.423046,0.740329 -0.880992,1.127416 -1.374898,1.164433 -0.670527,-0.106819 -1.234235,-0.194601 -1.69324,-0.264404 -0.739272,-0.07086 -1.938606,-0.79321 -3.594829,-2.169166 -1.727083,-1.4447 -2.908438,-2.766718 -3.543006,-3.966052 -0.599667,-1.092515 -1.4098,-2.168108 -2.432512,-3.225722 -0.528807,-0.563708 -1.53354,-1.479601 -3.014199,-2.749796 -0.951853,-0.882049 -2.186088,-2.273869 -3.701649,-4.177574 -1.374898,-1.763042 -2.203009,-2.943339 -2.485392,-3.543006 -0.176622,-0.423046 -0.176622,-0.758309 0,-1.004733 0.105761,-0.106819 0.211523,-0.176622 0.317284,-0.211523 l 0.79321,1.374898 c 1.022713,1.868803 2.784697,4.035854 5.288069,6.504325 0.846091,0.811189 1.621322,1.53354 2.326751,2.168108 0.457946,0.459004 1.145395,1.234235 2.062347,2.32675 2.784697,3.242644 4.441978,5.076547 4.970784,5.499592 0.705429,0.528807 1.4098,0.72235 2.115228,0.581688 l -1.163375,-2.115228 c -0.459004,-0.81119 -1.710162,-2.097248 -3.754529,-3.86029 -2.714895,-2.326751 -4.354196,-3.771451 -4.917904,-4.336217 -1.304038,-1.339997 -2.20301,-2.379631 -2.696915,-3.119961 -0.457947,-0.634568 -1.251158,-2.045425 -2.379632,-4.230455 -0.951852,-1.797943 -2.009466,-3.243701 -3.172841,-4.336216 l -1.427779,-1.163376 0.105762,-1.956585 1.745063,1.903705 c 1.339996,1.621322 2.467413,3.278602 3.384364,4.970785 1.092515,2.008408 2.044367,3.507047 2.855557,4.494858 0.74033,0.846091 2.062347,2.115228 3.966052,3.80741 1.234235,1.127416 2.39761,2.150129 3.490125,3.06708 0.775231,0.704371 1.815923,1.781022 3.119961,3.225722 1.269137,1.374898 2.097248,2.361652 2.485392,2.961319 0.141721,0.246424 0.229503,0.371222 0.264404,0.371222 0.246424,0 0.423045,-0.246424 0.528807,-0.74033 0.14172,-0.598609 -0.01798,-1.339996 -0.475926,-2.222046 -0.282383,-0.528807 -1.021655,-1.532483 -2.220989,-3.014199 -1.269137,-1.516619 -2.308771,-2.99622 -3.119961,-4.441978 -2.150129,-3.73655 -3.895192,-7.68568 -5.235188,-11.845275 -0.423046,-1.445758 -0.687449,-2.99622 -0.793211,-4.653501 l -0.05288,-2.009466 0.846091,-0.05288 0.211522,2.538273 c 0.105762,1.234236 0.581688,3.06708 1.427779,5.499592 0.81119,2.25589 1.763042,4.565719 2.855557,6.927371 0.81119,1.621322 2.044368,3.490125 3.701649,5.605353 1.832844,2.25589 3.015257,3.842311 3.544063,4.759262 0.880993,1.516618 1.339997,2.749796 1.374898,3.701648 0.03384,0.599667 -0.142777,1.252215 -0.529864,1.956586 z"
     id="path297"
     style="clip-rule:evenodd;fill:url(#cc);fill-rule:evenodd"
     inkscape:connector-curvature="0" /><linearGradient
     id="cd"
     x1="18.076"
     x2="27.5"
     y1="9.7587996"
     y2="25.174999"
     gradientUnits="userSpaceOnUse"
     gradientTransform="matrix(1.0576138,0,0,1.0576138,0.98866067,1.5754874)"><stop
       stop-color="#4E8A00"
       offset="0"
       id="stop300" /><stop
       stop-color="#508B00"
       offset=".498"
       id="stop302" /><stop
       stop-color="#579002"
       offset=".6745"
       id="stop304" /><stop
       stop-color="#629804"
       offset=".8039"
       id="stop306" /><stop
       stop-color="#73A407"
       offset=".9059"
       id="stop308" /><stop
       stop-color="#89B30C"
       offset=".9922"
       id="stop310" /><stop
       stop-color="#8BB50C"
       offset="1"
       id="stop312" /></linearGradient><path
     d="m 26.477153,24.842992 c -0.81119,-1.304038 -1.674203,-2.20301 -2.591154,-2.696915 -1.269136,-0.66947 -2.203009,-1.4098 -2.802676,-2.220989 -0.705429,-0.916952 -1.145396,-2.097249 -1.322018,-3.543007 -0.211522,-1.797944 -0.246424,-3.014199 -0.105761,-3.648768 0.246424,-0.880992 0.880992,-1.286058 1.903705,-1.216256 1.234235,0.07086 2.39761,0.793211 3.490125,2.168109 1.198277,1.445758 1.991487,3.260624 2.379631,5.446711 0.775231,4.476879 1.427779,7.209754 1.956586,8.196507 0.317284,0.564766 0.405066,0.934931 0.264403,1.111552 -0.140662,0.210465 -0.546786,-0.03596 -1.216256,-0.740329 -0.211522,-0.212581 -0.86407,-1.164433 -1.956585,-2.856615 z"
     id="path314"
     style="clip-rule:evenodd;fill:url(#cd);fill-rule:evenodd"
     inkscape:connector-curvature="0" /><linearGradient
     id="ce"
     x1="24.610001"
     x2="33.723999"
     y1="6.9355001"
     y2="21.826"
     gradientUnits="userSpaceOnUse"
     gradientTransform="matrix(1.0576138,0,0,1.0576138,0.98866067,1.5754874)"><stop
       stop-color="#4E8A00"
       offset="0"
       id="stop317" /><stop
       stop-color="#508B00"
       offset=".498"
       id="stop319" /><stop
       stop-color="#579002"
       offset=".6745"
       id="stop321" /><stop
       stop-color="#629804"
       offset=".8039"
       id="stop323" /><stop
       stop-color="#73A407"
       offset=".9059"
       id="stop325" /><stop
       stop-color="#89B30C"
       offset=".9922"
       id="stop327" /><stop
       stop-color="#8BB50C"
       offset="1"
       id="stop329" /></linearGradient><path
     d="m 32.822836,12.151625 c 0.598609,2.044368 0.933873,3.984032 1.004733,5.816877 0.03596,0.880992 0.03596,2.432512 0,4.653501 0,1.621322 0.05288,2.538273 0.158642,2.749796 0.211523,0.423045 0.246424,0.723408 0.105761,0.898971 -0.176621,0.211523 -0.563708,-0.0698 -1.163375,-0.846091 -0.388144,-0.459004 -0.652548,-0.811189 -0.79321,-1.057613 -0.211523,-0.282383 -0.634568,-1.110495 -1.269137,-2.485393 -1.657281,-3.737607 -2.556252,-5.711114 -2.696915,-5.922637 -0.388144,-0.74033 -0.599667,-1.674203 -0.634568,-2.802677 0.0349,-1.198277 0.01798,-2.062347 -0.05288,-2.591154 -0.105761,-0.8809926 0.105761,-1.6044004 0.634568,-2.1681086 0.599667,-0.6694695 1.356919,-0.7752309 2.27387,-0.3172841 0.880992,0.3881443 1.692182,1.7450628 2.432512,4.0718127 z"
     id="path331"
     style="clip-rule:evenodd;fill:url(#ce);fill-rule:evenodd"
     inkscape:connector-curvature="0" /><linearGradient
     id="cf"
     x1="31.327"
     x2="35.124001"
     y1="13.571"
     y2="19.797001"
     gradientUnits="userSpaceOnUse"
     gradientTransform="matrix(1.0576138,0,0,1.0576138,0.98866067,1.5754874)"><stop
       stop-color="#4E8A00"
       offset="0"
       id="stop334" /><stop
       stop-color="#508B00"
       offset=".498"
       id="stop336" /><stop
       stop-color="#579002"
       offset=".6745"
       id="stop338" /><stop
       stop-color="#629804"
       offset=".8039"
       id="stop340" /><stop
       stop-color="#73A407"
       offset=".9059"
       id="stop342" /><stop
       stop-color="#89B30C"
       offset=".9922"
       id="stop344" /><stop
       stop-color="#8BB50C"
       offset="1"
       id="stop346" /></linearGradient><path
     d="m 35.043825,23.045048 c -0.459005,-0.916951 -0.687449,-2.18503 -0.687449,-3.807409 0,-1.727084 0.246424,-2.979298 0.740329,-3.754529 0.493906,-0.811191 1.145396,-0.863014 1.956586,-0.158642 0.775231,0.705428 0.933873,1.356918 0.475926,1.956585 -0.916951,1.269137 -1.445758,2.449434 -1.586421,3.543006 -0.0349,0.388145 -0.0349,1.234236 0,2.538273 -0.07086,0.880993 -0.370164,0.775231 -0.898971,-0.317284 z"
     id="path348"
     style="clip-rule:evenodd;fill:url(#cf);fill-rule:evenodd"
     inkscape:connector-curvature="0" /><linearGradient
     id="ch"
     x1="17.285999"
     x2="22.219999"
     y1="18.964001"
     y2="27.033001"
     gradientUnits="userSpaceOnUse"
     gradientTransform="matrix(1.0576138,0,0,1.0576138,0.98866067,1.5754874)"><stop
       stop-color="#4E8A00"
       offset="0"
       id="stop351" /><stop
       stop-color="#508B00"
       offset=".498"
       id="stop353" /><stop
       stop-color="#579002"
       offset=".6745"
       id="stop355" /><stop
       stop-color="#629804"
       offset=".8039"
       id="stop357" /><stop
       stop-color="#73A407"
       offset=".9059"
       id="stop359" /><stop
       stop-color="#89B30C"
       offset=".9922"
       id="stop361" /><stop
       stop-color="#8BB50C"
       offset="1"
       id="stop363" /></linearGradient><path
     d="m 19.285379,26.059248 c -1.057614,0.317284 -1.727083,0.210465 -2.009466,-0.318342 -0.528807,-0.950795 -0.793211,-1.53354 -0.793211,-1.744005 0,-0.564766 0.528807,-1.110495 1.586421,-1.639302 1.234236,-0.634568 2.644035,-0.72235 4.230455,-0.264403 1.692183,0.493906 2.820656,1.409799 3.384365,2.749796 0.598609,1.4447 0.933873,2.626055 1.004733,3.543006 0.07086,0.916951 -0.228445,0.758309 -0.898972,-0.474869 -0.599667,-1.093572 -1.216256,-1.815922 -1.850824,-2.169165 -0.493906,-0.282383 -1.163375,-0.405067 -2.009466,-0.370165 -0.211523,0 -1.092515,0.229502 -2.644035,0.687449 z"
     id="path365"
     style="clip-rule:evenodd;fill:url(#ch);fill-rule:evenodd"
     inkscape:connector-curvature="0" /><linearGradient
     id="ci"
     x1="18.653"
     x2="27.448999"
     y1="10.652"
     y2="25.025999"
     gradientUnits="userSpaceOnUse"
     gradientTransform="matrix(1.0576138,0,0,1.0576138,0.98866067,1.5754874)"><stop
       stop-color="#69AB00"
       offset="0"
       id="stop368" /><stop
       stop-color="#6BAC01"
       offset=".5569"
       id="stop370" /><stop
       stop-color="#72AE03"
       offset=".7608"
       id="stop372" /><stop
       stop-color="#7DB107"
       offset=".902"
       id="stop374" /><stop
       stop-color="#8BB50C"
       offset="1"
       id="stop376" /></linearGradient><path
     d="m 24.520567,14.478376 c 0.105762,0.423046 0.123741,0.898972 0.05288,1.427779 -0.140663,0.846091 -0.317284,1.480659 -0.528807,1.903705 l 1.903705,3.278603 c 0.246424,-0.317284 0.370165,-0.846091 0.370165,-1.586421 l 0.211523,-2.115228 0.105761,0.846092 c 0.0349,0.669469 0.0349,1.251157 0,1.745062 -0.07086,0.81119 -0.193543,1.427779 -0.370165,1.850824 l 0.370165,0.951853 c 0.317284,0.775231 0.66947,1.480659 1.057614,2.115227 0.599667,0.987812 1.216256,2.133208 1.850824,3.437245 -0.246424,0.106819 -0.493906,-0.0698 -0.74033,-0.528807 l -0.423045,-0.740329 c -0.880993,-1.656223 -1.498639,-2.766718 -1.850824,-3.330426 l -0.687449,-1.269137 c -0.211523,-0.140662 -0.528807,-0.264403 -0.951853,-0.370164 l -0.951852,-0.370165 1.057614,-0.158642 0.317284,-0.105762 c -0.282383,-0.775231 -0.563708,-1.39182 -0.846091,-1.850824 l -0.793211,-1.374898 c -0.388144,0.140663 -0.811189,0.176622 -1.269136,0.105762 -0.352186,-0.0349 -0.72235,-0.140663 -1.110495,-0.317285 -0.352185,-0.140662 -0.564765,-0.246424 -0.634568,-0.317284 l -0.264403,-0.528807 1.216255,0.634569 c 0.282383,0.0698 0.81119,-0.05288 1.586421,-0.370165 l -2.220989,-4.759263 1.692182,2.802677 c 0.528807,0.74033 0.880993,1.287116 1.057614,1.639302 0.317284,-0.459005 0.510828,-1.039635 0.581688,-1.745063 l 0.05288,-1.374899 0.158642,0.474869 z"
     id="path378"
     style="clip-rule:evenodd;fill:url(#ci);fill-rule:evenodd"
     inkscape:connector-curvature="0" /><linearGradient
     id="cj"
     x1="25.136"
     x2="33.312"
     y1="8.0292997"
     y2="21.378"
     gradientUnits="userSpaceOnUse"
     gradientTransform="matrix(1.0576138,0,0,1.0576138,0.98866067,1.5754874)"><stop
       stop-color="#69AB00"
       offset="0"
       id="stop381" /><stop
       stop-color="#6BAC01"
       offset=".5569"
       id="stop383" /><stop
       stop-color="#72AE03"
       offset=".7608"
       id="stop385" /><stop
       stop-color="#7DB107"
       offset=".902"
       id="stop387" /><stop
       stop-color="#8BB50C"
       offset="1"
       id="stop389" /></linearGradient><path
     d="m 31.447938,10.93537 c 0.140662,0.634568 0.194601,1.127416 0.158642,1.480659 -0.03596,0.563708 -0.246424,1.163375 -0.634568,1.797944 l 0.317284,0.740329 c 0.246424,0.563709 0.405066,1.092516 0.475926,1.586421 l 0.317284,1.956586 c 0.282383,-0.66947 0.459005,-1.251157 0.528807,-1.745063 l 0.264403,-1.427778 0.05288,0.740329 c 0,0.563708 -0.03596,1.039635 -0.105761,1.427779 l -0.370165,1.850824 0.317284,3.119961 c 0.388144,1.797943 0.66947,2.890458 0.846091,3.278603 C 33.157041,25.354877 32.840814,24.860971 32.664193,24.262362 32.52353,23.910176 32.36383,23.168789 32.188266,22.041373 32.047604,21.053562 31.976744,20.472932 31.976744,20.29631 l -0.05288,-0.581688 c -0.317284,0.07086 -0.669469,-0.01798 -1.057614,-0.264403 -0.246424,-0.140663 -0.528807,-0.370165 -0.846091,-0.687449 l -0.370165,-0.476984 1.057614,0.634568 c 0.246424,0.07086 0.528807,0.0349 0.846091,-0.105761 -0.0698,-0.705428 -0.211523,-1.46268 -0.423045,-2.27387 l -0.793211,-2.062347 c -1.022712,0.0349 -1.639301,-0.05288 -1.850824,-0.264403 l -0.370165,-0.264404 0.528807,0.05288 c 0.352186,0.0349 0.616589,0 0.793211,-0.105761 l 0.634568,-0.264404 c -0.140663,-0.634568 -0.352186,-1.287116 -0.634568,-1.956586 l -0.951853,-2.1681081 0.370165,0.4759262 c 0.317284,0.4230459 0.581688,0.8809919 0.79321,1.3748979 l 1.004733,2.168109 c 0.282383,-0.211523 0.459005,-0.616589 0.528807,-1.216256 l 0.105762,-2.27387 0.158642,0.898972 z"
     id="path391"
     style="clip-rule:evenodd;fill:url(#cj);fill-rule:evenodd"
     inkscape:connector-curvature="0" /><linearGradient
     id="ck"
     x1="17.884001"
     x2="22.436001"
     y1="19.51"
     y2="26.934"
     gradientUnits="userSpaceOnUse"
     gradientTransform="matrix(1.0576138,0,0,1.0576138,0.98866067,1.5754874)"><stop
       stop-color="#4C7A00"
       offset=".0118"
       id="stop394" /><stop
       stop-color="#4E7C00"
       offset=".498"
       id="stop396" /><stop
       stop-color="#558202"
       offset=".6745"
       id="stop398" /><stop
       stop-color="#608D04"
       offset=".8"
       id="stop400" /><stop
       stop-color="#719D07"
       offset=".902"
       id="stop402" /><stop
       stop-color="#87B10B"
       offset=".9882"
       id="stop404" /><stop
       stop-color="#8BB50C"
       offset="1"
       id="stop406" /></linearGradient><path
     d="m 23.304312,23.309452 0.423045,0.317284 c 0.317284,0.246424 0.510828,0.493906 0.581688,0.74033 l 0.423045,1.110494 c 0.0349,0.07086 0.0349,0.106819 0,0.106819 0,0.0698 0.176622,0.317284 0.528807,0.74033 0.563708,0.704371 1.127416,1.497581 1.692182,2.379631 -0.352185,-0.14172 -0.616589,-0.353243 -0.79321,-0.635626 l -1.374898,-1.745063 c -0.246424,-0.318342 -0.493906,-0.510827 -0.74033,-0.582745 l -0.687449,-0.157585 0.475926,-0.158642 c -0.423045,-0.634568 -0.969831,-1.075593 -1.639301,-1.322017 -0.423045,-0.176621 -0.775231,-0.264403 -1.057614,-0.264403 l -0.317284,0.05288 c -0.140663,0.59861 -0.317284,0.986754 -0.528807,1.163376 l -0.475926,0.423045 c 0.423046,-0.563708 0.616589,-0.933873 0.581688,-1.110494 l -0.211523,-0.528807 c -0.352186,0.105761 -0.72235,0.211522 -1.110495,0.317284 -0.370165,0.140662 -0.661008,0.264403 -0.872531,0.370165 l 0.872531,-0.581688 0.846091,-0.317284 c -0.0698,-0.352185 -0.299304,-0.546786 -0.687449,-0.581688 l -0.634568,-0.05288 0.581688,-0.158642 c 0.423045,-0.07086 0.740329,-0.0349 0.951852,0.105761 l 0.528807,0.370165 0.528807,0 c 0.423045,0.03596 0.846091,0.158642 1.269136,0.370165 0.66947,0.352185 1.198277,0.758309 1.586421,1.216255 0.03596,-0.0349 -0.05288,-0.264403 -0.264403,-0.687448 l -0.475926,-0.898972 z"
     id="path408"
     style="clip-rule:evenodd;fill:url(#ck);fill-rule:evenodd"
     inkscape:connector-curvature="0" /><linearGradient
     id="cl"
     x1="41.720001"
     x2="42.748001"
     y1="40.071999"
     y2="41.745998"
     gradientUnits="userSpaceOnUse"
     gradientTransform="matrix(1.0576138,0,0,1.0576138,0.98866067,1.5754874)"><stop
       stop-color="#B58C22"
       offset=".0118"
       id="stop411" /><stop
       stop-color="#B89028"
       offset=".1804"
       id="stop413" /><stop
       stop-color="#C19D38"
       offset=".4039"
       id="stop415" /><stop
       stop-color="#CFB253"
       offset=".6549"
       id="stop417" /><stop
       stop-color="#E2CE79"
       offset=".9255"
       id="stop419" /><stop
       stop-color="#E8D784"
       offset="1"
       id="stop421" /></linearGradient><path
     d="m 45.091156,46.206791 c -0.423046,-0.0349 -0.723408,-0.211523 -0.900029,-0.528807 -0.210466,-0.353243 -0.105762,-0.74033 0.318341,-1.164433 0.492848,-0.528807 1.021655,-0.880992 1.586421,-1.057614 0.598609,-0.140662 0.880992,0.03596 0.846091,0.528807 -0.0349,0.423046 -0.194601,0.864071 -0.475926,1.322017 -0.387087,0.600725 -0.846091,0.90003 -1.374898,0.90003 z"
     id="path423"
     style="clip-rule:evenodd;fill:url(#cl);fill-rule:evenodd"
     inkscape:connector-curvature="0" /><use
     transform="matrix(1.0576138,0,0,-1.0576138,18.386407,20.506774)"
     x="-0.0040000002"
     y="-29.138"
     width="23.993"
     height="29.138"
     xlink:href="#ct"
     id="use425"
     style="opacity:0.62110003;enable-background:new" /><linearGradient
     id="cm"
     x1="17.323"
     x2="42.355999"
     y1="9.3227997"
     y2="9.3227997"
     gradientTransform="matrix(0.87242563,0.59786908,-0.59786908,0.87242563,0.98888187,1.575355)"
     gradientUnits="userSpaceOnUse"><stop
       stop-color="#1C4200"
       offset="0"
       id="stop428" /><stop
       stop-color="#1E4400"
       offset=".4392"
       id="stop430" /><stop
       stop-color="#244B01"
       offset=".5961"
       id="stop432" /><stop
       stop-color="#305602"
       offset=".7059"
       id="stop434" /><stop
       stop-color="#406704"
       offset=".7961"
       id="stop436" /><stop
       stop-color="#557D06"
       offset=".8745"
       id="stop438" /><stop
       stop-color="#6F9809"
       offset=".9451"
       id="stop440" /><stop
       stop-color="#8BB50C"
       offset="1"
       id="stop442" /></linearGradient><path
     d="m 17.434555,20.08373 -0.687449,1.110494 c 0.528807,0.282383 1.885725,0.969832 4.071813,2.062347 2.150129,1.092515 3.754529,2.080326 4.812143,2.961319 2.151186,1.797943 4.248435,4.124694 6.292802,6.981308 0.916951,1.304038 0.775231,2.026389 -0.423045,2.168109 -0.246424,0.0349 -1.621322,-0.0349 -4.124694,-0.211523 -1.234236,-0.105761 -2.291849,-0.441025 -3.172842,-1.004733 -1.198276,-0.987811 -2.309828,-1.903705 -3.331483,-2.749796 -2.467413,-1.797943 -4.389098,-3.190821 -5.763995,-4.177575 -2.503372,-1.832844 -4.124694,-3.384364 -4.865024,-4.6535 -0.8809918,-1.445758 -0.2993042,-2.432512 1.745063,-2.961319 1.938606,-0.459004 3.754529,-0.300362 5.446711,0.474869 z"
     id="path444"
     style="clip-rule:evenodd;fill:url(#cm);fill-rule:evenodd"
     inkscape:connector-curvature="0" /><linearGradient
     id="cn"
     x1="10.282"
     x2="35.223999"
     y1="3.8896"
     y2="3.8896"
     gradientTransform="matrix(0.87242563,0.59786908,-0.59786908,0.87242563,0.98872074,1.5755053)"
     gradientUnits="userSpaceOnUse"><stop
       stop-color="#255700"
       offset="0"
       id="stop447" /><stop
       stop-color="#275900"
       offset=".4471"
       id="stop449" /><stop
       stop-color="#2E5F01"
       offset=".6078"
       id="stop451" /><stop
       stop-color="#396A02"
       offset=".7255"
       id="stop453" /><stop
       stop-color="#4A7904"
       offset=".8157"
       id="stop455" /><stop
       stop-color="#608E07"
       offset=".898"
       id="stop457" /><stop
       stop-color="#7BA60A"
       offset=".9647"
       id="stop459" /><stop
       stop-color="#8BB50C"
       offset="1"
       id="stop461" /></linearGradient><path
     d="m 19.33826,14.954302 c 1.092515,1.586421 1.885725,3.172842 2.379631,4.759263 0.528807,1.763042 1.692182,4.389097 3.490125,7.879223 1.727084,1.304038 2.255891,1.992544 1.586421,2.062347 -0.423045,0.0349 -1.832845,-1.092515 -4.230455,-3.384365 C 20.836899,24.614547 19.144716,22.904386 17.487436,21.141343 17.310814,20.964722 15.654591,19.642705 12.516651,17.175292 10.119041,15.306488 8.6214595,13.720067 8.0217925,12.416029 7.3163641,10.829608 7.95199,9.8777558 9.9254973,9.5604716 c 1.8688037,-0.3172841 3.6487677,0.087782 5.3409497,1.2162564 1.51556,1.022712 2.873536,2.414532 4.071813,4.177574 z"
     id="path463"
     style="clip-rule:evenodd;fill:url(#cn);fill-rule:evenodd"
     inkscape:connector-curvature="0" /><linearGradient
     id="co"
     x1="10.462"
     x2="31.396"
     y1="12.996"
     y2="12.996"
     gradientTransform="matrix(0.87210834,0.59829213,-0.59829213,0.87210834,0.98881353,1.575639)"
     gradientUnits="userSpaceOnUse"><stop
       stop-color="#255700"
       offset="0"
       id="stop466" /><stop
       stop-color="#275900"
       offset=".4471"
       id="stop468" /><stop
       stop-color="#2E5F01"
       offset=".6078"
       id="stop470" /><stop
       stop-color="#396A02"
       offset=".7255"
       id="stop472" /><stop
       stop-color="#4A7904"
       offset=".8157"
       id="stop474" /><stop
       stop-color="#608E07"
       offset=".898"
       id="stop476" /><stop
       stop-color="#7BA60A"
       offset=".9647"
       id="stop478" /><stop
       stop-color="#8BB50C"
       offset="1"
       id="stop480" /></linearGradient><path
     d="M 4.1086214,25.424679 C 2.3815381,24.895872 1.3937268,24.102662 1.1473028,23.045048 0.86491985,21.846772 0.98866067,20.964722 1.5174676,20.401014 c 0.5288069,-0.563708 1.3040378,-0.563708 2.3267504,0 0.7403296,0.388144 2.1152276,0.723408 4.1246938,1.004733 2.4674132,0.352185 4.1775742,0.669469 5.1294262,0.951852 1.656224,0.528807 2.99622,1.057614 4.018933,1.586421 1.057614,0.563708 2.133207,1.339997 3.225722,2.32675 2.151186,1.939664 2.714895,2.855558 1.692182,2.750854 -0.457947,-0.0349 -1.797943,-0.493906 -4.018932,-1.374898 L 17.117271,27.275504 C 16.236278,26.958219 15.089825,26.728717 13.680026,26.588055 11.882082,26.481236 10.401424,26.358552 9.2380484,26.216832 6.7706354,25.935507 5.0604738,25.671103 4.1086214,25.424679 Z"
     id="path482"
     style="clip-rule:evenodd;fill:url(#co);fill-rule:evenodd"
     inkscape:connector-curvature="0" /><linearGradient
     id="cp"
     x1="21.454"
     x2="33.790001"
     y1="14.644"
     y2="14.644"
     gradientTransform="matrix(0.87231987,0.59797484,-0.59797484,0.87231987,0.9888291,1.5748906)"
     gradientUnits="userSpaceOnUse"><stop
       stop-color="#255700"
       offset="0"
       id="stop485" /><stop
       stop-color="#275900"
       offset=".4471"
       id="stop487" /><stop
       stop-color="#2E5F01"
       offset=".6078"
       id="stop489" /><stop
       stop-color="#396A02"
       offset=".7255"
       id="stop491" /><stop
       stop-color="#4A7904"
       offset=".8157"
       id="stop493" /><stop
       stop-color="#608E07"
       offset=".898"
       id="stop495" /><stop
       stop-color="#7BA60A"
       offset=".9647"
       id="stop497" /><stop
       stop-color="#8BB50C"
       offset="1"
       id="stop499" /></linearGradient><path
     d="m 10.718707,27.539907 2.062347,-0.475926 c 1.516618,-0.246424 2.731817,-0.246424 3.648768,0 0.986753,0.282383 2.238968,1.128474 3.754529,2.538273 1.269136,1.163375 2.133207,2.097248 2.591154,2.802677 0.282383,0.421987 0.12374,0.546786 -0.475927,0.370164 -1.163375,-0.423045 -2.273869,-0.811189 -3.331483,-1.163375 -1.304038,-0.423045 -2.133207,-0.441025 -2.485393,-0.05394 -0.176621,0.211523 -0.229502,0.459004 -0.158642,0.74033 -0.282382,0.176621 -0.687449,0.299304 -1.216255,0.371222 -1.022713,0.105761 -2.080327,-0.123741 -3.172842,-0.687449 C 9.819736,30.854467 9.4146699,29.37275 10.718707,27.539905 Z"
     id="path501"
     style="clip-rule:evenodd;fill:url(#cp);fill-rule:evenodd"
     inkscape:connector-curvature="0" /><linearGradient
     id="cq"
     x1="8.9692001"
     x2="17.653"
     y1="-28.482"
     y2="-28.482"
     gradientTransform="matrix(-0.21617626,1.0352982,-1.0352982,-0.21617626,0.98804052,1.5754252)"
     gradientUnits="userSpaceOnUse"><stop
       stop-color="#255700"
       offset="0"
       id="stop504" /><stop
       stop-color="#275900"
       offset=".4471"
       id="stop506" /><stop
       stop-color="#2E5F01"
       offset=".6078"
       id="stop508" /><stop
       stop-color="#396A02"
       offset=".7255"
       id="stop510" /><stop
       stop-color="#4A7904"
       offset=".8157"
       id="stop512" /><stop
       stop-color="#608E07"
       offset=".898"
       id="stop514" /><stop
       stop-color="#7BA60A"
       offset=".9647"
       id="stop516" /><stop
       stop-color="#8BB50C"
       offset="1"
       id="stop518" /></linearGradient><path
     d="m 27.00596,22.886406 c -0.211523,0.528807 -0.229502,1.339997 -0.05288,2.432512 0.140663,0.634568 0.405066,1.781022 0.793211,3.437245 -2.115228,-2.890459 -3.366385,-4.899925 -3.754529,-6.028399 -0.563709,-1.621322 -0.441025,-3.032179 0.370164,-4.230455 1.092515,-1.515561 2.890459,-1.850824 5.393831,-1.004733 1.092515,0.352185 1.797943,0.898972 2.115227,1.639301 0.176622,0.352186 0.246424,0.66947 0.211523,0.951853 -1.198276,-0.528807 -2.220989,-0.546787 -3.06708,-0.05288 -0.563708,0.317284 -0.986754,0.72235 -1.269136,1.216256 -0.140663,0.211523 -0.388145,0.758309 -0.74033,1.639301 z"
     id="path520"
     style="clip-rule:evenodd;fill:url(#cq);fill-rule:evenodd"
     inkscape:connector-curvature="0" /><linearGradient
     id="cs"
     x1="32.73"
     x2="36.848999"
     y1="4.1567001"
     y2="4.1567001"
     gradientTransform="matrix(0.8730602,0.59702299,-0.59702299,0.8730602,0.98857228,1.5756154)"
     gradientUnits="userSpaceOnUse"><stop
       stop-color="#255700"
       offset="0"
       id="stop523" /><stop
       stop-color="#275900"
       offset=".4471"
       id="stop525" /><stop
       stop-color="#2E5F01"
       offset=".6078"
       id="stop527" /><stop
       stop-color="#396A02"
       offset=".7255"
       id="stop529" /><stop
       stop-color="#4A7904"
       offset=".8157"
       id="stop531" /><stop
       stop-color="#608E07"
       offset=".898"
       id="stop533" /><stop
       stop-color="#7BA60A"
       offset=".9647"
       id="stop535" /><stop
       stop-color="#8BB50C"
       offset="1"
       id="stop537" /></linearGradient><path
     d="m 28.5395,30.289703 c -1.409799,-2.397611 -2.062347,-3.825389 -1.956586,-4.284394 0.0698,-0.387086 0.441025,-1.092515 1.110495,-2.115227 0.705428,-1.092515 1.269136,-1.692182 1.692182,-1.797944 0.598609,-0.140662 1.198276,0.423046 1.797943,1.692182 -0.246424,-0.07086 -0.563708,-0.01798 -0.951852,0.158642 -0.528807,0.246424 -1.022713,0.634569 -1.480659,1.163376 -0.423046,0.493905 -0.599667,1.216256 -0.528807,2.168108 0.0349,0.564766 0.140662,1.569499 0.317284,3.015257 z"
     id="path539"
     style="clip-rule:evenodd;fill:url(#cs);fill-rule:evenodd"
     inkscape:connector-curvature="0" /><linearGradient
     id="ax"
     x1="18.583"
     x2="29.033001"
     y1="0.79589999"
     y2="0.79589999"
     gradientTransform="matrix(0.87295443,0.59712875,-0.59712875,0.87295443,0.98845282,1.5756589)"
     gradientUnits="userSpaceOnUse"><stop
       stop-color="#255700"
       offset="0"
       id="stop542" /><stop
       stop-color="#275900"
       offset=".4471"
       id="stop544" /><stop
       stop-color="#2E5F01"
       offset=".6078"
       id="stop546" /><stop
       stop-color="#396A02"
       offset=".7255"
       id="stop548" /><stop
       stop-color="#4A7904"
       offset=".8157"
       id="stop550" /><stop
       stop-color="#608E07"
       offset=".898"
       id="stop552" /><stop
       stop-color="#7BA60A"
       offset=".9647"
       id="stop554" /><stop
       stop-color="#8BB50C"
       offset="1"
       id="stop556" /></linearGradient><path
     d="m 22.40534,12.786194 c 1.269136,1.127416 1.903705,3.08506 1.903705,5.869757 -0.0349,1.092515 -0.140663,2.291849 -0.317284,3.595887 -0.0349,0.81119 -1.110495,0.123741 -3.225723,-2.062347 -0.951852,-0.987811 -1.727083,-2.238968 -2.32675,-3.754529 -0.66947,-1.692182 -0.880992,-3.119961 -0.634568,-4.283337 0.246424,-1.092515 0.86407,-1.480659 1.850824,-1.163375 0.669469,0.211523 1.586421,0.81119 2.749796,1.797944 z"
     id="path558"
     style="clip-rule:evenodd;fill:url(#ax);fill-rule:evenodd"
     inkscape:connector-curvature="0" /><linearGradient
     id="ay"
     x1="30.966"
     x2="41.09"
     y1="14.703"
     y2="14.703"
     gradientTransform="matrix(0.87231987,0.59808061,-0.59808061,0.87231987,0.98873347,1.5753319)"
     gradientUnits="userSpaceOnUse"><stop
       stop-color="#255700"
       offset="0"
       id="stop561" /><stop
       stop-color="#275900"
       offset=".4471"
       id="stop563" /><stop
       stop-color="#2E5F01"
       offset=".6078"
       id="stop565" /><stop
       stop-color="#396A02"
       offset=".7255"
       id="stop567" /><stop
       stop-color="#4A7904"
       offset=".8157"
       id="stop569" /><stop
       stop-color="#608E07"
       offset=".898"
       id="stop571" /><stop
       stop-color="#7BA60A"
       offset=".9647"
       id="stop573" /><stop
       stop-color="#8BB50C"
       offset="1"
       id="stop575" /></linearGradient><path
     d="m 19.020976,33.462544 c -0.0698,-0.951852 0.811189,-1.216256 2.644034,-0.79321 1.832845,0.457947 3.543006,1.304038 5.129427,2.537215 1.374898,1.057614 2.045425,1.885726 2.009466,2.486451 -0.0349,0.634568 -0.405066,0.634568 -1.110494,0 -0.916951,-0.81119 -2.133207,-1.181355 -3.648768,-1.111553 -0.211523,0 -0.652548,0.141721 -1.322017,0.423046 -0.492848,0.176621 -1.039634,0.176621 -1.639301,0 -1.234236,-0.351128 -1.921685,-1.532482 -2.062347,-3.541949 z"
     id="path577"
     style="clip-rule:evenodd;fill:url(#ay);fill-rule:evenodd"
     inkscape:connector-curvature="0" /><linearGradient
     id="az"
     x1="14.972"
     x2="42.408001"
     y1="2.9063001"
     y2="2.9063001"
     gradientTransform="matrix(0.79310459,0.69961153,-0.69961153,0.79310459,0.98876128,1.5752398)"
     gradientUnits="userSpaceOnUse"><stop
       stop-color="#2F7000"
       offset="0"
       id="stop580" /><stop
       stop-color="#317100"
       offset=".4588"
       id="stop582" /><stop
       stop-color="#387601"
       offset=".6235"
       id="stop584" /><stop
       stop-color="#437F03"
       offset=".7412"
       id="stop586" /><stop
       stop-color="#548C05"
       offset=".8353"
       id="stop588" /><stop
       stop-color="#6A9D08"
       offset=".9176"
       id="stop590" /><stop
       stop-color="#85B00B"
       offset=".9882"
       id="stop592" /><stop
       stop-color="#8BB50C"
       offset="1"
       id="stop594" /></linearGradient><path
     d="m 25.948346,18.338667 c -0.0349,5.605353 -0.493906,8.143626 -1.374898,7.614819 -0.634568,-0.387086 -1.075593,-0.0698 -1.322017,0.951853 -0.211523,0.950795 -0.193543,1.938606 0.05288,2.961318 0.211522,0.775231 -0.282383,1.180297 -1.48066,1.216256 -1.58642,-0.106819 -2.714894,-0.176621 -3.384364,-0.211523 -0.634568,0 -1.374898,0.08778 -2.220989,0.264404 -0.81119,0.211523 -1.551519,0.299305 -2.220989,0.264403 -1.269137,-0.0698 -2.97824,-0.900029 -5.1294265,-2.48645 l 2.3796305,-0.739272 c 0.492848,-0.14172 1.145396,-0.441025 1.956586,-0.900029 0.811189,-0.352185 1.886783,-0.421988 3.225722,-0.211523 l 1.110494,0.158642 c 0,-0.0349 -0.282383,-0.105761 -0.846091,-0.211523 C 14.86138,26.622956 13.609165,26.305672 12.939695,26.059248 11.529897,25.600243 10.771588,25.33584 10.665827,25.266037 10.031259,24.947696 9.1671882,24.190444 8.0746732,22.992168 L 4.7431897,19.396281 c 0.9518524,0 1.9914868,-0.441025 3.1199607,-1.322018 0.8809923,-0.669469 2.0274457,-0.811189 3.4372446,-0.423045 1.51556,0.388144 3.085059,1.304038 4.706381,2.749796 1.374898,1.234235 1.903705,1.093572 1.586421,-0.423046 l -0.898972,-2.696915 c -0.775231,-1.938606 -1.163375,-3.508105 -1.163375,-4.706382 0,-0.74033 0.211523,-1.480659 0.634568,-2.220989 0.176622,-0.3881443 0.370165,-0.687449 0.581688,-0.8989718 l 0.846091,1.1104948 c 0.634568,0.880992 1.057614,1.657281 1.269137,2.32675 0.211522,0.705429 0.77523,2.009467 1.692182,3.913172 1.51556,3.172841 1.710161,3.543006 0.581687,1.110494 -0.423045,-0.916951 -0.492848,-1.745062 -0.211523,-2.485392 0.563709,-0.987812 1.057614,-1.868804 1.48066,-2.644035 0.563708,-0.951853 1.234235,-1.55152 2.009466,-1.797944 0.388144,-0.105761 0.723408,-0.123741 1.004733,-0.05288 l 0.370165,1.53354 c 0.282383,1.057614 0.335264,3.014201 0.158642,5.869758 z"
     id="path596"
     style="clip-rule:evenodd;fill:url(#az);fill-rule:evenodd"
     inkscape:connector-curvature="0" /><linearGradient
     id="ba"
     x1="18.127001"
     x2="44.801998"
     y1="8.7948999"
     y2="8.7948999"
     gradientTransform="matrix(0.87242563,0.59786908,-0.59786908,0.87242563,0.98881032,1.575386)"
     gradientUnits="userSpaceOnUse"><stop
       stop-color="#376E00"
       offset=".0118"
       id="stop599" /><stop
       stop-color="#396E00"
       offset=".7333"
       id="stop601" /><stop
       stop-color="#407002"
       offset=".9922"
       id="stop603" /><stop
       stop-color="#407002"
       offset="1"
       id="stop605" /></linearGradient><path
     d="m 23.304312,18.655951 c 0.951852,1.092515 1.287116,1.903705 1.004733,2.432512 -0.176622,0.352185 -0.546787,0.933873 -1.110495,1.745063 -0.176621,0.705428 -0.105761,1.092515 0.211523,1.163375 0.775231,0.140662 1.216256,0.246424 1.322017,0.317284 0.352186,0.211523 0.757252,0.229502 1.216256,0.05288 0.563708,-0.246424 1.163375,-0.299305 1.797944,-0.158642 0.811189,0.176621 1.409799,0.563708 1.797943,1.163375 0.176621,0.317284 0.370165,0.863013 0.581688,1.639301 0.105761,0.459004 -0.0698,0.652548 -0.528807,0.581688 -0.105762,0 -0.722351,-0.157585 -1.850824,-0.474869 -0.66947,-0.176621 -0.793211,0.122683 -0.370165,0.898972 0.282383,0.493905 0.951852,1.409799 2.009466,2.749796 1.128474,1.409799 2.27387,2.219931 3.437245,2.431454 l 1.427778,2.325693 c 0.457947,0.811189 0.352186,1.216255 -0.317284,1.216255 -0.669469,-0.0349 -1.374898,-0.370164 -2.115227,-1.004733 -0.775231,-0.669469 -1.586421,-1.092515 -2.432512,-1.269136 -0.987811,-0.210465 -1.657281,0.01798 -2.009466,0.687449 -0.493906,0.915893 -2.749796,0.493905 -6.768729,-1.269137 -0.352185,-0.140662 -1.269136,-0.122683 -2.749796,0.05288 -1.304037,0.176621 -2.520293,-0.08778 -3.648767,-0.79321 -1.269137,-0.81119 -1.128474,-1.692183 0.423045,-2.644035 0.81119,-0.528807 2.238969,-1.145396 4.283336,-1.850824 -0.459004,-0.387087 -0.898971,-0.79321 -1.322017,-1.215198 -0.775231,-0.81119 -1.004733,-1.252215 -0.687449,-1.322018 0.423046,-0.0698 0.441025,-0.459004 0.05288,-1.164432 -0.423046,-0.74033 -1.163375,-1.53354 -2.220989,-2.379631 -0.986754,-0.846092 -1.586421,-1.516619 -1.797944,-2.009467 -0.0698,-0.176621 -0.123741,-0.81119 -0.158642,-1.903705 -0.0349,-0.740329 0.405066,-0.916951 1.322017,-0.528806 0.493906,0.176621 1.181355,0.475926 2.062347,0.898971 0.423046,0.07086 0.758309,-0.158642 1.004733,-0.687449 0.211523,-0.459004 0.282383,-0.898971 0.211523,-1.322017 -0.07086,-0.423045 0.05288,-0.81119 0.370165,-1.163375 0.423046,-0.457947 1.057614,-0.74033 1.903705,-0.846092 0.74033,-0.105761 1.287116,0.123742 1.639301,0.68745 0.880993,1.446815 1.55152,2.433569 2.009467,2.962376 z"
     id="path607"
     style="clip-rule:evenodd;fill:url(#ba);fill-rule:evenodd"
     inkscape:connector-curvature="0" /><linearGradient
     id="bb"
     x1="18.329"
     x2="55.366001"
     y1="8.8359003"
     y2="8.8359003"
     gradientTransform="matrix(0.8722141,0.59818637,-0.59818637,0.8722141,0.98883244,1.5751599)"
     gradientUnits="userSpaceOnUse"><stop
       stop-color="#8BB50C"
       offset="0"
       id="stop610" /><stop
       stop-color="#89B30C"
       offset=".5137"
       id="stop612" /><stop
       stop-color="#82AD0B"
       offset=".702"
       id="stop614" /><stop
       stop-color="#77A309"
       offset=".8314"
       id="stop616" /><stop
       stop-color="#669307"
       offset=".9373"
       id="stop618" /><stop
       stop-color="#588705"
       offset="1"
       id="stop620" /></linearGradient><path
     d="m 24.044641,26.376532 c -0.352185,-0.59861 -0.863013,-1.727084 -1.53354,-3.384364 -0.352185,-0.951853 -0.951852,-1.921685 -1.797943,-2.908438 l -1.216256,-1.163376 1.163375,-0.687448 0.898972,0.79321 c 0.669469,0.634568 1.163375,1.234235 1.480659,1.797943 0.246424,0.492848 0.705428,1.498639 1.374898,3.0142 0.775231,1.516618 1.710162,2.838635 2.802677,3.966051 0.880992,0.951853 2.379631,2.256948 4.494858,3.913172 2.538273,2.009466 4.565719,3.736549 6.08128,5.182307 1.974565,1.868804 3.085059,2.978241 3.331483,3.330426 0.105762,0.176622 0.01798,0.176622 -0.264403,0 l 0.79321,2.222047 0.528807,2.590096 c -0.388144,0.211523 -0.863013,0.406124 -1.428836,0.582745 -1.163375,0.317284 -2.220989,0.317284 -3.172842,0 -1.234235,-0.388144 -2.890458,-1.357976 -4.970785,-2.908438 -2.18503,-1.622379 -3.683668,-3.050158 -4.494858,-4.284393 -0.775231,-1.198277 -2.538273,-2.99622 -5.288069,-5.393831 -2.503372,-2.220989 -4.67148,-3.966052 -6.504325,-5.235188 -1.374898,-0.950795 -2.662014,-1.639302 -3.860291,-2.062347 l -1.374898,-0.370165 0.264404,-1.057614 0.951852,0 c 0.74033,0.07086 1.4098,0.282383 2.009467,0.634569 0.0349,0 0.863012,0.459004 2.485392,1.375955 1.127416,0.634568 2.027446,1.215198 2.696915,1.744005 0.599667,0.459005 1.727084,1.463738 3.384364,3.015257 1.727084,1.586421 2.890459,2.608076 3.490126,3.066023 1.234235,0.951852 4.759262,4.337274 10.576138,10.15415 0.211523,0.175564 -0.0349,-0.246424 -0.74033,-1.269137 -0.740329,-1.127416 -1.58642,-2.291849 -2.538273,-3.490125 -1.374898,-1.763043 -4.354196,-4.389098 -8.936836,-7.879223 -2.151187,-1.69324 -4.371118,-4.248435 -6.662967,-7.6677 -0.634569,-0.951853 -1.779964,-1.974565 -3.437245,-3.06708 l -2.325693,-1.374898 0.475926,-0.898972 1.956586,1.004733 c 1.445758,0.880992 2.556252,1.797944 3.331483,2.749796 0.66947,0.775231 1.639302,1.956586 2.908438,3.543006 1.163375,1.410857 2.186088,2.468471 3.06708,3.172842 0.74033,0.598609 1.903705,1.516618 3.490126,2.750853 1.51556,1.233178 2.943339,2.520294 4.283336,3.859233 1.128474,1.092515 2.749796,2.696915 4.865023,4.812143 1.763042,1.693239 2.979298,2.820656 3.648768,3.384364 0.740329,0.635626 1.092515,0.81119 1.057614,0.528807 0,-0.0698 -0.211523,-0.65149 -0.635626,-1.744005 -0.282383,-0.775231 -0.757252,-1.516618 -1.427779,-2.222047 -0.528807,-0.528807 -1.445758,-1.322017 -2.749796,-2.379631 -4.794163,-4.230455 -8.055844,-7.050054 -9.782928,-8.46091 -1.127416,-0.915894 -2.043309,-2.009467 -2.748738,-3.278603 z"
     id="path622"
     style="clip-rule:evenodd;fill:url(#bb);fill-rule:evenodd"
     inkscape:connector-curvature="0" /><linearGradient
     id="bc"
     x1="9.0703001"
     x2="23.924999"
     y1="7.9502001"
     y2="7.9502001"
     gradientTransform="matrix(0.8722141,0.59808061,-0.59808061,0.8722141,0.98855439,1.5752486)"
     gradientUnits="userSpaceOnUse"><stop
       stop-color="#255700"
       offset="0"
       id="stop625" /><stop
       stop-color="#275900"
       offset=".4471"
       id="stop627" /><stop
       stop-color="#2E5F01"
       offset=".6078"
       id="stop629" /><stop
       stop-color="#396A02"
       offset=".7255"
       id="stop631" /><stop
       stop-color="#4A7904"
       offset=".8157"
       id="stop633" /><stop
       stop-color="#608E07"
       offset=".898"
       id="stop635" /><stop
       stop-color="#7BA60A"
       offset=".9647"
       id="stop637" /><stop
       stop-color="#8BB50C"
       offset="1"
       id="stop639" /></linearGradient><path
     d="m 7.7045083,13.103478 c 1.2342354,0.317284 2.5382727,1.075593 3.9131707,2.27387 1.692182,1.445758 3.525027,3.455225 5.499592,6.028399 0.317284,0.457947 0.405066,0.775231 0.264403,0.951852 -0.140662,0.246424 -0.528807,0.08778 -1.163375,-0.475926 -0.846091,-0.74033 -1.639301,-1.287116 -2.379631,-1.639301 -0.66947,-0.282383 -1.53354,-0.528807 -2.591154,-0.74033 C 10.85937,19.431182 9.8726166,19.41426 8.2861959,19.449161 7.1587796,19.484063 6.2767297,19.255618 5.6421614,18.761712 4.7252103,18.056284 4.1086214,17.246152 3.7913373,16.329201 3.403193,15.235628 3.6147158,14.337713 4.4259056,13.632285 5.3068979,12.926856 6.4004705,12.751293 7.7045083,13.103478 Z"
     id="path641"
     style="clip-rule:evenodd;fill:url(#bc);fill-rule:evenodd"
     inkscape:connector-curvature="0" /><linearGradient
     id="bd"
     x1="12.742"
     x2="32.110001"
     y1="4.3203001"
     y2="4.3203001"
     gradientTransform="matrix(0.87231987,0.59797484,-0.59797484,0.87231987,0.98875762,1.5756407)"
     gradientUnits="userSpaceOnUse"><stop
       stop-color="#2C6900"
       offset="0"
       id="stop644" /><stop
       stop-color="#2E6A00"
       offset=".4549"
       id="stop646" /><stop
       stop-color="#357001"
       offset=".6196"
       id="stop648" /><stop
       stop-color="#407903"
       offset=".7333"
       id="stop650" /><stop
       stop-color="#518705"
       offset=".8275"
       id="stop652" /><stop
       stop-color="#679807"
       offset=".9098"
       id="stop654" /><stop
       stop-color="#82AE0B"
       offset=".9804"
       id="stop656" /><stop
       stop-color="#8BB50C"
       offset="1"
       id="stop658" /></linearGradient><path
     d="m 24.73209,24.314185 c 0.74033,1.586421 0.863013,2.133207 0.370165,1.639301 -1.938606,-1.832844 -3.80741,-3.06708 -5.605353,-3.701648 C 17.981341,21.723031 16.130517,20.80608 13.944429,19.502042 11.65258,18.092243 10.189901,16.963769 9.5553325,16.117678 8.885863,15.236686 8.9027848,14.143112 9.6082132,12.839074 c 0.7054288,-1.269136 1.4457578,-1.568441 2.2209888,-0.898971 0.740329,0.634568 1.498639,1.163375 2.273869,1.586421 0.563709,0.317284 1.427779,0.687449 2.591154,1.110494 0.951853,0.352186 1.991487,0.969832 3.119961,1.850825 0.987811,0.81119 1.797943,1.621322 2.432512,2.432511 0.457947,0.634569 0.898971,1.427779 1.322017,2.379632 0.246424,0.563708 0.634568,1.568441 1.163375,3.014199 z"
     id="path660"
     style="clip-rule:evenodd;fill:url(#bd);fill-rule:evenodd"
     inkscape:connector-curvature="0" /><linearGradient
     id="be"
     x1="11.827"
     x2="27.02"
     y1="14.649"
     y2="14.649"
     gradientTransform="matrix(0.87189682,0.59860941,-0.59860941,0.87189682,0.98888269,1.5752772)"
     gradientUnits="userSpaceOnUse"><stop
       stop-color="#2C6900"
       offset="0"
       id="stop663" /><stop
       stop-color="#2E6A00"
       offset=".4549"
       id="stop665" /><stop
       stop-color="#357001"
       offset=".6196"
       id="stop667" /><stop
       stop-color="#407903"
       offset=".7333"
       id="stop669" /><stop
       stop-color="#518705"
       offset=".8275"
       id="stop671" /><stop
       stop-color="#679807"
       offset=".9098"
       id="stop673" /><stop
       stop-color="#82AE0B"
       offset=".9804"
       id="stop675" /><stop
       stop-color="#8BB50C"
       offset="1"
       id="stop677" /></linearGradient><path
     d="m 15.795254,25.794844 c 1.339996,0.915894 1.956585,1.568441 1.850824,1.956586 -0.07086,0.387086 -0.457947,0.352185 -1.163376,-0.105762 -0.457946,-0.318341 -0.969831,-0.406123 -1.53354,-0.264403 -1.516618,0.387087 -2.309828,0.581688 -2.379631,0.581688 -1.622379,0.421987 -2.9264166,0.65149 -3.9131702,0.686391 C 6.9292774,28.756163 5.3597785,28.245335 3.9499793,27.116861 2.46932,25.953486 1.7289904,24.73723 1.7289904,23.468094 c 0.034901,-0.951853 0.405066,-1.727083 1.1104944,-2.326751 0.3881443,-0.352185 1.2691366,-0.211522 2.6440346,0.423046 2.3976104,1.092515 3.8602903,1.727083 4.3890972,1.903705 1.0925144,0.352185 2.2558894,0.72235 3.4901254,1.110494 0.81119,0.282383 1.621322,0.687449 2.432512,1.216256 z"
     id="path679"
     style="clip-rule:evenodd;fill:url(#be);fill-rule:evenodd"
     inkscape:connector-curvature="0" /><linearGradient
     id="bf"
     x1="23.052999"
     x2="39.727001"
     y1="4.5176001"
     y2="4.5176001"
     gradientTransform="matrix(0.81510296,0.67391152,-0.67391152,0.81510296,0.98890507,1.5748652)"
     gradientUnits="userSpaceOnUse"><stop
       stop-color="#378200"
       offset="0"
       id="stop682" /><stop
       stop-color="#398300"
       offset=".4706"
       id="stop684" /><stop
       stop-color="#408701"
       offset=".6392"
       id="stop686" /><stop
       stop-color="#4B8E03"
       offset=".7569"
       id="stop688" /><stop
       stop-color="#5C9806"
       offset=".8549"
       id="stop690" /><stop
       stop-color="#72A509"
       offset=".9373"
       id="stop692" /><stop
       stop-color="#88B20C"
       offset="1"
       id="stop694" /></linearGradient><path
     d="m 22.987027,26.376532 c 0.613416,0.290844 1.282886,0.714947 2.009467,1.269136 -0.50554,-0.542556 -0.821766,-0.9307 -0.951853,-1.164432 -0.211523,-0.387087 -0.388144,-1.127417 -0.528807,-2.220989 -0.105761,-0.987812 0.194601,-1.850825 0.898972,-2.591154 0.528807,-0.563708 1.163375,-0.969832 1.903705,-1.216256 0.74033,-0.211523 1.779964,0.140663 3.119961,1.057614 l -0.846091,0.370165 c -0.459005,0.246424 -0.75831,0.528806 -0.898972,0.846091 -0.246424,0.423045 -0.405066,1.145395 -0.475926,2.168108 -0.0698,0.88205 0.282382,1.763042 1.057613,2.644034 1.093573,1.269137 1.745063,2.133207 1.956586,2.591154 l 0.634568,0.581688 c 0.388145,0.459004 0.510828,0.951852 0.370165,1.480659 -0.211523,0.81119 -0.880992,0.581688 -2.009466,-0.687449 l 0.05288,0.475926 c 0.07086,0.387087 0.211522,0.81119 0.423045,1.269137 0.246424,0.528807 0.317284,0.880992 0.211523,1.057614 -0.07086,0.105761 -0.475926,0.282383 -1.216256,0.528807 -0.523519,0.196716 -0.910606,0.196716 -1.163375,0 l 0.687449,1.004733 c -1.586421,0 -2.99622,-0.459005 -4.230455,-1.375956 -0.74033,-0.563708 -1.55152,-0.898972 -2.432512,-1.003675 -1.022713,-0.141721 -1.568442,-0.229503 -1.639302,-0.264404 -0.423045,-0.246424 -0.528807,-0.687449 -0.317284,-1.322017 0.211523,-0.670527 0.687449,-1.075593 1.427779,-1.216256 1.021655,-0.246424 2.802676,0.915894 5.34095,3.490126 -0.282383,-0.950795 -1.322018,-2.115228 -3.119961,-3.490126 -1.515561,-1.022712 -2.538273,-1.745063 -3.06708,-2.168108 -0.880992,-0.59861 -1.6044,-1.428836 -2.168108,-2.48645 -0.563709,-1.057614 -0.528807,-2.150129 0.105761,-3.278603 l 1.163375,-1.374898 0.211523,0.898972 c 0.140662,0.634568 0.475926,1.322017 1.004733,2.062347 0.669469,0.918008 1.498639,1.606515 2.485392,2.064462 z"
     id="path696"
     style="clip-rule:evenodd;fill:url(#bf);fill-rule:evenodd"
     inkscape:connector-curvature="0" /><linearGradient
     id="bh"
     x1="20.569"
     x2="56.429001"
     y1="8.2402"
     y2="8.2402"
     gradientTransform="matrix(0.87253139,0.59765756,-0.59765756,0.87253139,0.98870107,1.575172)"
     gradientUnits="userSpaceOnUse"><stop
       stop-color="#A2CF1B"
       offset="0"
       id="stop699" /><stop
       stop-color="#A3CF1D"
       offset=".4157"
       id="stop701" /><stop
       stop-color="#A6D124"
       offset=".5647"
       id="stop703" /><stop
       stop-color="#ABD32F"
       offset=".6706"
       id="stop705" /><stop
       stop-color="#B3D640"
       offset=".7569"
       id="stop707" /><stop
       stop-color="#BCDB56"
       offset=".8275"
       id="stop709" /><stop
       stop-color="#C8E072"
       offset=".8941"
       id="stop711" /><stop
       stop-color="#D6E691"
       offset=".9529"
       id="stop713" /><stop
       stop-color="#E5EDB2"
       offset="1"
       id="stop715" /></linearGradient><path
     d="m 31.659461,27.328384 c 1.198276,1.832845 2.062347,3.08506 2.591153,3.755587 0.986754,1.304038 2.009467,2.343672 3.06708,3.118903 1.127417,0.88205 2.361652,2.39761 3.701649,4.548797 1.304038,2.044367 1.992544,3.490125 2.062347,4.336217 0.0349,0.528806 0.106819,1.180297 0.211522,1.956585 -0.0349,0.599667 -0.406123,1.093573 -1.110494,1.480659 -0.635626,0.387087 -1.252215,0.528807 -1.850824,0.423046 -0.916951,-0.14172 -2.097248,-0.775231 -3.543006,-1.904763 -0.81119,-0.669469 -2.309829,-2.203009 -4.494859,-4.60062 -1.938606,-2.115227 -3.701648,-3.719627 -5.288069,-4.812142 -2.186088,-1.516619 -4.371118,-2.855558 -6.557206,-4.018933 -2.32675,-1.199334 -4.071813,-1.921684 -5.235188,-2.169166 l -2.432512,-0.528807 0.105762,-0.950794 1.903704,0.211522 c 1.55152,0.282383 3.0142,0.757252 4.389098,1.427779 3.87827,1.938606 7.631741,4.336217 11.263587,7.191774 1.374898,1.092515 2.784697,2.432512 4.230455,4.018932 1.374898,1.55152 2.32675,2.521352 2.855557,2.908438 0.81119,0.635626 1.516618,0.90003 2.115228,0.793211 0.459004,-0.0698 0.687449,-0.264404 0.687449,-0.581688 0,-0.0349 -0.106819,-0.140663 -0.317284,-0.317284 -0.59861,-0.493906 -1.55152,-1.53354 -2.855558,-3.119961 -1.374898,-1.656223 -2.379631,-2.97824 -3.014199,-3.966052 -0.880992,-1.374898 -1.850824,-2.819598 -2.908438,-4.336216 -1.621322,-2.397611 -2.838635,-4.054892 -3.648768,-4.970785 -0.916951,-1.057614 -2.30877,-2.291849 -4.177574,-3.701648 -1.62238,-1.234236 -3.190821,-2.696916 -4.706382,-4.389098 l -1.850824,-2.220989 1.903705,0.05288 1.057614,1.797943 c 1.057614,1.445758 2.432512,2.784698 4.124694,4.018933 2.079269,1.516618 3.419265,2.574232 4.018932,3.172841 0.66947,0.635626 1.657281,1.781022 2.961319,3.437245 0.564766,0.74033 1.921684,2.785755 4.071813,6.13416 1.657281,2.538273 2.855557,4.107772 3.595887,4.706382 l 2.009466,1.53354 c 0.175564,-0.775231 0,-1.586421 -0.528807,-2.432512 -0.388144,-0.670527 -2.115227,-2.767775 -5.182307,-6.292802 -1.021655,-1.127417 -1.745063,-2.009466 -2.168109,-2.644035 -0.599667,-0.880992 -1.287116,-1.850824 -2.062347,-2.908438 -2.291849,-3.13794 -4.336216,-5.39383 -6.13416,-6.768728 L 23.19855,19.713565 23.410073,19.3434 c 0.246424,-0.176621 0.563708,-0.140663 0.951852,0.105761 0.528807,0.352186 1.639302,1.427779 3.331484,3.225723 1.797943,1.903704 3.119961,3.455224 3.966052,4.6535 z"
     id="path717"
     style="clip-rule:evenodd;fill:url(#bh);fill-rule:evenodd"
     inkscape:connector-curvature="0" /><linearGradient
     id="bi"
     x1="13.769"
     x2="32.726002"
     y1="4.1348"
     y2="4.1348"
     gradientTransform="matrix(0.87242563,0.59786908,-0.59786908,0.87242563,0.98888659,1.5754302)"
     gradientUnits="userSpaceOnUse"><stop
       stop-color="#4E8A00"
       offset="0"
       id="stop720" /><stop
       stop-color="#508B00"
       offset=".498"
       id="stop722" /><stop
       stop-color="#579002"
       offset=".6745"
       id="stop724" /><stop
       stop-color="#629804"
       offset=".8039"
       id="stop726" /><stop
       stop-color="#73A407"
       offset=".9059"
       id="stop728" /><stop
       stop-color="#89B30C"
       offset=".9922"
       id="stop730" /><stop
       stop-color="#8BB50C"
       offset="1"
       id="stop732" /></linearGradient><path
     d="m 25.895465,23.996901 c 0.66947,0.846091 0.898972,1.339996 0.687449,1.479601 -0.176621,0.141721 -0.528807,0 -1.057613,-0.421987 -0.987812,-0.705429 -3.577908,-1.727084 -7.773462,-3.06708 -2.080326,-0.634569 -3.80741,-1.710162 -5.182308,-3.225723 -1.269136,-1.445758 -1.938606,-2.873536 -2.009466,-4.283336 -0.0349,-1.234235 0.352186,-1.921684 1.163375,-2.062347 0.563709,-0.105761 1.727084,0.05288 3.490126,0.475926 1.374898,0.352186 2.503372,0.986754 3.384364,1.903705 0.74033,0.775232 1.427779,1.921685 2.062347,3.437246 0.457947,1.092515 1.304038,2.186087 2.538273,3.278602 1.586421,1.339997 2.485393,2.168109 2.696915,2.485393 z"
     id="path734"
     style="clip-rule:evenodd;fill:url(#bi);fill-rule:evenodd"
     inkscape:connector-curvature="0" /><linearGradient
     id="bj"
     x1="15.786"
     x2="33.702999"
     y1="11.963"
     y2="11.963"
     gradientTransform="matrix(0.87242563,0.59786908,-0.59786908,0.87242563,0.98871784,1.5757475)"
     gradientUnits="userSpaceOnUse"><stop
       stop-color="#4E8A00"
       offset="0"
       id="stop737" /><stop
       stop-color="#508B00"
       offset=".498"
       id="stop739" /><stop
       stop-color="#579002"
       offset=".6745"
       id="stop741" /><stop
       stop-color="#629804"
       offset=".8039"
       id="stop743" /><stop
       stop-color="#73A407"
       offset=".9059"
       id="stop745" /><stop
       stop-color="#89B30C"
       offset=".9922"
       id="stop747" /><stop
       stop-color="#8BB50C"
       offset="1"
       id="stop749" /></linearGradient><path
     d="m 14.73764,22.569122 c 1.163375,0.880992 3.032178,2.115228 5.605353,3.701648 1.269136,0.847149 2.045425,1.392878 2.32675,1.640359 0.211523,0.210466 0.546787,0.563709 1.004733,1.057614 0.74033,0.775231 1.004733,1.251157 0.793211,1.427779 -0.140663,0.14172 -0.423046,0.0698 -0.846091,-0.211523 C 23.444974,30.044336 22.581961,29.902616 21.030442,29.763011 18.879255,29.58639 17.398596,29.427748 16.588464,29.287085 14.825422,29.004702 12.992577,28.405035 11.088872,27.489142 8.8678835,26.431528 7.5458663,25.373914 7.1228208,24.3163 6.7346765,23.223785 6.8584173,22.359715 7.4929856,21.725146 c 0.5637081,-0.598609 1.2691365,-0.775231 2.1152276,-0.528807 0.4939058,0.140663 1.3220168,0.246424 2.4853918,0.317285 1.057614,0.138547 1.938606,0.49179 2.644035,1.055498 z"
     id="path751"
     style="clip-rule:evenodd;fill:url(#bj);fill-rule:evenodd"
     inkscape:connector-curvature="0" /><linearGradient
     id="bk"
     x1="25.700001"
     x2="32.945999"
     y1="14.85"
     y2="14.85"
     gradientTransform="matrix(0.87200258,0.59839789,-0.59839789,0.87200258,0.98856359,1.5757491)"
     gradientUnits="userSpaceOnUse"><stop
       stop-color="#4E8A00"
       offset="0"
       id="stop754" /><stop
       stop-color="#508B00"
       offset=".498"
       id="stop756" /><stop
       stop-color="#579002"
       offset=".6745"
       id="stop758" /><stop
       stop-color="#629804"
       offset=".8039"
       id="stop760" /><stop
       stop-color="#73A407"
       offset=".9059"
       id="stop762" /><stop
       stop-color="#89B30C"
       offset=".9922"
       id="stop764" /><stop
       stop-color="#8BB50C"
       offset="1"
       id="stop766" /></linearGradient><path
     d="m 21.400607,31.188675 c 1.057613,0.740329 1.163375,1.092515 0.317284,1.057613 -1.234235,-0.176621 -2.045425,-0.264403 -2.432512,-0.264403 -1.127416,0.0349 -2.25589,0.546786 -3.384364,1.53354 -0.563708,0.459004 -1.181355,0.194601 -1.850824,-0.79321 -0.634569,-0.987812 -0.581688,-1.728141 0.158642,-2.222047 0.775231,-0.492848 1.974565,-0.65149 3.595887,-0.474869 1.551519,0.175564 2.749796,0.564766 3.595887,1.163376 z"
     id="path768"
     style="clip-rule:evenodd;fill:url(#bk);fill-rule:evenodd"
     inkscape:connector-curvature="0" /><linearGradient
     id="bl"
     x1="20.759001"
     x2="31.243999"
     y1="-1.0986"
     y2="-1.0986"
     gradientTransform="matrix(0.87253139,0.59765756,-0.59765756,0.87253139,0.98883717,1.5756241)"
     gradientUnits="userSpaceOnUse"><stop
       stop-color="#4E8A00"
       offset="0"
       id="stop771" /><stop
       stop-color="#508B00"
       offset=".498"
       id="stop773" /><stop
       stop-color="#579002"
       offset=".6745"
       id="stop775" /><stop
       stop-color="#629804"
       offset=".8039"
       id="stop777" /><stop
       stop-color="#73A407"
       offset=".9059"
       id="stop779" /><stop
       stop-color="#89B30C"
       offset=".9922"
       id="stop781" /><stop
       stop-color="#8BB50C"
       offset="1"
       id="stop783" /></linearGradient><path
     d="m 26.106988,20.982701 c 1.163375,0.880993 1.322017,1.234236 0.475926,1.057614 -0.880992,-0.176621 -2.009466,-0.687449 -3.384364,-1.53354 -1.234235,-0.775231 -2.080326,-2.150129 -2.538273,-4.124694 -0.423045,-1.903705 -0.335264,-3.525027 0.264403,-4.865024 0.528807,-1.163375 1.039635,-1.7101614 1.53354,-1.6393012 0.246425,0.034901 0.81119,0.3881442 1.692183,1.0576142 0.493905,0.388144 0.581687,1.163375 0.264403,2.32675 -0.457947,1.692182 -0.687449,2.679994 -0.687449,2.961319 0,1.057614 0.123741,1.868804 0.370165,2.432512 0.317284,0.775231 0.986754,1.551519 2.009466,2.32675 z"
     id="path785"
     style="clip-rule:evenodd;fill:url(#bl);fill-rule:evenodd"
     inkscape:connector-curvature="0" /><linearGradient
     id="bm"
     x1="14.947"
     x2="32.629002"
     y1="4.1767998"
     y2="4.1767998"
     gradientTransform="matrix(0.87210834,0.59829213,-0.59829213,0.87210834,0.98872919,1.5758326)"
     gradientUnits="userSpaceOnUse"><stop
       stop-color="#69AB00"
       offset="0"
       id="stop788" /><stop
       stop-color="#6BAC01"
       offset=".5569"
       id="stop790" /><stop
       stop-color="#72AE03"
       offset=".7608"
       id="stop792" /><stop
       stop-color="#7DB107"
       offset=".902"
       id="stop794" /><stop
       stop-color="#8BB50C"
       offset="1"
       id="stop796" /></linearGradient><path
     d="m 25.948346,24.419946 c 0.493906,0.352186 0.66947,0.66947 0.528807,0.951853 -1.198276,-0.880993 -2.291849,-1.727084 -3.278603,-2.538273 -0.599667,-0.493906 -1.251157,-0.951853 -1.956585,-1.374898 l -0.898972,-0.528807 c -0.423046,0.140662 -1.021655,0.211522 -1.797944,0.211522 -0.493905,0.0349 -1.039634,-0.01798 -1.639301,-0.158642 l -0.79321,-0.158642 0.634568,-0.105761 c 0.493906,-0.0349 0.951852,-0.01798 1.374898,0.05288 0.705428,0.07086 1.216256,-0.0349 1.53354,-0.317284 L 16.535583,17.91562 c -0.423045,0.246424 -1.039634,0.388145 -1.850824,0.423046 -0.493906,0.0349 -0.933873,-0.01798 -1.322017,-0.158642 l -0.475926,-0.211523 1.322017,0.105761 c 0.669469,-0.07086 1.234235,-0.246424 1.692182,-0.528806 -0.352185,-0.246424 -0.880992,-0.723408 -1.586421,-1.427779 l -2.644034,-2.220989 4.494858,3.067081 c 0.317284,-0.880992 0.441025,-1.498639 0.370165,-1.850824 l -0.581687,-1.427779 0.475926,0.370165 c 0.246424,0.140662 0.441025,0.829169 0.581687,2.062347 0.07086,0.563708 0.05288,1.039634 -0.05288,1.427779 l 1.269136,1.057613 c 0.423046,0.388145 1.022713,0.775231 1.797944,1.163376 l 0.264403,-1.53354 0.317284,1.163375 c 0.105762,0.493905 0.211523,0.846091 0.317284,1.057614 l 5.023666,3.966051 z"
     id="path798"
     style="clip-rule:evenodd;fill:url(#bm);fill-rule:evenodd"
     inkscape:connector-curvature="0" /><linearGradient
     id="bn"
     x1="17.021"
     x2="33.095001"
     y1="11.854"
     y2="11.854"
     gradientTransform="matrix(0.87179106,0.59871517,-0.59871517,0.87179106,0.98889649,1.575192)"
     gradientUnits="userSpaceOnUse"><stop
       stop-color="#69AB00"
       offset="0"
       id="stop801" /><stop
       stop-color="#6BAC01"
       offset=".5569"
       id="stop803" /><stop
       stop-color="#72AE03"
       offset=".7608"
       id="stop805" /><stop
       stop-color="#7DB107"
       offset=".902"
       id="stop807" /><stop
       stop-color="#8BB50C"
       offset="1"
       id="stop809" /></linearGradient><path
     d="m 8.6034801,22.251838 2.0094659,1.322017 c 0.634568,0.388145 1.269136,0.705429 1.903705,0.951853 l 0.211522,-0.74033 c 0.105762,-0.211523 0.140663,-0.528807 0.105762,-0.951852 l -0.05288,-0.581688 0.264404,0.475926 c 0.176621,0.282383 0.264403,1.004733 0.264403,2.168108 l 0.528807,0.371223 c 0.459004,0.282383 0.933873,0.528807 1.427779,0.739272 0.740329,0.318342 1.445758,0.564766 2.115227,0.74033 0.176622,-0.352186 0.211523,-0.686392 0.105762,-1.004733 l -0.581688,-1.269137 0.423046,0.528807 c 0.317284,0.387087 0.546786,0.72235 0.687449,1.003675 0.211522,0.459005 0.299304,0.88205 0.264403,1.269137 l 0.528807,0.106819 c 0.140663,0 0.687449,0.140663 1.639301,0.421988 1.057614,0.317284 1.763042,0.563708 2.115228,0.74033 0.563708,0.246424 1.039634,0.670527 1.427779,1.269136 C 23.497855,29.495435 22.45822,29.05441 20.8718,28.490702 l -2.961319,-0.686392 -1.745063,0.264404 c -0.388144,0.0349 -0.846091,0.01798 -1.374898,-0.05288 l -0.687449,-0.105761 1.322018,-0.158642 c 0.459004,-0.0698 1.022712,-0.229502 1.692182,-0.475926 L 15.266447,26.746698 C 14.772541,26.606035 14.243734,26.376533 13.680026,26.060306 L 12.992577,25.58438 c -0.599667,0.387087 -1.163375,0.581688 -1.692182,0.581688 -0.317284,-0.0011 -0.79321,-0.08884 -1.4277784,-0.265461 l -0.7932103,-0.317285 2.1152267,0.05288 c 0.599668,0 0.987812,-0.158642 1.163376,-0.475926 L 10.295662,23.785378 C 9.8377154,23.502995 9.4146699,23.168789 9.0265256,22.780645 L 8.6034801,22.251838 Z"
     id="path811"
     style="clip-rule:evenodd;fill:url(#bn);fill-rule:evenodd"
     inkscape:connector-curvature="0" /><linearGradient
     id="bo"
     x1="21.672001"
     x2="31.311001"
     y1="-0.72070003"
     y2="-0.72070003"
     gradientTransform="matrix(0.87231987,0.59797484,-0.59797484,0.87231987,0.98867006,1.5755197)"
     gradientUnits="userSpaceOnUse"><stop
       stop-color="#4C7A00"
       offset=".0118"
       id="stop814" /><stop
       stop-color="#4E7C00"
       offset=".498"
       id="stop816" /><stop
       stop-color="#558202"
       offset=".6745"
       id="stop818" /><stop
       stop-color="#608D04"
       offset=".8"
       id="stop820" /><stop
       stop-color="#719D07"
       offset=".902"
       id="stop822" /><stop
       stop-color="#87B10B"
       offset=".9882"
       id="stop824" /><stop
       stop-color="#8BB50C"
       offset="1"
       id="stop826" /></linearGradient><path
     d="m 23.013468,11.75502 c -0.11528,0.246424 -0.247482,0.626108 -0.396605,1.136935 -0.105762,0.423046 -0.211523,0.828112 -0.317285,1.216256 l 0.528807,0.317284 c 0.140663,0.0349 0.475927,-0.158642 1.004733,-0.581687 l -0.370164,0.528807 c -0.105762,0.140662 -0.317285,0.264403 -0.634569,0.370165 l -0.475926,0.105761 -0.05288,0.370165 c 0,0.317284 0.07086,0.723408 0.211523,1.216256 0.246424,0.81119 0.66947,1.498639 1.269137,2.062347 l 0.158642,-0.581688 0.158642,0.846091 c 0.0349,0.282383 0.211523,0.581688 0.528807,0.898972 l 1.639301,1.745063 c 0.246424,0.246424 0.459005,0.581688 0.634568,1.004733 -0.846091,-0.775231 -1.6044,-1.516618 -2.273869,-2.220989 -0.423046,-0.423045 -0.66947,-0.652548 -0.74033,-0.687449 0,0.0349 -0.01798,0.0349 -0.05288,0 L 22.775505,18.920354 C 22.563982,18.779692 22.33448,18.53221 22.088056,18.180025 l -0.317284,-0.528807 0.846091,0.634568 c 0.388144,0.317284 0.616588,0.441025 0.687449,0.370165 -0.459005,-0.493906 -0.846092,-1.145396 -1.163376,-1.956585 -0.211522,-0.492849 -0.317284,-0.986754 -0.317284,-1.48066 l 0,-0.581688 -0.370165,-0.687449 C 21.312825,13.703145 21.276866,13.33298 21.347726,12.839074 l 0.158642,-0.634568 0.05288,0.687449 c 0.0349,0.492848 0.211523,0.793211 0.528807,0.898972 l 0.317285,-1.004733 0.608128,-1.031174 z"
     id="path828"
     style="clip-rule:evenodd;fill:url(#bo);fill-rule:evenodd"
     inkscape:connector-curvature="0" /><linearGradient
     id="bp"
     x1="54.535"
     x2="56.532001"
     y1="12.496"
     y2="12.496"
     gradientTransform="matrix(0.87380053,0.59575386,-0.59575386,0.87380053,0.98840485,1.5760476)"
     gradientUnits="userSpaceOnUse"><stop
       stop-color="#B58C22"
       offset=".0118"
       id="stop831" /><stop
       stop-color="#B89028"
       offset=".1804"
       id="stop833" /><stop
       stop-color="#C19D38"
       offset=".4039"
       id="stop835" /><stop
       stop-color="#CFB253"
       offset=".6549"
       id="stop837" /><stop
       stop-color="#E2CE79"
       offset=".9255"
       id="stop839" /><stop
       stop-color="#E8D784"
       offset="1"
       id="stop841" /></linearGradient><path
     d="m 43.346093,45.096296 c 0,0.59861 -0.299305,1.075593 -0.898972,1.427779 -0.388144,0.282383 -0.79321,0.441025 -1.216255,0.475926 -0.493906,0 -0.651491,-0.334206 -0.475927,-1.004733 0.176622,-0.670527 0.510828,-1.252215 1.004733,-1.745063 0.423046,-0.421988 0.793211,-0.510827 1.110495,-0.264403 0.317284,0.246424 0.475926,0.617646 0.475926,1.110494 z"
     id="path843"
     style="clip-rule:evenodd;fill:url(#bp);fill-rule:evenodd"
     inkscape:connector-curvature="0" /></svg>