<?xml version="1.0" encoding="utf-8"?>
<!-- Generator: Adobe Illustrator 15.0.0, SVG Export Plug-In . SVG Version: 6.00 Build 0)  -->
<!DOCTYPE svg PUBLIC "-//W3C//DTD SVG 1.1//EN" "http://www.w3.org/Graphics/SVG/1.1/DTD/svg11.dtd">
<svg version="1.1"  xmlns="http://www.w3.org/2000/svg" xmlns:xlink="http://www.w3.org/1999/xlink" x="0px" y="0px"
	 width="48px" height="48px" viewBox="0 0 48 48" enable-background="new 0 0 48 48" xml:space="preserve">
<g>
	<path fill="#D81B60" d="M22.334,7.793c0.481,1.586,1.761,16.193,1.761,16.193s-7.061-12.872-7.543-14.459
		c-0.481-1.587,0.422-3.262,2.019-3.74C20.167,5.308,21.853,6.206,22.334,7.793z"/>
	<path fill="#D81B60" d="M13.77,11.308c1.275,1.068,10.322,12.668,10.322,12.668S11.15,16.965,9.875,15.897
		c-1.273-1.068-1.436-2.963-0.36-4.23S12.495,10.24,13.77,11.308z"/>
	<path fill="#D81B60" d="M8.501,18.919c1.653,0.208,15.591,5.057,15.591,5.057S9.396,25.082,7.741,24.875
		c-1.653-0.209-2.825-1.711-2.615-3.356C5.335,19.874,6.848,18.711,8.501,18.919z"/>
	<path fill="#D81B60" d="M8.178,27.916c1.514-0.697,15.914-3.94,15.914-3.94s-11.864,8.692-13.377,9.389s-3.308,0.04-4.01-1.464
		C6.005,30.396,6.665,28.611,8.178,27.916z"/>
	<path fill="#D81B60" d="M12.917,35.908c0.885-1.403,11.175-11.932,11.175-11.932s-5.175,13.719-6.06,15.122
		c-0.886,1.404-2.749,1.828-4.162,0.947C12.456,39.166,12.032,37.312,12.917,35.908z"/>
	<path fill="#D81B60" d="M31.321,9.344c-0.438,1.599-7.229,14.632-7.229,14.632s0.966-14.62,1.405-16.219
		c0.44-1.597,2.103-2.539,3.71-2.101C30.816,6.094,31.763,7.745,31.321,9.344z"/>
	<path fill="#D81B60" d="M38.168,15.609c-1.244,1.103-14.076,8.366-14.076,8.366s8.813-11.743,10.056-12.848
		c1.244-1.103,3.153-0.993,4.264,0.244C39.522,12.608,39.411,14.507,38.168,15.609z"/>
	<path fill="#D81B60" d="M40.485,24.433c-1.645,0.267-16.393-0.457-16.393-0.457s13.778-5.2,15.424-5.468
		c1.646-0.266,3.197,0.846,3.466,2.482C43.25,22.626,42.131,24.167,40.485,24.433z"/>
	<path fill="#D81B60" d="M37.528,33.325c-1.522-0.678-13.437-9.35-13.437-9.35s14.385,3.194,15.905,3.87
		c1.521,0.678,2.203,2.455,1.521,3.969C40.835,33.327,39.049,34.002,37.528,33.325z"/>
	<path fill="#D81B60" d="M30.466,38.996c-0.925-1.377-6.374-15.021-6.374-15.021s10.471,10.312,11.397,11.688
		c0.925,1.378,0.552,3.243-0.836,4.164C33.267,40.748,31.392,40.374,30.466,38.996z"/>
	<path fill="#D81B60" d="M21.191,40.022c-0.02-1.657,2.9-16.046,2.9-16.046s3.118,14.32,3.139,15.977
		c0.019,1.657-1.316,3.018-2.985,3.037C22.577,43.008,21.211,41.68,21.191,40.022z"/>
</g>
<g>
	<path fill="#FF80AB" d="M27.02,7.991C27.02,9.648,24,24,24,24S20.98,9.648,20.98,7.991S22.332,4.99,24,4.99
		S27.02,6.334,27.02,7.991z"/>
	<path fill="#FF80AB" d="M17.799,8.897C18.709,10.285,24,23.989,24,23.989S13.647,13.561,12.737,12.172
		c-0.909-1.388-0.514-3.248,0.884-4.153C15.019,7.114,16.89,7.509,17.799,8.897z"/>
	<path fill="#FF80AB" d="M10.544,14.671C12.066,15.344,24,23.989,24,23.989S9.608,20.827,8.085,20.154
		c-1.522-0.674-2.207-2.449-1.529-3.964C7.235,14.676,9.021,13.996,10.544,14.671z"/>
	<path fill="#FF80AB" d="M7.619,23.191C9.271,22.959,24,23.989,24,23.989s-13.885,4.914-15.535,5.146
		c-1.65,0.231-3.179-0.911-3.413-2.554C4.818,24.941,5.969,23.423,7.619,23.191z"/>
	<path fill="#FF80AB" d="M9.834,32.203C11.089,31.114,24,23.99,24,23.99s-8.94,11.646-10.196,12.737
		c-1.256,1.09-3.164,0.96-4.261-0.289S8.578,33.293,9.834,32.203z"/>
	<path fill="#FF80AB" d="M35.174,12.057C34.289,13.461,24,23.989,24,23.989s5.173-13.72,6.059-15.123s2.75-1.828,4.163-0.947
		C35.635,8.801,36.061,10.653,35.174,12.057z"/>
	<path fill="#FF80AB" d="M39.906,20.021C38.395,20.72,24,23.989,24,23.989s11.849-8.713,13.36-9.412
		c1.511-0.698,3.308-0.046,4.012,1.458C42.076,17.537,41.418,19.322,39.906,20.021z"/>
	<path fill="#FF80AB" d="M39.562,29.135c-1.652-0.217-15.561-5.146-15.561-5.146s14.701-1.022,16.354-0.805
		c1.652,0.218,2.815,1.726,2.597,3.37C42.733,28.198,41.214,29.353,39.562,29.135z"/>
	<path fill="#FF80AB" d="M34.146,36.798C32.887,35.713,24,23.989,24,23.989s12.843,7.188,14.102,8.272
		c1.261,1.086,1.397,2.983,0.304,4.236C37.312,37.75,35.404,37.884,34.146,36.798z"/>
	<path fill="#FF80AB" d="M25.736,40.2C25.251,38.615,24,23.989,24,23.989s7.027,12.878,7.515,14.463
		c0.485,1.585-0.415,3.264-2.011,3.746C27.909,42.681,26.223,41.785,25.736,40.2z"/>
	<path fill="#FF80AB" d="M16.561,38.519C17.022,36.927,24,23.99,24,23.99s-1.177,14.604-1.639,16.196
		c-0.463,1.592-2.138,2.51-3.74,2.05C17.02,41.775,16.097,40.11,16.561,38.519z"/>
</g>
<path fill="#FFC107" d="M24,19.986c2.207,0,4,1.793,4,4c0,2.208-1.793,4-4,4s-4-1.792-4-4C20,21.779,21.793,19.986,24,19.986"/>
<g>
	<path fill="#FFF59D" d="M24,21.49c-0.39,0-0.78-0.16-1.06-0.44c-0.28-0.28-0.44-0.67-0.44-1.06c0-0.4,0.16-0.79,0.44-1.07
		c0.56-0.55,1.56-0.55,2.12,0c0.28,0.28,0.44,0.67,0.44,1.07c0,0.39-0.16,0.78-0.44,1.06C24.78,21.33,24.4,21.49,24,21.49z"/>
	<path fill="#FFF59D" d="M22.52,27.99c0-0.83,0.66-1.5,1.49-1.511l0,0c0.83,0,1.5,0.67,1.51,1.5l0,0c0,0.83-0.67,1.5-1.49,1.5l0,0
		l0,0l0,0c-0.01,0-0.01,0-0.01,0l0,0C23.19,29.479,22.52,28.819,22.52,27.99z M20.14,27.899L20.14,27.899L20.14,27.899
		c-0.59-0.58-0.6-1.529-0.02-2.119l0,0c0.59-0.591,1.53-0.601,2.12-0.021l0,0c0.59,0.59,0.6,1.54,0.02,2.12l0,0
		c-0.3,0.3-0.68,0.45-1.07,0.45l0,0C20.81,28.33,20.43,28.189,20.14,27.899z M25.78,27.87c-0.591-0.59-0.591-1.54-0.011-2.12l0,0
		c0.59-0.59,1.54-0.601,2.12-0.01l0,0c0.59,0.579,0.59,1.529,0.01,2.119l0,0c-0.29,0.301-0.68,0.44-1.06,0.44l0,0
		C26.45,28.3,26.069,28.16,25.78,27.87z M18.5,24.03c-0.01-0.83,0.66-1.51,1.49-1.51l0,0c0.83-0.01,1.5,0.66,1.51,1.48l0,0
		c0.01,0.83-0.66,1.51-1.49,1.52l0,0H20l0,0C19.18,25.52,18.51,24.85,18.5,24.03z M26.5,23.98c0-0.83,0.67-1.5,1.49-1.5l0,0
		c0.829,0,1.51,0.67,1.51,1.5l0,0c0,0.82-0.67,1.5-1.5,1.5l0,0C27.17,25.479,26.5,24.81,26.5,23.98z M20.09,22.25
		c-0.59-0.58-0.6-1.53-0.01-2.12l0,0c0.58-0.59,1.53-0.6,2.12-0.02l0,0c0.59,0.58,0.6,1.53,0.01,2.12l0,0
		c-0.29,0.3-0.68,0.45-1.06,0.45l0,0C20.77,22.68,20.39,22.54,20.09,22.25z M25.77,22.22c-0.59-0.59-0.59-1.54,0-2.12l0,0
		c0.58-0.59,1.53-0.59,2.12-0.01l0,0l0,0l0,0c0.58,0.59,0.58,1.54,0,2.13l0,0c-0.3,0.29-0.68,0.44-1.06,0.44l0,0
		C26.439,22.66,26.06,22.51,25.77,22.22z"/>
	<path fill="#FFF59D" d="M24,21.49c-0.39,0-0.78-0.16-1.06-0.44c-0.28-0.28-0.44-0.67-0.44-1.06c0-0.4,0.16-0.79,0.44-1.07
		c0.56-0.55,1.56-0.55,2.12,0c0.28,0.28,0.44,0.67,0.44,1.07c0,0.39-0.16,0.78-0.44,1.06C24.78,21.33,24.4,21.49,24,21.49z"/>
</g>
</svg>
