<?xml version="1.0" encoding="utf-8"?>
<!-- Generator: Adobe Illustrator 15.0.0, SVG Export Plug-In . SVG Version: 6.00 Build 0)  -->
<!DOCTYPE svg PUBLIC "-//W3C//DTD SVG 1.1//EN" "http://www.w3.org/Graphics/SVG/1.1/DTD/svg11.dtd">
<svg version="1.1"  xmlns="http://www.w3.org/2000/svg" xmlns:xlink="http://www.w3.org/1999/xlink" x="0px" y="0px"
	 width="48px" height="48px" viewBox="0 0 48 48" enable-background="new 0 0 48 48" xml:space="preserve">
<path fill="#689F38" d="M37.813,15.812c-2.813,2.813-7.736,2.11-7.736,2.11s-0.701-4.924,2.11-7.735
	C35,7.375,39.922,8.078,39.922,8.078S40.626,12.998,37.813,15.812z"/>
<g>
	<path fill="#8BC34A" d="M30.529,19.222C36.894,19.929,43.965,27,43.965,27s0.707-4.95-4.243-8.485
		C34.772,14.979,30.529,19.222,30.529,19.222z"/>
	<path fill="#8BC34A" d="M28.886,17.471c-0.707-6.364-7.778-13.436-7.778-13.436s4.95-0.707,8.485,4.242
		C33.128,13.228,28.886,17.471,28.886,17.471z"/>
</g>
<path fill="#FF1744" d="M35.203,35.4c-5.368,5.37-20.68,11.008-26.646,5.042c-5.967-5.966-0.329-21.277,5.041-26.646
	c5.37-5.37,12.039-2.365,18.005,3.602C37.568,23.362,40.573,30.03,35.203,35.4z"/>
<g>
	<path fill="#D50000" d="M16.232,15.232c0.977-0.977,2.559-0.977,3.535,0s0.977,2.559,0,3.535S16.977,19.977,16,19
		S15.256,16.209,16.232,15.232z"/>
	<path fill="#D50000" d="M24.462,21.045c0.977-0.977,2.559-0.977,3.535,0s0.977,2.559,0,3.535s-2.791,1.209-3.768,0.232
		S23.485,22.021,24.462,21.045z"/>
	<path fill="#D50000" d="M11.446,34.019c0.977-0.977,2.559-0.977,3.535,0s0.977,2.559,0,3.535s-2.791,1.209-3.768,0.232
		S10.47,34.995,11.446,34.019z"/>
	<path fill="#D50000" d="M30.296,29.169c0.977-0.977,2.559-0.977,3.535,0s0.977,2.559,0,3.535s-2.791,1.209-3.768,0.232
		S29.319,30.146,30.296,29.169z"/>
	<path fill="#D50000" d="M13.449,24.016c0.977-0.977,2.559-0.977,3.535,0s0.977,2.559,0,3.535s-2.791,1.209-3.768,0.232
		S12.473,24.992,13.449,24.016z"/>
	<path fill="#D50000" d="M20.296,32.169c0.977-0.977,2.559-0.977,3.535,0s0.977,2.559,0,3.535s-2.791,1.209-3.768,0.232
		S19.319,33.146,20.296,32.169z"/>
</g>
<g>
	<path fill="#FFC107" d="M18.707,17.707C18.316,18.098,16.391,19.391,16,19s0.902-2.316,1.293-2.707s1.023-0.391,1.414,0
		S19.098,17.316,18.707,17.707z"/>
	<path fill="#FFC107" d="M26.937,23.52c-0.391,0.391-2.316,1.684-2.707,1.293s0.902-2.316,1.293-2.707s1.023-0.391,1.414,0
		S27.327,23.129,26.937,23.52z"/>
	<path fill="#FFC107" d="M13.921,36.493c-0.391,0.391-2.316,1.684-2.707,1.293s0.902-2.316,1.293-2.707s1.023-0.391,1.414,0
		S14.312,36.103,13.921,36.493z"/>
	<path fill="#FFC107" d="M32.771,31.644c-0.391,0.391-2.316,1.684-2.707,1.293s0.902-2.316,1.293-2.707s1.023-0.391,1.414,0
		S33.161,31.253,32.771,31.644z"/>
	<path fill="#FFC107" d="M15.924,26.49c-0.391,0.391-2.316,1.684-2.707,1.293s0.902-2.316,1.293-2.707s1.023-0.391,1.414,0
		S16.314,26.1,15.924,26.49z"/>
	<path fill="#FFC107" d="M22.771,34.644c-0.391,0.391-2.316,1.684-2.707,1.293s0.902-2.316,1.293-2.707s1.023-0.391,1.414,0
		S23.161,34.253,22.771,34.644z"/>
</g>
</svg>
