<?xml version="1.0" encoding="iso-8859-1"?>
<!-- Generator: Adobe Illustrator 18.0.0, SVG Export Plug-In . SVG Version: 6.00 Build 0)  -->
<!DOCTYPE svg PUBLIC "-//W3C//DTD SVG 1.1//EN" "http://www.w3.org/Graphics/SVG/1.1/DTD/svg11.dtd">
<svg version="1.1" id="Capa_1" xmlns="http://www.w3.org/2000/svg" xmlns:xlink="http://www.w3.org/1999/xlink" x="0px" y="0px"
	 viewBox="0 0 478.94 478.94" style="enable-background:new 0 0 478.94 478.94;" xml:space="preserve">
<g>
	<path d="M427.915,239.47c27.568-10.208,45.069-33.966,45.904-35.119c1.352-1.864,1.889-4.197,1.489-6.465
		c-0.4-2.268-1.703-4.276-3.61-5.566c-1.18-0.797-25.749-17.136-55.146-17.304c22.41-19.023,30.731-47.332,31.122-48.701
		c0.633-2.214,0.34-4.591-0.812-6.585c-1.151-1.994-3.063-3.436-5.297-3.996c-1.382-0.346-30.054-7.294-57.732,2.596
		c14.549-25.537,12.686-54.982,12.584-56.402c-0.162-2.298-1.251-4.431-3.015-5.911c-1.765-1.48-4.054-2.182-6.345-1.942
		c-1.417,0.147-30.74,3.428-53.365,22.192c4.937-28.973-6.884-56.01-7.465-57.31c-0.938-2.103-2.689-3.735-4.854-4.523
		c-2.164-0.787-4.555-0.664-6.626,0.344c-1.281,0.623-27.717,13.73-42.557,39.097c-5.27-28.914-25.626-50.264-26.616-51.286
		C243.976,0.934,241.772,0,239.47,0s-4.506,0.934-6.107,2.588c-0.99,1.022-21.347,22.374-26.616,51.29
		c-14.844-25.369-41.275-38.478-42.555-39.1c-2.071-1.008-4.462-1.131-6.625-0.345c-2.164,0.788-3.916,2.419-4.855,4.522
		c-0.58,1.3-12.409,28.334-7.468,57.309c-22.623-18.762-51.946-22.042-53.362-22.19c-2.289-0.24-4.58,0.462-6.345,1.942
		s-2.853,3.613-3.015,5.911c-0.101,1.419-1.964,30.862,12.586,56.402c-27.677-9.891-56.352-2.941-57.733-2.596
		c-2.233,0.559-4.145,2.001-5.296,3.995c-1.151,1.994-1.445,4.37-0.813,6.584c0.391,1.369,8.703,29.676,31.113,48.703
		c-29.394,0.171-53.957,16.508-55.137,17.305c-1.908,1.29-3.21,3.298-3.61,5.566c-0.399,2.268,0.138,4.601,1.489,6.465
		c0.836,1.152,18.336,24.912,45.897,35.119c-27.561,10.208-45.061,33.966-45.897,35.119c-1.352,1.864-1.889,4.197-1.489,6.465
		c0.4,2.268,1.703,4.276,3.61,5.566c1.179,0.797,25.739,17.133,55.132,17.306c-22.406,19.021-30.718,47.333-31.109,48.702
		c-0.632,2.214-0.338,4.59,0.813,6.583c1.152,1.994,3.063,3.436,5.296,3.995c0.813,0.204,11.079,2.697,25.032,2.697
		c9.757,0,21.316-1.231,32.706-5.305c-14.556,25.538-12.692,54.985-12.591,56.405c0.163,2.297,1.25,4.43,3.014,5.91
		c1.538,1.291,3.475,1.989,5.464,1.989c0.292,0,0.586-0.015,0.879-0.045c1.416-0.147,30.739-3.419,53.364-22.181
		c-4.941,28.972,6.888,56.001,7.469,57.301c0.939,2.102,2.69,3.733,4.854,4.521c0.941,0.343,1.925,0.513,2.907,0.513
		c1.275,0,2.547-0.287,3.717-0.856c1.28-0.623,27.712-13.724,42.558-39.095c5.27,28.914,25.624,50.27,26.614,51.293
		c1.601,1.655,3.806,2.589,6.108,2.589c2.303,0,4.507-0.935,6.109-2.589c0.989-1.023,21.342-22.377,26.613-51.289
		c14.839,25.368,41.279,38.469,42.56,39.091c1.169,0.569,2.44,0.855,3.716,0.855c0.982,0,1.967-0.17,2.908-0.513
		c2.164-0.788,3.915-2.419,4.854-4.522c0.58-1.3,12.402-28.33,7.465-57.3c22.625,18.762,51.951,22.034,53.367,22.182
		c0.294,0.03,0.587,0.045,0.879,0.045c1.989,0,3.927-0.698,5.464-1.989c1.765-1.48,2.853-3.613,3.015-5.91
		c0.101-1.42,1.965-30.866-12.592-56.404c11.39,4.074,22.948,5.305,32.706,5.304c13.951,0,24.221-2.494,25.033-2.697
		c2.233-0.56,4.146-2.001,5.297-3.996c1.151-1.994,1.444-4.371,0.812-6.585c-0.391-1.369-8.711-29.682-31.114-48.698
		c29.391-0.173,53.958-16.51,55.138-17.307c1.907-1.29,3.21-3.298,3.61-5.566c0.399-2.268-0.138-4.601-1.489-6.465
		C472.983,273.436,455.482,249.677,427.915,239.47z M239.468,373.305c-73.797,0-133.835-60.039-133.835-133.835
		s60.039-133.835,133.835-133.835c73.798,0,133.836,60.039,133.836,133.835S313.266,373.305,239.468,373.305z M411.989,226.276
		c-6.924,1.223-14.406,1.103-22.295-0.305c-0.769-8.629-2.265-17.05-4.431-25.203c6.912-4.013,13.899-6.684,20.836-7.91
		c18.699-3.294,37.236,3.723,47.62,8.834C445.706,210.05,430.684,222.981,411.989,226.276z M427.903,130.694
		c-4.638,10.571-14.294,27.826-30.83,37.374c-6.098,3.521-13.174,5.968-21.07,7.34c-3.654-7.757-7.95-15.155-12.82-22.124
		c5.137-6.161,10.805-11.078,16.922-14.612C396.558,129.178,416.399,129.438,427.903,130.694z M379.337,72.806
		c-0.742,11.52-3.914,31.035-16.182,45.654c-4.556,5.42-10.389,10.152-17.349,14.14c-6.037-6.007-12.579-11.506-19.555-16.431
		c2.719-7.54,6.362-14.097,10.902-19.512C349.363,82.105,368.098,75.562,379.337,72.806z M282.417,71.852
		c6.489-17.835,21.838-30.382,31.457-36.818c3.232,11.119,6.922,30.594,0.436,48.423c-2.42,6.636-6.271,13.062-11.429,19.174
		c-7.687-3.576-15.722-6.522-24.041-8.774C278.824,85.865,280.008,78.478,282.417,71.852z M239.469,21.92
		c6.84,9.339,16.967,26.373,16.967,45.35c0,7.038-1.417,14.388-4.172,21.912c-4.22-0.356-8.486-0.548-12.796-0.548
		c-4.309,0-8.574,0.192-12.793,0.548c-2.755-7.523-4.172-14.873-4.172-21.911C222.504,48.29,232.633,31.255,239.469,21.92z
		 M165.07,35.008c9.605,6.402,24.919,18.905,31.452,36.84c2.406,6.624,3.587,14.013,3.568,22.01
		c-8.316,2.251-16.348,5.196-24.032,8.771c-5.158-6.112-9.007-12.536-11.426-19.169C158.131,65.611,161.835,46.117,165.07,35.008z
		 M141.784,96.653c4.54,5.417,8.184,11.974,10.904,19.514c-6.977,4.924-13.519,10.424-19.557,16.431
		c-6.96-3.988-12.792-8.718-17.343-14.133c-12.2-14.54-15.394-34.104-16.16-45.653C110.875,75.574,129.586,82.117,141.784,96.653z
		 M51.051,130.667c11.474-1.271,31.247-1.538,47.78,8.004c6.117,3.535,11.785,8.451,16.923,14.612
		c-4.87,6.969-9.166,14.367-12.821,22.125c-7.895-1.373-14.974-3.82-21.076-7.339C65.405,158.568,55.713,141.254,51.051,130.667z
		 M25.221,201.693c10.388-5.114,28.925-12.132,47.616-8.836c6.939,1.227,13.926,3.897,20.837,7.91
		c-2.166,8.153-3.662,16.576-4.431,25.205c-7.891,1.408-15.375,1.526-22.305,0.304C48.25,222.981,33.23,210.047,25.221,201.693z
		 M66.94,252.664c6.947-1.225,14.43-1.107,22.303,0.3c0.769,8.63,2.265,17.054,4.432,25.209c-6.912,4.013-13.898,6.683-20.833,7.909
		c-18.698,3.294-37.238-3.723-47.621-8.834C33.234,268.889,48.253,255.958,66.94,252.664z M51.062,348.248
		c4.668-10.597,14.359-27.891,30.801-37.38c6.1-3.527,13.176-5.975,21.069-7.341c3.655,7.759,7.951,15.157,12.821,22.127
		c-5.141,6.159-10.808,11.073-16.92,14.604C82.39,349.752,62.566,349.5,51.062,348.248z M99.629,406.12
		c0.766-11.551,3.96-31.107,16.158-45.644c4.551-5.42,10.381-10.153,17.339-14.142c6.039,6.01,12.584,11.511,19.562,16.437
		c-2.72,7.54-6.363,14.097-10.901,19.511C129.586,396.823,110.87,403.363,99.629,406.12z M196.523,407.085
		c-6.496,17.836-21.843,30.38-31.46,36.813c-3.234-11.116-6.926-30.587-0.432-48.419c2.416-6.632,6.263-13.058,11.418-19.175
		c7.686,3.577,15.721,6.523,24.04,8.775C200.109,393.077,198.928,400.465,196.523,407.085z M239.47,457.017
		c-6.84-9.342-16.966-26.379-16.966-45.357c0-7.041,1.416-14.388,4.17-21.903c4.219,0.356,8.485,0.548,12.794,0.548
		c4.311,0,8.577-0.192,12.798-0.548c2.754,7.515,4.17,14.862,4.17,21.903C256.436,430.639,246.307,447.679,239.47,457.017z
		 M313.868,443.924c-9.605-6.398-24.923-18.897-31.449-36.836c-2.411-6.626-3.594-14.014-3.578-22.007
		c8.319-2.251,16.354-5.198,24.041-8.774c5.17,6.122,9.02,12.546,11.427,19.169C320.801,413.325,317.1,432.816,313.868,443.924z
		 M337.156,382.287c-4.542-5.418-8.186-11.977-10.905-19.517c6.978-4.926,13.522-10.427,19.561-16.437
		c6.959,3.989,12.789,8.722,17.339,14.142c12.2,14.539,15.395,34.099,16.16,45.645C368.066,403.362,349.353,396.823,337.156,382.287
		z M427.876,348.248c-11.509,1.251-31.331,1.502-47.768-7.989c-6.115-3.533-11.783-8.448-16.924-14.607
		c4.87-6.97,9.165-14.367,12.82-22.125c7.888,1.367,14.963,3.814,21.069,7.346C413.514,320.36,423.208,337.656,427.876,348.248z
		 M406.102,286.083c-6.94-1.227-13.927-3.898-20.84-7.912c2.167-8.154,3.662-16.577,4.431-25.207
		c7.871-1.408,15.353-1.525,22.297-0.3c18.695,3.295,33.718,16.229,41.728,24.583C443.33,282.361,424.792,289.376,406.102,286.083z"
		/>
	<path d="M239.468,117.819c-67.078,0-121.65,54.572-121.65,121.65c0,67.078,54.572,121.649,121.65,121.649
		s121.649-54.572,121.649-121.649C361.118,172.391,306.546,117.819,239.468,117.819z M335.871,217.787l-9.666,9.666l-9.659-9.659
		l9.666-9.666L335.871,217.787z M270.825,239.473l-9.666,9.667l-9.666-9.666l9.666-9.667L270.825,239.473z M273.18,217.787
		l9.659-9.659l9.666,9.666l-9.659,9.659L273.18,217.787z M282.846,251.494l9.659,9.659l-9.666,9.666l-9.659-9.659L282.846,251.494z
		 M294.866,239.473l9.659-9.659l9.659,9.659l-9.659,9.659L294.866,239.473z M304.525,205.772l-9.666-9.666l9.666-9.666l9.666,9.666
		L304.525,205.772z M282.839,184.086l-9.666-9.666l9.666-9.666l9.666,9.666L282.839,184.086z M270.818,196.106l-9.659,9.659
		l-9.666-9.666l9.659-9.659L270.818,196.106z M249.138,217.787l-9.666,9.666l-9.666-9.666l9.666-9.667L249.138,217.787z
		 M184.077,239.473l-9.66,9.66l-9.659-9.659l9.66-9.66L184.077,239.473z M186.439,217.793l9.666-9.666l9.659,9.659l-9.666,9.666
		L186.439,217.793z M196.098,251.494l9.667,9.667l-9.659,9.659l-9.667-9.667L196.098,251.494z M208.118,239.473l9.666-9.666
		l9.666,9.667l-9.666,9.666L208.118,239.473z M217.785,205.766l-9.659-9.659l9.666-9.667l9.659,9.659L217.785,205.766z
		 M196.105,184.086l-9.667-9.667l9.667-9.666l9.666,9.666L196.105,184.086z M184.084,196.106l-9.666,9.667l-9.667-9.667l9.666-9.667
		L184.084,196.106z M162.397,217.793l-9.66,9.66l-9.667-9.667l9.66-9.66L162.397,217.793z M134.818,239.469
		c0-1.924,0.056-3.836,0.159-5.735l5.74,5.74l-5.739,5.739C134.875,243.311,134.818,241.396,134.818,239.469z M143.072,261.161
		l9.666-9.667l9.659,9.659l-9.666,9.667L143.072,261.161z M174.417,273.174l9.667,9.667l-9.666,9.666l-9.667-9.667L174.417,273.174z
		 M196.105,294.861l9.666,9.666l-9.666,9.667l-9.666-9.667L196.105,294.861z M208.125,282.84l9.659-9.659l9.666,9.666l-9.659,9.66
		L208.125,282.84z M229.806,261.16l9.666-9.666l9.666,9.666l-9.666,9.667L229.806,261.16z M261.159,273.181l9.659,9.659
		l-9.666,9.666l-9.659-9.659L261.159,273.181z M282.839,294.861l9.666,9.666l-9.666,9.666l-9.666-9.666L282.839,294.861z
		 M294.859,282.84l9.666-9.667l9.666,9.666l-9.666,9.666L294.859,282.84z M316.546,261.153l9.659-9.659l9.666,9.666l-9.659,9.659
		L316.546,261.153z M344.118,239.469c0,1.925-0.056,3.837-0.159,5.736l-5.732-5.732l5.733-5.732
		C344.062,235.638,344.118,237.547,344.118,239.469z M326.212,184.085l-9.666-9.666l2.652-2.652
		c2.981,3.506,5.739,7.207,8.245,11.087L326.212,184.085z M304.526,162.399l-9.666-9.666l1.233-1.233
		c3.88,2.506,7.581,5.264,11.086,8.246L304.526,162.399z M270.817,152.733l-9.666,9.666l-9.659-9.659l9.666-9.666L270.817,152.733z
		 M249.131,174.419l-9.659,9.659l-9.659-9.659l9.659-9.66L249.131,174.419z M217.792,162.399l-9.667-9.667l9.659-9.659l9.666,9.667
		L217.792,162.399z M184.084,152.733l-9.667,9.666l-2.656-2.656c3.506-2.982,7.207-5.74,11.087-8.246L184.084,152.733z
		 M162.397,174.419l-9.666,9.667l-1.235-1.235c2.506-3.88,5.264-7.582,8.245-11.087L162.397,174.419z M152.731,294.861l9.667,9.667
		l-2.652,2.652c-2.982-3.506-5.74-7.208-8.246-11.087L152.731,294.861z M174.418,316.548l9.666,9.667l-1.23,1.23
		c-3.88-2.505-7.581-5.263-11.088-8.245L174.418,316.548z M208.125,326.214l9.666-9.666l9.659,9.659l-9.666,9.666L208.125,326.214z
		 M229.812,304.527l9.659-9.66l9.659,9.66l-9.659,9.659L229.812,304.527z M261.151,316.548l9.666,9.666l-9.659,9.659l-9.666-9.666
		L261.151,316.548z M294.859,326.214l9.666-9.666l2.648,2.648c-3.506,2.982-7.207,5.74-11.087,8.245L294.859,326.214z
		 M316.547,304.527l9.666-9.666l1.228,1.228c-2.506,3.88-5.264,7.581-8.245,11.087L316.547,304.527z M245.211,134.979l-5.74,5.74
		l-5.74-5.741c1.9-0.103,3.812-0.159,5.737-0.159C241.396,134.819,243.31,134.875,245.211,134.979z M233.739,343.96l5.732-5.732
		l5.731,5.731c-1.899,0.103-3.81,0.159-5.734,0.159C237.546,344.119,235.636,344.063,233.739,343.96z"/>
</g>
<g>
</g>
<g>
</g>
<g>
</g>
<g>
</g>
<g>
</g>
<g>
</g>
<g>
</g>
<g>
</g>
<g>
</g>
<g>
</g>
<g>
</g>
<g>
</g>
<g>
</g>
<g>
</g>
<g>
</g>
</svg>
