<?xml version="1.0" encoding="utf-8"?>
<!-- Generator: Adobe Illustrator 15.0.0, SVG Export Plug-In . SVG Version: 6.00 Build 0)  -->
<!DOCTYPE svg PUBLIC "-//W3C//DTD SVG 1.1//EN" "http://www.w3.org/Graphics/SVG/1.1/DTD/svg11.dtd">
<svg version="1.1"  xmlns="http://www.w3.org/2000/svg" xmlns:xlink="http://www.w3.org/1999/xlink" x="0px" y="0px"
	 width="48px" height="48px" viewBox="0 0 48 48" enable-background="new 0 0 48 48" xml:space="preserve">
<path fill="#2E7D32" d="M32.732,38.092c-0.199-0.08-0.584-0.328-0.88-0.537c-0.315-0.223-0.628-0.468-0.933-0.728
	c-0.61-0.521-1.19-1.101-1.732-1.726c-0.297-0.341-0.579-0.697-0.853-1.063C26.45,31.354,25,27.367,25,21c0-0.553-0.447-1-1-1
	s-1,0.447-1,1c0,9.946,3.102,15.494,5.339,18.18c0.016,0.02,0.029,0.041,0.045,0.061c0.31,0.385,0.636,0.761,0.988,1.127
	c0.373,0.378,0.68,0.696,1.224,1.107l0.163,0.123c0.137,0.102,0.288,0.188,0.453,0.254c1.038,0.42,2.22-0.08,2.64-1.119
	C34.271,39.694,33.771,38.513,32.732,38.092z"/>
<g>
	<path fill="#4CAF50" d="M14.233,30.736c4.081-0.86,9.465-10.172,9.465-10.172s-8.686-6.345-12.766-5.484
		c-4.532,0.957-3.218,6.13-0.058,8.188C8.815,26.429,9.701,31.693,14.233,30.736z"/>
	<path fill="#4CAF50" d="M37.087,15.085c-4.076-0.886-12.799,5.407-12.799,5.407s5.327,9.343,9.404,10.229
		c4.526,0.982,5.443-4.275,3.403-7.448C40.268,21.232,41.613,16.067,37.087,15.085z"/>
	<path fill="#4CAF50" d="M16,9.64c0,4.172,8,11.142,8,11.142s8-6.97,8-11.142c0-4.632-5.333-4.412-8-1.745
		C21.333,5.228,16,5.008,16,9.64z"/>
</g>
<g>
	<g>
		<path fill="#388E3C" d="M28.969,26.688c-0.541-0.295-0.982-0.699-1.423-1.095c-0.417-0.414-0.826-0.835-1.191-1.284
			c-0.74-0.894-1.389-1.838-1.967-2.837l-0.43-0.743l0.66-0.532c0.892-0.72,1.824-1.376,2.816-1.964
			c0.495-0.294,1.016-0.557,1.542-0.809c0.538-0.232,1.082-0.469,1.679-0.595c-1.426,1.9-3.03,3.473-4.772,4.911l0.229-1.273
			c0.573,0.962,1.106,1.964,1.583,2.993C28.175,24.494,28.586,25.547,28.969,26.688z"/>
	</g>
	<g>
		<path fill="#388E3C" d="M17.188,16.938c0.619,0.057,1.19,0.27,1.752,0.475c0.549,0.23,1.09,0.475,1.601,0.762
			c1.029,0.568,1.985,1.22,2.896,1.953l0.709,0.571l-0.497,0.753c-0.632,0.959-1.319,1.881-2.071,2.76
			c-0.766,0.87-1.566,1.72-2.546,2.445c0.297-1.181,0.754-2.25,1.248-3.297c0.506-1.039,1.075-2.036,1.697-2.998l0.212,1.324
			c-0.888-0.696-1.756-1.441-2.582-2.229C18.771,18.668,17.999,17.836,17.188,16.938z"/>
	</g>
</g>
<g>
	<path fill="#81C784" d="M29.018,14.982c-0.366-0.634-0.768-1.232-1.187-1.813c-0.845-1.155-1.771-2.228-2.771-3.229l-1.058-1.06
		l-1.063,1.06c-1.002,0.998-1.929,2.071-2.773,3.227c-0.419,0.581-0.82,1.18-1.187,1.813c-0.071,0.13-0.14,0.263-0.211,0.393
		c0.242,0.314,0.488,0.622,0.739,0.925c0.17-0.092,0.343-0.182,0.513-0.274c0.634-0.367,1.232-0.769,1.813-1.188
		c0.762-0.557,1.476-1.162,2.168-1.789c0.693,0.625,1.406,1.229,2.167,1.786c0.581,0.419,1.18,0.82,1.813,1.187
		c0.169,0.094,0.342,0.184,0.512,0.275c0.25-0.301,0.494-0.606,0.734-0.918C29.157,15.244,29.089,15.112,29.018,14.982z"/>
	<path fill="#81C784" d="M16.774,16.896c-0.544,0.489-1.047,1.006-1.529,1.535c-0.956,1.064-1.814,2.192-2.588,3.377l-0.818,1.254
		l1.256,0.821c1.183,0.776,2.424,1.461,3.729,2.048c0.654,0.291,1.323,0.561,2.018,0.788c0.142,0.043,0.286,0.082,0.429,0.126
		c0.258-0.303,0.507-0.606,0.752-0.915c-0.125-0.147-0.248-0.298-0.375-0.444c-0.489-0.545-1.006-1.048-1.535-1.529
		c-0.703-0.631-1.442-1.204-2.198-1.752c0.469-0.809,0.913-1.631,1.3-2.49c0.291-0.655,0.56-1.322,0.787-2.02
		c0.057-0.184,0.109-0.371,0.164-0.557c-0.346-0.184-0.695-0.358-1.05-0.529C17.002,16.705,16.887,16.8,16.774,16.896z"/>
	<path fill="#81C784" d="M29.104,26.672c0.696-0.223,1.367-0.488,2.023-0.774c1.309-0.58,2.553-1.259,3.744-2.022l1.26-0.809
		l-0.81-1.264c-0.763-1.191-1.615-2.324-2.565-3.396c-0.479-0.532-0.979-1.052-1.52-1.544c-0.111-0.097-0.227-0.191-0.339-0.289
		c-0.358,0.17-0.711,0.345-1.061,0.526c0.054,0.186,0.105,0.373,0.16,0.559c0.224,0.697,0.489,1.368,0.775,2.024
		c0.382,0.862,0.822,1.688,1.288,2.498c-0.758,0.545-1.5,1.113-2.205,1.739c-0.532,0.479-1.052,0.979-1.544,1.521
		c-0.128,0.145-0.252,0.295-0.378,0.441c0.241,0.308,0.487,0.611,0.741,0.912C28.818,26.753,28.962,26.715,29.104,26.672z"/>
</g>
</svg>
