<?xml version="1.0" encoding="UTF-8" standalone="no"?>
<!-- Created with Inkscape (http://www.inkscape.org/) -->

<svg
   xmlns:dc="http://purl.org/dc/elements/1.1/"
   xmlns:cc="http://creativecommons.org/ns#"
   xmlns:rdf="http://www.w3.org/1999/02/22-rdf-syntax-ns#"
   xmlns:svg="http://www.w3.org/2000/svg"
   xmlns="http://www.w3.org/2000/svg"
   xmlns:sodipodi="http://sodipodi.sourceforge.net/DTD/sodipodi-0.dtd"
   xmlns:inkscape="http://www.inkscape.org/namespaces/inkscape"
   width="48"
   height="48"
   viewBox="0 0 48 48.000001"
   id="svg3712"
   version="1.1"
   inkscape:version="0.91 r13725"
   sodipodi:docname="thyme.svg">
  <defs
     id="defs3714" />
  <sodipodi:namedview
     id="base"
     pagecolor="#ffffff"
     bordercolor="#666666"
     borderopacity="1.0"
     inkscape:pageopacity="0.0"
     inkscape:pageshadow="2"
     inkscape:zoom="5.6"
     inkscape:cx="31.111034"
     inkscape:cy="48.091315"
     inkscape:document-units="px"
     inkscape:current-layer="layer1"
     showgrid="false"
     units="px"
     inkscape:window-width="1385"
     inkscape:window-height="855"
     inkscape:window-x="0"
     inkscape:window-y="1"
     inkscape:window-maximized="1" />
  <metadata
     id="metadata3717">
    <rdf:RDF>
      <cc:Work
         rdf:about="">
        <dc:format>image/svg+xml</dc:format>
        <dc:type
           rdf:resource="http://purl.org/dc/dcmitype/StillImage" />
        <dc:title></dc:title>
      </cc:Work>
    </rdf:RDF>
  </metadata>
  <g
     inkscape:label="Layer 1"
     inkscape:groupmode="layer"
     id="layer1"
     transform="translate(0,-1004.3622)">
    <g
       id="g134"
       transform="matrix(0.26049148,0,0,-0.26049148,23.408934,1047.3226)">
      <path
         d="m 0,0 c -4.951,6.508 -10.329,13.871 -15.946,21.854 -0.056,0.081 -0.134,0.127 -0.249,0.15 -3.763,0.753 -8.013,1.881 -12.364,3.333 -3.879,1.294 -7.375,2.69 -10.286,4.068 -0.265,0.126 -0.266,0.462 -10e-4,0.779 0.266,0.316 0.707,0.504 1.022,0.437 3.444,-0.743 7.243,-1.78 11.121,-3.074 2.298,-0.767 4.463,-1.57 6.45,-2.384 0.259,-0.105 0.658,0.007 0.964,0.272 0.307,0.265 0.421,0.597 0.278,0.803 -3.126,4.5 -6.314,9.174 -9.531,13.984 -2.143,3.202 -4.234,6.368 -6.269,9.487 -0.054,0.083 -0.132,0.133 -0.249,0.157 -3.508,0.747 -7.395,1.802 -11.366,3.127 -3.879,1.294 -7.375,2.692 -10.286,4.069 -0.267,0.126 -0.267,0.461 -10e-4,0.778 0.266,0.316 0.706,0.506 1.022,0.437 3.444,-0.743 7.243,-1.779 11.122,-3.074 1.965,-0.655 3.835,-1.339 5.578,-2.032 0.258,-0.103 0.651,0.009 0.955,0.269 0.305,0.262 0.423,0.59 0.289,0.799 -6.415,9.958 -12.189,19.343 -17.082,27.713 -0.141,0.241 0.049,0.634 0.428,0.887 0.379,0.253 0.81,0.276 0.979,0.055 8.343,-10.968 17.902,-24.364 27.767,-39.065 0.14,-0.209 0.493,-0.225 0.853,-0.042 0.361,0.184 0.614,0.51 0.612,0.788 -0.015,2.372 0.068,4.952 0.256,7.673 0.285,4.079 0.776,7.986 1.404,11.453 0.056,0.317 0.399,0.653 0.794,0.778 0.393,0.124 0.704,-0.004 0.718,-0.298 0.163,-3.217 0.12,-6.982 -0.164,-11.061 -0.332,-4.767 -0.947,-9.301 -1.732,-13.171 -0.024,-0.119 -0.01,-0.213 0.046,-0.297 C -13.548,25.611 -5.254,12.336 1.407,0.941 1.548,0.7 1.359,0.309 0.981,0.056 0.603,-0.197 0.169,-0.223 0,0"
         style="fill:#89b95f;fill-opacity:1;fill-rule:evenodd;stroke:none"
         id="path136"
         inkscape:connector-curvature="0" />
    </g>
    <g
       id="g138"
       transform="matrix(0.26049148,0,0,-0.26049148,9.4441382,1026.5289)">
      <path
         d="m 0,0 c -6.676,2.135 -12.704,6.457 -16.905,12.736 -4.2,6.279 -5.896,13.5 -5.321,20.487 0.058,0.706 0.402,1.29 0.991,1.683 0.589,0.395 1.259,0.49 1.934,0.274 6.677,-2.135 12.705,-6.457 16.906,-12.736 C 1.806,16.165 3.501,8.943 2.926,1.958 2.868,1.251 2.524,0.667 1.936,0.273 1.347,-0.121 0.676,-0.216 0,0"
         style="fill:#008143;fill-opacity:1;fill-rule:evenodd;stroke:none"
         id="path140"
         inkscape:connector-curvature="0" />
    </g>
    <g
       id="g142"
       transform="matrix(0.26049148,0,0,-0.26049148,11.036339,1027.1778)">
      <path
         d="m 0,0 c -0.849,4.802 -0.141,9.914 2.364,14.534 2.505,4.62 6.402,8.003 10.889,9.913 0.453,0.194 0.924,0.171 1.357,-0.064 0.434,-0.236 0.709,-0.617 0.795,-1.103 C 16.254,18.478 15.546,13.366 13.042,8.746 10.537,4.125 6.64,0.742 2.153,-1.167 1.699,-1.36 1.229,-1.338 0.795,-1.104 0.361,-0.868 0.086,-0.486 0,0"
         style="fill:#008143;fill-opacity:1;fill-rule:evenodd;stroke:none"
         id="path144"
         inkscape:connector-curvature="0" />
    </g>
    <g
       id="g146"
       transform="matrix(0.26049148,0,0,-0.26049148,16.360396,1029.7247)">
      <path
         d="m 0,0 c -1.879,3.45 -2.647,7.536 -1.918,11.707 0.73,4.172 2.84,7.754 5.778,10.362 0.297,0.264 0.662,0.368 1.054,0.299 C 5.305,22.3 5.613,22.078 5.804,21.729 7.683,18.279 8.451,14.192 7.722,10.021 6.992,5.851 4.882,2.268 1.943,-0.34 1.646,-0.604 1.281,-0.708 0.89,-0.64 0.498,-0.57 0.19,-0.35 0,0"
         style="fill:#008143;fill-opacity:1;fill-rule:evenodd;stroke:none"
         id="path148"
         inkscape:connector-curvature="0" />
    </g>
    <g
       id="g150"
       transform="matrix(0.26049148,0,0,-0.26049148,9.0689263,1026.8212)">
      <path
         d="m 0,0 c -4.114,2.617 -9.109,3.913 -14.336,3.361 -5.226,-0.551 -9.841,-2.862 -13.318,-6.281 -0.352,-0.346 -0.511,-0.789 -0.459,-1.28 0.051,-0.49 0.301,-0.891 0.717,-1.155 4.114,-2.618 9.109,-3.914 14.335,-3.362 5.227,0.552 9.841,2.863 13.319,6.282 0.351,0.345 0.511,0.789 0.458,1.28 C 0.664,-0.665 0.416,-0.264 0,0"
         style="fill:#008143;fill-opacity:1;fill-rule:evenodd;stroke:none"
         id="path152"
         inkscape:connector-curvature="0" />
    </g>
    <g
       id="g154"
       transform="matrix(0.26049148,0,0,-0.26049148,9.4774541,1032.0857)">
      <path
         d="m 0,0 c -4.722,3.004 -10.453,4.491 -16.45,3.857 -5.998,-0.633 -11.292,-3.285 -15.282,-7.208 -0.404,-0.396 -0.586,-0.906 -0.527,-1.468 0.059,-0.563 0.344,-1.023 0.822,-1.327 4.721,-3.002 10.453,-4.49 16.451,-3.857 5.997,0.634 11.292,3.285 15.282,7.209 0.403,0.397 0.585,0.905 0.526,1.469 C 0.763,-0.763 0.479,-0.304 0,0"
         style="fill:#008143;fill-opacity:1;fill-rule:evenodd;stroke:none"
         id="path156"
         inkscape:connector-curvature="0" />
    </g>
    <g
       id="g158"
       transform="matrix(0.26049148,0,0,-0.26049148,17.169586,1031.034)">
      <path
         d="m 0,0 c 1.163,5.474 4.116,10.606 8.769,14.444 4.652,3.837 10.252,5.76 15.847,5.861 0.566,0.009 1.057,-0.216 1.417,-0.653 0.361,-0.436 0.488,-0.962 0.371,-1.515 C 25.241,12.663 22.289,7.53 17.637,3.692 12.984,-0.145 7.384,-2.067 1.788,-2.168 1.223,-2.178 0.731,-1.952 0.372,-1.515 0.012,-1.079 -0.117,-0.554 0,0"
         style="fill:#008143;fill-opacity:1;fill-rule:evenodd;stroke:none"
         id="path160"
         inkscape:connector-curvature="0" />
    </g>
    <g
       id="g162"
       transform="matrix(0.26049148,0,0,-0.26049148,14.116182,1039.7127)">
      <path
         d="m 0,0 c -4.944,-2.621 -10.775,-3.652 -16.704,-2.548 -5.929,1.104 -10.998,4.165 -14.666,8.391 -0.371,0.427 -0.513,0.949 -0.409,1.505 0.103,0.556 0.424,0.992 0.924,1.257 4.943,2.622 10.774,3.653 16.703,2.548 C -8.224,10.049 -3.154,6.988 0.515,2.763 0.885,2.336 1.027,1.813 0.923,1.257 0.819,0.701 0.5,0.265 0,0"
         style="fill:#008143;fill-opacity:1;fill-rule:evenodd;stroke:none"
         id="path164"
         inkscape:connector-curvature="0" />
    </g>
    <g
       id="g166"
       transform="matrix(0.26049148,0,0,-0.26049148,14.575352,1040.6056)">
      <path
         d="m 0,0 c -1.106,-4.227 -3.597,-8.123 -7.365,-10.947 -3.769,-2.824 -8.207,-4.119 -12.575,-3.994 -0.442,0.011 -0.817,0.206 -1.081,0.559 -0.265,0.355 -0.347,0.769 -0.235,1.196 1.107,4.227 3.596,8.124 7.364,10.948 3.769,2.824 8.208,4.119 12.576,3.994 C -0.875,1.744 -0.5,1.55 -0.234,1.196 0.03,0.842 0.111,0.428 0,0"
         style="fill:#008143;fill-opacity:1;fill-rule:evenodd;stroke:none"
         id="path168"
         inkscape:connector-curvature="0" />
    </g>
    <g
       id="g170"
       transform="matrix(0.26049148,0,0,-0.26049148,24.734029,1041.122)">
      <path
         d="m 0,0 c 4.95,6.509 10.329,13.872 15.945,21.855 0.056,0.08 0.135,0.126 0.249,0.15 3.763,0.753 8.013,1.881 12.364,3.332 3.879,1.294 7.375,2.691 10.286,4.068 0.266,0.126 0.266,0.462 10e-4,0.779 -0.266,0.316 -0.706,0.505 -1.022,0.437 -3.443,-0.743 -7.242,-1.78 -11.121,-3.074 -2.298,-0.767 -4.462,-1.569 -6.45,-2.384 -0.259,-0.105 -0.658,0.007 -0.964,0.272 -0.306,0.265 -0.421,0.598 -0.277,0.804 3.126,4.499 6.313,9.173 9.53,13.983 2.143,3.202 4.234,6.369 6.27,9.488 0.053,0.083 0.132,0.133 0.249,0.157 3.507,0.746 7.394,1.802 11.365,3.126 3.879,1.294 7.375,2.692 10.286,4.069 0.267,0.126 0.267,0.461 0.001,0.778 -0.266,0.317 -0.706,0.506 -1.022,0.438 -3.443,-0.744 -7.242,-1.78 -11.121,-3.074 -1.966,-0.656 -3.835,-1.339 -5.579,-2.032 -0.258,-0.103 -0.651,0.008 -0.955,0.269 -0.305,0.261 -0.423,0.589 -0.288,0.798 6.414,9.958 12.188,19.344 17.081,27.713 0.141,0.242 -0.048,0.635 -0.428,0.888 -0.379,0.252 -0.81,0.276 -0.979,0.055 C 45.078,71.927 35.52,58.53 25.654,43.829 c -0.139,-0.208 -0.493,-0.225 -0.853,-0.041 -0.361,0.184 -0.614,0.509 -0.612,0.787 0.015,2.372 -0.068,4.953 -0.256,7.674 -0.285,4.078 -0.776,7.985 -1.404,11.452 -0.056,0.318 -0.399,0.653 -0.794,0.778 -0.393,0.124 -0.704,-0.004 -0.718,-0.298 -0.163,-3.217 -0.12,-6.982 0.165,-11.061 0.331,-4.767 0.947,-9.301 1.731,-13.171 0.024,-0.119 0.01,-0.213 -0.046,-0.296 C 13.548,25.611 5.253,12.336 -1.407,0.941 -1.549,0.7 -1.36,0.31 -0.982,0.056 -0.604,-0.197 -0.169,-0.222 0,0"
         style="fill:#89b95f;fill-opacity:1;fill-rule:evenodd;stroke:none"
         id="path172"
         inkscape:connector-curvature="0" />
    </g>
    <g
       id="g174"
       transform="matrix(0.26049148,0,0,-0.26049148,38.698558,1020.3282)">
      <path
         d="m 0,0 c 6.677,2.135 12.705,6.458 16.905,12.736 4.201,6.279 5.896,13.5 5.322,20.487 -0.059,0.706 -0.403,1.29 -0.992,1.684 -0.589,0.394 -1.259,0.489 -1.934,0.273 C 12.624,33.045 6.596,28.723 2.396,22.444 -1.806,16.166 -3.5,8.943 -2.926,1.958 -2.868,1.251 -2.524,0.668 -1.935,0.273 -1.346,-0.12 -0.676,-0.215 0,0"
         style="fill:#008143;fill-opacity:1;fill-rule:evenodd;stroke:none"
         id="path176"
         inkscape:connector-curvature="0" />
    </g>
    <g
       id="g178"
       transform="matrix(0.26049148,0,0,-0.26049148,37.106357,1020.9771)">
      <path
         d="m 0,0 c 0.849,4.802 0.141,9.914 -2.363,14.534 -2.505,4.62 -6.402,8.004 -10.889,9.913 -0.454,0.194 -0.925,0.171 -1.358,-0.064 -0.434,-0.235 -0.709,-0.617 -0.795,-1.103 -0.849,-4.801 -0.141,-9.914 2.363,-14.534 2.505,-4.62 6.402,-8.004 10.89,-9.913 0.453,-0.193 0.923,-0.171 1.357,0.064 C -0.361,-0.868 -0.086,-0.485 0,0"
         style="fill:#008143;fill-opacity:1;fill-rule:evenodd;stroke:none"
         id="path180"
         inkscape:connector-curvature="0" />
    </g>
    <g
       id="g182"
       transform="matrix(0.26049148,0,0,-0.26049148,31.782303,1023.5241)">
      <path
         d="m 0,0 c 1.879,3.45 2.647,7.537 1.918,11.708 -0.73,4.171 -2.839,7.753 -5.777,10.361 -0.297,0.264 -0.663,0.368 -1.055,0.299 -0.391,-0.068 -0.699,-0.289 -0.89,-0.639 -1.878,-3.45 -2.646,-7.537 -1.918,-11.707 0.73,-4.171 2.84,-7.753 5.779,-10.362 0.297,-0.264 0.662,-0.367 1.053,-0.299 C -0.498,-0.57 -0.189,-0.349 0,0"
         style="fill:#008143;fill-opacity:1;fill-rule:evenodd;stroke:none"
         id="path184"
         inkscape:connector-curvature="0" />
    </g>
    <g
       id="g186"
       transform="matrix(0.26049148,0,0,-0.26049148,39.07377,1020.6202)">
      <path
         d="m 0,0 c 4.115,2.617 9.11,3.913 14.336,3.361 5.226,-0.552 9.841,-2.863 13.318,-6.282 0.352,-0.346 0.511,-0.789 0.459,-1.279 -0.051,-0.49 -0.3,-0.892 -0.716,-1.156 -4.115,-2.618 -9.11,-3.914 -14.336,-3.362 -5.227,0.552 -9.841,2.864 -13.319,6.282 -0.35,0.346 -0.51,0.79 -0.458,1.28 0.052,0.491 0.3,0.891 0.716,1.156"
         style="fill:#008143;fill-opacity:1;fill-rule:evenodd;stroke:none"
         id="path188"
         inkscape:connector-curvature="0" />
    </g>
    <g
       id="g190"
       transform="matrix(0.26049148,0,0,-0.26049148,38.665217,1025.8848)">
      <path
         d="M 0,0 C 4.722,3.003 10.453,4.49 16.45,3.856 22.448,3.224 27.742,0.571 31.732,-3.352 32.137,-3.748 32.318,-4.258 32.26,-4.82 32.2,-5.383 31.915,-5.843 31.437,-6.146 26.716,-9.149 20.984,-10.637 14.986,-10.003 8.989,-9.37 3.695,-6.718 -0.295,-2.795 -0.699,-2.398 -0.881,-1.889 -0.822,-1.326 -0.763,-0.764 -0.478,-0.304 0,0"
         style="fill:#008143;fill-opacity:1;fill-rule:evenodd;stroke:none"
         id="path192"
         inkscape:connector-curvature="0" />
    </g>
    <g
       id="g194"
       transform="matrix(0.26049148,0,0,-0.26049148,30.973085,1024.8334)">
      <path
         d="m 0,0 c -1.163,5.474 -4.116,10.607 -8.769,14.444 -4.651,3.838 -10.252,5.76 -15.847,5.861 -0.566,0.01 -1.057,-0.216 -1.417,-0.653 -0.361,-0.436 -0.488,-0.962 -0.371,-1.514 1.163,-5.474 4.115,-10.608 8.767,-14.445 4.653,-3.838 10.254,-5.759 15.849,-5.86 0.565,-0.011 1.057,0.216 1.417,0.652 C -0.012,-1.078 0.117,-0.553 0,0"
         style="fill:#008143;fill-opacity:1;fill-rule:evenodd;stroke:none"
         id="path196"
         inkscape:connector-curvature="0" />
    </g>
    <g
       id="g198"
       transform="matrix(0.26049148,0,0,-0.26049148,34.026747,1033.5118)">
      <path
         d="m 0,0 c 4.943,-2.622 10.774,-3.653 16.703,-2.549 5.929,1.105 10.998,4.165 14.666,8.391 0.371,0.427 0.514,0.949 0.409,1.506 C 31.675,7.903 31.355,8.339 30.855,8.604 25.911,11.226 20.08,12.257 14.151,11.152 8.223,10.049 3.153,6.987 -0.516,2.763 -0.886,2.335 -1.027,1.813 -0.924,1.257 -0.82,0.7 -0.5,0.265 0,0"
         style="fill:#008143;fill-opacity:1;fill-rule:evenodd;stroke:none"
         id="path200"
         inkscape:connector-curvature="0" />
    </g>
    <g
       id="g202"
       transform="matrix(0.26049148,0,0,-0.26049148,33.56732,1034.4047)">
      <path
         d="m 0,0 c 1.106,-4.228 3.597,-8.124 7.365,-10.948 3.769,-2.823 8.207,-4.119 12.575,-3.994 0.442,0.012 0.817,0.207 1.081,0.56 0.266,0.354 0.347,0.768 0.235,1.195 C 20.149,-8.96 17.66,-5.063 13.892,-2.239 10.123,0.585 5.685,1.881 1.316,1.756 0.875,1.743 0.5,1.549 0.235,1.195 -0.03,0.842 -0.111,0.427 0,0"
         style="fill:#008143;fill-opacity:1;fill-rule:evenodd;stroke:none"
         id="path204"
         inkscape:connector-curvature="0" />
    </g>
  </g>
</svg>
