<?xml version="1.0" encoding="UTF-8" standalone="no"?>
<!-- Generator: Adobe Illustrator 15.0.0, SVG Export Plug-In . SVG Version: 6.00 Build 0)  -->

<svg
   xmlns:dc="http://purl.org/dc/elements/1.1/"
   xmlns:cc="http://creativecommons.org/ns#"
   xmlns:rdf="http://www.w3.org/1999/02/22-rdf-syntax-ns#"
   xmlns:svg="http://www.w3.org/2000/svg"
   xmlns="http://www.w3.org/2000/svg"
   xmlns:sodipodi="http://sodipodi.sourceforge.net/DTD/sodipodi-0.dtd"
   xmlns:inkscape="http://www.inkscape.org/namespaces/inkscape"
   version="1.1"
   x="0px"
   y="0px"
   width="48px"
   height="48px"
   viewBox="0 0 48 48"
   enable-background="new 0 0 48 48"
   xml:space="preserve"
   id="svg12"
   sodipodi:docname="tomato-cherries.svg"
   inkscape:version="0.92.0 r"><metadata
     id="metadata18"><rdf:RDF><cc:Work
         rdf:about=""><dc:format>image/svg+xml</dc:format><dc:type
           rdf:resource="http://purl.org/dc/dcmitype/StillImage" /><dc:title></dc:title></cc:Work></rdf:RDF></metadata><defs
     id="defs16" /><sodipodi:namedview
     pagecolor="#ffffff"
     bordercolor="#666666"
     borderopacity="1"
     objecttolerance="10"
     gridtolerance="10"
     guidetolerance="10"
     inkscape:pageopacity="0"
     inkscape:pageshadow="2"
     inkscape:window-width="1378"
     inkscape:window-height="817"
     id="namedview14"
     showgrid="false"
     inkscape:zoom="9.2090356"
     inkscape:cx="21.134328"
     inkscape:cy="23.077157"
     inkscape:window-x="0"
     inkscape:window-y="23"
     inkscape:window-maximized="0"
     inkscape:current-layer="svg12" /><path
     id="path20"
     d="m 33.26294,34.844882 c 0,0 -4.170108,-5.251185 -8.298194,-1.656935 -4.127385,3.595879 -1.421801,8.093281 -0.533712,9.266459 0.887738,1.172361 5.240646,6.009967 10.053869,2.401496 3.988788,-2.989832 2.569676,-8.015584 -0.926057,-9.619199 z"
     inkscape:connector-curvature="0"
     style="fill:#ff3d00;stroke-width:0.39670286"
     inkscape:transform-center-x="1.1724837"
     inkscape:transform-center-y="9.3929424" /><path
     id="path22"
     d="m 33.558846,35.236703 -0.296163,-0.391518 c 0,0 -3.042814,-3.826922 -6.502599,-2.704537 0.234809,0.703579 0.735983,1.719564 0.735983,1.719564 0.348016,0.697352 0.772515,1.260965 1.262527,1.67432 0.483947,0.408237 1.024207,0.667278 1.593821,0.774623 -0.390409,0.720598 -0.584199,1.661552 -0.188737,2.848381 l 0.287395,0.862117 0.815868,-0.401143 c 0.683974,-0.336463 1.175653,-0.683073 1.541797,-1.059285 0.180572,0.42272 0.44471,0.818363 0.826167,1.140145 0.457568,0.385985 1.042298,0.63168 1.737066,0.730937 0,0 0.887882,0.15888 1.516366,0.190285 0.108891,-2.24 -1.237735,-4.424335 -3.329491,-5.383889 z"
     inkscape:connector-curvature="0"
     style="fill:#dd2c00;stroke-width:0.39670286"
     inkscape:transform-center-x="-0.83801971"
     inkscape:transform-center-y="6.6200873" /><g
     id="g28"
     transform="matrix(0.30322512,0.25578838,-0.25578838,0.30322512,29.219334,25.537528)"
     inkscape:transform-center-x="-1.8787425"
     inkscape:transform-center-y="5.5063749"><path
       id="path24"
       d="M 25,23.001 C 26.917,18.626 26.109,16.64 24.241,13 26.797,16.33 30.208,20.001 35,17.001 31.354,16.032 32.014,13.229 27.486,12.434 30.882,12.576 32.678,13.638 35,9.001 31.344,10.925 29.208,6.709 24.457,11.053 23.655,11.551 22.813,10.287 22.17,10.972 18.74,5.271 14.664,10.366 13,6.001 c 0,6.712 6.442,4.886 8,6 -6.064,-0.511 -5.597,4.104 -10,5 5.792,2.5 9.551,0.063 11.072,-4.091 -0.238,1.623 -2.286,6.906 2.928,10.091 z"
       inkscape:connector-curvature="0"
       style="fill:#4caf50" /><path
       id="path26"
       d="m 22.001,12.06 c -0.026,0.197 0.392,0.94 1.748,0.94 1.623,0 1.001,-0.809 1.001,-0.809 0,0 -0.149,-4.67 3.25,-7.756 -0.863,-0.715 -1.771,-0.332 -1.771,-0.332 0,0 -3.629,3.747 -4.228,7.957 z"
       inkscape:connector-curvature="0"
       style="fill:#4caf50" /></g><path
     inkscape:transform-center-y="9.1206122"
     inkscape:transform-center-x="2.3775484"
     style="fill:#ff3d00;stroke-width:0.39670286"
     inkscape:connector-curvature="0"
     d="m 23.164576,22.261863 c 0,0 -3.458438,-5.744906 -8.015386,-2.712752 -4.556463,3.033858 -2.453168,7.842492 -1.723711,9.120358 0.729215,1.277011 4.422239,6.635351 9.660441,3.677409 4.340903,-2.450733 3.581451,-7.617481 0.321589,-9.65832 z"
     id="path30" /><path
     inkscape:transform-center-y="6.7386888"
     inkscape:transform-center-x="-0.0027884008"
     style="fill:#dd2c00;stroke-width:0.39670286"
     inkscape:connector-curvature="0"
     d="m 23.407509,22.688558 -0.243226,-0.426426 c 0,0 -2.524138,-4.187217 -6.099735,-3.520163 0.142158,0.727976 0.50819,1.800086 0.50819,1.800086 0.255223,0.736394 0.603531,1.350024 1.036174,1.823092 0.427288,0.467213 0.92965,0.793733 1.480675,0.973606 -0.480038,0.664262 -0.7935,1.572387 -0.55432,2.800291 l 0.17387,0.891969 0.86077,-0.292631 c 0.721638,-0.245491 1.253893,-0.525831 1.665476,-0.851709 0.124578,0.442469 0.335513,0.868859 0.672309,1.237126 0.403998,0.441746 0.952179,0.760763 1.628358,0.948749 0,0 0.859994,0.272002 1.479187,0.384157 0.396719,-2.207277 -0.657111,-4.546969 -2.607728,-5.768147 z"
     id="path32" /><g
     inkscape:transform-center-y="5.7911516"
     inkscape:transform-center-x="-1.1276375"
     transform="matrix(0.26772425,0.29274033,-0.29274033,0.26772425,20.354426,12.510933)"
     id="g38"><path
       style="fill:#4caf50"
       inkscape:connector-curvature="0"
       d="M 25,23.001 C 26.917,18.626 26.109,16.64 24.241,13 26.797,16.33 30.208,20.001 35,17.001 31.354,16.032 32.014,13.229 27.486,12.434 30.882,12.576 32.678,13.638 35,9.001 31.344,10.925 29.208,6.709 24.457,11.053 23.655,11.551 22.813,10.287 22.17,10.972 18.74,5.271 14.664,10.366 13,6.001 c 0,6.712 6.442,4.886 8,6 -6.064,-0.511 -5.597,4.104 -10,5 5.792,2.5 9.551,0.063 11.072,-4.091 -0.238,1.623 -2.286,6.906 2.928,10.091 z"
       id="path34" /><path
       style="fill:#4caf50"
       inkscape:connector-curvature="0"
       d="m 22.001,12.06 c -0.026,0.197 0.392,0.94 1.748,0.94 1.623,0 1.001,-0.809 1.001,-0.809 0,0 -0.149,-4.67 3.25,-7.756 -0.863,-0.715 -1.771,-0.332 -1.771,-0.332 0,0 -3.629,3.747 -4.228,7.957 z"
       id="path36" /></g><path
     id="path40"
     d="m 20.089974,7.3029578 c 0,0 -1.721166,-6.480921 -6.942404,-4.8382342 -5.2212443,1.6444597 -4.54076,6.8486647 -4.1961558,8.2791534 0.3446093,1.4296 2.3987618,7.604605 8.2536118,6.222971 4.851774,-1.144465 5.561698,-6.318252 2.999398,-9.1864126 z"
     inkscape:connector-curvature="0"
     style="fill:#ff3d00;stroke-width:0.39670286"
     inkscape:transform-center-x="4.8915633"
     inkscape:transform-center-y="8.043314" /><path
     id="path42"
     d="M 20.204424,7.7804354 20.089617,7.3031327 c 0,0 -1.257779,-4.7246209 -4.877659,-5.0800351 -0.06626,0.7387615 -0.01338,1.8703989 -0.01338,1.8703989 0.03998,0.778342 0.203562,1.46471 0.487295,2.0395749 0.280221,0.5677487 0.671738,1.021287 1.150843,1.3475401 -0.64608,0.504243 -1.200113,1.2890982 -1.31246,2.5350245 l -0.08149,0.905096 0.908215,-0.04126 c 0.761459,-0.03474 1.350741,-0.155717 1.836812,-0.354039 -0.0036,0.459659 0.08019,0.927931 0.301068,1.375442 0.264947,0.536802 0.702559,0.995899 1.299603,1.364807 0,0 0.750179,0.500807 1.313619,0.781013 0.995902,-2.009389 0.635561,-4.5500326 -0.897656,-6.2662588 z"
     inkscape:connector-curvature="0"
     style="fill:#dd2c00;stroke-width:0.39670286"
     inkscape:transform-center-x="1.6620783"
     inkscape:transform-center-y="6.4957542" /><g
     id="g48"
     transform="matrix(0.17557711,0.35573284,-0.35573284,0.17557711,20.107401,-2.844815)"
     inkscape:transform-center-x="0.3520981"
     inkscape:transform-center-y="6.0729435"><path
       id="path44"
       d="M 25,23.001 C 26.917,18.626 26.109,16.64 24.241,13 26.797,16.33 30.208,20.001 35,17.001 31.354,16.032 32.014,13.229 27.486,12.434 30.882,12.576 32.678,13.638 35,9.001 31.344,10.925 29.208,6.709 24.457,11.053 23.655,11.551 22.813,10.287 22.17,10.972 18.74,5.271 14.664,10.366 13,6.001 c 0,6.712 6.442,4.886 8,6 -6.064,-0.511 -5.597,4.104 -10,5 5.792,2.5 9.551,0.063 11.072,-4.091 -0.238,1.623 -2.286,6.906 2.928,10.091 z"
       inkscape:connector-curvature="0"
       style="fill:#4caf50" /><path
       id="path46"
       d="m 22.001,12.06 c -0.026,0.197 0.392,0.94 1.748,0.94 1.623,0 1.001,-0.809 1.001,-0.809 0,0 -0.149,-4.67 3.25,-7.756 -0.863,-0.715 -1.771,-0.332 -1.771,-0.332 0,0 -3.629,3.747 -4.228,7.957 z"
       inkscape:connector-curvature="0"
       style="fill:#4caf50" /></g><path
     style="fill:none;fill-rule:evenodd;stroke:#4caf50;stroke-width:1.05157828px;stroke-linecap:butt;stroke-linejoin:miter;stroke-opacity:1"
     d="m 23.705063,1.9325076 c 0,0 -1.005054,13.1565224 2.847338,19.9625114 3.852392,6.80599 15.002261,16.524457 15.002261,16.524457"
     id="path52"
     inkscape:connector-curvature="0"
     sodipodi:nodetypes="csc" /></svg>