<?xml version="1.0" encoding="UTF-8" standalone="no"?>
<!-- Generator: Adobe Illustrator 15.0.0, SVG Export Plug-In . SVG Version: 6.00 Build 0)  -->

<svg
   xmlns:dc="http://purl.org/dc/elements/1.1/"
   xmlns:cc="http://creativecommons.org/ns#"
   xmlns:rdf="http://www.w3.org/1999/02/22-rdf-syntax-ns#"
   xmlns:svg="http://www.w3.org/2000/svg"
   xmlns="http://www.w3.org/2000/svg"
   xmlns:sodipodi="http://sodipodi.sourceforge.net/DTD/sodipodi-0.dtd"
   xmlns:inkscape="http://www.inkscape.org/namespaces/inkscape"
   version="1.1"
   x="0px"
   y="0px"
   width="48px"
   height="48px"
   viewBox="0 0 48 48"
   enable-background="new 0 0 48 48"
   xml:space="preserve"
   id="svg12"
   sodipodi:docname="tomato-pink.svg"
   inkscape:version="0.92.0 r"><metadata
     id="metadata18"><rdf:RDF><cc:Work
         rdf:about=""><dc:format>image/svg+xml</dc:format><dc:type
           rdf:resource="http://purl.org/dc/dcmitype/StillImage" /><dc:title></dc:title></cc:Work></rdf:RDF></metadata><defs
     id="defs16" /><sodipodi:namedview
     pagecolor="#ffffff"
     bordercolor="#666666"
     borderopacity="1"
     objecttolerance="10"
     gridtolerance="10"
     guidetolerance="10"
     inkscape:pageopacity="0"
     inkscape:pageshadow="2"
     inkscape:window-width="1330"
     inkscape:window-height="811"
     id="namedview14"
     showgrid="false"
     inkscape:zoom="3.0286153"
     inkscape:cx="-19.584274"
     inkscape:cy="24"
     inkscape:window-x="0"
     inkscape:window-y="23"
     inkscape:window-maximized="0"
     inkscape:current-layer="svg12" /><path
     fill="#FF3D00"
     d="M22.919,11.361c0,0-16.57-3.34-18.682,10.295C2.129,35.293,14.652,39.561,18.27,40.378  c3.616,0.816,19.866,3.062,23.275-11.714c2.826-12.244-8.077-19.621-17.419-17.029L22.919,11.361z"
     id="path2"
     style="fill:#ff3e82;fill-opacity:1" /><path
     fill="#DD2C00"
     d="M24.126,11.635l-1.207-0.273c0,0-12.083-2.428-16.925,5.358c1.596,0.974,4.213,2.117,4.213,2.117  c1.804,0.778,3.538,1.174,5.154,1.174c1.596,0,3.058-0.379,4.33-1.098c0.419,2.023,1.575,4.151,4.266,5.795l1.955,1.194l0.92-2.099  c0.771-1.76,1.155-3.227,1.249-4.547c1.035,0.521,2.187,0.854,3.445,0.854c1.509,0,3.035-0.477,4.535-1.415  c0,0,1.969-1.137,3.231-2.098C35.861,12.104,29.716,10.084,24.126,11.635z"
     id="path4"
     style="fill:#fd0059;fill-opacity:1" /><g
     id="g10"><path
       fill="#4CAF50"
       d="M25,23.001c1.917-4.375,1.109-6.361-0.759-10.001c2.556,3.33,5.967,7.001,10.759,4.001   c-3.646-0.969-2.986-3.772-7.514-4.567c3.396,0.142,5.192,1.204,7.514-3.433c-3.656,1.924-5.792-2.292-10.543,2.052   c-0.802,0.498-1.644-0.766-2.287-0.081c-3.43-5.701-7.506-0.606-9.17-4.971c0,6.712,6.442,4.886,8,6c-6.064-0.511-5.597,4.104-10,5   c5.792,2.5,9.551,0.063,11.072-4.091C21.834,14.533,19.786,19.816,25,23.001z"
       id="path6" /><path
       fill="#4CAF50"
       d="M22.001,12.06C21.975,12.257,22.393,13,23.749,13c1.623,0,1.001-0.809,1.001-0.809S24.601,7.521,28,4.435   c-0.863-0.715-1.771-0.332-1.771-0.332S22.6,7.85,22.001,12.06z"
       id="path8" /></g></svg>