<?xml version="1.0" encoding="utf-8"?>
<!-- Generator: Adobe Illustrator 15.0.0, SVG Export Plug-In . SVG Version: 6.00 Build 0)  -->
<!DOCTYPE svg PUBLIC "-//W3C//DTD SVG 1.1//EN" "http://www.w3.org/Graphics/SVG/1.1/DTD/svg11.dtd">
<svg version="1.1"  xmlns="http://www.w3.org/2000/svg" xmlns:xlink="http://www.w3.org/1999/xlink" x="0px" y="0px"
	 width="48px" height="48px" viewBox="0 0 48 48" enable-background="new 0 0 48 48" xml:space="preserve">
<path fill="#E6EE9C" d="M5.716,35.772L5.716,35.772c8.297,8.3,21.75,8.3,30.046,0.001c8.297-8.301,8.297-21.758,0-30.059h-0.001
	L5.716,35.772z"/>
<path fill="#FF1744" d="M32.899,32.91c6.717-6.72,6.717-17.613,0-24.332L8.577,32.91C15.294,39.63,26.184,39.63,32.899,32.91z"/>
<g>
	<path fill="#5D4037" d="M29.681,27.456c0.592,0.593,0.592,1.554,0,2.146c-0.593,0.593-1.554,0.593-2.146,0
		c-0.593-0.593-1.074-3.221-1.074-3.221S29.088,26.862,29.681,27.456z"/>
	<path fill="#5D4037" d="M31.654,22.052c0.825,0.146,1.377,0.935,1.23,1.759c-0.146,0.825-0.934,1.376-1.759,1.229
		c-0.825-0.145-3.098-2.088-3.098-2.088S30.83,21.905,31.654,22.052z"/>
	<path fill="#5D4037" d="M31.238,16.356c0.825-0.135,1.605,0.429,1.738,1.257c0.135,0.828-0.429,1.607-1.257,1.739
		c-0.827,0.133-3.55-0.965-3.55-0.965S30.411,16.488,31.238,16.356z"/>
	<path fill="#5D4037" d="M22.151,31.559c0.146,0.825,0.933,1.378,1.758,1.232c0.825-0.146,1.376-0.935,1.229-1.761
		c-0.146-0.825-2.088-3.098-2.088-3.098S22.005,30.734,22.151,31.559z"/>
	<path fill="#5D4037" d="M16.37,31.143c-0.134,0.825,0.43,1.606,1.257,1.739c0.827,0.135,1.607-0.429,1.739-1.257
		c0.133-0.826-0.965-3.552-0.965-3.552S16.503,30.315,16.37,31.143z"/>
</g>
<path fill="#558B2F" d="M20.739,43C15.039,43,9.34,40.829,5,36.487l1.431-1.43c7.89,7.891,20.725,7.892,28.616,0.001
	c3.824-3.827,5.932-8.911,5.931-14.313c0-5.405-2.106-10.488-5.932-14.314L36.476,5C40.684,9.208,43,14.799,43,20.745
	c0.002,5.943-2.316,11.536-6.523,15.744C32.139,40.829,26.438,43,20.739,43z"/>
</svg>
