<?xml version="1.0" encoding="utf-8"?>
<!-- Generator: Adobe Illustrator 15.0.0, SVG Export Plug-In . SVG Version: 6.00 Build 0)  -->
<!DOCTYPE svg PUBLIC "-//W3C//DTD SVG 1.1//EN" "http://www.w3.org/Graphics/SVG/1.1/DTD/svg11.dtd">
<svg version="1.1"  xmlns="http://www.w3.org/2000/svg" xmlns:xlink="http://www.w3.org/1999/xlink" x="0px" y="0px"
	 width="50px" height="50px" viewBox="0 0 50 50" enable-background="new 0 0 50 50" xml:space="preserve">
<g>
	<line fill="none" stroke="#4CAF50" stroke-width="4" x1="9" y1="22.564" x2="23" y2="39"/>
	<path fill="#4CAF50" d="M21,21v18c0,1.104,0.896,2,2,2h15c1.104,0,2-0.896,2-2V23h-9v-2v-2C25,19,21,21,21,21z"/>
	<path fill="#4CAF50" d="M5.09,24.283L11.099,19c1.458,1.659,1.296,4.188-0.363,5.646S6.549,25.942,5.09,24.283z"/>
</g>
<g>
	<path fill="#2E7D32" d="M33.5,9c-6.72,0-12.202,5.333-12.474,11.987c0.11-0.054,0.834-0.397,2.063-0.788
		C23.733,15.023,28.151,11,33.5,11C39.29,11,44,15.71,44,21.5c0,3.335-1.568,6.306-4,8.23v2.426c3.591-2.198,6-6.146,6-10.656
		C46,14.607,40.393,9,33.5,9z"/>
	<rect x="21" y="23" fill="#2E7D32" width="19" height="2"/>
	<path fill="#2E7D32" d="M11.886,22.868c-0.214,0.663-0.589,1.284-1.15,1.777c-0.537,0.472-1.167,0.766-1.821,0.902l1.409,1.654
		c0.627-0.252,1.216-0.601,1.732-1.054c0.528-0.465,0.949-1.004,1.273-1.587L11.886,22.868z"/>
</g>
</svg>
