<?xml version="1.0" encoding="iso-8859-1"?>
<!-- Generator: Adobe Illustrator 19.1.1, SVG Export Plug-In . SVG Version: 6.00 Build 0)  -->
<svg version="1.1"  xmlns="http://www.w3.org/2000/svg" xmlns:xlink="http://www.w3.org/1999/xlink" x="0px" y="0px"
	 viewBox="0 0 48 48" style="enable-background:new 0 0 48 48;" xml:space="preserve">
<line style="fill:none;stroke:#D38013;stroke-width:2;stroke-miterlimit:10;" x1="14" y1="28" x2="18" y2="32"/>
<rect x="1.373" y="19.172" transform="matrix(-0.7071 0.7071 -0.7071 -0.7071 56.5269 20.5858)" style="fill:none;stroke:#D38013;stroke-width:2;stroke-miterlimit:10;" width="45.255" height="5.657"/>
<line style="fill:none;stroke:#D38013;stroke-width:2;stroke-miterlimit:10;" x1="34" y1="8" x2="38" y2="12"/>
<line style="fill:none;stroke:#D38013;stroke-width:2;stroke-miterlimit:10;" x1="30" y1="12" x2="34" y2="16"/>
<line style="fill:none;stroke:#D38013;stroke-width:2;stroke-miterlimit:10;" x1="10" y1="32" x2="14" y2="36"/>
<line style="fill:none;stroke:#D38013;stroke-width:2;stroke-miterlimit:10;" x1="34" y1="28" x2="30" y2="32"/>
<rect x="1.373" y="19.172" transform="matrix(0.7071 0.7071 -0.7071 0.7071 22.5858 -10.5269)" style="fill:none;stroke:#D38013;stroke-width:2;stroke-miterlimit:10;" width="45.255" height="5.657"/>
<line style="fill:none;stroke:#D38013;stroke-width:2;stroke-miterlimit:10;" x1="14" y1="8" x2="10" y2="12"/>
<line style="fill:none;stroke:#D38013;stroke-width:2;stroke-miterlimit:10;" x1="18" y1="12" x2="14" y2="16"/>
<line style="fill:none;stroke:#D38013;stroke-width:2;stroke-miterlimit:10;" x1="38" y1="32" x2="34" y2="36"/>
<polygon style="fill:#FFB74D;" points="17,19 14,45 34,45 31,19 "/>
<path style="fill:#E65100;" d="M28,45h-8v-6c0-2.209,1.791-4,4-4h0c2.209,0,4,1.791,4,4V45z"/>
<path style="fill:#805A26;" d="M25,28h-2v-2c0-0.552,0.448-1,1-1h0c0.552,0,1,0.448,1,1V28z"/>
<polygon style="fill:#C62828;" points="32,19 32,21 16,21 16,19 24,11 "/>
</svg>
